%FSTAX23Y23*%
%MOIN*%
%SFA1B1*%

%IPPOS*%
%AMD91*
4,1,8,0.025100,0.007500,-0.025100,0.007500,-0.032600,0.000000,-0.032600,0.000000,-0.025100,-0.007500,0.025100,-0.007500,0.032600,0.000000,0.032600,0.000000,0.025100,0.007500,0.0*
1,1,0.014992,0.025100,0.000000*
1,1,0.014992,-0.025100,0.000000*
1,1,0.014992,-0.025100,0.000000*
1,1,0.014992,0.025100,0.000000*
%
%ADD16C,0.015748*%
%ADD17C,0.010000*%
%ADD24R,0.051181X0.043307*%
%ADD26R,0.059378X0.047500*%
%ADD33R,0.053937X0.075197*%
%ADD42R,0.047244X0.047244*%
%ADD63C,0.047244*%
%ADD68C,0.055118*%
%ADD69R,0.055118X0.055118*%
%ADD72C,0.045275*%
%ADD73R,0.045275X0.045275*%
%ADD75R,0.055118X0.055118*%
%ADD78C,0.030000*%
%ADD79C,0.015748*%
%ADD80C,0.062992*%
%ADD81R,0.062992X0.062992*%
%ADD82C,0.059055*%
%ADD83R,0.059055X0.059055*%
%ADD84C,0.051181*%
%ADD85R,0.051181X0.051181*%
%ADD86C,0.047559*%
%ADD87C,0.137795*%
%ADD88C,0.027559*%
%ADD89R,0.075197X0.053937*%
%ADD90R,0.037594X0.053394*%
G04~CAMADD=91~8~0.0~0.0~651.7~149.9~75.0~0.0~15~0.0~0.0~0.0~0.0~0~0.0~0.0~0.0~0.0~0~0.0~0.0~0.0~0.0~651.7~149.9*
%ADD91D91*%
%ADD92R,0.065173X0.014992*%
%ADD93R,0.031496X0.059055*%
%ADD94R,0.051181X0.055118*%
%ADD95R,0.039370X0.037401*%
%ADD96R,0.055118X0.074803*%
%ADD97R,0.062992X0.041339*%
%ADD98R,0.031496X0.023622*%
%ADD99R,0.118110X0.062992*%
%ADD100R,0.244094X0.228346*%
%ADD101O,0.011811X0.066929*%
%ADD102R,0.057087X0.037401*%
%ADD103R,0.049689X0.031815*%
%ADD104R,0.062992X0.011811*%
%LNpcb1-1*%
%LPD*%
G36*
X11791Y03425D02*
X07804D01*
X07801Y03428*
X07805Y05472*
X11097*
X11097Y05467*
X11092Y05466*
X11084Y0546*
X11031Y05408*
X11026Y05399*
X11024Y0539*
Y05302*
X11013Y05291*
X10748*
X10738Y05289*
X1073Y05283*
X10678Y05232*
X10641*
Y05315*
X1063*
Y05346*
X10641*
Y05361*
X10646Y05363*
X10661Y05349*
Y0531*
X10736*
Y05385*
X10697*
X1067Y05411*
X10662Y05417*
X10652Y05419*
X10641*
Y05441*
X10567*
Y05346*
X10579*
Y05315*
X10567*
Y05272*
X10562Y0527*
X10549Y05283*
X10541Y05289*
X10531Y05291*
X10529*
Y05315*
X10468*
Y05346*
X10529*
Y05441*
X10455*
Y05407*
X10452Y05407*
X10444Y05401*
X10424Y05382*
X10419Y05373*
X10417Y05364*
Y05167*
X10308*
Y05181*
X1029*
X10288Y05186*
X10293Y05188*
X103Y05196*
X10305Y05205*
X10308Y05215*
Y05225*
X10305Y05235*
X103Y05244*
X10293Y05252*
X10284Y05257*
X10284Y05258*
Y05261*
X10284Y05262*
X10293Y05267*
X103Y05274*
X10305Y05283*
X10308Y05294*
Y05304*
X10305Y05314*
X103Y05323*
X10293Y0533*
X10284Y05336*
X10274Y05338*
X10263*
X10253Y05336*
X10244Y0533*
X10237Y05323*
X10232Y05314*
X10229Y05304*
Y05294*
X10232Y05283*
X10237Y05274*
X10244Y05267*
X10253Y05262*
X10253Y05261*
Y05258*
X10253Y05257*
X10244Y05252*
X10237Y05244*
X10232Y05235*
X10204*
X10198Y05234*
X10193Y05231*
X10143Y0518*
X10138Y05182*
Y0529*
X10137Y05296*
X10133Y05301*
X10124Y0531*
X1012Y05313*
X10114Y05314*
X10106*
X10101Y05323*
X10094Y0533*
X10085Y05336*
X10075Y05338*
X10064*
X10054Y05336*
X10045Y0533*
X10038Y05323*
X10033Y05314*
X1003Y05304*
Y05294*
X10033Y05283*
X10038Y05274*
X10045Y05267*
X10054Y05262*
X10055Y05261*
Y05258*
X10054Y05257*
X10045Y05252*
X10038Y05244*
X10033Y05235*
X1003Y05225*
Y05215*
X10033Y05205*
X10038Y05196*
X10045Y05188*
X1005Y05186*
X10048Y05181*
X1003*
Y05102*
X10054*
Y05072*
X1002Y05038*
X10017Y05033*
X10016Y05027*
Y04824*
X10017Y04818*
X1002Y04813*
X10037Y04796*
X1004Y04794*
Y04769*
X09988*
X09982Y04768*
X09977Y04765*
X0992Y04707*
X09916Y04703*
X09915Y04697*
Y04606*
X09913Y04605*
X09908Y046*
X09905Y04594*
X09903Y04587*
Y0458*
X09905Y04573*
X09907Y04568*
X09908Y04566*
X09906Y04562*
X09904Y04561*
X09899Y04556*
X09895Y0455*
X09893Y04543*
Y04535*
X09895Y04528*
X09896Y04527*
X09893Y04522*
X0988*
X09856Y04546*
X09851Y04549*
X09845Y0455*
X09802*
X09801Y04552*
X09796Y04557*
X0979Y04561*
X09783Y04562*
X09781*
X09779Y04567*
X09822Y0461*
X09861*
X09867Y04611*
X09867Y04611*
X09902*
Y04637*
Y04663*
Y04688*
Y04714*
Y04739*
Y04765*
Y0479*
X09939*
X09945Y04791*
X0995Y04795*
X09987Y04831*
X0999Y04836*
X09991Y04842*
Y04878*
X09993Y04879*
X09998Y04884*
X10002Y0489*
X10003Y04897*
Y04905*
X10002Y04912*
X09998Y04918*
X09994Y04921*
X09993Y04925*
X09994Y04928*
X09998Y04931*
X10002Y04938*
X10003Y04945*
Y04952*
X10002Y04959*
X09998Y04965*
X09993Y0497*
X09991Y04971*
Y04976*
X09993Y04977*
X09998Y04983*
X10002Y04989*
X10003Y04996*
Y05003*
X10002Y0501*
X09998Y05016*
X09993Y05022*
X09987Y05025*
X0998Y05027*
X09972*
X09965Y05025*
X09965Y05025*
X09872*
X09789Y05108*
X09789Y05109*
X09785Y05115*
X0978Y0512*
X09774Y05124*
X09767Y05125*
X0976*
X09753Y05124*
X09746Y0512*
X09741Y05115*
X09738Y05109*
X09736Y05102*
Y05094*
X09738Y05087*
X09741Y05081*
X09744Y05078*
X09742Y05073*
X09735*
X09735Y05073*
X09728Y05075*
X0972*
X09713Y05073*
X09707Y0507*
X09702Y05064*
X09698Y05058*
X09696Y05051*
Y05044*
X09698Y05037*
X09702Y05031*
X09707Y05025*
X09709Y05024*
Y05019*
X09707Y05018*
X09702Y05012*
X09698Y05006*
X09696Y04999*
Y04992*
X09698Y04985*
X09702Y04979*
X09707Y04974*
X09709Y04972*
Y04967*
X09707Y04966*
X09702Y04961*
X09698Y04955*
X09696Y04948*
Y04941*
X09698Y04934*
X09702Y04927*
X09705Y04924*
X09706Y04921*
X09705Y04918*
X09702Y04914*
X09698Y04908*
X09696Y04901*
Y04894*
X09698Y04887*
X09702Y0488*
X09707Y04875*
X09709Y04874*
Y04869*
X09707Y04868*
X09702Y04863*
X09698Y04857*
X09696Y0485*
Y04842*
X09698Y04835*
X09702Y04829*
X09707Y04824*
X09708Y04824*
Y04818*
X09704Y04816*
X09699Y04811*
X09695Y04804*
X09693Y04797*
Y0479*
X09695Y04783*
X09699Y04777*
X09699Y04776*
X09697Y04772*
X09678*
X09666Y04784*
X09661Y04787*
X09659Y04788*
X09659Y04788*
X09653Y04789*
X09409*
X09403Y04788*
X09398Y04784*
X09384Y0477*
X09281*
X09279Y04775*
X09279Y04775*
X09283Y04784*
Y04792*
X09292*
X093Y04796*
X09307Y04803*
X09311Y04811*
Y04821*
X09307Y04829*
X093Y04836*
X09292Y0484*
X09283*
Y04848*
X09292*
X093Y04851*
X09307Y04858*
X09311Y04866*
Y04876*
X09307Y04885*
X093Y04891*
X09292Y04895*
X09283*
Y04903*
X09279Y04912*
X09273Y04919*
X09264Y04922*
X09255*
X09246Y04919*
X09239Y04912*
X09236Y04903*
Y04895*
X09228*
Y04903*
X09224Y04912*
X09218Y04919*
X09209Y04922*
X092*
X09191Y04919*
X09184Y04912*
X09181Y04903*
Y04895*
X09172*
X09163Y04891*
X09157Y04885*
X09153Y04876*
Y04866*
X09157Y04858*
X09163Y04851*
X09172Y04848*
X09181*
Y0484*
X09172*
X09163Y04836*
X09157Y04829*
X09153Y04821*
Y04811*
X09157Y04803*
X09163Y04796*
X09172Y04792*
X09181*
Y04784*
X09184Y04775*
X09185Y04775*
X09183Y0477*
X09114*
X09112Y04775*
X09114Y04777*
X09118Y04783*
X0912Y0479*
Y04797*
X09119Y04798*
Y05003*
X09118Y05013*
X09112Y05021*
X08955Y05178*
X08947Y05183*
X08937Y05185*
X08782*
X08726Y05241*
Y05382*
X08726Y05383*
X08728Y0539*
Y05397*
X08726Y05404*
X08722Y0541*
X08717Y05415*
X08711Y05419*
X08704Y05421*
X08697*
X0869Y05419*
X08683Y05415*
X08678Y0541*
X08675Y05404*
X08673Y05397*
Y0539*
X08675Y05383*
X08675Y05382*
Y05313*
X0867Y0531*
X08668Y05311*
X08661Y05312*
X08654*
X08647Y05311*
X08641Y05307*
X08636Y05302*
X08632Y05296*
X0863Y05289*
Y05281*
X08632Y05274*
X08632Y05274*
Y0527*
X08632Y05265*
X08627*
X08552*
Y05186*
X08632*
Y05195*
X08637Y05196*
X0864Y05191*
X08731Y051*
X0874Y05094*
X0875Y05092*
X08912*
X09019Y04985*
Y04804*
X09019Y04803*
X09017Y04796*
Y04789*
X09019Y04782*
X09023Y04776*
X09023Y04775*
X09021Y0477*
X08941*
X08931Y04781*
Y0505*
X0893Y05056*
X08927Y05061*
X08908Y05079*
X08903Y05083*
X08897Y05084*
X08736*
X08697Y05123*
X08692Y05126*
X08686Y05127*
X08525*
X0848Y05173*
X08482Y05178*
X08483Y05178*
X08487Y05174*
X08493Y05171*
X085Y05169*
X08507*
X08514Y05171*
X0852Y05174*
X08525Y05179*
X08529Y05186*
X08531Y05193*
Y052*
X08529Y05207*
X08525Y05213*
X0852Y05218*
X08514Y05222*
X08507Y05224*
X085*
X085Y05224*
X08499Y05229*
X08504Y05235*
X08508Y0524*
X08509Y05246*
Y05354*
X08508Y0536*
X08504Y05365*
X08485Y05384*
X0848Y05388*
X08474Y05389*
X08395*
X08389Y05388*
X08384Y05384*
X08355Y05355*
X08352Y0535*
X0835Y05344*
Y0515*
X08349Y05145*
Y0509*
X0835Y05085*
X08348Y0508*
X08282*
X08265Y05097*
Y05136*
X08268Y05139*
X08273Y05147*
X08275Y05156*
Y05166*
X08273Y05175*
X08268Y05183*
X08262Y05189*
X08253Y05194*
X08244Y05197*
X08235*
X08226Y05194*
X08218Y05189*
X08211Y05183*
X08209Y05179*
X08204Y05181*
Y0522*
X08209Y05221*
X08211Y05218*
X08218Y05211*
X08226Y05206*
X08235Y05204*
X08244*
X08253Y05206*
X08262Y05211*
X08268Y05218*
X08273Y05226*
X08275Y05235*
Y05244*
X08273Y05253*
X08268Y05262*
X08262Y05268*
X08253Y05273*
X08244Y05275*
X08235*
X08226Y05273*
X08218Y05268*
X08211Y05262*
X08209Y05258*
X08204Y05259*
Y05339*
X08202Y05349*
X08197Y05357*
X08172Y05382*
X08164Y05387*
X08154Y05389*
X07887*
X07878Y05387*
X07869Y05382*
X07832Y05344*
X07826Y05336*
X07824Y05326*
Y03665*
X07826Y03655*
X07832Y03647*
X07954Y03525*
X07962Y03519*
X07972Y03517*
X0812*
X08129Y03519*
X08138Y03525*
X0817Y03557*
X08235*
X08237Y03554*
X08246Y03549*
X08255Y03547*
X08264*
X08273Y03549*
X08281Y03554*
X08288Y0356*
X08293Y03568*
X08295Y03577*
Y03587*
X08293Y03596*
X08288Y03604*
X08281Y03611*
X08273Y03615*
X08264Y03618*
X08255*
X08246Y03615*
X08237Y03611*
X08235Y03608*
X08159*
X08149Y03606*
X08141Y036*
X08109Y03568*
X07983*
X07875Y03675*
Y05316*
X07898Y05338*
X08143*
X08153Y05329*
Y05068*
X08155Y05059*
X08161Y0505*
X08214Y04997*
X08223Y04991*
X08232Y04989*
X08347*
X0835Y04985*
X08349Y04984*
Y04929*
X0835Y04924*
Y04912*
X08345Y04909*
X08344Y0491*
X08343Y0491*
X08325Y04929*
X08316Y04934*
X08307Y04936*
X08129*
X0812Y04934*
X08111Y04929*
X08102Y04919*
X08096Y04911*
X08094Y04901*
Y04886*
X08031*
Y0479*
X08094*
Y04775*
X08031*
Y0468*
X08042*
Y04663*
X08033*
Y04642*
X08029Y04641*
X08021Y04636*
X07983Y04598*
X07978Y0459*
X07976Y0458*
Y04469*
X07976Y04469*
X07974Y04462*
Y04455*
X07976Y04448*
X07976Y04447*
Y04324*
X07978Y04315*
X07983Y04306*
X08001Y04289*
X08009Y04283*
X08019Y04281*
X08031*
Y04242*
X08042*
Y04229*
X0803*
Y04134*
X08094*
Y04117*
X08091Y04115*
X08079*
X08076Y04114*
X0803*
Y04019*
X08049*
Y03965*
X0805Y03958*
X08054Y03953*
X08063Y03943*
X08069Y03939*
X08068Y03935*
X08065*
X07993*
Y0386*
X08069*
Y0393*
Y03931*
X08072Y03934*
X08073*
X08123*
Y03978*
X08085*
Y04019*
X08104*
Y04064*
X08112Y04065*
X0812Y04071*
X08137Y04088*
X08142Y04086*
Y04019*
X08216*
Y04114*
X08204*
Y04134*
X08216*
Y04168*
X0823*
X0824Y0417*
X08248Y04176*
X08265Y04193*
X08271Y04202*
X08273Y04211*
Y04225*
X08278Y0423*
X08281Y04231*
X08284Y0423*
X0829Y04224*
X08297Y0422*
X08306Y04218*
X08315*
X08324Y0422*
X08331Y04224*
X08337Y0423*
X0834Y04231*
X08343Y0423*
X08349Y04224*
X08357Y0422*
X08365Y04218*
X08374*
X08383Y0422*
X0839Y04224*
X08396Y0423*
X08399Y04231*
X08402Y0423*
X08408Y04224*
X08416Y0422*
X08424Y04218*
X08433*
X08442Y0422*
X08449Y04224*
X08455Y0423*
X08458Y04231*
X08461Y0423*
X08467Y04224*
X08475Y0422*
X08483Y04218*
X08492*
X08501Y0422*
X08508Y04224*
X08515Y04231*
X08519Y04238*
X08521Y04247*
Y04256*
X08519Y04265*
X08515Y04272*
X08508Y04279*
X08503Y04282*
Y04318*
X08542Y04357*
X08545Y04362*
X08546Y04368*
Y04592*
X08567*
Y04568*
X08566Y04567*
X08564Y0456*
Y04553*
X08566Y04546*
X0857Y0454*
X08575Y04535*
X08581Y04531*
X08588Y04529*
X08596*
X08603Y04531*
X08608Y04534*
X08613Y04532*
Y04087*
X08546Y04021*
X08438*
X08437Y04022*
X08432Y04027*
X08425Y04031*
X08418Y04033*
X08411*
X08404Y04031*
X08398Y04027*
X08393Y04022*
X08389Y04016*
X08387Y04009*
Y04002*
X08389Y03995*
X08393Y03988*
X08393Y03988*
X08393Y03987*
X08387Y03983*
X08386Y03984*
X08379*
X08372Y03982*
X08365Y03978*
X0836Y03973*
X08357Y03967*
X08355Y0396*
Y03953*
X08357Y03946*
X0836Y03939*
X08365Y03934*
X08372Y03931*
X08379Y03929*
X08386*
X08393Y03931*
X08399Y03934*
X08404Y03939*
X08405Y03941*
X08596*
X08602Y03942*
X08607Y03945*
X08659Y03997*
X08662Y04002*
X08663Y04008*
Y04538*
X08668Y0454*
X08668Y0454*
X08674Y04535*
X0868Y04531*
X08687Y04529*
X08694*
X08701Y04531*
X08701Y04531*
X08848*
X08858Y04533*
X08865Y04538*
X08868Y04534*
X08804Y0447*
X08799Y04462*
X08797Y04452*
Y04354*
X08799Y04344*
X08804Y04336*
X08882Y04258*
Y04051*
X08768Y03937*
X0868*
X0867Y03935*
X08662Y0393*
X08633Y03901*
X08226*
X08216Y03899*
X08208Y03894*
X08139Y03824*
X08059*
X08054Y03829*
X08045Y03834*
X08036Y03836*
X08026*
X08017Y03834*
X08008Y03829*
X08001Y03822*
X07996Y03813*
X07993Y03804*
Y03794*
X07996Y03784*
X08001Y03776*
X08008Y03769*
X08017Y03764*
X08026Y03761*
X08036*
X08045Y03764*
X08054Y03769*
X08059Y03773*
X08149*
X0815Y03773*
X08152Y03769*
X08109Y03726*
X08059*
X08054Y0373*
X08045Y03735*
X08036Y03738*
X08026*
X08017Y03735*
X08008Y0373*
X08001Y03723*
X07996Y03715*
X07993Y03705*
Y03695*
X07996Y03686*
X08001Y03677*
X08008Y0367*
X08017Y03665*
X08026Y03663*
X08036*
X08045Y03665*
X08054Y0367*
X08059Y03675*
X0812*
X08129Y03677*
X08138Y03682*
X08241Y03786*
X08632*
X08634Y03781*
X08568Y03714*
X08567Y03714*
X08561Y03711*
X08557Y03711*
X08553Y03716*
X08521Y03748*
X08513Y03753*
X08503Y03755*
X08385*
X08376Y03753*
X08367Y03748*
X0831Y0369*
X08279*
X08273Y03694*
X08264Y03697*
X08255*
X08246Y03694*
X08237Y03689*
X08231Y03683*
X08226Y03675*
X08224Y03666*
Y03656*
X08226Y03647*
X08231Y03639*
X08237Y03632*
X08246Y03628*
X08255Y03625*
X08264*
X08273Y03628*
X08281Y03632*
X08288Y03639*
X08288Y03639*
X0832*
X0833Y03641*
X08339Y03647*
X08396Y03704*
X08422*
X08425Y037*
Y03621*
X08443*
X08444Y03616*
X0844Y03614*
X08432Y03606*
X08427Y03597*
X08425Y03587*
Y03577*
X08427Y03567*
X08432Y03558*
X0844Y03551*
X08449Y03545*
X08459Y03543*
X08469*
X08479Y03545*
X08488Y03551*
X08496Y03558*
X08501Y03567*
X08504Y03577*
Y03587*
X08501Y03597*
X08496Y03606*
X08488Y03614*
X08484Y03616*
X08485Y03621*
X08504*
Y03682*
X08509Y03685*
X08509Y03684*
Y03631*
X08511Y03621*
X08517Y03613*
X08534Y03596*
X08543Y0359*
X08553Y03588*
X08908*
X08908Y03588*
X08915Y03586*
X08922*
X08929Y03588*
X0893Y03588*
X08954*
X09049Y03493*
X09057Y03488*
X09067Y03486*
X09532*
X09539Y03484*
X09546*
X09553Y03486*
X0956Y03489*
X09565Y03494*
X09568Y03501*
X0957Y03508*
Y03515*
X09568Y03522*
X09565Y03528*
X0956Y03533*
X0956Y03533*
X09561Y03538*
X09594*
Y0355*
X10166*
X10176Y03552*
X10184Y03557*
X10224Y03598*
X1023Y03606*
X10231Y03612*
X10679*
X1068Y03607*
X10676Y03606*
X10668Y03601*
X10662Y03595*
X10657Y03587*
X10655Y03579*
Y0357*
X10657Y03561*
X10662Y03554*
X10668Y03547*
X10676Y03543*
X10684Y03541*
X10693*
X10701Y03543*
X10709Y03547*
X10715Y03554*
X1072Y03561*
X10722Y0357*
Y03579*
X1072Y03587*
X10715Y03595*
X10709Y03601*
X10701Y03606*
X10697Y03607*
X10698Y03612*
X10758*
X10759Y03607*
X10754Y03606*
X10747Y03601*
X1074Y03595*
X10736Y03587*
X10734Y03579*
Y0357*
X10736Y03561*
X1074Y03554*
X10747Y03547*
X10754Y03543*
X10763Y03541*
X10772*
X1078Y03543*
X10788Y03547*
X10794Y03554*
X10799Y03561*
X10801Y0357*
Y03579*
X10799Y03587*
X10794Y03595*
X10788Y03601*
X1078Y03606*
X10776Y03607*
X10776Y03612*
X10837*
X10837Y03607*
X10833Y03606*
X10825Y03601*
X10819Y03595*
X10815Y03587*
X10812Y03579*
Y0357*
X10815Y03561*
X10819Y03554*
X10825Y03547*
X10833Y03543*
X10842Y03541*
X1085*
X10859Y03543*
X10867Y03547*
X10873Y03554*
X10877Y03561*
X1088Y0357*
Y03579*
X10877Y03587*
X10873Y03595*
X10867Y03601*
X10859Y03606*
X10855Y03607*
X10855Y03612*
X10967*
X1097Y03608*
Y03541*
X11037*
Y03608*
X11024*
Y03624*
X11022Y03633*
X11017Y03642*
X11003Y03655*
X10994Y03661*
X10989Y03662*
X1099Y03667*
X11062*
X11072Y03669*
X11081Y03674*
X11095Y03689*
X11147*
X11149Y03684*
X11144Y03679*
X11139Y0367*
X11136Y0366*
Y0365*
X11139Y0364*
X11144Y03631*
X11151Y03623*
X11156Y03621*
X11155Y03616*
X11136*
Y03537*
X11215*
Y03616*
X11197*
X11195Y03621*
X112Y03623*
X11207Y03631*
X11213Y0364*
X11215Y0365*
Y0366*
X11213Y0367*
X11207Y03679*
X11203Y03684*
X11205Y03689*
X11317*
X11352Y03655*
Y03652*
X11354Y03643*
X11359Y03635*
X11365Y03629*
X11374Y03624*
X11383Y03621*
X11392*
X11401Y03624*
X11409Y03629*
X11416Y03635*
X1142Y03643*
X11423Y03652*
Y03662*
X11422Y03666*
X11426Y03669*
X11586Y03509*
X11594Y03504*
X11604Y03502*
X11688*
X11698Y03504*
X11707Y03509*
X11742Y03544*
X11747Y03553*
X11749Y03562*
Y04078*
X11762Y0409*
X11767Y04098*
X11769Y04108*
Y04506*
X11767Y04515*
X11762Y04524*
X11725Y0456*
X11717Y04565*
X11707Y04567*
X11539*
X11517Y04589*
X11517Y04589*
X11514Y04595*
X11509Y046*
X11502Y04604*
X11495Y04606*
X11488*
X11481Y04604*
X11475Y046*
X1147Y04595*
X11466Y04589*
X11464Y04582*
Y04575*
X11466Y04568*
X1147Y04561*
X11475Y04556*
X11481Y04553*
X11481Y04552*
X1151Y04524*
X11518Y04518*
X11528Y04516*
X11697*
X11718Y04495*
Y04118*
X11706Y04106*
X117Y04098*
X11698Y04088*
Y03573*
X11678Y03553*
X11614*
X11422Y03745*
X1142Y03749*
X11417Y03755*
X11421Y03758*
X11497Y03682*
X11505Y03677*
X11515Y03675*
X11627*
X11632Y0367*
X11641Y03665*
X1165Y03663*
X1166*
X1167Y03665*
X11678Y0367*
X11685Y03677*
X1169Y03686*
X11693Y03695*
Y03705*
X1169Y03715*
X11685Y03723*
X11678Y0373*
X1167Y03735*
X1166Y03738*
X1165*
X11641Y03735*
X11632Y0373*
X11627Y03726*
X11526*
X11444Y03807*
X11436Y03813*
X11426Y03815*
X11313*
X11311Y03819*
X11316Y03824*
X11438*
X11482Y03781*
X1149Y03775*
X115Y03773*
X11627*
X11632Y03769*
X11641Y03764*
X1165Y03761*
X1166*
X1167Y03764*
X11678Y03769*
X11685Y03776*
X1169Y03784*
X11693Y03794*
Y03804*
X1169Y03813*
X11685Y03822*
X11678Y03829*
X1167Y03834*
X1166Y03836*
X1165*
X11641Y03834*
X11632Y03829*
X11627Y03824*
X11511*
X11467Y03868*
X11459Y03873*
X11449Y03875*
X11305*
X11296Y03873*
X11287Y03868*
X11239Y0382*
X1114*
X11061Y03899*
X11056Y03902*
X11056Y03907*
X11075Y03927*
X11081Y03935*
X11083Y03945*
Y04022*
X11083Y04023*
X11085Y0403*
Y04037*
X11083Y04044*
X11079Y0405*
X11077Y04053*
X11079Y04058*
X11177*
X11177Y04057*
X11184Y04056*
X11191*
X11198Y04057*
X11204Y04061*
X1121Y04066*
X11213Y04073*
X11215Y0408*
Y04087*
X11213Y04094*
X1121Y041*
X11204Y04105*
X11198Y04109*
X11191Y04111*
X11184*
X11177Y04109*
X11177Y04109*
X10952*
X10942Y04107*
X10934Y04101*
X10846Y04013*
X10842*
X10833Y04011*
X10825Y04007*
X10819Y04*
X10815Y03993*
X10812Y03984*
Y03975*
X10812Y03975*
X10808Y03973*
X10801Y0398*
Y03984*
X10799Y03993*
X10794Y04*
X10788Y04007*
X1078Y04011*
X10772Y04013*
X10763*
X10754Y04011*
X10747Y04007*
X1074Y04*
X10736Y03993*
X10734Y03984*
Y03975*
X10736Y03967*
X1074Y03959*
X10747Y03953*
X10754Y03948*
X10762Y03946*
X10797Y03912*
X10795Y03907*
X10663*
X10661Y03907*
X10587*
X10584Y03909*
Y04185*
X10582Y04194*
X10577Y04203*
X10375Y04404*
X10377Y04408*
X10663*
X10665Y04403*
X10662Y044*
X10657Y04392*
X10655Y04384*
Y04375*
X10657Y04366*
X10662Y04359*
X10668Y04353*
X10676Y04348*
X10684Y04346*
X10693*
X10701Y04348*
X10709Y04353*
X10715Y04359*
X1072Y04366*
X10722Y04375*
Y04384*
X1072Y04392*
X10715Y044*
X10712Y04403*
X10714Y04408*
X10742*
X10744Y04403*
X1074Y044*
X10736Y04392*
X10734Y04384*
Y04375*
X10736Y04366*
X1074Y04359*
X10747Y04353*
X10754Y04348*
X10763Y04346*
X10772*
X1078Y04348*
X10788Y04353*
X10794Y04359*
X10799Y04366*
X10801Y04375*
Y04384*
X10799Y04392*
X10794Y044*
X10791Y04403*
X10793Y04408*
X1082*
X10822Y04403*
X10819Y044*
X10815Y04392*
X10812Y04384*
Y04375*
X10815Y04366*
X10819Y04359*
X10825Y04353*
X10833Y04348*
X10842Y04346*
X1085*
X10859Y04348*
X10867Y04353*
X10873Y04359*
X10877Y04366*
X1088Y04375*
Y04384*
X10877Y04392*
X10873Y044*
X1087Y04403*
X10872Y04408*
X1097*
Y04346*
X10977*
Y04316*
X10979Y04307*
X10984Y04298*
X11002Y04281*
X1101Y04275*
X1102Y04273*
X11259*
Y0425*
X11244*
Y04257*
X11161*
Y04196*
X11244*
Y04199*
X1128*
X11289Y04201*
X11294Y04204*
X1132*
X11338Y04187*
Y04179*
X11338Y04178*
X11336Y04171*
Y04164*
X11338Y04157*
X11342Y04151*
X11347Y04146*
X11349Y04144*
X11348Y04139*
X11329*
X11293Y04175*
X11285Y04181*
X11275Y04182*
X11124*
X1111Y04197*
X11101Y04203*
X11092Y04205*
X11037*
Y04216*
X1097*
Y04149*
X11037*
Y04154*
X11081*
X11096Y04139*
X11104Y04133*
X11114Y04131*
X11265*
X113Y04096*
X11309Y0409*
X11318Y04088*
X11409*
Y04077*
X11492*
Y0416*
X11409*
Y04139*
X11379*
X11378Y04144*
X11381Y04146*
X11386Y04151*
X11389Y04157*
X11391Y04164*
Y04171*
X11389Y04178*
X11389Y04179*
Y04197*
X11387Y04207*
X11382Y04215*
X11354Y04243*
Y04273*
X11372*
X11381Y04275*
X1139Y04281*
X1142Y04311*
X11421Y04312*
X1146*
Y0432*
X11484*
Y04312*
X11564*
Y04322*
X11572*
X11581Y04324*
X1159Y0433*
X11607Y04347*
X11613Y04356*
X11615Y04366*
Y04411*
X11658*
Y04494*
X1152*
Y04411*
X11564*
Y04385*
X11564Y0438*
X11484*
Y04371*
X1146*
Y04374*
X11377*
Y04348*
X11376Y04346*
Y0434*
X11361Y04324*
X11354*
Y0439*
X11334*
Y04419*
X11442*
Y04659*
X11606*
X11615Y04661*
X11624Y04666*
X1171Y04753*
X11716Y04761*
X11718Y04771*
Y05173*
X11716Y05182*
X1171Y05191*
X11692Y0521*
X11683Y05215*
X11674Y05217*
X11655*
X11654Y05219*
X11647Y05226*
X11638Y05231*
X11628Y05234*
X11619*
X11609Y05231*
X116Y05226*
X11593Y05219*
X11589Y05211*
X11586Y05201*
Y05191*
X11589Y05182*
X11593Y05173*
X116Y05166*
X11609Y05161*
X11619Y05159*
X11628*
X11638Y05161*
X11646Y05166*
X11663*
X11667Y05162*
Y04782*
X11595Y0471*
X11528*
X11526Y04714*
X11563Y04751*
X11568Y04759*
X1157Y04769*
Y0505*
X11589Y05069*
X116*
X116Y05068*
X11609Y05063*
X11619Y0506*
X11628*
X11638Y05063*
X11647Y05068*
X11654Y05075*
X11659Y05083*
X11661Y05093*
Y05103*
X11659Y05112*
X11654Y05121*
X11647Y05128*
X11638Y05133*
X11628Y05135*
X11619*
X11609Y05133*
X116Y05128*
X11593Y05121*
X11593Y05119*
X11578*
X11568Y05118*
X1156Y05112*
X11527Y05079*
X11521Y0507*
X11519Y05061*
Y0478*
X11489Y0475*
X11123*
X11114Y04748*
X11105Y04742*
X11096Y04733*
X11091Y04735*
Y04853*
X11089Y04859*
X11094Y04861*
X11119Y04836*
X11128Y0483*
X11137Y04828*
X113*
X1131Y0483*
X11318Y04836*
X11356Y04874*
X11362Y04882*
X11364Y04892*
Y05214*
X11369Y05216*
X11373Y05211*
X11381Y05206*
X1139Y05204*
X114*
X11409Y05206*
X11417Y05211*
X11424Y05218*
X11424Y05218*
X11448*
X11458Y0522*
X11466Y05226*
X11484Y05243*
X1149Y05252*
X11492Y05261*
Y05393*
X1149Y05403*
X11484Y05411*
X11435Y0546*
X11427Y05466*
X11422Y05467*
X11422Y05472*
X11791*
Y03425*
G37*
G36*
X11441Y05383D02*
Y05272D01*
X11438Y05269*
X11415*
X11409Y05273*
X114Y05275*
X11397*
X11395Y0528*
X11397Y05283*
X114*
X11409Y05285*
X11417Y0529*
X11424Y05297*
X11428Y05305*
X11431Y05314*
Y05323*
X11428Y05332*
X11424Y0534*
X11417Y05347*
X11409Y05352*
X114Y05354*
X1139*
X11381Y05352*
X11373Y05347*
X11367Y0534*
X11362Y05332*
X1136Y05323*
Y05319*
X1132Y05279*
X11315Y05271*
X11313Y05261*
Y04902*
X11289Y04879*
X11228*
X11225Y04884*
X11226Y04886*
X11228Y04893*
Y049*
X11226Y04907*
X11222Y04913*
X11217Y04918*
X11216Y04919*
Y04968*
X11216Y04968*
Y05005*
X11214Y05012*
X11211Y05017*
X11206Y0502*
X11199Y05022*
X11193Y0502*
X11189Y05018*
X11186Y0502*
X1118Y05022*
X11173Y0502*
X11168Y05017*
X11165Y05012*
X11163Y05005*
Y04983*
X11152*
X11151Y04985*
X11146Y0499*
X1114Y04994*
X11133Y04996*
X11126*
X11119Y04994*
X11113Y0499*
X11107Y04985*
X11104Y04979*
X11102Y04972*
Y04964*
X11104Y04957*
X11107Y04951*
X11113Y04946*
X11119Y04942*
X11126Y0494*
X11133*
X1114Y04942*
X11146Y04946*
X11151Y04951*
X11152Y04953*
X11163*
Y0495*
X11165Y04944*
X11168Y04939*
X11173Y04935*
X1118Y04934*
X11181Y04934*
X11185Y04931*
Y04919*
X11183Y04918*
X11178Y04913*
X11175Y04907*
X11173Y049*
Y04893*
X11175Y04886*
X11175Y04884*
X11173Y04879*
X11148*
X11041Y04986*
X11033Y04992*
X11023Y04993*
X1077*
X10754Y0501*
X10754Y0501*
X1075Y05016*
X10745Y05022*
X10738Y05025*
X10731Y05027*
X10729*
X10728Y05027*
X10726Y05032*
X10727Y05033*
X11243*
X11244Y05033*
Y05024*
X1124Y05021*
X11239Y05022*
X11232Y0502*
X11227Y05017*
X11224Y05012*
X11222Y05005*
Y0495*
X11224Y04944*
X11227Y04939*
X11232Y04935*
X11239Y04934*
X11245Y04935*
X11249Y04938*
X11252Y04935*
X11258Y04934*
X11265Y04935*
X1127Y04939*
X11273Y04944*
X11275Y0495*
Y04968*
X11275Y04968*
Y05039*
X11273Y05045*
X1127Y0505*
X1126Y0506*
X11255Y05063*
X1125Y05064*
X11235*
Y05093*
X11239Y05095*
X11245Y05097*
X11249Y05099*
X11252Y05097*
X11258Y05095*
X11265Y05097*
X1127Y051*
X11273Y05106*
X11275Y05112*
Y05135*
X11275Y05137*
Y05151*
X1129Y05166*
X11293Y05171*
X11294Y05177*
Y05213*
X11296Y05214*
X11301Y05219*
X11305Y05225*
X11307Y05232*
Y05239*
X11305Y05246*
X11301Y05253*
X11296Y05258*
X1129Y05261*
X11283Y05263*
X11275*
X11268Y05261*
X11262Y05258*
X11257Y05253*
X11253Y05246*
X11251Y05239*
Y05237*
X1125Y05236*
X11243*
X11236Y05234*
X11234Y05233*
X11229Y05236*
Y05283*
X11211*
X11209Y05288*
X11214Y05291*
X11221Y05298*
X11226Y05307*
X11229Y05317*
Y05328*
X11226Y05338*
X11221Y05347*
X11214Y05354*
X11205Y05359*
X11195Y05362*
X11184*
X11174Y05359*
X11165Y05354*
X11158Y05347*
X11153Y05338*
X11152Y05334*
X11149*
X11143Y05333*
X11138Y05329*
X11121Y05311*
X11117Y05307*
X11116Y05301*
Y05228*
X11111Y05226*
X11109Y05228*
X11103Y05232*
X11096Y05234*
X11088*
X11081Y05232*
X11075Y05228*
X1107Y05223*
X11069Y05221*
X10803*
X10797Y0522*
X10792Y05217*
X10786Y05211*
X10783Y05206*
X10781Y052*
Y05132*
X10774Y05128*
X10767Y05121*
X10762Y05112*
X10759Y05103*
Y05093*
X10762Y05083*
X10767Y05075*
X10773Y05069*
X10771Y05064*
X10736*
Y05135*
X10697*
X10677Y05155*
X10669Y05161*
X10659Y05163*
X10641*
Y05181*
X10688*
X10698Y05183*
X10707Y05188*
X10758Y0524*
X11023*
X11033Y05242*
X11041Y05247*
X11067Y05273*
X11073Y05282*
X11075Y05291*
Y05379*
X11112Y05417*
X11406*
X11441Y05383*
G37*
G36*
X11163Y05159D02*
Y05112D01*
X11165Y05106*
X11168Y051*
X11173Y05097*
X1118Y05095*
X11186Y05097*
X11189Y05099*
X11193Y05097*
X11199Y05095*
X11201Y05096*
X11205Y05093*
Y05064*
X10921*
X10919Y05069*
X10925Y05075*
X1093Y05083*
X10933Y05093*
Y05103*
X1093Y05112*
X10925Y05121*
X10918Y05128*
X1091Y05133*
X109Y05135*
X1089*
X10881Y05133*
X10872Y05128*
X10865Y05121*
X1086Y05112*
X10858Y05103*
Y05093*
X1086Y05083*
X10865Y05075*
X10871Y05069*
X10869Y05064*
X10823*
X10821Y05069*
X10827Y05075*
X10832Y05083*
X10834Y05093*
Y05103*
X10832Y05112*
X10827Y05121*
X1082Y05128*
X10812Y05132*
Y05191*
X11069*
X1107Y05189*
X11075Y05184*
X11081Y05181*
X11088Y05179*
X11096*
X11103Y05181*
X11109Y05184*
X11114Y05189*
X11118Y05196*
X11118Y05197*
X11124Y05198*
X11163Y05159*
G37*
G36*
X08664Y04929D02*
X08672Y04924D01*
X08682Y04922*
X08825*
X08828Y04918*
X08828Y04917*
X08826Y04914*
X08824Y04911*
X08819Y04908*
X08782Y04871*
X08779Y04866*
X08778Y0486*
Y04828*
X0871*
Y04797*
Y0475*
X08705Y04748*
X08705Y04749*
X087Y04754*
X08693Y04758*
X08686Y0476*
X08679*
X08672Y04758*
X08668Y04756*
X08663Y04759*
Y04844*
X08662Y0485*
X08659Y04855*
X08615Y04899*
X0861Y04903*
X08604Y04904*
X08471*
X08465Y04903*
X0846Y04899*
X08453Y04892*
X08401*
Y04926*
X08402Y04929*
Y04984*
X08405Y04985*
X08408Y04981*
Y04929*
X0841Y04922*
X08413Y04917*
X08418Y04914*
X08425Y04912*
X08431Y04914*
X08436Y04917*
X0844Y04922*
X08441Y04929*
Y04984*
X08441Y04985*
X08444Y04989*
X08604*
X08664Y04929*
G37*
G36*
X08711Y05038D02*
X08716Y05034D01*
X08722Y05033*
X08879*
Y04907*
X08874Y04906*
X08874Y04908*
X0887Y04914*
X08865Y04919*
X0886Y04922*
X08859Y04926*
X08859Y04928*
X08861Y0493*
X08865Y04937*
X08867Y04944*
Y04951*
X08865Y04958*
X08861Y04964*
X08856Y04969*
X08854Y0497*
X08855Y04976*
X08859Y04981*
X08863Y04987*
X08865Y04994*
Y05001*
X08863Y05008*
X08859Y05014*
X08854Y0502*
X08848Y05023*
X08841Y05025*
X08833*
X08826Y05023*
X08826Y05023*
X08699*
X0865Y05072*
X08651Y05077*
X08671*
X08711Y05038*
G37*
G36*
X10107Y04848D02*
X10046D01*
Y05021*
X1008Y05055*
X10084Y0506*
X10085Y05066*
Y05102*
X10107*
Y04848*
G37*
G36*
X09828Y0493D02*
X09836Y04925D01*
X09846Y04923*
X09952*
X09954Y04918*
X09954Y04918*
X0995Y04912*
X09948Y04905*
Y04897*
X0995Y0489*
X09954Y04884*
X09959Y04879*
X09961Y04878*
Y04848*
X09933Y04821*
X09902*
Y04848*
X0983*
Y04904*
X09829Y0491*
X09826Y04915*
X09751Y0499*
X09751Y04992*
Y04999*
X09751Y05*
X09756Y05002*
X09828Y0493*
G37*
G36*
X10417Y05029D02*
X10419Y05019D01*
X10424Y05011*
X10433Y05005*
X10442Y05004*
X10455*
Y04981*
X10525*
Y04949*
X10455*
Y04916*
X10352*
X10322Y04947*
X10322Y04949*
Y04956*
X1032Y04963*
X10317Y04969*
X10312Y04974*
X10305Y04978*
X10298Y0498*
X10291*
X10284Y04978*
X10278Y04974*
X10273Y04969*
X10269Y04963*
X10267Y04956*
Y04949*
X10269Y04942*
X10273Y04935*
X10278Y0493*
X10284Y04927*
X10291Y04925*
X10298*
X103Y04925*
X10335Y0489*
X1034Y04887*
X10346Y04886*
X10455*
Y04853*
X10529*
Y04877*
X10531Y04878*
X10539Y04883*
X10562Y04906*
X10567Y04904*
Y04853*
X10581*
Y0484*
X10567*
Y04745*
X10641*
Y0484*
X10632*
Y04853*
X10641*
Y04868*
X10646Y04869*
X10661Y04854*
Y04815*
X10736*
Y0489*
X10697*
X10668Y04919*
X1066Y04925*
X1065Y04927*
X10641*
Y04949*
X10576*
Y04981*
X10641*
Y05077*
X10632*
Y05098*
X10641*
Y05112*
X10648*
X10661Y05099*
Y0506*
X10701*
X10703Y05055*
X10684Y05037*
X10681Y05032*
X1068Y05026*
Y04969*
X10681Y04963*
X10684Y04958*
X10717Y04926*
X10722Y04922*
X10728Y04921*
X10985*
X1106Y04846*
Y04791*
X11055Y04788*
X11053Y04789*
X11046Y04791*
X11039*
X11032Y04789*
X11032Y04789*
X10703*
X10703Y04789*
X10696Y04791*
X10689*
X10682Y04789*
X10675Y04785*
X1067Y0478*
X10667Y04774*
X10665Y04767*
Y0476*
X10667Y04753*
X1067Y04746*
X10675Y04741*
X10682Y04738*
X10689Y04736*
X10696*
X10703Y04738*
X10703Y04738*
X11032*
X11032Y04738*
X11039Y04736*
X11046*
X11051Y04737*
X11053Y04732*
X1104Y0472*
X11023*
X11021Y04722*
X11013Y04728*
X11003Y0473*
X10526*
X1052Y04735*
Y04745*
X10529*
Y0484*
X10455*
Y04818*
X10236*
X1023Y04825*
Y05009*
X10286Y05065*
X10292Y05074*
X10294Y05083*
Y05102*
X10308*
Y05116*
X10417*
Y05029*
G37*
G36*
X08307Y04874D02*
X08307Y04874D01*
X0831Y04869*
Y04844*
X08312Y04834*
X08318Y04826*
X08335Y04808*
X08343Y04803*
X08353Y04801*
X08365*
X08367Y04796*
X08361Y0479*
X08357Y04785*
X08356Y04779*
Y04773*
X08328*
Y04706*
X08385*
X08386Y04701*
X08361Y04676*
X08357Y04671*
X08356Y04665*
Y04606*
X08328*
Y04539*
X08381*
X08383Y04534*
X08361Y04512*
X08357Y04507*
X08356Y04501*
Y04437*
X08327*
Y04369*
X08337*
X08339Y04365*
X083Y04325*
X08296Y0432*
X08295Y04314*
Y04282*
X0829Y04279*
X08284Y04273*
X08281Y04272*
X08278Y04273*
X08272Y04279*
X08265Y04283*
X08256Y04285*
X08247*
X08238Y04283*
X08231Y04279*
X08224Y04272*
X08221Y04267*
X08216Y04268*
Y04337*
X08205*
Y0435*
X08216*
Y04375*
X08225*
X0823Y04372*
X08238Y04369*
X08247*
X08256Y04372*
X08263Y04376*
X0827Y04382*
X08274Y0439*
X08276Y04399*
Y04407*
X08274Y04416*
X0827Y04424*
X08263Y0443*
X08256Y04434*
X08247Y04437*
X08238*
X0823Y04434*
X08222Y0443*
X08221Y04429*
X08216Y04431*
Y04445*
X08145*
Y0446*
X08216*
Y04545*
X08221Y04547*
X08223Y04545*
X08231Y04541*
X08239Y04539*
X08248*
X08257Y04541*
X08264Y04545*
X08271Y04552*
X08275Y04559*
X08277Y04568*
Y04577*
X08275Y04585*
X08271Y04593*
X08266Y04597*
Y04604*
X08264Y04614*
X08259Y04622*
X08248Y04633*
X0824Y04638*
X0823Y0464*
X08218*
Y04663*
X08145*
Y0468*
X08216*
Y04711*
X08226*
X08231Y04708*
X08239Y04706*
X08248*
X08257Y04708*
X08264Y04713*
X08271Y04719*
X08275Y04727*
X08277Y04735*
Y04744*
X08275Y04753*
X08271Y0476*
X08264Y04767*
X08257Y04771*
X08248Y04773*
X08239*
X08231Y04771*
X08223Y04767*
X08221Y04765*
X08216Y04767*
Y04775*
X08205*
Y0479*
X08216*
Y04885*
X08296*
X08307Y04874*
G37*
G36*
X09487Y04733D02*
X09485Y04731D01*
X09482Y04725*
X0948Y04718*
Y0471*
X09482Y04703*
X09482Y04703*
Y04665*
X09477Y04662*
X09417Y04723*
X09416Y04724*
X09415Y04728*
X09425Y04738*
X09485*
X09487Y04733*
G37*
G36*
X08879Y04793D02*
Y04767D01*
X0888Y04762*
X08883Y04757*
X08916Y04724*
X08921Y04721*
X08927Y0472*
X08939*
X08941Y04715*
X0888Y04655*
X08875Y04656*
X08874Y04658*
X08871Y04664*
X08866Y04669*
X08865Y04669*
X08866Y04675*
X0887Y04679*
X08874Y04686*
X08875Y04693*
Y047*
X08874Y04707*
X0887Y04713*
X08867Y04717*
X08865Y0472*
X08867Y04723*
X0887Y04727*
X08874Y04733*
X08875Y0474*
Y04747*
X08874Y04754*
X0887Y04761*
X08865Y04766*
X08859Y04769*
X08857Y04775*
X08857Y04777*
X08859Y04777*
X08865Y04781*
X0887Y04786*
X08874Y04792*
X08874Y04793*
X08879Y04793*
G37*
G36*
X0867Y04654D02*
X087Y04623D01*
X08705Y0462*
X0871Y04619*
Y04592*
X08793*
Y04592*
X08799*
X08799Y04589*
X08801Y04587*
X08798Y04582*
X08701*
X08701Y04582*
X08694Y04584*
X08687*
X0868Y04582*
X08674Y04579*
X08668Y04574*
X08668Y04573*
X08663Y04575*
Y04655*
X08668Y04656*
X0867Y04654*
G37*
G36*
X10735Y04593D02*
X10734Y04587D01*
Y04578*
X10736Y04569*
X1074Y04562*
X10741Y0456*
X10739Y04556*
X10716*
X10714Y0456*
X10715Y04562*
X1072Y04569*
X10722Y04578*
Y04587*
X1072Y04595*
X10715Y04603*
X10709Y04609*
X10701Y04614*
X10693Y04616*
X10684*
X10676Y04614*
X10668Y04609*
X10662Y04603*
X10657Y04595*
X10655Y04587*
Y04578*
X10657Y04569*
X10662Y04562*
X10663Y0456*
X10661Y04556*
X10632*
X10625Y04563*
Y04606*
X10624Y04612*
X10621Y04617*
X10605Y04632*
X10607Y04637*
X10691*
X10735Y04593*
G37*
G36*
X10237Y05196D02*
X10244Y05188D01*
X10249Y05186*
X10247Y05181*
X10229*
Y05102*
X10243*
Y05094*
X10186Y05037*
X10181Y05029*
X10179Y05019*
Y04814*
X10181Y04805*
X10186Y04796*
X10208Y04775*
X10216Y04769*
X10226Y04767*
X10455*
Y04745*
X10469*
Y04725*
X10471Y04715*
X10477Y04707*
X10497Y04686*
X10505Y04681*
X10515Y04679*
X10978*
Y04616*
X1097*
Y04549*
X10988*
Y04533*
X10974Y04519*
X10077*
X10075Y04523*
X10078Y04527*
X10106*
X10112Y04529*
X10116Y04532*
X10148Y04563*
X10151Y04568*
X10153Y04574*
Y04611*
X10583*
X10594Y04599*
Y04557*
X10596Y04551*
X10599Y04546*
X10615Y0453*
X1062Y04526*
X10626Y04525*
X10804*
X1081Y04526*
X10815Y0453*
X10836Y0455*
X10842Y04549*
X1085*
X10859Y04551*
X10867Y04555*
X10873Y04562*
X10877Y04569*
X1088Y04578*
Y04587*
X10877Y04595*
X10873Y04603*
X10867Y04609*
X10859Y04614*
X1085Y04616*
X10842*
X10833Y04614*
X10825Y04609*
X10819Y04603*
X10815Y04595*
X10812Y04587*
Y04578*
X10814Y04572*
X108Y04557*
X10797Y04558*
X10797Y04559*
X10795Y04563*
X10799Y04569*
X10801Y04578*
Y04587*
X10799Y04595*
X10794Y04603*
X10788Y04609*
X1078Y04614*
X10772Y04616*
X10763*
X10757Y04614*
X10708Y04663*
X10703Y04666*
X10697Y04667*
X10123*
Y04714*
Y04739*
Y04765*
X10138*
X10144Y04766*
X10149Y04769*
X1016Y0478*
X10163Y04785*
X10164Y04791*
Y05159*
X10211Y05205*
X10232*
X10237Y05196*
G37*
G36*
X09105Y04595D02*
X09096Y04585D01*
X0909Y04577*
X09088Y04567*
Y04527*
X09079*
Y04527*
X09044*
Y0453*
X08973*
Y04547*
X09025Y04599*
X09103*
X09105Y04595*
G37*
G36*
X1108Y04709D02*
X1108Y04706D01*
Y04571*
X11009Y04499*
X11004*
X11002Y04504*
X11014Y04516*
X11018Y04521*
X11019Y04527*
Y04549*
X11037*
Y04616*
X11029*
Y04689*
X11047*
X11053Y0469*
X11058Y04693*
X11076Y04712*
X1108Y04709*
G37*
G36*
X09664Y04713D02*
X09669Y0471D01*
X09675Y04709*
X09701*
X09702Y04707*
X09707Y04702*
X09713Y04698*
X0972Y04696*
X09723*
X09727Y04691*
X09726Y04688*
Y04681*
X09726Y04681*
X09723Y04677*
X0972*
X09713Y04675*
X09707Y04671*
X09702Y04666*
X09698Y0466*
X09696Y04653*
Y04645*
X09698Y04638*
X09702Y04632*
X09707Y04627*
X09709Y04626*
Y04621*
X09707Y0462*
X09702Y04615*
X09698Y04609*
X09696Y04602*
Y04594*
X09698Y04587*
X09702Y04581*
X09707Y04576*
X09709Y04575*
Y0457*
X09707Y04569*
X09702Y04564*
X09698Y04557*
X09696Y0455*
Y04543*
X09698Y04536*
X09702Y0453*
X09707Y04525*
X09713Y04521*
X0972Y04519*
X09728*
X09735Y04521*
X09741Y04525*
X09746Y0453*
X09747Y04531*
X09748Y04531*
X09752Y0453*
X09753Y04524*
X09757Y04518*
X09762Y04513*
X09768Y04509*
X09775Y04507*
X09783*
X0979Y04509*
X09796Y04513*
X09801Y04518*
X09802Y0452*
X09838*
X09854Y04504*
X09852Y04499*
X09693*
X0969Y04502*
Y04655*
X09688Y04665*
X09683Y04673*
X09653Y04703*
X09645Y04708*
X09635Y0471*
X09568*
X09567Y0471*
X0956Y04712*
X09553*
X09546Y0471*
X0954Y04707*
X09539Y04706*
X09534Y04708*
X09535Y0471*
Y04718*
X09533Y04725*
X09529Y04731*
X09527Y04733*
X09529Y04738*
X09639*
X09664Y04713*
G37*
G36*
X09588Y04607D02*
D01*
X09599Y04596*
Y04499*
X09594Y04497*
X09594Y04497*
Y04538*
X09572*
Y04557*
X0957Y04566*
X09565Y04575*
X09535Y04605*
X09537Y0461*
X09585*
X09588Y04607*
G37*
G36*
X09292Y04554D02*
X09291Y04553D01*
X09289Y04546*
Y04539*
X09291Y04532*
X09291Y04532*
X09289Y04527*
X0926*
Y0453*
X09183*
Y04472*
X0926*
Y04476*
X09295*
Y04475*
X09365*
Y04527*
X09344*
X09342Y04531*
X09342Y04532*
X09344Y04539*
Y0454*
X09346Y04541*
X09349Y04542*
X09354Y04539*
X09361Y04537*
X09369*
X09376Y04539*
X09382Y04543*
X09387Y04548*
X09389Y04552*
X09392Y04552*
X09395Y04552*
X094Y04548*
X09406Y04544*
X0941Y04543*
X09409Y04538*
X0939*
Y04464*
X09485*
Y04476*
X09499*
Y04464*
X09544*
Y0446*
X09546Y0445*
X09551Y04441*
X09562Y04431*
X0956Y04426*
X09499*
Y04415*
X09485*
Y04427*
X0939*
Y04353*
X09397*
Y04247*
X09392Y04243*
X09387Y04235*
X09385Y04226*
Y04218*
X09387Y04209*
X09392Y04201*
X09398Y04195*
X09406Y04191*
X09414Y04188*
X09423*
X09432Y04191*
X09439Y04195*
X09441Y04196*
X09464*
Y04188*
X09512*
X09513Y04184*
X09479Y04149*
X09476Y04144*
X09475Y04143*
X09447*
X09444*
X09386*
Y0407*
X094*
Y04054*
X09401Y04048*
X09404Y04043*
X09405Y04042*
X09403Y04037*
X09399Y04036*
X09397Y04034*
X09305*
X09284Y04056*
X09279Y04059*
X09273Y0406*
X09097*
X09091Y04059*
X09086Y04056*
X09036Y04005*
X09031Y04007*
Y04086*
X09035*
Y04144*
X08982*
Y04291*
X0898Y04301*
X08974Y04309*
X08895Y04388*
Y0443*
X08962Y04497*
X08967Y04495*
Y04472*
X09044*
Y04476*
X09079*
Y04475*
X09149*
Y04527*
X09139*
Y04557*
X09142Y04559*
X09289*
X09292Y04554*
G37*
G36*
X11178Y04503D02*
Y04419D01*
X11283*
Y0439*
X11259*
Y04324*
X1103*
X11028Y04327*
Y04346*
X11037*
Y04408*
X11068*
X11077Y0441*
X11086Y04416*
X11169Y04499*
X11173Y04505*
X11178Y04503*
G37*
G36*
X09499Y04353D02*
X09498Y04352D01*
X09493Y04347*
X0949Y04341*
X09488Y04334*
Y04327*
X0949Y0432*
X0949Y04319*
Y04291*
X09492Y04281*
X09497Y04273*
X0951Y0426*
X09508Y04256*
X09464*
Y04247*
X09448*
Y04353*
X09485*
Y04364*
X09499*
Y04353*
G37*
G36*
X10486Y0415D02*
Y03877D01*
X10488Y03868*
X10493Y03859*
X1053Y03823*
X10538Y03817*
X10548Y03816*
X10684*
X10684Y03811*
X10676Y03808*
X10668Y03804*
X10662Y03798*
X10657Y0379*
X10655Y03781*
Y03773*
X10657Y03764*
X10662Y03756*
X10668Y0375*
X10676Y03746*
X10684Y03743*
X10693*
X10701Y03746*
X10709Y0375*
X10715Y03756*
X1072Y03764*
X10722Y03773*
Y03781*
X1072Y0379*
X10715Y03798*
X10709Y03804*
X10701Y03808*
X10693Y03811*
X10693Y03816*
X10762*
X10763Y03811*
X10754Y03808*
X10747Y03804*
X1074Y03798*
X10736Y0379*
X10734Y03781*
Y03773*
X10736Y03764*
X1074Y03756*
X10747Y0375*
X10754Y03746*
X10763Y03743*
X10772*
X1078Y03746*
X10788Y0375*
X10794Y03756*
X10799Y03764*
X10801Y03773*
Y03781*
X10799Y0379*
X10794Y03798*
X10788Y03804*
X1078Y03808*
X10772Y03811*
X10772Y03816*
X10841*
X10842Y03811*
X10833Y03808*
X10825Y03804*
X10819Y03798*
X10815Y0379*
X10812Y03781*
Y03773*
X10815Y03764*
X10819Y03756*
X10825Y0375*
X10833Y03746*
X10842Y03743*
X1085*
X10859Y03746*
X10867Y0375*
X10873Y03756*
X10877Y03764*
X1088Y03773*
Y03781*
X10877Y0379*
X10873Y03798*
X10867Y03804*
X10859Y03808*
X1085Y03811*
X10851Y03816*
X10969*
X1097Y03811*
Y03743*
X11037*
Y03787*
X11042Y03788*
X11086Y03744*
X11083Y0374*
X11075Y03738*
X11067Y03733*
X11052Y03718*
X10395*
Y0395*
X10393Y0396*
X10388Y03968*
X10181Y04175*
X10173Y0418*
X10163Y04182*
X09803*
X09798Y04187*
X0979Y04192*
X0978Y04194*
X09673*
X09663Y04192*
X09655Y04187*
X09626Y04158*
X09622Y04151*
X09552*
Y04056*
X09564*
Y04042*
X09554*
Y03946*
X09565*
Y03938*
X09567Y03928*
X09573Y0392*
X09598Y03895*
Y03863*
X09535*
X09527Y03871*
Y03936*
X09525Y03941*
X09522Y03946*
X09515Y03953*
X0951Y03957*
X09504Y03958*
X09464*
X09463Y03959*
X09456Y0396*
X09406*
X09399Y03959*
X09393Y03955*
X09389Y03949*
X09388Y03942*
X09389Y03936*
X09388Y03935*
X09387Y03931*
X09314*
X09309Y0393*
X09304Y03927*
X09296Y03919*
X09291Y03921*
Y03932*
X0929Y03938*
X09287Y03943*
X09251Y03978*
X09246Y03981*
X09246Y03981*
X0925Y03987*
X09251Y03994*
X0925Y04*
X09246Y04006*
X0924Y0401*
X09233Y04011*
X09183*
X09176Y0401*
X09174Y04009*
X09092*
X09089Y04008*
X09087Y04013*
X09103Y04029*
X09267*
X09288Y04008*
X09293Y04005*
X09299Y04004*
X09386*
X09389Y03999*
X09388Y03994*
X09389Y03987*
X09393Y03981*
X09399Y03977*
X09406Y03976*
X09456*
X09463Y03977*
X09466Y03979*
X09477*
X09483Y0398*
X09488Y03984*
X09499Y03995*
X09502Y04*
X09503Y04005*
Y04035*
X09502Y04041*
X09499Y04046*
X09489Y04056*
X09484Y04059*
X09478Y0406*
X0943*
Y0407*
X09444*
X09447*
X09505*
Y04119*
X09505Y04121*
Y04132*
X09554Y04181*
X09559*
X0956Y04179*
X09565Y04174*
X09572Y04171*
X09579Y04169*
X09586*
X09593Y04171*
X09599Y04174*
X09604Y04179*
X09608Y04186*
X0961Y04193*
Y042*
X09608Y04207*
X09604Y04213*
X09599Y04218*
X09593Y04222*
X09586Y04224*
X09579*
X09572Y04222*
X09565Y04218*
X0956Y04213*
X09559Y04212*
X09548*
X09542Y0421*
X09537Y04207*
X09536Y04206*
X09531Y04208*
Y04241*
X09535Y04244*
X09537Y04244*
X09679*
X09688Y04246*
X09697Y04251*
X09774Y04328*
X10308*
X10486Y0415*
G37*
G36*
X08633Y04057D02*
Y04014D01*
X0859Y03971*
X08408*
X08405Y03975*
X0841Y03978*
X08411Y03978*
X08418*
X08425Y0398*
X08432Y03983*
X08437Y03988*
X08438Y0399*
X08553*
X08559Y03991*
X08563Y03995*
X08628Y04059*
X08633Y04057*
G37*
G36*
X11038Y04053D02*
X11035Y0405D01*
X11032Y04044*
X1103Y04037*
Y0403*
X11032Y04023*
X11032Y04022*
Y04013*
X1097*
Y03947*
X10866*
X10865Y03952*
X10867Y03953*
X10873Y03959*
X10877Y03967*
X10879Y03975*
X10962Y04058*
X11036*
X11038Y04053*
G37*
G36*
X09644Y03999D02*
X09652Y03993D01*
X09662Y03991*
X09666*
Y03946*
X0974*
Y03971*
X09744Y03973*
X09764Y03954*
Y03923*
X09759Y03921*
X09757Y03923*
X09748Y03928*
X09739Y03931*
X09729*
X09719Y03928*
X09711Y03923*
X09704Y03916*
X09699Y03908*
X09696Y03898*
Y03888*
X09699Y03879*
X09704Y0387*
X09706Y03868*
X09704Y03863*
X09673*
Y03931*
X09634*
X09623Y03942*
X09625Y03946*
X09628*
Y04008*
X09632Y0401*
X09644Y03999*
G37*
G36*
X09166Y03973D02*
X09165Y03968D01*
X09167Y03961*
X0917Y03955*
X09176Y03952*
X09183Y0395*
X09233*
X09235Y03951*
X0926Y03925*
Y03903*
X09258Y03902*
X09255Y03901*
X09251Y03904*
X09249Y03909*
X0925Y0391*
X09251Y03917*
X0925Y03924*
X09246Y03929*
X0924Y03933*
X09233Y03935*
X09183*
X09176Y03933*
X09174Y03932*
X09089*
X09083Y03931*
X09078Y03928*
X0905Y039*
X09043*
X0904Y03905*
X09041Y03906*
X09043Y03913*
Y0392*
X09042Y03922*
X09098Y03978*
X09163*
X09166Y03973*
G37*
G36*
X08636Y03845D02*
X08628Y03837D01*
X08231*
X0823Y03837*
X08228Y03841*
X08236Y0385*
X08634*
X08636Y03845*
G37*
G36*
X08948Y03841D02*
X08949Y03841D01*
X0895Y03837*
X08948Y03833*
X08947Y03827*
Y03718*
X08936*
Y0371*
X08901*
Y03718*
X08885*
Y03783*
X08944Y03842*
X08948Y03841*
G37*
G36*
X10344Y0394D02*
Y03703D01*
X10344Y03703*
X10342Y03696*
Y03689*
X10344Y03682*
X10348Y03675*
X10353Y0367*
X10357Y03668*
X10356Y03663*
X10232*
Y03827*
X10232Y03827*
X10234Y03834*
Y03842*
X10232Y03849*
X10232Y03849*
Y04045*
X10232Y04046*
X10236Y04048*
X10344Y0394*
G37*
G36*
X08825Y03794D02*
X08821Y03791D01*
X08818Y03786*
X08817Y0378*
Y03734*
X08806*
Y03718*
X08763*
Y03639*
X08563*
X0856Y03642*
Y03661*
X08565Y03664*
X08567Y03663*
X08574Y03661*
X08581*
X08588Y03663*
X08594Y03666*
X086Y03672*
X08603Y03678*
X08724Y03799*
X08823*
X08825Y03794*
G37*
G36*
X09746Y04078D02*
X09753Y04076D01*
X0976*
X09767Y04078*
X09767Y04078*
X10137*
X10181Y04034*
Y03849*
X10181Y03849*
X10179Y03842*
Y03834*
X10181Y03827*
X10181Y03827*
Y03637*
Y03626*
X10155Y03601*
X10059*
X10057Y03606*
X10059Y03608*
X10064Y03617*
X10067Y03626*
Y03636*
X10064Y03646*
X10059Y03654*
X10052Y03661*
X10044Y03666*
X10034Y03669*
X10024*
X10015Y03666*
X10006Y03661*
X09999Y03654*
X09994Y03646*
X09991Y03636*
Y03626*
X09994Y03617*
X09999Y03608*
X10001Y03606*
X09999Y03601*
X0996*
X09958Y03606*
X09961Y03608*
X09966Y03617*
X09968Y03626*
Y03636*
X09966Y03646*
X09961Y03654*
X09954Y03661*
X09945Y03666*
X09936Y03669*
X09926*
X09916Y03666*
X09908Y03661*
X09901Y03654*
X09896Y03646*
X09893Y03636*
Y03626*
X09896Y03617*
X09901Y03608*
X09903Y03606*
X09901Y03601*
X09862*
X0986Y03606*
X09862Y03608*
X09867Y03617*
X0987Y03626*
Y03636*
X09867Y03646*
X09862Y03654*
X09855Y03661*
X09847Y03666*
X09837Y03669*
X09827*
X09819Y03667*
X09745Y0374*
X09747Y03745*
X09922*
X09928Y03746*
X09933Y0375*
X09941Y03758*
X09945Y03763*
X09946Y03769*
Y03859*
X09954Y03863*
X09961Y0387*
X09966Y03879*
X09968Y03888*
Y03898*
X09966Y03908*
X09961Y03916*
X09954Y03923*
X09945Y03928*
X09936Y03931*
X09926*
X09916Y03928*
X09908Y03923*
X09901Y03916*
X09896Y03908*
X09893Y03898*
Y03888*
X09896Y03879*
X09901Y0387*
X09908Y03863*
X09915Y03859*
Y03776*
X09357*
Y03797*
X09312*
Y03892*
X09321Y03901*
X09398*
X09399Y039*
X09406Y03899*
X09456*
X09463Y039*
X09468Y03904*
X09472Y0391*
X09474Y03917*
X09472Y03922*
X09475Y03927*
X09496*
Y03878*
X09491Y03876*
X09491Y03876*
X09486Y0388*
X0948Y03881*
X09464*
X09463Y03882*
X09456Y03883*
X09406*
X09399Y03882*
X09393Y03878*
X09389Y03872*
X09388Y03866*
X09389Y03859*
X09393Y03853*
X09399Y03849*
X09406Y03848*
X09456*
X09463Y03849*
X09464Y0385*
X09473*
X09507Y03817*
X09512Y03814*
X09518Y03812*
X09757*
X09763Y03814*
X09768Y03817*
X0979Y03839*
X09793Y03844*
X09795Y0385*
Y03873*
X098Y03875*
X09802Y0387*
X09809Y03863*
X09818Y03858*
X09827Y03856*
X09837*
X09847Y03858*
X09855Y03863*
X09862Y0387*
X09867Y03879*
X0987Y03888*
Y03898*
X09867Y03908*
X09862Y03916*
X09855Y03923*
X09847Y03928*
X09837Y03931*
X09827*
X09818Y03928*
X09809Y03923*
X09802Y03916*
X098Y03912*
X09795Y03913*
Y0396*
X09793Y03966*
X0979Y03971*
X09756Y04005*
X09751Y04008*
X09745Y04009*
X0974*
Y04042*
X09693*
X09691Y04042*
X09672*
X0967Y04045*
Y04056*
X09738*
Y04078*
X09743Y0408*
X09746Y04078*
G37*
G36*
X09797Y03645D02*
X09795Y03636D01*
Y03626*
X09797Y03617*
X09802Y03608*
X09805Y03606*
X09802Y03601*
X09763*
X09761Y03606*
X09764Y03608*
X09769Y03617*
X09771Y03626*
Y03636*
X09769Y03646*
X09764Y03654*
X09757Y03661*
X09748Y03666*
X09739Y03669*
X09729*
X09719Y03666*
X09711Y03661*
X09704Y03654*
X09699Y03646*
X09696Y03636*
Y03626*
X09699Y03617*
X09704Y03608*
X09706Y03606*
X09704Y03601*
X09673*
Y03669*
X09634*
X09597Y03705*
X09594Y03707*
Y0372*
X09722*
X09797Y03645*
G37*
G36*
X09166Y03897D02*
X09165Y03891D01*
X09167Y03884*
X0917Y03879*
X09176Y03875*
X09183Y03873*
X09233*
X09236Y03874*
X0924Y0387*
Y03852*
X09218Y03829*
X09215Y03824*
X09214Y03819*
Y03668*
X09215Y03662*
X09218Y03657*
X09224Y03651*
X09229Y03648*
X09235Y03647*
X09236*
Y03625*
X09281*
Y03609*
X09236*
Y03588*
X09233*
X09227Y03586*
X09222Y03583*
X09196Y03556*
X09085*
X09064Y03578*
Y03639*
X09118*
Y03718*
X09023*
Y03639*
X09033*
Y03587*
X09029Y03585*
X08982Y03632*
X08978Y03634*
X0898Y03639*
X08988*
Y03718*
X08977*
Y0382*
X08981*
X08988Y03822*
X08995Y03826*
X09Y03831*
X09004Y03837*
X09005Y03844*
Y03852*
X09004Y03859*
X09Y03864*
X09002Y03869*
X09056*
X09062Y0387*
X09067Y03873*
X09095Y03902*
X09163*
X09166Y03897*
G37*
G36*
X09391Y037D02*
Y0365D01*
X09486*
Y03662*
X09499*
Y0365*
X0958*
X09598Y03633*
Y03616*
X09594Y03612*
X09499*
Y03538*
X09495Y03537*
X0949*
X09486Y03538*
Y03612*
X09391*
Y03538*
X09387Y03537*
X09355*
Y03609*
X09316*
X09314Y03609*
X09312*
Y03625*
X09355*
Y03647*
X09358*
X09364Y03648*
X09369Y03651*
X09381Y03664*
X09385Y03669*
X09386Y03675*
Y03703*
X09386Y03703*
X09391Y037*
G37*
%LNpcb1-2*%
%LPC*%
G36*
X109Y05385D02*
X1089D01*
X10881Y05382*
X10872Y05377*
X10865Y0537*
X1086Y05362*
X10858Y05352*
Y05342*
X1086Y05333*
X10865Y05324*
X10872Y05317*
X10881Y05312*
X1089Y0531*
X109*
X1091Y05312*
X10918Y05317*
X10925Y05324*
X1093Y05333*
X10933Y05342*
Y05352*
X1093Y05362*
X10925Y0537*
X10918Y05377*
X1091Y05382*
X109Y05385*
G37*
G36*
X10802D02*
X10792D01*
X10782Y05382*
X10774Y05377*
X10767Y0537*
X10762Y05362*
X10759Y05352*
Y05342*
X10762Y05333*
X10767Y05324*
X10774Y05317*
X10782Y05312*
X10792Y0531*
X10802*
X10811Y05312*
X1082Y05317*
X10827Y05324*
X10832Y05333*
X10834Y05342*
Y05352*
X10832Y05362*
X10827Y0537*
X1082Y05377*
X10811Y05382*
X10802Y05385*
G37*
G36*
X09929Y05348D02*
X09919D01*
X09909Y05345*
X099Y0534*
X09892Y05333*
X09887Y05324*
X09884Y05314*
Y05303*
X09887Y05293*
X09892Y05284*
X099Y05277*
X09909Y05272*
X09919Y05269*
X09929*
X09939Y05272*
X09948Y05277*
X09956Y05284*
X09961Y05293*
X09963Y05303*
Y05314*
X09961Y05324*
X09956Y05333*
X09948Y0534*
X09939Y05345*
X09929Y05348*
G37*
G36*
X09645Y05453D02*
X08937D01*
X08933Y05452*
X08929Y0545*
X08927Y05446*
X08926Y05442*
Y05206*
X08927Y05202*
X08929Y05199*
X08933Y05197*
X08937Y05196*
X09645*
X09649Y05197*
X09652Y05199*
X09655Y05202*
X09655Y05206*
Y05442*
X09655Y05446*
X09652Y0545*
X09649Y05452*
X09645Y05453*
G37*
G36*
X09929Y05248D02*
X09919D01*
X09909Y05245*
X099Y0524*
X09892Y05233*
X09887Y05224*
X09884Y05214*
Y05203*
X09887Y05193*
X09892Y05184*
X099Y05177*
X09909Y05172*
X09919Y05169*
X09929*
X09939Y05172*
X09948Y05177*
X09956Y05184*
X09961Y05193*
X09963Y05203*
Y05214*
X09961Y05224*
X09956Y05233*
X09948Y0524*
X09939Y05245*
X09929Y05248*
G37*
G36*
X07975Y05234D02*
X07965D01*
X07955Y05231*
X07947Y05226*
X0794Y05219*
X07935Y05211*
X07932Y05201*
Y05191*
X07935Y05182*
X0794Y05173*
X07947Y05166*
X07955Y05161*
X07965Y05159*
X07975*
X07984Y05161*
X07993Y05166*
X08Y05173*
X08005Y05182*
X08008Y05191*
Y05201*
X08005Y05211*
X08Y05219*
X07993Y05226*
X07984Y05231*
X07975Y05234*
G37*
G36*
X09963Y05148D02*
X09884D01*
Y05069*
X09963*
Y05148*
G37*
G36*
X07975Y05135D02*
X07965D01*
X07955Y05133*
X07947Y05128*
X0794Y05121*
X07935Y05112*
X07932Y05103*
Y05093*
X07935Y05083*
X0794Y05075*
X07947Y05068*
X07955Y05063*
X07965Y0506*
X07975*
X07984Y05063*
X07993Y05068*
X08Y05075*
X08005Y05083*
X08008Y05093*
Y05103*
X08005Y05112*
X08Y05121*
X07993Y05128*
X07984Y05133*
X07975Y05135*
G37*
G36*
X11661Y05037D02*
X11586D01*
Y04962*
X11661*
Y05037*
G37*
G36*
X08008D02*
X07932D01*
Y04962*
X08008*
Y05037*
G37*
G36*
X11564Y04297D02*
X11484D01*
Y04229*
X11564*
Y04237*
X1161*
Y04234*
X11681*
Y04297*
X1161*
Y04288*
X11564*
Y04297*
G37*
G36*
X1085Y04216D02*
X10842D01*
X10833Y04214*
X10825Y04209*
X10819Y04203*
X10815Y04196*
X10812Y04187*
Y04178*
X10815Y0417*
X10819Y04162*
X10825Y04156*
X10833Y04151*
X10842Y04149*
X1085*
X10859Y04151*
X10867Y04156*
X10873Y04162*
X10877Y0417*
X1088Y04178*
Y04187*
X10877Y04196*
X10873Y04203*
X10867Y04209*
X10859Y04214*
X1085Y04216*
G37*
G36*
X10772D02*
X10763D01*
X10754Y04214*
X10747Y04209*
X1074Y04203*
X10736Y04196*
X10734Y04187*
Y04178*
X10736Y0417*
X1074Y04162*
X10747Y04156*
X10754Y04151*
X10763Y04149*
X10772*
X1078Y04151*
X10788Y04156*
X10794Y04162*
X10799Y0417*
X10801Y04178*
Y04187*
X10799Y04196*
X10794Y04203*
X10788Y04209*
X1078Y04214*
X10772Y04216*
G37*
G36*
X10693D02*
X10684D01*
X10676Y04214*
X10668Y04209*
X10662Y04203*
X10657Y04196*
X10655Y04187*
Y04178*
X10657Y0417*
X10662Y04162*
X10668Y04156*
X10676Y04151*
X10684Y04149*
X10693*
X10701Y04151*
X10709Y04156*
X10715Y04162*
X1072Y0417*
X10722Y04178*
Y04187*
X1072Y04196*
X10715Y04203*
X10709Y04209*
X10701Y04214*
X10693Y04216*
G37*
G36*
X08377Y04153D02*
X08368D01*
X0836Y04151*
X08352Y04147*
X08346Y04141*
X08345Y04139*
X0834*
X0834Y04141*
X08333Y04147*
X08326Y04151*
X08318Y04153*
X08309*
X08301Y04151*
X08293Y04147*
X08292Y04145*
X08287Y04147*
Y04153*
X08222*
Y04088*
X08233*
Y03977*
X08231Y03974*
X08222*
Y03978*
X0817*
Y03934*
X08222*
Y03938*
X08238*
X08245Y03939*
X08251Y03943*
X08264Y03956*
X08268Y03962*
X0827Y03969*
Y04088*
X08287*
Y04094*
X08292Y04096*
X08293Y04094*
X08301Y0409*
X08309Y04088*
X08318*
X08326Y0409*
X08333Y04094*
X0834Y04101*
X0834Y04102*
X08345*
X08346Y04101*
X08352Y04094*
X0836Y0409*
X08368Y04088*
X08377*
X08385Y0409*
X08393Y04094*
X08399Y04101*
X08403Y04108*
X08405Y04116*
Y04125*
X08403Y04133*
X08399Y04141*
X08393Y04147*
X08385Y04151*
X08377Y04153*
G37*
G36*
X11656Y0416D02*
X11645D01*
X11635Y04157*
X11625Y04152*
X11617Y04144*
X11612Y04135*
X11609Y04124*
Y04113*
X11612Y04103*
X11617Y04093*
X11625Y04085*
X11635Y0408*
X11645Y04077*
X11656*
X11667Y0408*
X11676Y04085*
X11684Y04093*
X11689Y04103*
X11692Y04113*
Y04124*
X11689Y04135*
X11684Y04144*
X11676Y04152*
X11667Y04157*
X11656Y0416*
G37*
G36*
X10693Y04013D02*
X10684D01*
X10676Y04011*
X10668Y04007*
X10662Y04*
X10657Y03993*
X10655Y03984*
Y03975*
X10657Y03967*
X10662Y03959*
X10668Y03953*
X10676Y03948*
X10684Y03946*
X10693*
X10701Y03948*
X10709Y03953*
X10715Y03959*
X1072Y03967*
X10722Y03975*
Y03984*
X1072Y03993*
X10715Y04*
X10709Y04007*
X10701Y04011*
X10693Y04013*
G37*
G36*
X11693Y03935D02*
X11617D01*
Y0386*
X11693*
Y03935*
G37*
G36*
X109Y0489D02*
X1089D01*
X10881Y04888*
X10872Y04883*
X10865Y04876*
X1086Y04867*
X10858Y04858*
Y04848*
X1086Y04838*
X10865Y0483*
X10872Y04823*
X10881Y04818*
X1089Y04815*
X109*
X1091Y04818*
X10918Y04823*
X10925Y0483*
X1093Y04838*
X10933Y04848*
Y04858*
X1093Y04867*
X10925Y04876*
X10918Y04883*
X1091Y04888*
X109Y0489*
G37*
G36*
X10802D02*
X10792D01*
X10782Y04888*
X10774Y04883*
X10767Y04876*
X10762Y04867*
X10759Y04858*
Y04848*
X10762Y04838*
X10767Y0483*
X10774Y04823*
X10782Y04818*
X10792Y04815*
X10802*
X10811Y04818*
X1082Y04823*
X10827Y0483*
X10832Y04838*
X10834Y04848*
Y04858*
X10832Y04867*
X10827Y04876*
X1082Y04883*
X10811Y04888*
X10802Y0489*
G37*
G36*
X09365Y04464D02*
X09295D01*
Y04412*
X09305*
Y04367*
X09307Y04357*
X09312Y04349*
X09315Y04346*
Y04244*
X09313Y04243*
X09309Y04235*
X09306Y04226*
Y04218*
X09309Y04209*
X09313Y04201*
X09319Y04195*
X09327Y04191*
X09336Y04188*
X09344*
X09353Y04191*
X09361Y04195*
X09367Y04201*
X09371Y04209*
X09374Y04218*
Y04226*
X09371Y04235*
X09367Y04243*
X09366Y04244*
Y04357*
X09364Y04367*
X09358Y04375*
X09356Y04377*
Y04412*
X09365*
Y04464*
G37*
G36*
X09149D02*
X09079D01*
Y04412*
X09088*
Y04378*
X0909Y04369*
X09096Y0436*
X09132Y04324*
X0914Y04318*
X0915Y04317*
X09216*
X09236Y04297*
Y04244*
X09234Y04243*
X0923Y04235*
X09228Y04226*
Y04218*
X0923Y04209*
X09234Y04201*
X09241Y04195*
X09248Y04191*
X09257Y04188*
X09266*
X09274Y04191*
X09282Y04195*
X09288Y04201*
X09293Y04209*
X09295Y04218*
Y04226*
X09293Y04235*
X09288Y04243*
X09287Y04244*
Y04308*
X09285Y04317*
X09279Y04326*
X09245Y0436*
X09237Y04366*
X09227Y04368*
X09161*
X09139Y04389*
Y04412*
X09149*
Y04464*
G37*
G36*
X10034Y03931D02*
X10024D01*
X10015Y03928*
X10006Y03923*
X09999Y03916*
X09994Y03908*
X09991Y03898*
Y03888*
X09994Y03879*
X09999Y0387*
X10006Y03863*
X10015Y03858*
X10024Y03856*
X10034*
X10044Y03858*
X10052Y03863*
X10059Y0387*
X10064Y03879*
X10067Y03888*
Y03898*
X10064Y03908*
X10059Y03916*
X10052Y03923*
X10044Y03928*
X10034Y03931*
G37*
%LNpcb1-3*%
%LPD*%
G54D16*
X08196Y03956D02*
X08238D01*
X08251Y03969*
Y04124*
X08067Y03965D02*
Y04077D01*
X08076Y03956D02*
X08102D01*
X08067Y03965D02*
X08076Y03956D01*
G54D17*
X09724Y04897D02*
X09775Y04846D01*
Y04811D02*
Y04846D01*
X09724Y04944D02*
X09795Y04873D01*
Y0482D02*
Y04873D01*
X09751Y04805D02*
X09825Y04731D01*
X0986D02*
X09861Y0473D01*
X09723Y04791D02*
X09735D01*
X09724Y04846D02*
X09751Y04818D01*
Y04805D02*
Y04818D01*
X09825Y04731D02*
X0986D01*
X09721Y04794D02*
X09723Y04791D01*
X09834Y04781D02*
X09861D01*
X09775Y04811D02*
X0983Y04755D01*
X09861D02*
X09862Y04754D01*
X0983Y04755D02*
X09861D01*
X09795Y0482D02*
X09834Y04781D01*
X09821Y04832D02*
X09861D01*
X09815Y04838D02*
X09821Y04832D01*
X09815Y04838D02*
Y04904D01*
X09861Y04832D02*
X09862Y04831D01*
X08382Y03956D02*
X08596D01*
X09921Y04539D02*
X09968D01*
X10081Y04678D02*
X10082D01*
X08681Y04665D02*
Y0473D01*
X08683Y04732*
X08751Y04608D02*
X08812D01*
X0882Y046D02*
X08825D01*
X08812Y04608D02*
X0882Y046D01*
X08845Y0465D02*
X08849Y04647D01*
X08815Y04659D02*
X08823Y0465D01*
X08751Y04659D02*
X08815D01*
X08823Y0465D02*
X08845D01*
X09745Y03994D02*
X09779Y0396D01*
X09703Y03994D02*
X09745D01*
X09528Y03848D02*
X09727D01*
X09734Y03855*
Y03893*
X09518Y03828D02*
X09757D01*
X09779Y0385D02*
Y0396D01*
X09757Y03828D02*
X09779Y0385D01*
X09511Y03865D02*
Y03936D01*
Y03865D02*
X09528Y03848D01*
X09504Y03942D02*
X09511Y03936D01*
X09431Y03942D02*
X09504D01*
X0948Y03866D02*
X09518Y03828D01*
X09256Y03845D02*
Y03879D01*
X09245Y0389D02*
X09256Y03879D01*
X09208Y03891D02*
X09209Y0389D01*
X09245*
X09229Y03819D02*
X09256Y03845D01*
X09303Y03594D02*
X09314D01*
X09297Y036D02*
X09303Y03594D01*
X09297Y036D02*
Y03898D01*
X09314Y03916*
X09314Y03594D02*
X09336Y03572D01*
X09267Y03815D02*
X09276Y03823D01*
X09267Y0376D02*
Y03815D01*
X09229Y03668D02*
Y03819D01*
X09235Y03662D02*
X09265D01*
X09229Y03668D02*
X09235Y03662D01*
X09392Y03736D02*
X09728D01*
X09832Y03631*
X09371Y03714D02*
X09392Y03736D01*
X09371Y03675D02*
Y03714D01*
X09326Y03662D02*
X09358D01*
X09371Y03675*
X09328Y0376D02*
X09922D01*
X09931Y03769*
X10081Y04703D02*
X10082D01*
X08475Y04921D02*
X08517D01*
X08451Y04897D02*
X08475Y04921D01*
X09476Y04107D02*
X0949Y04121D01*
Y04138D02*
X09548Y04196D01*
X09582*
X0949Y04121D02*
Y04138D01*
X09233Y03572D02*
X09265D01*
X09202Y03541D02*
X09233Y03572D01*
X09424Y04045D02*
X09478D01*
X09415Y04054D02*
X09424Y04045D01*
X09415Y04054D02*
Y04107D01*
X11176Y05324D02*
X11194Y05343D01*
X1118Y0513D02*
Y05168D01*
X11176D02*
X1118D01*
X08426Y05157D02*
X08435Y05167D01*
X08464D02*
X08519Y05112D01*
X08435Y05167D02*
X08464D01*
X08468Y05196D02*
X08503D01*
X08416Y05187D02*
X08459D01*
X08468Y05196*
X08406Y05177D02*
X08416Y05187D01*
X08678Y05092D02*
X08722Y05048D01*
X08499Y05092D02*
X08678D01*
X08519Y05112D02*
X08686D01*
X08482Y0511D02*
X08499Y05092D01*
X08686Y05112D02*
X0873Y05068D01*
X08386Y05305D02*
X08399Y05318D01*
X08444*
X10019Y04619D02*
Y04667D01*
X10031Y04679*
X10081*
X09986Y04654D02*
Y04691D01*
X09999Y04704D02*
X10081D01*
X09986Y04691D02*
X09999Y04704D01*
X09952Y04642D02*
X09963Y04631D01*
X10039Y04611D02*
Y04646D01*
X1008Y04652D02*
X10081Y04653D01*
X09963Y04607D02*
Y04631D01*
X10081Y04652D02*
X10697D01*
X10039Y04646D02*
X10045Y04652D01*
X09952Y04642D02*
Y04687D01*
X10045Y04652D02*
X1008D01*
X10001Y04602D02*
X10019Y04619D01*
X10021Y04593D02*
X10039Y04611D01*
X09982Y04573D02*
X10001Y04592D01*
Y04602*
X10002Y04564D02*
X10021Y04584D01*
X10002Y04518D02*
Y04564D01*
X09982Y04553D02*
Y04573D01*
X10021Y04584D02*
Y04593D01*
X09968Y04539D02*
X09982Y04553D01*
X09991Y04506D02*
X10002Y04518D01*
X09049Y03571D02*
X09079Y03541D01*
X09202*
X09049Y03571D02*
Y03679D01*
X112Y04896D02*
Y04968D01*
X11131Y05301D02*
X11149Y05318D01*
X11175*
X11131Y05212D02*
Y05301D01*
Y05212D02*
X11176Y05168D01*
X1124Y05129D02*
Y05197D01*
X11246Y05203D02*
Y05208D01*
X1124Y05197D02*
X11246Y05203D01*
X11279Y05177D02*
Y05236D01*
X1126Y05137D02*
Y05157D01*
X11279Y05177*
X08488Y04251D02*
Y04324D01*
X08531Y04368*
X08429Y04314D02*
X0849Y04375D01*
X08429Y04251D02*
Y04314D01*
X0837Y04251D02*
Y04314D01*
X08385Y0433*
X08311Y04251D02*
Y04314D01*
X08356Y0436*
X09909Y0461D02*
Y0472D01*
X0993Y04583D02*
Y04697D01*
X09988Y04754*
X10082*
X09901Y04602D02*
X09909Y0461D01*
X09862Y04601D02*
X09863Y04602D01*
X09901*
X09952Y04687D02*
X09995Y04729D01*
X09963Y04607D02*
X09967Y04603D01*
X09873Y04506D02*
X09991D01*
X10022Y04552D02*
Y04556D01*
X10061Y04595D02*
Y046D01*
X10022Y04556D02*
X10061Y04595D01*
X10062Y04601D02*
X10082D01*
X10055Y04543D02*
X10106D01*
X10022Y04525D02*
Y04552D01*
X10061Y046D02*
X10062Y04601D01*
X10022Y04552D02*
D01*
X10106Y04543D02*
X10137Y04574D01*
X10695Y04969D02*
X10728Y04937D01*
X10992*
X11075Y04853*
X0885Y04854D02*
X0885Y04854D01*
X08813Y04837D02*
X08829Y04854D01*
X0885*
X08813Y04785D02*
Y04837D01*
X0883Y04897D02*
X08848D01*
X08793Y0486D02*
X0883Y04897D01*
X08793Y04796D02*
Y0486D01*
X08785Y04788D02*
X08793Y04796D01*
X08752Y04788D02*
X08785D01*
X08751Y04787D02*
X08752Y04788D01*
Y04737D02*
X08792D01*
X08751Y04736D02*
X08752Y04737D01*
X08853Y04803D02*
X08856D01*
X08752Y04762D02*
X08789D01*
X08813Y04785*
X08751Y04761D02*
X08752Y04762D01*
X08792Y04737D02*
X08845Y04789D01*
Y04795D02*
X08853Y04803D01*
X08845Y04789D02*
Y04795D01*
X08814Y0471D02*
X08848Y04744D01*
X08751Y0471D02*
X08814D01*
X08831Y04685D02*
X08843Y04696D01*
X08751Y04685D02*
X08831D01*
X08843Y04696D02*
X08848D01*
X08681Y04665D02*
X08711Y04634D01*
X08751D02*
X08751Y04633D01*
X08711Y04634D02*
X08751D01*
X08412Y04897D02*
X08451D01*
X08406Y04903D02*
X08412Y04897D01*
X08406Y04903D02*
Y04948D01*
X08604Y04888D02*
X08648Y04844D01*
X08596Y04868D02*
X08628Y04836D01*
X08394Y04877D02*
X08459D01*
X08386Y04857D02*
X08468D01*
X08479Y04868*
X08386Y04886D02*
X08394Y04877D01*
X08366Y04877D02*
X08386Y04857D01*
X08459Y04877D02*
X08471Y04888D01*
X08386Y04886D02*
Y04948D01*
X08366Y04894D02*
X08366Y04894D01*
X08366Y04894D02*
Y0494D01*
X08366Y04877D02*
Y04894D01*
X08385Y04948D02*
X08386Y04948D01*
X08471Y04888D02*
X08604D01*
X08479Y04868D02*
X08596D01*
X08372Y04779D02*
X0838Y04787D01*
X08372Y0474D02*
Y04779D01*
X0838Y04787D02*
X08531D01*
X0838Y04787D02*
X0838Y04787D01*
X08468Y04761D02*
X08531D01*
X08372Y04665D02*
X08468Y04761D01*
X08481Y04736D02*
X08531D01*
X08405Y0466D02*
X08481Y04736D01*
X08405Y04535D02*
Y0466D01*
X0845Y04676D02*
X08484Y0471D01*
X08531*
X0847Y04668D02*
X08486Y04685D01*
X08531*
X0853Y04658D02*
X08531Y04659D01*
X08495Y04658D02*
X0853D01*
X0849Y04652D02*
X08495Y04658D01*
X08531Y04633D02*
X08577D01*
X08415Y0433D02*
X0847Y04385D01*
Y04668*
X08385Y0433D02*
X08415D01*
X08356Y0436D02*
X08415D01*
X0845Y04394*
Y04676*
X0849Y04375D02*
Y04652D01*
X08372Y04403D02*
Y04501D01*
X08405Y04535*
X08648Y04008D02*
Y04844D01*
X08628Y04081D02*
Y04836D01*
X08444Y0511D02*
X08482D01*
X08722Y05048D02*
X08888D01*
X0873Y05068D02*
X08897D01*
X10022Y04525D02*
X10043Y04504D01*
X1098D02*
X11003Y04527D01*
Y04582*
X10043Y04504D02*
X1098D01*
X09845Y04535D02*
X09873Y04506D01*
X10697Y04652D02*
X10767Y04582D01*
X10137Y04574D02*
Y04626D01*
X10082D02*
X10137D01*
X10589*
X10295Y04952D02*
X10346Y04901D01*
X10495*
X10149Y04791D02*
Y05165D01*
X10204Y0522*
X10138Y0478D02*
X10149Y04791D01*
X10082Y04831D02*
X10083Y04832D01*
X10082Y0478D02*
X10138D01*
X1007Y05299D02*
X10114D01*
X10123Y04838D02*
Y0529D01*
X10114Y05299D02*
X10123Y0529D01*
X10083Y04832D02*
X10117D01*
X10123Y04838*
X09976Y04842D02*
Y04901D01*
X10031Y04824D02*
Y05027D01*
X1007Y05066*
X10031Y04824D02*
X10048Y04807D01*
X10081*
X09939Y04806D02*
X09976Y04842D01*
X09862Y04806D02*
X09939D01*
X09724Y04996D02*
X09815Y04904D01*
X11047Y04704D02*
X11075Y04733D01*
X11003Y04704D02*
X11047D01*
X11075Y04733D02*
Y04853D01*
X11226Y05049D02*
X1125D01*
X10718D02*
X11226D01*
X10695Y04969D02*
Y05026D01*
X10718Y05049*
X10081Y04807D02*
X10082Y04806D01*
X10204Y0522D02*
X10268D01*
X09779Y04535D02*
X09845D01*
X09724Y04598D02*
X09755D01*
X09724Y04547D02*
X09727Y0455D01*
X0974D02*
X09815Y04626D01*
X09727Y0455D02*
X0974D01*
X09815Y04626D02*
X09861D01*
X09862Y04626*
X1061Y04557D02*
Y04606D01*
X10589Y04626D02*
X1061Y04606D01*
X11129Y04968D02*
X11178D01*
X10803Y05206D02*
X11092D01*
X10797Y05098D02*
Y052D01*
X10803Y05206*
X08553Y04005D02*
X08628Y04081D01*
X08596Y03956D02*
X08648Y04008D01*
X08916Y04774D02*
X08935Y04755D01*
X08894Y04767D02*
X08927Y04735D01*
X094D02*
X09419Y04753D01*
X09391Y04755D02*
X09409Y04773D01*
X08927Y04735D02*
X094D01*
X08935Y04755D02*
X09391D01*
X08916Y04774D02*
Y0505D01*
X08894Y04767D02*
Y05043D01*
X08426Y05127D02*
Y05157D01*
X08888Y05048D02*
X08894Y05043D01*
X08897Y05068D02*
X08916Y0505D01*
X09653Y04773D02*
X09654Y04773D01*
X09409Y04773D02*
X09653D01*
X09654Y04773D02*
X09655D01*
X09419Y04753D02*
X09645D01*
X09675Y04724*
X09655Y04773D02*
X09672Y04756D01*
X09737*
X09756Y04737*
Y04688D02*
Y04737D01*
X09753Y04685D02*
X09756Y04688D01*
X09675Y04724D02*
X09724D01*
X09735Y04791D02*
X09823Y04703D01*
X09861*
X09724Y04649D02*
X09767D01*
X09796Y04678D02*
X09862D01*
X09767Y04649D02*
X09796Y04678D01*
X0981Y04652D02*
X09862D01*
X09755Y04598D02*
X0981Y04652D01*
X08406Y05127D02*
Y05177D01*
X08366Y05127D02*
Y05344D01*
X08386Y0511D02*
Y05305D01*
X08385Y0511D02*
X08386Y0511D01*
X08366Y05344D02*
X08395Y05374D01*
X08474*
X08494Y05354*
Y05246D02*
Y05354D01*
X08488Y0524D02*
X08494Y05246D01*
X08444Y0524D02*
X08488D01*
X09431Y03866D02*
X0948D01*
X08415Y04005D02*
X08553D01*
X08978Y03843D02*
Y03848D01*
X08965Y03884D02*
X09056D01*
X08962Y03679D02*
Y03827D01*
X09097Y04045D02*
X09273D01*
X08832Y03694D02*
Y0378D01*
X0887Y03789D02*
X08965Y03884D01*
X08832Y0378D02*
X09097Y04045D01*
X08962Y03827D02*
X08978Y03843D01*
X0887Y03685D02*
Y03789D01*
X09092Y03994D02*
X09208D01*
X09015Y03917D02*
X09092Y03994D01*
X0887Y03685D02*
X08875Y03679D01*
X09056Y03884D02*
X09089Y03917D01*
X09208*
X09273Y04045D02*
X09299Y04019D01*
X09931Y03769D02*
Y03893D01*
X09995Y04729D02*
X10082D01*
X10082Y04754D02*
X10082Y04754D01*
X1125Y05049D02*
X11259Y05039D01*
Y04968D02*
Y05039D01*
X1122Y05055D02*
Y05118D01*
Y05055D02*
X11226Y05049D01*
X112Y05147D02*
Y05226D01*
X11188Y05238D02*
X112Y05226D01*
X1118Y0513D02*
X11181Y05129D01*
X10626Y04541D02*
X10804D01*
X1061Y04557D02*
X10626Y04541D01*
X10804D02*
X10846Y04582D01*
X08372Y04572D02*
Y04665D01*
X09449Y03995D02*
X09477D01*
X09488Y04005D02*
Y04035D01*
X09477Y03995D02*
X09488Y04005D01*
X09478Y04045D02*
X09488Y04035D01*
X08531Y04368D02*
Y04608D01*
X1007Y05066D02*
Y05141D01*
X0924Y03967D02*
X09276Y03932D01*
Y03823D02*
Y03932D01*
X09314Y03916D02*
X0943D01*
X09431Y03917*
X09209Y03967D02*
X0924D01*
X09208Y03968D02*
X09209Y03967D01*
X09299Y04019D02*
X09431D01*
G54D24*
X11645Y04348D03*
Y04265D03*
G54D26*
X11524Y04346D03*
Y04263D03*
G54D33*
X10604Y04901D03*
X10492D03*
X10604Y05393D03*
X10492D03*
X10604Y04793D03*
X10492D03*
X10604Y05029D03*
X10492D03*
X10604Y05268D03*
X10492D03*
X09701Y04104D03*
X09589D03*
X09703Y03994D03*
X09591D03*
X10492Y05145D03*
X10604D03*
X08067Y04508D03*
X08179D03*
X0807Y04616D03*
X08181D03*
X08068Y04289D03*
X08179D03*
X08068Y04397D03*
X08179D03*
X08067Y04182D03*
X08179D03*
X08067Y04066D03*
X08179D03*
X08068Y04728D03*
X08179D03*
X08068Y04838D03*
X08179D03*
G54D42*
X11003Y04582D03*
Y03777D03*
Y04183D03*
Y03574D03*
Y04379D03*
Y0398D03*
X08362Y0474D03*
Y04572D03*
X08361Y04403D03*
X09498Y04222D03*
G54D63*
X10688Y04582D03*
X10767D03*
X10846D03*
X10925D03*
X10688Y03777D03*
X10767D03*
X10846D03*
X10925D03*
X10688Y04183D03*
X10767D03*
X10846D03*
X10925D03*
X10688Y03574D03*
X10767D03*
X10846D03*
X10925D03*
X10688Y04379D03*
X10767D03*
X10846D03*
X10925D03*
X10688Y0398D03*
X10767D03*
X10846D03*
X10925D03*
X08244Y0474D03*
X08303D03*
X08244Y04572D03*
X08303D03*
X08243Y04403D03*
X08302D03*
X09104Y04222D03*
X09183D03*
X09261D03*
X0934D03*
X09419D03*
G54D68*
X10127Y03893D03*
X10029D03*
X09931D03*
X09832D03*
X09734D03*
X10127Y03631D03*
X10029D03*
X09931D03*
X09832D03*
X09734D03*
X10797Y05347D03*
X10895D03*
X10994D03*
X10797Y05098D03*
X10895D03*
X10994D03*
X10797Y04853D03*
X10895D03*
X10994D03*
X0797Y05098D03*
Y05196D03*
Y05295D03*
X08031Y03799D03*
Y037D03*
Y03602D03*
X11655Y03799D03*
Y037D03*
Y03602D03*
X11624Y05098D03*
Y05196D03*
Y05295D03*
G54D69*
X09635Y03893D03*
Y03631D03*
X10698Y05347D03*
Y05098D03*
Y04853D03*
G54D72*
X08432Y04121D03*
X08373D03*
X08313D03*
G54D73*
X08254Y04121D03*
G54D75*
X0797Y05D03*
X08031Y03897D03*
X11655D03*
X11624Y05D03*
G54D78*
X09092Y04794D02*
X09094Y04796D01*
Y05003*
X09045Y04793D02*
Y04996D01*
X08923Y05118D02*
X09045Y04996D01*
X10462Y05383D02*
X10485D01*
X10442Y05141D02*
Y05364D01*
X10462Y05383*
X10485D02*
X10495Y05393D01*
X10268Y05141D02*
X10442D01*
X11402Y04346D02*
X11524D01*
X11402Y04329D02*
Y04346D01*
X11372Y04299D02*
X11402Y04329D01*
X1102Y04299D02*
X11372D01*
X11002Y04316D02*
X1102Y04299D01*
X11002Y04316D02*
Y04381D01*
X11296Y04241D02*
X11307D01*
X11205Y04225D02*
X1128D01*
X11296Y04241*
X11034Y03921D02*
X11057Y03945D01*
Y04033*
X10952Y04083D02*
X11187D01*
X09316Y04503D02*
Y04542D01*
X08658Y05209D02*
Y05285D01*
X087Y05231D02*
Y05393D01*
Y05231D02*
X08771Y0516D01*
X0887Y0444D02*
X08948Y04518D01*
X08848Y04557D02*
X08868Y04576D01*
X08822Y04452D02*
X08908Y04538D01*
X08868Y04576D02*
Y04606D01*
X08967Y04705*
X08948Y04518D02*
Y04558D01*
X08908Y04587D02*
X08986Y04665D01*
X08908Y04538D02*
Y04587D01*
X08948Y04558D02*
X09015Y04625D01*
X09222Y04501D02*
X0933D01*
X09466Y0457D02*
Y04581D01*
X09382Y04665D02*
X09466Y04581D01*
X09365Y04625D02*
X09417Y04574D01*
Y0457D02*
Y04574D01*
X09348Y04585D02*
X09365Y04567D01*
X09131Y04585D02*
X09348D01*
X09365Y04565D02*
Y04567D01*
X09792Y04157D02*
X10163D01*
X1037Y0395*
X09673Y04169D02*
X0978D01*
X09644Y0414D02*
X09673Y04169D01*
X0978D02*
X09792Y04157D01*
X09662Y04017D02*
X09691D01*
X09644Y04034D02*
Y0414D01*
X09691Y04017D02*
X09703Y04005D01*
X09644Y04034D02*
X09662Y04017D01*
X10495Y05137D02*
X10505Y05147D01*
X08056Y04606D02*
X08068Y04618D01*
Y04289D02*
Y04295D01*
Y04287D02*
Y04289D01*
X08067Y04177D02*
Y04287D01*
X08241Y04575D02*
Y04604D01*
Y04575D02*
X08244Y04572D01*
X08179Y04617D02*
X08179Y04618D01*
X08179Y04508D02*
Y04617D01*
X0823Y04615D02*
X08241Y04604D01*
X08181Y04616D02*
X08182Y04615D01*
X0823*
X08336Y04844D02*
Y04882D01*
Y04844D02*
X08353Y04826D01*
X08491Y04838D02*
X08574D01*
X08307Y04911D02*
X08336Y04882D01*
X08353Y04826D02*
X08479D01*
X0875Y05118D02*
X08923D01*
X08771Y0516D02*
X08937D01*
X09094Y05003*
X08658Y05209D02*
X0875Y05118D01*
X07887Y05364D02*
X08154D01*
X0785Y05326D02*
X07887Y05364D01*
X0785Y03665D02*
Y05326D01*
X08179Y05068D02*
Y05339D01*
X08154Y05364D02*
X08179Y05339D01*
X10206Y03637D02*
Y03838D01*
Y03616D02*
Y03637D01*
X10999Y03579D02*
X11003Y03574D01*
X10999Y03579D02*
Y03624D01*
X10985Y03637D02*
X10999Y03624D01*
X10206Y03637D02*
X10985D01*
X09759Y04104D02*
X10147D01*
X09547Y03575D02*
X10166D01*
X10206Y03616*
X10663Y03881D02*
X10663Y03881D01*
X10559Y03899D02*
X10576Y03881D01*
X10548Y03841D02*
X11026D01*
X10576Y03881D02*
X10663D01*
X10559Y03899D02*
Y04185D01*
X10511Y03877D02*
X10548Y03841D01*
X11026D02*
X11055Y03812D01*
X11043Y03881D02*
X11129Y03795D01*
X10663Y03881D02*
X11043D01*
X11055Y03811D02*
Y03812D01*
Y03811D02*
X11112Y03755D01*
X11129Y03795D02*
X1125D01*
X10823Y03921D02*
X11034D01*
X10767Y03977D02*
X10823Y03921D01*
X11525Y04263D02*
X11645D01*
X11645Y04262*
X11524Y04263D02*
X11525Y04263D01*
X11589Y04436D02*
X11606Y04453D01*
X11572Y04348D02*
X11589Y04366D01*
X11526Y04348D02*
X11572D01*
X11589Y04366D02*
Y04436D01*
X11524Y04346D02*
X11526Y04348D01*
X0812Y04389D02*
Y04508D01*
X08068D02*
X0812D01*
X08067Y04508D02*
X08068Y04508D01*
X08179Y04507D02*
X08179Y04508D01*
X10846Y03977D02*
X10952Y04083D01*
X08179Y04728D02*
Y04838D01*
Y04728D02*
X08188Y04736D01*
X11309Y04357D02*
Y04557D01*
X08182Y044D02*
X08243D01*
X0824Y05086D02*
X08271Y05055D01*
X08631*
X08614Y05015D02*
X08682Y04947D01*
X08631Y05055D02*
X08688Y04998D01*
X08232Y05015D02*
X08614D01*
X08179Y05068D02*
X08232Y05015D01*
X0824Y05086D02*
Y05161D01*
X0933Y04367D02*
Y04438D01*
X0934Y04222D02*
Y04357D01*
X0933Y04367D02*
X0934Y04357D01*
X09261Y04222D02*
Y04308D01*
X0915Y04342D02*
X09227D01*
X09261Y04308*
X09114Y04378D02*
X0915Y04342D01*
X09114Y04378D02*
Y04438D01*
X09437Y04389D02*
X09547D01*
X09547Y04389*
X09437Y0439D02*
X09437Y04389D01*
X09422Y04225D02*
Y04378D01*
X09419Y04222D02*
X09422Y04225D01*
X09419Y04222D02*
X09498D01*
X11112Y03755D02*
X11267D01*
X11426Y03789D02*
X11515Y037D01*
X09698Y04106D02*
X10144D01*
X08688Y04998D02*
X08837D01*
X08682Y04947D02*
X08839D01*
X0824Y04736D02*
X08244Y0474D01*
X08188Y04736D02*
X0824D01*
X0785Y03665D02*
X07972Y03543D01*
X11267Y03755D02*
X11301Y03789D01*
X1125Y03795D02*
X11305Y0385D01*
X11062Y03692D02*
X11085Y03715D01*
X11328*
X11301Y03789D02*
X11426D01*
X11328Y03715D02*
X11385Y03657D01*
X09515Y04291D02*
Y0433D01*
Y04291D02*
X09537Y04269D01*
X09566Y04334D02*
X09687D01*
X09537Y04269D02*
X09679D01*
X08577Y03688D02*
X08578D01*
X08714Y03825*
X08553Y03614D02*
X08919D01*
X08385Y0373D02*
X08503D01*
X08535Y03631D02*
X08553Y03614D01*
X08535Y03631D02*
Y03698D01*
X08503Y0373D02*
X08535Y03698D01*
X10759Y04968D02*
X11023D01*
X11137Y04854D02*
X113D01*
X11023Y04968D02*
X11137Y04854D01*
X113D02*
X11338Y04892D01*
X1118Y04684D02*
X11606D01*
X11105Y04706D02*
X11123Y04724D01*
X115D02*
X11545Y04769D01*
X11151Y04655D02*
X1118Y04684D01*
X11123Y04724D02*
X115D01*
X11545Y04769D02*
Y05061D01*
X11606Y04684D02*
X11692Y04771D01*
X11105Y0456D02*
Y04706D01*
X11151Y04517D02*
Y04655D01*
X11492Y04578D02*
X11528Y04542D01*
X11707*
X11744Y04506*
Y04108D02*
Y04506D01*
X11338Y05261D02*
X11395Y05318D01*
X11338Y04892D02*
Y05261D01*
X11466Y05261D02*
Y05393D01*
X11448Y05244D02*
X11466Y05261D01*
X11399Y05244D02*
X11448D01*
X11395Y0524D02*
X11399Y05244D01*
X11692Y04771D02*
Y05173D01*
X11628Y05192D02*
X11674D01*
X11692Y05173*
X11624Y05196D02*
X11628Y05192D01*
X1162Y05094D02*
X11624Y05098D01*
X11578Y05094D02*
X1162D01*
X11545Y05061D02*
X11578Y05094D01*
X11449Y0385D02*
X115Y03799D01*
X11655*
X11515Y037D02*
X11655D01*
X08956Y04013D02*
Y04291D01*
X0887Y04377D02*
Y0444D01*
Y04377D02*
X08956Y04291D01*
X08908Y0404D02*
Y04269D01*
X08822Y04354D02*
Y04452D01*
Y04354D02*
X08908Y04269D01*
X08179Y04182D02*
X08191Y04194D01*
X0823*
X08257Y04247D02*
Y04251D01*
X08179Y04066D02*
Y04182D01*
X0823Y04194D02*
X08247Y04211D01*
Y04237D02*
X08257Y04247D01*
X08247Y04211D02*
Y04237D01*
X0868Y03912D02*
X08779D01*
X08226Y03875D02*
X08643D01*
X0868Y03912*
X08694Y03868D02*
X08811D01*
X08638Y03812D02*
X08694Y03868D01*
X08231Y03812D02*
X08638D01*
X08714Y03825D02*
X08825D01*
X08149Y03799D02*
X08226Y03875D01*
X0812Y037D02*
X08231Y03812D01*
X10204Y04814D02*
Y05019D01*
X10268Y05083*
Y05141*
X10204Y04814D02*
X10226Y04793D01*
X10495*
X10728Y05D02*
X10759Y04968D01*
X08479Y04826D02*
X08491Y04838D01*
X08574D02*
X08592Y04821D01*
Y04557D02*
Y04821D01*
X08417Y04413D02*
Y04501D01*
X11318Y04114D02*
X11435D01*
X11114Y04157D02*
X11275D01*
X11318Y04114*
X11003Y04179D02*
X11092D01*
X11114Y04157*
X11364Y04168D02*
Y04197D01*
X11323Y04238D02*
X11364Y04197D01*
X11305Y0385D02*
X11449D01*
X10147Y04104D02*
X10206Y04045D01*
X10442Y05029D02*
Y05141D01*
X09724Y05048D02*
X09747D01*
X09846Y04948*
X09976*
X09862Y05D02*
X09976D01*
X09763Y05098D02*
X09862Y05D01*
X1037Y03692D02*
Y0395D01*
Y03692D02*
X11062D01*
X11019Y04474D02*
X11105Y0456D01*
X10515Y04704D02*
X11003D01*
X10692Y04763D02*
X11043D01*
X11003Y04582D02*
Y04704D01*
Y04582D02*
D01*
X11724Y04088D02*
X11744Y04108D01*
X11724Y03562D02*
Y04088D01*
X11604Y03527D02*
X11688D01*
X11724Y03562*
X11385Y03746D02*
X11604Y03527D01*
X09665Y04491D02*
Y04655D01*
X11068Y04434D02*
X11151Y04517D01*
X09679Y04269D02*
X09763Y04354D01*
X09682Y04474D02*
X11019D01*
X09747Y04394D02*
X10349D01*
X09687Y04334D02*
X09747Y04394D01*
X10318Y04354D02*
X10511Y04161D01*
X09665Y04491D02*
X09682Y04474D01*
X10349Y04394D02*
X10559Y04185D01*
X09625Y04461D02*
X09652Y04434D01*
X09763Y04354D02*
X10318D01*
X09652Y04434D02*
X11068D01*
X09569Y0446D02*
X09643Y04385D01*
X09665*
X09625Y04461D02*
Y04606D01*
X10511Y03877D02*
Y04161D01*
X09569Y0446D02*
Y04489D01*
X10206Y03838D02*
Y04045D01*
X09557Y04501D02*
X09569Y04489D01*
X09547Y04501D02*
X09557D01*
X10495Y04725D02*
X10515Y04704D01*
X10495Y04725D02*
Y04793D01*
X09067Y03511D02*
X09543D01*
X09543Y03511*
X10551Y05206D02*
Y05246D01*
Y05147D02*
Y05206D01*
X10688D02*
X10748Y05265D01*
X10551Y05206D02*
X10688D01*
X10748Y05265D02*
X11023D01*
X11049Y05291D02*
Y0539D01*
X11023Y05265D02*
X11049Y05291D01*
Y0539D02*
X11102Y05442D01*
X11417D02*
X11466Y05393D01*
X11102Y05442D02*
X11417D01*
X10551Y04931D02*
Y05147D01*
X10505D02*
X10551D01*
X10521Y04901D02*
X10551Y04931D01*
X10495Y04901D02*
X10521D01*
X10531Y05265D02*
X10551Y05246D01*
X10495Y05265D02*
X10531D01*
X10495D02*
D01*
X10442Y05029D02*
X10495D01*
X10607Y04901D02*
X1065D01*
X10698Y04853*
X10607Y04793D02*
Y04901D01*
Y05393D02*
X10652D01*
X10698Y05347*
X10659Y05137D02*
X10698Y05098D01*
X10607Y05137D02*
X10659D01*
X10607Y05029D02*
Y05137D01*
X0869Y04557D02*
X08848D01*
X08779Y03912D02*
X08908Y0404D01*
X09547Y04501D02*
Y04557D01*
X08967Y04705D02*
X09398D01*
X08986Y04665D02*
X09382D01*
X09398Y04705D02*
X09547Y04557D01*
X09015Y04625D02*
X09365D01*
X09534Y04635D02*
X09596D01*
X09507Y04662D02*
Y04714D01*
Y04662D02*
X09534Y04635D01*
X09606Y04625D02*
X09625Y04606D01*
X09596Y04635D02*
X09606Y04625D01*
X09557Y04685D02*
X09635D01*
X09665Y04655*
X0812Y04901D02*
X08129Y04911D01*
X08307*
X0812Y04508D02*
Y04901D01*
X09438Y03523D02*
Y03575D01*
X09547Y03687D02*
X09579D01*
X09438D02*
X09547D01*
X09579D02*
X09635Y03631D01*
X08964Y03614D02*
X09067Y03511D01*
X08919Y03614D02*
X08964D01*
X09589Y03996D02*
Y04104D01*
Y03996D02*
X09591Y03994D01*
Y03938D02*
Y03994D01*
Y03938D02*
X09635Y03893D01*
X0832Y03665D02*
X08385Y0373D01*
X08259Y03661D02*
X08263Y03665D01*
X0832*
X08919Y03614D02*
Y03671D01*
X08811Y03868D02*
X08956Y04013D01*
X08825Y03825D02*
X09005Y04005D01*
Y04115*
X11309Y04557D02*
X11328Y04576D01*
X09114Y04567D02*
X09131Y04585D01*
X09114Y04501D02*
Y04567D01*
X08031Y037D02*
X0812D01*
X08031Y03799D02*
X08149D01*
X08001Y04458D02*
Y0458D01*
Y04324D02*
Y04458D01*
X08039Y04618D02*
X08068D01*
X08001Y0458D02*
X08039Y04618D01*
X08056Y04598D02*
Y04606D01*
X08068Y04618D02*
Y04728D01*
X08056Y04307D02*
X08068Y04295D01*
X08001Y04324D02*
X08019Y04307D01*
X08056*
X08079Y04089D02*
X08102D01*
X08067Y04077D02*
X08079Y04089D01*
X0812Y04107D02*
Y04389D01*
X08102Y04089D02*
X0812Y04107D01*
X08075Y04389D02*
X0812D01*
X08072Y04842D02*
X08102D01*
X08068Y04838D02*
X08072Y04842D01*
X08068Y04397D02*
X08075Y04389D01*
X09005Y04501D02*
X09114D01*
X09438D02*
X09547D01*
X07972Y03543D02*
X0812D01*
X08159Y03582D02*
X08259D01*
X0812Y03543D02*
X08159Y03582D01*
X08179Y04618D02*
X08181Y04616D01*
X08067Y04287D02*
X08068Y04287D01*
X08067Y04177D02*
X08067Y04177D01*
X08179Y04298D02*
X08183Y04295D01*
X08179Y04298D02*
Y04397D01*
D01*
Y04287D02*
Y04292D01*
X08183Y04295*
X08179Y04397D02*
X08182Y044D01*
X10604Y05268D02*
Y05371D01*
G54D79*
X09259Y04788D03*
X09204D03*
X09259Y04844D03*
X09204D03*
X09259Y04899D03*
X09204D03*
X09287Y04816D03*
X09232D03*
X09177D03*
X09287Y04871D03*
X09177D03*
X09232D03*
G54D80*
X11651Y04119D03*
X11551D03*
G54D81*
X11451Y04119D03*
G54D82*
X10268Y05377D03*
Y0522D03*
Y05299D03*
X1007Y05377D03*
Y0522D03*
Y05299D03*
X09924Y05409D03*
Y05309D03*
Y05209D03*
X08592Y05326D03*
X11189Y05322D03*
X11176Y03655D03*
X08444Y0524D03*
X08464Y03582D03*
G54D83*
X10268Y05141D03*
X1007D03*
X09924Y05109D03*
X08592Y05226D03*
X11189Y05244D03*
X11176Y03576D03*
X08444Y05318D03*
X08464Y03661D03*
G54D84*
X0824Y05161D03*
Y0524D03*
X08259Y03582D03*
Y03661D03*
X11387Y03736D03*
Y03657D03*
X11395Y05318D03*
Y0524D03*
G54D85*
X0824Y05318D03*
X08259Y0374D03*
X11387Y03578D03*
X11395Y05161D03*
G54D86*
X08251Y04251D03*
X08311D03*
X0837D03*
X08429D03*
X08488D03*
X08547D03*
G54D87*
X11428Y04821D03*
X11196Y03893D03*
X07948Y04102D03*
X09832Y04253D03*
X08756D03*
X08806Y05287D03*
X09783D03*
G54D88*
X09092Y04794D03*
X09045Y04793D03*
X09721Y04794D03*
X11057Y04033D03*
X11187Y04083D03*
X09316Y04542D03*
X08382Y03956D03*
X09921Y04539D03*
X08658Y05285D03*
X08683Y04732D03*
X08825Y046D03*
X08849Y04647D03*
X09466Y0457D03*
X09417Y0457D03*
X09365Y04565D03*
X10701Y04267D03*
X09495Y03805D03*
X08517Y04921D03*
X11645Y04027D03*
X09986Y04654D03*
X08837Y04998D03*
X08839Y04947D03*
X08779Y04905D03*
X08122Y04818D03*
X09515Y0433D03*
X09566Y04334D03*
X08577Y03688D03*
X112Y04896D03*
X11492Y04578D03*
X11246Y05208D03*
X11279Y05236D03*
X08925Y04405D03*
X09Y04255D03*
X09311Y03968D03*
X09118Y03952D03*
X09149Y04098D03*
X0972Y04216D03*
X10283Y04842D03*
X09967Y04603D03*
X0993Y04583D03*
X10055Y04543D03*
X11007Y05015D03*
X10161Y04307D03*
X10173Y0422D03*
X09102Y03811D03*
X0885Y04854D03*
X08848Y04897D03*
X08333Y04884D03*
X08417Y04413D03*
Y04501D03*
X11118Y04381D03*
X11364Y04168D03*
X09582Y04196D03*
X10295Y04952D03*
X09976Y04901D03*
X09724Y04996D03*
X09976Y04948D03*
Y05D03*
X1037Y03692D03*
X11043Y04763D03*
X10692D03*
X09724Y04944D03*
X09763Y05098D03*
X09724Y05048D03*
Y04598D03*
X09665Y04385D03*
X09779Y04535D03*
X09756Y04104D03*
X11129Y04968D03*
X09543Y03511D03*
X08848Y04744D03*
Y04696D03*
Y04803D03*
X10206Y03838D03*
X0869Y04557D03*
X08592D03*
X09557Y04685D03*
X09724Y04724D03*
X09753Y04685D03*
X09724Y04649D03*
X08503Y05196D03*
X08919Y03614D03*
X08415Y04005D03*
X08978Y03848D03*
X09015Y03917D03*
X08001Y04458D03*
X087Y05393D03*
X10728Y05D03*
X09724Y04547D03*
X09507Y04714D03*
X11092Y05206D03*
X09724Y04846D03*
Y04897D03*
G54D89*
X09438Y03575D03*
Y03687D03*
X09547Y03575D03*
Y03687D03*
X11307Y04353D03*
Y04241D03*
X09437Y04501D03*
Y0439D03*
X09547Y04501D03*
Y04389D03*
G54D90*
X09326Y03572D03*
X09265D03*
Y03662D03*
X09326D03*
X09267Y0376D03*
X09328D03*
X09415Y04107D03*
X09476D03*
G54D91*
X09431Y03866D03*
Y03891D03*
Y03917D03*
Y03942D03*
Y03968D03*
Y03994D03*
Y04019D03*
X09208D03*
Y03994D03*
Y03968D03*
Y03942D03*
Y03917D03*
Y03891D03*
G54D92*
X09208Y03866D03*
G54D93*
X09092Y03679D03*
X09049D03*
X09005Y03671D03*
X08962Y03679D03*
X08919Y03671D03*
X08875Y03679D03*
X08832Y03694D03*
X08789Y03679D03*
G54D94*
X0906Y04106D03*
X08836D03*
G54D95*
X09005Y04115D03*
G54D96*
X09123Y03588D03*
X08605Y03549D03*
G54D97*
X11418Y04227D03*
Y04343D03*
X11202D03*
Y04227D03*
G54D98*
X08098Y03956D03*
X08196D03*
G54D99*
X11589Y04453D03*
Y04633D03*
G54D100*
X1131Y04543D03*
G54D101*
X08444Y04956D03*
X08425D03*
X08405D03*
X08385D03*
X08366D03*
X08444Y05118D03*
X08425D03*
X08405D03*
X08385D03*
X08366D03*
X11258Y04978D03*
X11239D03*
X11219D03*
X11199D03*
X1118D03*
X11258Y05139D03*
X11239D03*
X11219D03*
X11199D03*
X1118D03*
G54D102*
X09222Y04501D03*
Y04424D03*
X09005Y04501D03*
Y04424D03*
G54D103*
X0933Y04438D03*
Y04501D03*
X09114Y04438D03*
Y04501D03*
G54D104*
X08751Y04608D03*
Y04633D03*
Y04659D03*
Y04685D03*
Y0471D03*
Y04736D03*
Y04761D03*
Y04787D03*
Y04812D03*
Y04838D03*
X08531Y04608D03*
Y04633D03*
Y04659D03*
Y04685D03*
Y0471D03*
Y04736D03*
Y04761D03*
Y04787D03*
Y04812D03*
Y04838D03*
X09861Y04832D03*
Y04807D03*
Y04781D03*
Y04755D03*
Y0473D03*
Y04704D03*
Y04679D03*
Y04653D03*
Y04627D03*
Y04602D03*
X10081Y04832D03*
Y04807D03*
Y04781D03*
Y04755D03*
Y0473D03*
Y04704D03*
Y04679D03*
Y04653D03*
Y04627D03*
Y04602D03*
M02*