%FSTAX23Y23*%
%MOIN*%
%SFA1B1*%

%IPPOS*%
%ADD113C,0.003937*%
%LNpcb1-1*%
%LPD*%
G54D113*
X08554Y05061D02*
Y051D01*
X08535Y0508D02*
X08574D01*
X10846Y04584D02*
Y04624D01*
X10826Y04604D02*
X10866D01*
X10442Y04395D02*
X10482D01*
X10462Y04376D02*
Y04415D01*
X10846Y03779D02*
Y03818D01*
X10826Y03799D02*
X10866D01*
X1123Y04086D02*
X11269D01*
X1125Y04066D02*
Y04105D01*
X09803Y04374D02*
Y04413D01*
X09784Y04393D02*
X09823D01*
X09885Y04983D02*
Y05022D01*
X09866Y05002D02*
X09905D01*
X08207Y05005D02*
Y05045D01*
X08188Y05025D02*
X08227D01*
X08228Y03861D02*
Y039D01*
X08208Y0388D02*
X08248D01*
X11423Y03852D02*
Y03891D01*
X11403Y03872D02*
X11442D01*
X11435Y05002D02*
Y05042D01*
X11415Y05022D02*
X11454D01*
X09881Y03894D02*
Y03934D01*
X09862Y03914D02*
X09901D01*
X09881Y03632D02*
Y03672D01*
X09862Y03652D02*
X09901D01*
X09384Y03656D02*
X09424D01*
X09404Y03636D02*
Y03676D01*
X09384Y03898D02*
X09424D01*
X09404Y03878D02*
Y03918D01*
X08615Y0359D02*
X08654D01*
X08634Y0357D02*
Y0361D01*
X10846Y05307D02*
Y05346D01*
X10826Y05326D02*
X10866D01*
X10846Y04185D02*
Y04224D01*
X10826Y04204D02*
X10866D01*
X10846Y03576D02*
Y03616D01*
X10826Y03596D02*
X10866D01*
X10846Y05058D02*
Y05097D01*
X10826Y05077D02*
X10866D01*
X10846Y04812D02*
Y04852D01*
X10826Y04832D02*
X10866D01*
X10846Y04381D02*
Y04421D01*
X10826Y04401D02*
X10866D01*
X10846Y03982D02*
Y04021D01*
X10826Y04001D02*
X10866D01*
X10442Y04598D02*
X10482D01*
X10462Y04579D02*
Y04618D01*
X10452Y04199D02*
X10492D01*
X10472Y04179D02*
Y04218D01*
X10452Y03996D02*
X10492D01*
X10472Y03976D02*
Y04016D01*
X10452Y03781D02*
X10492D01*
X10472Y03761D02*
Y038D01*
X10452Y0359D02*
X10492D01*
X10472Y03571D02*
Y0361D01*
X10442Y04851D02*
X10482D01*
X10462Y04831D02*
Y04871D01*
X10442Y05096D02*
X10482D01*
X10462Y05076D02*
Y05116D01*
X10442Y05345D02*
X10482D01*
X10462Y05325D02*
Y05365D01*
X08343Y04083D02*
Y04123D01*
X08323Y04103D02*
X08363D01*
X08704Y05061D02*
Y051D01*
X08685Y0508D02*
X08724D01*
X08006Y04335D02*
Y04375D01*
X07986Y04355D02*
X08026D01*
X08303Y04738D02*
Y04777D01*
X08283Y04757D02*
X08322D01*
X11109Y04086D02*
X11148D01*
X11128Y04066D02*
Y04105D01*
X08303Y0457D02*
Y0461D01*
X08283Y0459D02*
X08322D01*
X08598Y03837D02*
X08637D01*
X08618Y03817D02*
Y03857D01*
X08592Y04D02*
X08631D01*
X08612Y03981D02*
Y0402D01*
X08302Y04401D02*
Y0444D01*
X08282Y04421D02*
X08321D01*
X09301Y04224D02*
Y04263D01*
X09281Y04244D02*
X0932D01*
X07971Y05147D02*
X0801D01*
X07991Y05127D02*
Y05167D01*
Y0375D02*
X0803D01*
X0801Y0373D02*
Y03769D01*
X11615Y0375D02*
X11654D01*
X11634Y0373D02*
Y03769D01*
X11625Y05147D02*
X11664D01*
X11644Y05127D02*
Y05167D01*
M02*