%FSTAX23Y23*%
%MOIN*%
%SFA1B1*%

%IPPOS*%
%AMD44*
4,1,8,0.033500,-0.008900,0.033500,0.008900,0.031500,0.010800,-0.031500,0.010800,-0.033500,0.008900,-0.033500,-0.008900,-0.031500,-0.010800,0.031500,-0.010800,0.033500,-0.008900,0.0*
1,1,0.003898,0.031500,-0.008900*
1,1,0.003898,0.031500,0.008900*
1,1,0.003898,-0.031500,0.008900*
1,1,0.003898,-0.031500,-0.008900*
%
%ADD16C,0.015748*%
%ADD17C,0.010000*%
%ADD20R,0.035433X0.035433*%
%ADD21R,0.035433X0.088582*%
%ADD22R,0.088582X0.035433*%
%ADD23R,0.039370X0.049212*%
%ADD24R,0.051181X0.043307*%
%ADD25R,0.049689X0.037594*%
%ADD26R,0.059378X0.047500*%
%ADD27R,0.047500X0.059378*%
%ADD28R,0.015748X0.014961*%
%ADD29R,0.043307X0.051181*%
%ADD30R,0.062992X0.085827*%
%ADD31R,0.062992X0.086614*%
%ADD32R,0.037594X0.049689*%
%ADD33R,0.053937X0.075197*%
%ADD34R,0.053342X0.057563*%
%ADD35R,0.045275X0.045275*%
%ADD36R,0.061024X0.053150*%
%ADD37R,0.047244X0.047244*%
%ADD38R,0.059055X0.055118*%
%ADD39R,0.041339X0.057087*%
%ADD40R,0.043307X0.053150*%
%ADD41R,0.055118X0.059055*%
%ADD42R,0.047244X0.047244*%
%ADD43C,0.078740*%
G04~CAMADD=44~8~0.0~0.0~216.5~669.3~19.5~0.0~15~0.0~0.0~0.0~0.0~0~0.0~0.0~0.0~0.0~0~0.0~0.0~0.0~270.0~670.0~217.0*
%ADD44D44*%
%ADD45R,0.055441X0.039626*%
%ADD63C,0.047244*%
%ADD68C,0.055118*%
%ADD69R,0.055118X0.055118*%
%ADD72C,0.045275*%
%ADD73R,0.045275X0.045275*%
%ADD75R,0.055118X0.055118*%
%ADD78C,0.030000*%
%ADD79C,0.015748*%
%ADD80C,0.062992*%
%ADD81R,0.062992X0.062992*%
%ADD82C,0.059055*%
%ADD83R,0.059055X0.059055*%
%ADD84C,0.051181*%
%ADD85R,0.051181X0.051181*%
%ADD86C,0.047559*%
%ADD87C,0.137795*%
%ADD88C,0.027559*%
%LNpcb1-1*%
%LPD*%
G36*
X11791Y03425D02*
X07804D01*
X07801Y03428*
X07805Y05472*
X10467*
X10468Y05467*
X10462Y05463*
X10444Y05445*
X10439Y05437*
X10437Y05427*
Y05404*
X10427*
Y05348*
Y05343*
Y05342*
Y05286*
X10461*
X10462Y05285*
X1047Y05279*
X1048Y05277*
X10515*
Y05271*
X10586*
Y05334*
X10515*
Y05328*
X105*
X10497Y05332*
Y05347*
Y05348*
Y05404*
X10488*
Y05416*
X1049Y05419*
X1059*
X10661Y05349*
Y0531*
X10736*
Y05385*
X10697*
X10619Y05463*
X10612Y05467*
X10614Y05472*
X11791*
Y03425*
G37*
%LNpcb1-2*%
%LPC*%
G36*
X0867Y05449D02*
X08146D01*
X08136Y05447*
X08128Y05441*
X08077Y05391*
X08072Y05383*
X0807Y05373*
Y05325*
X07978Y05233*
X07975Y05234*
X07965*
X07955Y05231*
X07947Y05226*
X0794Y05219*
X07935Y05211*
X07932Y05201*
Y05191*
X07935Y05182*
X0794Y05173*
X07947Y05166*
X07955Y05161*
X07965Y05159*
X07975*
X07984Y05161*
X07993Y05166*
X08Y05173*
X08005Y05182*
X08007Y05191*
X08105Y05289*
X0811Y05287*
Y05274*
X07971Y05135*
X07965*
X07955Y05133*
X07947Y05128*
X0794Y05121*
X07935Y05112*
X07932Y05103*
Y05093*
X07935Y05083*
X0794Y05075*
X07947Y05068*
X07955Y05063*
X07965Y0506*
X07975*
X07984Y05063*
X07993Y05068*
X08Y05075*
X08005Y05083*
X08008Y05093*
Y05099*
X08153Y05245*
X08159Y05254*
X08161Y05263*
Y05325*
X08194Y05358*
X08405*
Y05279*
X08423*
X08425Y05274*
X0842Y05271*
X08413Y05264*
X08408Y05255*
X08405Y05245*
Y05234*
X08408Y05224*
X08413Y05215*
X0842Y05208*
X08429Y05203*
X08439Y052*
X0845*
X0846Y05203*
X08469Y05208*
X08476Y05215*
X08481Y05224*
X08484Y05234*
Y05245*
X08481Y05255*
X08476Y05264*
X08469Y05271*
X08464Y05274*
X08466Y05279*
X08484*
Y05358*
X08605*
X08632Y05331*
Y05296*
X08632Y05296*
X0863Y05289*
Y05281*
X08632Y05274*
X08636Y05268*
X08641Y05263*
X08647Y05259*
X08654Y05257*
X08661*
X08668Y05259*
X08675Y05263*
X0868Y05268*
X08683Y05274*
X08685Y05281*
Y05289*
X08683Y05296*
X08683Y05296*
Y05342*
X08681Y05351*
X08676Y0536*
X08642Y05393*
X08644Y05398*
X0866*
X08675Y05383*
X08675Y05383*
X08678Y05376*
X08683Y05371*
X0869Y05368*
X08697Y05366*
X08704*
X08711Y05368*
X08717Y05371*
X08722Y05376*
X08726Y05383*
X08728Y0539*
Y05397*
X08726Y05404*
X08722Y0541*
X08717Y05415*
X08711Y05419*
X08711Y05419*
X08688Y05441*
X0868Y05447*
X0867Y05449*
G37*
G36*
X114Y05354D02*
X1139D01*
X11381Y05352*
X11373Y05347*
X11367Y0534*
X11362Y05332*
X1136Y05323*
Y05314*
X11362Y05305*
X11367Y05297*
X11373Y0529*
X11381Y05285*
X1139Y05283*
X114*
X11409Y05285*
X11417Y0529*
X11424Y05297*
X11428Y05305*
X11431Y05314*
Y05323*
X11428Y05332*
X11424Y0534*
X11417Y05347*
X11409Y05352*
X114Y05354*
G37*
G36*
X09929Y05348D02*
X09919D01*
X09909Y05345*
X099Y0534*
X09892Y05333*
X09887Y05324*
X09884Y05314*
Y05303*
X09887Y05293*
X09892Y05284*
X099Y05277*
X09909Y05272*
X09919Y05269*
X09929*
X09939Y05272*
X09948Y05277*
X09954Y05283*
X09963*
X09965Y05281*
X09973Y05275*
X09983Y05273*
X10039*
X10045Y05267*
X10054Y05262*
X10055Y05261*
Y05258*
X10054Y05257*
X10045Y05252*
X10039Y05245*
X10032*
X10022Y05244*
X10014Y05238*
X1001Y05234*
X09954*
X09948Y0524*
X09939Y05245*
X09929Y05248*
X09919*
X09909Y05245*
X099Y0524*
X09892Y05233*
X09887Y05224*
X09884Y05214*
Y05203*
X09887Y05193*
X09892Y05184*
X099Y05177*
X09909Y05172*
X09919Y05169*
X09929*
X09939Y05172*
X09948Y05177*
X09954Y05183*
X10021*
X10022Y05183*
X10027Y05184*
X1003Y0518*
Y05177*
Y05167*
X10013*
X10003Y05165*
X09995Y05159*
X09972Y05137*
X09963*
Y05148*
X09884*
Y05069*
X09892*
Y05041*
X09889Y05037*
X09884*
X09882*
X09826*
Y05004*
X09814Y04992*
X09809Y04984*
X09807Y04974*
Y04949*
X09801*
Y04878*
X09864*
Y04949*
X09858*
Y04963*
X09862Y04968*
X09882*
X09887*
X09889*
X09945*
Y0499*
X0995Y04991*
X0995Y04989*
X09954Y04983*
X09959Y04977*
X09961Y04976*
Y04971*
X09959Y0497*
X09954Y04965*
X0995Y04959*
X09948Y04952*
Y04945*
X0995Y04938*
X09954Y04931*
X09957Y04928*
X09958Y04925*
X09957Y04921*
X09954Y04918*
X0995Y04912*
X09948Y04905*
Y04897*
X0995Y0489*
X09954Y04884*
X09959Y04879*
X09965Y04875*
X09972Y04874*
X0998*
X09987Y04875*
X09993Y04879*
X09998Y04884*
X09999Y04886*
X1009*
X10092Y04881*
X10069Y04858*
X09875*
X09872Y0486*
X09868Y04861*
X09805*
X098Y0486*
X09796Y04857*
X09793Y04853*
X09792Y04849*
Y04831*
X09793Y04826*
X09796Y04822*
X098Y0482*
X09805Y04819*
X09868*
X09872Y0482*
X09875Y04822*
X10066*
X10068Y04817*
X10059Y04808*
X09875*
X09872Y0481*
X09868Y04811*
X09805*
X098Y0481*
X09796Y04807*
X09793Y04803*
X09792Y04799*
Y04781*
X09793Y04776*
X09796Y04772*
X098Y0477*
X09805Y04769*
X09868*
X09872Y0477*
X09875Y04772*
X10066*
X10073Y04773*
X10079Y04777*
X10166Y04863*
X10295*
X10337Y04821*
Y04788*
X10333Y04786*
X10316Y04803*
X1031Y04807*
X10303Y04808*
X10303*
X10241*
X10238Y0481*
X10234Y04811*
X10171*
X10166Y0481*
X10162Y04807*
X10159Y04803*
X10159Y04799*
Y04781*
X10159Y04776*
X10162Y04772*
X10166Y0477*
X10171Y04769*
X10234*
X10238Y0477*
X10241Y04772*
X10295*
X10312Y04756*
Y0472*
X10307Y04718*
X10272Y04753*
X10266Y04757*
X10259Y04758*
X10241*
X10238Y0476*
X10234Y04761*
X10171*
X10166Y0476*
X10162Y04757*
X10159Y04753*
X10159Y04749*
Y04731*
X10159Y04726*
X10162Y04722*
X10166Y0472*
X10171Y04719*
X10234*
X10238Y0472*
X10241Y04722*
X10252*
X10261Y04713*
X10259Y04708*
X10241*
X10238Y0471*
X10234Y04711*
X10171*
X10166Y0471*
X10162Y04707*
X10159Y04703*
X10159Y04699*
Y04681*
X10159Y04676*
X10162Y04672*
X10166Y0467*
X10171Y04669*
X10234*
X10238Y0467*
X10241Y04672*
X1026*
Y04637*
X10256Y04635*
X10246Y04645*
Y04649*
X10245Y04653*
X10242Y04657*
X10238Y0466*
X10234Y04661*
X10171*
X10166Y0466*
X10162Y04657*
X10159Y04653*
X10159Y04649*
Y04631*
X10159Y04626*
X10162Y04622*
X10166Y0462*
X10171Y04619*
X10205*
X10205Y04619*
X1022*
X10223Y04615*
X10221Y04611*
X10171*
X10166Y0461*
X10162Y04607*
X10159Y04603*
X10159Y04601*
X10157*
X10151Y046*
X10146Y04597*
X10139Y04589*
X10134Y04591*
Y04666*
X10133Y04673*
X10129Y04679*
X10055Y04753*
X10049Y04757*
X10042Y04758*
X09875*
X09872Y0476*
X09868Y04761*
X09805*
X098Y0476*
X09796Y04757*
X09793Y04753*
X09792Y04749*
Y04737*
X09789Y04736*
X09787Y04735*
X09783Y04738*
X09777Y04739*
X09747*
X09746Y04741*
X09741Y04746*
X09735Y0475*
X09728Y04751*
X0972*
X09713Y0475*
X0971Y04748*
X09705Y04751*
Y04765*
X0971Y04768*
X0971Y04768*
X09717Y04766*
X09724*
X09731Y04768*
X09738Y04772*
X09743Y04777*
X09746Y04783*
X09748Y0479*
Y04797*
X09746Y04804*
X09743Y04811*
X09738Y04816*
X09737Y04816*
Y04822*
X09741Y04824*
X09746Y04829*
X0975Y04835*
X09751Y04842*
Y0485*
X0975Y04857*
X09746Y04863*
X09741Y04868*
X09739Y04869*
Y04874*
X09741Y04875*
X09746Y0488*
X0975Y04887*
X09751Y04894*
Y04901*
X0975Y04908*
X09746Y04914*
X09743Y04918*
X09741Y04921*
X09743Y04924*
X09746Y04927*
X0975Y04934*
X09751Y04941*
Y04948*
X0975Y04955*
X09746Y04961*
X09741Y04966*
X09739Y04967*
Y04972*
X09741Y04974*
X09746Y04979*
X0975Y04985*
X09751Y04992*
Y04999*
X0975Y05006*
X09746Y05012*
X09741Y05018*
X09739Y05019*
Y05024*
X09741Y05025*
X09746Y05031*
X0975Y05037*
X09751Y05044*
Y05051*
X0975Y05058*
X09746Y05064*
X09743Y05067*
X09745Y05072*
X09753*
X0976Y0507*
X09767*
X09774Y05072*
X0978Y05076*
X09785Y05081*
X09789Y05087*
X09791Y05094*
Y05102*
X09789Y05109*
X09785Y05115*
X0978Y0512*
X09774Y05124*
X09767Y05125*
X0976*
X09753Y05124*
X09752Y05123*
X09705*
Y05125*
X09597*
Y0507*
Y0502*
Y0497*
Y0492*
Y0487*
Y0482*
Y04773*
X09541*
X09531Y04771*
X09523Y04766*
X09497Y0474*
X09497Y0474*
X0949Y04736*
X09485Y04731*
X09482Y04725*
X0948Y04718*
Y0471*
X09482Y04703*
X09485Y04697*
X0949Y04692*
X09497Y04688*
X09504Y04687*
X09511*
X09518Y04688*
X09524Y04692*
X09525Y04693*
X0953Y0469*
X09529Y04688*
Y04681*
X09531Y04674*
X09535Y04668*
X0954Y04662*
X09546Y04659*
X09553Y04657*
X0956*
X09567Y04659*
X09574Y04662*
X09579Y04668*
X09581Y04672*
X09597*
Y0462*
Y0457*
Y0452*
Y04491*
X09594Y04487*
X09491*
Y04559*
X09492Y0456*
X09494Y04567*
Y04574*
X09492Y04581*
X09488Y04587*
X09483Y04592*
X09477Y04596*
X0947Y04598*
X09462*
X09455Y04596*
X09449Y04592*
X09444Y04587*
X09444Y04587*
X0944*
X09438Y04587*
X09433Y04592*
X09427Y04596*
X0942Y04598*
X09413*
X09406Y04596*
X094Y04592*
X09394Y04587*
X09392Y04583*
X0939Y04583*
X09386Y04583*
X09382Y04587*
X09376Y04591*
X09369Y04592*
X09361*
X09354Y04591*
X09348Y04587*
X09343Y04582*
X09339Y04576*
X09338Y04569*
Y04567*
X09335Y04566*
X09333Y04565*
X09327Y04568*
X0932Y0457*
X09313*
X09306Y04568*
X093Y04564*
X09294Y04559*
X09291Y04553*
X09289Y04546*
Y04539*
X0929Y04533*
Y04487*
X09191*
Y04669*
X09189Y04679*
X09184Y04687*
X09118Y04754*
Y04783*
X09118Y04783*
X0912Y0479*
Y04797*
X09118Y04804*
X09114Y04811*
X09109Y04816*
X09103Y04819*
X09096Y04821*
X09088*
X09081Y04819*
X09075Y04816*
X09071Y04812*
X09069Y04811*
X09065Y04812*
X09062Y04815*
X09055Y04818*
X09048Y0482*
X09041*
X09034Y04818*
X09028Y04815*
X09023Y0481*
X09019Y04803*
X09017Y04796*
Y04789*
X09019Y04782*
X09019Y04782*
Y04734*
X09021Y04724*
X09027Y04716*
X0909Y04652*
Y04487*
X09088*
Y04383*
X09044*
Y04487*
X08991*
X08988*
X08986Y04491*
Y04519*
Y04569*
Y04619*
Y04669*
Y04719*
Y04769*
Y04819*
Y04869*
Y04919*
Y04969*
Y05019*
Y05069*
Y05125*
X08877*
Y05123*
X0884*
X08784Y05179*
X08775Y05184*
X08766Y05186*
X08636*
X08632Y05186*
Y05265*
X08552*
Y05186*
X08568*
Y05161*
Y05115*
X08564*
Y05046*
X08568*
Y05018*
X08554*
Y04939*
X08568*
Y04809*
X08567Y04802*
X08539Y04774*
X08477*
Y04699*
X08547*
X08549Y04694*
X084Y04546*
X08395Y04548*
Y04606*
X08328*
Y04539*
X08389*
X08393Y04534*
X08391Y04527*
Y04512*
X08391Y04511*
X08389Y04504*
Y04497*
X08391Y0449*
X08392Y04489*
X08389Y04484*
X08056*
Y04558*
X08124*
Y04653*
X08112*
Y04682*
X08124*
Y04777*
X08123*
X08121Y04782*
X08132Y04793*
X08132Y04793*
X08138Y04796*
X08144Y04801*
X08147Y04808*
X08149Y04815*
Y04822*
X08147Y04829*
X08144Y04835*
X08138Y0484*
X08132Y04844*
X08125Y04846*
X08118*
X08111Y04844*
X08105Y0484*
X08099Y04835*
X08096Y04829*
X08096Y04829*
X08069Y04802*
X08063Y04794*
X08061Y04784*
X08056Y04784*
Y04822*
X08079Y04844*
X08084Y04852*
X08086Y04862*
Y04989*
X0811Y05013*
X08132*
Y04986*
X08204*
X08209*
X0821*
X0822*
Y04973*
X08218*
Y04902*
X08281*
Y04973*
X08271*
Y04986*
X08282*
Y05064*
X0821*
X08205*
X08204*
X08187*
Y05179*
X08197Y05189*
X08209*
X08211Y05189*
X08213Y05185*
X08211Y05183*
X08206Y05175*
X08204Y05166*
Y05156*
X08206Y05147*
X08211Y05139*
X08218Y05132*
X08226Y05128*
X08235Y05125*
X08244*
X08253Y05128*
X08262Y05132*
X08268Y05139*
X08273Y05147*
X08275Y05156*
Y05166*
X08273Y05175*
X08268Y05183*
X08262Y05189*
X08253Y05194*
X08244Y05197*
X08235*
X08234Y05196*
X08231Y05201*
X08235Y05204*
X08235Y05204*
X08244*
X08253Y05206*
X08262Y05211*
X08268Y05218*
X08273Y05226*
X08275Y05235*
Y05244*
X08273Y05253*
X08268Y05262*
X08262Y05268*
X08253Y05273*
X08244Y05275*
X08235*
X08226Y05273*
X08218Y05268*
X08211Y05262*
X08206Y05253*
X08205Y05246*
X08198Y0524*
X08187*
X08177Y05238*
X08169Y05232*
X08143Y05207*
X08138Y05199*
X08136Y05189*
Y05064*
X081*
X0809Y05062*
X08082Y05057*
X08043Y05018*
X08037Y05009*
X08035Y05*
Y04872*
X08013Y0485*
X08007Y04842*
X08006Y04832*
Y04777*
X07998*
Y04962*
X08008*
Y05037*
X07932*
Y04962*
X07947*
Y04777*
X07938*
Y04682*
X07947*
Y04653*
X07938*
Y04558*
X08006*
Y04486*
X08005Y04486*
X07998*
X07991Y04484*
X07985Y0448*
X07979Y04475*
X07976Y04469*
X07974Y04462*
Y04455*
X07976Y04448*
X07979Y04441*
X07985Y04436*
X07991Y04432*
X07998Y04431*
X08005*
X08012Y04432*
X08012Y04433*
X08084*
Y04392*
X08081Y04389*
X08079*
X08014*
Y04321*
X08022*
Y04306*
X08017*
Y04229*
X08078*
Y04306*
X08073*
Y04318*
X08076Y04321*
X08081Y04321*
X08084Y04318*
Y04214*
X08014*
X08005Y04223*
Y04229*
X08005*
Y04306*
X07944*
Y04229*
X07954*
Y04213*
X07956Y04203*
X07961Y04195*
X07985Y0417*
X07994Y04165*
X08003Y04163*
X08084*
Y03789*
X08086Y03779*
X08092Y03771*
X08141Y03722*
X08149Y03716*
X08159Y03714*
X08163*
Y0369*
X08165Y03681*
X0817Y03672*
X08196Y03647*
X08204Y03641*
X08214Y03639*
X08231*
X08231Y03639*
X08237Y03632*
X08246Y03628*
X08255Y03625*
X08264*
X08273Y03628*
X08281Y03632*
X08288Y03639*
X08293Y03647*
X08295Y03656*
Y03666*
X08293Y03675*
X08288Y03683*
X08281Y03689*
X08273Y03694*
X08264Y03697*
X08255*
X08246Y03694*
X08239Y0369*
X08225*
X08214Y03701*
Y0374*
Y03778*
X08219Y03783*
X08231*
X08241Y03785*
X08249Y03791*
X08262Y03803*
X08268Y03812*
X0827Y03821*
Y03842*
X08303*
Y03919*
X08231*
X0823*
X08226*
X08215*
Y03936*
X0822*
Y04008*
X08157*
Y03936*
X08164*
Y03919*
X08153*
Y03842*
X08219*
Y03834*
X08208*
X08198Y03832*
X0819Y03827*
X0817Y03807*
X08165Y03799*
X08163Y03789*
Y03778*
X08158Y03776*
X08135Y03799*
Y04188*
Y04433*
X08218*
X0822Y04428*
X08216Y04424*
X08211Y04416*
X08209Y04407*
Y04399*
X08211Y0439*
X08216Y04382*
X08222Y04376*
X0823Y04372*
X08238Y04369*
X08247*
X08256Y04372*
X08263Y04376*
X0827Y04382*
X08274Y0439*
X08276Y04399*
Y04407*
X08274Y04416*
X0827Y04424*
X08266Y04428*
X08268Y04433*
X08327*
Y04369*
X08378*
X0838Y04365*
X08371Y04356*
X08226*
X08216Y04354*
X08208Y04348*
X08182Y04322*
X08176Y04314*
X08174Y04304*
Y04069*
X08176Y04059*
X08182Y04051*
X08199Y04034*
X08208Y04028*
X08217Y04026*
X08289*
X08314Y04001*
Y03561*
X08316Y03551*
X08322Y03543*
X08387Y03477*
X08395Y03472*
X08405Y0347*
X09149*
X09159Y03472*
X09167Y03477*
X09202Y03512*
X09207Y0352*
X09209Y0353*
Y03665*
X09207Y03675*
X09202Y03683*
X09188Y03696*
Y03887*
X0925Y03948*
X09255Y03956*
X09257Y03966*
Y04037*
X09279*
Y04065*
X09308*
Y04053*
X09387*
Y04128*
X09308*
Y04116*
X09279*
Y04144*
X09196*
Y04037*
X09206*
Y03977*
X09145Y03915*
X09139Y03907*
X09137Y03897*
Y03686*
X09139Y03676*
X09145Y03668*
X09158Y03654*
Y03541*
X09138Y03521*
X08776*
Y0359*
Y03592*
Y03595*
Y03597*
Y03669*
X08761*
Y0368*
X08774*
Y037*
X0886*
Y03672*
X08876*
Y03631*
X08878Y03621*
X08884Y03613*
X08893Y03603*
X08893Y03603*
X08897Y03597*
X08902Y03592*
X08908Y03588*
X08915Y03586*
X08922*
X08929Y03588*
X08934Y03591*
X08939Y03589*
Y03552*
X09014*
Y03632*
X09002*
Y0375*
X09086Y03833*
X09091Y03841*
X09093Y03851*
Y04033*
X09109*
Y0414*
X09077*
Y04159*
X09075Y04168*
X09069Y04177*
X09053Y04193*
Y04212*
X09089Y04248*
X09233*
X09235Y04243*
X09234Y04243*
X0923Y04235*
X09228Y04226*
Y04218*
X0923Y04209*
X09234Y04201*
X09241Y04195*
X09248Y04191*
X09257Y04188*
X09266*
X09274Y04191*
X09282Y04195*
X09288Y04201*
X09293Y04209*
X09295Y04218*
Y04226*
X09293Y04235*
X09288Y04243*
X09287Y04243*
X09289Y04248*
X09312*
X09314Y04243*
X09313Y04243*
X09309Y04235*
X09306Y04226*
Y04218*
X09309Y04209*
X09313Y04201*
X09319Y04195*
X09327Y04191*
X09336Y04188*
X09344*
X09353Y04191*
X09361Y04195*
X09367Y04201*
X09371Y04209*
X09374Y04218*
Y04226*
X09371Y04235*
X09367Y04243*
X09366Y04243*
X09368Y04248*
X09391*
X09393Y04243*
X09392Y04243*
X09387Y04235*
X09385Y04226*
Y04218*
X09387Y04209*
X09392Y04201*
X09398Y04195*
X09406Y04191*
X09414Y04188*
X09423*
X09432Y04191*
X09439Y04195*
X09446Y04201*
X0945Y04209*
X09452Y04218*
Y04226*
X0945Y04235*
X09446Y04243*
X09445Y04243*
X09447Y04248*
X09464*
Y04188*
X09531*
Y04248*
X09578*
X09588Y0425*
X09596Y04256*
X09635Y04294*
X09639Y04292*
Y04196*
X09641Y04187*
X09647Y04178*
X0973Y04095*
X09731Y04093*
X09734Y04087*
X09739Y04082*
X09746Y04078*
X09753Y04076*
X0976*
X09763Y04077*
X09769Y04078*
X09777Y04084*
X09783Y04092*
X09785Y04102*
X09784Y04106*
Y04107*
X09783Y04111*
X09783Y04112*
X09783Y04112*
X09782Y04114*
X09778Y04121*
X09773Y04126*
X09769Y04129*
X0969Y04207*
Y04364*
X09728*
Y04354*
X09796*
Y04433*
X09787*
Y04461*
X09791Y04464*
X09836*
X09846Y04466*
X0985Y04469*
X09868*
X09868Y04469*
X09873Y04465*
Y04433*
X09811*
Y04354*
X09878*
Y04394*
X09881*
X09887Y04395*
X09892Y04398*
X09899Y04405*
X099Y04407*
X09905Y04406*
Y04198*
X09774Y04066*
X09645*
X09597Y04113*
Y04173*
X09599Y04174*
X09604Y04179*
X09608Y04186*
X0961Y04193*
Y042*
X09608Y04207*
X09604Y04213*
X09599Y04218*
X09593Y04222*
X09586Y04224*
X09579*
X09572Y04222*
X09565Y04218*
X0956Y04213*
X09556Y04207*
X09555Y042*
Y04193*
X09556Y04186*
X0956Y04179*
X09565Y04174*
X09567Y04173*
Y04107*
X09568Y04101*
X09571Y04096*
X09627Y0404*
X09632Y04037*
X09638Y04035*
X0978*
X09786Y04037*
X09791Y0404*
X09861Y0411*
X09866Y04108*
Y04047*
X09747Y03928*
X09739Y03931*
X09729*
X09719Y03928*
X09711Y03923*
X09704Y03916*
X09699Y03908*
X09696Y03898*
Y03888*
X09699Y03879*
X09704Y0387*
X09708Y03866*
Y03659*
X09704Y03654*
X09699Y03646*
X09696Y03636*
Y03626*
X09699Y03617*
X09704Y03608*
X09711Y03601*
X09719Y03596*
X09729Y03594*
X09739*
X09748Y03596*
X09757Y03601*
X09764Y03608*
X09769Y03617*
X09771Y03626*
Y03636*
X09769Y03646*
X09764Y03654*
X09759Y03659*
Y03866*
X09764Y0387*
X09769Y03879*
X09771Y03888*
Y03898*
X09769Y03907*
X09812Y0395*
X09817Y03948*
Y03928*
X09809Y03923*
X09802Y03916*
X09797Y03908*
X09795Y03898*
Y03888*
X09797Y03879*
X09802Y0387*
X09807Y03866*
Y03659*
X09802Y03654*
X09797Y03646*
X09795Y03636*
Y03626*
X09797Y03617*
X09802Y03608*
X09809Y03601*
X09818Y03596*
X09827Y03594*
X09837*
X09847Y03596*
X09855Y03601*
X09862Y03608*
X09867Y03617*
X0987Y03626*
Y03636*
X09867Y03646*
X09862Y03654*
X09858Y03659*
Y03866*
X09862Y0387*
X09867Y03879*
X0987Y03888*
Y03898*
X09867Y03908*
X09862Y03916*
X09855Y03923*
X09847Y03928*
Y03957*
X0991Y0402*
X09915Y04018*
Y03928*
X09908Y03923*
X09901Y03916*
X09896Y03908*
X09893Y03898*
Y03888*
X09896Y03879*
X09901Y0387*
X09905Y03866*
Y03659*
X09901Y03654*
X09896Y03646*
X09893Y03636*
Y03626*
X09896Y03617*
X09901Y03608*
X09908Y03601*
X09916Y03596*
X09926Y03594*
X09936*
X09945Y03596*
X09954Y03601*
X09961Y03608*
X09966Y03617*
X09968Y03626*
Y03636*
X09966Y03646*
X09961Y03654*
X09956Y03659*
Y03866*
X09961Y0387*
X09966Y03879*
X09968Y03888*
Y03898*
X09966Y03908*
X09961Y03916*
X09954Y03923*
X09946Y03928*
Y04107*
X1001Y04171*
X10013Y04176*
X10015Y04182*
Y04617*
X10013Y04623*
X1001Y04628*
X10005Y04633*
Y04634*
X10008Y04637*
X10012Y04643*
X10014Y0465*
Y04653*
X10019Y04655*
X10039Y04635*
Y04566*
X10038Y04565*
X10033Y0456*
X10029Y04553*
X10027Y04546*
Y04539*
X10029Y04532*
X10033Y04526*
X10038Y04521*
X10044Y04517*
X10051Y04515*
X10058*
X10065Y04517*
X10067Y04518*
X10072Y04515*
Y0446*
X10031Y04419*
X10027Y04413*
X10026Y04406*
X10026*
Y03931*
X10024*
X10015Y03928*
X10006Y03923*
X09999Y03916*
X09994Y03908*
X09991Y03898*
Y03888*
X09994Y03879*
X09999Y0387*
X10006Y03863*
X10015Y03858*
X10024Y03856*
X10034*
X10044Y03858*
X10052Y03863*
X10054Y03865*
X10059Y03863*
Y03811*
X10016Y03768*
X10012Y03762*
X10011Y03755*
Y03664*
X10006Y03661*
X09999Y03654*
X09994Y03646*
X09991Y03636*
Y03626*
X09994Y03617*
X09999Y03608*
X10006Y03601*
X10015Y03596*
X10024Y03594*
X10034*
X10044Y03596*
X10052Y03601*
X10059Y03608*
X10064Y03617*
X10067Y03626*
Y03636*
X10064Y03646*
X10059Y03654*
X10052Y03661*
X10047Y03664*
Y03748*
X1009Y03791*
X10094Y03797*
X10096Y03803*
Y04218*
X101Y0422*
X10155Y04165*
X10159Y04162*
X10165Y04161*
X10188*
Y04159*
X10224*
Y04161*
X10238*
Y04159*
X10272*
Y04026*
X10195Y03949*
X10192Y03944*
X10191Y03938*
Y03861*
X10189Y0386*
X10184Y03855*
X10181Y03849*
X10179Y03842*
Y03834*
X10181Y03827*
X10184Y03821*
X10189Y03816*
X10196Y03812*
X10203Y03811*
X1021*
X10217Y03812*
X10217Y03813*
X10252*
X10255Y03808*
X10264Y03799*
X10276Y03792*
X10288Y03789*
X10301*
X10314Y03792*
X10325Y03799*
X10334Y03808*
X10341Y03819*
X10344Y03832*
Y03845*
X10341Y03857*
X10334Y03868*
X10325Y03878*
X10314Y03884*
X10301Y03887*
X10288*
X10276Y03884*
X10264Y03878*
X10255Y03868*
X10252Y03864*
X10221*
Y03932*
X10287Y03998*
X10293Y03996*
X10294Y03993*
X10298Y03987*
X10359Y03925*
Y03787*
X1036Y0378*
X10364Y03774*
X10395Y03744*
Y03713*
X1039Y03711*
X10387Y03714*
X1038Y03718*
X10373Y0372*
X10366*
X10359Y03718*
X10355Y03716*
X10337*
X10334Y03721*
X10325Y0373*
X10314Y03736*
X10301Y0374*
X10288*
X10276Y03736*
X10264Y0373*
X10255Y03721*
X10249Y03709*
X10245Y03697*
Y03684*
X10247Y03679*
X10105Y03537*
X09554*
X09553Y03537*
X09546Y03539*
X09539*
X09532Y03537*
X09526Y03533*
X09521Y03528*
X09517Y03522*
X09515Y03515*
Y03508*
X09517Y03501*
X09521Y03494*
X09526Y03489*
X09532Y03486*
X09539Y03484*
X09546*
X09553Y03486*
X09554Y03486*
X10116*
X10125Y03488*
X10134Y03493*
X10283Y03643*
X10288Y03641*
X10301*
X10314Y03644*
X10325Y03651*
X10334Y0366*
X10337Y03665*
X10366*
X10366Y03665*
X10373*
X1038Y03667*
X10387Y0367*
X1039Y03674*
X10395Y03671*
Y03582*
X10396Y03575*
X104Y03569*
X10418Y03552*
X10424Y03548*
X10431Y03546*
X10437*
Y03531*
X10447*
X10448Y03525*
X10454Y03517*
X10474Y03497*
X10482Y03492*
X10492Y0349*
X10629*
X10639Y03492*
X10647Y03497*
X10691Y03541*
X10693*
X10701Y03543*
X10709Y03547*
X10715Y03554*
X1072Y03561*
X10722Y0357*
Y03579*
X1072Y03587*
X10715Y03595*
X10709Y03601*
X10701Y03606*
X10693Y03608*
X10684*
X10676Y03606*
X10668Y03601*
X10662Y03595*
X10657Y03587*
X10655Y03579*
Y03577*
X10619Y03541*
X10507*
Y03587*
Y03592*
Y03594*
Y03617*
X1051Y0362*
X10522*
Y03614*
X10593*
Y03677*
X10522*
Y03671*
X10499*
X1049Y03669*
X10481Y03663*
X10468Y0365*
X10437*
Y03592*
X10435Y03591*
X10431Y03593*
Y03738*
X10436Y03741*
X10437Y0374*
Y03721*
X10453*
X10454Y0372*
X10474Y037*
X10482Y03694*
X10492Y03693*
X10629*
X10639Y03694*
X10647Y037*
X10691Y03743*
X10693*
X10701Y03746*
X10709Y0375*
X10715Y03756*
X1072Y03764*
X10722Y03773*
Y03781*
X1072Y0379*
X10715Y03798*
X10709Y03804*
X10701Y03808*
X10693Y03811*
X10684*
X10676Y03808*
X10668Y03804*
X10662Y03798*
X10657Y0379*
X10655Y03781*
Y03779*
X10619Y03743*
X10507*
Y03777*
Y03779*
Y03782*
Y03819*
X1051Y03822*
X10522*
Y03816*
X10593*
Y0388*
X10522*
Y03873*
X10499*
X1049Y03871*
X10481Y03866*
X10464Y03848*
X10463Y03847*
X10462Y03847*
X10454Y03842*
X10453Y0384*
X10437*
Y03802*
X10432Y038*
X10421Y03811*
Y03956*
X1042Y03963*
X10416Y03969*
X10354Y04031*
Y04036*
X10359Y04038*
X10437Y0396*
Y03936*
X10454*
Y03934*
X10455Y03925*
X10461Y03916*
X10479Y03899*
X10487Y03893*
X10497Y03891*
X10625*
X10635Y03893*
X10644Y03899*
X10691Y03946*
X10693*
X10701Y03948*
X10709Y03953*
X10715Y03959*
X1072Y03967*
X10722Y03975*
Y03984*
X1072Y03993*
X10715Y04*
X10709Y04007*
X10701Y04011*
X10693Y04013*
X10684*
X10676Y04011*
X10668Y04007*
X10662Y04*
X10657Y03993*
X10655Y03984*
Y03982*
X10615Y03942*
X10507*
X10507Y03943*
Y03993*
Y03994*
Y03998*
Y04022*
X1051Y04025*
X10522*
Y04019*
X10593*
Y04082*
X10522*
Y04076*
X10499*
X1049Y04074*
X10481Y04069*
X10468Y04055*
X10437*
Y04018*
X10432Y04017*
X1038Y04069*
Y04218*
X10385Y0422*
X10437Y04168*
Y04139*
X10447*
X10448Y04133*
X10454Y04125*
X10474Y04105*
X10482Y041*
X10492Y04098*
X10629*
X10639Y041*
X10647Y04105*
X10691Y04149*
X10693*
X10701Y04151*
X10709Y04156*
X10715Y04162*
X1072Y0417*
X10722Y04178*
Y04187*
X1072Y04196*
X10715Y04203*
X10709Y04209*
X10701Y04214*
X10693Y04216*
X10684*
X10676Y04214*
X10668Y04209*
X10662Y04203*
X10657Y04196*
X10655Y04187*
Y04185*
X10619Y04149*
X10507*
Y04195*
Y04197*
Y042*
Y04225*
X1051Y04228*
X10522*
Y04222*
X10593*
Y04285*
X10522*
Y04279*
X10499*
X1049Y04277*
X10481Y04271*
X10468Y04258*
X10437*
Y04226*
X10432Y04224*
X10406Y0425*
Y04378*
X10411Y0438*
X10427Y04364*
Y04336*
X10437*
X10439Y0433*
X10444Y04322*
X10464Y04302*
X10472Y04297*
X10482Y04295*
X1062*
X10629Y04297*
X10638Y04302*
X10682Y04346*
X10684Y04346*
X10693*
X10701Y04348*
X10709Y04353*
X10715Y04359*
X1072Y04366*
X10722Y04375*
Y04384*
X1072Y04392*
X10715Y044*
X10709Y04406*
X10701Y04411*
X10693Y04413*
X10684*
X10676Y04411*
X10668Y04406*
X10662Y044*
X10659Y04396*
X10609Y04346*
X10497*
Y04392*
Y04394*
Y04397*
Y04422*
X105Y04425*
X10512*
Y04419*
X10583*
Y04482*
X10604*
X10614Y04484*
X10622Y04489*
X10682Y04549*
X10684Y04549*
X10693*
X10701Y04551*
X10709Y04555*
X10715Y04562*
X1072Y04569*
X10722Y04578*
Y04587*
X1072Y04595*
X10715Y04603*
X10709Y04609*
X10701Y04614*
X10693Y04616*
X10684*
X10676Y04614*
X10668Y04609*
X10662Y04603*
X10659Y04599*
X10593Y04533*
X10508*
X10497Y04544*
Y04595*
Y046*
Y04601*
Y04624*
X105Y04628*
X10512*
Y04621*
X10583*
Y04685*
X10512*
Y04679*
X1049*
X1048Y04677*
X10471Y04671*
X10458Y04658*
X10427*
Y04605*
X10422Y04603*
X104Y04625*
Y04727*
X10399Y04728*
Y0475*
X10404Y04752*
X10446Y0471*
X10454Y04704*
X10464Y04702*
X10657*
X10667Y04704*
X10675Y0471*
X10703Y04738*
X10703Y04738*
X10709Y04741*
X10714Y04746*
X10718Y04753*
X1072Y0476*
Y04767*
X10718Y04774*
X10714Y0478*
X10709Y04785*
X10703Y04789*
X10696Y04791*
X10689*
X10682Y04789*
X10675Y04785*
X1067Y0478*
X10667Y04774*
X10667Y04774*
X10646Y04753*
X10475*
X10441Y04787*
X10444Y04792*
X10461*
X10461Y04791*
X1047Y04786*
X10479Y04784*
X10514*
Y04777*
X10585*
Y04841*
X10514*
Y04835*
X10497*
Y04849*
Y04853*
Y0491*
X10488*
Y04922*
X1049Y04925*
X1059*
X10661Y04854*
Y04815*
X10736*
Y0489*
X10697*
X10619Y04968*
X10618Y04969*
X10619Y04974*
X10717*
X10717Y04974*
X10724Y04972*
X10731*
X10738Y04974*
X10745Y04977*
X1075Y04983*
X10754Y04989*
X10755Y04996*
Y05003*
X10754Y0501*
X1075Y05016*
X10745Y05022*
X10738Y05025*
X10731Y05027*
X10724*
X10717Y05025*
X10717Y05025*
X10586*
Y05088*
X10515*
Y05082*
X105*
X10497Y05086*
Y05098*
Y05099*
Y05155*
X10488*
Y05167*
X1049Y0517*
X1059*
X10661Y05099*
Y0506*
X10736*
Y05135*
X10697*
X10619Y05213*
X10611Y05219*
X10601Y05221*
X1048*
X1047Y05219*
X10462Y05213*
X10444Y05196*
X10439Y05188*
X10437Y05178*
Y05155*
X10427*
Y05099*
Y05094*
Y05093*
Y05037*
X10463*
X10466Y05036*
X1047*
X10475Y05033*
X10485Y05031*
X10515*
Y05025*
X10423*
X1038Y05069*
X10371Y05074*
X10362Y05076*
X10106*
X10096Y05074*
X10088Y05069*
X10044Y05025*
X09987*
X09987Y05025*
X0998Y05027*
X09972*
X09965Y05025*
X09959Y05022*
X09954Y05016*
X0995Y0501*
X0995Y05008*
X09945Y05009*
Y05037*
X09943*
Y05069*
X09963*
Y05086*
X09983*
X09993Y05088*
X10001Y05094*
X10023Y05116*
X1003*
Y05102*
X10109*
Y05116*
X10229*
Y05102*
X10308*
Y05181*
X1029*
X10288Y05186*
X10293Y05188*
X103Y05196*
X10305Y05205*
X10308Y05215*
Y05225*
X10305Y05235*
X103Y05244*
X10293Y05252*
X10284Y05257*
X10284Y05258*
Y05261*
X10284Y05262*
X10293Y05267*
X103Y05274*
X10305Y05283*
X10308Y05294*
Y05304*
X10305Y05314*
X103Y05323*
X10293Y0533*
X10284Y05336*
X10274Y05338*
X10263*
X10253Y05336*
X10244Y0533*
X10238Y05324*
X101*
X10094Y0533*
X10085Y05336*
X10075Y05338*
X10064*
X10054Y05336*
X10045Y0533*
X10039Y05324*
X09994*
X09991Y05327*
X09983Y05332*
X09973Y05334*
X09954*
X09948Y0534*
X09939Y05345*
X09929Y05348*
G37*
G36*
X09645Y05453D02*
X08937D01*
X08933Y05452*
X08929Y0545*
X08927Y05446*
X08926Y05442*
Y05206*
X08927Y05202*
X08929Y05199*
X08933Y05197*
X08937Y05196*
X09645*
X09649Y05197*
X09652Y05199*
X09655Y05202*
X09655Y05206*
Y05442*
X09655Y05446*
X09652Y0545*
X09649Y05452*
X09645Y05453*
G37*
G36*
X08507Y05224D02*
X085D01*
X08493Y05222*
X08487Y05218*
X08481Y05213*
X08478Y05207*
X08476Y052*
Y05193*
X08476Y05191*
X08325Y05039*
X08321Y05034*
X0832Y05028*
Y04909*
X08316Y04906*
X08311Y04901*
X08307Y04895*
X08306Y04888*
Y04881*
X08307Y04874*
X08311Y04867*
X08316Y04862*
X08322Y04859*
X08329Y04857*
X08337*
X08344Y04859*
X0835Y04862*
X08355Y04867*
X08359Y04874*
X08361Y04881*
Y04888*
X08359Y04895*
X08355Y04901*
X08351Y04906*
Y05022*
X08498Y05169*
X085Y05169*
X08507*
X08514Y05171*
X0852Y05174*
X08525Y05179*
X08529Y05186*
X08531Y05193*
Y052*
X08529Y05207*
X08525Y05213*
X0852Y05218*
X08514Y05222*
X08507Y05224*
G37*
G36*
X114Y05275D02*
X1139D01*
X11381Y05273*
X11373Y05268*
X11367Y05262*
X11362Y05253*
X1136Y05244*
Y05235*
X11362Y05226*
X11367Y05218*
X11373Y05211*
X11381Y05206*
X1139Y05204*
X114*
X11409Y05206*
X11417Y05211*
X1142Y05214*
X11509*
X11537Y05186*
Y05119*
X11425*
X11415Y05118*
X11407Y05112*
X11388Y05093*
X11382Y05085*
X1138Y05075*
Y05061*
X11359*
Y04983*
X11431*
X11436*
X11438*
X11444*
Y0497*
X11439*
Y04899*
X11503*
Y0497*
X11495*
Y04983*
X1151*
Y05061*
X11436*
X11434Y05066*
X11437Y05069*
X11537*
Y04569*
X11344Y04376*
X11338Y04368*
X11336Y04358*
Y04222*
X11332Y04221*
X11255Y04297*
Y04917*
X11254Y04923*
X1125Y04928*
X11199Y04979*
X11194Y04982*
X11188Y04983*
X11152*
X11151Y04985*
X11146Y0499*
X1114Y04994*
X11133Y04996*
X11126*
X11119Y04994*
X11113Y0499*
X11107Y04985*
X11104Y04979*
X11102Y04972*
Y04964*
X11104Y04957*
X11107Y04951*
X11113Y04946*
X11119Y04942*
X11126Y0494*
X11133*
X1114Y04942*
X11146Y04946*
X11151Y04951*
X11152Y04953*
X11182*
X11206Y04928*
X11204Y04924*
X11204Y04924*
X11197*
X1119Y04922*
X11183Y04918*
X11178Y04913*
X11175Y04907*
X11173Y049*
Y04893*
X11175Y04886*
X11178Y04879*
X11183Y04874*
X11185Y04873*
Y04291*
X11186Y04285*
X11189Y0428*
X11294Y04176*
Y04162*
X11289Y04161*
X1121*
Y04153*
X11168*
Y04161*
X11089*
Y04153*
X11037*
Y04216*
X11029*
Y04346*
X11037*
Y04413*
X11029*
Y04549*
X11037*
Y04616*
X1097*
Y04549*
X10978*
Y04413*
X1097*
Y04346*
X10978*
Y04216*
X1097*
Y04149*
X10978*
Y04114*
Y04013*
X1097*
Y03946*
X10978*
Y03811*
X1097*
Y03743*
X10978*
Y03608*
X1097*
Y03541*
X11037*
Y03608*
X11029*
Y03743*
X11037*
Y03811*
X11029*
Y03946*
X11037*
Y04008*
X11038Y04008*
X11042Y0401*
X11047Y04008*
X11054Y04006*
X11061*
X11068Y04008*
X11072Y0401*
X11121*
X11124Y04011*
X11168*
Y04057*
X11173Y0406*
X11177Y04057*
X11184Y04056*
X11191*
X11195Y04057*
X1121Y04042*
Y04011*
X11275*
Y03785*
X11184Y03694*
X11181Y03695*
X1117*
X1116Y03692*
X11151Y03687*
X11144Y03679*
X11139Y0367*
X11136Y0366*
Y0365*
X11139Y0364*
X11144Y03631*
X11151Y03623*
X11156Y03621*
X11155Y03616*
X11136*
Y03537*
X11215*
Y03573*
X11218*
X11224Y03574*
X11229Y03577*
X1127Y03619*
X11273Y03624*
X11275Y03629*
Y03713*
X11321Y03759*
X11324Y03764*
X11326Y0377*
Y03997*
X1134Y04011*
X11343Y04016*
X11344Y04022*
Y04061*
X11349Y04063*
X11387Y04025*
X11395Y04019*
X11405Y04017*
X11505*
X11513Y04009*
Y03908*
X11509Y03903*
X11498*
Y0391*
X11426*
X11421*
X11419*
X1141*
Y03925*
X11416*
Y03996*
X11353*
Y03925*
X11359*
Y0391*
X11348*
Y03833*
X11419*
X11424*
X11426*
X11444*
Y03701*
X11422Y03679*
X11416*
X11416Y03679*
X11409Y03685*
X11401Y0369*
X11392Y03693*
X11383*
X11374Y0369*
X11365Y03685*
X11359Y03679*
X11354Y03671*
X11352Y03662*
Y03652*
X11354Y03643*
X11359Y03635*
X11365Y03629*
X11374Y03624*
X11383Y03621*
X11392*
X11401Y03624*
X11408Y03628*
X11433*
X11442Y03629*
X11451Y03635*
X11488Y03672*
X11494Y03681*
X11495Y0369*
Y03833*
X11498*
Y03852*
X11519*
X11529Y03854*
X11537Y03859*
X11557Y03879*
X11562Y03887*
X11564Y03897*
Y04019*
X11562Y04029*
X11557Y04037*
X11533Y04061*
X11525Y04066*
X11515Y04068*
X11416*
X11412Y04072*
X11414Y04077*
X11492*
Y0416*
X11409*
Y04082*
X11404Y0408*
X11387Y04097*
Y04153*
X11389Y04157*
X11391Y04164*
Y04171*
X11392Y04172*
X11561*
X11609Y04124*
Y04113*
X11612Y04103*
X11617Y04093*
X11625Y04085*
X11635Y0408*
X11645Y04077*
X11656*
X11667Y0408*
X11676Y04085*
X11684Y04093*
X11689Y04103*
X11692Y04113*
Y04124*
X11689Y04135*
X11684Y04144*
X11676Y04152*
X11667Y04157*
X11656Y0416*
X11645*
X1159Y04215*
X11582Y04221*
X11572Y04223*
X11387*
Y04347*
X11581Y04541*
X11586Y04549*
X11588Y04559*
Y04962*
X11661*
Y05037*
X11588*
Y05074*
X11593Y05076*
X11593Y05075*
X116Y05068*
X11609Y05063*
X11619Y0506*
X11628*
X11638Y05063*
X11647Y05068*
X11654Y05075*
X11659Y05083*
X11661Y05093*
Y05103*
X11659Y05112*
X11654Y05121*
X11647Y05128*
X11638Y05133*
X11628Y05135*
X11619*
X11609Y05133*
X116Y05128*
X11593Y05121*
X11593Y0512*
X11588Y05121*
Y05173*
X11593Y05174*
X11593Y05173*
X116Y05166*
X11609Y05161*
X11619Y05159*
X11628*
X11638Y05161*
X11647Y05166*
X11654Y05173*
X11659Y05182*
X11661Y05191*
Y05201*
X11659Y05211*
X11654Y05219*
X11647Y05226*
X11638Y05231*
X11628Y05234*
X11619*
X11609Y05231*
X116Y05226*
X11593Y05219*
X11589Y05211*
X11587Y05211*
X11583Y0521*
X11581Y05214*
X11537Y05258*
X11529Y05263*
X11519Y05265*
X1142*
X11417Y05268*
X11409Y05273*
X114Y05275*
G37*
G36*
X109Y05385D02*
X1089D01*
X10881Y05382*
X10872Y05377*
X10865Y0537*
X1086Y05362*
X10858Y05352*
Y05342*
X1086Y05333*
X10865Y05324*
X1087Y05319*
Y05239*
Y05126*
X10865Y05121*
X1086Y05112*
X10858Y05103*
Y05093*
X1086Y05083*
X10865Y05075*
X1087Y0507*
Y0488*
X10865Y04876*
X1086Y04867*
X10858Y04858*
Y04848*
X10858Y04847*
X10828Y04817*
X10822Y04809*
X1082Y04799*
Y04604*
X10819Y04603*
X10815Y04595*
X10812Y04587*
Y04578*
X10815Y04569*
X10819Y04562*
X1082Y0456*
Y04401*
X10819Y044*
X10815Y04392*
X10812Y04384*
Y04375*
X10815Y04366*
X10819Y04359*
X1082Y04357*
Y04205*
X10819Y04203*
X10815Y04196*
X10812Y04187*
Y04178*
X10815Y0417*
X10819Y04162*
X1082Y04161*
Y04002*
X10819Y04*
X10815Y03993*
X10812Y03984*
Y03975*
X10815Y03967*
X10819Y03959*
X1082Y03958*
Y03799*
X10819Y03798*
X10815Y0379*
X10812Y03781*
Y03773*
X10815Y03764*
X10819Y03756*
X1082Y03755*
Y03596*
X10819Y03595*
X10815Y03587*
X10812Y03579*
Y0357*
X10815Y03561*
X10819Y03554*
X10825Y03547*
X10833Y03543*
X10842Y03541*
X1085*
X10859Y03543*
X10867Y03547*
X10873Y03554*
X10877Y03561*
X1088Y0357*
Y03579*
X10877Y03587*
X10873Y03595*
X10871Y03596*
Y03755*
X10873Y03756*
X10877Y03764*
X1088Y03773*
Y03781*
X10877Y0379*
X10873Y03798*
X10871Y03799*
Y03958*
X10873Y03959*
X10877Y03967*
X1088Y03975*
Y03984*
X10877Y03993*
X10873Y04*
X10871Y04002*
Y04161*
X10873Y04162*
X10877Y0417*
X1088Y04178*
Y04187*
X10877Y04196*
X10873Y04203*
X10871Y04205*
Y04357*
X10873Y04359*
X10877Y04366*
X1088Y04375*
Y04384*
X10877Y04392*
X10873Y044*
X10871Y04401*
Y0456*
X10873Y04562*
X10877Y04569*
X1088Y04578*
Y04587*
X10877Y04595*
X10873Y04603*
X10871Y04604*
Y04789*
X10898Y04815*
X109*
X1091Y04818*
X10918Y04823*
X10925Y0483*
X1093Y04838*
X10933Y04848*
Y04858*
X1093Y04867*
X10925Y04876*
X10921Y0488*
Y0507*
X10925Y05075*
X1093Y05083*
X10933Y05093*
Y05103*
X1093Y05112*
X10925Y05121*
X10921Y05126*
Y05223*
X10993*
X11067Y0515*
X11071Y05147*
X11077Y05146*
X11251*
X11257Y05147*
X11262Y0515*
X1129Y05178*
X11293Y05183*
X11294Y05188*
Y05213*
X11296Y05214*
X11301Y05219*
X11305Y05225*
X11307Y05232*
Y05239*
X11305Y05246*
X11301Y05253*
X11296Y05258*
X1129Y05261*
X11283Y05263*
X11275*
X11268Y05261*
X11262Y05258*
X11257Y05253*
X11253Y05246*
X11251Y05239*
Y05237*
X1125Y05236*
X11243*
X11236Y05234*
X11234Y05233*
X11229Y05236*
Y05283*
X11211*
X11209Y05288*
X11214Y05291*
X11221Y05298*
X11226Y05307*
X11229Y05317*
Y05328*
X11226Y05338*
X11221Y05347*
X11214Y05354*
X11205Y05359*
X11195Y05362*
X11184*
X11174Y05359*
X11165Y05354*
X11158Y05347*
X11153Y05338*
X1115Y05328*
Y05317*
X11153Y05307*
X11158Y05298*
X11165Y05291*
X1117Y05288*
X11168Y05283*
X1115*
Y05207*
X1112*
Y0521*
X11118Y05217*
X11114Y05223*
X11109Y05228*
X11103Y05232*
X11096Y05234*
X11088*
X11081Y05232*
X11075Y05228*
X1107Y05223*
X11066Y05217*
X11064Y0521*
Y05203*
X11064Y05202*
X1106Y052*
X1101Y0525*
X11005Y05253*
X11Y05254*
X10921*
Y05319*
X10925Y05324*
X1093Y05333*
X10933Y05342*
Y05352*
X1093Y05362*
X10925Y0537*
X10918Y05377*
X1091Y05382*
X109Y05385*
G37*
G36*
X09264Y04922D02*
X09255D01*
X09246Y04919*
X09239Y04912*
X09236Y04903*
Y04895*
X09228*
Y04903*
X09224Y04912*
X09218Y04919*
X09209Y04922*
X092*
X09191Y04919*
X09184Y04912*
X09181Y04903*
Y04895*
X09172*
X09163Y04891*
X09157Y04885*
X09153Y04876*
Y04866*
X09157Y04858*
X09163Y04851*
X09172Y04848*
X09181*
Y0484*
X09172*
X09163Y04836*
X09157Y04829*
X09153Y04821*
Y04811*
X09157Y04803*
X09163Y04796*
X09172Y04792*
X09181*
Y04784*
X09184Y04775*
X09191Y04768*
X092Y04765*
X09209*
X09218Y04768*
X09224Y04775*
X09228Y04784*
Y04792*
X09236*
Y04784*
X09239Y04775*
X09246Y04768*
X09255Y04765*
X09264*
X09273Y04768*
X09279Y04775*
X09283Y04784*
Y04792*
X09292*
X093Y04796*
X09307Y04803*
X09311Y04811*
Y04821*
X09307Y04829*
X093Y04836*
X09292Y0484*
X09283*
Y04848*
X09292*
X093Y04851*
X09307Y04858*
X09311Y04866*
Y04876*
X09307Y04885*
X093Y04891*
X09292Y04895*
X09283*
Y04903*
X09279Y04912*
X09273Y04919*
X09264Y04922*
G37*
G36*
X08395Y04773D02*
X08328D01*
Y04706*
X08395*
Y04773*
G37*
G36*
X08248D02*
X08239D01*
X08231Y04771*
X08223Y04767*
X08217Y0476*
X08212Y04753*
X0821Y04744*
Y04735*
X08212Y04727*
X08217Y04719*
X08223Y04713*
X08231Y04708*
X08239Y04706*
X08248*
X08257Y04708*
X08264Y04713*
X08271Y04719*
X08275Y04727*
X08277Y04735*
Y04744*
X08275Y04753*
X08271Y0476*
X08264Y04767*
X08257Y04771*
X08248Y04773*
G37*
G36*
X11251Y05068D02*
X11098D01*
X11088Y05066*
X1108Y05061*
X11052Y05033*
X11047Y05025*
X11045Y05015*
Y04791*
X11044Y04791*
X11039*
X11032Y04789*
X11026Y04785*
X11021Y0478*
X11017Y04774*
X11015Y04767*
Y0476*
X11017Y04753*
X11021Y04746*
X11026Y04741*
X11032Y04738*
X11039Y04736*
X11046*
X11053Y04738*
X11054Y04738*
X11063Y0474*
X11071Y04745*
X11088Y04763*
X11094Y04771*
X11096Y04781*
Y05005*
X11108Y05017*
X11241*
X11277Y04981*
Y04629*
X11279Y0462*
X11285Y04611*
X11336Y0456*
X11344Y04555*
X11354Y04553*
X11481*
X11481Y04553*
X11488Y04551*
X11495*
X11502Y04553*
X11509Y04556*
X11514Y04561*
X11517Y04568*
X11519Y04575*
Y04582*
X11517Y04589*
X11514Y04595*
X11509Y046*
X11502Y04604*
X11495Y04606*
X11488*
X11481Y04604*
X11481Y04604*
X11364*
X11328Y0464*
Y04992*
X11326Y05001*
X11321Y0501*
X11269Y05061*
X11261Y05066*
X11251Y05068*
G37*
G36*
X08248Y04606D02*
X08239D01*
X08231Y04604*
X08223Y04599*
X08217Y04593*
X08212Y04585*
X0821Y04577*
Y04568*
X08212Y04559*
X08217Y04552*
X08223Y04545*
X08231Y04541*
X08239Y04539*
X08248*
X08257Y04541*
X08264Y04545*
X08271Y04552*
X08275Y04559*
X08277Y04568*
Y04577*
X08275Y04585*
X08271Y04593*
X08264Y04599*
X08257Y04604*
X08248Y04606*
G37*
G36*
X07998Y04389D02*
X07931D01*
Y04321*
X07998*
Y04389*
G37*
G36*
X09437Y03977D02*
X09371D01*
Y03912*
X09437*
X09441Y03911*
Y03911*
X09512*
Y03974*
X09441*
X09437Y03975*
Y03977*
G37*
G36*
X11693Y03935D02*
X11617D01*
Y0386*
X11693*
Y03935*
G37*
G36*
X08069D02*
X07993D01*
Y0386*
X08069*
Y03935*
G37*
G36*
X09673Y03931D02*
X09598D01*
Y03856*
X0961*
Y03785*
X09607Y03782*
X09443*
X0943Y03795*
Y03819*
X09437*
Y03885*
X09371*
Y03819*
X09379*
Y03785*
X0938Y03775*
X09386Y03767*
X09413Y0374*
X09411Y03735*
X09371*
Y0367*
X09437*
X09441*
X09512*
Y03731*
X09618*
X09628Y03733*
X09636Y03738*
X09653Y03756*
X09659Y03764*
X09661Y03774*
Y03856*
X09673*
Y03931*
G37*
G36*
X1166Y03836D02*
X1165D01*
X11641Y03834*
X11632Y03829*
X11625Y03822*
X1162Y03813*
X11617Y03804*
Y03794*
X1162Y03784*
X11625Y03776*
X11632Y03769*
X11641Y03764*
X1165Y03761*
X1166*
X1167Y03764*
X11678Y03769*
X11685Y03776*
X1169Y03784*
X11693Y03794*
Y03804*
X1169Y03813*
X11685Y03822*
X11678Y03829*
X1167Y03834*
X1166Y03836*
G37*
G36*
X08036D02*
X08026D01*
X08017Y03834*
X08008Y03829*
X08001Y03822*
X07996Y03813*
X07993Y03804*
Y03794*
X07996Y03784*
X08001Y03776*
X08008Y03769*
X08017Y03764*
X08026Y03761*
X08036*
X08045Y03764*
X08054Y03769*
X08061Y03776*
X08066Y03784*
X08069Y03794*
Y03804*
X08066Y03813*
X08061Y03822*
X08054Y03829*
X08045Y03834*
X08036Y03836*
G37*
G36*
X11392Y03771D02*
X11383D01*
X11374Y03769*
X11365Y03764*
X11359Y03758*
X11354Y03749*
X11352Y0374*
Y03731*
X11354Y03722*
X11359Y03714*
X11365Y03707*
X11374Y03703*
X11383Y037*
X11392*
X11401Y03703*
X11409Y03707*
X11416Y03714*
X1142Y03722*
X11423Y03731*
Y0374*
X1142Y03749*
X11416Y03758*
X11409Y03764*
X11401Y03769*
X11392Y03771*
G37*
G36*
X1166Y03738D02*
X1165D01*
X11641Y03735*
X11632Y0373*
X11625Y03723*
X1162Y03715*
X11617Y03705*
Y03695*
X1162Y03686*
X11625Y03677*
X11632Y0367*
X11641Y03665*
X1165Y03663*
X1166*
X1167Y03665*
X11678Y0367*
X11685Y03677*
X1169Y03686*
X11693Y03695*
Y03705*
X1169Y03715*
X11685Y03723*
X11678Y0373*
X1167Y03735*
X1166Y03738*
G37*
G36*
X08036D02*
X08026D01*
X08017Y03735*
X08008Y0373*
X08001Y03723*
X07996Y03715*
X07993Y03705*
Y03695*
X07996Y03686*
X08001Y03677*
X08008Y0367*
X08017Y03665*
X08026Y03663*
X08036*
X08045Y03665*
X08054Y0367*
X08061Y03677*
X08066Y03686*
X08069Y03695*
Y03705*
X08066Y03715*
X08061Y03723*
X08054Y0373*
X08045Y03735*
X08036Y03738*
G37*
G36*
X09673Y03669D02*
X09598D01*
Y0363*
X09566Y03598*
X09449*
X09437Y0361*
Y03642*
X09371*
Y03577*
X09398*
X0942Y03554*
X09429Y03549*
X09438Y03547*
X09576*
X09586Y03549*
X09594Y03554*
X09634Y03594*
X09673*
Y03669*
G37*
G36*
X08264Y03618D02*
X08255D01*
X08246Y03615*
X08237Y03611*
X08231Y03604*
X08226Y03596*
X08224Y03587*
Y03577*
X08226Y03568*
X08231Y0356*
X08237Y03554*
X08246Y03549*
X08255Y03547*
X08264*
X08273Y03549*
X08281Y03554*
X08288Y0356*
X08293Y03568*
X08295Y03577*
Y03587*
X08293Y03596*
X08288Y03604*
X08281Y03611*
X08273Y03615*
X08264Y03618*
G37*
G36*
X10802Y05385D02*
X10792D01*
X10782Y05382*
X10774Y05377*
X10767Y0537*
X10762Y05362*
X10759Y05352*
Y05342*
X10762Y05333*
X10767Y05324*
X10771Y05319*
Y05126*
X10767Y05121*
X10762Y05112*
X10759Y05103*
Y05093*
X10762Y05083*
X10767Y05075*
X10771Y0507*
Y0488*
X10767Y04876*
X10762Y04867*
X10759Y04858*
Y04848*
X1076Y04845*
X10749Y04835*
X10744Y04826*
X10742Y04817*
Y04604*
X1074Y04603*
X10736Y04595*
X10734Y04587*
Y04578*
X10736Y04569*
X1074Y04562*
X10742Y0456*
Y04401*
X1074Y044*
X10736Y04392*
X10734Y04384*
Y04375*
X10736Y04366*
X1074Y04359*
X10742Y04357*
Y04205*
X1074Y04203*
X10736Y04196*
X10734Y04187*
Y04178*
X10736Y0417*
X1074Y04162*
X10742Y04161*
Y04002*
X1074Y04*
X10736Y03993*
X10734Y03984*
Y03975*
X10736Y03967*
X1074Y03959*
X10742Y03958*
Y03799*
X1074Y03798*
X10736Y0379*
X10734Y03781*
Y03773*
X10736Y03764*
X1074Y03756*
X10742Y03755*
Y03596*
X1074Y03595*
X10736Y03587*
X10734Y03579*
Y0357*
X10736Y03561*
X1074Y03554*
X10747Y03547*
X10754Y03543*
X10763Y03541*
X10772*
X1078Y03543*
X10788Y03547*
X10794Y03554*
X10799Y03561*
X10801Y0357*
Y03579*
X10799Y03587*
X10794Y03595*
X10793Y03596*
Y03755*
X10794Y03756*
X10799Y03764*
X10801Y03773*
Y03781*
X10799Y0379*
X10794Y03798*
X10793Y03799*
Y03958*
X10794Y03959*
X10799Y03967*
X10801Y03975*
Y03984*
X10799Y03993*
X10794Y04*
X10793Y04002*
Y04161*
X10794Y04162*
X10799Y0417*
X10801Y04178*
Y04187*
X10799Y04196*
X10794Y04203*
X10793Y04205*
Y04357*
X10794Y04359*
X10799Y04366*
X10801Y04375*
Y04384*
X10799Y04392*
X10794Y044*
X10793Y04401*
Y0456*
X10794Y04562*
X10799Y04569*
X10801Y04578*
Y04587*
X10799Y04595*
X10794Y04603*
X10793Y04604*
Y04806*
X10802Y04815*
X10811Y04818*
X1082Y04823*
X10827Y0483*
X10832Y04838*
X10834Y04848*
Y04858*
X10832Y04867*
X10827Y04876*
X10822Y0488*
Y0507*
X10827Y05075*
X10832Y05083*
X10834Y05093*
Y05103*
X10832Y05112*
X10827Y05121*
X10822Y05126*
Y05319*
X10827Y05324*
X10832Y05333*
X10834Y05342*
Y05352*
X10832Y05362*
X10827Y0537*
X1082Y05377*
X10811Y05382*
X10802Y05385*
G37*
%LNpcb1-3*%
%LPD*%
G36*
X10244Y05267D02*
X10253Y05262D01*
X10253Y05261*
Y05258*
X10253Y05257*
X10244Y05252*
X10238Y05245*
X101*
X10094Y05252*
X10085Y05257*
X10085Y05258*
Y05261*
X10085Y05262*
X10094Y05267*
X101Y05273*
X10238*
X10244Y05267*
G37*
G36*
Y05188D02*
X10249Y05186D01*
X10247Y05181*
X10229*
Y05167*
X10109*
Y05181*
X10091*
X10089Y05186*
X10094Y05188*
X101Y05194*
X10238*
X10244Y05188*
G37*
G36*
X0872Y0512D02*
X08712D01*
Y05055*
X08697*
Y0512*
X08629*
Y05041*
X08637*
Y05012*
X08635*
Y04939*
X08637*
Y04783*
X08561Y04706*
X08556Y04708*
Y04719*
X0861Y04773*
X08616Y04781*
X08618Y04791*
Y04794*
X08619Y04802*
Y04939*
X0863*
Y05018*
X08619*
Y05046*
X08623*
Y05115*
X08619*
Y05135*
X0872*
Y0512*
G37*
G36*
X10395Y04981D02*
X10403Y04976D01*
X10413Y04974*
X10461*
X10463Y04969*
X10462Y04968*
X10444Y04951*
X10439Y04942*
X10437Y04933*
Y04923*
X10432Y04922*
X10336Y05018*
X10332Y0502*
X10334Y05025*
X10351*
X10395Y04981*
G37*
G36*
X0881Y04999D02*
Y04994D01*
X08811Y04987*
X08815Y04981*
X0882Y04975*
X08822Y04974*
X08822Y04969*
X08817Y04964*
X08813Y04958*
X08812Y04951*
Y04944*
X08813Y04937*
X08817Y0493*
X08822Y04925*
X08827Y04922*
X08828Y04918*
X08828Y04917*
X08826Y04914*
X08822Y04908*
X0882Y04901*
Y04894*
X08822Y04887*
X08826Y0488*
X08828Y04878*
X08828Y04871*
X08828Y04871*
X08824Y04864*
X08822Y04857*
Y0485*
X08824Y04843*
X08828Y04837*
X08833Y04832*
X08833Y04832*
Y04826*
X08831Y04825*
X08826Y0482*
X08822Y04813*
X0882Y04806*
Y04799*
X08822Y04792*
X08826Y04786*
X08831Y04781*
X08837Y04777*
X08842Y04776*
Y04771*
X08837Y04769*
X08831Y04766*
X08826Y04761*
X08822Y04754*
X0882Y04747*
Y0474*
X08822Y04733*
X08826Y04727*
X08829Y04723*
X0883Y0472*
X08829Y04717*
X08826Y04713*
X08822Y04707*
X0882Y047*
Y04693*
X08822Y04686*
X08826Y04679*
X08831Y04674*
X08831Y04674*
X08831Y04668*
X08827Y04664*
X08823Y04658*
X08821Y04651*
Y04643*
X08823Y04636*
X08825Y04632*
X08823Y04627*
X08821*
X08814Y04626*
X08808Y04622*
X08803Y04617*
X08799Y04611*
X08797Y04604*
Y04596*
X08799Y04589*
X08803Y04583*
X08808Y04578*
X08809Y04578*
X08807Y04573*
X08789*
X0878Y04571*
X08771Y04565*
X08594Y04388*
X08588Y04379*
X08586Y0437*
Y04242*
X08552Y04208*
X08331*
X08321Y04206*
X08313Y04201*
X08295Y04183*
X0829Y04175*
X08288Y04165*
Y04158*
X08287Y04153*
X08225*
Y04223*
X0823Y04225*
X08231Y04224*
X08238Y0422*
X08247Y04218*
X08256*
X08265Y0422*
X08272Y04224*
X08278Y0423*
X08281Y04231*
X08284Y0423*
X0829Y04224*
X08297Y0422*
X08306Y04218*
X08315*
X08324Y0422*
X08331Y04224*
X08337Y0423*
X0834Y04231*
X08343Y0423*
X08349Y04224*
X08357Y0422*
X08365Y04218*
X08374*
X08383Y0422*
X0839Y04224*
X08396Y0423*
X08399Y04231*
X08402Y0423*
X08408Y04224*
X08416Y0422*
X08424Y04218*
X08433*
X08442Y0422*
X08449Y04224*
X08455Y0423*
X08458Y04231*
X08461Y0423*
X08467Y04224*
X08475Y0422*
X08483Y04218*
X08492*
X08501Y0422*
X08508Y04224*
X08515Y04231*
X08519Y04238*
X08521Y04247*
Y04256*
X08519Y04265*
X08515Y04272*
X08508Y04279*
X08501Y04283*
X08492Y04285*
X08483*
X08475Y04283*
X08467Y04279*
X08461Y04273*
X08458Y04272*
X08455Y04273*
X08449Y04279*
X08442Y04283*
X08433Y04285*
X08424*
X08416Y04283*
X08408Y04279*
X08402Y04273*
X08399Y04272*
X08396Y04273*
X0839Y04279*
X08383Y04283*
X08374Y04285*
X08365*
X08357Y04283*
X08349Y04279*
X08343Y04273*
X0834Y04272*
X08337Y04273*
X08331Y04279*
X08324Y04283*
X08315Y04285*
X08306*
X08297Y04283*
X0829Y04279*
X08284Y04273*
X08281Y04272*
X08278Y04273*
X08272Y04279*
X08265Y04283*
X08256Y04285*
X08247*
X08238Y04283*
X08231Y04279*
X0823Y04278*
X08225Y04279*
Y04294*
X08236Y04305*
X08381*
X08391Y04307*
X08399Y04312*
X08435Y04348*
X0844Y04356*
X08442Y04366*
Y04402*
X08443Y04402*
X08445Y04409*
Y04417*
X08443Y04424*
X0844Y04428*
X08443Y04433*
X08498*
X08507Y04435*
X08516Y0444*
X0855Y04475*
X08556Y04483*
X08557Y04493*
Y04571*
X08693Y04706*
X08693Y04706*
X08696Y04708*
X08733*
Y04699*
X08812*
Y04723*
X08812Y04724*
X08814Y04734*
X08812Y04744*
X08812Y04744*
Y04774*
X08733*
Y04759*
X0869*
X08689Y04761*
X08687Y04764*
X08687Y04764*
X08688Y04773*
Y04939*
X08698*
Y05004*
X08804*
X08806Y05004*
X0881Y04999*
G37*
G36*
X09962Y04666D02*
X09961Y04665D01*
X09959Y04658*
Y0465*
X09961Y04643*
X09964Y04637*
X09965Y04636*
X09963Y04631*
X09963*
X09956Y04629*
X0995Y04625*
X09945Y0462*
X09941Y04614*
X0994Y04609*
X09934Y04611*
X09927*
X0992Y04609*
X09913Y04605*
X09908Y046*
X09908Y046*
X09903Y04602*
Y04634*
X09902Y0464*
X09899Y04645*
X09898Y04646*
X099Y04651*
X099*
X09906Y04652*
X09911Y04655*
X09927Y04671*
X09959*
X09962Y04666*
G37*
G36*
X09752Y0453D02*
X09753Y04524D01*
X09757Y04518*
X09761Y04514*
X09762Y04509*
X09762Y04507*
X09744Y0449*
X09738Y04482*
X09736Y04472*
Y04433*
X09728*
Y04415*
X09673*
X09671Y0442*
X09675Y04426*
X09677Y04436*
Y0447*
X09705*
Y0452*
X0971Y04523*
X09713Y04521*
X0972Y04519*
X09728*
X09735Y04521*
X09741Y04525*
X09746Y0453*
X09747Y04531*
X09748Y04531*
X09752Y0453*
G37*
G36*
X08506Y04574D02*
Y04503D01*
X08487Y04484*
X08445*
X08442Y04489*
X08443Y0449*
X08445Y04497*
Y04504*
X08443Y04511*
X08442Y04512*
Y04516*
X08502Y04576*
X08506Y04574*
G37*
G36*
X10444Y04536D02*
X10446Y04526D01*
X10451Y04518*
X1048Y04489*
X10488Y04484*
X10498Y04482*
X10512*
Y04476*
X1049*
X1048Y04474*
X10471Y04468*
X10458Y04455*
X10432*
Y04539*
X10444*
Y04536*
G37*
G36*
X10208Y04469D02*
X10237D01*
X10238Y04468*
Y0438*
X10236*
Y04377*
X10222*
Y0438*
X10186*
Y04345*
X10222*
Y04347*
X10236*
Y04323*
X10271*
X10272Y04318*
Y04296*
X10238*
Y04271*
X10222*
Y04274*
X10186*
Y04271*
X10139*
X10137Y04273*
Y0437*
X10169Y04402*
X10173Y04407*
X10174Y04413*
Y04469*
X10208*
X10208Y04469*
G37*
G36*
X10292Y04494D02*
Y04353D01*
X10291Y04352*
X10287Y04351*
X10283Y04354*
X10277Y04355*
X10271*
Y0438*
X10269*
Y04474*
X10268Y0448*
X10264Y04485*
X10254Y04495*
X10249Y04498*
X10246Y04499*
X10245Y04503*
X10242Y04507*
X10238Y0451*
X10234Y04511*
X1018*
X10178Y04515*
X10181Y04519*
X10234*
X10238Y0452*
X10242Y04522*
X10245Y04526*
X10246Y04531*
Y04534*
X10251Y04536*
X10292Y04494*
G37*
G36*
X0949Y04342D02*
X0949Y04341D01*
X09488Y04334*
Y04327*
X0949Y0432*
X09493Y04313*
X09498Y04308*
X09505Y04305*
X09506Y04304*
X09506Y04299*
X09263*
X09261Y04304*
X09283Y04325*
X09288Y04334*
X0929Y04343*
Y04378*
X0949*
Y04342*
G37*
G36*
X10133Y04241D02*
X10186D01*
Y04239*
X10222*
Y04241*
X10238*
Y04239*
X10272*
Y04216*
X10238*
Y04191*
X10224*
Y04194*
X10188*
Y04191*
X10172*
X10126Y04237*
X10129Y04242*
X10133Y04241*
G37*
G36*
X08877Y04469D02*
X08983D01*
X08986*
X08988Y04465*
Y04383*
X08964*
X08954Y04381*
X08946Y04376*
X08844Y04273*
X08838Y04265*
X08836Y04255*
Y04177*
X08784Y04125*
X08774*
Y04148*
X08691*
Y04042*
X0871*
Y0399*
X08708Y03988*
X08649*
Y03993*
X08574*
Y03933*
X08649*
Y03937*
X08718*
X08728Y03939*
X08736Y03944*
X08754Y03962*
X08759Y0397*
X08761Y0398*
Y04042*
X08774*
Y04074*
X08795*
X08805Y04076*
X08813Y04082*
X08856Y04125*
X0886Y04123*
Y04034*
X08876*
Y03851*
X0885Y03825*
X08655*
Y03829*
X0858*
Y0377*
X08655*
Y03774*
X08691*
Y0368*
X0871*
Y03669*
X08695*
Y03597*
Y03595*
Y03592*
Y0359*
Y03577*
X08668*
Y03582*
X08601*
Y03521*
X08416*
X08365Y03571*
Y03607*
X0837Y03608*
X0837Y03607*
X08374Y03602*
X08404Y03571*
X08409Y03568*
X08415Y03567*
X08427*
X08432Y03558*
X0844Y03551*
X08449Y03545*
X08459Y03543*
X08469*
X08479Y03545*
X08488Y03551*
X08496Y03558*
X08501Y03567*
X08504Y03577*
Y03587*
X08501Y03597*
X08496Y03606*
X08488Y03614*
X08484Y03616*
X08485Y03621*
X08504*
Y037*
X08446*
X0843Y03716*
Y03982*
X08432Y03983*
X08437Y03988*
X08441Y03995*
X08442Y04002*
Y04009*
X08441Y04016*
X08437Y04022*
X08432Y04027*
X08425Y04031*
X08418Y04033*
X08411*
X08404Y04031*
X08398Y04027*
X08393Y04022*
X08389Y04016*
X08387Y04009*
Y04002*
X08389Y03995*
X08393Y03988*
X08393Y03988*
X08393Y03987*
X08387Y03983*
X08386Y03984*
X08379*
X08372Y03982*
X0837Y03981*
X08365Y03984*
Y04012*
X08363Y04021*
X08358Y0403*
X08318Y0407*
X08309Y04075*
X083Y04077*
X08228*
X08225Y0408*
Y04088*
X08287*
Y04094*
X08292Y04096*
X08293Y04094*
X08301Y0409*
X08309Y04088*
X08318*
X08326Y0409*
X08333Y04094*
X0834Y04101*
X0834Y04102*
X08345*
X08346Y04101*
X08347Y041*
X08349Y04091*
X08354Y04083*
X08389Y04048*
X08397Y04043*
X08407Y04041*
X08452*
X08462Y04043*
X0847Y04048*
X08487Y04066*
X08499*
Y04005*
X08567*
Y04012*
X08574*
Y04008*
X08649*
Y04068*
X08574*
Y04063*
X08567*
Y04072*
X08564*
X08562Y04077*
X0867Y04185*
X08675Y04193*
X08677Y04203*
Y0434*
X08809Y04472*
X08877*
Y04469*
G37*
G36*
X08566Y04153D02*
X08529Y04117D01*
X08477*
X08467Y04115*
X08459Y04109*
X08442Y04092*
X08418*
X08402Y04107*
X08403Y04108*
X08405Y04116*
Y04125*
X08403Y04133*
X08399Y04141*
X08393Y04147*
X08385Y04151*
X08381Y04152*
X08382Y04157*
X08562*
X08563Y04157*
X08566Y04153*
G37*
G36*
X09053Y04284D02*
X09009Y0424D01*
X09004Y04232*
X09002Y04222*
Y04183*
X09004Y04173*
X09009Y04165*
X09026Y04148*
Y04103*
X09026Y04101*
Y04033*
X09042*
Y03935*
X09038Y03934*
X09037Y03934*
X09032Y03939*
X09026Y03943*
X09019Y03944*
X09012*
X09005Y03943*
X08998Y03939*
X08993Y03934*
X0899Y03927*
X08988Y0392*
Y03913*
X0899Y03906*
X08993Y039*
X08998Y03895*
Y03889*
X08983Y03875*
X08981Y03875*
X08974*
X08967Y03874*
X08961Y0387*
X08956Y03865*
X08952Y03859*
X0895Y03852*
Y03844*
X08952Y03837*
X08956Y03831*
X08961Y03826*
X08967Y03822*
X08974Y0382*
X08981*
X08988Y03822*
X08995Y03826*
X09Y03831*
X09004Y03837*
X09005Y03844*
Y03852*
X09005Y03853*
X09024Y03872*
X09027Y03877*
X09028Y03883*
Y03893*
X09032Y03895*
X09037Y039*
X09038Y039*
X09042Y03898*
Y03862*
X08959Y03778*
X08953Y0377*
X08951Y0376*
Y03632*
X0894*
X08936Y03636*
X08929Y03639*
X08929Y03639*
X08927Y03641*
Y03672*
X08943*
Y03779*
X08883*
X08881Y03784*
X0892Y03823*
X08925Y03831*
X08927Y03841*
Y04034*
X08943*
Y0414*
X08927*
Y04216*
X09Y04289*
X09051*
X09053Y04284*
G37*
%LNpcb1-4*%
%LPC*%
G36*
X08694Y04584D02*
X08687D01*
X0868Y04582*
X08679Y04582*
X08603*
X08603Y04582*
X08596Y04584*
X08588*
X08581Y04582*
X08575Y04579*
X0857Y04574*
X08566Y04567*
X08564Y0456*
Y04553*
X08566Y04546*
X0857Y0454*
X08575Y04535*
X08581Y04531*
X08588Y04529*
X08596*
X08603Y04531*
X08603Y04531*
X08679*
X0868Y04531*
X08687Y04529*
X08694*
X08701Y04531*
X08707Y04535*
X08712Y0454*
X08716Y04546*
X08718Y04553*
Y0456*
X08716Y04567*
X08712Y04574*
X08707Y04579*
X08701Y04582*
X08694Y04584*
G37*
G36*
X08566Y03909D02*
X08498D01*
Y03841*
X08566*
Y03849*
X0858*
Y03845*
X08655*
Y03904*
X0858*
Y039*
X08566*
Y03909*
G37*
G36*
X08581Y03716D02*
X08574D01*
X08567Y03714*
X08561Y03711*
X08555Y03705*
X08552Y03699*
X0855Y03692*
Y03685*
X08552Y03678*
X08555Y03672*
X08561Y03666*
X08567Y03663*
X08574Y03661*
X08581*
X08588Y03663*
X08588Y03663*
X08601*
Y03598*
X08668*
Y03665*
X08659*
Y03667*
X08657Y03677*
X08651Y03685*
X0863Y03707*
X08621Y03712*
X08612Y03714*
X08588*
X08588Y03714*
X08581Y03716*
G37*
%LNpcb1-5*%
%LPD*%
G36*
X11224Y04874D02*
Y04295D01*
X11219Y04293*
X11216Y04297*
Y04873*
X11217Y04874*
X11219Y04876*
X11224Y04874*
G37*
G36*
X11089Y04093D02*
X11158D01*
X11161Y04089*
X1116Y04087*
Y0408*
X11159Y04078*
X11141*
X11139Y04079*
X11136Y04078*
X11089*
Y04061*
X1106*
X11059Y04061*
X11054*
X11047Y04059*
X1104Y04055*
X11035Y0405*
X11034Y04048*
X11029Y04049*
Y04102*
X11089*
Y04093*
G37*
G54D16*
X10424Y04575D02*
X10455D01*
X10463Y04568*
X10381Y04618D02*
X10424Y04575D01*
X09836Y0474D02*
X10042D01*
X10116Y04666*
Y04452D02*
Y04666D01*
X10066Y0479D02*
X10158Y04881D01*
X10303*
X09836Y0479D02*
X10066D01*
X09836Y0484D02*
X10076D01*
X10145Y04909*
X10403Y03804D02*
Y03956D01*
Y03804D02*
X10451Y03755D01*
X10413Y03582D02*
Y03751D01*
X10377Y03787D02*
X10413Y03751D01*
X10377Y03787D02*
Y03933D01*
X10356Y04717D02*
Y04829D01*
X10303Y04881D02*
X10356Y04829D01*
X10381Y04727D02*
Y04846D01*
X10145Y04909D02*
X10318D01*
X10381Y04846*
X1003Y04709D02*
X1009Y04649D01*
X09911Y04709D02*
X1003D01*
X09892Y0469D02*
X09911Y04709D01*
X09836Y0469D02*
X09892D01*
X10077Y04396D02*
X10116Y04435D01*
Y04452*
X10077Y03803D02*
Y04396D01*
X1009Y04452D02*
Y04649D01*
X10044Y04406D02*
X1009Y04452D01*
X10044Y03919D02*
Y04406D01*
X10029Y03904D02*
X10044Y03919D01*
X10029Y03893D02*
Y03904D01*
X10381Y04727D02*
X10381Y04727D01*
X1033Y04593D02*
Y04706D01*
X1033Y04706D02*
X1033Y04706D01*
X10356Y04717D02*
X10356Y04716D01*
Y04604D02*
Y04716D01*
X1033Y04706D02*
Y04763D01*
X10381Y04618D02*
Y04727D01*
X10303Y0479D02*
X1033Y04763D01*
X1025Y04562D02*
X10311Y04501D01*
X10356Y04604D02*
X10414Y04546D01*
X10304Y04583D02*
X10362Y04525D01*
X10202Y0469D02*
X10269D01*
X10259Y0474D02*
X10304Y04695D01*
X10202Y0464D02*
X10205Y04637D01*
X1025Y04562D02*
Y04615D01*
X1033Y04593D02*
X10388Y04535D01*
X10278Y04572D02*
Y04681D01*
X10205Y04637D02*
X10228D01*
X1025Y04615*
X10304Y04583D02*
Y04695D01*
X10269Y0469D02*
X10278Y04681D01*
Y04572D02*
X10336Y04514D01*
X10413Y03582D02*
X10431Y03564D01*
X10388Y04243D02*
X10458Y04173D01*
X10336Y04023D02*
Y04514D01*
X10414Y04403D02*
Y04546D01*
Y04403D02*
X10448Y04369D01*
X10311Y04D02*
X10377Y03933D01*
X10311Y04D02*
Y04501D01*
X10362Y04061D02*
X10458Y03965D01*
X10336Y04023D02*
X10403Y03956D01*
X10388Y04243D02*
Y04535D01*
X10362Y04061D02*
Y04525D01*
X10029Y03755D02*
X10077Y03803D01*
X10029Y03631D02*
Y03755D01*
X10431Y03564D02*
X10466D01*
X10448Y04369D02*
X10456D01*
X10458Y03965D02*
X10466D01*
X10202Y0474D02*
X10259D01*
X10458Y04173D02*
X10466D01*
X10202Y0479D02*
X10303D01*
G54D17*
X09655Y04794D02*
X09721D01*
X09651Y04798D02*
X09655Y04794D01*
X08385Y03612D02*
Y03954D01*
X08415Y0371D02*
X08464Y03661D01*
X08382Y03956D02*
X08385Y03954D01*
X08415Y0371D02*
Y04005D01*
X09582Y04107D02*
X09638Y04051D01*
X09582Y04107D02*
Y04196D01*
X09638Y04051D02*
X0978D01*
X09999Y04182D02*
Y04617D01*
X09931Y04114D02*
X09999Y04182D01*
X09881Y04409D02*
X09888Y04416D01*
X0993Y04583D02*
X09953Y0456D01*
X09921Y04191D02*
Y04539D01*
X09903Y04115D02*
X09973Y04186D01*
X09953Y04195D02*
Y0456D01*
X09967Y04575D02*
X09973Y04569D01*
X09888Y04416D02*
Y04634D01*
X09881Y04124D02*
X09953Y04195D01*
X09973Y04186D02*
Y04569D01*
X08385Y03612D02*
X08415Y03582D01*
X08825Y046D02*
X08825Y04599D01*
X08929*
X08849Y04645D02*
X0893D01*
X09931Y03893D02*
Y04114D01*
X09903Y04034D02*
Y04115D01*
X09734Y03893D02*
X09881Y04041D01*
Y04124*
X09832Y03963D02*
X09903Y04034D01*
X11329Y04022D02*
Y04201D01*
X1131Y04003D02*
X11329Y04022D01*
X11309Y0403D02*
Y04182D01*
X1129Y04012D02*
X11309Y0403D01*
X1129Y03779D02*
Y04012D01*
X11259Y03719D02*
X1131Y0377D01*
Y04003*
X11179Y03667D02*
X1129Y03779D01*
X112Y04291D02*
X11309Y04182D01*
X11092Y05206D02*
X11093D01*
X11107Y05192D02*
X11226D01*
X11093Y05206D02*
X11107Y05192D01*
X10173Y0422D02*
X10198D01*
X10204Y042D02*
Y04214D01*
X10206Y04176D02*
X10255D01*
X10198Y0422D02*
X10204Y04214D01*
Y042D02*
X10206Y04198D01*
X10165Y04176D02*
X10206D01*
X0999Y04626D02*
X09999Y04617D01*
X09986Y04654D02*
X0999Y04651D01*
Y04626D02*
Y04651D01*
X112Y04291D02*
Y04896D01*
X11226Y05192D02*
X11242Y05208D01*
X11246*
X11279Y05188D02*
Y05236D01*
X10895Y05239D02*
X11D01*
X11251Y05161D02*
X11279Y05188D01*
X11077Y05161D02*
X11251D01*
X11Y05239D02*
X11077Y05161D01*
X10203Y04841D02*
X10282D01*
X10202Y0484D02*
X10203Y04841D01*
X10282D02*
X10283Y04842D01*
X09967Y04575D02*
Y04603D01*
X09967Y04603D02*
X09967Y04603D01*
X099Y04666D02*
X09921Y04686D01*
X10009D02*
X10055Y04641D01*
X09921Y04686D02*
X10009D01*
X09786Y04666D02*
X099D01*
X10055Y04543D02*
Y04641D01*
X10159Y04413D02*
Y04519D01*
X10133Y04256D02*
X10255D01*
X10122Y04376D02*
X10159Y04413D01*
X10122Y04267D02*
Y04376D01*
X10139Y04425D02*
Y04568D01*
X10102Y04388D02*
X10139Y04425D01*
X10102Y0424D02*
Y04388D01*
X10122Y04267D02*
X10133Y04256D01*
X10253Y04362D02*
Y04474D01*
X10243Y04484D02*
X10253Y04474D01*
X10288Y0402D02*
Y04329D01*
X08335Y04887D02*
Y05028D01*
X08333Y04884D02*
X08335Y04887D01*
Y05028D02*
X08503Y05196D01*
X1124Y04291D02*
X11329Y04201D01*
X11259Y03629D02*
Y03719D01*
X11218Y03588D02*
X11259Y03629D01*
X0986Y04409D02*
X09881D01*
X09845Y04393D02*
X0986Y04409D01*
X09836Y0464D02*
X09882D01*
X09888Y04634*
X10139Y04568D02*
X10157Y04586D01*
X10102Y0424D02*
X10165Y04176D01*
X10159Y04519D02*
X1018Y0454D01*
X10157Y04586D02*
X10199D01*
X10202Y0459*
X0978Y04051D02*
X09921Y04191D01*
X10149Y04952D02*
X10295D01*
X10098Y04901D02*
X10149Y04952D01*
X09976Y04901D02*
X10098D01*
X09653Y04996D02*
X09724D01*
X09651Y04998D02*
X09653Y04996D01*
X1124Y04291D02*
Y04917D01*
X11188Y04968D02*
X1124Y04917D01*
X11129Y04968D02*
X11188D01*
X09651Y04948D02*
X09654Y04944D01*
X09724*
X10277Y0434D02*
X10288Y04329D01*
X10253Y0434D02*
X10277D01*
X10206Y03938D02*
X10288Y0402D01*
X10206Y03838D02*
Y03938D01*
X10255Y04278D02*
X10287D01*
X10255Y04198D02*
X10287D01*
X1018Y0454D02*
X10202D01*
X09786Y04666D02*
Y04715D01*
Y04617D02*
Y04666D01*
X09779Y04535D02*
X09781Y04537D01*
X09834D02*
X09836Y0454D01*
X09781Y04537D02*
X09834D01*
X09756Y04557D02*
Y04682D01*
Y04557D02*
X09779Y04535D01*
X09651Y04598D02*
X09724D01*
X11179Y03588D02*
X11218D01*
X10204Y04362D02*
X10253D01*
X10208Y04484D02*
X10243D01*
X10202Y0449D02*
X10208Y04484D01*
X08928Y04744D02*
X08932Y04747D01*
X08848Y04744D02*
X08928D01*
X08931Y04696D02*
X08932Y04697D01*
X08862Y04696D02*
X08931D01*
X0893Y04645D02*
X08932Y04647D01*
X08929Y04599D02*
X08932Y04597D01*
X09651Y04698D02*
X09652Y04696D01*
X08926Y04803D02*
X08932Y04797D01*
X08858Y04803D02*
X08926D01*
X09724Y04724D02*
X09777D01*
X09753Y04685D02*
X09756Y04682D01*
X09786Y04617D02*
X09813Y0459D01*
X09777Y04724D02*
X09786Y04715D01*
X09653Y04649D02*
X09724D01*
X09651Y04648D02*
X09653Y04649D01*
X09813Y0459D02*
X09836D01*
X08415Y03582D02*
X08464D01*
X08978Y03848D02*
X09013Y03883D01*
Y03915D02*
X09015Y03917D01*
X09013Y03883D02*
Y03915D01*
X09832Y03893D02*
Y03963D01*
X09652Y04547D02*
X09724D01*
X09651Y04548D02*
X09652Y04547D01*
X09651Y04598D02*
X09651Y04598D01*
X09653Y04846D02*
X09724D01*
X09651Y04848D02*
X09653Y04846D01*
X09651Y04898D02*
X09651Y04897D01*
X09724*
X08862Y04846D02*
X0893D01*
X08932Y04847*
X08862Y04897D02*
X08932D01*
G54D20*
X09287Y04899D03*
X09232D03*
X09177D03*
X09287Y04788D03*
X09232D03*
X09177D03*
X09287Y04844D03*
X09177D03*
X09232D03*
G54D21*
X09566Y04433D03*
X09516D03*
X09466D03*
X09416D03*
X09366D03*
X09316D03*
X09266D03*
X09216D03*
X09166D03*
X09116D03*
X09066D03*
X09016D03*
G54D22*
X09651Y05148D03*
Y04498D03*
Y04548D03*
Y04598D03*
Y04648D03*
Y04698D03*
Y04748D03*
Y04798D03*
Y04848D03*
Y04898D03*
Y04948D03*
Y04998D03*
Y05048D03*
Y05098D03*
X08932Y04997D03*
Y04947D03*
Y04897D03*
Y04847D03*
Y04797D03*
Y04747D03*
Y04697D03*
Y04647D03*
Y04597D03*
Y04547D03*
Y04497D03*
Y05047D03*
Y05097D03*
Y05147D03*
G54D23*
X08515Y0508D03*
X08594D03*
G54D24*
X10548Y04368D03*
Y0445D03*
X09477Y03619D03*
Y03701D03*
Y0386D03*
Y03942D03*
X10548Y0457D03*
Y04653D03*
X10558Y04171D03*
Y04253D03*
Y03968D03*
Y04051D03*
Y03765D03*
Y03848D03*
Y03562D03*
Y03645D03*
X10549Y04892D03*
Y04809D03*
X10551Y05139D03*
Y05057D03*
Y05385D03*
Y05303D03*
G54D25*
X10462Y04365D03*
Y04426D03*
Y04568D03*
Y04629D03*
X10472Y04168D03*
Y04229D03*
Y03965D03*
Y04026D03*
Y0375D03*
Y03811D03*
Y0356D03*
Y03621D03*
X10462Y04881D03*
Y0482D03*
Y05126D03*
Y05065D03*
Y05376D03*
Y05315D03*
G54D26*
X1125Y04127D03*
Y04044D03*
X11128Y04127D03*
Y04044D03*
G54D27*
X09762Y04393D03*
X09845D03*
X08746Y0508D03*
X08663D03*
G54D28*
X10253Y0434D03*
Y04362D03*
X10255Y04278D03*
Y04256D03*
Y04198D03*
Y04176D03*
X10204Y04362D03*
Y0434D03*
Y04256D03*
Y04279D03*
X10206Y04176D03*
Y04198D03*
G54D29*
X09915Y04914D03*
X09832D03*
X08167Y04937D03*
X0825D03*
X08271Y03972D03*
X08188D03*
X11467Y0396D03*
X11384D03*
X11388Y04935D03*
X11471D03*
G54D30*
X09068Y03725D03*
X08902Y04087D03*
X08733Y04095D03*
X09237Y03729D03*
G54D31*
X09068Y04087D03*
X08902Y03725D03*
X08733Y03733D03*
X09237Y0409D03*
G54D32*
X09916Y05002D03*
X09855D03*
G54D33*
X08087Y04606D03*
X07975D03*
X08087Y0473D03*
X07975D03*
G54D34*
X08169Y05025D03*
X08246D03*
X08266Y0388D03*
X08189D03*
X11461Y03872D03*
X11384D03*
X11396Y05022D03*
X11473D03*
G54D35*
X09404Y0361D03*
Y03702D03*
Y03852D03*
Y03944D03*
G54D36*
X08736Y03555D03*
Y03632D03*
G54D37*
X08634Y03549D03*
Y03631D03*
X08532Y03875D03*
Y03792D03*
X08533Y04039D03*
Y03956D03*
G54D38*
X08772Y04737D03*
X08517D03*
X09347Y04016D03*
Y0409D03*
G54D39*
X08047Y04267D03*
X07975D03*
G54D40*
X08667Y04976D03*
X08722D03*
G54D41*
X08592Y04979D03*
X08517D03*
X09052Y03592D03*
X08977D03*
G54D42*
X08047Y04355D03*
X07965D03*
X11003Y04582D03*
Y03777D03*
Y04183D03*
Y03574D03*
Y04379D03*
Y0398D03*
X08362Y0474D03*
Y04572D03*
X08361Y04403D03*
X09498Y04222D03*
G54D43*
X10295Y03838D03*
Y0369D03*
X10295Y0354D03*
G54D44*
X09836Y0484D03*
Y0479D03*
Y0474D03*
Y0469D03*
Y0464D03*
Y0459D03*
Y0454D03*
Y0449D03*
X10202Y0484D03*
Y0479D03*
Y0474D03*
Y0469D03*
Y0464D03*
Y0459D03*
Y0454D03*
Y0449D03*
G54D45*
X08618Y038D03*
Y03875D03*
X08612Y03963D03*
Y04038D03*
G54D63*
X10688Y04582D03*
X10767D03*
X10846D03*
X10925D03*
X10688Y03777D03*
X10767D03*
X10846D03*
X10925D03*
X10688Y04183D03*
X10767D03*
X10846D03*
X10925D03*
X10688Y03574D03*
X10767D03*
X10846D03*
X10925D03*
X10688Y04379D03*
X10767D03*
X10846D03*
X10925D03*
X10688Y0398D03*
X10767D03*
X10846D03*
X10925D03*
X08244Y0474D03*
X08303D03*
X08244Y04572D03*
X08303D03*
X08243Y04403D03*
X08302D03*
X09104Y04222D03*
X09183D03*
X09261D03*
X0934D03*
X09419D03*
G54D68*
X10127Y03893D03*
X10029D03*
X09931D03*
X09832D03*
X09734D03*
X10127Y03631D03*
X10029D03*
X09931D03*
X09832D03*
X09734D03*
X10797Y05347D03*
X10895D03*
X10994D03*
X10797Y05098D03*
X10895D03*
X10994D03*
X10797Y04853D03*
X10895D03*
X10994D03*
X0797Y05098D03*
Y05196D03*
Y05295D03*
X08031Y03799D03*
Y037D03*
Y03602D03*
X11655Y03799D03*
Y037D03*
Y03602D03*
X11624Y05098D03*
Y05196D03*
Y05295D03*
G54D69*
X09635Y03893D03*
Y03631D03*
X10698Y05347D03*
Y05098D03*
Y04853D03*
G54D72*
X08432Y04121D03*
X08373D03*
X08313D03*
G54D73*
X08254Y04121D03*
G54D75*
X0797Y05D03*
X08031Y03897D03*
X11655D03*
X11624Y05D03*
G54D78*
X09092Y04743D02*
Y04794D01*
Y04743D02*
X09166Y04669D01*
X09045Y04734D02*
Y04793D01*
Y04734D02*
X09116Y04663D01*
X1106Y04036D02*
X11121D01*
X11057Y04033D02*
X1106Y04036D01*
X11121D02*
X11139Y04053D01*
X11243D02*
X11251Y04044D01*
X11205Y04083D02*
X11235Y04053D01*
X11187Y04083D02*
X11205D01*
X11235Y04053D02*
X11243D01*
X09316Y04542D02*
X09316Y04542D01*
X09316Y04433D02*
Y04542D01*
X0854Y04091D02*
X08652Y04203D01*
X08452Y04066D02*
X08477Y04091D01*
X0854*
X0834Y03561D02*
Y04012D01*
Y03561D02*
X08405Y03495D01*
X083Y04052D02*
X0834Y04012D01*
X08861Y038D02*
X08902Y03841D01*
X08623Y038D02*
X08861D01*
X08619Y03962D02*
X08718D01*
X08736Y0398D02*
Y04087D01*
X08718Y03962D02*
X08736Y0398D01*
X08407Y04066D02*
X08452D01*
X08135Y05335D02*
X08184Y05383D01*
X0797Y05098D02*
X08135Y05263D01*
X07977Y05196D02*
X08095Y05315D01*
Y05373*
X08135Y05263D02*
Y05335D01*
X08095Y05373D02*
X08146Y05423D01*
X08184Y05383D02*
X08616D01*
X08146Y05423D02*
X0867D01*
X08658Y05285D02*
Y05342D01*
X08616Y05383D02*
X08658Y05342D01*
X08532Y04493D02*
Y04582D01*
X08683Y04732*
X08663Y04773D02*
Y05029D01*
X08682Y04734D02*
X08789D01*
X08417Y04527D02*
X08663Y04773D01*
X09466Y04433D02*
Y0457D01*
X09466Y0457*
X09416Y04569D02*
X09417Y0457D01*
X09416Y04433D02*
Y04569D01*
X09366Y04433D02*
Y04564D01*
X09365Y04565D02*
X09366Y04564D01*
X11515Y04043D02*
X11539Y04019D01*
Y03897D02*
Y04019D01*
X11519Y03877D02*
X11539Y03897D01*
X11467Y03877D02*
X11519D01*
X11405Y04043D02*
X11515D01*
X11053Y04763D02*
X1107Y04781D01*
X11043Y04763D02*
X11053D01*
X1107Y04781D02*
Y05015D01*
X11362Y04086D02*
Y04197D01*
X1147Y0369D02*
Y03875D01*
X11381Y03653D02*
X11433D01*
X11003Y0398D02*
Y04114D01*
Y03777D02*
Y0398D01*
Y03574D02*
Y03777D01*
X09184Y0353D02*
Y03665D01*
X09149Y03495D02*
X09184Y0353D01*
X09433Y03756D02*
X09618D01*
X09635Y03774D02*
Y03893D01*
X09618Y03756D02*
X09635Y03774D01*
X09404Y03785D02*
X09433Y03756D01*
X09404Y03785D02*
Y03852D01*
X09405Y03943D02*
X09476D01*
X09404Y03944D02*
X09405Y03943D01*
X09476D02*
X09477Y03942D01*
X09413Y03598D02*
X09438Y03572D01*
X09576*
X09404Y03697D02*
X09467D01*
X08634Y03549D02*
X08638Y03552D01*
X08733*
X08736Y03555*
X08633Y03632D02*
Y03667D01*
Y03632D02*
X08634Y03631D01*
X08577Y03688D02*
X08612D01*
X08633Y03667*
X1049Y04653D02*
X10548D01*
X10468Y04629D02*
X10472Y04633D01*
X10462Y04629D02*
X10468D01*
X10472Y04635D02*
X1049Y04653D01*
X10472Y04633D02*
Y04635D01*
X1049Y0445D02*
X10548D01*
X10468Y04426D02*
X10472Y0443D01*
X10462Y04426D02*
X10468D01*
X10472Y04433D02*
X1049Y0445D01*
X10472Y0443D02*
Y04433D01*
X10472Y03738D02*
Y0375D01*
X10499Y04253D02*
X10558D01*
X10478Y04229D02*
X10482Y04233D01*
X10472Y04229D02*
X10478D01*
X10482Y04236D02*
X10499Y04253D01*
X10482Y04233D02*
Y04236D01*
X10499Y04051D02*
X10558D01*
X10478Y04026D02*
X10482Y0403D01*
X10472Y04026D02*
X10478D01*
X10482Y04033D02*
X10499Y04051D01*
X10482Y0403D02*
Y04033D01*
X10499Y03848D02*
X10558D01*
X10478Y03824D02*
X10482Y03827D01*
X10472Y03824D02*
X10478D01*
X10482Y0383D02*
X10499Y03848D01*
X10482Y03827D02*
Y0383D01*
Y03625D02*
Y03628D01*
X10499Y03645*
X10472Y03621D02*
X10478D01*
X10482Y03625*
X10499Y03645D02*
X10558D01*
X10479Y04809D02*
X10549D01*
X10462Y0482D02*
X10468D01*
X10479Y04809*
X10466Y05062D02*
X1048D01*
X10485Y05057*
X10551*
X10462Y05065D02*
X10466Y05062D01*
X10468Y05315D02*
X1048Y05303D01*
X10551*
X10462Y05315D02*
X10468D01*
X08663Y05029D02*
Y0508D01*
X08804Y05029D02*
X08822Y05047D01*
X08663Y05029D02*
X08804D01*
X08744Y05161D02*
X08766D01*
X08594D02*
X08744D01*
X08746Y05158*
Y0508D02*
Y05158D01*
X11362Y04197D02*
Y04358D01*
X11572Y04197D02*
X11651Y04119D01*
X11362Y04197D02*
X11572D01*
X08246Y04948D02*
Y05025D01*
X08245Y04948D02*
X08246D01*
X08246Y04948*
X08217Y04052D02*
X083D01*
X082Y04069D02*
Y04304D01*
Y04069D02*
X08217Y04052D01*
X082Y04304D02*
X08226Y0433D01*
X08381*
X08184Y03973D02*
X08189Y03967D01*
Y0388D02*
Y03967D01*
X08208Y03809D02*
X08231D01*
X08244Y03821*
X0811Y03789D02*
Y04188D01*
X08244Y03821D02*
Y03863D01*
X08249Y03868*
X08188Y0374D02*
Y03789D01*
X08208Y03809*
X0811Y03789D02*
X08159Y0374D01*
X11384Y03872D02*
Y0396D01*
X08542Y04038D02*
X08587D01*
X08373Y04101D02*
X08407Y04066D01*
X08373Y04101D02*
Y04121D01*
X0837Y04124D02*
X08373Y04121D01*
X11003Y04114D02*
X11017Y04127D01*
X11003Y04114D02*
Y04582D01*
X11017Y04127D02*
X1125D01*
X0978Y0449D02*
X09836D01*
X09762Y04393D02*
Y04472D01*
X0978Y0449*
X09665Y04385D02*
Y04389D01*
X09758*
X09762Y04393*
X08594Y05098D02*
Y05161D01*
Y05224*
X08405Y03495D02*
X09149D01*
X07973Y04608D02*
Y04997D01*
Y04608D02*
X07975Y04606D01*
X0797Y05D02*
X07973Y04997D01*
X09832Y04974D02*
X09853Y04994D01*
X09832Y04914D02*
Y04974D01*
X09853Y04994D02*
Y05D01*
X09918Y05102D02*
X09924Y05109D01*
X09914Y05D02*
X09918Y05004D01*
Y05102*
X08001Y04458D02*
X0811D01*
X10846Y03776D02*
Y03977D01*
Y03574D02*
Y03776D01*
Y03977D02*
Y04179D01*
X1007Y05299D02*
X10268D01*
X09983D02*
X1007D01*
X09973Y05309D02*
X09983Y05299D01*
X09924Y05309D02*
X09973D01*
X08047Y04268D02*
Y04355D01*
X09467Y03697D02*
X09468Y03696D01*
Y03702D02*
X0947Y037D01*
X11469Y0495D02*
Y05011D01*
X08532Y03875D02*
X08617D01*
X08531Y03874D02*
X08532Y03875D01*
X08617D02*
X08618Y03876D01*
X08837Y04997D02*
X08932D01*
X08837Y04998D02*
X08837Y04997D01*
X08839Y04947D02*
X08839Y04947D01*
X08932*
X08087Y04784D02*
X08122Y04818D01*
X09515Y0433D02*
X09516Y04331D01*
Y04433*
X09566Y04335D02*
Y04433D01*
Y04335D02*
X09566Y04334D01*
X11354Y04578D02*
X11492D01*
X11303Y04629D02*
X11354Y04578D01*
X11562Y05094D02*
Y05196D01*
Y04559D02*
Y05094D01*
X11425D02*
X11562D01*
X11406Y0504D02*
Y05075D01*
X11425Y05094*
X11401Y05035D02*
X11406Y0504D01*
X11395Y0524D02*
X11519D01*
X11562Y05196*
X11433Y03653D02*
X1147Y0369D01*
X10318Y05D02*
X10414Y04904D01*
Y04778D02*
Y04904D01*
X08417Y04366D02*
Y04413D01*
X08381Y0433D02*
X08417Y04366D01*
Y04501D02*
Y04527D01*
X11362Y04358D02*
X11562Y04559D01*
X11362Y04086D02*
X11405Y04043D01*
X0811Y04188D02*
Y04458D01*
X08003Y04188D02*
X0811D01*
X07979Y04213D02*
Y04263D01*
Y04213D02*
X08003Y04188D01*
X07975Y04267D02*
X07979Y04263D01*
X09665Y04196D02*
X09759Y04102D01*
X09665Y04196D02*
Y04385D01*
X09976Y04948D02*
X10074D01*
X10125Y05*
X10318*
X10413D02*
X10728D01*
X09976D02*
X10055D01*
X10362Y05051D02*
X10413Y05D01*
X10106Y05051D02*
X10362D01*
X10055Y05D02*
X10106Y05051D01*
X11251Y05043D02*
X11303Y04992D01*
Y04629D02*
Y04992D01*
X10368Y0369D02*
X1037Y03692D01*
X10295Y0369D02*
X10368D01*
X10116Y03511D02*
X10295Y0369D01*
X11098Y05043D02*
X11251D01*
X1107Y05015D02*
X11098Y05043D01*
X10797Y05347D02*
Y0535D01*
X10767Y04582D02*
Y04817D01*
X10797Y05347D02*
X108Y0535D01*
X10767Y04381D02*
Y04582D01*
X10797Y04846D02*
Y04853D01*
X10767Y04817D02*
X10797Y04846D01*
Y04853D02*
Y05098D01*
X10464Y04728D02*
X10657D01*
X10692Y04763*
X10414Y04778D02*
X10464Y04728D01*
X09763Y05098D02*
X09763Y05098D01*
X09651Y05098D02*
X09763D01*
X09651Y05048D02*
X09719D01*
X10467Y03564D02*
X10472Y0356D01*
X10492Y03515D02*
X10629D01*
X10472Y03535D02*
X10492Y03515D01*
X10629D02*
X10688Y03574D01*
X10472Y03535D02*
Y0356D01*
X10466Y03564D02*
X10467D01*
X09622Y04318D02*
Y04407D01*
X09578Y04274D02*
X09622Y04318D01*
Y04407D02*
X09651Y04436D01*
Y04498*
X09079Y04274D02*
X09578D01*
X09051Y04103D02*
X09068Y04087D01*
X09051Y04103D02*
Y04159D01*
X09027Y04183D02*
X09051Y04159D01*
X09181Y04358D02*
X09213Y0439D01*
X08862Y04255D02*
X08964Y04358D01*
X09181*
X0899Y04314D02*
X09236D01*
X09265Y04343*
X08902Y04227D02*
X0899Y04314D01*
X09027Y04222D02*
X09079Y04274D01*
X09027Y04183D02*
Y04222D01*
X09213Y0439D02*
Y0443D01*
X0811Y04458D02*
X08498D01*
X08532Y04493*
X09543Y03511D02*
X10116D01*
X10206Y03838D02*
X10295D01*
X08592Y04557D02*
X0869D01*
X08612Y0437D02*
X08789Y04547D01*
X08798Y04497D02*
X08932D01*
X08652Y04351D02*
X08798Y04497D01*
X08789Y04547D02*
X08932D01*
X08652Y04203D02*
Y04351D01*
X08612Y04232D02*
Y0437D01*
X09557Y04685D02*
X0957Y04698D01*
X09166Y04433D02*
Y04669D01*
X08902Y03631D02*
X08919Y03614D01*
X08902Y03631D02*
Y03725D01*
X09068Y03851D02*
Y04087D01*
X08977Y0376D02*
X09068Y03851D01*
X08736Y03725D02*
X08902D01*
X08736Y03632D02*
Y03725D01*
X08188Y0369D02*
Y0374D01*
X08159D02*
X08188D01*
X08749Y041D02*
X08795D01*
X08862Y04167D02*
Y04255D01*
X08736Y04087D02*
X08749Y041D01*
X08795D02*
X08862Y04167D01*
X09265Y04343D02*
Y04431D01*
X09266Y04433*
X08902Y04087D02*
Y04227D01*
X09213Y0443D02*
X09216Y04433D01*
X08902Y03841D02*
Y04087D01*
X09116Y04433D02*
Y04663D01*
X08031Y04832D02*
X08061Y04862D01*
X08031Y04468D02*
Y04832D01*
X08061Y04862D02*
Y05D01*
X081Y05039D02*
X08162D01*
X08061Y05D02*
X081Y05039D01*
X09232Y03966D02*
Y04087D01*
X09237Y0409D02*
X09347D01*
X09234Y04087D02*
X09237Y0409D01*
X08087Y04606D02*
Y04784D01*
X0867Y05423D02*
X087Y05393D01*
X0797Y05196D02*
X07977D01*
X10895Y04853D02*
Y05098D01*
Y05239*
Y04849D02*
Y04853D01*
X1048Y0495D02*
X10601D01*
X10462Y04933D02*
X1048Y0495D01*
X10462Y04881D02*
Y04933D01*
X10601Y0495D02*
X10698Y04853D01*
X09507Y04714D02*
X09541Y04748D01*
X0957Y04698D02*
X09651D01*
X09541Y04748D02*
X09651D01*
X10895Y05239D02*
Y05347D01*
X08594Y04802D02*
Y05098D01*
X08535Y04734D02*
X08592Y04791D01*
Y04801D02*
X08594Y04802D01*
X08592Y04791D02*
Y04801D01*
X08533Y04734D02*
X08535D01*
X08562Y04183D02*
X08612Y04232D01*
X08313Y04126D02*
Y04165D01*
X08331Y04183*
X08562*
X09576Y03572D02*
X09635Y03631D01*
X09163Y03897D02*
X09232Y03966D01*
X09163Y03686D02*
Y03897D01*
Y03686D02*
X09184Y03665D01*
X08977Y03592D02*
Y0376D01*
X10846Y04582D02*
Y04799D01*
Y04381D02*
Y04582D01*
Y04179D02*
Y04381D01*
Y04799D02*
X10895Y04849D01*
X10767Y04179D02*
Y04381D01*
Y03977D02*
Y04179D01*
Y03776D02*
Y03977D01*
Y03574D02*
Y03776D01*
X10462Y0434D02*
Y04365D01*
Y0434D02*
X10482Y0432D01*
X1062D02*
X10679Y04379D01*
X10482Y0432D02*
X1062D01*
X10604Y04507D02*
X10679Y04582D01*
X10469Y04536D02*
X10498Y04507D01*
X10604*
X10463Y04568D02*
X10469Y04561D01*
Y04536D02*
Y04561D01*
X10472Y03738D02*
X10492Y03718D01*
X10629D02*
X10688Y03777D01*
X10492Y03718D02*
X10629D01*
X10479Y03934D02*
X10497Y03917D01*
X10479Y03934D02*
Y03961D01*
X10497Y03917D02*
X10625D01*
X10688Y0398*
X10492Y04124D02*
X10629D01*
X10688Y04183*
X10472Y04143D02*
X10492Y04124D01*
X10472Y04143D02*
Y04168D01*
X10467Y04173D02*
X10472Y04168D01*
X10466Y04173D02*
X10467D01*
X08592Y05226D02*
X08594Y05224D01*
X08766Y05161D02*
X08829Y05097D01*
X08822Y05047D02*
X08932D01*
X08209Y05214D02*
X08234Y0524D01*
X08187Y05214D02*
X08209D01*
X08162Y05189D02*
X08187Y05214D01*
X08234Y0524D02*
X0824D01*
X08162Y05039D02*
Y05189D01*
X08214Y03665D02*
X08255D01*
X08188Y0369D02*
X08214Y03665D01*
X08255D02*
X08259Y03661D01*
X10797Y05098D02*
Y05347D01*
X08829Y05097D02*
X08932D01*
X08311Y04124D02*
X08313Y04126D01*
X1007Y05141D02*
X10268D01*
X09734Y03631D02*
Y03893D01*
X09832Y03631D02*
Y03893D01*
X09931Y03631D02*
Y03893D01*
X10601Y05445D02*
X10698Y05347D01*
X10462Y05427D02*
X1048Y05445D01*
X10462Y05376D02*
Y05427D01*
X1048Y05445D02*
X10601D01*
Y05195D02*
X10698Y05098D01*
X10462Y05178D02*
X1048Y05195D01*
X10462Y05126D02*
Y05178D01*
X1048Y05195D02*
X10601D01*
X10021Y05209D02*
X10032Y0522D01*
X09924Y05209D02*
X10021D01*
X10032Y0522D02*
X1007D01*
X10268*
X10013Y05141D02*
X1007D01*
X09983Y05112D02*
X10013Y05141D01*
X09927Y05112D02*
X09983D01*
X09924Y05109D02*
X09927Y05112D01*
G54D79*
X09259Y04788D03*
X09204D03*
X09259Y04844D03*
X09204D03*
X09259Y04899D03*
X09204D03*
X09287Y04816D03*
X09232D03*
X09177D03*
X09287Y04871D03*
X09177D03*
X09232D03*
G54D80*
X11651Y04119D03*
X11551D03*
G54D81*
X11451Y04119D03*
G54D82*
X10268Y05377D03*
Y0522D03*
Y05299D03*
X1007Y05377D03*
Y0522D03*
Y05299D03*
X09924Y05409D03*
Y05309D03*
Y05209D03*
X08592Y05326D03*
X11189Y05322D03*
X11176Y03655D03*
X08444Y0524D03*
X08464Y03582D03*
G54D83*
X10268Y05141D03*
X1007D03*
X09924Y05109D03*
X08592Y05226D03*
X11189Y05244D03*
X11176Y03576D03*
X08444Y05318D03*
X08464Y03661D03*
G54D84*
X0824Y05161D03*
Y0524D03*
X08259Y03582D03*
Y03661D03*
X11387Y03736D03*
Y03657D03*
X11395Y05318D03*
Y0524D03*
G54D85*
X0824Y05318D03*
X08259Y0374D03*
X11387Y03578D03*
X11395Y05161D03*
G54D86*
X08251Y04251D03*
X08311D03*
X0837D03*
X08429D03*
X08488D03*
X08547D03*
G54D87*
X11428Y04821D03*
X11196Y03893D03*
X07948Y04102D03*
X09832Y04253D03*
X08756D03*
X08806Y05287D03*
X09783D03*
G54D88*
X09092Y04794D03*
X09045Y04793D03*
X09721Y04794D03*
X11057Y04033D03*
X11187Y04083D03*
X09316Y04542D03*
X08382Y03956D03*
X09921Y04539D03*
X08658Y05285D03*
X08683Y04732D03*
X08825Y046D03*
X08849Y04647D03*
X09466Y0457D03*
X09417Y0457D03*
X09365Y04565D03*
X10701Y04267D03*
X09495Y03805D03*
X08517Y04921D03*
X11645Y04027D03*
X09986Y04654D03*
X08837Y04998D03*
X08839Y04947D03*
X08779Y04905D03*
X08122Y04818D03*
X09515Y0433D03*
X09566Y04334D03*
X08577Y03688D03*
X112Y04896D03*
X11492Y04578D03*
X11246Y05208D03*
X11279Y05236D03*
X08925Y04405D03*
X09Y04255D03*
X09311Y03968D03*
X09118Y03952D03*
X09149Y04098D03*
X0972Y04216D03*
X10283Y04842D03*
X09967Y04603D03*
X0993Y04583D03*
X10055Y04543D03*
X11007Y05015D03*
X10161Y04307D03*
X10173Y0422D03*
X09102Y03811D03*
X0885Y04854D03*
X08848Y04897D03*
X08333Y04884D03*
X08417Y04413D03*
Y04501D03*
X11118Y04381D03*
X11364Y04168D03*
X09582Y04196D03*
X10295Y04952D03*
X09976Y04901D03*
X09724Y04996D03*
X09976Y04948D03*
Y05D03*
X1037Y03692D03*
X11043Y04763D03*
X10692D03*
X09724Y04944D03*
X09763Y05098D03*
X09724Y05048D03*
Y04598D03*
X09665Y04385D03*
X09779Y04535D03*
X09756Y04104D03*
X11129Y04968D03*
X09543Y03511D03*
X08848Y04744D03*
Y04696D03*
Y04803D03*
X10206Y03838D03*
X0869Y04557D03*
X08592D03*
X09557Y04685D03*
X09724Y04724D03*
X09753Y04685D03*
X09724Y04649D03*
X08503Y05196D03*
X08919Y03614D03*
X08415Y04005D03*
X08978Y03848D03*
X09015Y03917D03*
X08001Y04458D03*
X087Y05393D03*
X10728Y05D03*
X09724Y04547D03*
X09507Y04714D03*
X11092Y05206D03*
X09724Y04846D03*
Y04897D03*
M02*