%FSTAX23Y23*%
%MOIN*%
%SFA1B1*%

%IPPOS*%
%AMD44*
4,1,8,0.033500,-0.008900,0.033500,0.008900,0.031500,0.010800,-0.031500,0.010800,-0.033500,0.008900,-0.033500,-0.008900,-0.031500,-0.010800,0.031500,-0.010800,0.033500,-0.008900,0.0*
1,1,0.003898,0.031500,-0.008900*
1,1,0.003898,0.031500,0.008900*
1,1,0.003898,-0.031500,0.008900*
1,1,0.003898,-0.031500,-0.008900*
%
%ADD20R,0.035433X0.035433*%
%ADD21R,0.035433X0.088582*%
%ADD22R,0.088582X0.035433*%
%ADD23R,0.039370X0.049212*%
%ADD24R,0.051181X0.043307*%
%ADD25R,0.049689X0.037594*%
%ADD26R,0.059378X0.047500*%
%ADD27R,0.047500X0.059378*%
%ADD28R,0.015748X0.014961*%
%ADD29R,0.043307X0.051181*%
%ADD30R,0.062992X0.085827*%
%ADD31R,0.062992X0.086614*%
%ADD32R,0.037594X0.049689*%
%ADD33R,0.053937X0.075197*%
%ADD34R,0.053342X0.057563*%
%ADD35R,0.045275X0.045275*%
%ADD36R,0.061024X0.053150*%
%ADD37R,0.047244X0.047244*%
%ADD38R,0.059055X0.055118*%
%ADD39R,0.041339X0.057087*%
%ADD40R,0.043307X0.053150*%
%ADD41R,0.055118X0.059055*%
%ADD42R,0.047244X0.047244*%
%ADD43C,0.078740*%
G04~CAMADD=44~8~0.0~0.0~216.5~669.3~19.5~0.0~15~0.0~0.0~0.0~0.0~0~0.0~0.0~0.0~0.0~0~0.0~0.0~0.0~270.0~670.0~217.0*
%ADD44D44*%
%ADD45R,0.055441X0.039626*%
%LNpcb1-1*%
%LPD*%
G54D20*
X09287Y04899D03*
X09232D03*
X09177D03*
X09287Y04788D03*
X09232D03*
X09177D03*
X09287Y04844D03*
X09177D03*
X09232D03*
G54D21*
X09566Y04433D03*
X09516D03*
X09466D03*
X09416D03*
X09366D03*
X09316D03*
X09266D03*
X09216D03*
X09166D03*
X09116D03*
X09066D03*
X09016D03*
G54D22*
X09651Y05148D03*
Y04498D03*
Y04548D03*
Y04598D03*
Y04648D03*
Y04698D03*
Y04748D03*
Y04798D03*
Y04848D03*
Y04898D03*
Y04948D03*
Y04998D03*
Y05048D03*
Y05098D03*
X08932Y04997D03*
Y04947D03*
Y04897D03*
Y04847D03*
Y04797D03*
Y04747D03*
Y04697D03*
Y04647D03*
Y04597D03*
Y04547D03*
Y04497D03*
Y05047D03*
Y05097D03*
Y05147D03*
G54D23*
X08515Y0508D03*
X08594D03*
G54D24*
X10548Y04368D03*
Y0445D03*
X09477Y03619D03*
Y03701D03*
Y0386D03*
Y03942D03*
X10548Y0457D03*
Y04653D03*
X10558Y04171D03*
Y04253D03*
Y03968D03*
Y04051D03*
Y03765D03*
Y03848D03*
Y03562D03*
Y03645D03*
X10549Y04892D03*
Y04809D03*
X10551Y05139D03*
Y05057D03*
Y05385D03*
Y05303D03*
G54D25*
X10462Y04365D03*
Y04426D03*
Y04568D03*
Y04629D03*
X10472Y04168D03*
Y04229D03*
Y03965D03*
Y04026D03*
Y0375D03*
Y03811D03*
Y0356D03*
Y03621D03*
X10462Y04881D03*
Y0482D03*
Y05126D03*
Y05065D03*
Y05376D03*
Y05315D03*
G54D26*
X1125Y04127D03*
Y04044D03*
X11128Y04127D03*
Y04044D03*
G54D27*
X09762Y04393D03*
X09845D03*
X08746Y0508D03*
X08663D03*
G54D28*
X10253Y0434D03*
Y04362D03*
X10255Y04278D03*
Y04256D03*
Y04198D03*
Y04176D03*
X10204Y04362D03*
Y0434D03*
Y04256D03*
Y04279D03*
X10206Y04176D03*
Y04198D03*
G54D29*
X09915Y04914D03*
X09832D03*
X08167Y04937D03*
X0825D03*
X08271Y03972D03*
X08188D03*
X11467Y0396D03*
X11384D03*
X11388Y04935D03*
X11471D03*
G54D30*
X09068Y03725D03*
X08902Y04087D03*
X08733Y04095D03*
X09237Y03729D03*
G54D31*
X09068Y04087D03*
X08902Y03725D03*
X08733Y03733D03*
X09237Y0409D03*
G54D32*
X09916Y05002D03*
X09855D03*
G54D33*
X08087Y04606D03*
X07975D03*
X08087Y0473D03*
X07975D03*
G54D34*
X08169Y05025D03*
X08246D03*
X08266Y0388D03*
X08189D03*
X11461Y03872D03*
X11384D03*
X11396Y05022D03*
X11473D03*
G54D35*
X09404Y0361D03*
Y03702D03*
Y03852D03*
Y03944D03*
G54D36*
X08736Y03555D03*
Y03632D03*
G54D37*
X08634Y03549D03*
Y03631D03*
X08532Y03875D03*
Y03792D03*
X08533Y04039D03*
Y03956D03*
G54D38*
X08772Y04737D03*
X08517D03*
X09347Y04016D03*
Y0409D03*
G54D39*
X08047Y04267D03*
X07975D03*
G54D40*
X08667Y04976D03*
X08722D03*
G54D41*
X08592Y04979D03*
X08517D03*
X09052Y03592D03*
X08977D03*
G54D42*
X08047Y04355D03*
X07965D03*
G54D43*
X10295Y03838D03*
Y0369D03*
X10295Y0354D03*
G54D44*
X09836Y0484D03*
Y0479D03*
Y0474D03*
Y0469D03*
Y0464D03*
Y0459D03*
Y0454D03*
Y0449D03*
X10202Y0484D03*
Y0479D03*
Y0474D03*
Y0469D03*
Y0464D03*
Y0459D03*
Y0454D03*
Y0449D03*
G54D45*
X08618Y038D03*
Y03875D03*
X08612Y03963D03*
Y04038D03*
M02*