%FSTAX23Y23*%
%MOIN*%
%SFA1B1*%

%IPPOS*%
%ADD14C,0.005000*%
%ADD117C,0.006665*%
%LNpcb1-1*%
%LPD*%
G54D14*
X09249Y04778D02*
Y04768D01*
X09269*
Y04778*
X09279*
Y04798*
X09269*
Y04808*
X09249*
Y04798*
X09239*
Y04778*
X09249*
X09194D02*
Y04768D01*
X09214*
Y04778*
X09224*
Y04798*
X09214*
Y04808*
X09194*
Y04798*
X09184*
Y04778*
X09194*
X09249Y04834D02*
Y04824D01*
X09269*
Y04834*
X09279*
Y04854*
X09269*
Y04864*
X09249*
Y04854*
X09239*
Y04834*
X09249*
X09194D02*
Y04824D01*
X09214*
Y04834*
X09224*
Y04854*
X09214*
Y04864*
X09194*
Y04854*
X09184*
Y04834*
X09194*
X09249Y04889D02*
Y04879D01*
X09269*
Y04889*
X09279*
Y04909*
X09269*
Y04919*
X09249*
Y04909*
X09239*
Y04889*
X09249*
X09194D02*
Y04879D01*
X09214*
Y04889*
X09224*
Y04909*
X09214*
Y04919*
X09194*
Y04909*
X09184*
Y04889*
X09194*
X09277Y04806D02*
Y04796D01*
X09297*
Y04806*
X09307*
Y04826*
X09297*
Y04836*
X09277*
Y04826*
X09267*
Y04806*
X09277*
X09222D02*
Y04796D01*
X09242*
Y04806*
X09252*
Y04826*
X09242*
Y04836*
X09222*
Y04826*
X09212*
Y04806*
X09222*
X09167D02*
Y04796D01*
X09187*
Y04806*
X09197*
Y04826*
X09187*
Y04836*
X09167*
Y04826*
X09157*
Y04806*
X09167*
X09277Y04861D02*
Y04851D01*
X09297*
Y04861*
X09307*
Y04881*
X09297*
Y04891*
X09277*
Y04881*
X09267*
Y04861*
X09277*
X09167D02*
Y04851D01*
X09187*
Y04861*
X09197*
Y04881*
X09187*
Y04891*
X09167*
Y04881*
X09157*
Y04861*
X09167*
X09222D02*
Y04851D01*
X09242*
Y04861*
X09252*
Y04881*
X09242*
Y04891*
X09222*
Y04881*
X09212*
Y04861*
X09222*
X10688Y04562D02*
X10698Y04572D01*
X10708*
X10698Y04582*
X10708Y04592*
X10698*
X10688Y04602*
X10678Y04592*
X10668*
X10678Y04582*
X10668Y04572*
X10678*
X10688Y04562*
X10767D02*
X10777Y04572D01*
X10787*
X10777Y04582*
X10787Y04592*
X10777*
X10767Y04602*
X10757Y04592*
X10747*
X10757Y04582*
X10747Y04572*
X10757*
X10767Y04562*
X10846D02*
X10856Y04572D01*
X10866*
X10856Y04582*
X10866Y04592*
X10856*
X10846Y04602*
X10836Y04592*
X10826*
X10836Y04582*
X10826Y04572*
X10836*
X10846Y04562*
X10925D02*
X10935Y04572D01*
X10945*
X10935Y04582*
X10945Y04592*
X10935*
X10925Y04602*
X10915Y04592*
X10905*
X10915Y04582*
X10905Y04572*
X10915*
X10925Y04562*
X11003D02*
X11013Y04572D01*
X11023*
X11013Y04582*
X11023Y04592*
X11013*
X11003Y04602*
X10993Y04592*
X10983*
X10993Y04582*
X10983Y04572*
X10993*
X11003Y04562*
X10688Y03757D02*
X10698Y03767D01*
X10708*
X10698Y03777*
X10708Y03787*
X10698*
X10688Y03797*
X10678Y03787*
X10668*
X10678Y03777*
X10668Y03767*
X10678*
X10688Y03757*
X10767D02*
X10777Y03767D01*
X10787*
X10777Y03777*
X10787Y03787*
X10777*
X10767Y03797*
X10757Y03787*
X10747*
X10757Y03777*
X10747Y03767*
X10757*
X10767Y03757*
X10846D02*
X10856Y03767D01*
X10866*
X10856Y03777*
X10866Y03787*
X10856*
X10846Y03797*
X10836Y03787*
X10826*
X10836Y03777*
X10826Y03767*
X10836*
X10846Y03757*
X10925D02*
X10935Y03767D01*
X10945*
X10935Y03777*
X10945Y03787*
X10935*
X10925Y03797*
X10915Y03787*
X10905*
X10915Y03777*
X10905Y03767*
X10915*
X10925Y03757*
X11003D02*
X11013Y03767D01*
X11023*
X11013Y03777*
X11023Y03787*
X11013*
X11003Y03797*
X10993Y03787*
X10983*
X10993Y03777*
X10983Y03767*
X10993*
X11003Y03757*
X11631Y04099D02*
Y04139D01*
X11671*
Y04099*
X11631*
X11531D02*
Y04139D01*
X11571*
Y04099*
X11531*
X11431D02*
Y04139D01*
X11471*
Y04099*
X11431*
X10248Y05357D02*
Y05397D01*
X10288*
Y05357*
X10248*
Y05121D02*
Y05161D01*
X10288*
Y05121*
X10248*
Y052D02*
Y0524D01*
X10288*
Y052*
X10248*
Y05279D02*
Y05319D01*
X10288*
Y05279*
X10248*
X1005Y05357D02*
Y05397D01*
X1009*
Y05357*
X1005*
Y05121D02*
Y05161D01*
X1009*
Y05121*
X1005*
Y052D02*
Y0524D01*
X1009*
Y052*
X1005*
Y05279D02*
Y05319D01*
X1009*
Y05279*
X1005*
X0824Y05141D02*
X0822Y05181D01*
X0826*
X0824Y05141*
Y0522D02*
X0822Y0526D01*
X0826*
X0824Y0522*
Y05298D02*
X0822Y05338D01*
X0826*
X0824Y05298*
X08259Y03562D02*
X08239Y03602D01*
X08279*
X08259Y03562*
Y03641D02*
X08239Y03681D01*
X08279*
X08259Y03641*
Y0372D02*
X08239Y0376D01*
X08279*
X08259Y0372*
X11387Y03716D02*
X11367Y03756D01*
X11407*
X11387Y03716*
Y03637D02*
X11367Y03677D01*
X11407*
X11387Y03637*
Y03558D02*
X11367Y03598D01*
X11407*
X11387Y03558*
X11395Y05298D02*
X11375Y05338D01*
X11415*
X11395Y05298*
Y0522D02*
X11375Y0526D01*
X11415*
X11395Y0522*
Y05141D02*
X11375Y05181D01*
X11415*
X11395Y05141*
X10688Y04163D02*
X10698Y04173D01*
X10708*
X10698Y04183*
X10708Y04193*
X10698*
X10688Y04203*
X10678Y04193*
X10668*
X10678Y04183*
X10668Y04173*
X10678*
X10688Y04163*
X10767D02*
X10777Y04173D01*
X10787*
X10777Y04183*
X10787Y04193*
X10777*
X10767Y04203*
X10757Y04193*
X10747*
X10757Y04183*
X10747Y04173*
X10757*
X10767Y04163*
X10846D02*
X10856Y04173D01*
X10866*
X10856Y04183*
X10866Y04193*
X10856*
X10846Y04203*
X10836Y04193*
X10826*
X10836Y04183*
X10826Y04173*
X10836*
X10846Y04163*
X10925D02*
X10935Y04173D01*
X10945*
X10935Y04183*
X10945Y04193*
X10935*
X10925Y04203*
X10915Y04193*
X10905*
X10915Y04183*
X10905Y04173*
X10915*
X10925Y04163*
X11003D02*
X11013Y04173D01*
X11023*
X11013Y04183*
X11023Y04193*
X11013*
X11003Y04203*
X10993Y04193*
X10983*
X10993Y04183*
X10983Y04173*
X10993*
X11003Y04163*
X10688Y03554D02*
X10698Y03564D01*
X10708*
X10698Y03574*
X10708Y03584*
X10698*
X10688Y03594*
X10678Y03584*
X10668*
X10678Y03574*
X10668Y03564*
X10678*
X10688Y03554*
X10767D02*
X10777Y03564D01*
X10787*
X10777Y03574*
X10787Y03584*
X10777*
X10767Y03594*
X10757Y03584*
X10747*
X10757Y03574*
X10747Y03564*
X10757*
X10767Y03554*
X10846D02*
X10856Y03564D01*
X10866*
X10856Y03574*
X10866Y03584*
X10856*
X10846Y03594*
X10836Y03584*
X10826*
X10836Y03574*
X10826Y03564*
X10836*
X10846Y03554*
X10925D02*
X10935Y03564D01*
X10945*
X10935Y03574*
X10945Y03584*
X10935*
X10925Y03594*
X10915Y03584*
X10905*
X10915Y03574*
X10905Y03564*
X10915*
X10925Y03554*
X11003D02*
X11013Y03564D01*
X11023*
X11013Y03574*
X11023Y03584*
X11013*
X11003Y03594*
X10993Y03584*
X10983*
X10993Y03574*
X10983Y03564*
X10993*
X11003Y03554*
X10688Y04359D02*
X10698Y04369D01*
X10708*
X10698Y04379*
X10708Y04389*
X10698*
X10688Y04399*
X10678Y04389*
X10668*
X10678Y04379*
X10668Y04369*
X10678*
X10688Y04359*
X10767D02*
X10777Y04369D01*
X10787*
X10777Y04379*
X10787Y04389*
X10777*
X10767Y04399*
X10757Y04389*
X10747*
X10757Y04379*
X10747Y04369*
X10757*
X10767Y04359*
X10846D02*
X10856Y04369D01*
X10866*
X10856Y04379*
X10866Y04389*
X10856*
X10846Y04399*
X10836Y04389*
X10826*
X10836Y04379*
X10826Y04369*
X10836*
X10846Y04359*
X10925D02*
X10935Y04369D01*
X10945*
X10935Y04379*
X10945Y04389*
X10935*
X10925Y04399*
X10915Y04389*
X10905*
X10915Y04379*
X10905Y04369*
X10915*
X10925Y04359*
X11003D02*
X11013Y04369D01*
X11023*
X11013Y04379*
X11023Y04389*
X11013*
X11003Y04399*
X10993Y04389*
X10983*
X10993Y04379*
X10983Y04369*
X10993*
X11003Y04359*
X10688Y0396D02*
X10698Y0397D01*
X10708*
X10698Y0398*
X10708Y0399*
X10698*
X10688Y04*
X10678Y0399*
X10668*
X10678Y0398*
X10668Y0397*
X10678*
X10688Y0396*
X10767D02*
X10777Y0397D01*
X10787*
X10777Y0398*
X10787Y0399*
X10777*
X10767Y04*
X10757Y0399*
X10747*
X10757Y0398*
X10747Y0397*
X10757*
X10767Y0396*
X10846D02*
X10856Y0397D01*
X10866*
X10856Y0398*
X10866Y0399*
X10856*
X10846Y04*
X10836Y0399*
X10826*
X10836Y0398*
X10826Y0397*
X10836*
X10846Y0396*
X10925D02*
X10935Y0397D01*
X10945*
X10935Y0398*
X10945Y0399*
X10935*
X10925Y04*
X10915Y0399*
X10905*
X10915Y0398*
X10905Y0397*
X10915*
X10925Y0396*
X11003D02*
X11013Y0397D01*
X11023*
X11013Y0398*
X11023Y0399*
X11013*
X11003Y04*
X10993Y0399*
X10983*
X10993Y0398*
X10983Y0397*
X10993*
X11003Y0396*
X08412Y04101D02*
X08422Y04121D01*
X08412Y04141*
X08432Y04131*
X08452Y04141*
X08442Y04121*
X08452Y04101*
X08432Y04111*
X08412Y04101*
X08353D02*
X08363Y04121D01*
X08353Y04141*
X08373Y04131*
X08393Y04141*
X08383Y04121*
X08393Y04101*
X08373Y04111*
X08353Y04101*
X08293D02*
X08303Y04121D01*
X08293Y04141*
X08313Y04131*
X08333Y04141*
X08323Y04121*
X08333Y04101*
X08313Y04111*
X08293Y04101*
X08234D02*
X08244Y04121D01*
X08234Y04141*
X08254Y04131*
X08274Y04141*
X08264Y04121*
X08274Y04101*
X08254Y04111*
X08234Y04101*
X08244Y0472D02*
X08254Y0473D01*
X08264*
X08254Y0474*
X08264Y0475*
X08254*
X08244Y0476*
X08234Y0475*
X08224*
X08234Y0474*
X08224Y0473*
X08234*
X08244Y0472*
X08303D02*
X08313Y0473D01*
X08323*
X08313Y0474*
X08323Y0475*
X08313*
X08303Y0476*
X08293Y0475*
X08283*
X08293Y0474*
X08283Y0473*
X08293*
X08303Y0472*
X08362D02*
X08372Y0473D01*
X08382*
X08372Y0474*
X08382Y0475*
X08372*
X08362Y0476*
X08352Y0475*
X08342*
X08352Y0474*
X08342Y0473*
X08352*
X08362Y0472*
X08244Y04552D02*
X08254Y04562D01*
X08264*
X08254Y04572*
X08264Y04582*
X08254*
X08244Y04592*
X08234Y04582*
X08224*
X08234Y04572*
X08224Y04562*
X08234*
X08244Y04552*
X08303D02*
X08313Y04562D01*
X08323*
X08313Y04572*
X08323Y04582*
X08313*
X08303Y04592*
X08293Y04582*
X08283*
X08293Y04572*
X08283Y04562*
X08293*
X08303Y04552*
X08362D02*
X08372Y04562D01*
X08382*
X08372Y04572*
X08382Y04582*
X08372*
X08362Y04592*
X08352Y04582*
X08342*
X08352Y04572*
X08342Y04562*
X08352*
X08362Y04552*
X08243Y04383D02*
X08253Y04393D01*
X08263*
X08253Y04403*
X08263Y04413*
X08253*
X08243Y04423*
X08233Y04413*
X08223*
X08233Y04403*
X08223Y04393*
X08233*
X08243Y04383*
X08302D02*
X08312Y04393D01*
X08322*
X08312Y04403*
X08322Y04413*
X08312*
X08302Y04423*
X08292Y04413*
X08282*
X08292Y04403*
X08282Y04393*
X08292*
X08302Y04383*
X08361D02*
X08371Y04393D01*
X08381*
X08371Y04403*
X08381Y04413*
X08371*
X08361Y04423*
X08351Y04413*
X08341*
X08351Y04403*
X08341Y04393*
X08351*
X08361Y04383*
X11169Y05224D02*
Y05264D01*
X11209*
Y05224*
X11169*
Y05302D02*
Y05342D01*
X11209*
Y05302*
X11169*
X11156Y03556D02*
Y03596D01*
X11196*
Y03556*
X11156*
Y03635D02*
Y03675D01*
X11196*
Y03635*
X11156*
X09104Y04202D02*
X09114Y04212D01*
X09124*
X09114Y04222*
X09124Y04232*
X09114*
X09104Y04242*
X09094Y04232*
X09084*
X09094Y04222*
X09084Y04212*
X09094*
X09104Y04202*
X09183D02*
X09193Y04212D01*
X09203*
X09193Y04222*
X09203Y04232*
X09193*
X09183Y04242*
X09173Y04232*
X09163*
X09173Y04222*
X09163Y04212*
X09173*
X09183Y04202*
X09261D02*
X09271Y04212D01*
X09281*
X09271Y04222*
X09281Y04232*
X09271*
X09261Y04242*
X09251Y04232*
X09241*
X09251Y04222*
X09241Y04212*
X09251*
X09261Y04202*
X0934D02*
X0935Y04212D01*
X0936*
X0935Y04222*
X0936Y04232*
X0935*
X0934Y04242*
X0933Y04232*
X0932*
X0933Y04222*
X0932Y04212*
X0933*
X0934Y04202*
X09419D02*
X09429Y04212D01*
X09439*
X09429Y04222*
X09439Y04232*
X09429*
X09419Y04242*
X09409Y04232*
X09399*
X09409Y04222*
X09399Y04212*
X09409*
X09419Y04202*
X09498D02*
X09508Y04212D01*
X09518*
X09508Y04222*
X09518Y04232*
X09508*
X09498Y04242*
X09488Y04232*
X09478*
X09488Y04222*
X09478Y04212*
X09488*
X09498Y04202*
X08251Y04231D02*
X08261Y04241D01*
X08271*
X08261Y04251*
X08271Y04261*
X08261*
X08251Y04271*
X08241Y04261*
X08231*
X08241Y04251*
X08231Y04241*
X08241*
X08251Y04231*
X08311D02*
X08321Y04241D01*
X08331*
X08321Y04251*
X08331Y04261*
X08321*
X08311Y04271*
X08301Y04261*
X08291*
X08301Y04251*
X08291Y04241*
X08301*
X08311Y04231*
X0837D02*
X0838Y04241D01*
X0839*
X0838Y04251*
X0839Y04261*
X0838*
X0837Y04271*
X0836Y04261*
X0835*
X0836Y04251*
X0835Y04241*
X0836*
X0837Y04231*
X08429D02*
X08439Y04241D01*
X08449*
X08439Y04251*
X08449Y04261*
X08439*
X08429Y04271*
X08419Y04261*
X08409*
X08419Y04251*
X08409Y04241*
X08419*
X08429Y04231*
X08488D02*
X08498Y04241D01*
X08508*
X08498Y04251*
X08508Y04261*
X08498*
X08488Y04271*
X08478Y04261*
X08468*
X08478Y04251*
X08468Y04241*
X08478*
X08488Y04231*
X08547D02*
X08557Y04241D01*
X08567*
X08557Y04251*
X08567Y04261*
X08557*
X08547Y04271*
X08537Y04261*
X08527*
X08537Y04251*
X08527Y04241*
X08537*
X08547Y04231*
X08424Y05298D02*
Y05338D01*
X08464*
Y05298*
X08424*
Y0522D02*
Y0526D01*
X08464*
Y0522*
X08424*
X08444Y03641D02*
Y03681D01*
X08484*
Y03641*
X08444*
Y03562D02*
Y03602D01*
X08484*
Y03562*
X08444*
X11408Y04801D02*
X11418D01*
X11428Y04811*
X11438Y04801*
X11448*
Y04811*
X11438Y04821*
X11448Y04831*
Y04841*
X11438*
X11428Y04831*
X11418Y04841*
X11408*
Y04831*
X11418Y04821*
X11408Y04811*
Y04801*
X11176Y03873D02*
X11186D01*
X11196Y03883*
X11206Y03873*
X11216*
Y03883*
X11206Y03893*
X11216Y03903*
Y03913*
X11206*
X11196Y03903*
X11186Y03913*
X11176*
Y03903*
X11186Y03893*
X11176Y03883*
Y03873*
X07928Y04082D02*
X07938D01*
X07948Y04092*
X07958Y04082*
X07968*
Y04092*
X07958Y04102*
X07968Y04112*
Y04122*
X07958*
X07948Y04112*
X07938Y04122*
X07928*
Y04112*
X07938Y04102*
X07928Y04092*
Y04082*
X09812Y04233D02*
X09822D01*
X09832Y04243*
X09842Y04233*
X09852*
Y04243*
X09842Y04253*
X09852Y04263*
Y04273*
X09842*
X09832Y04263*
X09822Y04273*
X09812*
Y04263*
X09822Y04253*
X09812Y04243*
Y04233*
X08736D02*
X08746D01*
X08756Y04243*
X08766Y04233*
X08776*
Y04243*
X08766Y04253*
X08776Y04263*
Y04273*
X08766*
X08756Y04263*
X08746Y04273*
X08736*
Y04263*
X08746Y04253*
X08736Y04243*
Y04233*
X08786Y05267D02*
X08796D01*
X08806Y05277*
X08816Y05267*
X08826*
Y05277*
X08816Y05287*
X08826Y05297*
Y05307*
X08816*
X08806Y05297*
X08796Y05307*
X08786*
Y05297*
X08796Y05287*
X08786Y05277*
Y05267*
X09763D02*
X09773D01*
X09783Y05277*
X09793Y05267*
X09803*
Y05277*
X09793Y05287*
X09803Y05297*
Y05307*
X09793*
X09783Y05297*
X09773Y05307*
X09763*
Y05297*
X09773Y05287*
X09763Y05277*
Y05267*
X09072Y04794D02*
X09092Y04814D01*
X09112Y04794*
X09092Y04774*
X09072Y04794*
X09025Y04793D02*
X09045Y04813D01*
X09065Y04793*
X09045Y04773*
X09025Y04793*
X09701Y04794D02*
X09721Y04814D01*
X09741Y04794*
X09721Y04774*
X09701Y04794*
X11037Y04033D02*
X11057Y04053D01*
X11077Y04033*
X11057Y04013*
X11037Y04033*
X11167Y04083D02*
X11187Y04103D01*
X11207Y04083*
X11187Y04063*
X11167Y04083*
X09296Y04542D02*
X09316Y04562D01*
X09336Y04542*
X09316Y04522*
X09296Y04542*
X08362Y03956D02*
X08382Y03976D01*
X08402Y03956*
X08382Y03936*
X08362Y03956*
X09901Y04539D02*
X09921Y04559D01*
X09941Y04539*
X09921Y04519*
X09901Y04539*
X08638Y05285D02*
X08658Y05305D01*
X08678Y05285*
X08658Y05265*
X08638Y05285*
X08663Y04732D02*
X08683Y04752D01*
X08703Y04732*
X08683Y04712*
X08663Y04732*
X08805Y046D02*
X08825Y0462D01*
X08845Y046*
X08825Y0458*
X08805Y046*
X08829Y04647D02*
X08849Y04667D01*
X08869Y04647*
X08849Y04627*
X08829Y04647*
X09446Y0457D02*
X09466Y0459D01*
X09486Y0457*
X09466Y0455*
X09446Y0457*
X09397Y0457D02*
X09417Y0459D01*
X09437Y0457*
X09417Y0455*
X09397Y0457*
X09345Y04565D02*
X09365Y04585D01*
X09385Y04565*
X09365Y04545*
X09345Y04565*
X10681Y04267D02*
X10701Y04287D01*
X10721Y04267*
X10701Y04247*
X10681Y04267*
X09475Y03805D02*
X09495Y03825D01*
X09515Y03805*
X09495Y03785*
X09475Y03805*
X08497Y04921D02*
X08517Y04941D01*
X08537Y04921*
X08517Y04901*
X08497Y04921*
X11625Y04027D02*
X11645Y04047D01*
X11665Y04027*
X11645Y04007*
X11625Y04027*
X09966Y04654D02*
X09986Y04674D01*
X10006Y04654*
X09986Y04634*
X09966Y04654*
X08817Y04998D02*
X08837Y05018D01*
X08857Y04998*
X08837Y04978*
X08817Y04998*
X08819Y04947D02*
X08839Y04967D01*
X08859Y04947*
X08839Y04927*
X08819Y04947*
X08759Y04905D02*
X08779Y04925D01*
X08799Y04905*
X08779Y04885*
X08759Y04905*
X08102Y04818D02*
X08122Y04838D01*
X08142Y04818*
X08122Y04798*
X08102Y04818*
X09495Y0433D02*
X09515Y0435D01*
X09535Y0433*
X09515Y0431*
X09495Y0433*
X09546Y04334D02*
X09566Y04354D01*
X09586Y04334*
X09566Y04314*
X09546Y04334*
X08557Y03688D02*
X08577Y03708D01*
X08597Y03688*
X08577Y03668*
X08557Y03688*
X1118Y04896D02*
X112Y04916D01*
X1122Y04896*
X112Y04876*
X1118Y04896*
X11472Y04578D02*
X11492Y04598D01*
X11512Y04578*
X11492Y04558*
X11472Y04578*
X11226Y05208D02*
X11246Y05228D01*
X11266Y05208*
X11246Y05188*
X11226Y05208*
X11259Y05236D02*
X11279Y05256D01*
X11299Y05236*
X11279Y05216*
X11259Y05236*
X08905Y04405D02*
X08925Y04425D01*
X08945Y04405*
X08925Y04385*
X08905Y04405*
X0898Y04255D02*
X09Y04275D01*
X0902Y04255*
X09Y04235*
X0898Y04255*
X09291Y03968D02*
X09311Y03988D01*
X09331Y03968*
X09311Y03948*
X09291Y03968*
X09098Y03952D02*
X09118Y03972D01*
X09138Y03952*
X09118Y03932*
X09098Y03952*
X09129Y04098D02*
X09149Y04118D01*
X09169Y04098*
X09149Y04078*
X09129Y04098*
X097Y04216D02*
X0972Y04236D01*
X0974Y04216*
X0972Y04196*
X097Y04216*
X10263Y04842D02*
X10283Y04862D01*
X10303Y04842*
X10283Y04822*
X10263Y04842*
X09947Y04603D02*
X09967Y04623D01*
X09987Y04603*
X09967Y04583*
X09947Y04603*
X0991Y04583D02*
X0993Y04603D01*
X0995Y04583*
X0993Y04563*
X0991Y04583*
X10035Y04543D02*
X10055Y04563D01*
X10075Y04543*
X10055Y04523*
X10035Y04543*
X10987Y05015D02*
X11007Y05035D01*
X11027Y05015*
X11007Y04995*
X10987Y05015*
X10141Y04307D02*
X10161Y04327D01*
X10181Y04307*
X10161Y04287*
X10141Y04307*
X10153Y0422D02*
X10173Y0424D01*
X10193Y0422*
X10173Y042*
X10153Y0422*
X09082Y03811D02*
X09102Y03831D01*
X09122Y03811*
X09102Y03791*
X09082Y03811*
X0883Y04854D02*
X0885Y04874D01*
X0887Y04854*
X0885Y04834*
X0883Y04854*
X08828Y04897D02*
X08848Y04917D01*
X08868Y04897*
X08848Y04877*
X08828Y04897*
X08313Y04884D02*
X08333Y04904D01*
X08353Y04884*
X08333Y04864*
X08313Y04884*
X08397Y04413D02*
X08417Y04433D01*
X08437Y04413*
X08417Y04393*
X08397Y04413*
Y04501D02*
X08417Y04521D01*
X08437Y04501*
X08417Y04481*
X08397Y04501*
X11098Y04381D02*
X11118Y04401D01*
X11138Y04381*
X11118Y04361*
X11098Y04381*
X11344Y04168D02*
X11364Y04188D01*
X11384Y04168*
X11364Y04148*
X11344Y04168*
X09562Y04196D02*
X09582Y04216D01*
X09602Y04196*
X09582Y04176*
X09562Y04196*
X10275Y04952D02*
X10295Y04972D01*
X10315Y04952*
X10295Y04932*
X10275Y04952*
X09956Y04901D02*
X09976Y04921D01*
X09996Y04901*
X09976Y04881*
X09956Y04901*
X09704Y04996D02*
X09724Y05016D01*
X09744Y04996*
X09724Y04976*
X09704Y04996*
X09956Y04948D02*
X09976Y04968D01*
X09996Y04948*
X09976Y04928*
X09956Y04948*
Y05D02*
X09976Y0502D01*
X09996Y05*
X09976Y0498*
X09956Y05*
X1035Y03692D02*
X1037Y03712D01*
X1039Y03692*
X1037Y03672*
X1035Y03692*
X11023Y04763D02*
X11043Y04783D01*
X11063Y04763*
X11043Y04743*
X11023Y04763*
X10672D02*
X10692Y04783D01*
X10712Y04763*
X10692Y04743*
X10672Y04763*
X09704Y04944D02*
X09724Y04964D01*
X09744Y04944*
X09724Y04924*
X09704Y04944*
X09743Y05098D02*
X09763Y05118D01*
X09783Y05098*
X09763Y05078*
X09743Y05098*
X09704Y05048D02*
X09724Y05068D01*
X09744Y05048*
X09724Y05028*
X09704Y05048*
Y04598D02*
X09724Y04618D01*
X09744Y04598*
X09724Y04578*
X09704Y04598*
X09645Y04385D02*
X09665Y04405D01*
X09685Y04385*
X09665Y04365*
X09645Y04385*
X09759Y04535D02*
X09779Y04555D01*
X09799Y04535*
X09779Y04515*
X09759Y04535*
X09736Y04104D02*
X09756Y04124D01*
X09776Y04104*
X09756Y04084*
X09736Y04104*
X11109Y04968D02*
X11129Y04988D01*
X11149Y04968*
X11129Y04948*
X11109Y04968*
X09523Y03511D02*
X09543Y03531D01*
X09563Y03511*
X09543Y03491*
X09523Y03511*
X08828Y04744D02*
X08848Y04764D01*
X08868Y04744*
X08848Y04724*
X08828Y04744*
Y04696D02*
X08848Y04716D01*
X08868Y04696*
X08848Y04676*
X08828Y04696*
Y04803D02*
X08848Y04823D01*
X08868Y04803*
X08848Y04783*
X08828Y04803*
X10186Y03838D02*
X10206Y03858D01*
X10226Y03838*
X10206Y03818*
X10186Y03838*
X0867Y04557D02*
X0869Y04577D01*
X0871Y04557*
X0869Y04537*
X0867Y04557*
X08572D02*
X08592Y04577D01*
X08612Y04557*
X08592Y04537*
X08572Y04557*
X09537Y04685D02*
X09557Y04705D01*
X09577Y04685*
X09557Y04665*
X09537Y04685*
X09704Y04724D02*
X09724Y04744D01*
X09744Y04724*
X09724Y04704*
X09704Y04724*
X09733Y04685D02*
X09753Y04705D01*
X09773Y04685*
X09753Y04665*
X09733Y04685*
X09704Y04649D02*
X09724Y04669D01*
X09744Y04649*
X09724Y04629*
X09704Y04649*
X08483Y05196D02*
X08503Y05216D01*
X08523Y05196*
X08503Y05176*
X08483Y05196*
X08899Y03614D02*
X08919Y03634D01*
X08939Y03614*
X08919Y03594*
X08899Y03614*
X08395Y04005D02*
X08415Y04025D01*
X08435Y04005*
X08415Y03985*
X08395Y04005*
X08958Y03848D02*
X08978Y03868D01*
X08998Y03848*
X08978Y03828*
X08958Y03848*
X08995Y03917D02*
X09015Y03937D01*
X09035Y03917*
X09015Y03897*
X08995Y03917*
X07981Y04458D02*
X08001Y04478D01*
X08021Y04458*
X08001Y04438*
X07981Y04458*
X0868Y05393D02*
X087Y05413D01*
X0872Y05393*
X087Y05373*
X0868Y05393*
X10708Y05D02*
X10728Y0502D01*
X10748Y05*
X10728Y0498*
X10708Y05*
X09704Y04547D02*
X09724Y04567D01*
X09744Y04547*
X09724Y04527*
X09704Y04547*
X09487Y04714D02*
X09507Y04734D01*
X09527Y04714*
X09507Y04694*
X09487Y04714*
X11072Y05206D02*
X11092Y05226D01*
X11112Y05206*
X11092Y05186*
X11072Y05206*
X09704Y04846D02*
X09724Y04866D01*
X09744Y04846*
X09724Y04826*
X09704Y04846*
Y04897D02*
X09724Y04917D01*
X09744Y04897*
X09724Y04877*
X09704Y04897*
G54D117*
X09944Y05409D02*
D01*
X09944Y0541*
X09944Y05411*
X09944Y05413*
X09943Y05414*
X09943Y05415*
X09942Y05417*
X09942Y05418*
X09941Y05419*
X0994Y0542*
X09939Y05421*
X09938Y05422*
X09937Y05423*
X09936Y05424*
X09935Y05425*
X09934Y05426*
X09933Y05427*
X09931Y05427*
X0993Y05428*
X09929Y05428*
X09927Y05428*
X09926Y05428*
X09925Y05429*
X09923*
X09922Y05428*
X0992Y05428*
X09919Y05428*
X09918Y05428*
X09916Y05427*
X09915Y05427*
X09914Y05426*
X09913Y05425*
X09912Y05424*
X09911Y05423*
X0991Y05422*
X09909Y05421*
X09908Y0542*
X09907Y05419*
X09906Y05418*
X09906Y05417*
X09905Y05415*
X09905Y05414*
X09904Y05413*
X09904Y05411*
X09904Y0541*
X09904Y05409*
X09904Y05407*
X09904Y05406*
X09904Y05404*
X09905Y05403*
X09905Y05402*
X09906Y054*
X09906Y05399*
X09907Y05398*
X09908Y05397*
X09909Y05396*
X0991Y05395*
X09911Y05394*
X09912Y05393*
X09913Y05392*
X09914Y05391*
X09915Y05391*
X09916Y0539*
X09918Y0539*
X09919Y05389*
X0992Y05389*
X09922Y05389*
X09923Y05389*
X09925*
X09926Y05389*
X09927Y05389*
X09929Y05389*
X0993Y0539*
X09931Y0539*
X09933Y05391*
X09934Y05391*
X09935Y05392*
X09936Y05393*
X09937Y05394*
X09938Y05395*
X09939Y05396*
X0994Y05397*
X09941Y05398*
X09942Y05399*
X09942Y054*
X09943Y05402*
X09943Y05403*
X09944Y05404*
X09944Y05406*
X09944Y05407*
X09944Y05409*
Y05309D02*
D01*
X09944Y0531*
X09944Y05311*
X09944Y05313*
X09943Y05314*
X09943Y05315*
X09942Y05317*
X09942Y05318*
X09941Y05319*
X0994Y0532*
X09939Y05321*
X09938Y05322*
X09937Y05323*
X09936Y05324*
X09935Y05325*
X09934Y05326*
X09933Y05327*
X09931Y05327*
X0993Y05328*
X09929Y05328*
X09927Y05328*
X09926Y05328*
X09925Y05329*
X09923*
X09922Y05328*
X0992Y05328*
X09919Y05328*
X09918Y05328*
X09916Y05327*
X09915Y05327*
X09914Y05326*
X09913Y05325*
X09912Y05324*
X09911Y05323*
X0991Y05322*
X09909Y05321*
X09908Y0532*
X09907Y05319*
X09906Y05318*
X09906Y05317*
X09905Y05315*
X09905Y05314*
X09904Y05313*
X09904Y05311*
X09904Y0531*
X09904Y05309*
X09904Y05307*
X09904Y05306*
X09904Y05304*
X09905Y05303*
X09905Y05302*
X09906Y053*
X09906Y05299*
X09907Y05298*
X09908Y05297*
X09909Y05296*
X0991Y05295*
X09911Y05294*
X09912Y05293*
X09913Y05292*
X09914Y05291*
X09915Y05291*
X09916Y0529*
X09918Y0529*
X09919Y05289*
X0992Y05289*
X09922Y05289*
X09923Y05289*
X09925*
X09926Y05289*
X09927Y05289*
X09929Y05289*
X0993Y0529*
X09931Y0529*
X09933Y05291*
X09934Y05291*
X09935Y05292*
X09936Y05293*
X09937Y05294*
X09938Y05295*
X09939Y05296*
X0994Y05297*
X09941Y05298*
X09942Y05299*
X09942Y053*
X09943Y05302*
X09943Y05303*
X09944Y05304*
X09944Y05306*
X09944Y05307*
X09944Y05309*
Y05209D02*
D01*
X09944Y0521*
X09944Y05211*
X09944Y05213*
X09943Y05214*
X09943Y05215*
X09942Y05217*
X09942Y05218*
X09941Y05219*
X0994Y0522*
X09939Y05221*
X09938Y05222*
X09937Y05223*
X09936Y05224*
X09935Y05225*
X09934Y05226*
X09933Y05227*
X09931Y05227*
X0993Y05228*
X09929Y05228*
X09927Y05228*
X09926Y05228*
X09925Y05229*
X09923*
X09922Y05228*
X0992Y05228*
X09919Y05228*
X09918Y05228*
X09916Y05227*
X09915Y05227*
X09914Y05226*
X09913Y05225*
X09912Y05224*
X09911Y05223*
X0991Y05222*
X09909Y05221*
X09908Y0522*
X09907Y05219*
X09906Y05218*
X09906Y05217*
X09905Y05215*
X09905Y05214*
X09904Y05213*
X09904Y05211*
X09904Y0521*
X09904Y05209*
X09904Y05207*
X09904Y05206*
X09904Y05204*
X09905Y05203*
X09905Y05202*
X09906Y052*
X09906Y05199*
X09907Y05198*
X09908Y05197*
X09909Y05196*
X0991Y05195*
X09911Y05194*
X09912Y05193*
X09913Y05192*
X09914Y05191*
X09915Y05191*
X09916Y0519*
X09918Y0519*
X09919Y05189*
X0992Y05189*
X09922Y05189*
X09923Y05189*
X09925*
X09926Y05189*
X09927Y05189*
X09929Y05189*
X0993Y0519*
X09931Y0519*
X09933Y05191*
X09934Y05191*
X09935Y05192*
X09936Y05193*
X09937Y05194*
X09938Y05195*
X09939Y05196*
X0994Y05197*
X09941Y05198*
X09942Y05199*
X09942Y052*
X09943Y05202*
X09943Y05203*
X09944Y05204*
X09944Y05206*
X09944Y05207*
X09944Y05209*
Y05109D02*
D01*
X09944Y0511*
X09944Y05111*
X09944Y05113*
X09943Y05114*
X09943Y05115*
X09942Y05117*
X09942Y05118*
X09941Y05119*
X0994Y0512*
X09939Y05121*
X09938Y05122*
X09937Y05123*
X09936Y05124*
X09935Y05125*
X09934Y05126*
X09933Y05127*
X09931Y05127*
X0993Y05128*
X09929Y05128*
X09927Y05128*
X09926Y05128*
X09925Y05129*
X09923*
X09922Y05128*
X0992Y05128*
X09919Y05128*
X09918Y05128*
X09916Y05127*
X09915Y05127*
X09914Y05126*
X09913Y05125*
X09912Y05124*
X09911Y05123*
X0991Y05122*
X09909Y05121*
X09908Y0512*
X09907Y05119*
X09906Y05118*
X09906Y05117*
X09905Y05115*
X09905Y05114*
X09904Y05113*
X09904Y05111*
X09904Y0511*
X09904Y05109*
X09904Y05107*
X09904Y05106*
X09904Y05104*
X09905Y05103*
X09905Y05102*
X09906Y051*
X09906Y05099*
X09907Y05098*
X09908Y05097*
X09909Y05096*
X0991Y05095*
X09911Y05094*
X09912Y05093*
X09913Y05092*
X09914Y05091*
X09915Y05091*
X09916Y0509*
X09918Y0509*
X09919Y05089*
X0992Y05089*
X09922Y05089*
X09923Y05089*
X09925*
X09926Y05089*
X09927Y05089*
X09929Y05089*
X0993Y0509*
X09931Y0509*
X09933Y05091*
X09934Y05091*
X09935Y05092*
X09936Y05093*
X09937Y05094*
X09938Y05095*
X09939Y05096*
X0994Y05097*
X09941Y05098*
X09942Y05099*
X09942Y051*
X09943Y05102*
X09943Y05103*
X09944Y05104*
X09944Y05106*
X09944Y05107*
X09944Y05109*
X10147Y03893D02*
D01*
X10147Y03895*
X10147Y03896*
X10147Y03897*
X10147Y03899*
X10146Y039*
X10146Y03901*
X10145Y03903*
X10144Y03904*
X10144Y03905*
X10143Y03906*
X10142Y03907*
X10141Y03908*
X1014Y03909*
X10139Y0391*
X10137Y03911*
X10136Y03911*
X10135Y03912*
X10134Y03912*
X10132Y03913*
X10131Y03913*
X1013Y03913*
X10128Y03913*
X10127*
X10125Y03913*
X10124Y03913*
X10123Y03913*
X10121Y03912*
X1012Y03912*
X10119Y03911*
X10117Y03911*
X10116Y0391*
X10115Y03909*
X10114Y03908*
X10113Y03907*
X10112Y03906*
X10111Y03905*
X1011Y03904*
X1011Y03903*
X10109Y03901*
X10109Y039*
X10108Y03899*
X10108Y03897*
X10108Y03896*
X10108Y03895*
X10107Y03893*
X10108Y03892*
X10108Y0389*
X10108Y03889*
X10108Y03888*
X10109Y03886*
X10109Y03885*
X1011Y03884*
X1011Y03883*
X10111Y03881*
X10112Y0388*
X10113Y03879*
X10114Y03878*
X10115Y03877*
X10116Y03877*
X10117Y03876*
X10119Y03875*
X1012Y03875*
X10121Y03874*
X10123Y03874*
X10124Y03874*
X10125Y03873*
X10127Y03873*
X10128*
X1013Y03873*
X10131Y03874*
X10132Y03874*
X10134Y03874*
X10135Y03875*
X10136Y03875*
X10137Y03876*
X10139Y03877*
X1014Y03877*
X10141Y03878*
X10142Y03879*
X10143Y0388*
X10144Y03881*
X10144Y03883*
X10145Y03884*
X10146Y03885*
X10146Y03886*
X10147Y03888*
X10147Y03889*
X10147Y0389*
X10147Y03892*
X10147Y03893*
X10049D02*
D01*
X10049Y03895*
X10049Y03896*
X10049Y03897*
X10048Y03899*
X10048Y039*
X10047Y03901*
X10047Y03903*
X10046Y03904*
X10045Y03905*
X10044Y03906*
X10043Y03907*
X10042Y03908*
X10041Y03909*
X1004Y0391*
X10039Y03911*
X10038Y03911*
X10037Y03912*
X10035Y03912*
X10034Y03913*
X10033Y03913*
X10031Y03913*
X1003Y03913*
X10028*
X10027Y03913*
X10026Y03913*
X10024Y03913*
X10023Y03912*
X10022Y03912*
X1002Y03911*
X10019Y03911*
X10018Y0391*
X10017Y03909*
X10016Y03908*
X10015Y03907*
X10014Y03906*
X10013Y03905*
X10012Y03904*
X10011Y03903*
X10011Y03901*
X1001Y039*
X1001Y03899*
X10009Y03897*
X10009Y03896*
X10009Y03895*
X10009Y03893*
X10009Y03892*
X10009Y0389*
X10009Y03889*
X1001Y03888*
X1001Y03886*
X10011Y03885*
X10011Y03884*
X10012Y03883*
X10013Y03881*
X10014Y0388*
X10015Y03879*
X10016Y03878*
X10017Y03877*
X10018Y03877*
X10019Y03876*
X1002Y03875*
X10022Y03875*
X10023Y03874*
X10024Y03874*
X10026Y03874*
X10027Y03873*
X10028Y03873*
X1003*
X10031Y03873*
X10033Y03874*
X10034Y03874*
X10035Y03874*
X10037Y03875*
X10038Y03875*
X10039Y03876*
X1004Y03877*
X10041Y03877*
X10042Y03878*
X10043Y03879*
X10044Y0388*
X10045Y03881*
X10046Y03883*
X10047Y03884*
X10047Y03885*
X10048Y03886*
X10048Y03888*
X10049Y03889*
X10049Y0389*
X10049Y03892*
X10049Y03893*
X09951D02*
D01*
X09951Y03895*
X0995Y03896*
X0995Y03897*
X0995Y03899*
X09949Y039*
X09949Y03901*
X09948Y03903*
X09948Y03904*
X09947Y03905*
X09946Y03906*
X09945Y03907*
X09944Y03908*
X09943Y03909*
X09942Y0391*
X09941Y03911*
X09939Y03911*
X09938Y03912*
X09937Y03912*
X09935Y03913*
X09934Y03913*
X09933Y03913*
X09931Y03913*
X0993*
X09929Y03913*
X09927Y03913*
X09926Y03913*
X09924Y03912*
X09923Y03912*
X09922Y03911*
X09921Y03911*
X09919Y0391*
X09918Y03909*
X09917Y03908*
X09916Y03907*
X09915Y03906*
X09914Y03905*
X09914Y03904*
X09913Y03903*
X09912Y03901*
X09912Y039*
X09911Y03899*
X09911Y03897*
X09911Y03896*
X09911Y03895*
X09911Y03893*
X09911Y03892*
X09911Y0389*
X09911Y03889*
X09911Y03888*
X09912Y03886*
X09912Y03885*
X09913Y03884*
X09914Y03883*
X09914Y03881*
X09915Y0388*
X09916Y03879*
X09917Y03878*
X09918Y03877*
X09919Y03877*
X09921Y03876*
X09922Y03875*
X09923Y03875*
X09924Y03874*
X09926Y03874*
X09927Y03874*
X09929Y03873*
X0993Y03873*
X09931*
X09933Y03873*
X09934Y03874*
X09935Y03874*
X09937Y03874*
X09938Y03875*
X09939Y03875*
X09941Y03876*
X09942Y03877*
X09943Y03877*
X09944Y03878*
X09945Y03879*
X09946Y0388*
X09947Y03881*
X09948Y03883*
X09948Y03884*
X09949Y03885*
X09949Y03886*
X0995Y03888*
X0995Y03889*
X0995Y0389*
X09951Y03892*
X09951Y03893*
X09852D02*
D01*
X09852Y03895*
X09852Y03896*
X09852Y03897*
X09851Y03899*
X09851Y039*
X0985Y03901*
X0985Y03903*
X09849Y03904*
X09848Y03905*
X09847Y03906*
X09847Y03907*
X09846Y03908*
X09844Y03909*
X09843Y0391*
X09842Y03911*
X09841Y03911*
X0984Y03912*
X09838Y03912*
X09837Y03913*
X09836Y03913*
X09834Y03913*
X09833Y03913*
X09831*
X0983Y03913*
X09829Y03913*
X09827Y03913*
X09826Y03912*
X09825Y03912*
X09823Y03911*
X09822Y03911*
X09821Y0391*
X0982Y03909*
X09819Y03908*
X09818Y03907*
X09817Y03906*
X09816Y03905*
X09815Y03904*
X09815Y03903*
X09814Y03901*
X09813Y039*
X09813Y03899*
X09813Y03897*
X09812Y03896*
X09812Y03895*
X09812Y03893*
X09812Y03892*
X09812Y0389*
X09813Y03889*
X09813Y03888*
X09813Y03886*
X09814Y03885*
X09815Y03884*
X09815Y03883*
X09816Y03881*
X09817Y0388*
X09818Y03879*
X09819Y03878*
X0982Y03877*
X09821Y03877*
X09822Y03876*
X09823Y03875*
X09825Y03875*
X09826Y03874*
X09827Y03874*
X09829Y03874*
X0983Y03873*
X09831Y03873*
X09833*
X09834Y03873*
X09836Y03874*
X09837Y03874*
X09838Y03874*
X0984Y03875*
X09841Y03875*
X09842Y03876*
X09843Y03877*
X09844Y03877*
X09846Y03878*
X09847Y03879*
X09847Y0388*
X09848Y03881*
X09849Y03883*
X0985Y03884*
X0985Y03885*
X09851Y03886*
X09851Y03888*
X09852Y03889*
X09852Y0389*
X09852Y03892*
X09852Y03893*
X09754D02*
D01*
X09754Y03895*
X09754Y03896*
X09753Y03897*
X09753Y03899*
X09753Y039*
X09752Y03901*
X09751Y03903*
X09751Y03904*
X0975Y03905*
X09749Y03906*
X09748Y03907*
X09747Y03908*
X09746Y03909*
X09745Y0391*
X09744Y03911*
X09743Y03911*
X09741Y03912*
X0974Y03912*
X09739Y03913*
X09737Y03913*
X09736Y03913*
X09734Y03913*
X09733*
X09732Y03913*
X0973Y03913*
X09729Y03913*
X09728Y03912*
X09726Y03912*
X09725Y03911*
X09724Y03911*
X09723Y0391*
X09721Y03909*
X0972Y03908*
X09719Y03907*
X09718Y03906*
X09718Y03905*
X09717Y03904*
X09716Y03903*
X09715Y03901*
X09715Y039*
X09715Y03899*
X09714Y03897*
X09714Y03896*
X09714Y03895*
X09714Y03893*
X09714Y03892*
X09714Y0389*
X09714Y03889*
X09715Y03888*
X09715Y03886*
X09715Y03885*
X09716Y03884*
X09717Y03883*
X09718Y03881*
X09718Y0388*
X09719Y03879*
X0972Y03878*
X09721Y03877*
X09723Y03877*
X09724Y03876*
X09725Y03875*
X09726Y03875*
X09728Y03874*
X09729Y03874*
X0973Y03874*
X09732Y03873*
X09733Y03873*
X09734*
X09736Y03873*
X09737Y03874*
X09739Y03874*
X0974Y03874*
X09741Y03875*
X09743Y03875*
X09744Y03876*
X09745Y03877*
X09746Y03877*
X09747Y03878*
X09748Y03879*
X09749Y0388*
X0975Y03881*
X09751Y03883*
X09751Y03884*
X09752Y03885*
X09753Y03886*
X09753Y03888*
X09753Y03889*
X09754Y0389*
X09754Y03892*
X09754Y03893*
X09655D02*
D01*
X09655Y03895*
X09655Y03896*
X09655Y03897*
X09655Y03899*
X09654Y039*
X09654Y03901*
X09653Y03903*
X09652Y03904*
X09652Y03905*
X09651Y03906*
X0965Y03907*
X09649Y03908*
X09648Y03909*
X09647Y0391*
X09645Y03911*
X09644Y03911*
X09643Y03912*
X09642Y03912*
X0964Y03913*
X09639Y03913*
X09637Y03913*
X09636Y03913*
X09635*
X09633Y03913*
X09632Y03913*
X0963Y03913*
X09629Y03912*
X09628Y03912*
X09627Y03911*
X09625Y03911*
X09624Y0391*
X09623Y03909*
X09622Y03908*
X09621Y03907*
X0962Y03906*
X09619Y03905*
X09618Y03904*
X09618Y03903*
X09617Y03901*
X09617Y039*
X09616Y03899*
X09616Y03897*
X09616Y03896*
X09615Y03895*
X09615Y03893*
X09615Y03892*
X09616Y0389*
X09616Y03889*
X09616Y03888*
X09617Y03886*
X09617Y03885*
X09618Y03884*
X09618Y03883*
X09619Y03881*
X0962Y0388*
X09621Y03879*
X09622Y03878*
X09623Y03877*
X09624Y03877*
X09625Y03876*
X09627Y03875*
X09628Y03875*
X09629Y03874*
X0963Y03874*
X09632Y03874*
X09633Y03873*
X09635Y03873*
X09636*
X09637Y03873*
X09639Y03874*
X0964Y03874*
X09642Y03874*
X09643Y03875*
X09644Y03875*
X09645Y03876*
X09647Y03877*
X09648Y03877*
X09649Y03878*
X0965Y03879*
X09651Y0388*
X09652Y03881*
X09652Y03883*
X09653Y03884*
X09654Y03885*
X09654Y03886*
X09655Y03888*
X09655Y03889*
X09655Y0389*
X09655Y03892*
X09655Y03893*
X10147Y03631D02*
D01*
X10147Y03633*
X10147Y03634*
X10147Y03636*
X10147Y03637*
X10146Y03638*
X10146Y0364*
X10145Y03641*
X10144Y03642*
X10144Y03643*
X10143Y03644*
X10142Y03645*
X10141Y03646*
X1014Y03647*
X10139Y03648*
X10137Y03649*
X10136Y03649*
X10135Y0365*
X10134Y0365*
X10132Y03651*
X10131Y03651*
X1013Y03651*
X10128Y03651*
X10127*
X10125Y03651*
X10124Y03651*
X10123Y03651*
X10121Y0365*
X1012Y0365*
X10119Y03649*
X10117Y03649*
X10116Y03648*
X10115Y03647*
X10114Y03646*
X10113Y03645*
X10112Y03644*
X10111Y03643*
X1011Y03642*
X1011Y03641*
X10109Y0364*
X10109Y03638*
X10108Y03637*
X10108Y03636*
X10108Y03634*
X10108Y03633*
X10107Y03631*
X10108Y0363*
X10108Y03629*
X10108Y03627*
X10108Y03626*
X10109Y03625*
X10109Y03623*
X1011Y03622*
X1011Y03621*
X10111Y0362*
X10112Y03619*
X10113Y03617*
X10114Y03617*
X10115Y03616*
X10116Y03615*
X10117Y03614*
X10119Y03613*
X1012Y03613*
X10121Y03612*
X10123Y03612*
X10124Y03612*
X10125Y03611*
X10127Y03611*
X10128*
X1013Y03611*
X10131Y03612*
X10132Y03612*
X10134Y03612*
X10135Y03613*
X10136Y03613*
X10137Y03614*
X10139Y03615*
X1014Y03616*
X10141Y03617*
X10142Y03617*
X10143Y03619*
X10144Y0362*
X10144Y03621*
X10145Y03622*
X10146Y03623*
X10146Y03625*
X10147Y03626*
X10147Y03627*
X10147Y03629*
X10147Y0363*
X10147Y03631*
X10049D02*
D01*
X10049Y03633*
X10049Y03634*
X10049Y03636*
X10048Y03637*
X10048Y03638*
X10047Y0364*
X10047Y03641*
X10046Y03642*
X10045Y03643*
X10044Y03644*
X10043Y03645*
X10042Y03646*
X10041Y03647*
X1004Y03648*
X10039Y03649*
X10038Y03649*
X10037Y0365*
X10035Y0365*
X10034Y03651*
X10033Y03651*
X10031Y03651*
X1003Y03651*
X10028*
X10027Y03651*
X10026Y03651*
X10024Y03651*
X10023Y0365*
X10022Y0365*
X1002Y03649*
X10019Y03649*
X10018Y03648*
X10017Y03647*
X10016Y03646*
X10015Y03645*
X10014Y03644*
X10013Y03643*
X10012Y03642*
X10011Y03641*
X10011Y0364*
X1001Y03638*
X1001Y03637*
X10009Y03636*
X10009Y03634*
X10009Y03633*
X10009Y03631*
X10009Y0363*
X10009Y03629*
X10009Y03627*
X1001Y03626*
X1001Y03625*
X10011Y03623*
X10011Y03622*
X10012Y03621*
X10013Y0362*
X10014Y03619*
X10015Y03617*
X10016Y03617*
X10017Y03616*
X10018Y03615*
X10019Y03614*
X1002Y03613*
X10022Y03613*
X10023Y03612*
X10024Y03612*
X10026Y03612*
X10027Y03611*
X10028Y03611*
X1003*
X10031Y03611*
X10033Y03612*
X10034Y03612*
X10035Y03612*
X10037Y03613*
X10038Y03613*
X10039Y03614*
X1004Y03615*
X10041Y03616*
X10042Y03617*
X10043Y03617*
X10044Y03619*
X10045Y0362*
X10046Y03621*
X10047Y03622*
X10047Y03623*
X10048Y03625*
X10048Y03626*
X10049Y03627*
X10049Y03629*
X10049Y0363*
X10049Y03631*
X09951D02*
D01*
X09951Y03633*
X0995Y03634*
X0995Y03636*
X0995Y03637*
X09949Y03638*
X09949Y0364*
X09948Y03641*
X09948Y03642*
X09947Y03643*
X09946Y03644*
X09945Y03645*
X09944Y03646*
X09943Y03647*
X09942Y03648*
X09941Y03649*
X09939Y03649*
X09938Y0365*
X09937Y0365*
X09935Y03651*
X09934Y03651*
X09933Y03651*
X09931Y03651*
X0993*
X09929Y03651*
X09927Y03651*
X09926Y03651*
X09924Y0365*
X09923Y0365*
X09922Y03649*
X09921Y03649*
X09919Y03648*
X09918Y03647*
X09917Y03646*
X09916Y03645*
X09915Y03644*
X09914Y03643*
X09914Y03642*
X09913Y03641*
X09912Y0364*
X09912Y03638*
X09911Y03637*
X09911Y03636*
X09911Y03634*
X09911Y03633*
X09911Y03631*
X09911Y0363*
X09911Y03629*
X09911Y03627*
X09911Y03626*
X09912Y03625*
X09912Y03623*
X09913Y03622*
X09914Y03621*
X09914Y0362*
X09915Y03619*
X09916Y03617*
X09917Y03617*
X09918Y03616*
X09919Y03615*
X09921Y03614*
X09922Y03613*
X09923Y03613*
X09924Y03612*
X09926Y03612*
X09927Y03612*
X09929Y03611*
X0993Y03611*
X09931*
X09933Y03611*
X09934Y03612*
X09935Y03612*
X09937Y03612*
X09938Y03613*
X09939Y03613*
X09941Y03614*
X09942Y03615*
X09943Y03616*
X09944Y03617*
X09945Y03617*
X09946Y03619*
X09947Y0362*
X09948Y03621*
X09948Y03622*
X09949Y03623*
X09949Y03625*
X0995Y03626*
X0995Y03627*
X0995Y03629*
X09951Y0363*
X09951Y03631*
X09852D02*
D01*
X09852Y03633*
X09852Y03634*
X09852Y03636*
X09851Y03637*
X09851Y03638*
X0985Y0364*
X0985Y03641*
X09849Y03642*
X09848Y03643*
X09847Y03644*
X09847Y03645*
X09846Y03646*
X09844Y03647*
X09843Y03648*
X09842Y03649*
X09841Y03649*
X0984Y0365*
X09838Y0365*
X09837Y03651*
X09836Y03651*
X09834Y03651*
X09833Y03651*
X09831*
X0983Y03651*
X09829Y03651*
X09827Y03651*
X09826Y0365*
X09825Y0365*
X09823Y03649*
X09822Y03649*
X09821Y03648*
X0982Y03647*
X09819Y03646*
X09818Y03645*
X09817Y03644*
X09816Y03643*
X09815Y03642*
X09815Y03641*
X09814Y0364*
X09813Y03638*
X09813Y03637*
X09813Y03636*
X09812Y03634*
X09812Y03633*
X09812Y03631*
X09812Y0363*
X09812Y03629*
X09813Y03627*
X09813Y03626*
X09813Y03625*
X09814Y03623*
X09815Y03622*
X09815Y03621*
X09816Y0362*
X09817Y03619*
X09818Y03617*
X09819Y03617*
X0982Y03616*
X09821Y03615*
X09822Y03614*
X09823Y03613*
X09825Y03613*
X09826Y03612*
X09827Y03612*
X09829Y03612*
X0983Y03611*
X09831Y03611*
X09833*
X09834Y03611*
X09836Y03612*
X09837Y03612*
X09838Y03612*
X0984Y03613*
X09841Y03613*
X09842Y03614*
X09843Y03615*
X09844Y03616*
X09846Y03617*
X09847Y03617*
X09847Y03619*
X09848Y0362*
X09849Y03621*
X0985Y03622*
X0985Y03623*
X09851Y03625*
X09851Y03626*
X09852Y03627*
X09852Y03629*
X09852Y0363*
X09852Y03631*
X09754D02*
D01*
X09754Y03633*
X09754Y03634*
X09753Y03636*
X09753Y03637*
X09753Y03638*
X09752Y0364*
X09751Y03641*
X09751Y03642*
X0975Y03643*
X09749Y03644*
X09748Y03645*
X09747Y03646*
X09746Y03647*
X09745Y03648*
X09744Y03649*
X09743Y03649*
X09741Y0365*
X0974Y0365*
X09739Y03651*
X09737Y03651*
X09736Y03651*
X09734Y03651*
X09733*
X09732Y03651*
X0973Y03651*
X09729Y03651*
X09728Y0365*
X09726Y0365*
X09725Y03649*
X09724Y03649*
X09723Y03648*
X09721Y03647*
X0972Y03646*
X09719Y03645*
X09718Y03644*
X09718Y03643*
X09717Y03642*
X09716Y03641*
X09715Y0364*
X09715Y03638*
X09715Y03637*
X09714Y03636*
X09714Y03634*
X09714Y03633*
X09714Y03631*
X09714Y0363*
X09714Y03629*
X09714Y03627*
X09715Y03626*
X09715Y03625*
X09715Y03623*
X09716Y03622*
X09717Y03621*
X09718Y0362*
X09718Y03619*
X09719Y03617*
X0972Y03617*
X09721Y03616*
X09723Y03615*
X09724Y03614*
X09725Y03613*
X09726Y03613*
X09728Y03612*
X09729Y03612*
X0973Y03612*
X09732Y03611*
X09733Y03611*
X09734*
X09736Y03611*
X09737Y03612*
X09739Y03612*
X0974Y03612*
X09741Y03613*
X09743Y03613*
X09744Y03614*
X09745Y03615*
X09746Y03616*
X09747Y03617*
X09748Y03617*
X09749Y03619*
X0975Y0362*
X09751Y03621*
X09751Y03622*
X09752Y03623*
X09753Y03625*
X09753Y03626*
X09753Y03627*
X09754Y03629*
X09754Y0363*
X09754Y03631*
X09655D02*
D01*
X09655Y03633*
X09655Y03634*
X09655Y03636*
X09655Y03637*
X09654Y03638*
X09654Y0364*
X09653Y03641*
X09652Y03642*
X09652Y03643*
X09651Y03644*
X0965Y03645*
X09649Y03646*
X09648Y03647*
X09647Y03648*
X09645Y03649*
X09644Y03649*
X09643Y0365*
X09642Y0365*
X0964Y03651*
X09639Y03651*
X09637Y03651*
X09636Y03651*
X09635*
X09633Y03651*
X09632Y03651*
X0963Y03651*
X09629Y0365*
X09628Y0365*
X09627Y03649*
X09625Y03649*
X09624Y03648*
X09623Y03647*
X09622Y03646*
X09621Y03645*
X0962Y03644*
X09619Y03643*
X09618Y03642*
X09618Y03641*
X09617Y0364*
X09617Y03638*
X09616Y03637*
X09616Y03636*
X09616Y03634*
X09615Y03633*
X09615Y03631*
X09615Y0363*
X09616Y03629*
X09616Y03627*
X09616Y03626*
X09617Y03625*
X09617Y03623*
X09618Y03622*
X09618Y03621*
X09619Y0362*
X0962Y03619*
X09621Y03617*
X09622Y03617*
X09623Y03616*
X09624Y03615*
X09625Y03614*
X09627Y03613*
X09628Y03613*
X09629Y03612*
X0963Y03612*
X09632Y03612*
X09633Y03611*
X09635Y03611*
X09636*
X09637Y03611*
X09639Y03612*
X0964Y03612*
X09642Y03612*
X09643Y03613*
X09644Y03613*
X09645Y03614*
X09647Y03615*
X09648Y03616*
X09649Y03617*
X0965Y03617*
X09651Y03619*
X09652Y0362*
X09652Y03621*
X09653Y03622*
X09654Y03623*
X09654Y03625*
X09655Y03626*
X09655Y03627*
X09655Y03629*
X09655Y0363*
X09655Y03631*
X10718Y05347D02*
D01*
X10718Y05348*
X10718Y0535*
X10718Y05351*
X10718Y05353*
X10717Y05354*
X10717Y05355*
X10716Y05356*
X10715Y05358*
X10714Y05359*
X10714Y0536*
X10713Y05361*
X10712Y05362*
X10711Y05363*
X1071Y05364*
X10708Y05364*
X10707Y05365*
X10706Y05366*
X10704Y05366*
X10703Y05367*
X10702Y05367*
X107Y05367*
X10699Y05367*
X10698*
X10696Y05367*
X10695Y05367*
X10693Y05367*
X10692Y05366*
X10691Y05366*
X1069Y05365*
X10688Y05364*
X10687Y05364*
X10686Y05363*
X10685Y05362*
X10684Y05361*
X10683Y0536*
X10682Y05359*
X10681Y05358*
X10681Y05356*
X1068Y05355*
X1068Y05354*
X10679Y05353*
X10679Y05351*
X10679Y0535*
X10678Y05348*
X10678Y05347*
X10678Y05346*
X10679Y05344*
X10679Y05343*
X10679Y05342*
X1068Y0534*
X1068Y05339*
X10681Y05338*
X10681Y05337*
X10682Y05335*
X10683Y05334*
X10684Y05333*
X10685Y05332*
X10686Y05331*
X10687Y05331*
X10688Y0533*
X1069Y05329*
X10691Y05329*
X10692Y05328*
X10693Y05328*
X10695Y05327*
X10696Y05327*
X10698Y05327*
X10699*
X107Y05327*
X10702Y05327*
X10703Y05328*
X10704Y05328*
X10706Y05329*
X10707Y05329*
X10708Y0533*
X1071Y05331*
X10711Y05331*
X10712Y05332*
X10713Y05333*
X10714Y05334*
X10714Y05335*
X10715Y05337*
X10716Y05338*
X10717Y05339*
X10717Y0534*
X10718Y05342*
X10718Y05343*
X10718Y05344*
X10718Y05346*
X10718Y05347*
X10817D02*
D01*
X10817Y05348*
X10817Y0535*
X10816Y05351*
X10816Y05353*
X10816Y05354*
X10815Y05355*
X10814Y05356*
X10814Y05358*
X10813Y05359*
X10812Y0536*
X10811Y05361*
X1081Y05362*
X10809Y05363*
X10808Y05364*
X10807Y05364*
X10806Y05365*
X10804Y05366*
X10803Y05366*
X10802Y05367*
X108Y05367*
X10799Y05367*
X10797Y05367*
X10796*
X10795Y05367*
X10793Y05367*
X10792Y05367*
X10791Y05366*
X10789Y05366*
X10788Y05365*
X10787Y05364*
X10786Y05364*
X10784Y05363*
X10783Y05362*
X10782Y05361*
X10781Y0536*
X10781Y05359*
X1078Y05358*
X10779Y05356*
X10778Y05355*
X10778Y05354*
X10778Y05353*
X10777Y05351*
X10777Y0535*
X10777Y05348*
X10777Y05347*
X10777Y05346*
X10777Y05344*
X10777Y05343*
X10778Y05342*
X10778Y0534*
X10778Y05339*
X10779Y05338*
X1078Y05337*
X10781Y05335*
X10781Y05334*
X10782Y05333*
X10783Y05332*
X10784Y05331*
X10786Y05331*
X10787Y0533*
X10788Y05329*
X10789Y05329*
X10791Y05328*
X10792Y05328*
X10793Y05327*
X10795Y05327*
X10796Y05327*
X10797*
X10799Y05327*
X108Y05327*
X10802Y05328*
X10803Y05328*
X10804Y05329*
X10806Y05329*
X10807Y0533*
X10808Y05331*
X10809Y05331*
X1081Y05332*
X10811Y05333*
X10812Y05334*
X10813Y05335*
X10814Y05337*
X10814Y05338*
X10815Y05339*
X10816Y0534*
X10816Y05342*
X10816Y05343*
X10817Y05344*
X10817Y05346*
X10817Y05347*
X10915D02*
D01*
X10915Y05348*
X10915Y0535*
X10915Y05351*
X10914Y05353*
X10914Y05354*
X10913Y05355*
X10913Y05356*
X10912Y05358*
X10911Y05359*
X1091Y0536*
X1091Y05361*
X10909Y05362*
X10907Y05363*
X10906Y05364*
X10905Y05364*
X10904Y05365*
X10903Y05366*
X10901Y05366*
X109Y05367*
X10899Y05367*
X10897Y05367*
X10896Y05367*
X10894*
X10893Y05367*
X10892Y05367*
X1089Y05367*
X10889Y05366*
X10888Y05366*
X10886Y05365*
X10885Y05364*
X10884Y05364*
X10883Y05363*
X10882Y05362*
X10881Y05361*
X1088Y0536*
X10879Y05359*
X10878Y05358*
X10878Y05356*
X10877Y05355*
X10876Y05354*
X10876Y05353*
X10876Y05351*
X10875Y0535*
X10875Y05348*
X10875Y05347*
X10875Y05346*
X10875Y05344*
X10876Y05343*
X10876Y05342*
X10876Y0534*
X10877Y05339*
X10878Y05338*
X10878Y05337*
X10879Y05335*
X1088Y05334*
X10881Y05333*
X10882Y05332*
X10883Y05331*
X10884Y05331*
X10885Y0533*
X10886Y05329*
X10888Y05329*
X10889Y05328*
X1089Y05328*
X10892Y05327*
X10893Y05327*
X10894Y05327*
X10896*
X10897Y05327*
X10899Y05327*
X109Y05328*
X10901Y05328*
X10903Y05329*
X10904Y05329*
X10905Y0533*
X10906Y05331*
X10907Y05331*
X10909Y05332*
X1091Y05333*
X1091Y05334*
X10911Y05335*
X10912Y05337*
X10913Y05338*
X10913Y05339*
X10914Y0534*
X10914Y05342*
X10915Y05343*
X10915Y05344*
X10915Y05346*
X10915Y05347*
X11014D02*
D01*
X11014Y05348*
X11013Y0535*
X11013Y05351*
X11013Y05353*
X11012Y05354*
X11012Y05355*
X11011Y05356*
X11011Y05358*
X1101Y05359*
X11009Y0536*
X11008Y05361*
X11007Y05362*
X11006Y05363*
X11005Y05364*
X11004Y05364*
X11002Y05365*
X11001Y05366*
X11Y05366*
X10998Y05367*
X10997Y05367*
X10996Y05367*
X10994Y05367*
X10993*
X10992Y05367*
X1099Y05367*
X10989Y05367*
X10987Y05366*
X10986Y05366*
X10985Y05365*
X10984Y05364*
X10982Y05364*
X10981Y05363*
X1098Y05362*
X10979Y05361*
X10978Y0536*
X10977Y05359*
X10977Y05358*
X10976Y05356*
X10975Y05355*
X10975Y05354*
X10974Y05353*
X10974Y05351*
X10974Y0535*
X10974Y05348*
X10974Y05347*
X10974Y05346*
X10974Y05344*
X10974Y05343*
X10974Y05342*
X10975Y0534*
X10975Y05339*
X10976Y05338*
X10977Y05337*
X10977Y05335*
X10978Y05334*
X10979Y05333*
X1098Y05332*
X10981Y05331*
X10982Y05331*
X10984Y0533*
X10985Y05329*
X10986Y05329*
X10987Y05328*
X10989Y05328*
X1099Y05327*
X10992Y05327*
X10993Y05327*
X10994*
X10996Y05327*
X10997Y05327*
X10998Y05328*
X11Y05328*
X11001Y05329*
X11002Y05329*
X11004Y0533*
X11005Y05331*
X11006Y05331*
X11007Y05332*
X11008Y05333*
X11009Y05334*
X1101Y05335*
X11011Y05337*
X11011Y05338*
X11012Y05339*
X11012Y0534*
X11013Y05342*
X11013Y05343*
X11013Y05344*
X11014Y05346*
X11014Y05347*
X10718Y05098D02*
D01*
X10718Y05099*
X10718Y05101*
X10718Y05102*
X10718Y05103*
X10717Y05105*
X10717Y05106*
X10716Y05107*
X10715Y05109*
X10714Y0511*
X10714Y05111*
X10713Y05112*
X10712Y05113*
X10711Y05114*
X1071Y05115*
X10708Y05115*
X10707Y05116*
X10706Y05116*
X10704Y05117*
X10703Y05117*
X10702Y05118*
X107Y05118*
X10699Y05118*
X10698*
X10696Y05118*
X10695Y05118*
X10693Y05117*
X10692Y05117*
X10691Y05116*
X1069Y05116*
X10688Y05115*
X10687Y05115*
X10686Y05114*
X10685Y05113*
X10684Y05112*
X10683Y05111*
X10682Y0511*
X10681Y05109*
X10681Y05107*
X1068Y05106*
X1068Y05105*
X10679Y05103*
X10679Y05102*
X10679Y05101*
X10678Y05099*
X10678Y05098*
X10678Y05097*
X10679Y05095*
X10679Y05094*
X10679Y05092*
X1068Y05091*
X1068Y0509*
X10681Y05089*
X10681Y05087*
X10682Y05086*
X10683Y05085*
X10684Y05084*
X10685Y05083*
X10686Y05082*
X10687Y05081*
X10688Y05081*
X1069Y0508*
X10691Y05079*
X10692Y05079*
X10693Y05079*
X10695Y05078*
X10696Y05078*
X10698Y05078*
X10699*
X107Y05078*
X10702Y05078*
X10703Y05079*
X10704Y05079*
X10706Y05079*
X10707Y0508*
X10708Y05081*
X1071Y05081*
X10711Y05082*
X10712Y05083*
X10713Y05084*
X10714Y05085*
X10714Y05086*
X10715Y05087*
X10716Y05089*
X10717Y0509*
X10717Y05091*
X10718Y05092*
X10718Y05094*
X10718Y05095*
X10718Y05097*
X10718Y05098*
X10817D02*
D01*
X10817Y05099*
X10817Y05101*
X10816Y05102*
X10816Y05103*
X10816Y05105*
X10815Y05106*
X10814Y05107*
X10814Y05109*
X10813Y0511*
X10812Y05111*
X10811Y05112*
X1081Y05113*
X10809Y05114*
X10808Y05115*
X10807Y05115*
X10806Y05116*
X10804Y05116*
X10803Y05117*
X10802Y05117*
X108Y05118*
X10799Y05118*
X10797Y05118*
X10796*
X10795Y05118*
X10793Y05118*
X10792Y05117*
X10791Y05117*
X10789Y05116*
X10788Y05116*
X10787Y05115*
X10786Y05115*
X10784Y05114*
X10783Y05113*
X10782Y05112*
X10781Y05111*
X10781Y0511*
X1078Y05109*
X10779Y05107*
X10778Y05106*
X10778Y05105*
X10778Y05103*
X10777Y05102*
X10777Y05101*
X10777Y05099*
X10777Y05098*
X10777Y05097*
X10777Y05095*
X10777Y05094*
X10778Y05092*
X10778Y05091*
X10778Y0509*
X10779Y05089*
X1078Y05087*
X10781Y05086*
X10781Y05085*
X10782Y05084*
X10783Y05083*
X10784Y05082*
X10786Y05081*
X10787Y05081*
X10788Y0508*
X10789Y05079*
X10791Y05079*
X10792Y05079*
X10793Y05078*
X10795Y05078*
X10796Y05078*
X10797*
X10799Y05078*
X108Y05078*
X10802Y05079*
X10803Y05079*
X10804Y05079*
X10806Y0508*
X10807Y05081*
X10808Y05081*
X10809Y05082*
X1081Y05083*
X10811Y05084*
X10812Y05085*
X10813Y05086*
X10814Y05087*
X10814Y05089*
X10815Y0509*
X10816Y05091*
X10816Y05092*
X10816Y05094*
X10817Y05095*
X10817Y05097*
X10817Y05098*
X10915D02*
D01*
X10915Y05099*
X10915Y05101*
X10915Y05102*
X10914Y05103*
X10914Y05105*
X10913Y05106*
X10913Y05107*
X10912Y05109*
X10911Y0511*
X1091Y05111*
X1091Y05112*
X10909Y05113*
X10907Y05114*
X10906Y05115*
X10905Y05115*
X10904Y05116*
X10903Y05116*
X10901Y05117*
X109Y05117*
X10899Y05118*
X10897Y05118*
X10896Y05118*
X10894*
X10893Y05118*
X10892Y05118*
X1089Y05117*
X10889Y05117*
X10888Y05116*
X10886Y05116*
X10885Y05115*
X10884Y05115*
X10883Y05114*
X10882Y05113*
X10881Y05112*
X1088Y05111*
X10879Y0511*
X10878Y05109*
X10878Y05107*
X10877Y05106*
X10876Y05105*
X10876Y05103*
X10876Y05102*
X10875Y05101*
X10875Y05099*
X10875Y05098*
X10875Y05097*
X10875Y05095*
X10876Y05094*
X10876Y05092*
X10876Y05091*
X10877Y0509*
X10878Y05089*
X10878Y05087*
X10879Y05086*
X1088Y05085*
X10881Y05084*
X10882Y05083*
X10883Y05082*
X10884Y05081*
X10885Y05081*
X10886Y0508*
X10888Y05079*
X10889Y05079*
X1089Y05079*
X10892Y05078*
X10893Y05078*
X10894Y05078*
X10896*
X10897Y05078*
X10899Y05078*
X109Y05079*
X10901Y05079*
X10903Y05079*
X10904Y0508*
X10905Y05081*
X10906Y05081*
X10907Y05082*
X10909Y05083*
X1091Y05084*
X1091Y05085*
X10911Y05086*
X10912Y05087*
X10913Y05089*
X10913Y0509*
X10914Y05091*
X10914Y05092*
X10915Y05094*
X10915Y05095*
X10915Y05097*
X10915Y05098*
X11014D02*
D01*
X11014Y05099*
X11013Y05101*
X11013Y05102*
X11013Y05103*
X11012Y05105*
X11012Y05106*
X11011Y05107*
X11011Y05109*
X1101Y0511*
X11009Y05111*
X11008Y05112*
X11007Y05113*
X11006Y05114*
X11005Y05115*
X11004Y05115*
X11002Y05116*
X11001Y05116*
X11Y05117*
X10998Y05117*
X10997Y05118*
X10996Y05118*
X10994Y05118*
X10993*
X10992Y05118*
X1099Y05118*
X10989Y05117*
X10987Y05117*
X10986Y05116*
X10985Y05116*
X10984Y05115*
X10982Y05115*
X10981Y05114*
X1098Y05113*
X10979Y05112*
X10978Y05111*
X10977Y0511*
X10977Y05109*
X10976Y05107*
X10975Y05106*
X10975Y05105*
X10974Y05103*
X10974Y05102*
X10974Y05101*
X10974Y05099*
X10974Y05098*
X10974Y05097*
X10974Y05095*
X10974Y05094*
X10974Y05092*
X10975Y05091*
X10975Y0509*
X10976Y05089*
X10977Y05087*
X10977Y05086*
X10978Y05085*
X10979Y05084*
X1098Y05083*
X10981Y05082*
X10982Y05081*
X10984Y05081*
X10985Y0508*
X10986Y05079*
X10987Y05079*
X10989Y05079*
X1099Y05078*
X10992Y05078*
X10993Y05078*
X10994*
X10996Y05078*
X10997Y05078*
X10998Y05079*
X11Y05079*
X11001Y05079*
X11002Y0508*
X11004Y05081*
X11005Y05081*
X11006Y05082*
X11007Y05083*
X11008Y05084*
X11009Y05085*
X1101Y05086*
X11011Y05087*
X11011Y05089*
X11012Y0509*
X11012Y05091*
X11013Y05092*
X11013Y05094*
X11013Y05095*
X11014Y05097*
X11014Y05098*
X10718Y04853D02*
D01*
X10718Y04854*
X10718Y04856*
X10718Y04857*
X10718Y04858*
X10717Y0486*
X10717Y04861*
X10716Y04862*
X10715Y04863*
X10714Y04865*
X10714Y04866*
X10713Y04867*
X10712Y04868*
X10711Y04869*
X1071Y04869*
X10708Y0487*
X10707Y04871*
X10706Y04871*
X10704Y04872*
X10703Y04872*
X10702Y04873*
X107Y04873*
X10699Y04873*
X10698*
X10696Y04873*
X10695Y04873*
X10693Y04872*
X10692Y04872*
X10691Y04871*
X1069Y04871*
X10688Y0487*
X10687Y04869*
X10686Y04869*
X10685Y04868*
X10684Y04867*
X10683Y04866*
X10682Y04865*
X10681Y04863*
X10681Y04862*
X1068Y04861*
X1068Y0486*
X10679Y04858*
X10679Y04857*
X10679Y04856*
X10678Y04854*
X10678Y04853*
X10678Y04851*
X10679Y0485*
X10679Y04849*
X10679Y04847*
X1068Y04846*
X1068Y04845*
X10681Y04843*
X10681Y04842*
X10682Y04841*
X10683Y0484*
X10684Y04839*
X10685Y04838*
X10686Y04837*
X10687Y04836*
X10688Y04836*
X1069Y04835*
X10691Y04834*
X10692Y04834*
X10693Y04833*
X10695Y04833*
X10696Y04833*
X10698Y04833*
X10699*
X107Y04833*
X10702Y04833*
X10703Y04833*
X10704Y04834*
X10706Y04834*
X10707Y04835*
X10708Y04836*
X1071Y04836*
X10711Y04837*
X10712Y04838*
X10713Y04839*
X10714Y0484*
X10714Y04841*
X10715Y04842*
X10716Y04843*
X10717Y04845*
X10717Y04846*
X10718Y04847*
X10718Y04849*
X10718Y0485*
X10718Y04851*
X10718Y04853*
X10817D02*
D01*
X10817Y04854*
X10817Y04856*
X10816Y04857*
X10816Y04858*
X10816Y0486*
X10815Y04861*
X10814Y04862*
X10814Y04863*
X10813Y04865*
X10812Y04866*
X10811Y04867*
X1081Y04868*
X10809Y04869*
X10808Y04869*
X10807Y0487*
X10806Y04871*
X10804Y04871*
X10803Y04872*
X10802Y04872*
X108Y04873*
X10799Y04873*
X10797Y04873*
X10796*
X10795Y04873*
X10793Y04873*
X10792Y04872*
X10791Y04872*
X10789Y04871*
X10788Y04871*
X10787Y0487*
X10786Y04869*
X10784Y04869*
X10783Y04868*
X10782Y04867*
X10781Y04866*
X10781Y04865*
X1078Y04863*
X10779Y04862*
X10778Y04861*
X10778Y0486*
X10778Y04858*
X10777Y04857*
X10777Y04856*
X10777Y04854*
X10777Y04853*
X10777Y04851*
X10777Y0485*
X10777Y04849*
X10778Y04847*
X10778Y04846*
X10778Y04845*
X10779Y04843*
X1078Y04842*
X10781Y04841*
X10781Y0484*
X10782Y04839*
X10783Y04838*
X10784Y04837*
X10786Y04836*
X10787Y04836*
X10788Y04835*
X10789Y04834*
X10791Y04834*
X10792Y04833*
X10793Y04833*
X10795Y04833*
X10796Y04833*
X10797*
X10799Y04833*
X108Y04833*
X10802Y04833*
X10803Y04834*
X10804Y04834*
X10806Y04835*
X10807Y04836*
X10808Y04836*
X10809Y04837*
X1081Y04838*
X10811Y04839*
X10812Y0484*
X10813Y04841*
X10814Y04842*
X10814Y04843*
X10815Y04845*
X10816Y04846*
X10816Y04847*
X10816Y04849*
X10817Y0485*
X10817Y04851*
X10817Y04853*
X10915D02*
D01*
X10915Y04854*
X10915Y04856*
X10915Y04857*
X10914Y04858*
X10914Y0486*
X10913Y04861*
X10913Y04862*
X10912Y04863*
X10911Y04865*
X1091Y04866*
X1091Y04867*
X10909Y04868*
X10907Y04869*
X10906Y04869*
X10905Y0487*
X10904Y04871*
X10903Y04871*
X10901Y04872*
X109Y04872*
X10899Y04873*
X10897Y04873*
X10896Y04873*
X10894*
X10893Y04873*
X10892Y04873*
X1089Y04872*
X10889Y04872*
X10888Y04871*
X10886Y04871*
X10885Y0487*
X10884Y04869*
X10883Y04869*
X10882Y04868*
X10881Y04867*
X1088Y04866*
X10879Y04865*
X10878Y04863*
X10878Y04862*
X10877Y04861*
X10876Y0486*
X10876Y04858*
X10876Y04857*
X10875Y04856*
X10875Y04854*
X10875Y04853*
X10875Y04851*
X10875Y0485*
X10876Y04849*
X10876Y04847*
X10876Y04846*
X10877Y04845*
X10878Y04843*
X10878Y04842*
X10879Y04841*
X1088Y0484*
X10881Y04839*
X10882Y04838*
X10883Y04837*
X10884Y04836*
X10885Y04836*
X10886Y04835*
X10888Y04834*
X10889Y04834*
X1089Y04833*
X10892Y04833*
X10893Y04833*
X10894Y04833*
X10896*
X10897Y04833*
X10899Y04833*
X109Y04833*
X10901Y04834*
X10903Y04834*
X10904Y04835*
X10905Y04836*
X10906Y04836*
X10907Y04837*
X10909Y04838*
X1091Y04839*
X1091Y0484*
X10911Y04841*
X10912Y04842*
X10913Y04843*
X10913Y04845*
X10914Y04846*
X10914Y04847*
X10915Y04849*
X10915Y0485*
X10915Y04851*
X10915Y04853*
X11014D02*
D01*
X11014Y04854*
X11013Y04856*
X11013Y04857*
X11013Y04858*
X11012Y0486*
X11012Y04861*
X11011Y04862*
X11011Y04863*
X1101Y04865*
X11009Y04866*
X11008Y04867*
X11007Y04868*
X11006Y04869*
X11005Y04869*
X11004Y0487*
X11002Y04871*
X11001Y04871*
X11Y04872*
X10998Y04872*
X10997Y04873*
X10996Y04873*
X10994Y04873*
X10993*
X10992Y04873*
X1099Y04873*
X10989Y04872*
X10987Y04872*
X10986Y04871*
X10985Y04871*
X10984Y0487*
X10982Y04869*
X10981Y04869*
X1098Y04868*
X10979Y04867*
X10978Y04866*
X10977Y04865*
X10977Y04863*
X10976Y04862*
X10975Y04861*
X10975Y0486*
X10974Y04858*
X10974Y04857*
X10974Y04856*
X10974Y04854*
X10974Y04853*
X10974Y04851*
X10974Y0485*
X10974Y04849*
X10974Y04847*
X10975Y04846*
X10975Y04845*
X10976Y04843*
X10977Y04842*
X10977Y04841*
X10978Y0484*
X10979Y04839*
X1098Y04838*
X10981Y04837*
X10982Y04836*
X10984Y04836*
X10985Y04835*
X10986Y04834*
X10987Y04834*
X10989Y04833*
X1099Y04833*
X10992Y04833*
X10993Y04833*
X10994*
X10996Y04833*
X10997Y04833*
X10998Y04833*
X11Y04834*
X11001Y04834*
X11002Y04835*
X11004Y04836*
X11005Y04836*
X11006Y04837*
X11007Y04838*
X11008Y04839*
X11009Y0484*
X1101Y04841*
X11011Y04842*
X11011Y04843*
X11012Y04845*
X11012Y04846*
X11013Y04847*
X11013Y04849*
X11013Y0485*
X11014Y04851*
X11014Y04853*
X08612Y05226D02*
D01*
X08612Y05227*
X08612Y05229*
X08612Y0523*
X08611Y05231*
X08611Y05233*
X0861Y05234*
X0861Y05235*
X08609Y05236*
X08608Y05238*
X08607Y05239*
X08606Y0524*
X08605Y05241*
X08604Y05242*
X08603Y05242*
X08602Y05243*
X08601Y05244*
X086Y05244*
X08598Y05245*
X08597Y05245*
X08595Y05246*
X08594Y05246*
X08593Y05246*
X08591*
X0859Y05246*
X08589Y05246*
X08587Y05245*
X08586Y05245*
X08585Y05244*
X08583Y05244*
X08582Y05243*
X08581Y05242*
X0858Y05242*
X08579Y05241*
X08578Y0524*
X08577Y05239*
X08576Y05238*
X08575Y05236*
X08574Y05235*
X08574Y05234*
X08573Y05233*
X08573Y05231*
X08572Y0523*
X08572Y05229*
X08572Y05227*
X08572Y05226*
X08572Y05224*
X08572Y05223*
X08572Y05222*
X08573Y0522*
X08573Y05219*
X08574Y05218*
X08574Y05216*
X08575Y05215*
X08576Y05214*
X08577Y05213*
X08578Y05212*
X08579Y05211*
X0858Y0521*
X08581Y05209*
X08582Y05209*
X08583Y05208*
X08585Y05207*
X08586Y05207*
X08587Y05206*
X08589Y05206*
X0859Y05206*
X08591Y05206*
X08593*
X08594Y05206*
X08595Y05206*
X08597Y05206*
X08598Y05207*
X086Y05207*
X08601Y05208*
X08602Y05209*
X08603Y05209*
X08604Y0521*
X08605Y05211*
X08606Y05212*
X08607Y05213*
X08608Y05214*
X08609Y05215*
X0861Y05216*
X0861Y05218*
X08611Y05219*
X08611Y0522*
X08612Y05222*
X08612Y05223*
X08612Y05224*
X08612Y05226*
Y05326D02*
D01*
X08612Y05327*
X08612Y05329*
X08612Y0533*
X08611Y05331*
X08611Y05333*
X0861Y05334*
X0861Y05335*
X08609Y05336*
X08608Y05338*
X08607Y05339*
X08606Y0534*
X08605Y05341*
X08604Y05342*
X08603Y05342*
X08602Y05343*
X08601Y05344*
X086Y05344*
X08598Y05345*
X08597Y05345*
X08595Y05346*
X08594Y05346*
X08593Y05346*
X08591*
X0859Y05346*
X08589Y05346*
X08587Y05345*
X08586Y05345*
X08585Y05344*
X08583Y05344*
X08582Y05343*
X08581Y05342*
X0858Y05342*
X08579Y05341*
X08578Y0534*
X08577Y05339*
X08576Y05338*
X08575Y05336*
X08574Y05335*
X08574Y05334*
X08573Y05333*
X08573Y05331*
X08572Y0533*
X08572Y05329*
X08572Y05327*
X08572Y05326*
X08572Y05324*
X08572Y05323*
X08572Y05322*
X08573Y0532*
X08573Y05319*
X08574Y05318*
X08574Y05316*
X08575Y05315*
X08576Y05314*
X08577Y05313*
X08578Y05312*
X08579Y05311*
X0858Y0531*
X08581Y05309*
X08582Y05309*
X08583Y05308*
X08585Y05307*
X08586Y05307*
X08587Y05306*
X08589Y05306*
X0859Y05306*
X08591Y05306*
X08593*
X08594Y05306*
X08595Y05306*
X08597Y05306*
X08598Y05307*
X086Y05307*
X08601Y05308*
X08602Y05309*
X08603Y05309*
X08604Y0531*
X08605Y05311*
X08606Y05312*
X08607Y05313*
X08608Y05314*
X08609Y05315*
X0861Y05316*
X0861Y05318*
X08611Y05319*
X08611Y0532*
X08612Y05322*
X08612Y05323*
X08612Y05324*
X08612Y05326*
X0799Y05D02*
D01*
X0799Y05001*
X0799Y05002*
X0799Y05004*
X07989Y05005*
X07989Y05006*
X07988Y05008*
X07988Y05009*
X07987Y0501*
X07986Y05011*
X07985Y05012*
X07984Y05013*
X07983Y05014*
X07982Y05015*
X07981Y05016*
X0798Y05017*
X07979Y05017*
X07977Y05018*
X07976Y05019*
X07975Y05019*
X07973Y05019*
X07972Y05019*
X07971Y05019*
X07969*
X07968Y05019*
X07966Y05019*
X07965Y05019*
X07964Y05019*
X07962Y05018*
X07961Y05017*
X0796Y05017*
X07959Y05016*
X07958Y05015*
X07957Y05014*
X07956Y05013*
X07955Y05012*
X07954Y05011*
X07953Y0501*
X07952Y05009*
X07952Y05008*
X07951Y05006*
X07951Y05005*
X0795Y05004*
X0795Y05002*
X0795Y05001*
X0795Y05*
X0795Y04998*
X0795Y04997*
X0795Y04995*
X07951Y04994*
X07951Y04993*
X07952Y04991*
X07952Y0499*
X07953Y04989*
X07954Y04988*
X07955Y04987*
X07956Y04986*
X07957Y04985*
X07958Y04984*
X07959Y04983*
X0796Y04982*
X07961Y04982*
X07962Y04981*
X07964Y0498*
X07965Y0498*
X07966Y0498*
X07968Y0498*
X07969Y0498*
X07971*
X07972Y0498*
X07973Y0498*
X07975Y0498*
X07976Y0498*
X07977Y04981*
X07979Y04982*
X0798Y04982*
X07981Y04983*
X07982Y04984*
X07983Y04985*
X07984Y04986*
X07985Y04987*
X07986Y04988*
X07987Y04989*
X07988Y0499*
X07988Y04991*
X07989Y04993*
X07989Y04994*
X0799Y04995*
X0799Y04997*
X0799Y04998*
X0799Y05*
Y05098D02*
D01*
X0799Y05099*
X0799Y05101*
X0799Y05102*
X07989Y05103*
X07989Y05105*
X07988Y05106*
X07988Y05107*
X07987Y05109*
X07986Y0511*
X07985Y05111*
X07984Y05112*
X07983Y05113*
X07982Y05114*
X07981Y05115*
X0798Y05115*
X07979Y05116*
X07977Y05116*
X07976Y05117*
X07975Y05117*
X07973Y05118*
X07972Y05118*
X07971Y05118*
X07969*
X07968Y05118*
X07966Y05118*
X07965Y05117*
X07964Y05117*
X07962Y05116*
X07961Y05116*
X0796Y05115*
X07959Y05115*
X07958Y05114*
X07957Y05113*
X07956Y05112*
X07955Y05111*
X07954Y0511*
X07953Y05109*
X07952Y05107*
X07952Y05106*
X07951Y05105*
X07951Y05103*
X0795Y05102*
X0795Y05101*
X0795Y05099*
X0795Y05098*
X0795Y05097*
X0795Y05095*
X0795Y05094*
X07951Y05092*
X07951Y05091*
X07952Y0509*
X07952Y05089*
X07953Y05087*
X07954Y05086*
X07955Y05085*
X07956Y05084*
X07957Y05083*
X07958Y05082*
X07959Y05081*
X0796Y05081*
X07961Y0508*
X07962Y05079*
X07964Y05079*
X07965Y05079*
X07966Y05078*
X07968Y05078*
X07969Y05078*
X07971*
X07972Y05078*
X07973Y05078*
X07975Y05079*
X07976Y05079*
X07977Y05079*
X07979Y0508*
X0798Y05081*
X07981Y05081*
X07982Y05082*
X07983Y05083*
X07984Y05084*
X07985Y05085*
X07986Y05086*
X07987Y05087*
X07988Y05089*
X07988Y0509*
X07989Y05091*
X07989Y05092*
X0799Y05094*
X0799Y05095*
X0799Y05097*
X0799Y05098*
Y05196D02*
D01*
X0799Y05198*
X0799Y05199*
X0799Y05201*
X07989Y05202*
X07989Y05203*
X07988Y05204*
X07988Y05206*
X07987Y05207*
X07986Y05208*
X07985Y05209*
X07984Y0521*
X07983Y05211*
X07982Y05212*
X07981Y05213*
X0798Y05214*
X07979Y05214*
X07977Y05215*
X07976Y05215*
X07975Y05216*
X07973Y05216*
X07972Y05216*
X07971Y05216*
X07969*
X07968Y05216*
X07966Y05216*
X07965Y05216*
X07964Y05215*
X07962Y05215*
X07961Y05214*
X0796Y05214*
X07959Y05213*
X07958Y05212*
X07957Y05211*
X07956Y0521*
X07955Y05209*
X07954Y05208*
X07953Y05207*
X07952Y05206*
X07952Y05204*
X07951Y05203*
X07951Y05202*
X0795Y05201*
X0795Y05199*
X0795Y05198*
X0795Y05196*
X0795Y05195*
X0795Y05194*
X0795Y05192*
X07951Y05191*
X07951Y0519*
X07952Y05188*
X07952Y05187*
X07953Y05186*
X07954Y05185*
X07955Y05183*
X07956Y05182*
X07957Y05181*
X07958Y05181*
X07959Y0518*
X0796Y05179*
X07961Y05178*
X07962Y05178*
X07964Y05177*
X07965Y05177*
X07966Y05177*
X07968Y05176*
X07969Y05176*
X07971*
X07972Y05176*
X07973Y05177*
X07975Y05177*
X07976Y05177*
X07977Y05178*
X07979Y05178*
X0798Y05179*
X07981Y0518*
X07982Y05181*
X07983Y05181*
X07984Y05182*
X07985Y05183*
X07986Y05185*
X07987Y05186*
X07988Y05187*
X07988Y05188*
X07989Y0519*
X07989Y05191*
X0799Y05192*
X0799Y05194*
X0799Y05195*
X0799Y05196*
Y05295D02*
D01*
X0799Y05296*
X0799Y05298*
X0799Y05299*
X07989Y053*
X07989Y05302*
X07988Y05303*
X07988Y05304*
X07987Y05305*
X07986Y05307*
X07985Y05308*
X07984Y05309*
X07983Y0531*
X07982Y05311*
X07981Y05311*
X0798Y05312*
X07979Y05313*
X07977Y05313*
X07976Y05314*
X07975Y05314*
X07973Y05314*
X07972Y05315*
X07971Y05315*
X07969*
X07968Y05315*
X07966Y05314*
X07965Y05314*
X07964Y05314*
X07962Y05313*
X07961Y05313*
X0796Y05312*
X07959Y05311*
X07958Y05311*
X07957Y0531*
X07956Y05309*
X07955Y05308*
X07954Y05307*
X07953Y05305*
X07952Y05304*
X07952Y05303*
X07951Y05302*
X07951Y053*
X0795Y05299*
X0795Y05298*
X0795Y05296*
X0795Y05295*
X0795Y05293*
X0795Y05292*
X0795Y05291*
X07951Y05289*
X07951Y05288*
X07952Y05287*
X07952Y05285*
X07953Y05284*
X07954Y05283*
X07955Y05282*
X07956Y05281*
X07957Y0528*
X07958Y05279*
X07959Y05278*
X0796Y05277*
X07961Y05277*
X07962Y05276*
X07964Y05276*
X07965Y05275*
X07966Y05275*
X07968Y05275*
X07969Y05275*
X07971*
X07972Y05275*
X07973Y05275*
X07975Y05275*
X07976Y05276*
X07977Y05276*
X07979Y05277*
X0798Y05277*
X07981Y05278*
X07982Y05279*
X07983Y0528*
X07984Y05281*
X07985Y05282*
X07986Y05283*
X07987Y05284*
X07988Y05285*
X07988Y05287*
X07989Y05288*
X07989Y05289*
X0799Y05291*
X0799Y05292*
X0799Y05293*
X0799Y05295*
X08051Y03897D02*
D01*
X08051Y03899*
X08051Y039*
X08051Y03901*
X0805Y03903*
X0805Y03904*
X08049Y03905*
X08049Y03907*
X08048Y03908*
X08047Y03909*
X08046Y0391*
X08045Y03911*
X08044Y03912*
X08043Y03913*
X08042Y03914*
X08041Y03914*
X0804Y03915*
X08038Y03916*
X08037Y03916*
X08036Y03917*
X08034Y03917*
X08033Y03917*
X08032Y03917*
X0803*
X08029Y03917*
X08028Y03917*
X08026Y03917*
X08025Y03916*
X08024Y03916*
X08022Y03915*
X08021Y03914*
X0802Y03914*
X08019Y03913*
X08018Y03912*
X08017Y03911*
X08016Y0391*
X08015Y03909*
X08014Y03908*
X08013Y03907*
X08013Y03905*
X08012Y03904*
X08012Y03903*
X08011Y03901*
X08011Y039*
X08011Y03899*
X08011Y03897*
X08011Y03896*
X08011Y03894*
X08011Y03893*
X08012Y03892*
X08012Y0389*
X08013Y03889*
X08013Y03888*
X08014Y03887*
X08015Y03885*
X08016Y03884*
X08017Y03883*
X08018Y03882*
X08019Y03881*
X0802Y03881*
X08021Y0388*
X08022Y03879*
X08024Y03879*
X08025Y03878*
X08026Y03878*
X08028Y03877*
X08029Y03877*
X0803Y03877*
X08032*
X08033Y03877*
X08034Y03877*
X08036Y03878*
X08037Y03878*
X08038Y03879*
X0804Y03879*
X08041Y0388*
X08042Y03881*
X08043Y03881*
X08044Y03882*
X08045Y03883*
X08046Y03884*
X08047Y03885*
X08048Y03887*
X08049Y03888*
X08049Y03889*
X0805Y0389*
X0805Y03892*
X08051Y03893*
X08051Y03894*
X08051Y03896*
X08051Y03897*
Y03799D02*
D01*
X08051Y038*
X08051Y03801*
X08051Y03803*
X0805Y03804*
X0805Y03806*
X08049Y03807*
X08049Y03808*
X08048Y03809*
X08047Y0381*
X08046Y03812*
X08045Y03813*
X08044Y03814*
X08043Y03814*
X08042Y03815*
X08041Y03816*
X0804Y03817*
X08038Y03817*
X08037Y03818*
X08036Y03818*
X08034Y03818*
X08033Y03819*
X08032Y03819*
X0803*
X08029Y03819*
X08028Y03818*
X08026Y03818*
X08025Y03818*
X08024Y03817*
X08022Y03817*
X08021Y03816*
X0802Y03815*
X08019Y03814*
X08018Y03814*
X08017Y03813*
X08016Y03812*
X08015Y0381*
X08014Y03809*
X08013Y03808*
X08013Y03807*
X08012Y03806*
X08012Y03804*
X08011Y03803*
X08011Y03801*
X08011Y038*
X08011Y03799*
X08011Y03797*
X08011Y03796*
X08011Y03795*
X08012Y03793*
X08012Y03792*
X08013Y03791*
X08013Y03789*
X08014Y03788*
X08015Y03787*
X08016Y03786*
X08017Y03785*
X08018Y03784*
X08019Y03783*
X0802Y03782*
X08021Y03781*
X08022Y03781*
X08024Y0378*
X08025Y0378*
X08026Y03779*
X08028Y03779*
X08029Y03779*
X0803Y03779*
X08032*
X08033Y03779*
X08034Y03779*
X08036Y03779*
X08037Y0378*
X08038Y0378*
X0804Y03781*
X08041Y03781*
X08042Y03782*
X08043Y03783*
X08044Y03784*
X08045Y03785*
X08046Y03786*
X08047Y03787*
X08048Y03788*
X08049Y03789*
X08049Y03791*
X0805Y03792*
X0805Y03793*
X08051Y03795*
X08051Y03796*
X08051Y03797*
X08051Y03799*
Y037D02*
D01*
X08051Y03702*
X08051Y03703*
X08051Y03704*
X0805Y03706*
X0805Y03707*
X08049Y03708*
X08049Y0371*
X08048Y03711*
X08047Y03712*
X08046Y03713*
X08045Y03714*
X08044Y03715*
X08043Y03716*
X08042Y03717*
X08041Y03718*
X0804Y03718*
X08038Y03719*
X08037Y03719*
X08036Y0372*
X08034Y0372*
X08033Y0372*
X08032Y0372*
X0803*
X08029Y0372*
X08028Y0372*
X08026Y0372*
X08025Y03719*
X08024Y03719*
X08022Y03718*
X08021Y03718*
X0802Y03717*
X08019Y03716*
X08018Y03715*
X08017Y03714*
X08016Y03713*
X08015Y03712*
X08014Y03711*
X08013Y0371*
X08013Y03708*
X08012Y03707*
X08012Y03706*
X08011Y03704*
X08011Y03703*
X08011Y03702*
X08011Y037*
X08011Y03699*
X08011Y03698*
X08011Y03696*
X08012Y03695*
X08012Y03693*
X08013Y03692*
X08013Y03691*
X08014Y0369*
X08015Y03689*
X08016Y03687*
X08017Y03686*
X08018Y03685*
X08019Y03685*
X0802Y03684*
X08021Y03683*
X08022Y03682*
X08024Y03682*
X08025Y03681*
X08026Y03681*
X08028Y03681*
X08029Y0368*
X0803Y0368*
X08032*
X08033Y0368*
X08034Y03681*
X08036Y03681*
X08037Y03681*
X08038Y03682*
X0804Y03682*
X08041Y03683*
X08042Y03684*
X08043Y03685*
X08044Y03685*
X08045Y03686*
X08046Y03687*
X08047Y03689*
X08048Y0369*
X08049Y03691*
X08049Y03692*
X0805Y03693*
X0805Y03695*
X08051Y03696*
X08051Y03698*
X08051Y03699*
X08051Y037*
Y03602D02*
D01*
X08051Y03603*
X08051Y03605*
X08051Y03606*
X0805Y03607*
X0805Y03609*
X08049Y0361*
X08049Y03611*
X08048Y03612*
X08047Y03614*
X08046Y03615*
X08045Y03616*
X08044Y03617*
X08043Y03618*
X08042Y03618*
X08041Y03619*
X0804Y0362*
X08038Y0362*
X08037Y03621*
X08036Y03621*
X08034Y03622*
X08033Y03622*
X08032Y03622*
X0803*
X08029Y03622*
X08028Y03622*
X08026Y03621*
X08025Y03621*
X08024Y0362*
X08022Y0362*
X08021Y03619*
X0802Y03618*
X08019Y03618*
X08018Y03617*
X08017Y03616*
X08016Y03615*
X08015Y03614*
X08014Y03612*
X08013Y03611*
X08013Y0361*
X08012Y03609*
X08012Y03607*
X08011Y03606*
X08011Y03605*
X08011Y03603*
X08011Y03602*
X08011Y036*
X08011Y03599*
X08011Y03598*
X08012Y03596*
X08012Y03595*
X08013Y03594*
X08013Y03592*
X08014Y03591*
X08015Y0359*
X08016Y03589*
X08017Y03588*
X08018Y03587*
X08019Y03586*
X0802Y03585*
X08021Y03585*
X08022Y03584*
X08024Y03583*
X08025Y03583*
X08026Y03582*
X08028Y03582*
X08029Y03582*
X0803Y03582*
X08032*
X08033Y03582*
X08034Y03582*
X08036Y03582*
X08037Y03583*
X08038Y03583*
X0804Y03584*
X08041Y03585*
X08042Y03585*
X08043Y03586*
X08044Y03587*
X08045Y03588*
X08046Y03589*
X08047Y0359*
X08048Y03591*
X08049Y03592*
X08049Y03594*
X0805Y03595*
X0805Y03596*
X08051Y03598*
X08051Y03599*
X08051Y036*
X08051Y03602*
X11675Y03897D02*
D01*
X11675Y03899*
X11675Y039*
X11675Y03901*
X11674Y03903*
X11674Y03904*
X11673Y03905*
X11673Y03907*
X11672Y03908*
X11671Y03909*
X1167Y0391*
X11669Y03911*
X11668Y03912*
X11667Y03913*
X11666Y03914*
X11665Y03914*
X11664Y03915*
X11663Y03916*
X11661Y03916*
X1166Y03917*
X11658Y03917*
X11657Y03917*
X11656Y03917*
X11654*
X11653Y03917*
X11652Y03917*
X1165Y03917*
X11649Y03916*
X11648Y03916*
X11646Y03915*
X11645Y03914*
X11644Y03914*
X11643Y03913*
X11642Y03912*
X11641Y03911*
X1164Y0391*
X11639Y03909*
X11638Y03908*
X11637Y03907*
X11637Y03905*
X11636Y03904*
X11636Y03903*
X11635Y03901*
X11635Y039*
X11635Y03899*
X11635Y03897*
X11635Y03896*
X11635Y03894*
X11635Y03893*
X11636Y03892*
X11636Y0389*
X11637Y03889*
X11637Y03888*
X11638Y03887*
X11639Y03885*
X1164Y03884*
X11641Y03883*
X11642Y03882*
X11643Y03881*
X11644Y03881*
X11645Y0388*
X11646Y03879*
X11648Y03879*
X11649Y03878*
X1165Y03878*
X11652Y03877*
X11653Y03877*
X11654Y03877*
X11656*
X11657Y03877*
X11658Y03877*
X1166Y03878*
X11661Y03878*
X11663Y03879*
X11664Y03879*
X11665Y0388*
X11666Y03881*
X11667Y03881*
X11668Y03882*
X11669Y03883*
X1167Y03884*
X11671Y03885*
X11672Y03887*
X11673Y03888*
X11673Y03889*
X11674Y0389*
X11674Y03892*
X11675Y03893*
X11675Y03894*
X11675Y03896*
X11675Y03897*
Y03799D02*
D01*
X11675Y038*
X11675Y03801*
X11675Y03803*
X11674Y03804*
X11674Y03806*
X11673Y03807*
X11673Y03808*
X11672Y03809*
X11671Y0381*
X1167Y03812*
X11669Y03813*
X11668Y03814*
X11667Y03814*
X11666Y03815*
X11665Y03816*
X11664Y03817*
X11663Y03817*
X11661Y03818*
X1166Y03818*
X11658Y03818*
X11657Y03819*
X11656Y03819*
X11654*
X11653Y03819*
X11652Y03818*
X1165Y03818*
X11649Y03818*
X11648Y03817*
X11646Y03817*
X11645Y03816*
X11644Y03815*
X11643Y03814*
X11642Y03814*
X11641Y03813*
X1164Y03812*
X11639Y0381*
X11638Y03809*
X11637Y03808*
X11637Y03807*
X11636Y03806*
X11636Y03804*
X11635Y03803*
X11635Y03801*
X11635Y038*
X11635Y03799*
X11635Y03797*
X11635Y03796*
X11635Y03795*
X11636Y03793*
X11636Y03792*
X11637Y03791*
X11637Y03789*
X11638Y03788*
X11639Y03787*
X1164Y03786*
X11641Y03785*
X11642Y03784*
X11643Y03783*
X11644Y03782*
X11645Y03781*
X11646Y03781*
X11648Y0378*
X11649Y0378*
X1165Y03779*
X11652Y03779*
X11653Y03779*
X11654Y03779*
X11656*
X11657Y03779*
X11658Y03779*
X1166Y03779*
X11661Y0378*
X11663Y0378*
X11664Y03781*
X11665Y03781*
X11666Y03782*
X11667Y03783*
X11668Y03784*
X11669Y03785*
X1167Y03786*
X11671Y03787*
X11672Y03788*
X11673Y03789*
X11673Y03791*
X11674Y03792*
X11674Y03793*
X11675Y03795*
X11675Y03796*
X11675Y03797*
X11675Y03799*
Y037D02*
D01*
X11675Y03702*
X11675Y03703*
X11675Y03704*
X11674Y03706*
X11674Y03707*
X11673Y03708*
X11673Y0371*
X11672Y03711*
X11671Y03712*
X1167Y03713*
X11669Y03714*
X11668Y03715*
X11667Y03716*
X11666Y03717*
X11665Y03718*
X11664Y03718*
X11663Y03719*
X11661Y03719*
X1166Y0372*
X11658Y0372*
X11657Y0372*
X11656Y0372*
X11654*
X11653Y0372*
X11652Y0372*
X1165Y0372*
X11649Y03719*
X11648Y03719*
X11646Y03718*
X11645Y03718*
X11644Y03717*
X11643Y03716*
X11642Y03715*
X11641Y03714*
X1164Y03713*
X11639Y03712*
X11638Y03711*
X11637Y0371*
X11637Y03708*
X11636Y03707*
X11636Y03706*
X11635Y03704*
X11635Y03703*
X11635Y03702*
X11635Y037*
X11635Y03699*
X11635Y03698*
X11635Y03696*
X11636Y03695*
X11636Y03693*
X11637Y03692*
X11637Y03691*
X11638Y0369*
X11639Y03689*
X1164Y03687*
X11641Y03686*
X11642Y03685*
X11643Y03685*
X11644Y03684*
X11645Y03683*
X11646Y03682*
X11648Y03682*
X11649Y03681*
X1165Y03681*
X11652Y03681*
X11653Y0368*
X11654Y0368*
X11656*
X11657Y0368*
X11658Y03681*
X1166Y03681*
X11661Y03681*
X11663Y03682*
X11664Y03682*
X11665Y03683*
X11666Y03684*
X11667Y03685*
X11668Y03685*
X11669Y03686*
X1167Y03687*
X11671Y03689*
X11672Y0369*
X11673Y03691*
X11673Y03692*
X11674Y03693*
X11674Y03695*
X11675Y03696*
X11675Y03698*
X11675Y03699*
X11675Y037*
Y03602D02*
D01*
X11675Y03603*
X11675Y03605*
X11675Y03606*
X11674Y03607*
X11674Y03609*
X11673Y0361*
X11673Y03611*
X11672Y03612*
X11671Y03614*
X1167Y03615*
X11669Y03616*
X11668Y03617*
X11667Y03618*
X11666Y03618*
X11665Y03619*
X11664Y0362*
X11663Y0362*
X11661Y03621*
X1166Y03621*
X11658Y03622*
X11657Y03622*
X11656Y03622*
X11654*
X11653Y03622*
X11652Y03622*
X1165Y03621*
X11649Y03621*
X11648Y0362*
X11646Y0362*
X11645Y03619*
X11644Y03618*
X11643Y03618*
X11642Y03617*
X11641Y03616*
X1164Y03615*
X11639Y03614*
X11638Y03612*
X11637Y03611*
X11637Y0361*
X11636Y03609*
X11636Y03607*
X11635Y03606*
X11635Y03605*
X11635Y03603*
X11635Y03602*
X11635Y036*
X11635Y03599*
X11635Y03598*
X11636Y03596*
X11636Y03595*
X11637Y03594*
X11637Y03592*
X11638Y03591*
X11639Y0359*
X1164Y03589*
X11641Y03588*
X11642Y03587*
X11643Y03586*
X11644Y03585*
X11645Y03585*
X11646Y03584*
X11648Y03583*
X11649Y03583*
X1165Y03582*
X11652Y03582*
X11653Y03582*
X11654Y03582*
X11656*
X11657Y03582*
X11658Y03582*
X1166Y03582*
X11661Y03583*
X11663Y03583*
X11664Y03584*
X11665Y03585*
X11666Y03585*
X11667Y03586*
X11668Y03587*
X11669Y03588*
X1167Y03589*
X11671Y0359*
X11672Y03591*
X11673Y03592*
X11673Y03594*
X11674Y03595*
X11674Y03596*
X11675Y03598*
X11675Y03599*
X11675Y036*
X11675Y03602*
X11644Y05D02*
D01*
X11643Y05001*
X11643Y05002*
X11643Y05004*
X11643Y05005*
X11642Y05006*
X11642Y05008*
X11641Y05009*
X1164Y0501*
X1164Y05011*
X11639Y05012*
X11638Y05013*
X11637Y05014*
X11636Y05015*
X11635Y05016*
X11634Y05017*
X11632Y05017*
X11631Y05018*
X1163Y05019*
X11628Y05019*
X11627Y05019*
X11626Y05019*
X11624Y05019*
X11623*
X11621Y05019*
X1162Y05019*
X11619Y05019*
X11617Y05019*
X11616Y05018*
X11615Y05017*
X11614Y05017*
X11612Y05016*
X11611Y05015*
X1161Y05014*
X11609Y05013*
X11608Y05012*
X11607Y05011*
X11607Y0501*
X11606Y05009*
X11605Y05008*
X11605Y05006*
X11604Y05005*
X11604Y05004*
X11604Y05002*
X11604Y05001*
X11604Y05*
X11604Y04998*
X11604Y04997*
X11604Y04995*
X11604Y04994*
X11605Y04993*
X11605Y04991*
X11606Y0499*
X11607Y04989*
X11607Y04988*
X11608Y04987*
X11609Y04986*
X1161Y04985*
X11611Y04984*
X11612Y04983*
X11614Y04982*
X11615Y04982*
X11616Y04981*
X11617Y0498*
X11619Y0498*
X1162Y0498*
X11621Y0498*
X11623Y0498*
X11624*
X11626Y0498*
X11627Y0498*
X11628Y0498*
X1163Y0498*
X11631Y04981*
X11632Y04982*
X11634Y04982*
X11635Y04983*
X11636Y04984*
X11637Y04985*
X11638Y04986*
X11639Y04987*
X1164Y04988*
X1164Y04989*
X11641Y0499*
X11642Y04991*
X11642Y04993*
X11643Y04994*
X11643Y04995*
X11643Y04997*
X11643Y04998*
X11644Y05*
Y05098D02*
D01*
X11643Y05099*
X11643Y05101*
X11643Y05102*
X11643Y05103*
X11642Y05105*
X11642Y05106*
X11641Y05107*
X1164Y05109*
X1164Y0511*
X11639Y05111*
X11638Y05112*
X11637Y05113*
X11636Y05114*
X11635Y05115*
X11634Y05115*
X11632Y05116*
X11631Y05116*
X1163Y05117*
X11628Y05117*
X11627Y05118*
X11626Y05118*
X11624Y05118*
X11623*
X11621Y05118*
X1162Y05118*
X11619Y05117*
X11617Y05117*
X11616Y05116*
X11615Y05116*
X11614Y05115*
X11612Y05115*
X11611Y05114*
X1161Y05113*
X11609Y05112*
X11608Y05111*
X11607Y0511*
X11607Y05109*
X11606Y05107*
X11605Y05106*
X11605Y05105*
X11604Y05103*
X11604Y05102*
X11604Y05101*
X11604Y05099*
X11604Y05098*
X11604Y05097*
X11604Y05095*
X11604Y05094*
X11604Y05092*
X11605Y05091*
X11605Y0509*
X11606Y05089*
X11607Y05087*
X11607Y05086*
X11608Y05085*
X11609Y05084*
X1161Y05083*
X11611Y05082*
X11612Y05081*
X11614Y05081*
X11615Y0508*
X11616Y05079*
X11617Y05079*
X11619Y05079*
X1162Y05078*
X11621Y05078*
X11623Y05078*
X11624*
X11626Y05078*
X11627Y05078*
X11628Y05079*
X1163Y05079*
X11631Y05079*
X11632Y0508*
X11634Y05081*
X11635Y05081*
X11636Y05082*
X11637Y05083*
X11638Y05084*
X11639Y05085*
X1164Y05086*
X1164Y05087*
X11641Y05089*
X11642Y0509*
X11642Y05091*
X11643Y05092*
X11643Y05094*
X11643Y05095*
X11643Y05097*
X11644Y05098*
Y05196D02*
D01*
X11643Y05198*
X11643Y05199*
X11643Y05201*
X11643Y05202*
X11642Y05203*
X11642Y05204*
X11641Y05206*
X1164Y05207*
X1164Y05208*
X11639Y05209*
X11638Y0521*
X11637Y05211*
X11636Y05212*
X11635Y05213*
X11634Y05214*
X11632Y05214*
X11631Y05215*
X1163Y05215*
X11628Y05216*
X11627Y05216*
X11626Y05216*
X11624Y05216*
X11623*
X11621Y05216*
X1162Y05216*
X11619Y05216*
X11617Y05215*
X11616Y05215*
X11615Y05214*
X11614Y05214*
X11612Y05213*
X11611Y05212*
X1161Y05211*
X11609Y0521*
X11608Y05209*
X11607Y05208*
X11607Y05207*
X11606Y05206*
X11605Y05204*
X11605Y05203*
X11604Y05202*
X11604Y05201*
X11604Y05199*
X11604Y05198*
X11604Y05196*
X11604Y05195*
X11604Y05194*
X11604Y05192*
X11604Y05191*
X11605Y0519*
X11605Y05188*
X11606Y05187*
X11607Y05186*
X11607Y05185*
X11608Y05183*
X11609Y05182*
X1161Y05181*
X11611Y05181*
X11612Y0518*
X11614Y05179*
X11615Y05178*
X11616Y05178*
X11617Y05177*
X11619Y05177*
X1162Y05177*
X11621Y05176*
X11623Y05176*
X11624*
X11626Y05176*
X11627Y05177*
X11628Y05177*
X1163Y05177*
X11631Y05178*
X11632Y05178*
X11634Y05179*
X11635Y0518*
X11636Y05181*
X11637Y05181*
X11638Y05182*
X11639Y05183*
X1164Y05185*
X1164Y05186*
X11641Y05187*
X11642Y05188*
X11642Y0519*
X11643Y05191*
X11643Y05192*
X11643Y05194*
X11643Y05195*
X11644Y05196*
Y05295D02*
D01*
X11643Y05296*
X11643Y05298*
X11643Y05299*
X11643Y053*
X11642Y05302*
X11642Y05303*
X11641Y05304*
X1164Y05305*
X1164Y05307*
X11639Y05308*
X11638Y05309*
X11637Y0531*
X11636Y05311*
X11635Y05311*
X11634Y05312*
X11632Y05313*
X11631Y05313*
X1163Y05314*
X11628Y05314*
X11627Y05314*
X11626Y05315*
X11624Y05315*
X11623*
X11621Y05315*
X1162Y05314*
X11619Y05314*
X11617Y05314*
X11616Y05313*
X11615Y05313*
X11614Y05312*
X11612Y05311*
X11611Y05311*
X1161Y0531*
X11609Y05309*
X11608Y05308*
X11607Y05307*
X11607Y05305*
X11606Y05304*
X11605Y05303*
X11605Y05302*
X11604Y053*
X11604Y05299*
X11604Y05298*
X11604Y05296*
X11604Y05295*
X11604Y05293*
X11604Y05292*
X11604Y05291*
X11604Y05289*
X11605Y05288*
X11605Y05287*
X11606Y05285*
X11607Y05284*
X11607Y05283*
X11608Y05282*
X11609Y05281*
X1161Y0528*
X11611Y05279*
X11612Y05278*
X11614Y05277*
X11615Y05277*
X11616Y05276*
X11617Y05276*
X11619Y05275*
X1162Y05275*
X11621Y05275*
X11623Y05275*
X11624*
X11626Y05275*
X11627Y05275*
X11628Y05275*
X1163Y05276*
X11631Y05276*
X11632Y05277*
X11634Y05277*
X11635Y05278*
X11636Y05279*
X11637Y0528*
X11638Y05281*
X11639Y05282*
X1164Y05283*
X1164Y05284*
X11641Y05285*
X11642Y05287*
X11642Y05288*
X11643Y05289*
X11643Y05291*
X11643Y05292*
X11643Y05293*
X11644Y05295*
M02*