%FSTAX23Y23*%
%MOIN*%
%SFA1B1*%

%IPPOS*%
%ADD10C,0.007874*%
%ADD14C,0.005000*%
%ADD17C,0.010000*%
%ADD113C,0.003937*%
%LNpcb1-1*%
%LPD*%
G54D10*
X08862Y05147D02*
D01*
X08862Y05147*
X08862Y05148*
X08862Y05148*
X08862Y05148*
X08861Y05148*
X08861Y05149*
X08861Y05149*
X08861Y05149*
X08861Y05149*
X08861Y0515*
X08861Y0515*
X0886Y0515*
X0886Y0515*
X0886Y0515*
X0886Y05151*
X08859Y05151*
X08859Y05151*
X08859Y05151*
X08859Y05151*
X08858Y05151*
X08858Y05151*
X08858Y05151*
X08858*
X08857Y05151*
X08857Y05151*
X08857Y05151*
X08857Y05151*
X08856Y05151*
X08856Y05151*
X08856Y05151*
X08856Y0515*
X08855Y0515*
X08855Y0515*
X08855Y0515*
X08855Y0515*
X08855Y05149*
X08854Y05149*
X08854Y05149*
X08854Y05149*
X08854Y05148*
X08854Y05148*
X08854Y05148*
X08854Y05148*
X08854Y05147*
X08854Y05147*
X08854Y05147*
X08854Y05147*
X08854Y05146*
X08854Y05146*
X08854Y05146*
X08854Y05146*
X08854Y05145*
X08854Y05145*
X08855Y05145*
X08855Y05145*
X08855Y05144*
X08855Y05144*
X08855Y05144*
X08856Y05144*
X08856Y05144*
X08856Y05144*
X08856Y05143*
X08857Y05143*
X08857Y05143*
X08857Y05143*
X08857Y05143*
X08858Y05143*
X08858*
X08858Y05143*
X08858Y05143*
X08859Y05143*
X08859Y05143*
X08859Y05143*
X08859Y05144*
X0886Y05144*
X0886Y05144*
X0886Y05144*
X0886Y05144*
X08861Y05144*
X08861Y05145*
X08861Y05145*
X08861Y05145*
X08861Y05145*
X08861Y05146*
X08861Y05146*
X08862Y05146*
X08862Y05146*
X08862Y05147*
X08862Y05147*
X08862Y05147*
X08463Y04784D02*
D01*
X08463Y04785*
X08463Y04785*
X08462Y04785*
X08462Y04785*
X08462Y04786*
X08462Y04786*
X08462Y04786*
X08462Y04786*
X08462Y04787*
X08462Y04787*
X08461Y04787*
X08461Y04787*
X08461Y04787*
X08461Y04788*
X08461Y04788*
X0846Y04788*
X0846Y04788*
X0846Y04788*
X0846Y04788*
X08459Y04788*
X08459Y04788*
X08459Y04788*
X08459*
X08458Y04788*
X08458Y04788*
X08458Y04788*
X08457Y04788*
X08457Y04788*
X08457Y04788*
X08457Y04788*
X08456Y04788*
X08456Y04787*
X08456Y04787*
X08456Y04787*
X08456Y04787*
X08455Y04787*
X08455Y04786*
X08455Y04786*
X08455Y04786*
X08455Y04786*
X08455Y04785*
X08455Y04785*
X08455Y04785*
X08455Y04785*
X08455Y04784*
X08455Y04784*
X08455Y04784*
X08455Y04783*
X08455Y04783*
X08455Y04783*
X08455Y04783*
X08455Y04782*
X08455Y04782*
X08455Y04782*
X08456Y04782*
X08456Y04782*
X08456Y04781*
X08456Y04781*
X08456Y04781*
X08457Y04781*
X08457Y04781*
X08457Y04781*
X08457Y04781*
X08458Y0478*
X08458Y0478*
X08458Y0478*
X08459Y0478*
X08459*
X08459Y0478*
X08459Y0478*
X0846Y0478*
X0846Y04781*
X0846Y04781*
X0846Y04781*
X08461Y04781*
X08461Y04781*
X08461Y04781*
X08461Y04781*
X08461Y04782*
X08462Y04782*
X08462Y04782*
X08462Y04782*
X08462Y04782*
X08462Y04783*
X08462Y04783*
X08462Y04783*
X08462Y04783*
X08463Y04784*
X08463Y04784*
X08463Y04784*
G54D14*
X08937Y04438D02*
Y05206D01*
Y04438D02*
X09645D01*
Y05206D02*
Y05442D01*
X08937D02*
X09645D01*
Y04438D02*
Y05206D01*
X08937D02*
Y05442D01*
Y05206D02*
X09645D01*
X10479Y04864D02*
X10617D01*
X10479Y04938D02*
X10617D01*
X10479Y04864D02*
Y04938D01*
X10617Y04864D02*
Y04938D01*
X10479Y05356D02*
X10617D01*
X10479Y05431D02*
X10617D01*
X10479Y05356D02*
Y05431D01*
X10617Y05356D02*
Y05431D01*
X10479Y04755D02*
X10617D01*
X10479Y0483D02*
X10617D01*
X10479Y04755D02*
Y0483D01*
X10617Y04755D02*
Y0483D01*
X10479Y04992D02*
X10617D01*
X10479Y05066D02*
X10617D01*
X10479Y04992D02*
Y05066D01*
X10617Y04992D02*
Y05066D01*
X10479Y0523D02*
X10617D01*
X10479Y05305D02*
X10617D01*
X10479Y0523D02*
Y05305D01*
X10617Y0523D02*
Y05305D01*
X09576Y04066D02*
Y04141D01*
X09714Y04066D02*
Y04141D01*
X09576Y04066D02*
X09714D01*
X09576Y04141D02*
X09714D01*
X09578Y03957D02*
Y04031D01*
X09716Y03957D02*
Y04031D01*
X09578Y03957D02*
X09716D01*
X09578Y04031D02*
X09716D01*
X09401Y037D02*
X09476D01*
X09401Y03562D02*
X09476D01*
X09401D02*
Y037D01*
X09476Y03562D02*
Y037D01*
X09509D02*
X09584D01*
X09509Y03562D02*
X09584D01*
X09509D02*
Y037D01*
X09584Y03562D02*
Y037D01*
X10617Y05108D02*
Y05183D01*
X10479Y05108D02*
Y05183D01*
X10617*
X10479Y05108D02*
X10617D01*
X11269Y04228D02*
X11344D01*
X11269Y04366D02*
X11344D01*
Y04228D02*
Y04366D01*
X11269Y04228D02*
Y04366D01*
X08192Y0447D02*
Y04545D01*
X08054Y0447D02*
Y04545D01*
X08192*
X08054Y0447D02*
X08192D01*
X08194Y04578D02*
Y04653D01*
X08057Y04578D02*
Y04653D01*
X08194*
X08057Y04578D02*
X08194D01*
X08192Y04252D02*
Y04327D01*
X08055Y04252D02*
Y04327D01*
X08192*
X08055Y04252D02*
X08192D01*
Y0436D02*
Y04435D01*
X08055Y0436D02*
Y04435D01*
X08192*
X08055Y0436D02*
X08192D01*
X08192Y04144D02*
Y04219D01*
X08054Y04144D02*
Y04219D01*
X08192*
X08054Y04144D02*
X08192D01*
Y04029D02*
Y04104D01*
X08054Y04029D02*
Y04104D01*
X08192*
X08054Y04029D02*
X08192D01*
X08192Y0469D02*
Y04765D01*
X08055Y0469D02*
Y04765D01*
X08192*
X08055Y0469D02*
X08192D01*
Y04801D02*
Y04875D01*
X08055Y04801D02*
Y04875D01*
X08192*
X08055Y04801D02*
X08192D01*
X10247Y04364D02*
X1026D01*
X10247Y04339D02*
X1026D01*
Y04364*
X10247Y04339D02*
Y04364D01*
X10249Y04255D02*
X10262D01*
X10249Y0428D02*
X10262D01*
X10249Y04255D02*
Y0428D01*
X10262Y04255D02*
Y0428D01*
X10249Y04175D02*
X10262D01*
X10249Y042D02*
X10262D01*
X10249Y04175D02*
Y042D01*
X10262Y04175D02*
Y042D01*
X10198Y04339D02*
X10211D01*
X10198Y04364D02*
X10211D01*
X10198Y04339D02*
Y04364D01*
X10211Y04339D02*
Y04364D01*
X10198Y0428D02*
X10211D01*
X10198Y04255D02*
X10211D01*
Y0428*
X10198Y04255D02*
Y0428D01*
X102Y042D02*
X10212D01*
X102Y04175D02*
X10212D01*
Y042*
X102Y04175D02*
Y042D01*
X07962Y04568D02*
Y04643D01*
X081Y04568D02*
Y04643D01*
X07962D02*
X081D01*
X07962Y04568D02*
X081D01*
X07962Y04692D02*
Y04767D01*
X081Y04692D02*
Y04767D01*
X07962D02*
X081D01*
X07962Y04692D02*
X081D01*
X094Y04377D02*
X09475D01*
X094Y04514D02*
X09475D01*
Y04377D02*
Y04514D01*
X094Y04377D02*
Y04514D01*
X09509Y04376D02*
X09584D01*
X09509Y04514D02*
X09584D01*
Y04376D02*
Y04514D01*
X09509Y04376D02*
Y04514D01*
X08526Y04811D02*
X08763D01*
Y04662D02*
Y04811D01*
X08526Y04662D02*
X08763D01*
X08526D02*
Y04811D01*
G54D17*
X09114Y05314D02*
Y05348D01*
X0913Y05364*
X09147Y05348*
Y05314*
Y05339*
X09114*
X09164Y05314D02*
Y05364D01*
X09197Y05314*
Y05364*
X09214D02*
X09247D01*
X0923*
Y05314*
X09297Y05364D02*
X09264D01*
Y05314*
X09297*
X09264Y05339D02*
X0928D01*
X09314Y05314D02*
Y05364D01*
X09347Y05314*
Y05364*
X09364Y05314D02*
Y05364D01*
X09397Y05314*
Y05364*
X09414Y05314D02*
Y05348D01*
X0943Y05364*
X09447Y05348*
Y05314*
Y05339*
X09414*
G54D113*
X0845Y05011D02*
D01*
X0845Y05013*
X0845Y05014*
X0845Y05015*
X0845Y05017*
X08449Y05018*
X08449Y05019*
X08448Y05021*
X08447Y05022*
X08447Y05023*
X08446Y05024*
X08445Y05025*
X08444Y05026*
X08443Y05027*
X08442Y05028*
X0844Y05028*
X08439Y05029*
X08438Y0503*
X08437Y0503*
X08435Y0503*
X08434Y05031*
X08433Y05031*
X08431Y05031*
X0843*
X08429Y05031*
X08427Y05031*
X08426Y0503*
X08425Y0503*
X08423Y0503*
X08422Y05029*
X08421Y05028*
X0842Y05028*
X08418Y05027*
X08417Y05026*
X08416Y05025*
X08416Y05024*
X08415Y05023*
X08414Y05022*
X08413Y05021*
X08413Y05019*
X08412Y05018*
X08412Y05017*
X08411Y05015*
X08411Y05014*
X08411Y05013*
X08411Y05011*
X08411Y0501*
X08411Y05009*
X08411Y05007*
X08412Y05006*
X08412Y05005*
X08413Y05003*
X08413Y05002*
X08414Y05001*
X08415Y05*
X08416Y04999*
X08416Y04998*
X08417Y04997*
X08418Y04996*
X0842Y04995*
X08421Y04994*
X08422Y04994*
X08423Y04993*
X08425Y04993*
X08426Y04992*
X08427Y04992*
X08429Y04992*
X0843Y04992*
X08431*
X08433Y04992*
X08434Y04992*
X08435Y04992*
X08437Y04993*
X08438Y04993*
X08439Y04994*
X0844Y04994*
X08442Y04995*
X08443Y04996*
X08444Y04997*
X08445Y04998*
X08446Y04999*
X08447Y05*
X08447Y05001*
X08448Y05002*
X08449Y05003*
X08449Y05005*
X0845Y05006*
X0845Y05007*
X0845Y05009*
X0845Y0501*
X0845Y05011*
X11264Y05033D02*
D01*
X11264Y05034*
X11264Y05036*
X11264Y05037*
X11264Y05038*
X11263Y0504*
X11263Y05041*
X11262Y05042*
X11261Y05043*
X11261Y05045*
X1126Y05046*
X11259Y05047*
X11258Y05048*
X11257Y05048*
X11256Y05049*
X11254Y0505*
X11253Y05051*
X11252Y05051*
X11251Y05052*
X11249Y05052*
X11248Y05052*
X11247Y05053*
X11245Y05053*
X11244*
X11243Y05053*
X11241Y05052*
X1124Y05052*
X11238Y05052*
X11237Y05051*
X11236Y05051*
X11235Y0505*
X11234Y05049*
X11232Y05048*
X11231Y05048*
X1123Y05047*
X11229Y05046*
X11229Y05045*
X11228Y05043*
X11227Y05042*
X11227Y05041*
X11226Y0504*
X11226Y05038*
X11225Y05037*
X11225Y05036*
X11225Y05034*
X11225Y05033*
X11225Y05032*
X11225Y0503*
X11225Y05029*
X11226Y05028*
X11226Y05026*
X11227Y05025*
X11227Y05024*
X11228Y05023*
X11229Y05021*
X11229Y0502*
X1123Y05019*
X11231Y05018*
X11232Y05017*
X11234Y05017*
X11235Y05016*
X11236Y05015*
X11237Y05015*
X11238Y05014*
X1124Y05014*
X11241Y05014*
X11243Y05013*
X11244Y05013*
X11245*
X11247Y05013*
X11248Y05014*
X11249Y05014*
X11251Y05014*
X11252Y05015*
X11253Y05015*
X11254Y05016*
X11256Y05017*
X11257Y05017*
X11258Y05018*
X11259Y05019*
X1126Y0502*
X11261Y05021*
X11261Y05023*
X11262Y05024*
X11263Y05025*
X11263Y05026*
X11264Y05028*
X11264Y05029*
X11264Y0503*
X11264Y05032*
X11264Y05033*
X10153Y04494D02*
D01*
X10153Y04495*
X10153Y04496*
X10153Y04498*
X10152Y04499*
X10152Y045*
X10151Y04502*
X10151Y04503*
X1015Y04504*
X10149Y04505*
X10148Y04506*
X10148Y04507*
X10147Y04508*
X10145Y04509*
X10144Y0451*
X10143Y04511*
X10142Y04511*
X10141Y04512*
X10139Y04512*
X10138Y04513*
X10137Y04513*
X10135Y04513*
X10134Y04513*
X10133*
X10131Y04513*
X1013Y04513*
X10129Y04513*
X10127Y04512*
X10126Y04512*
X10125Y04511*
X10124Y04511*
X10122Y0451*
X10121Y04509*
X1012Y04508*
X10119Y04507*
X10118Y04506*
X10117Y04505*
X10117Y04504*
X10116Y04503*
X10115Y04502*
X10115Y045*
X10114Y04499*
X10114Y04498*
X10114Y04496*
X10114Y04495*
X10114Y04494*
X10114Y04492*
X10114Y04491*
X10114Y0449*
X10114Y04488*
X10115Y04487*
X10115Y04486*
X10116Y04484*
X10117Y04483*
X10117Y04482*
X10118Y04481*
X10119Y0448*
X1012Y04479*
X10121Y04478*
X10122Y04477*
X10124Y04477*
X10125Y04476*
X10126Y04475*
X10127Y04475*
X10129Y04474*
X1013Y04474*
X10131Y04474*
X10133Y04474*
X10134*
X10135Y04474*
X10137Y04474*
X10138Y04474*
X10139Y04475*
X10141Y04475*
X10142Y04476*
X10143Y04477*
X10144Y04477*
X10145Y04478*
X10147Y04479*
X10148Y0448*
X10148Y04481*
X10149Y04482*
X1015Y04483*
X10151Y04484*
X10151Y04486*
X10152Y04487*
X10152Y04488*
X10153Y0449*
X10153Y04491*
X10153Y04492*
X10153Y04494*
X0859Y04122D02*
X09141D01*
Y03524D02*
Y04122D01*
X0859Y03524D02*
X09141D01*
X0859D02*
Y04122D01*
X08113Y03981D02*
X0818D01*
Y03932D02*
Y03981D01*
X08113Y03932D02*
X0818D01*
X08113D02*
Y03981D01*
X08999Y03788D02*
Y04024D01*
X09137Y03788D02*
Y04024D01*
X08999Y03788D02*
X09137D01*
X08999Y04024D02*
X09137D01*
X08971Y03788D02*
Y04024D01*
X08833Y03788D02*
Y04024D01*
X08971*
X08833Y03788D02*
X08971D01*
X08802Y03796D02*
Y04032D01*
X08664Y03796D02*
Y04032D01*
X08802*
X08664Y03796D02*
X08802D01*
X1135Y0417D02*
X11751D01*
Y04038D02*
Y04223D01*
X1135Y04038D02*
Y04223D01*
X11751*
X1135Y04038D02*
X11751D01*
X10202Y05064D02*
Y05454D01*
X10379*
X10202Y05064D02*
X10379D01*
Y05454*
X10003Y05064D02*
Y05454D01*
X1018*
X10003Y05064D02*
X1018D01*
Y05454*
X08344Y04976D02*
X08466D01*
X08344Y05098D02*
X08466D01*
Y04976D02*
Y05098D01*
X08344Y04976D02*
Y05098D01*
X11158Y04998D02*
X1128D01*
X11158Y0512D02*
X1128D01*
Y04998D02*
Y0512D01*
X11158Y04998D02*
Y0512D01*
X08707Y0355D02*
X08764D01*
X08707Y03637D02*
X08764D01*
X08707Y0355D02*
Y03637D01*
X08764Y0355D02*
Y03637D01*
X08307Y05084D02*
Y05395D01*
X08129Y05084D02*
X08307D01*
X08129D02*
Y05395D01*
X08307D01*
X08145Y0511D02*
Y0537D01*
X08283Y05271D02*
X08307D01*
X08218Y0537D02*
Y05395D01*
X08145Y0511D02*
X08283D01*
X0825Y05084D02*
Y0511D01*
X08218Y05084D02*
Y0511D01*
X0825Y0537D02*
Y05395D01*
X08145Y0537D02*
X08283D01*
Y05208D02*
X08307D01*
X08283Y0511D02*
Y05208D01*
Y05271D02*
Y0537D01*
X08326Y03505D02*
Y03816D01*
X08149Y03505D02*
X08326D01*
X08149D02*
Y03816D01*
X08326D01*
X08165Y03531D02*
Y03791D01*
X08303Y03692D02*
X08326D01*
X08238Y03791D02*
Y03816D01*
X08165Y03531D02*
X08303D01*
X08269Y03505D02*
Y03531D01*
X08238Y03505D02*
Y03531D01*
X08269Y03791D02*
Y03816D01*
X08165Y03791D02*
X08303D01*
Y03629D02*
X08326D01*
X08303Y03531D02*
Y03629D01*
Y03692D02*
Y03791D01*
X1132Y03501D02*
Y03812D01*
X11498D01*
Y03501D02*
Y03812D01*
X1132Y03501D02*
X11498D01*
X11482Y03527D02*
Y03787D01*
X1132Y03625D02*
X11344D01*
X11409Y03501D02*
Y03527D01*
X11344Y03787D02*
X11482D01*
X11377D02*
Y03812D01*
X11409Y03787D02*
Y03812D01*
X11377Y03501D02*
Y03527D01*
X11344D02*
X11482D01*
X1132Y03688D02*
X11344D01*
Y03787*
Y03527D02*
Y03625D01*
X11328Y05084D02*
Y05395D01*
X11505D01*
Y05084D02*
Y05395D01*
X11328Y05084D02*
X11505D01*
X1149Y0511D02*
Y0537D01*
X11328Y05208D02*
X11352D01*
X11417Y05084D02*
Y0511D01*
X11352Y0537D02*
X1149D01*
X11385D02*
Y05395D01*
X11417Y0537D02*
Y05395D01*
X11385Y05084D02*
Y0511D01*
X11352D02*
X1149D01*
X11328Y05271D02*
X11352D01*
Y0537*
Y0511D02*
Y05208D01*
X08054Y04239D02*
Y04296D01*
X07968Y04239D02*
Y04296D01*
Y04239D02*
X08054D01*
X07968Y04296D02*
X08054D01*
X08651Y05004D02*
X08738D01*
X08651Y04947D02*
X08738D01*
X08651D02*
Y05004D01*
X08738Y04947D02*
Y05004D01*
X08596Y04952D02*
Y05005D01*
X08513Y04952D02*
Y05005D01*
Y04952D02*
X08596D01*
X08513Y05005D02*
X08596D01*
X09056Y03565D02*
Y03619D01*
X08973Y03565D02*
Y03619D01*
Y03565D02*
X09056D01*
X08973Y03619D02*
X09056D01*
X09168Y03791D02*
Y04028D01*
X09306Y03791D02*
Y04028D01*
X09168Y03791D02*
X09306D01*
X09168Y04028D02*
X09306D01*
X09321Y04012D02*
X09374D01*
X09321Y04094D02*
X09374D01*
X09321Y04012D02*
Y04094D01*
X09374Y04012D02*
Y04094D01*
X0987Y04872D02*
X10169D01*
X0987Y04458D02*
X10169D01*
X0987D02*
Y04872D01*
X10169Y04458D02*
Y04872D01*
X08557Y03794D02*
Y03873D01*
Y03843D02*
Y03873D01*
X08507D02*
X08557D01*
X08507Y03794D02*
Y03873D01*
Y03794D02*
X08557D01*
X08558Y03958D02*
Y04037D01*
Y04007D02*
Y04037D01*
X08508D02*
X08558D01*
X08508Y03958D02*
Y04037D01*
Y03958D02*
X08558D01*
X11123Y05167D02*
Y05399D01*
Y05167D02*
X113D01*
X11123Y05399D02*
X113D01*
Y05167D02*
Y05399D01*
X11109Y035D02*
Y03732D01*
Y035D02*
X11286D01*
X11109Y03732D02*
X11286D01*
Y035D02*
Y03732D01*
X08511Y05163D02*
Y05395D01*
X08334D02*
X08511D01*
X08334Y05163D02*
X08511D01*
X08334D02*
Y05395D01*
X08531Y03505D02*
Y03738D01*
X08354D02*
X08531D01*
X08354Y03505D02*
X08531D01*
X08354D02*
Y03738D01*
M02*