%FSTAX23Y23*%
%MOIN*%
%SFA1B1*%

%IPPOS*%
%ADD113C,0.003937*%
%ADD114C,0.001969*%
%LNpcb1-1*%
%LPD*%
G54D113*
X08846Y03823D02*
X08885D01*
X08865Y03803D02*
Y03842D01*
X08147Y03951D02*
Y03961D01*
X08142Y03956D02*
X08152D01*
X09048Y03906D02*
X09087D01*
X09068Y03886D02*
Y03925D01*
X08882Y03906D02*
X08921D01*
X08902Y03886D02*
Y03926D01*
X08713Y03914D02*
X08752D01*
X08733Y03894D02*
Y03934D01*
X11531Y04119D02*
X1157D01*
X11551Y04099D02*
Y04138D01*
X1029Y0524D02*
Y05279D01*
X1027Y05259D02*
X1031D01*
X10091Y0524D02*
Y05279D01*
X10072Y05259D02*
X10111D01*
X08405Y05017D02*
Y05057D01*
X08385Y05037D02*
X08425D01*
X11219Y05039D02*
Y05078D01*
X11199Y05059D02*
X11239D01*
X08736Y03574D02*
Y03613D01*
X08716Y03594D02*
X08756D01*
X08198Y0524D02*
X08238D01*
X08218Y0522D02*
Y05259D01*
Y03661D02*
X08257D01*
X08238Y03641D02*
Y03681D01*
X11389Y03657D02*
X11429D01*
X11409Y03637D02*
Y03677D01*
X11397Y0524D02*
X11437D01*
X11417Y0522D02*
Y05259D01*
X07991Y04267D02*
X08031D01*
X08011Y04248D02*
Y04287D01*
X08694Y04956D02*
Y04996D01*
X08675Y04976D02*
X08714D01*
X08535Y04979D02*
X08574D01*
X08555Y04959D02*
Y04999D01*
X08995Y03592D02*
X09034D01*
X09014Y03572D02*
Y03612D01*
X09218Y03909D02*
X09257D01*
X09237Y0389D02*
Y03929D01*
X09347Y04033D02*
Y04073D01*
X09328Y04053D02*
X09367D01*
X10019Y04645D02*
Y04685D01*
X1Y04665D02*
X10039D01*
X08532Y03824D02*
Y03843D01*
X08522Y03834D02*
X08542D01*
X08533Y03988D02*
Y04007D01*
X08523Y03998D02*
X08543D01*
X11211Y05263D02*
Y05303D01*
X11191Y05283D02*
X11231D01*
X11197Y03596D02*
Y03635D01*
X11178Y03616D02*
X11217D01*
X08423Y05259D02*
Y05299D01*
X08403Y05279D02*
X08442D01*
Y03602D02*
Y03641D01*
X08423Y03622D02*
X08462D01*
G54D114*
X08907Y04409D02*
X09675D01*
Y05452*
X08907D02*
X09675D01*
X08907Y04409D02*
Y05452D01*
X10189Y04159D02*
Y04216D01*
X10224Y04159D02*
Y04216D01*
X10189D02*
X10224D01*
X10189Y04159D02*
X10224D01*
X10187Y04239D02*
Y04296D01*
X10222Y04239D02*
Y04296D01*
X10187D02*
X10222D01*
X10187Y04239D02*
X10222D01*
Y04323D02*
Y04379D01*
X10187Y04323D02*
Y04379D01*
Y04323D02*
X10222D01*
X10187Y04379D02*
X10222D01*
X10273Y04159D02*
Y04216D01*
X10238Y04159D02*
Y04216D01*
Y04159D02*
X10273D01*
X10238Y04216D02*
X10273D01*
Y04239D02*
Y04295D01*
X10238Y04239D02*
Y04295D01*
Y04239D02*
X10273D01*
X10238Y04295D02*
X10273D01*
X10236Y04323D02*
Y04379D01*
X10271Y04323D02*
Y04379D01*
X10236D02*
X10271D01*
X10236Y04323D02*
X10271D01*
X09499Y04538D02*
X09594D01*
X09499Y04352D02*
X09594D01*
Y04538*
X09499Y04352D02*
Y04538D01*
X0939Y04538D02*
X09485D01*
X0939Y04353D02*
X09485D01*
Y04538*
X0939Y04353D02*
Y04538D01*
X0803Y04019D02*
Y04114D01*
X08215Y04019D02*
Y04114D01*
X0803D02*
X08215D01*
X0803Y04019D02*
X08215D01*
X0803Y0446D02*
Y04555D01*
X08216Y0446D02*
Y04555D01*
X0803D02*
X08216D01*
X0803Y0446D02*
X08216D01*
X08031Y0435D02*
Y04445D01*
X08216Y0435D02*
Y04445D01*
X08031D02*
X08216D01*
X08031Y0435D02*
X08216D01*
X0803Y04134D02*
Y04229D01*
X08215Y04134D02*
Y04229D01*
X0803D02*
X08215D01*
X0803Y04134D02*
X08215D01*
X08033Y04568D02*
Y04663D01*
X08218Y04568D02*
Y04663D01*
X08033D02*
X08218D01*
X08033Y04568D02*
X08218D01*
X08031Y04242D02*
Y04337D01*
X08216Y04242D02*
Y04337D01*
X08031D02*
X08216D01*
X08031Y04242D02*
X08216D01*
X11259Y0439D02*
X11354D01*
X11259Y04205D02*
X11354D01*
Y0439*
X11259Y04205D02*
Y0439D01*
X10455Y0522D02*
Y05315D01*
X10641Y0522D02*
Y05315D01*
X10455D02*
X10641D01*
X10455Y0522D02*
X10641D01*
X10455Y05098D02*
Y05193D01*
X10641Y05098D02*
Y05193D01*
X10455D02*
X10641D01*
X10455Y05098D02*
X10641D01*
X10455Y04854D02*
Y04949D01*
X10641Y04854D02*
Y04949D01*
X10455D02*
X10641D01*
X10455Y04854D02*
X10641D01*
X10455Y05346D02*
Y05441D01*
X10641Y05346D02*
Y05441D01*
X10455D02*
X10641D01*
X10455Y05346D02*
X10641D01*
X10455Y04982D02*
Y05076D01*
X10641Y04982D02*
Y05076D01*
X10455D02*
X10641D01*
X10455Y04982D02*
X10641D01*
X10455Y04745D02*
Y0484D01*
X10641Y04745D02*
Y0484D01*
X10455D02*
X10641D01*
X10455Y04745D02*
X10641D01*
X09738Y04056D02*
Y04151D01*
X09552Y04056D02*
Y04151D01*
Y04056D02*
X09738D01*
X09552Y04151D02*
X09738D01*
X09499Y03539D02*
X09594D01*
X09499Y03724D02*
X09594D01*
X09499Y03539D02*
Y03724D01*
X09594Y03539D02*
Y03724D01*
X09739Y03947D02*
Y04041D01*
X09554Y03947D02*
Y04041D01*
Y03947D02*
X09739D01*
X09554Y04041D02*
X09739D01*
X09391Y03539D02*
X09486D01*
X09391Y03724D02*
X09486D01*
X09391Y03539D02*
Y03724D01*
X09486Y03539D02*
Y03724D01*
X08124Y04682D02*
Y04777D01*
X07938Y04682D02*
Y04777D01*
X08124*
X07938Y04682D02*
X08124D01*
Y04558D02*
Y04653D01*
X07938Y04558D02*
Y04653D01*
X08124*
X07938Y04558D02*
X08124D01*
X08031Y04791D02*
Y04886D01*
X08216Y04791D02*
Y04886D01*
X08031D02*
X08216D01*
X08031Y04791D02*
X08216D01*
X08031Y0468D02*
Y04775D01*
X08216Y0468D02*
Y04775D01*
X08031D02*
X08216D01*
X08031Y0468D02*
X08216D01*
X08078Y03928D02*
X08216D01*
X08078D02*
Y03985D01*
X08216*
Y03928D02*
Y03985D01*
X08995Y03678D02*
Y04134D01*
X0914*
X08995Y03678D02*
X0914D01*
Y04134*
X08975Y03678D02*
Y04134D01*
X08829Y03678D02*
X08975D01*
X08829Y04134D02*
X08975D01*
X08829Y03678D02*
Y04134D01*
X08806Y03686D02*
Y04142D01*
X0866Y03686D02*
X08806D01*
X0866Y04142D02*
X08806D01*
X0866Y03686D02*
Y04142D01*
X11761Y04028D02*
Y04233D01*
X1134Y04028D02*
Y04233D01*
X11761*
X1134Y04028D02*
X11761D01*
X10198Y05061D02*
Y05458D01*
X10383*
X10198Y05061D02*
X10383D01*
Y05458*
X09999Y05061D02*
Y05458D01*
X10184*
X09999Y05061D02*
X10184D01*
Y05458*
X08334Y04913D02*
X08476D01*
X08334Y05161D02*
X08476D01*
Y04913D02*
Y05161D01*
X08334Y04913D02*
Y05161D01*
X11148Y04935D02*
X1129D01*
X11148Y05183D02*
X1129D01*
Y04935D02*
Y05183D01*
X11148Y04935D02*
Y05183D01*
X08685Y03509D02*
X08787D01*
X08685Y03678D02*
X08787D01*
X08685Y03509D02*
Y03678D01*
X08787Y03509D02*
Y03678D01*
X08125Y05399D02*
X08311D01*
X08125Y0508D02*
Y05399D01*
Y0508D02*
X08311D01*
Y05399*
X08145Y0382D02*
X0833D01*
X08145Y03501D02*
Y0382D01*
Y03501D02*
X0833D01*
Y0382*
X11316Y03498D02*
X11501D01*
Y03816*
X11316D02*
X11501D01*
X11316Y03498D02*
Y03816D01*
X11324Y0508D02*
X11509D01*
Y05399*
X11324D02*
X11509D01*
X11324Y0508D02*
Y05399D01*
X08517Y04774D02*
Y04821D01*
X08477Y04774D02*
X08517D01*
X08477Y04699D02*
Y04774D01*
Y04699D02*
X08517D01*
Y04652D02*
Y04699D01*
Y04652D02*
X08772D01*
Y04699*
X08812*
Y04774*
X08772D02*
X08812D01*
X08772D02*
Y04821D01*
X08517D02*
X08772D01*
X08078Y04228D02*
Y04307D01*
X07944Y04228D02*
Y04307D01*
Y04228D02*
X08078D01*
X07944Y04307D02*
X08078D01*
X08641Y05009D02*
X08748D01*
X08641Y04942D02*
X08748D01*
X08641D02*
Y05009D01*
X08748Y04942D02*
Y05009D01*
X08639Y0493D02*
Y05028D01*
X0847Y0493D02*
Y05028D01*
Y0493D02*
X08639D01*
X0847Y05028D02*
X08639D01*
X09099Y03543D02*
Y03641D01*
X0893Y03543D02*
Y03641D01*
Y03543D02*
X09099D01*
X0893Y03641D02*
X09099D01*
X09164Y03682D02*
Y04138D01*
X0931*
X09164Y03682D02*
X0931D01*
Y04138*
X09298Y03968D02*
X09396D01*
X09298Y04138D02*
X09396D01*
X09298Y03968D02*
Y04138D01*
X09396Y03968D02*
Y04138D01*
X098Y04875D02*
X10239D01*
X098Y04454D02*
X10239D01*
X098D02*
Y04875D01*
X10239Y04454D02*
Y04875D01*
X0856Y03765D02*
Y03902D01*
X08504D02*
X0856D01*
X08504Y03765D02*
Y03902D01*
Y03765D02*
X0856D01*
X08561Y03929D02*
Y04066D01*
X08505D02*
X08561D01*
X08505Y03929D02*
Y04066D01*
Y03929D02*
X08561D01*
X11119Y05163D02*
Y05403D01*
Y05163D02*
X11304D01*
X11119Y05403D02*
X11304D01*
Y05163D02*
Y05403D01*
X11105Y03496D02*
Y03736D01*
Y03496D02*
X1129D01*
X11105Y03736D02*
X1129D01*
Y03496D02*
Y03736D01*
X08515Y05159D02*
Y05399D01*
X0833D02*
X08515D01*
X0833Y05159D02*
X08515D01*
X0833D02*
Y05399D01*
X08535Y03501D02*
Y03742D01*
X0835D02*
X08535D01*
X0835Y03501D02*
X08535D01*
X0835D02*
Y03742D01*
M02*