%FSTAX23Y23*%
%MOIN*%
%SFA1B1*%

%IPPOS*%
%ADD113C,0.003937*%
%ADD115R,0.049212X0.011811*%
%ADD116R,0.011811X0.049212*%
%LNpcb1-1*%
%LPD*%
G54D113*
X10523Y04448D02*
X10572D01*
Y0437D02*
Y04448D01*
X10523Y0437D02*
X10572D01*
X10523D02*
Y04448D01*
X09834Y04889D02*
Y04938D01*
X09913*
Y04889D02*
Y04938D01*
X09834Y04889D02*
X09913D01*
X08248Y04913D02*
Y04962D01*
X08169Y04913D02*
X08248D01*
X08169D02*
Y04962D01*
X08248*
X0819Y03947D02*
Y03997D01*
X08269*
Y03947D02*
Y03997D01*
X0819Y03947D02*
X08269D01*
X11386Y03936D02*
Y03985D01*
X11465*
Y03936D02*
Y03985D01*
X11386Y03936D02*
X11465D01*
X11469Y0491D02*
Y04959D01*
X1139Y0491D02*
X11469D01*
X1139D02*
Y04959D01*
X11469*
X09452Y03699D02*
X09501D01*
Y03621D02*
Y03699D01*
X09452Y03621D02*
X09501D01*
X09452D02*
Y03699D01*
Y0394D02*
X09501D01*
Y03862D02*
Y0394D01*
X09452Y03862D02*
X09501D01*
X09452D02*
Y0394D01*
X10523Y04651D02*
X10572D01*
Y04572D02*
Y04651D01*
X10523Y04572D02*
X10572D01*
X10523D02*
Y04651D01*
X10533Y04251D02*
X10582D01*
Y04173D02*
Y04251D01*
X10533Y04173D02*
X10582D01*
X10533D02*
Y04251D01*
Y04049D02*
X10582D01*
Y0397D02*
Y04049D01*
X10533Y0397D02*
X10582D01*
X10533D02*
Y04049D01*
Y03846D02*
X10582D01*
Y03767D02*
Y03846D01*
X10533Y03767D02*
X10582D01*
X10533D02*
Y03846D01*
Y03643D02*
X10582D01*
Y03564D02*
Y03643D01*
X10533Y03564D02*
X10582D01*
X10533D02*
Y03643D01*
X10525Y04811D02*
X10574D01*
X10525D02*
Y0489D01*
X10574*
Y04811D02*
Y0489D01*
X10526Y05059D02*
X10575D01*
X10526D02*
Y05137D01*
X10575*
Y05059D02*
Y05137D01*
X10526Y05305D02*
X10575D01*
X10526D02*
Y05383D01*
X10575*
Y05305D02*
Y05383D01*
G54D115*
X10548Y04375D03*
X09477Y03626D03*
X09477Y03868D03*
X10548Y04578D03*
X10558Y04179D03*
Y03976D03*
Y03773D03*
Y0357D03*
X10549Y04884D03*
X10551Y05131D03*
X10551Y05377D03*
G54D116*
X09907Y04914D03*
X08175Y04937D03*
X08263Y03972D03*
X11459Y0396D03*
X11396Y04935D03*
M02*