%FSTAX23Y23*%
%MOIN*%
%SFA1B1*%

%IPPOS*%
%ADD11C,0.007874*%
%LNpcb1-1*%
%LPD*%
G36*
X09314Y03566D02*
X09313Y03565D01*
X09313Y03564*
X09312Y03564*
X09312Y03563*
X09311Y03563*
X09311Y03562*
X09311Y03562*
X09311Y03562*
X09311Y03562*
X0931Y03562*
X0931Y03561*
X09309Y03561*
X09309Y03561*
X09309Y03561*
X09309Y03561*
X09309Y03561*
X0931Y03561*
X09311Y0356*
X09311Y0356*
X09312Y0356*
X09312Y0356*
X09312Y0356*
X09313Y0356*
X09313Y03559*
X09313Y03559*
X09314Y03559*
X09314Y03559*
X09314Y03559*
X09314Y03559*
X09314Y03559*
X09314Y03558*
X09315Y03558*
X09315Y03557*
X09315Y03556*
X09316Y03556*
X09316Y03555*
X09316Y03555*
Y03554*
X09316Y03554*
Y03554*
Y03554*
Y03554*
X09316Y03553*
X09316Y03553*
X09316Y03552*
X09315Y03551*
X09315Y03551*
X09315Y03551*
X09315Y0355*
X09315Y0355*
X09314Y0355*
X09314Y03549*
X09313Y03549*
X09313Y03548*
X09313Y03548*
X09312Y03548*
X09312Y03548*
X09312Y03548*
X09312*
X09312Y03548*
X09311Y03548*
X0931Y03547*
X0931Y03547*
X09309Y03547*
X09308Y03547*
X09308*
X09307Y03547*
X09296*
Y03572*
X09299*
Y03561*
X09303*
X09304Y03561*
X09304*
X09304Y03561*
X09305Y03561*
X09305*
X09305Y03561*
X09305*
X09305Y03561*
X09306Y03562*
X09306Y03562*
X09306Y03562*
X09306Y03562*
X09306Y03562*
X09307Y03562*
X09307Y03562*
X09307Y03563*
X09308Y03563*
X09308Y03563*
X09308Y03564*
X09308Y03564*
X09308Y03564*
X09309Y03565*
X09309Y03565*
X0931Y03566*
X0931Y03566*
X0931Y03567*
X0931Y03567*
X0931Y03567*
X0931Y03567*
Y03567*
X09314Y03572*
X09318*
X09314Y03566*
G37*
G36*
X09356Y03569D02*
X09343D01*
X09344Y03569*
X09344Y03568*
X09344Y03568*
X09345Y03568*
X09345Y03568*
X09345Y03568*
X09345Y03568*
X09345Y03567*
X09346Y03567*
X09346Y03566*
X09347Y03566*
X09347Y03565*
X09348Y03565*
X09348Y03565*
X09348Y03565*
X09348Y03565*
X09348Y03565*
X09349Y03564*
X09349Y03564*
X0935Y03563*
X0935Y03563*
X09351Y03562*
X09351Y03562*
X09352Y03562*
X09352Y03561*
X09352Y03561*
X09352Y03561*
X09353Y0356*
X09353Y0356*
X09353Y0356*
X09353Y03559*
X09354Y03559*
X09354Y03558*
X09355Y03558*
X09355Y03558*
X09355Y03557*
X09355Y03557*
X09355Y03557*
X09355Y03556*
X09355Y03556*
X09356Y03555*
X09356Y03555*
X09356Y03555*
X09356Y03554*
Y03554*
Y03554*
X09356Y03553*
X09356Y03553*
X09355Y03552*
X09355Y03551*
X09355Y0355*
X09354Y0355*
X09354Y0355*
X09354Y03549*
X09354Y03549*
X09354Y03549*
X09354Y03549*
X09354Y03549*
X09353Y03549*
X09353Y03548*
X09352Y03548*
X09352Y03548*
X09351Y03547*
X0935Y03547*
X09349Y03547*
X09349Y03547*
X09349Y03547*
X09348Y03547*
X09348Y03547*
X09348*
X09347Y03547*
X09347Y03547*
X09345Y03547*
X09345Y03547*
X09344Y03548*
X09344Y03548*
X09344Y03548*
X09343Y03548*
X09343Y03548*
X09343Y03548*
X09342Y03549*
X09342Y03549*
X09342Y03549*
X09342Y03549*
X09342Y03549*
X09342Y03549*
X09341Y0355*
X09341Y03551*
X0934Y03551*
X0934Y03552*
X0934Y03553*
X0934Y03553*
X0934Y03554*
X0934Y03554*
X0934Y03554*
Y03554*
Y03554*
X09343Y03555*
X09343Y03554*
X09343Y03553*
X09343Y03552*
X09343Y03552*
X09344Y03551*
X09344Y03551*
X09344Y03551*
X09344Y03551*
X09345Y0355*
X09345Y0355*
X09346Y0355*
X09346Y0355*
X09347Y0355*
X09347Y0355*
X09347Y0355*
X09348*
X09348Y0355*
X09349Y0355*
X0935Y0355*
X0935Y0355*
X09351Y0355*
X09351Y03551*
X09351Y03551*
X09351Y03551*
X09352Y03551*
X09352Y03552*
X09352Y03552*
X09352Y03553*
X09352Y03553*
X09352Y03554*
X09352Y03554*
Y03554*
Y03554*
X09352Y03555*
X09352Y03555*
X09352Y03556*
X09352Y03556*
X09351Y03557*
X09351Y03557*
X09351Y03558*
X09351Y03558*
X09351Y03558*
Y03558*
X09351Y03558*
X0935Y03559*
X0935Y03559*
X0935Y03559*
X09349Y0356*
X09348Y03561*
X09347Y03562*
X09346Y03562*
X09346Y03562*
X09346Y03563*
X09346Y03563*
X09346Y03563*
X09345Y03563*
X09345Y03564*
X09344Y03565*
X09343Y03565*
X09342Y03566*
X09342Y03566*
X09342Y03567*
X09341Y03567*
X09341Y03567*
Y03567*
X09341Y03567*
X09341Y03568*
X0934Y03569*
X0934Y03569*
X0934Y0357*
X09339Y0357*
X09339Y0357*
X09339Y0357*
Y0357*
X09339Y03571*
X09339Y03571*
X09339Y03571*
X09339Y03572*
X09339Y03572*
Y03572*
Y03572*
Y03572*
X09356*
Y03569*
G37*
G36*
X09336D02*
X09324D01*
X09324Y03569*
X09325Y03568*
X09325Y03568*
X09325Y03568*
X09325Y03568*
X09325Y03568*
X09325Y03568*
X09325Y03567*
X09326Y03567*
X09327Y03566*
X09327Y03566*
X09328Y03565*
X09328Y03565*
X09328Y03565*
X09328Y03565*
X09329Y03565*
X09329Y03565*
X09329Y03564*
X0933Y03564*
X0933Y03563*
X09331Y03563*
X09331Y03562*
X09332Y03562*
X09332Y03562*
X09332Y03561*
X09333Y03561*
X09333Y03561*
X09333Y0356*
X09333Y0356*
X09333Y0356*
X09334Y03559*
X09334Y03559*
X09335Y03558*
X09335Y03558*
X09335Y03558*
X09335Y03557*
X09335Y03557*
X09335Y03557*
X09336Y03556*
X09336Y03556*
X09336Y03555*
X09336Y03555*
X09336Y03555*
X09336Y03554*
Y03554*
Y03554*
X09336Y03553*
X09336Y03553*
X09336Y03552*
X09335Y03551*
X09335Y0355*
X09335Y0355*
X09334Y0355*
X09334Y03549*
X09334Y03549*
X09334Y03549*
X09334Y03549*
X09334Y03549*
X09334Y03549*
X09333Y03548*
X09333Y03548*
X09332Y03548*
X09331Y03547*
X0933Y03547*
X0933Y03547*
X09329Y03547*
X09329Y03547*
X09329Y03547*
X09329Y03547*
X09328*
X09328Y03547*
X09327Y03547*
X09326Y03547*
X09325Y03547*
X09325Y03548*
X09324Y03548*
X09324Y03548*
X09324Y03548*
X09323Y03548*
X09323Y03548*
X09323Y03549*
X09323Y03549*
X09323Y03549*
X09322Y03549*
X09322Y03549*
X09322Y03549*
X09322Y0355*
X09321Y03551*
X09321Y03551*
X0932Y03552*
X0932Y03553*
X0932Y03553*
X0932Y03554*
X0932Y03554*
X0932Y03554*
Y03554*
Y03554*
X09323Y03555*
X09323Y03554*
X09323Y03553*
X09324Y03552*
X09324Y03552*
X09324Y03551*
X09324Y03551*
X09324Y03551*
X09325Y03551*
X09325Y0355*
X09326Y0355*
X09326Y0355*
X09327Y0355*
X09327Y0355*
X09328Y0355*
X09328Y0355*
X09328*
X09329Y0355*
X0933Y0355*
X0933Y0355*
X09331Y0355*
X09331Y0355*
X09331Y03551*
X09331Y03551*
X09332Y03551*
X09332Y03551*
X09332Y03552*
X09333Y03552*
X09333Y03553*
X09333Y03553*
X09333Y03554*
X09333Y03554*
Y03554*
Y03554*
X09333Y03555*
X09333Y03555*
X09332Y03556*
X09332Y03556*
X09332Y03557*
X09332Y03557*
X09332Y03558*
X09332Y03558*
X09331Y03558*
Y03558*
X09331Y03558*
X09331Y03559*
X0933Y03559*
X0933Y03559*
X09329Y0356*
X09328Y03561*
X09327Y03562*
X09327Y03562*
X09327Y03562*
X09326Y03563*
X09326Y03563*
X09326Y03563*
X09326Y03563*
X09325Y03564*
X09324Y03565*
X09323Y03565*
X09323Y03566*
X09322Y03566*
X09322Y03567*
X09322Y03567*
X09322Y03567*
Y03567*
X09321Y03567*
X09321Y03568*
X09321Y03569*
X0932Y03569*
X0932Y0357*
X0932Y0357*
X0932Y0357*
X0932Y0357*
Y0357*
X0932Y03571*
X0932Y03571*
X0932Y03571*
X09319Y03572*
X09319Y03572*
Y03572*
Y03572*
Y03572*
X09336*
Y03569*
G37*
G36*
X09245Y03688D02*
X09246Y03687D01*
X09247Y03687*
X09248Y03687*
X09248Y03686*
X09249Y03686*
X09249Y03686*
X09249Y03686*
X09249Y03686*
X09249Y03686*
X09249Y03686*
X0925Y03685*
X0925Y03684*
X09251Y03684*
X09251Y03683*
X09251Y03682*
X09251Y03682*
X09252Y03682*
X09252Y03681*
X09252Y03681*
X09252Y03681*
Y03681*
X09249Y03681*
X09248Y03681*
X09248Y03682*
X09248Y03683*
X09248Y03683*
X09247Y03684*
X09247Y03684*
X09247Y03684*
X09247Y03684*
X09247Y03684*
X09246Y03685*
X09246Y03685*
X09245Y03685*
X09245Y03685*
X09244Y03685*
X09244*
X09243Y03685*
X09243Y03685*
X09242Y03685*
X09242Y03685*
X09242Y03684*
X09241Y03684*
X09241Y03684*
X09241Y03684*
X09241Y03684*
X0924Y03683*
X0924Y03683*
X0924Y03682*
X0924Y03682*
X0924Y03681*
Y03681*
Y03681*
Y03681*
X0924Y0368*
X0924Y0368*
X0924Y03679*
X09241Y03679*
X09241Y03678*
X09241Y03678*
X09241Y03678*
X09242Y03678*
X09242Y03678*
X09243Y03677*
X09243Y03677*
X09244Y03677*
X09244Y03677*
X09245Y03677*
X09245*
X09245Y03677*
X09246*
X09246Y03674*
X09245Y03674*
X09245Y03674*
X09245Y03675*
X09244Y03675*
X09244Y03675*
X09244*
X09243Y03675*
X09242Y03674*
X09242Y03674*
X09241Y03674*
X09241Y03674*
X0924Y03673*
X0924Y03673*
X0924Y03673*
X0924Y03673*
X09239Y03672*
X09239Y03672*
X09239Y03671*
X09239Y0367*
X09239Y0367*
X09239Y0367*
Y0367*
Y0367*
Y0367*
X09239Y03669*
X09239Y03668*
X09239Y03668*
X0924Y03667*
X0924Y03667*
X0924Y03666*
X0924Y03666*
X0924Y03666*
X09241Y03665*
X09242Y03665*
X09242Y03665*
X09243Y03665*
X09243Y03665*
X09244Y03665*
X09244Y03664*
X09244*
X09245Y03665*
X09245Y03665*
X09246Y03665*
X09246Y03665*
X09247Y03665*
X09247Y03665*
X09247Y03666*
X09247Y03666*
X09248Y03666*
X09248Y03667*
X09248Y03667*
X09248Y03668*
X09249Y03669*
X09249Y03669*
X09249Y03669*
Y03669*
X09249Y03669*
Y03669*
X09252Y03669*
X09252Y03668*
X09252Y03668*
X09251Y03667*
X09251Y03666*
X09251Y03665*
X0925Y03665*
X0925Y03665*
X0925Y03664*
X0925Y03664*
X0925Y03664*
X0925Y03664*
X0925Y03664*
X0925Y03664*
X09249Y03664*
X09249Y03663*
X09248Y03663*
X09248Y03663*
X09247Y03662*
X09246Y03662*
X09246Y03662*
X09245Y03662*
X09245Y03662*
X09245Y03662*
X09244Y03662*
X09244*
X09243Y03662*
X09243Y03662*
X09242Y03662*
X09242Y03662*
X09241Y03662*
X0924Y03663*
X0924Y03663*
X0924Y03663*
X09239Y03663*
X09239Y03663*
X09239Y03664*
X09238Y03664*
X09238Y03664*
X09238Y03664*
X09238Y03664*
X09238Y03664*
X09238Y03665*
X09237Y03665*
X09237Y03666*
X09237Y03666*
X09236Y03666*
X09236Y03667*
X09236Y03668*
X09236Y03668*
X09236Y03669*
X09236Y03669*
X09236Y03669*
X09236Y03669*
Y0367*
Y0367*
Y0367*
X09236Y03671*
X09236Y03671*
X09236Y03672*
X09236Y03673*
X09236Y03673*
X09237Y03674*
X09237Y03674*
X09237Y03674*
X09237Y03674*
X09238Y03675*
X09238Y03675*
X09239Y03676*
X09239Y03676*
X0924Y03676*
X0924Y03676*
X0924*
X0924Y03676*
X0924*
X0924Y03676*
X09239Y03677*
X09239Y03677*
X09238Y03677*
X09238Y03678*
X09238Y03678*
X09238Y03678*
X09238Y03678*
X09237Y03679*
X09237Y03679*
X09237Y0368*
X09237Y0368*
X09237Y03681*
X09237Y03681*
Y03681*
Y03681*
X09237Y03682*
X09237Y03682*
X09237Y03683*
X09237Y03683*
X09237Y03684*
X09238Y03684*
X09238Y03684*
X09238Y03684*
X09238Y03685*
X09238Y03685*
X09239Y03686*
X09239Y03686*
X0924Y03686*
X0924Y03687*
X0924Y03687*
X0924Y03687*
X0924*
X09241Y03687*
X09242Y03687*
X09242Y03687*
X09243Y03688*
X09243Y03688*
X09244Y03688*
X09245*
X09245Y03688*
G37*
G36*
X09264Y03688D02*
X09265Y03688D01*
X09266Y03687*
X09266Y03687*
X09267Y03687*
X09267Y03687*
X09268Y03687*
X09268Y03687*
X09268Y03686*
X09268Y03686*
X09269Y03686*
X09269Y03686*
X09269Y03686*
X09269Y03686*
X09269Y03686*
X09269Y03685*
X0927Y03685*
X0927Y03684*
X09271Y03683*
X09271Y03682*
X09271Y03682*
X09271Y03681*
X09271Y03681*
X09271Y03681*
X09271Y03681*
Y0368*
Y0368*
X09268Y0368*
X09268Y03681*
X09268Y03682*
X09268Y03682*
X09268Y03683*
X09267Y03683*
X09267Y03683*
X09267Y03684*
X09267Y03684*
X09266Y03684*
X09266Y03685*
X09265Y03685*
X09265Y03685*
X09264Y03685*
X09264Y03685*
X09264Y03685*
X09263*
X09263Y03685*
X09262Y03685*
X09261Y03685*
X09261Y03684*
X0926Y03684*
X0926Y03684*
X0926Y03684*
X0926Y03684*
X09259Y03683*
X09259Y03683*
X09259Y03682*
X09259Y03682*
X09259Y03681*
X09259Y03681*
X09259Y03681*
Y03681*
Y03681*
X09259Y0368*
X09259Y03679*
X09259Y03679*
X09259Y03678*
X0926Y03678*
X0926Y03677*
X0926Y03677*
X0926Y03677*
X0926Y03677*
Y03677*
X0926Y03677*
X09261Y03676*
X09261Y03676*
X09262Y03675*
X09262Y03674*
X09263Y03674*
X09264Y03673*
X09265Y03672*
X09265Y03672*
X09265Y03672*
X09265Y03672*
X09266Y03672*
X09266Y03672*
X09267Y03671*
X09267Y0367*
X09268Y03669*
X09269Y03669*
X09269Y03668*
X09269Y03668*
X0927Y03668*
X0927Y03668*
Y03668*
X0927Y03667*
X09271Y03667*
X09271Y03666*
X09271Y03666*
X09271Y03665*
X09272Y03665*
X09272Y03665*
X09272Y03664*
Y03664*
X09272Y03664*
X09272Y03664*
X09272Y03663*
X09272Y03663*
X09272Y03663*
Y03663*
Y03662*
Y03662*
X09255*
Y03665*
X09268*
X09267Y03666*
X09267Y03666*
X09267Y03667*
X09267Y03667*
X09266Y03667*
X09266Y03667*
X09266Y03667*
X09266Y03667*
X09266Y03668*
X09265Y03668*
X09264Y03669*
X09264Y03669*
X09263Y0367*
X09263Y0367*
X09263Y0367*
X09263Y0367*
X09263Y0367*
X09262Y03671*
X09262Y03671*
X09261Y03672*
X09261Y03672*
X0926Y03672*
X0926Y03673*
X0926Y03673*
X09259Y03673*
X09259Y03674*
X09259Y03674*
X09258Y03674*
X09258Y03674*
X09258Y03675*
X09258Y03675*
X09257Y03676*
X09257Y03676*
X09257Y03677*
X09256Y03677*
X09256Y03677*
X09256Y03678*
X09256Y03678*
X09256Y03678*
X09256Y03679*
X09256Y03679*
X09255Y0368*
X09255Y0368*
X09255Y0368*
Y03681*
Y03681*
X09255Y03681*
X09255Y03682*
X09256Y03683*
X09256Y03684*
X09256Y03684*
X09257Y03685*
X09257Y03685*
X09257Y03685*
X09257Y03685*
X09257Y03686*
X09257Y03686*
X09258Y03686*
X09258Y03686*
X09258Y03686*
X09259Y03687*
X09259Y03687*
X0926Y03687*
X09261Y03687*
X09262Y03688*
X09262Y03688*
X09262Y03688*
X09263Y03688*
X09263Y03688*
X09263*
X09264Y03688*
G37*
G36*
X09296Y03662D02*
X09292D01*
Y03674*
X09288*
X09288Y03673*
X09287*
X09287Y03673*
X09287Y03673*
X09287*
X09287Y03673*
X09287*
X09286Y03673*
X09286Y03673*
X09285Y03673*
X09285Y03673*
X09285Y03673*
X09285Y03673*
X09285Y03673*
X09285Y03672*
X09284Y03672*
X09284Y03671*
X09284Y03671*
X09284Y03671*
X09283Y03671*
X09283Y03671*
X09283Y0367*
X09282Y03669*
X09282Y03669*
X09282Y03668*
X09281Y03668*
X09281Y03668*
X09281Y03668*
X09281Y03668*
Y03668*
X09278Y03662*
X09274*
X09278Y03669*
X09278Y0367*
X09279Y03671*
X09279Y03671*
X0928Y03672*
X0928Y03672*
X0928Y03672*
X09281Y03672*
X09281Y03673*
X09281Y03673*
X09281Y03673*
X09282Y03673*
X09282Y03674*
X09282Y03674*
X09283Y03674*
X09283Y03674*
X09282Y03674*
X09281Y03674*
X09281Y03674*
X0928Y03674*
X0928Y03675*
X09279Y03675*
X09279Y03675*
X09279Y03675*
X09278Y03675*
X09278Y03675*
X09278Y03676*
X09278Y03676*
X09278Y03676*
X09277Y03676*
X09277Y03676*
X09277Y03676*
X09277Y03677*
X09276Y03678*
X09276Y03678*
X09276Y03679*
X09276Y0368*
X09276Y0368*
Y0368*
X09276Y0368*
Y03681*
Y03681*
Y03681*
X09276Y03681*
X09276Y03682*
X09276Y03683*
X09276Y03683*
X09276Y03684*
X09276Y03684*
X09277Y03684*
X09277Y03684*
X09277Y03685*
X09278Y03686*
X09278Y03686*
X09278Y03686*
X09279Y03687*
X09279Y03687*
X09279Y03687*
X09279Y03687*
X09279*
X0928Y03687*
X0928Y03687*
X09281Y03687*
X09282Y03687*
X09283Y03687*
X09283Y03688*
X09284*
X09284Y03688*
X09296*
Y03662*
G37*
G36*
X09266Y03786D02*
X09267Y03786D01*
X09268Y03785*
X09268Y03785*
X09269Y03785*
X09269Y03785*
X0927Y03785*
X0927Y03785*
X0927Y03784*
X0927Y03784*
X09271Y03784*
X09271Y03784*
X09271Y03784*
X09271Y03784*
X09271Y03784*
X09271Y03783*
X09272Y03783*
X09272Y03782*
X09273Y03781*
X09273Y0378*
X09273Y0378*
X09273Y03779*
X09273Y03779*
X09273Y03779*
X09273Y03779*
Y03778*
Y03778*
X0927Y03778*
X0927Y03779*
X0927Y0378*
X0927Y0378*
X0927Y03781*
X09269Y03781*
X09269Y03781*
X09269Y03782*
X09269Y03782*
X09268Y03782*
X09268Y03783*
X09267Y03783*
X09267Y03783*
X09266Y03783*
X09266Y03783*
X09266Y03783*
X09265*
X09265Y03783*
X09264Y03783*
X09263Y03783*
X09263Y03782*
X09262Y03782*
X09262Y03782*
X09262Y03782*
X09262Y03782*
X09261Y03781*
X09261Y03781*
X09261Y0378*
X09261Y0378*
X09261Y03779*
X09261Y03779*
X09261Y03779*
Y03779*
Y03779*
X09261Y03778*
X09261Y03777*
X09261Y03777*
X09261Y03776*
X09262Y03776*
X09262Y03775*
X09262Y03775*
X09262Y03775*
X09262Y03775*
Y03775*
X09262Y03775*
X09263Y03774*
X09263Y03774*
X09264Y03773*
X09264Y03772*
X09265Y03772*
X09266Y03771*
X09267Y0377*
X09267Y0377*
X09267Y0377*
X09267Y0377*
X09268Y0377*
X09268Y0377*
X09269Y03769*
X09269Y03768*
X0927Y03767*
X09271Y03767*
X09271Y03766*
X09271Y03766*
X09272Y03766*
X09272Y03766*
Y03766*
X09272Y03765*
X09273Y03765*
X09273Y03764*
X09273Y03764*
X09273Y03763*
X09274Y03763*
X09274Y03763*
X09274Y03762*
Y03762*
X09274Y03762*
X09274Y03762*
X09274Y03761*
X09274Y03761*
X09274Y03761*
Y03761*
Y0376*
Y0376*
X09257*
Y03763*
X0927*
X09269Y03764*
X09269Y03764*
X09269Y03765*
X09269Y03765*
X09268Y03765*
X09268Y03765*
X09268Y03765*
X09268Y03765*
X09268Y03766*
X09267Y03766*
X09266Y03767*
X09266Y03767*
X09265Y03768*
X09265Y03768*
X09265Y03768*
X09265Y03768*
X09265Y03768*
X09264Y03769*
X09264Y03769*
X09263Y0377*
X09263Y0377*
X09262Y0377*
X09262Y03771*
X09262Y03771*
X09261Y03771*
X09261Y03772*
X09261Y03772*
X0926Y03772*
X0926Y03773*
X0926Y03773*
X0926Y03773*
X09259Y03774*
X09259Y03774*
X09259Y03775*
X09258Y03775*
X09258Y03775*
X09258Y03776*
X09258Y03776*
X09258Y03776*
X09258Y03777*
X09258Y03777*
X09257Y03778*
X09257Y03778*
X09257Y03778*
Y03779*
Y03779*
X09257Y03779*
X09257Y0378*
X09258Y03781*
X09258Y03782*
X09258Y03782*
X09259Y03783*
X09259Y03783*
X09259Y03783*
X09259Y03783*
X09259Y03784*
X09259Y03784*
X0926Y03784*
X0926Y03784*
X0926Y03784*
X09261Y03785*
X09261Y03785*
X09262Y03785*
X09263Y03785*
X09264Y03786*
X09264Y03786*
X09264Y03786*
X09265Y03786*
X09265Y03786*
X09265*
X09266Y03786*
G37*
G36*
X09298Y0376D02*
X09294D01*
Y03772*
X0929*
X0929Y03772*
X09289*
X09289Y03771*
X09289Y03771*
X09289*
X09289Y03771*
X09289*
X09288Y03771*
X09288Y03771*
X09287Y03771*
X09287Y03771*
X09287Y03771*
X09287Y03771*
X09287Y03771*
X09287Y0377*
X09286Y0377*
X09286Y03769*
X09286Y03769*
X09286Y03769*
X09285Y03769*
X09285Y03769*
X09285Y03768*
X09284Y03767*
X09284Y03767*
X09284Y03766*
X09283Y03766*
X09283Y03766*
X09283Y03766*
X09283Y03766*
Y03766*
X0928Y0376*
X09276*
X0928Y03767*
X0928Y03768*
X09281Y03769*
X09281Y03769*
X09282Y0377*
X09282Y0377*
X09282Y0377*
X09283Y0377*
X09283Y03771*
X09283Y03771*
X09283Y03771*
X09284Y03771*
X09284Y03772*
X09284Y03772*
X09285Y03772*
X09285Y03772*
X09284Y03772*
X09283Y03772*
X09283Y03772*
X09282Y03772*
X09282Y03773*
X09281Y03773*
X09281Y03773*
X09281Y03773*
X0928Y03773*
X0928Y03773*
X0928Y03774*
X0928Y03774*
X0928Y03774*
X09279Y03774*
X09279Y03774*
X09279Y03774*
X09279Y03775*
X09278Y03776*
X09278Y03776*
X09278Y03777*
X09278Y03778*
X09278Y03778*
Y03778*
X09278Y03778*
Y03779*
Y03779*
Y03779*
X09278Y03779*
X09278Y0378*
X09278Y03781*
X09278Y03781*
X09278Y03782*
X09278Y03782*
X09279Y03782*
X09279Y03782*
X09279Y03783*
X0928Y03784*
X0928Y03784*
X0928Y03784*
X09281Y03785*
X09281Y03785*
X09281Y03785*
X09281Y03785*
X09281*
X09282Y03785*
X09282Y03785*
X09283Y03785*
X09284Y03785*
X09285Y03785*
X09285Y03786*
X09286*
X09286Y03786*
X09298*
Y0376*
G37*
G36*
X09255Y03769D02*
Y03766D01*
X09244*
Y0376*
X09241*
Y03766*
X09238*
Y03769*
X09241*
Y03786*
X09244*
X09255Y03769*
G37*
G36*
X09414Y04133D02*
X09414Y04132D01*
X09415Y04132*
X09416Y04132*
X09416Y04132*
X09417Y04132*
X09417Y04132*
X09417Y04131*
X09418Y04131*
X09418Y04131*
X09418Y04131*
X09418Y04131*
X09419Y04131*
X09419Y04131*
X09419Y04131*
X09419Y0413*
X09419Y0413*
X0942Y04129*
X0942Y04128*
X09421Y04127*
X09421Y04126*
X09421Y04126*
X09421Y04126*
X09421Y04126*
X09421Y04125*
Y04125*
Y04125*
X09418Y04125*
X09418Y04126*
X09418Y04126*
X09417Y04127*
X09417Y04128*
X09417Y04128*
X09417Y04128*
X09417Y04129*
X09417Y04129*
X09416Y04129*
X09415Y04129*
X09415Y0413*
X09414Y0413*
X09414Y0413*
X09413Y0413*
X09413Y0413*
X09413*
X09412Y0413*
X09412Y0413*
X09411Y0413*
X0941Y04129*
X0941Y04129*
X0941Y04129*
X0941Y04129*
X0941Y04129*
X09409Y04128*
X09409Y04128*
X09409Y04127*
X09408Y04127*
X09408Y04126*
X09408Y04126*
X09408Y04126*
Y04126*
Y04126*
X09408Y04125*
X09408Y04124*
X09409Y04124*
X09409Y04123*
X09409Y04123*
X09409Y04122*
X0941Y04122*
X0941Y04122*
X0941Y04122*
Y04122*
X0941Y04121*
X0941Y04121*
X09411Y04121*
X09411Y0412*
X09412Y04119*
X09413Y04118*
X09414Y04118*
X09414Y04117*
X09415Y04117*
X09415Y04117*
X09415Y04117*
X09415Y04117*
X09415Y04116*
X09416Y04116*
X09417Y04115*
X09418Y04114*
X09418Y04114*
X09419Y04113*
X09419Y04113*
X09419Y04113*
X09419Y04113*
Y04113*
X0942Y04112*
X0942Y04111*
X09421Y04111*
X09421Y0411*
X09421Y0411*
X09421Y0411*
X09421Y04109*
X09421Y04109*
Y04109*
X09421Y04109*
X09422Y04109*
X09422Y04108*
X09422Y04108*
X09422Y04108*
Y04107*
Y04107*
Y04107*
X09405*
Y0411*
X09417*
X09417Y04111*
X09417Y04111*
X09416Y04112*
X09416Y04112*
X09416Y04112*
X09416Y04112*
X09416Y04112*
X09416Y04112*
X09415Y04113*
X09415Y04113*
X09414Y04114*
X09413Y04114*
X09413Y04115*
X09413Y04115*
X09413Y04115*
X09413Y04115*
X09412Y04115*
X09412Y04116*
X09411Y04116*
X09411Y04116*
X0941Y04117*
X0941Y04117*
X0941Y04118*
X09409Y04118*
X09409Y04118*
X09409Y04119*
X09408Y04119*
X09408Y04119*
X09408Y04119*
X09408Y04119*
X09407Y0412*
X09407Y04121*
X09406Y04121*
X09406Y04122*
X09406Y04122*
X09406Y04122*
X09406Y04122*
X09406Y04123*
X09405Y04123*
X09405Y04124*
X09405Y04124*
X09405Y04125*
X09405Y04125*
X09405Y04125*
Y04125*
Y04126*
X09405Y04126*
X09405Y04127*
X09405Y04128*
X09406Y04128*
X09406Y04129*
X09406Y0413*
X09407Y0413*
X09407Y0413*
X09407Y0413*
X09407Y0413*
X09407Y0413*
X09407Y04131*
X09408Y04131*
X09408Y04131*
X09408Y04131*
X09409Y04132*
X0941Y04132*
X09411Y04132*
X09411Y04132*
X09412Y04132*
X09412Y04132*
X09412Y04133*
X09413Y04133*
X09413*
X09414Y04133*
G37*
G36*
X09401Y04119D02*
X09398Y04119D01*
X09398Y04119*
X09398Y04119*
X09397Y0412*
X09397Y0412*
X09397Y0412*
X09397Y0412*
X09396Y0412*
X09396Y0412*
X09396Y04121*
X09395Y04121*
X09395Y04121*
X09395Y04121*
X09394Y04121*
X09394Y04121*
X09394*
X09393Y04121*
X09392Y04121*
X09391Y04121*
X09391Y0412*
X0939Y0412*
X0939Y0412*
X0939Y0412*
X0939Y0412*
X09389Y04119*
X09389Y04118*
X09389Y04118*
X09388Y04117*
X09388Y04116*
X09388Y04116*
Y04116*
X09388Y04116*
Y04116*
Y04116*
Y04115*
X09388Y04114*
X09388Y04114*
X09389Y04113*
X09389Y04112*
X09389Y04112*
X0939Y04111*
X0939Y04111*
X0939Y04111*
Y04111*
X0939Y04111*
X0939Y0411*
X09391Y0411*
X09392Y0411*
X09392Y0411*
X09393Y04109*
X09393Y04109*
X09393Y04109*
X09394*
X09394Y04109*
X09395Y0411*
X09395Y0411*
X09396Y0411*
X09396Y0411*
X09397Y0411*
X09397Y0411*
X09397Y0411*
X09397Y04111*
X09398Y04112*
X09398Y04112*
X09398Y04113*
X09398Y04113*
X09398Y04114*
X09398Y04114*
X09398Y04114*
Y04114*
Y04114*
X09402Y04114*
X09402Y04113*
X09401Y04113*
X09401Y04112*
X09401Y04111*
X094Y0411*
X094Y0411*
X094Y04109*
X094Y04109*
X094Y04109*
X09399Y04109*
X09399Y04109*
X09399Y04109*
X09399Y04109*
X09399Y04108*
X09398Y04108*
X09398Y04108*
X09397Y04108*
X09396Y04107*
X09396Y04107*
X09395Y04107*
X09395Y04107*
X09394Y04107*
X09394Y04107*
X09394Y04107*
X09394*
X09393Y04107*
X09392Y04107*
X09391Y04107*
X09391Y04107*
X0939Y04107*
X0939Y04108*
X09389Y04108*
X09389Y04108*
X09388Y04109*
X09388Y04109*
X09388Y04109*
X09387Y04109*
X09387Y0411*
X09387Y0411*
X09387Y0411*
X09387Y0411*
X09387Y0411*
X09386Y04111*
X09386Y04111*
X09386Y04112*
X09385Y04113*
X09385Y04114*
X09385Y04114*
X09385Y04115*
X09385Y04115*
X09385Y04115*
X09385Y04115*
Y04116*
Y04116*
Y04116*
X09385Y04116*
X09385Y04117*
X09385Y04118*
X09385Y04118*
X09386Y04119*
X09386Y04119*
X09386Y0412*
X09386Y0412*
X09386Y0412*
X09387Y04121*
X09387Y04121*
X09387Y04121*
X09387Y04121*
X09387Y04121*
X09387Y04122*
X09387Y04122*
X09388Y04122*
X09388Y04122*
X09389Y04123*
X09389Y04123*
X0939Y04123*
X0939Y04123*
X09391Y04124*
X09391Y04124*
X09392Y04124*
X09392Y04124*
X09392Y04124*
X09393Y04124*
X09393*
X09394Y04124*
X09395Y04124*
X09395Y04123*
X09396Y04123*
X09397Y04123*
X09397Y04123*
X09397Y04123*
X09397Y04122*
X09397Y04122*
X09398Y04122*
X09398Y04122*
X09396Y04129*
X09386*
Y04132*
X09399*
X09401Y04119*
G37*
G36*
X09445Y04107D02*
X09442D01*
Y04118*
X09438*
X09437Y04118*
X09437*
X09437Y04118*
X09437Y04118*
X09436*
X09436Y04118*
X09436*
X09436Y04118*
X09435Y04118*
X09435Y04118*
X09435Y04118*
X09435Y04118*
X09435Y04118*
X09435Y04117*
X09434Y04117*
X09434Y04117*
X09433Y04116*
X09433Y04116*
X09433Y04116*
X09433Y04116*
X09433Y04115*
X09432Y04115*
X09432Y04114*
X09432Y04114*
X09431Y04113*
X09431Y04113*
X09431Y04113*
X09431Y04113*
X09431Y04112*
Y04112*
X09427Y04107*
X09423*
X09428Y04114*
X09428Y04115*
X09429Y04115*
X09429Y04116*
X09429Y04116*
X0943Y04117*
X0943Y04117*
X0943Y04117*
X0943Y04117*
X09431Y04118*
X09431Y04118*
X09432Y04118*
X09432Y04118*
X09432Y04119*
X09432Y04119*
X09432Y04119*
X09432Y04119*
X09431Y04119*
X0943Y04119*
X0943Y04119*
X09429Y04119*
X09429Y0412*
X09429Y0412*
X09428Y0412*
X09428Y0412*
X09428Y0412*
X09427Y04121*
X09427Y04121*
X09427Y04121*
X09427Y04121*
X09427Y04121*
X09427Y04121*
X09426Y04122*
X09426Y04122*
X09426Y04123*
X09425Y04124*
X09425Y04125*
X09425Y04125*
Y04125*
X09425Y04125*
Y04125*
Y04125*
Y04126*
X09425Y04126*
X09425Y04127*
X09426Y04128*
X09426Y04128*
X09426Y04129*
X09426Y04129*
X09426Y04129*
X09426Y04129*
X09427Y0413*
X09427Y0413*
X09428Y04131*
X09428Y04131*
X09428Y04131*
X09429Y04132*
X09429Y04132*
X09429Y04132*
X09429*
X09429Y04132*
X0943Y04132*
X09431Y04132*
X09431Y04132*
X09432Y04132*
X09433Y04132*
X09433*
X09434Y04132*
X09445*
Y04107*
G37*
G36*
X09352Y03942D02*
X09353Y03942D01*
X09354Y03942*
X09355Y03942*
X09355Y03941*
X09355Y03941*
X09356Y03941*
X09356Y03941*
X09356Y03941*
X09356Y03941*
X09356*
X09357Y0394*
X09357Y0394*
X09358Y03939*
X09358Y03938*
X09359Y03938*
X09359Y03937*
X09359Y03937*
X09359Y03937*
X09359Y03937*
X09359Y03937*
Y03937*
X09359Y03936*
X09359Y03935*
X0936Y03934*
X0936Y03933*
X0936Y03932*
X0936Y03931*
X0936Y03931*
Y0393*
X0936Y0393*
Y03929*
Y03929*
Y03929*
Y03929*
Y03928*
X0936Y03927*
X0936Y03926*
X0936Y03926*
X0936Y03925*
X0936Y03925*
X0936Y03924*
X0936Y03924*
X09359Y03923*
X09359Y03923*
X09359Y03922*
X09359Y03922*
X09359Y03922*
X09359Y03922*
X09359Y03922*
Y03922*
X09359Y03921*
X09358Y0392*
X09358Y0392*
X09357Y03919*
X09357Y03919*
X09356Y03918*
X09356Y03918*
X09356Y03918*
X09356Y03918*
X09356*
X09355Y03918*
X09354Y03917*
X09354Y03917*
X09353Y03917*
X09352Y03917*
X09352Y03917*
X09352*
X09352Y03917*
X09351*
X09351Y03917*
X0935Y03917*
X0935Y03917*
X09349Y03917*
X09348Y03917*
X09348Y03918*
X09347Y03918*
X09347Y03918*
X09347Y03918*
X09346Y03918*
X09346Y03919*
X09346Y03919*
X09346Y03919*
X09346Y03919*
X09346Y03919*
X09345Y03919*
X09345Y0392*
X09345Y0392*
X09344Y03921*
X09344Y03921*
X09344Y03922*
X09344Y03923*
X09344Y03923*
X09344Y03924*
X09344Y03924*
X09344Y03925*
X09343Y03925*
Y03925*
Y03925*
Y03925*
X09344Y03926*
X09344Y03927*
X09344Y03927*
X09344Y03928*
X09344Y03928*
X09344Y03929*
X09344Y03929*
X09345Y0393*
X09345Y0393*
X09345Y0393*
X09345Y03931*
X09345Y03931*
X09345Y03931*
X09346Y03931*
X09346Y03931*
X09346Y03931*
X09346Y03932*
X09346Y03932*
X09347Y03932*
X09347Y03932*
X09348Y03933*
X09348Y03933*
X09349Y03933*
X0935Y03933*
X0935Y03933*
X0935Y03933*
X09351Y03933*
X09351*
X09352Y03933*
X09352Y03933*
X09353Y03933*
X09353Y03933*
X09354Y03933*
X09354Y03933*
X09354Y03933*
X09354Y03933*
X09355Y03932*
X09355Y03932*
X09356Y03931*
X09356Y03931*
X09357Y03931*
X09357Y0393*
X09357Y0393*
X09357Y0393*
Y0393*
Y03931*
Y03931*
Y03931*
Y03931*
X09357Y03932*
X09357Y03933*
X09357Y03933*
X09357Y03934*
X09357Y03934*
X09357Y03934*
Y03934*
X09357Y03935*
Y03935*
X09356Y03935*
X09356Y03936*
X09356Y03936*
X09356Y03937*
X09356Y03937*
X09355Y03937*
X09355Y03937*
X09355Y03938*
X09355Y03938*
X09355Y03938*
X09355Y03939*
X09354Y03939*
X09354Y03939*
X09354Y03939*
X09354Y03939*
X09354Y03939*
X09353Y03939*
X09353Y0394*
X09352Y0394*
X09352Y0394*
X09352Y0394*
X09351Y0394*
X09351*
X0935Y0394*
X0935Y0394*
X09349Y0394*
X09349Y03939*
X09349Y03939*
X09349Y03939*
X09348Y03939*
X09348Y03939*
X09348Y03939*
X09348Y03938*
X09347Y03938*
X09347Y03937*
X09347Y03937*
X09347Y03936*
X09347Y03936*
X09347Y03936*
Y03936*
Y03936*
X09344Y03936*
X09344Y03937*
X09344Y03938*
X09345Y03939*
X09345Y0394*
X09346Y0394*
X09346Y0394*
X09346Y03941*
X09346Y03941*
X09346Y03941*
X09347Y03941*
X09348Y03942*
X09349Y03942*
X09349Y03942*
X0935Y03942*
X0935Y03942*
X09351*
X09351Y03942*
X09351*
X09352Y03942*
G37*
G36*
X09331D02*
X09332Y03942D01*
X09332Y03942*
X09333Y03942*
X09333Y03942*
X09334Y03942*
X09334Y03942*
X09334Y03941*
X09335Y03941*
X09335Y03941*
X09335Y03941*
X09335Y03941*
X09335Y03941*
X09335*
X09336Y0394*
X09337Y0394*
X09337Y03939*
X09338Y03939*
X09338Y03938*
X09338Y03938*
X09338Y03938*
X09338Y03938*
X09338Y03937*
Y03937*
X09339Y03937*
X09339Y03936*
X09339Y03935*
X09339Y03934*
X09339Y03933*
X09339Y03933*
Y03932*
X09339Y03932*
Y03932*
Y03932*
Y03931*
Y03931*
Y03917*
X09336*
Y03931*
Y03932*
X09336Y03933*
X09336Y03934*
X09336Y03934*
X09335Y03935*
X09335Y03935*
X09335Y03936*
X09335Y03936*
X09335Y03937*
X09335Y03937*
X09335Y03937*
X09334Y03937*
X09334Y03938*
X09334Y03938*
X09334Y03938*
Y03938*
X09334Y03938*
X09334Y03938*
X09333Y03939*
X09332Y03939*
X09331Y03939*
X0933Y03939*
X0933Y03939*
X0933*
X09329Y03939*
X09329*
X09328Y03939*
X09328Y03939*
X09327Y03939*
X09326Y03939*
X09326Y03939*
X09326Y03939*
X09325Y03939*
X09325Y03939*
X09325Y03938*
X09324Y03938*
X09324Y03937*
X09324Y03937*
X09324Y03937*
X09323Y03936*
X09323Y03936*
X09323Y03936*
X09323Y03936*
X09323Y03936*
X09323Y03935*
X09323Y03934*
X09323Y03933*
X09323Y03932*
X09323Y03932*
Y03932*
Y03932*
Y03932*
Y03931*
Y03931*
Y03917*
X09319*
Y03931*
Y03932*
X09319Y03933*
X09319Y03933*
X0932Y03934*
X0932Y03935*
X0932Y03935*
X0932Y03936*
X0932Y03936*
X0932Y03936*
X0932Y03937*
X0932Y03937*
X0932Y03937*
X0932Y03937*
X0932Y03938*
X0932Y03938*
Y03938*
X09321Y03938*
X09321Y03939*
X09322Y0394*
X09322Y0394*
X09323Y03941*
X09323Y03941*
X09323Y03941*
X09323Y03941*
X09323Y03941*
X09324*
X09324Y03942*
X09325Y03942*
X09326Y03942*
X09327Y03942*
X09328Y03942*
X09328Y03942*
X09328Y03942*
X09329*
X09329Y03942*
X09329*
X09331Y03942*
G37*
G36*
X11407Y04285D02*
X11408Y04285D01*
X11409Y04284*
X11409Y04284*
X1141Y04284*
X1141Y04284*
X11411Y04284*
X11411Y04284*
X11411Y04284*
X11412Y04284*
X11412Y04284*
X11412Y04284*
X11412*
X11413Y04283*
X11414Y04282*
X11415Y04282*
X11416Y04281*
X11416Y04281*
X11416Y0428*
X11417Y0428*
X11417Y0428*
X11417Y0428*
X11417Y0428*
X11417Y04279*
X11417Y04279*
X11418Y04278*
X11418Y04276*
X11418Y04275*
X11418Y04275*
X11418Y04274*
X11418Y04274*
Y04274*
X11418Y04273*
Y04273*
X11418Y04272*
X11418Y04272*
X11418Y0427*
X11418Y0427*
X11418Y04269*
X11417Y04269*
X11417Y04268*
X11417Y04268*
X11417Y04267*
X11417Y04267*
X11417Y04267*
X11416Y04267*
X11416Y04266*
X11416Y04266*
X11416Y04266*
X11416Y04266*
X11415Y04265*
X11414Y04265*
X11413Y04264*
X11412Y04263*
X11412Y04263*
X11411Y04263*
X11411Y04263*
X11411Y04263*
X1141Y04263*
X1141Y04263*
X1141Y04263*
X1141*
X11409Y04266*
X1141Y04266*
X11411Y04267*
X11412Y04267*
X11413Y04267*
X11413Y04268*
X11414Y04268*
X11414Y04268*
X11414Y04268*
X11414Y04269*
X11414Y04269*
X11415Y0427*
X11415Y04271*
X11415Y04272*
X11415Y04272*
X11416Y04273*
Y04273*
X11416Y04273*
Y04273*
X11416Y04274*
X11415Y04275*
X11415Y04276*
X11415Y04276*
X11415Y04277*
X11415Y04277*
X11415Y04277*
X11414Y04277*
X11414Y04278*
Y04278*
X11414Y04278*
X11413Y04279*
X11413Y04279*
X11412Y0428*
X11412Y0428*
X11411Y0428*
X11411Y0428*
X11411Y0428*
X11411Y0428*
X11411*
X1141Y04281*
X11409Y04281*
X11408Y04281*
X11407Y04281*
X11407Y04281*
X11406Y04281*
X11406*
X11406Y04281*
X11405*
X11405*
X11405*
X11405*
X11404Y04281*
X11403Y04281*
X11403Y04281*
X11402Y04281*
X11401Y04281*
X11401Y04281*
X11401Y04281*
X11401Y04281*
X114Y04281*
X114Y04281*
X114*
X11399Y0428*
X11399Y0428*
X11398Y04279*
X11398Y04279*
X11397Y04279*
X11397Y04278*
X11397Y04278*
X11397Y04278*
Y04278*
X11396Y04277*
X11396Y04276*
X11395Y04275*
X11395Y04275*
X11395Y04274*
X11395Y04274*
Y04273*
X11395Y04273*
Y04273*
X11395Y04272*
X11395Y04271*
X11396Y04271*
X11396Y0427*
X11396Y04269*
X11396Y04269*
X11396Y04269*
X11396Y04269*
X11397Y04268*
X11398Y04268*
X11398Y04267*
X11399Y04267*
X11399Y04267*
X114Y04267*
X114Y04266*
X114Y04266*
X114Y04266*
X114Y04266*
X114*
X114Y04263*
X11398Y04263*
X11398Y04264*
X11397Y04264*
X11397Y04264*
X11396Y04265*
X11396Y04265*
X11396Y04265*
X11395Y04265*
X11395Y04266*
X11395Y04266*
X11395Y04266*
X11394Y04266*
X11394Y04266*
X11394Y04267*
X11394Y04267*
X11394Y04267*
X11394Y04268*
X11393Y04268*
X11393Y04269*
X11393Y0427*
X11393Y04271*
X11392Y04271*
X11392Y04272*
X11392Y04272*
X11392Y04272*
X11392Y04273*
Y04273*
X11392Y04274*
X11393Y04275*
X11393Y04276*
X11393Y04277*
X11393Y04277*
X11393Y04278*
X11393Y04278*
X11393Y04278*
X11394Y04279*
X11394Y04279*
X11394Y04279*
X11394Y04279*
Y04279*
X11394Y0428*
X11395Y04281*
X11396Y04282*
X11397Y04282*
X11397Y04283*
X11398Y04283*
X11398Y04283*
X11398Y04283*
X11398Y04283*
X11398Y04283*
X11398*
X11399Y04284*
X11401Y04284*
X11402Y04284*
X11403Y04285*
X11403Y04285*
X11404Y04285*
X11404Y04285*
X11405*
X11405Y04285*
X11405*
X11405*
X11405*
X11407Y04285*
G37*
G36*
X11407Y0426D02*
X11408Y0426D01*
X11409Y0426*
X1141Y04259*
X11411Y04259*
X11412Y04259*
X11413Y04259*
X11413Y04259*
X11414Y04258*
X11414Y04258*
X11415Y04258*
X11415Y04258*
X11415Y04258*
X11415Y04258*
X11416Y04257*
X11416Y04257*
X11416Y04257*
X11416Y04256*
X11417Y04256*
X11417Y04255*
X11417Y04255*
X11418Y04254*
X11418Y04254*
X11418Y04253*
X11418Y04253*
X11418Y04252*
X11418Y04252*
X11418Y04252*
Y04251*
X11418Y04251*
Y04251*
X11418Y0425*
X11418Y0425*
X11418Y04249*
X11418Y04248*
X11418Y04248*
X11417Y04247*
X11417Y04247*
X11417Y04247*
X11417Y04246*
X11416Y04246*
X11416Y04245*
X11415Y04245*
X11415Y04245*
X11415Y04244*
X11414Y04244*
X11414Y04244*
X11414Y04244*
X11414*
X11413Y04244*
X11413Y04244*
X11412Y04243*
X11411Y04243*
X11411Y04243*
X1141*
X1141Y04243*
X1141*
X1141*
X1141*
X1141*
X11409Y04243*
X11408Y04243*
X11408Y04243*
X11407Y04244*
X11407Y04244*
X11406Y04244*
X11406Y04244*
X11405Y04244*
X11405Y04244*
X11405Y04245*
X11405Y04245*
X11404Y04245*
X11404Y04245*
X11404Y04245*
X11404Y04245*
X11404Y04245*
X11403Y04246*
X11403Y04246*
X11403Y04247*
X11403Y04247*
X11402Y04248*
X11402Y04248*
X11402Y04249*
X11402Y0425*
X11402Y0425*
X11402Y0425*
X11402Y0425*
Y04251*
X11402Y04251*
X11402Y04252*
X11402Y04253*
X11402Y04253*
X11402Y04253*
X11402Y04254*
X11402Y04254*
X11402Y04254*
X11403Y04255*
X11403Y04255*
X11404Y04256*
X11404Y04256*
X11404Y04256*
X11405Y04257*
X11405Y04257*
X11405Y04257*
X11404*
X11404Y04257*
X11403Y04257*
X11402Y04257*
X11402Y04257*
X11401Y04257*
X11401Y04256*
X11401Y04256*
X114Y04256*
X114Y04256*
X114Y04256*
X114Y04256*
X11399Y04256*
X11399Y04256*
X11399Y04256*
X11399*
X11398Y04256*
X11398Y04255*
X11397Y04255*
X11397Y04254*
X11396Y04254*
X11396Y04254*
X11396Y04254*
X11396Y04254*
X11396Y04253*
X11395Y04253*
X11395Y04252*
X11395Y04252*
X11395Y04252*
X11395Y04251*
Y04251*
X11395Y0425*
X11395Y0425*
X11396Y04249*
X11396Y04249*
X11396Y04248*
X11396Y04248*
X11396Y04248*
X11396Y04248*
X11397Y04248*
X11397Y04247*
X11398Y04247*
X11398Y04247*
X11399Y04247*
X11399Y04247*
X11399*
X11399*
X11399Y04244*
X11398Y04244*
X11397Y04244*
X11396Y04244*
X11395Y04245*
X11395Y04245*
X11395Y04246*
X11394Y04246*
X11394Y04246*
Y04246*
X11394Y04246*
X11394Y04247*
X11393Y04247*
X11393Y04248*
X11393Y04249*
X11393Y0425*
X11393Y0425*
Y0425*
X11393Y04251*
Y04251*
X11393Y04252*
X11393Y04252*
X11393Y04253*
X11393Y04253*
X11393Y04254*
X11394Y04255*
X11394Y04255*
X11394Y04255*
X11394Y04256*
X11395Y04256*
X11395Y04256*
X11395Y04257*
X11395Y04257*
X11395Y04257*
X11395Y04257*
X11396Y04257*
X11396Y04258*
X11397Y04258*
X11398Y04258*
X11399Y04259*
X11399Y04259*
X114Y04259*
X11401Y04259*
X11402Y0426*
X11403Y0426*
X11404Y0426*
X11404Y0426*
X11405Y0426*
X11405Y0426*
X11406*
X11406*
X11406*
X11406*
X11406*
X11407Y0426*
G37*
G36*
X11228Y0431D02*
X11225D01*
Y04322*
X11224Y04322*
X11222Y04321*
X11221Y0432*
X1122Y04319*
X1122Y04319*
X11219Y04319*
X11219Y04319*
X11219Y04318*
X11218Y04318*
X11218Y04318*
X11218Y04318*
X11218Y04318*
X11217Y04317*
X11215Y04317*
X11214Y04316*
X11213Y04316*
X11212Y04316*
X11212Y04315*
X11211Y04315*
X11211Y04315*
X11211Y04315*
X1121Y04315*
X1121Y04315*
X1121Y04315*
X1121*
X11208Y04314*
X11208Y04314*
X11207Y04314*
X11206Y04314*
X11206Y04314*
X11205Y04314*
X11205Y04314*
X11204Y04314*
X11204Y04314*
X11203Y04314*
X11203*
X11203Y04314*
X11203*
X11203*
X11203*
Y04317*
X11204Y04317*
X11205Y04317*
X11207Y04317*
X11207Y04317*
X11208Y04317*
X11208Y04318*
X11208Y04318*
X11209Y04318*
X11209Y04318*
X11209Y04318*
X11209Y04318*
X1121Y04318*
X1121*
X11211Y04319*
X11213Y04319*
X11214Y04319*
X11214Y0432*
X11215Y0432*
X11216Y0432*
X11216Y04321*
X11217Y04321*
X11217Y04321*
X11218Y04321*
X11218Y04321*
X11218Y04322*
X11218Y04322*
X11218Y04322*
X11219Y04322*
X1122Y04323*
X11221Y04323*
X11221Y04323*
X11222Y04324*
X11222Y04324*
X11223Y04325*
X11223Y04325*
X11224Y04325*
X11224Y04326*
X11224Y04326*
X11225Y04326*
X11225Y04326*
X11225Y04326*
X11225Y04326*
X11225Y04326*
X11228*
Y0431*
G37*
G36*
X11212Y04304D02*
X1121Y04303D01*
X11209Y04303*
X11209Y04303*
X11208Y04302*
X11207Y04302*
X11207Y04301*
X11207Y04301*
X11207Y04301*
X11207Y04301*
X11206Y043*
X11206Y043*
X11205Y04299*
X11205Y04298*
X11205Y04297*
X11205Y04297*
Y04297*
X11205Y04297*
Y04296*
X11205Y04296*
X11205Y04295*
X11205Y04294*
X11206Y04293*
X11206Y04293*
X11206Y04292*
X11206Y04292*
X11206Y04292*
X11206Y04292*
Y04292*
X11207Y04291*
X11207Y04291*
X11208Y0429*
X11209Y0429*
X11209Y0429*
X11209Y04289*
X1121Y04289*
X1121Y04289*
X1121Y04289*
X1121*
X11211Y04289*
X11212Y04289*
X11213Y04288*
X11214Y04288*
X11214Y04288*
X11214Y04288*
X11215*
X11215Y04288*
X11215*
X11215*
X11215*
X11215*
X11216Y04288*
X11217Y04288*
X11218Y04288*
X11219Y04289*
X11219Y04289*
X1122Y04289*
X1122Y04289*
X1122Y04289*
X1122Y04289*
X1122Y04289*
X1122*
X11221Y04289*
X11222Y0429*
X11223Y0429*
X11223Y04291*
X11223Y04291*
X11224Y04291*
X11224Y04292*
X11224Y04292*
Y04292*
X11225Y04293*
X11225Y04293*
X11225Y04294*
X11225Y04295*
X11225Y04296*
X11225Y04296*
Y04296*
X11225Y04296*
Y04297*
X11225Y04298*
X11225Y04298*
X11225Y04299*
X11225Y043*
X11225Y043*
X11224Y043*
X11224Y04301*
X11224Y04301*
X11224Y04301*
X11223Y04302*
X11222Y04302*
X11222Y04303*
X11221Y04303*
X11221Y04303*
X11221Y04303*
X1122Y04303*
X1122Y04303*
X1122Y04303*
X1122*
X11221Y04307*
X11222Y04306*
X11223Y04306*
X11223Y04306*
X11224Y04305*
X11224Y04305*
X11225Y04305*
X11225Y04304*
X11225Y04304*
X11226Y04304*
X11226Y04304*
X11226Y04303*
X11226Y04303*
X11226Y04303*
X11226Y04303*
X11226Y04303*
X11227Y04303*
X11227Y04302*
X11227Y04302*
X11228Y04301*
X11228Y043*
X11228Y04299*
X11228Y04298*
X11228Y04298*
X11228Y04298*
X11228Y04297*
X11228Y04297*
Y04297*
X11228Y04295*
X11228Y04294*
X11228Y04293*
X11228Y04293*
X11228Y04292*
X11227Y04292*
X11227Y04292*
X11227Y04291*
X11227Y04291*
X11227Y04291*
X11227Y04291*
X11227Y04291*
Y04291*
X11226Y0429*
X11225Y04289*
X11225Y04288*
X11224Y04287*
X11223Y04287*
X11223Y04287*
X11223Y04287*
X11223Y04286*
X11222Y04286*
X11222Y04286*
X11222*
X11221Y04286*
X1122Y04285*
X11219Y04285*
X11218Y04285*
X11217Y04285*
X11217Y04285*
X11216Y04285*
X11216*
X11216Y04285*
X11216*
X11216*
X11215*
X11214Y04285*
X11213Y04285*
X11212Y04285*
X11211Y04285*
X11211Y04285*
X1121Y04286*
X1121Y04286*
X1121Y04286*
X11209Y04286*
X11209Y04286*
X11209Y04286*
X11209Y04286*
X11209*
X11208Y04287*
X11207Y04287*
X11206Y04288*
X11205Y04289*
X11205Y04289*
X11204Y0429*
X11204Y0429*
X11204Y0429*
X11204Y0429*
X11204Y0429*
X11204Y0429*
X11203Y04291*
X11203Y04292*
X11203Y04293*
X11202Y04294*
X11202Y04295*
X11202Y04295*
X11202Y04296*
Y04296*
X11202Y04296*
Y04297*
X11202Y04297*
X11202Y04298*
X11203Y04299*
X11203Y043*
X11203Y043*
X11203Y04301*
X11203Y04301*
X11204Y04302*
X11204Y04302*
X11204Y04303*
X11204Y04303*
X11204Y04303*
X11204Y04303*
X11204Y04303*
X11204Y04303*
X11205Y04304*
X11205Y04304*
X11206Y04305*
X11207Y04306*
X11208Y04306*
X11209Y04306*
X11209Y04307*
X1121Y04307*
X1121Y04307*
X1121Y04307*
X1121Y04307*
X11211Y04307*
X11211*
X11212Y04304*
G37*
G36*
X11527Y04352D02*
X11528Y04353D01*
X11528Y04353*
X11528Y04353*
X11529Y04353*
X11529Y04353*
X11529Y04353*
X11529Y04354*
X11529Y04354*
X1153Y04354*
X1153Y04355*
X11531Y04356*
X11531Y04356*
X11532Y04357*
X11532Y04357*
X11532Y04357*
X11532Y04357*
X11532Y04357*
X11532Y04358*
X11533Y04358*
X11533Y04359*
X11534Y04359*
X11534Y0436*
X11535Y0436*
X11535Y0436*
X11535Y04361*
X11535Y04361*
X11536Y04361*
X11536Y04362*
X11536Y04362*
X11536Y04362*
X11537Y04362*
X11538Y04363*
X11538Y04363*
X11539Y04363*
X11539Y04364*
X11539Y04364*
X11539Y04364*
X11539Y04364*
X1154Y04364*
X11541Y04364*
X11541Y04364*
X11541Y04364*
X11542Y04364*
X11542Y04365*
X11542*
X11542*
X11543Y04364*
X11543Y04364*
X11544Y04364*
X11545Y04364*
X11546Y04363*
X11547Y04363*
X11547Y04363*
X11547Y04363*
X11547Y04363*
X11547Y04362*
X11547Y04362*
X11547Y04362*
X11548Y04362*
X11548Y04362*
X11548Y04361*
X11549Y04361*
X11549Y0436*
X11549Y04359*
X11549Y04358*
X11549Y04358*
X11549Y04358*
X11549Y04357*
X11549Y04357*
Y04357*
X11549Y04356*
X11549Y04355*
X11549Y04354*
X11549Y04354*
X11549Y04353*
X11549Y04353*
X11549Y04352*
X11548Y04352*
X11548Y04352*
X11548Y04351*
X11548Y04351*
X11548Y04351*
X11548Y04351*
X11548Y04351*
X11548Y04351*
X11547Y0435*
X11547Y0435*
X11546Y0435*
X11545Y04349*
X11544Y04349*
X11543Y04349*
X11543Y04349*
X11543Y04349*
X11543Y04348*
X11542Y04348*
X11542*
X11542*
X11542Y04352*
X11543Y04352*
X11543Y04352*
X11544Y04352*
X11545Y04352*
X11545Y04353*
X11545Y04353*
X11545Y04353*
X11545Y04353*
X11546Y04354*
X11546Y04354*
X11547Y04355*
X11547Y04355*
X11547Y04356*
X11547Y04356*
X11547Y04356*
Y04357*
X11547Y04357*
X11547Y04358*
X11546Y04359*
X11546Y04359*
X11546Y04359*
X11546Y0436*
X11546Y0436*
X11546Y0436*
X11545Y0436*
X11545Y04361*
X11544Y04361*
X11544Y04361*
X11543Y04361*
X11543Y04361*
X11543Y04361*
X11543*
X11543*
X11542Y04361*
X11541Y04361*
X11541Y04361*
X1154Y04361*
X11539Y0436*
X11539Y0436*
X11539Y0436*
X11539Y0436*
X11539Y0436*
X11539*
X11538Y0436*
X11538Y04359*
X11538Y04359*
X11537Y04358*
X11536Y04357*
X11535Y04357*
X11535Y04356*
X11534Y04355*
X11534Y04355*
X11534Y04355*
X11534Y04355*
X11533Y04354*
X11533Y04354*
X11533Y04353*
X11532Y04353*
X11531Y04352*
X11531Y04351*
X1153Y04351*
X1153Y04351*
X1153Y0435*
X1153Y0435*
X1153*
X11529Y0435*
X11528Y04349*
X11528Y04349*
X11527Y04349*
X11527Y04348*
X11527Y04348*
X11526Y04348*
X11526Y04348*
X11526*
X11526Y04348*
X11525Y04348*
X11525Y04348*
X11525Y04348*
X11525Y04348*
X11524*
X11524*
X11524*
Y04365*
X11527*
Y04352*
G37*
G36*
X11549Y04338D02*
X11549Y04338D01*
X11548Y04338*
X11548Y04337*
X11547Y04337*
X11547Y04336*
X11546Y04336*
X11546Y04336*
X11546Y04336*
X11546Y04336*
X11545Y04335*
X11545Y04334*
X11544Y04333*
X11544Y04333*
X11544Y04332*
X11543Y04332*
X11543Y04332*
X11543Y04331*
X11543Y04331*
X11543Y04331*
Y04331*
X1154*
X1154Y04332*
X11541Y04332*
X11541Y04333*
X11541Y04333*
X11541Y04334*
X11542Y04334*
X11542Y04334*
X11542Y04334*
Y04334*
X11542Y04335*
X11543Y04336*
X11543Y04336*
X11543Y04336*
X11543Y04337*
X11544Y04337*
X11544Y04337*
X11544Y04337*
X11524*
Y0434*
X11549*
Y04338*
G37*
G36*
X11531Y04322D02*
X11532Y04322D01*
X11532Y04321*
X11533Y04321*
X11533Y04321*
X11534Y0432*
X11534Y0432*
X11534Y0432*
X11534Y0432*
X11535Y04319*
X11535Y04319*
X11535Y04318*
X11535Y04318*
X11535Y04318*
X11536Y04318*
X11536Y04318*
X11536Y04318*
X11536Y04319*
X11536Y04319*
X11536Y0432*
X11536Y0432*
X11537Y04321*
X11537Y04321*
X11537Y04322*
X11537Y04322*
X11537Y04322*
X11537Y04322*
X11538Y04323*
X11538Y04323*
X11538Y04323*
X11538Y04323*
X11538Y04323*
X11539Y04324*
X11539Y04324*
X1154Y04324*
X11541Y04325*
X11541Y04325*
X11542Y04325*
X11542*
X11542Y04325*
X11542*
X11542*
X11542*
X11543Y04325*
X11544Y04325*
X11545Y04324*
X11545Y04324*
X11546Y04324*
X11546Y04324*
X11546Y04324*
X11546Y04324*
X11547Y04323*
X11547Y04323*
X11548Y04322*
X11548Y04322*
X11548Y04321*
X11549Y04321*
X11549Y04321*
X11549Y04321*
Y04321*
X11549Y04321*
X11549Y0432*
X11549Y04319*
X11549Y04318*
X11549Y04318*
X11549Y04317*
Y04317*
X11549Y04316*
Y04305*
X11524*
Y04308*
X11535*
Y04312*
X11535Y04313*
Y04313*
X11535Y04313*
X11535Y04313*
Y04314*
X11535Y04314*
Y04314*
X11535Y04314*
X11535Y04315*
X11535Y04315*
X11535Y04315*
X11535Y04315*
X11534Y04315*
X11534Y04315*
X11534Y04316*
X11533Y04316*
X11533Y04316*
X11533Y04317*
X11533Y04317*
X11533Y04317*
X11532Y04317*
X11532Y04318*
X11531Y04318*
X11531Y04318*
X1153Y04319*
X1153Y04319*
X1153Y04319*
X11529Y04319*
X11529Y04319*
X11529*
X11524Y04323*
Y04327*
X11531Y04322*
G37*
G36*
X11416Y04543D02*
X11416Y04543D01*
X11417Y04543*
X11418Y04543*
X11418Y04543*
X11419Y04542*
X11419Y04542*
X11419Y04542*
X1142Y04542*
X1142Y04542*
X1142Y04542*
X1142Y04542*
X11421Y04542*
X11421Y04542*
X11421*
X11421Y04541*
X11422Y04541*
X11423Y0454*
X11423Y0454*
X11424Y04539*
X11424Y04539*
X11424Y04539*
X11424Y04539*
X11424Y04539*
Y04539*
X11425Y04538*
X11425Y04537*
X11425Y04536*
X11425Y04535*
X11425Y04534*
X11425Y04534*
X11425Y04534*
Y04533*
X11425Y04533*
Y04533*
X11425Y04532*
X11425Y0453*
X11425Y0453*
X11425Y04529*
X11425Y04529*
X11425Y04529*
X11425Y04528*
X11424Y04528*
X11424Y04528*
X11424Y04527*
X11424Y04527*
X11424Y04527*
X11424Y04527*
Y04527*
X11423Y04526*
X11423Y04526*
X11422Y04525*
X11422Y04525*
X11421Y04524*
X11421Y04524*
X11421Y04524*
X11421Y04524*
X1142Y04524*
X1142*
X1142Y04524*
X11419Y04523*
X11418Y04523*
X11417Y04523*
X11416Y04523*
X11416Y04523*
X11415*
X11415Y04523*
X11415*
X11415*
X11414*
X11414*
X114*
Y04526*
X11414*
X11415*
X11416Y04526*
X11417Y04526*
X11417Y04527*
X11418Y04527*
X11418Y04527*
X11419Y04527*
X11419Y04527*
X1142Y04527*
X1142Y04527*
X1142Y04528*
X1142Y04528*
X11421Y04528*
X11421Y04528*
X11421Y04528*
X11421*
X11421Y04528*
X11421Y04529*
X11422Y04529*
X11422Y0453*
X11422Y04531*
X11422Y04532*
X11422Y04532*
Y04533*
X11422Y04533*
Y04533*
X11422Y04534*
X11422Y04535*
X11422Y04535*
X11422Y04536*
X11422Y04536*
X11422Y04537*
X11422Y04537*
X11422Y04537*
X11421Y04537*
X11421Y04538*
X1142Y04538*
X1142Y04538*
X1142Y04539*
X11419Y04539*
X11419Y04539*
X11419Y04539*
X11419Y04539*
X11419Y04539*
X11418Y04539*
X11417Y04539*
X11416Y04539*
X11415Y04539*
X11415Y04539*
X11415*
X11415*
X11415*
X11414*
X11414*
X114*
Y04543*
X11414*
X11415*
X11416Y04543*
G37*
G36*
X11403Y04506D02*
X11404Y04507D01*
X11405Y04508*
X11406Y04509*
X11407Y04509*
X11408Y0451*
X11408Y0451*
X11409Y0451*
X11409Y0451*
X11409Y0451*
X11409Y04511*
X1141Y04511*
X1141Y04511*
X11411Y04511*
X11413Y04512*
X11414Y04513*
X11415Y04513*
X11415Y04513*
X11416Y04513*
X11416Y04513*
X11417Y04514*
X11417Y04514*
X11417Y04514*
X11418Y04514*
X11418Y04514*
X11418*
X11419Y04514*
X1142Y04514*
X11421Y04514*
X11421Y04515*
X11422Y04515*
X11422Y04515*
X11423Y04515*
X11423Y04515*
X11424Y04515*
X11424Y04515*
X11424*
X11425Y04515*
X11425*
X11425*
X11425*
Y04512*
X11424Y04512*
X11422Y04512*
X11421Y04511*
X11421Y04511*
X1142Y04511*
X1142Y04511*
X11419Y04511*
X11419Y04511*
X11419Y04511*
X11418Y04511*
X11418Y04511*
X11418Y04511*
X11418*
X11416Y0451*
X11415Y0451*
X11414Y04509*
X11413Y04509*
X11413Y04509*
X11412Y04508*
X11411Y04508*
X11411Y04508*
X1141Y04508*
X1141Y04507*
X1141Y04507*
X1141Y04507*
X11409Y04507*
X11409Y04507*
X11409Y04507*
X11408Y04506*
X11407Y04506*
X11406Y04505*
X11406Y04505*
X11405Y04504*
X11405Y04504*
X11404Y04504*
X11404Y04503*
X11404Y04503*
X11403Y04503*
X11403Y04503*
X11403Y04502*
X11403Y04502*
X11403Y04502*
X11402Y04502*
X114*
Y04519*
X11403*
Y04506*
G37*
G36*
X09231Y04503D02*
X09232Y04503D01*
X09232Y04503*
X09233Y04503*
X09233Y04503*
X09234Y04502*
X09234Y04502*
X09234Y04502*
X09234Y04502*
X09235Y04501*
X09235Y045*
X09236Y045*
X09236Y04499*
X09236Y04499*
X09236Y04499*
Y04499*
X09236Y04499*
Y04499*
X09236Y04499*
X09237Y045*
X09237Y045*
X09237Y04501*
X09238Y04501*
X09238Y04501*
X09238Y04501*
X09238Y04501*
X09239Y04502*
X09239Y04502*
X0924Y04502*
X0924Y04502*
X09241Y04502*
X09241Y04502*
X09241*
X09241*
X09242Y04502*
X09242Y04502*
X09243Y04502*
X09243Y04502*
X09244Y04502*
X09244Y04501*
X09244Y04501*
X09244Y04501*
X09245Y04501*
X09245Y045*
X09246Y045*
X09246Y045*
X09246Y04499*
X09247Y04499*
X09247Y04499*
X09247Y04499*
Y04499*
X09247Y04498*
X09247Y04497*
X09247Y04497*
X09248Y04496*
X09248Y04496*
X09248Y04495*
Y04494*
X09248Y04494*
X09247Y04493*
X09247Y04492*
X09247Y04491*
X09247Y04491*
X09246Y0449*
X09246Y0449*
X09246Y0449*
X09246Y0449*
X09246Y0449*
X09246Y0449*
X09245Y04489*
X09245Y04489*
X09244Y04488*
X09243Y04488*
X09242Y04487*
X09242Y04487*
X09242Y04487*
X09241Y04487*
X09241Y04487*
X09241Y04487*
X09241*
X09241Y0449*
X09241Y0449*
X09242Y04491*
X09243Y04491*
X09243Y04491*
X09244Y04491*
X09244Y04492*
X09244Y04492*
X09244Y04492*
X09244Y04492*
X09245Y04493*
X09245Y04493*
X09245Y04494*
X09245Y04494*
X09245Y04495*
Y04495*
X09245Y04496*
X09245Y04496*
X09245Y04497*
X09245Y04497*
X09244Y04497*
X09244Y04498*
X09244Y04498*
X09244Y04498*
X09244Y04498*
X09243Y04498*
X09243Y04499*
X09242Y04499*
X09242Y04499*
X09241Y04499*
X09241*
X09241*
X09241*
X0924Y04499*
X0924Y04499*
X09239Y04498*
X09239Y04498*
X09238Y04498*
X09238Y04498*
X09238Y04497*
X09238Y04497*
X09238Y04497*
X09237Y04496*
X09237Y04496*
X09237Y04495*
X09237Y04495*
X09237Y04494*
Y04494*
X09237Y04494*
Y04493*
X09234Y04493*
X09234Y04493*
X09235Y04494*
X09235Y04494*
X09235Y04495*
X09235Y04495*
Y04495*
X09235Y04496*
X09234Y04497*
X09234Y04497*
X09234Y04498*
X09234Y04498*
X09234Y04498*
X09233Y04499*
X09233Y04499*
X09233Y04499*
X09232Y04499*
X09232Y045*
X09231Y045*
X09231Y045*
X0923Y045*
X0923Y045*
X0923*
X0923*
X0923*
X09229Y045*
X09228Y045*
X09228Y045*
X09227Y04499*
X09227Y04499*
X09226Y04499*
X09226Y04499*
X09226Y04499*
X09226Y04498*
X09225Y04497*
X09225Y04497*
X09225Y04496*
X09225Y04496*
X09225Y04495*
X09225Y04495*
Y04495*
X09225Y04494*
X09225Y04494*
X09225Y04493*
X09225Y04493*
X09225Y04492*
X09225Y04492*
X09226Y04492*
X09226Y04492*
X09226Y04491*
X09227Y04491*
X09227Y04491*
X09228Y0449*
X09229Y0449*
X09229Y0449*
X09229Y0449*
X09229*
X09229Y0449*
X09229*
X09229Y04487*
X09228Y04487*
X09228Y04487*
X09227Y04487*
X09226Y04488*
X09225Y04488*
X09225Y04488*
X09225Y04489*
X09224Y04489*
X09224Y04489*
X09224Y04489*
X09224Y04489*
X09224Y04489*
X09224Y04489*
X09224Y0449*
X09223Y0449*
X09223Y04491*
X09223Y04491*
X09222Y04492*
X09222Y04493*
X09222Y04493*
X09222Y04494*
X09222Y04494*
X09222Y04494*
X09222Y04495*
Y04495*
X09222Y04496*
X09222Y04496*
X09222Y04497*
X09222Y04497*
X09222Y04498*
X09223Y04498*
X09223Y04499*
X09223Y04499*
X09223Y045*
X09223Y045*
X09224Y045*
X09224Y04501*
X09224Y04501*
X09224Y04501*
X09224Y04501*
X09224Y04501*
X09225Y04501*
X09225Y04502*
X09226Y04502*
X09226Y04502*
X09227Y04503*
X09227Y04503*
X09228Y04503*
X09228Y04503*
X09229Y04503*
X09229Y04503*
X09229Y04503*
X0923Y04503*
X0923*
X0923*
X0923*
X09231Y04503*
G37*
G36*
X09229Y04481D02*
X0923Y0448D01*
X09231Y0448*
X09231Y04479*
X09232Y04479*
X09232Y04478*
X09232Y04478*
X09233Y04478*
X09233Y04478*
X09233Y04478*
X09233Y04477*
X09233Y04477*
X09234Y04476*
X09234Y04476*
X09234Y04476*
X09234Y04476*
X09234Y04476*
X09234Y04477*
X09234Y04478*
X09234Y04478*
X09235Y04479*
X09235Y04479*
X09235Y0448*
X09235Y0448*
X09235Y0448*
X09236Y0448*
X09236Y04481*
X09236Y04481*
X09236Y04481*
X09236Y04481*
X09236Y04481*
X09236Y04481*
X09237Y04482*
X09238Y04482*
X09238Y04483*
X09239Y04483*
X0924Y04483*
X0924Y04483*
X0924*
X0924Y04483*
X09241*
X09241*
X09241*
X09241Y04483*
X09242Y04483*
X09243Y04483*
X09243Y04482*
X09244Y04482*
X09244Y04482*
X09244Y04482*
X09244Y04482*
X09245Y04481*
X09246Y04481*
X09246Y04481*
X09246Y0448*
X09247Y0448*
X09247Y04479*
X09247Y04479*
X09247Y04479*
Y04479*
X09247Y04479*
X09247Y04478*
X09247Y04478*
X09247Y04477*
X09248Y04476*
X09248Y04475*
Y04475*
X09248Y04474*
Y04463*
X09222*
Y04466*
X09234*
Y0447*
X09234Y04471*
Y04471*
X09234Y04471*
X09233Y04472*
Y04472*
X09233Y04472*
Y04472*
X09233Y04472*
X09233Y04473*
X09233Y04473*
X09233Y04473*
X09233Y04473*
X09233Y04473*
X09233Y04474*
X09232Y04474*
X09232Y04474*
X09231Y04475*
X09231Y04475*
X09231Y04475*
X09231Y04475*
X09231Y04475*
X0923Y04476*
X09229Y04476*
X09229Y04477*
X09228Y04477*
X09228Y04477*
X09228Y04477*
X09228Y04477*
X09228Y04477*
X09228*
X09222Y04481*
Y04485*
X09229Y04481*
G37*
G36*
X0933Y04466D02*
X09319D01*
Y04462*
X09319Y04462*
Y04461*
X09319Y04461*
X09319Y04461*
Y04461*
X09319Y04461*
Y04461*
X09319Y0446*
X0932Y04459*
X0932Y04459*
X0932Y04459*
X0932Y04459*
X0932Y04459*
X0932Y04459*
X0932Y04458*
X09321Y04458*
X09321Y04458*
X09321Y04457*
X09321Y04457*
X09322Y04457*
X09322Y04457*
X09323Y04457*
X09323Y04456*
X09324Y04456*
X09324Y04455*
X09325Y04455*
X09325Y04455*
X09325Y04455*
X09325Y04455*
X09325*
X0933Y04452*
Y04447*
X09323Y04452*
X09323Y04452*
X09322Y04453*
X09321Y04453*
X09321Y04454*
X09321Y04454*
X0932Y04454*
X0932Y04454*
X0932Y04455*
X0932Y04455*
X0932Y04455*
X09319Y04456*
X09319Y04456*
X09319Y04456*
X09319Y04456*
X09319Y04457*
X09319Y04456*
X09318Y04455*
X09318Y04455*
X09318Y04454*
X09318Y04454*
X09318Y04453*
X09318Y04453*
X09317Y04452*
X09317Y04452*
X09317Y04452*
X09317Y04452*
X09317Y04451*
X09317Y04451*
X09317Y04451*
X09316Y04451*
X09316Y04451*
X09316Y04451*
X09315Y0445*
X09314Y0445*
X09313Y0445*
X09313Y04449*
X09313Y04449*
X09312*
X09312Y04449*
X09312*
X09312*
X09312*
X09311Y04449*
X0931Y0445*
X0931Y0445*
X09309Y0445*
X09309Y0445*
X09308Y0445*
X09308Y0445*
X09308Y0445*
X09307Y04451*
X09307Y04451*
X09307Y04452*
X09306Y04452*
X09306Y04453*
X09306Y04453*
X09306Y04453*
X09306Y04453*
Y04453*
X09306Y04454*
X09305Y04454*
X09305Y04455*
X09305Y04456*
X09305Y04456*
X09305Y04457*
Y04458*
X09305Y04458*
Y0447*
X0933*
Y04466*
G37*
G36*
Y04429D02*
X09327D01*
Y04442*
X09327Y04441*
X09326Y04441*
X09326Y04441*
X09326Y0444*
X09326Y0444*
X09326Y0444*
X09325Y0444*
X09325Y0444*
X09325Y04439*
X09324Y04439*
X09324Y04438*
X09323Y04438*
X09323Y04437*
X09323Y04437*
X09323Y04437*
X09322Y04437*
X09322Y04437*
X09322Y04436*
X09321Y04436*
X09321Y04435*
X09321Y04435*
X0932Y04434*
X0932Y04434*
X09319Y04433*
X09319Y04433*
X09319Y04433*
X09319Y04433*
X09318Y04432*
X09318Y04432*
X09318Y04432*
X09317Y04431*
X09317Y04431*
X09316Y04431*
X09316Y0443*
X09315Y0443*
X09315Y0443*
X09315Y0443*
X09315Y0443*
X09314Y0443*
X09314Y04429*
X09313Y04429*
X09313Y04429*
X09312Y04429*
X09312Y04429*
X09312*
X09312*
X09311Y04429*
X09311Y04429*
X0931Y0443*
X09309Y0443*
X09308Y0443*
X09308Y04431*
X09307Y04431*
X09307Y04431*
X09307Y04431*
X09307Y04431*
X09307Y04431*
X09307Y04431*
X09307Y04432*
X09306Y04432*
X09306Y04433*
X09306Y04433*
X09305Y04434*
X09305Y04435*
X09305Y04435*
X09305Y04436*
X09305Y04436*
X09305Y04437*
X09305Y04437*
Y04437*
X09305Y04438*
X09305Y04438*
X09305Y0444*
X09305Y0444*
X09305Y04441*
X09306Y04441*
X09306Y04441*
X09306Y04442*
X09306Y04442*
X09306Y04442*
X09306Y04443*
X09307Y04443*
X09307Y04443*
X09307Y04443*
X09307Y04443*
X09307Y04443*
X09308Y04444*
X09308Y04444*
X09309Y04445*
X0931Y04445*
X09311Y04445*
X09311Y04445*
X09312Y04445*
X09312Y04445*
X09312Y04445*
X09312*
X09312*
X09313Y04442*
X09312Y04442*
X09311Y04442*
X0931Y04442*
X0931Y04441*
X09309Y04441*
X09309Y04441*
X09309Y04441*
X09309Y04441*
X09308Y0444*
X09308Y0444*
X09308Y04439*
X09308Y04438*
X09308Y04438*
X09307Y04438*
X09307Y04437*
Y04437*
X09307Y04436*
X09308Y04436*
X09308Y04435*
X09308Y04435*
X09308Y04434*
X09309Y04434*
X09309Y04434*
X09309Y04434*
X09309Y04433*
X0931Y04433*
X0931Y04433*
X09311Y04433*
X09311Y04432*
X09312Y04432*
X09312Y04432*
X09312*
X09312*
X09312Y04432*
X09313Y04433*
X09314Y04433*
X09314Y04433*
X09315Y04433*
X09315Y04434*
X09315Y04434*
X09316Y04434*
X09316Y04434*
X09316*
X09316Y04434*
X09316Y04435*
X09317Y04435*
X09317Y04435*
X09318Y04436*
X09319Y04437*
X0932Y04438*
X0932Y04438*
X0932Y04439*
X09321Y04439*
X09321Y04439*
X09321Y04439*
X09321Y04439*
X09322Y0444*
X09322Y04441*
X09323Y04442*
X09324Y04442*
X09324Y04443*
X09324Y04443*
X09325Y04443*
X09325Y04444*
X09325*
X09325Y04444*
X09326Y04444*
X09327Y04445*
X09327Y04445*
X09327Y04445*
X09328Y04445*
X09328Y04446*
X09328Y04446*
X09328*
X09328Y04446*
X09329Y04446*
X09329Y04446*
X0933Y04446*
X0933Y04446*
X0933*
X0933*
X0933*
Y04429*
G37*
G36*
X09015Y04504D02*
X09016Y04503D01*
X09016Y04503*
X09017Y04503*
X09017Y04503*
X09018Y04503*
X09018Y04503*
X09019Y04502*
X09019Y04502*
X09019Y04502*
X0902Y04502*
X0902Y04502*
X0902Y04502*
X0902Y04501*
X0902Y04501*
X0902Y04501*
X09021Y04501*
X09021Y045*
X09021Y045*
X09022Y04499*
X09022Y04499*
X09022Y04499*
X09022Y04498*
X09022Y04497*
X09022Y04497*
X09022Y04497*
X09022Y04496*
X09023Y04496*
Y04496*
X09022Y04495*
X09022Y04494*
X09022Y04493*
X09022Y04492*
X09021Y04492*
X09021Y04492*
X09021Y04491*
X09021Y04491*
X09021Y04491*
X09021Y04491*
X09021Y04491*
X09028Y04492*
Y04502*
X09031*
Y0449*
X09018Y04487*
X09017Y0449*
X09018Y04491*
X09018Y04491*
X09018Y04491*
X09019Y04491*
X09019Y04492*
X09019Y04492*
X09019Y04492*
X09019Y04492*
X09019Y04493*
X09019Y04493*
X0902Y04494*
X0902Y04494*
X0902Y04494*
X0902Y04495*
Y04495*
X0902Y04496*
X0902Y04497*
X09019Y04497*
X09019Y04498*
X09019Y04498*
X09019Y04499*
X09018Y04499*
X09018Y04499*
X09018Y04499*
X09017Y045*
X09016Y045*
X09016Y045*
X09015Y045*
X09015Y045*
X09015*
X09014Y045*
X09014*
X09014*
X09014*
X09013Y045*
X09012Y045*
X09011Y045*
X09011Y045*
X0901Y04499*
X0901Y04499*
X0901Y04499*
X0901Y04499*
X0901*
X09009Y04498*
X09009Y04498*
X09009Y04498*
X09008Y04497*
X09008Y04496*
X09008Y04496*
X09008Y04495*
X09008Y04495*
Y04495*
X09008Y04494*
X09008Y04494*
X09008Y04493*
X09009Y04493*
X09009Y04492*
X09009Y04492*
X09009Y04492*
X09009Y04492*
X0901Y04491*
X0901Y04491*
X09011Y04491*
X09011Y0449*
X09012Y0449*
X09012Y0449*
X09012Y0449*
X09013Y0449*
X09013*
X09013*
X09012Y04487*
X09012Y04487*
X09011Y04487*
X0901Y04487*
X09009Y04488*
X09009Y04488*
X09008Y04488*
X09008Y04489*
X09008Y04489*
X09008Y04489*
X09008Y04489*
X09007Y04489*
X09007Y04489*
X09007Y04489*
X09007Y0449*
X09007Y0449*
X09006Y04491*
X09006Y04491*
X09006Y04492*
X09006Y04493*
X09006Y04493*
X09006Y04494*
X09005Y04494*
X09005Y04494*
X09005Y04495*
Y04495*
X09005Y04496*
X09006Y04496*
X09006Y04497*
X09006Y04498*
X09006Y04498*
X09006Y04499*
X09007Y04499*
X09007Y045*
X09007Y045*
X09007Y04501*
X09008Y04501*
X09008Y04501*
X09008Y04501*
X09008Y04501*
X09008Y04502*
X09008Y04502*
X09009Y04502*
X09009Y04502*
X0901Y04503*
X0901Y04503*
X09011Y04503*
X09012Y04503*
X09013Y04503*
X09013Y04503*
X09013Y04504*
X09014Y04504*
X09014Y04504*
X09014*
X09014*
X09014*
X09015Y04504*
G37*
G36*
X09013Y04481D02*
X09013Y0448D01*
X09014Y0448*
X09015Y04479*
X09015Y04479*
X09016Y04478*
X09016Y04478*
X09016Y04478*
X09016Y04478*
X09016Y04478*
X09017Y04477*
X09017Y04477*
X09017Y04476*
X09017Y04476*
X09017Y04476*
X09017Y04476*
X09017Y04476*
X09018Y04477*
X09018Y04478*
X09018Y04478*
X09018Y04479*
X09018Y04479*
X09018Y0448*
X09019Y0448*
X09019Y0448*
X09019Y0448*
X09019Y04481*
X09019Y04481*
X09019Y04481*
X0902Y04481*
X0902Y04481*
X0902Y04481*
X0902Y04482*
X09021Y04482*
X09022Y04483*
X09023Y04483*
X09023Y04483*
X09023Y04483*
X09024*
X09024Y04483*
X09024*
X09024*
X09024*
X09025Y04483*
X09026Y04483*
X09026Y04483*
X09027Y04482*
X09027Y04482*
X09028Y04482*
X09028Y04482*
X09028Y04482*
X09029Y04481*
X09029Y04481*
X09029Y04481*
X0903Y0448*
X0903Y0448*
X0903Y04479*
X0903Y04479*
X0903Y04479*
Y04479*
X0903Y04479*
X09031Y04478*
X09031Y04478*
X09031Y04477*
X09031Y04476*
X09031Y04475*
Y04475*
X09031Y04474*
Y04463*
X09006*
Y04466*
X09017*
Y0447*
X09017Y04471*
Y04471*
X09017Y04471*
X09017Y04472*
Y04472*
X09017Y04472*
Y04472*
X09017Y04472*
X09016Y04473*
X09016Y04473*
X09016Y04473*
X09016Y04473*
X09016Y04473*
X09016Y04474*
X09016Y04474*
X09015Y04474*
X09015Y04475*
X09015Y04475*
X09015Y04475*
X09015Y04475*
X09014Y04475*
X09013Y04476*
X09013Y04476*
X09012Y04477*
X09012Y04477*
X09011Y04477*
X09011Y04477*
X09011Y04477*
X09011Y04477*
X09011*
X09006Y04481*
Y04485*
X09013Y04481*
G37*
G36*
X09114Y04466D02*
X09102D01*
Y04462*
X09103Y04462*
Y04461*
X09103Y04461*
X09103Y04461*
Y04461*
X09103Y04461*
Y04461*
X09103Y0446*
X09103Y04459*
X09103Y04459*
X09103Y04459*
X09103Y04459*
X09103Y04459*
X09103Y04459*
X09104Y04458*
X09104Y04458*
X09105Y04458*
X09105Y04457*
X09105Y04457*
X09105Y04457*
X09105Y04457*
X09106Y04457*
X09107Y04456*
X09107Y04456*
X09108Y04455*
X09108Y04455*
X09108Y04455*
X09108Y04455*
X09108Y04455*
X09108*
X09114Y04452*
Y04447*
X09107Y04452*
X09106Y04452*
X09105Y04453*
X09105Y04453*
X09104Y04454*
X09104Y04454*
X09104Y04454*
X09104Y04454*
X09103Y04455*
X09103Y04455*
X09103Y04455*
X09103Y04456*
X09102Y04456*
X09102Y04456*
X09102Y04456*
X09102Y04457*
X09102Y04456*
X09102Y04455*
X09102Y04455*
X09102Y04454*
X09101Y04454*
X09101Y04453*
X09101Y04453*
X09101Y04452*
X09101Y04452*
X09101Y04452*
X091Y04452*
X091Y04451*
X091Y04451*
X091Y04451*
X091Y04451*
X091Y04451*
X09099Y04451*
X09098Y0445*
X09098Y0445*
X09097Y0445*
X09096Y04449*
X09096Y04449*
X09096*
X09096Y04449*
X09095*
X09095*
X09095*
X09095Y04449*
X09094Y0445*
X09093Y0445*
X09093Y0445*
X09092Y0445*
X09092Y0445*
X09092Y0445*
X09092Y0445*
X09091Y04451*
X0909Y04451*
X0909Y04452*
X0909Y04452*
X09089Y04453*
X09089Y04453*
X09089Y04453*
X09089Y04453*
Y04453*
X09089Y04454*
X09089Y04454*
X09089Y04455*
X09089Y04456*
X09089Y04456*
X09088Y04457*
Y04458*
X09088Y04458*
Y0447*
X09114*
Y04466*
G37*
G36*
X09108Y04436D02*
X09114D01*
Y04432*
X09108*
Y04429*
X09105*
Y04432*
X09088*
Y04435*
X09105Y04447*
X09108*
Y04436*
G37*
G36*
X08675Y0473D02*
X08676Y0473D01*
X08676Y0473*
X08677Y0473*
X08677Y0473*
X08678Y04729*
X08678Y04729*
X08678Y04729*
X08679Y04729*
X08679Y04728*
X0868Y04728*
X0868Y04727*
X0868Y04727*
X08681Y04726*
X08681Y04726*
X08681Y04726*
X08681Y04726*
Y04726*
X08681Y04725*
X08681Y04725*
X08682Y04724*
X08682Y04723*
X08682Y04723*
Y04722*
X08682Y04722*
Y04722*
Y04722*
Y04722*
Y04722*
X08682Y04721*
X08682Y0472*
X08682Y0472*
X08682Y04719*
X08681Y04719*
X08681Y04718*
X08681Y04718*
X08681Y04717*
X08681Y04717*
X0868Y04717*
X0868Y04717*
X0868Y04716*
X0868Y04716*
X0868Y04716*
X0868Y04716*
X0868Y04716*
X08679Y04715*
X08679Y04715*
X08678Y04715*
X08678Y04715*
X08677Y04714*
X08677Y04714*
X08676Y04714*
X08675Y04714*
X08675Y04714*
X08675Y04714*
X08675Y04714*
X08674*
X08674Y04714*
X08673Y04714*
X08673Y04714*
X08672Y04714*
X08672Y04714*
X08671Y04714*
X08671Y04714*
X08671Y04714*
X0867Y04715*
X0867Y04715*
X08669Y04716*
X08669Y04716*
X08669Y04716*
X08668Y04717*
X08668Y04717*
X08668Y04717*
Y04716*
X08668Y04716*
X08668Y04715*
X08668Y04714*
X08668Y04714*
X08669Y04713*
X08669Y04713*
X08669Y04713*
X08669Y04712*
X08669Y04712*
X08669Y04712*
X08669Y04711*
X08669Y04711*
X08669Y04711*
X08669Y04711*
Y04711*
X08669Y0471*
X0867Y0471*
X0867Y04709*
X08671Y04709*
X08671Y04708*
X08671Y04708*
X08671Y04708*
X08671Y04708*
X08672Y04708*
X08672Y04707*
X08673Y04707*
X08673Y04707*
X08674Y04707*
X08674Y04707*
X08674*
X08675Y04707*
X08675Y04707*
X08676Y04708*
X08676Y04708*
X08677Y04708*
X08677Y04708*
X08677Y04708*
X08677Y04708*
X08677Y04709*
X08678Y04709*
X08678Y0471*
X08678Y0471*
X08678Y04711*
X08678Y04711*
Y04711*
Y04711*
X08681Y04711*
X08681Y0471*
X08681Y04709*
X08681Y04708*
X0868Y04707*
X0868Y04707*
X08679Y04707*
X08679Y04706*
X08679Y04706*
X08679*
X08679Y04706*
X08678Y04706*
X08678Y04705*
X08677Y04705*
X08676Y04705*
X08675Y04705*
X08675Y04705*
X08675*
X08675Y04705*
X08674*
X08674Y04705*
X08673Y04705*
X08672Y04705*
X08672Y04705*
X08671Y04705*
X0867Y04705*
X0867Y04706*
X0867Y04706*
X08669Y04706*
X08669Y04707*
X08669Y04707*
X08668Y04707*
X08668Y04707*
X08668Y04707*
X08668Y04707*
X08668Y04707*
X08667Y04708*
X08667Y04709*
X08667Y0471*
X08666Y04711*
X08666Y04711*
X08666Y04712*
X08666Y04713*
X08666Y04714*
X08665Y04715*
X08665Y04716*
X08665Y04716*
X08665Y04717*
X08665Y04717*
Y04718*
Y04718*
Y04718*
Y04718*
Y04718*
X08665Y04719*
X08665Y0472*
X08665Y04721*
X08666Y04722*
X08666Y04723*
X08666Y04724*
X08666Y04725*
X08666Y04725*
X08667Y04726*
X08667Y04726*
X08667Y04727*
X08667Y04727*
X08667Y04727*
X08667Y04727*
X08668Y04727*
X08668Y04727*
X08668Y04728*
X08669Y04728*
X08669Y04729*
X0867Y04729*
X0867Y04729*
X08671Y0473*
X08671Y0473*
X08672Y0473*
X08672Y0473*
X08673Y0473*
X08673Y0473*
X08673Y0473*
X08674*
X08674Y0473*
X08674*
X08675Y0473*
G37*
G36*
X08652Y0473D02*
X08654Y0473D01*
X08654Y0473*
X08655Y0473*
X08655Y0473*
X08655Y0473*
X08656Y0473*
X08656Y04729*
X08656Y04729*
X08657Y04729*
X08657Y04729*
X08657Y04729*
X08657Y04729*
X08657*
X08658Y04728*
X08659Y04728*
X08659Y04727*
X08659Y04727*
X0866Y04726*
X0866Y04726*
X0866Y04726*
X0866Y04725*
X0866Y04725*
Y04725*
X0866Y04724*
X08661Y04723*
X08661Y04722*
X08661Y04721*
X08661Y04721*
X08661Y04721*
Y0472*
X08661Y0472*
Y0472*
Y04719*
Y04719*
Y04719*
Y04705*
X08658*
Y04719*
Y0472*
X08658Y04721*
X08658Y04722*
X08657Y04722*
X08657Y04723*
X08657Y04723*
X08657Y04724*
X08657Y04724*
X08657Y04725*
X08657Y04725*
X08657Y04725*
X08656Y04725*
X08656Y04726*
X08656Y04726*
X08656Y04726*
Y04726*
X08656Y04726*
X08655Y04726*
X08655Y04727*
X08654Y04727*
X08653Y04727*
X08652Y04727*
X08652Y04727*
X08651*
X08651Y04727*
X08651*
X0865Y04727*
X08649Y04727*
X08649Y04727*
X08648Y04727*
X08648Y04727*
X08648Y04727*
X08647Y04727*
X08647Y04727*
X08647Y04726*
X08646Y04726*
X08646Y04725*
X08646Y04725*
X08645Y04725*
X08645Y04724*
X08645Y04724*
X08645Y04724*
X08645Y04724*
X08645Y04723*
X08645Y04723*
X08645Y04722*
X08645Y04721*
X08645Y0472*
X08645Y0472*
Y0472*
Y0472*
Y04719*
Y04719*
Y04719*
Y04705*
X08641*
Y04719*
Y0472*
X08641Y04721*
X08641Y04721*
X08641Y04722*
X08641Y04723*
X08642Y04723*
X08642Y04724*
X08642Y04724*
X08642Y04724*
X08642Y04725*
X08642Y04725*
X08642Y04725*
X08642Y04725*
X08642Y04726*
X08642Y04726*
Y04726*
X08643Y04726*
X08643Y04727*
X08644Y04728*
X08644Y04728*
X08645Y04729*
X08645Y04729*
X08645Y04729*
X08645Y04729*
X08645Y04729*
X08645*
X08646Y0473*
X08647Y0473*
X08648Y0473*
X08649Y0473*
X0865Y0473*
X0865Y0473*
X0865Y0473*
X08651*
X08651Y0473*
X08651*
X08652Y0473*
G37*
G36*
X09946Y04722D02*
X09943Y04721D01*
X09943Y04722*
X09943Y04722*
X09943Y04722*
X09942Y04723*
X09942Y04723*
X09942Y04723*
X09942Y04723*
X09942Y04723*
X09941Y04723*
X09941Y04724*
X0994Y04724*
X0994Y04724*
X09939Y04724*
X09939Y04724*
X09939*
X09938Y04724*
X09937Y04724*
X09937Y04723*
X09936Y04723*
X09936Y04723*
X09935Y04723*
X09935Y04722*
X09935Y04722*
X09935Y04722*
X09934Y04721*
X09934Y0472*
X09934Y0472*
X09934Y04719*
X09934Y04719*
Y04719*
X09934Y04718*
Y04718*
Y04718*
Y04718*
X09934Y04717*
X09934Y04716*
X09934Y04716*
X09934Y04715*
X09935Y04714*
X09935Y04714*
X09935Y04714*
X09935Y04714*
Y04714*
X09935Y04713*
X09936Y04713*
X09936Y04713*
X09937Y04712*
X09938Y04712*
X09938Y04712*
X09938Y04712*
X09939Y04712*
X09939*
X0994Y04712*
X0994Y04712*
X09941Y04712*
X09941Y04713*
X09942Y04713*
X09942Y04713*
X09942Y04713*
X09942Y04713*
X09942Y04714*
X09943Y04714*
X09943Y04715*
X09943Y04715*
X09943Y04716*
X09944Y04716*
X09944Y04717*
X09944Y04717*
Y04717*
Y04717*
X09947Y04717*
X09947Y04716*
X09947Y04715*
X09946Y04714*
X09946Y04714*
X09946Y04713*
X09945Y04712*
X09945Y04712*
X09945Y04712*
X09945Y04712*
X09945Y04712*
X09945Y04712*
X09945Y04711*
X09944Y04711*
X09944Y04711*
X09944Y04711*
X09943Y04711*
X09943Y0471*
X09942Y0471*
X09941Y0471*
X0994Y0471*
X0994Y0471*
X0994Y0471*
X09939Y0471*
X09939Y0471*
X09939*
X09938Y0471*
X09937Y0471*
X09937Y0471*
X09936Y0471*
X09935Y0471*
X09935Y0471*
X09934Y04711*
X09934Y04711*
X09934Y04711*
X09933Y04712*
X09933Y04712*
X09933Y04712*
X09932Y04712*
X09932Y04712*
X09932Y04713*
X09932Y04713*
X09932Y04713*
X09932Y04714*
X09931Y04714*
X09931Y04715*
X09931Y04716*
X0993Y04716*
X0993Y04717*
X0993Y04717*
X0993Y04718*
X0993Y04718*
X0993Y04718*
Y04718*
Y04718*
Y04718*
X0993Y04719*
X0993Y0472*
X0993Y0472*
X09931Y04721*
X09931Y04721*
X09931Y04722*
X09931Y04722*
X09931Y04723*
X09932Y04723*
X09932Y04723*
X09932Y04724*
X09932Y04724*
X09932Y04724*
X09932Y04724*
X09932Y04724*
X09933Y04724*
X09933Y04725*
X09933Y04725*
X09934Y04725*
X09934Y04726*
X09935Y04726*
X09935Y04726*
X09936Y04726*
X09937Y04726*
X09937Y04727*
X09937Y04727*
X09938Y04727*
X09938Y04727*
X09938*
X09939Y04727*
X0994Y04726*
X09941Y04726*
X09941Y04726*
X09942Y04726*
X09942Y04725*
X09942Y04725*
X09943Y04725*
X09943Y04725*
X09943Y04725*
X09943Y04725*
X09941Y04732*
X09931*
Y04735*
X09944*
X09946Y04722*
G37*
G36*
X09971Y04721D02*
Y0472D01*
X09971Y04719*
X09971Y04719*
X09971Y04718*
X09971Y04717*
X09971Y04717*
X09971Y04716*
X09971Y04716*
X0997Y04716*
X0997Y04715*
X0997Y04715*
X0997Y04715*
X0997Y04714*
X0997Y04714*
X0997Y04714*
Y04714*
X0997Y04713*
X09969Y04713*
X09969Y04712*
X09968Y04712*
X09968Y04711*
X09967Y04711*
X09967Y04711*
X09967Y04711*
X09967Y04711*
X09967*
X09966Y0471*
X09965Y0471*
X09964Y0471*
X09963Y0471*
X09963Y0471*
X09962Y0471*
X09962Y0471*
X09962*
X09961Y0471*
X09961*
X0996Y0471*
X09959Y0471*
X09958Y0471*
X09958Y0471*
X09957Y0471*
X09957Y0471*
X09956Y0471*
X09956Y0471*
X09956Y04711*
X09956Y04711*
X09955Y04711*
X09955Y04711*
X09955Y04711*
X09955*
X09954Y04711*
X09954Y04712*
X09953Y04713*
X09953Y04713*
X09952Y04714*
X09952Y04714*
X09952Y04714*
X09952Y04714*
X09952Y04715*
Y04715*
X09952Y04715*
X09952Y04716*
X09951Y04717*
X09951Y04718*
X09951Y04719*
X09951Y04719*
Y0472*
X09951Y0472*
Y0472*
Y0472*
Y04721*
Y04721*
Y04735*
X09955*
Y04721*
Y0472*
X09955Y04719*
X09955Y04718*
X09955Y04718*
X09955Y04717*
X09955Y04716*
X09955Y04716*
X09955Y04716*
X09955Y04715*
X09956Y04715*
X09956Y04715*
X09956Y04715*
X09956Y04714*
X09956Y04714*
X09956Y04714*
Y04714*
X09956Y04714*
X09957Y04714*
X09958Y04713*
X09958Y04713*
X09959Y04713*
X0996Y04713*
X0996Y04713*
X09961*
X09961Y04713*
X09961*
X09962Y04713*
X09963Y04713*
X09963Y04713*
X09964Y04713*
X09964Y04713*
X09965Y04713*
X09965Y04713*
X09965Y04713*
X09966Y04714*
X09966Y04714*
X09966Y04714*
X09967Y04715*
X09967Y04715*
X09967Y04715*
X09967Y04716*
X09967Y04716*
X09967Y04716*
X09967Y04716*
X09967Y04717*
X09968Y04718*
X09968Y04719*
X09968Y04719*
X09968Y0472*
Y0472*
Y0472*
Y0472*
Y04721*
Y04721*
Y04735*
X09971*
Y04721*
G37*
%LNpcb1-2*%
%LPC*%
G36*
X09307Y03558D02*
X09299D01*
Y0355*
X09307*
X09308Y0355*
X09309Y0355*
X0931Y0355*
X0931Y0355*
X09311Y03551*
X09311Y03551*
X09311Y03551*
X09311Y03551*
X09312Y03552*
X09312Y03552*
X09312Y03553*
X09312Y03553*
X09312Y03553*
X09312Y03554*
Y03554*
Y03554*
Y03554*
X09312Y03554*
X09312Y03555*
X09312Y03555*
X09312Y03556*
X09312Y03556*
X09312Y03556*
X09312Y03556*
X09312Y03556*
X09311Y03557*
X09311Y03557*
X09311Y03557*
X09311Y03557*
X0931Y03558*
X0931Y03558*
X0931Y03558*
X0931Y03558*
X09309Y03558*
X09309Y03558*
X09308Y03558*
X09308Y03558*
X09307Y03558*
X09307Y03558*
G37*
G36*
X09292Y03685D02*
X09284D01*
X09283Y03685*
X09283Y03685*
X09282Y03684*
X09281Y03684*
X09281Y03684*
X09281Y03684*
X0928Y03684*
X0928Y03684*
X0928Y03683*
X0928Y03683*
X09279Y03682*
X09279Y03682*
X09279Y03681*
X09279Y03681*
Y03681*
Y03681*
Y03681*
X09279Y0368*
X09279Y0368*
X09279Y03679*
X09279Y03679*
X09279Y03679*
X0928Y03679*
X0928Y03678*
X0928Y03678*
X0928Y03678*
X0928Y03678*
X09281Y03677*
X09281Y03677*
X09281Y03677*
X09281Y03677*
X09282Y03677*
X09282Y03677*
X09282Y03677*
X09283Y03677*
X09283Y03677*
X09284Y03676*
X09284Y03676*
X09285Y03676*
X09292*
Y03685*
G37*
G36*
X09294Y03783D02*
X09286D01*
X09285Y03783*
X09285Y03783*
X09284Y03782*
X09283Y03782*
X09283Y03782*
X09283Y03782*
X09282Y03782*
X09282Y03782*
X09282Y03781*
X09282Y03781*
X09281Y0378*
X09281Y0378*
X09281Y03779*
X09281Y03779*
Y03779*
Y03779*
Y03779*
X09281Y03778*
X09281Y03778*
X09281Y03777*
X09281Y03777*
X09281Y03777*
X09282Y03777*
X09282Y03776*
X09282Y03776*
X09282Y03776*
X09282Y03776*
X09283Y03775*
X09283Y03775*
X09283Y03775*
X09283Y03775*
X09284Y03775*
X09284Y03775*
X09284Y03775*
X09285Y03775*
X09285Y03775*
X09286Y03774*
X09286Y03774*
X09287Y03774*
X09294*
Y03783*
G37*
G36*
X09244Y0378D02*
Y03769D01*
X09252*
X09244Y0378*
G37*
G36*
X09442Y0413D02*
X09434D01*
X09433Y0413*
X09432Y04129*
X09432Y04129*
X09431Y04129*
X09431Y04129*
X0943Y04129*
X0943Y04129*
X0943Y04128*
X0943Y04128*
X09429Y04128*
X09429Y04127*
X09429Y04127*
X09429Y04126*
X09429Y04126*
Y04126*
Y04126*
Y04126*
X09429Y04125*
X09429Y04125*
X09429Y04124*
X09429Y04124*
X09429Y04124*
X09429Y04123*
X09429Y04123*
X09429Y04123*
X0943Y04123*
X0943Y04123*
X0943Y04122*
X09431Y04122*
X09431Y04122*
X09431Y04122*
X09431Y04122*
X09431Y04122*
X09432Y04122*
X09432Y04121*
X09433Y04121*
X09434Y04121*
X09434Y04121*
X09435Y04121*
X09442*
Y0413*
G37*
G36*
X09352Y03931D02*
X09352D01*
X09351Y03931*
X0935Y0393*
X0935Y0393*
X09349Y0393*
X09349Y0393*
X09348Y03929*
X09348Y03929*
X09348Y03929*
X09348Y03929*
X09347Y03928*
X09347Y03927*
X09347Y03927*
X09347Y03926*
X09347Y03926*
X09347Y03926*
Y03925*
Y03925*
Y03925*
X09347Y03924*
X09347Y03923*
X09347Y03923*
X09347Y03922*
X09348Y03922*
X09348Y03921*
X09348Y03921*
X09348Y03921*
X09348Y03921*
X09349Y0392*
X09349Y0392*
X0935Y0392*
X09351Y03919*
X09351Y03919*
X09351Y03919*
X09352Y03919*
X09352*
X09353Y03919*
X09353Y03919*
X09354Y0392*
X09354Y0392*
X09355Y0392*
X09355Y03921*
X09355Y03921*
X09355Y03921*
X09356Y03921*
X09356Y03922*
X09356Y03923*
X09356Y03924*
X09357Y03924*
X09357Y03924*
Y03925*
X09357Y03925*
Y03925*
Y03925*
Y03925*
X09357Y03926*
X09356Y03927*
X09356Y03928*
X09356Y03928*
X09356Y03929*
X09355Y03929*
X09355Y03929*
X09355Y03929*
X09355Y0393*
X09354Y0393*
X09353Y0393*
X09353Y03931*
X09352Y03931*
X09352Y03931*
X09352Y03931*
G37*
G36*
X1141Y04256D02*
X1141D01*
X1141*
X11409Y04256*
X11408Y04256*
X11407Y04256*
X11407Y04256*
X11406Y04255*
X11406Y04255*
X11406Y04255*
X11406Y04255*
X11405Y04254*
X11405Y04254*
X11405Y04253*
X11405Y04253*
X11404Y04252*
X11404Y04252*
X11404Y04251*
Y04251*
X11404Y04251*
X11405Y0425*
X11405Y04249*
X11405Y04249*
X11405Y04248*
X11406Y04248*
X11406Y04248*
X11406Y04248*
X11406Y04247*
X11407Y04247*
X11408Y04247*
X11408Y04247*
X11409Y04246*
X11409Y04246*
X1141*
X1141Y04246*
X1141*
X1141*
X1141*
X11411Y04246*
X11412Y04247*
X11413Y04247*
X11413Y04247*
X11414Y04247*
X11414Y04248*
X11414Y04248*
X11414Y04248*
X11415Y04248*
X11415Y04249*
X11415Y04249*
X11416Y0425*
X11416Y0425*
X11416Y04251*
X11416Y04251*
Y04251*
X11416Y04252*
X11416Y04252*
X11416Y04253*
X11415Y04253*
X11415Y04253*
X11415Y04254*
X11415Y04254*
X11415Y04254*
X11415Y04254*
X11414Y04255*
X11414Y04255*
X11414Y04255*
X11413Y04255*
X11413Y04256*
X11413Y04256*
X11413Y04256*
X11412Y04256*
X11412Y04256*
X11411Y04256*
X11411Y04256*
X1141Y04256*
X1141Y04256*
G37*
G36*
X11543Y04321D02*
X11543D01*
X11542*
X11542*
X11542Y04321*
X11542Y04321*
X11541Y04321*
X11541Y04321*
X11541Y04321*
X1154Y04321*
X1154Y04321*
X1154Y04321*
X1154Y0432*
X1154Y0432*
X11539Y0432*
X11539Y04319*
X11539Y04319*
X11539Y04319*
X11539Y04319*
X11539Y04319*
X11539Y04318*
X11538Y04318*
X11538Y04317*
X11538Y04316*
X11538Y04316*
X11538Y04315*
Y04308*
X11547*
Y04316*
X11546Y04317*
X11546Y04318*
X11546Y04318*
X11546Y04319*
X11546Y04319*
X11546Y0432*
X11545Y0432*
X11545Y0432*
X11545Y0432*
X11544Y04321*
X11544Y04321*
X11543Y04321*
X11543Y04321*
X11543Y04321*
G37*
G36*
X09241Y04479D02*
X09241D01*
X09241*
X09241*
X0924Y04479*
X0924Y04479*
X09239Y04479*
X09239Y04479*
X09239Y04479*
X09239Y04479*
X09238Y04479*
X09238Y04479*
X09238Y04479*
X09238Y04478*
X09237Y04478*
X09237Y04478*
X09237Y04477*
X09237Y04477*
X09237Y04477*
X09237Y04477*
X09237Y04476*
X09237Y04476*
X09237Y04475*
X09237Y04475*
X09236Y04474*
X09236Y04474*
Y04466*
X09245*
Y04474*
X09245Y04475*
X09245Y04476*
X09244Y04477*
X09244Y04477*
X09244Y04478*
X09244Y04478*
X09244Y04478*
X09244Y04478*
X09243Y04479*
X09243Y04479*
X09242Y04479*
X09242Y04479*
X09241Y04479*
X09241Y04479*
G37*
G36*
X09316Y04466D02*
X09308D01*
Y04458*
X09308Y04457*
X09308Y04456*
X09308Y04456*
X09308Y04455*
X09309Y04455*
X09309Y04454*
X09309Y04454*
X09309Y04454*
X09309Y04454*
X0931Y04453*
X0931Y04453*
X09311Y04453*
X09311Y04453*
X09312Y04453*
X09312*
X09312*
X09312*
X09312Y04453*
X09313Y04453*
X09313Y04453*
X09313Y04453*
X09314Y04453*
X09314Y04453*
X09314Y04454*
X09314Y04454*
X09315Y04454*
X09315Y04454*
X09315Y04454*
X09315Y04455*
X09315Y04455*
X09316Y04455*
X09316Y04455*
X09316Y04456*
X09316Y04456*
X09316Y04457*
X09316Y04457*
X09316Y04458*
X09316Y04458*
X09316Y04459*
Y04466*
G37*
G36*
X09024Y04479D02*
X09024D01*
X09024*
X09024*
X09024Y04479*
X09023Y04479*
X09023Y04479*
X09023Y04479*
X09022Y04479*
X09022Y04479*
X09022Y04479*
X09022Y04479*
X09022Y04479*
X09021Y04478*
X09021Y04478*
X09021Y04478*
X09021Y04477*
X0902Y04477*
X0902Y04477*
X0902Y04477*
X0902Y04476*
X0902Y04476*
X0902Y04475*
X0902Y04475*
X0902Y04474*
X0902Y04474*
Y04466*
X09028*
Y04474*
X09028Y04475*
X09028Y04476*
X09028Y04477*
X09028Y04477*
X09027Y04478*
X09027Y04478*
X09027Y04478*
X09027Y04478*
X09027Y04479*
X09026Y04479*
X09026Y04479*
X09025Y04479*
X09025Y04479*
X09024Y04479*
G37*
G36*
X091Y04466D02*
X09091D01*
Y04458*
X09091Y04457*
X09091Y04456*
X09092Y04456*
X09092Y04455*
X09092Y04455*
X09092Y04454*
X09092Y04454*
X09092Y04454*
X09093Y04454*
X09093Y04453*
X09094Y04453*
X09094Y04453*
X09095Y04453*
X09095Y04453*
X09095*
X09095*
X09095*
X09096Y04453*
X09096Y04453*
X09097Y04453*
X09097Y04453*
X09097Y04453*
X09097Y04453*
X09098Y04454*
X09098Y04454*
X09098Y04454*
X09098Y04454*
X09099Y04454*
X09099Y04455*
X09099Y04455*
X09099Y04455*
X09099Y04455*
X09099Y04456*
X09099Y04456*
X09099Y04457*
X09099Y04457*
X091Y04458*
X091Y04458*
X091Y04459*
Y04466*
G37*
G36*
X09105Y04443D02*
X09094Y04436D01*
X09105*
Y04443*
G37*
G36*
X08674Y04728D02*
X08674D01*
X08673Y04728*
X08673Y04728*
X08672Y04728*
X08672Y04727*
X08672Y04727*
X08672Y04727*
X08671Y04727*
X08671Y04727*
X08671Y04727*
X0867Y04726*
X0867Y04726*
X0867Y04726*
X0867Y04725*
X0867Y04725*
X08669Y04725*
X08669Y04725*
X08669Y04724*
X08669Y04724*
X08669Y04723*
X08669Y04723*
X08669Y04722*
X08669Y04722*
Y04722*
Y04722*
X08669Y04721*
X08669Y0472*
X08669Y04719*
X08669Y04719*
X0867Y04718*
X0867Y04718*
X0867Y04718*
X0867Y04718*
X08671Y04717*
X08671Y04717*
X08672Y04717*
X08673Y04716*
X08673Y04716*
X08673Y04716*
X08674Y04716*
X08674*
X08675Y04716*
X08675Y04717*
X08676Y04717*
X08676Y04717*
X08677Y04717*
X08677Y04718*
X08677Y04718*
X08677Y04718*
X08678Y04718*
X08678Y04719*
X08678Y0472*
X08679Y0472*
X08679Y04721*
X08679Y04721*
Y04722*
X08679Y04722*
Y04722*
Y04722*
Y04722*
X08679Y04723*
X08678Y04724*
X08678Y04725*
X08678Y04725*
X08678Y04726*
X08677Y04726*
X08677Y04726*
X08677Y04726*
X08677Y04727*
X08676Y04727*
X08676Y04727*
X08675Y04728*
X08675Y04728*
X08674Y04728*
X08674Y04728*
G37*
%LNpcb1-3*%
%LPD*%
G54D11*
X09242Y0354D02*
Y03605D01*
X09349*
Y0354D02*
Y03605D01*
X09242Y0354D02*
X09349D01*
Y03629D02*
Y03694D01*
X09242Y03629D02*
X09349D01*
X09242D02*
Y03694D01*
X09349*
X09351Y03728D02*
Y03793D01*
X09244Y03728D02*
X09351D01*
X09244D02*
Y03793D01*
X09351*
X09499Y04074D02*
Y04139D01*
X09392Y04074D02*
X09499D01*
X09392D02*
Y04139D01*
X09499*
X09166Y03834D02*
Y04051D01*
X09473*
Y03834D02*
Y04051D01*
X09166Y03834D02*
X09473D01*
X11379Y04367D02*
X11458D01*
Y04202D02*
Y04367D01*
X11379Y04202D02*
X11458D01*
X11379D02*
Y04367D01*
X11163Y04202D02*
X11242D01*
X11163D02*
Y04367D01*
X11242*
Y04202D02*
Y04367D01*
X11475Y0422D02*
X11573D01*
X11475D02*
Y04389D01*
X11573*
Y0422D02*
Y04389D01*
X11184Y04679D02*
X11652D01*
Y04406D02*
Y04679D01*
X11184Y04406D02*
X11652D01*
X11184D02*
Y04679D01*
X09189Y04402D02*
X09254D01*
X09189D02*
Y04524D01*
X09254*
Y04402D02*
Y04524D01*
X093Y04521D02*
X09361D01*
Y04418D02*
Y04521D01*
X093Y04418D02*
X09361D01*
X093D02*
Y04521D01*
X08973Y04402D02*
X09038D01*
X08973D02*
Y04524D01*
X09038*
Y04402D02*
Y04524D01*
X09083Y04521D02*
X09144D01*
Y04418D02*
Y04521D01*
X09083Y04418D02*
X09144D01*
X09083D02*
Y04521D01*
X08496Y04583D02*
Y04863D01*
X08787*
Y04583D02*
Y04863D01*
X08496Y04583D02*
X08787D01*
X10117Y04577D02*
Y04857D01*
X09825Y04577D02*
X10117D01*
X09825D02*
Y04857D01*
X10117*
M02*