%FSTAX23Y23*%
%MOIN*%
%SFA1B1*%

%IPPOS*%
%AMD61*
4,1,8,0.037500,-0.008900,0.037500,0.008900,0.031500,0.014800,-0.031500,0.014800,-0.037500,0.008900,-0.037500,-0.008900,-0.031500,-0.014800,0.031500,-0.014800,0.037500,-0.008900,0.0*
1,1,0.011898,0.031500,-0.008900*
1,1,0.011898,0.031500,0.008900*
1,1,0.011898,-0.031500,0.008900*
1,1,0.011898,-0.031500,-0.008900*
%
%ADD26R,0.039370X0.049212*%
%ADD28R,0.049689X0.037594*%
%ADD29R,0.059378X0.047500*%
%ADD30R,0.047500X0.059378*%
%ADD34R,0.037594X0.049689*%
%ADD35R,0.053342X0.057563*%
%ADD36R,0.045275X0.045275*%
%ADD38R,0.047244X0.047244*%
%ADD43R,0.047244X0.047244*%
%ADD45R,0.055441X0.039626*%
%ADD46R,0.043433X0.043433*%
%ADD47R,0.043433X0.096582*%
%ADD48R,0.096582X0.043433*%
%ADD49R,0.023748X0.022961*%
%ADD50R,0.061937X0.083197*%
%ADD51C,0.086740*%
%ADD52R,0.059181X0.051307*%
%ADD53R,0.051307X0.059181*%
%ADD54R,0.070992X0.093827*%
%ADD55R,0.070992X0.094614*%
%ADD56R,0.069023X0.061149*%
%ADD57R,0.067055X0.063118*%
%ADD58R,0.049338X0.065086*%
%ADD59R,0.051307X0.061149*%
%ADD60R,0.063118X0.067055*%
G04~CAMADD=61~8~0.0~0.0~296.5~749.3~59.5~0.0~15~0.0~0.0~0.0~0.0~0~0.0~0.0~0.0~0.0~0~0.0~0.0~0.0~270.0~750.0~297.0*
%ADD61D61*%
%ADD62R,0.055244X0.055244*%
%ADD63C,0.070992*%
%ADD64R,0.070992X0.070992*%
%ADD65C,0.045275*%
%ADD66C,0.067055*%
%ADD67R,0.067055X0.067055*%
%ADD68C,0.047244*%
%ADD69R,0.067055X0.067055*%
%ADD70C,0.055118*%
%ADD71R,0.055118X0.055118*%
%ADD72C,0.059181*%
%ADD73R,0.059181X0.059181*%
%ADD74R,0.045275X0.045275*%
%ADD75C,0.055559*%
%ADD76R,0.055118X0.055118*%
%ADD77C,0.145795*%
%ADD78C,0.035559*%
%LNpcb1-1*%
%LPD*%
G54D26*
X08515Y0508D03*
X08594D03*
G54D28*
X10462Y04365D03*
Y04426D03*
Y04568D03*
Y04629D03*
X10472Y04168D03*
Y04229D03*
Y03965D03*
Y04026D03*
Y0375D03*
Y03811D03*
Y0356D03*
Y03621D03*
X10462Y04881D03*
Y0482D03*
Y05126D03*
Y05065D03*
Y05376D03*
Y05315D03*
G54D29*
X1125Y04127D03*
Y04044D03*
X11128Y04127D03*
Y04044D03*
G54D30*
X09762Y04393D03*
X09845D03*
X08746Y0508D03*
X08663D03*
G54D34*
X09916Y05002D03*
X09855D03*
G54D35*
X08169Y05025D03*
X08246D03*
X08266Y0388D03*
X08189D03*
X11461Y03872D03*
X11384D03*
X11396Y05022D03*
X11473D03*
G54D36*
X09404Y0361D03*
Y03702D03*
Y03852D03*
Y03944D03*
X1008Y05345D03*
G54D38*
X08634Y03549D03*
Y03631D03*
G54D43*
X08047Y04355D03*
X07965D03*
X11003Y04582D03*
Y03777D03*
Y04183D03*
Y03574D03*
Y04379D03*
Y0398D03*
X08362Y0474D03*
Y04572D03*
X08361Y04403D03*
X09498Y04222D03*
G54D45*
X08618Y038D03*
Y03875D03*
X08612Y03963D03*
Y04038D03*
G54D46*
X09287Y04899D03*
X09232D03*
X09177D03*
X09287Y04788D03*
X09232D03*
X09177D03*
X09287Y04844D03*
X09177D03*
X09232D03*
G54D47*
X09566Y04433D03*
X09516D03*
X09466D03*
X09416D03*
X09366D03*
X09316D03*
X09266D03*
X09216D03*
X09166D03*
X09116D03*
X09066D03*
X09016D03*
G54D48*
X09651Y05148D03*
Y04498D03*
Y04548D03*
Y04598D03*
Y04648D03*
Y04698D03*
Y04748D03*
Y04798D03*
Y04848D03*
Y04898D03*
Y04948D03*
Y04998D03*
Y05048D03*
Y05098D03*
X08932Y04997D03*
Y04947D03*
Y04897D03*
Y04847D03*
Y04797D03*
Y04747D03*
Y04697D03*
Y04647D03*
Y04597D03*
Y04547D03*
Y04497D03*
Y05047D03*
Y05097D03*
Y05147D03*
G54D49*
X10206Y04198D03*
Y04176D03*
X10204Y04279D03*
Y04256D03*
Y0434D03*
Y04362D03*
X10255Y04176D03*
Y04198D03*
Y04256D03*
Y04278D03*
X10253Y04362D03*
Y0434D03*
G54D50*
X08087Y0473D03*
X07975D03*
X08087Y04606D03*
X07975D03*
G54D51*
X10295Y03838D03*
Y0369D03*
X10295Y0354D03*
G54D52*
X10548Y04368D03*
Y0445D03*
X09477Y03619D03*
Y03701D03*
Y0386D03*
Y03942D03*
X10548Y0457D03*
Y04653D03*
X10558Y04171D03*
Y04253D03*
Y03968D03*
Y04051D03*
Y03765D03*
Y03848D03*
Y03562D03*
Y03645D03*
X10549Y04892D03*
Y04809D03*
X10551Y05139D03*
Y05057D03*
Y05385D03*
Y05303D03*
G54D53*
X09915Y04914D03*
X09832D03*
X08167Y04937D03*
X0825D03*
X08271Y03972D03*
X08188D03*
X11467Y0396D03*
X11384D03*
X11388Y04935D03*
X11471D03*
G54D54*
X09068Y03725D03*
X08902Y04087D03*
X08733Y04095D03*
X09237Y03729D03*
G54D55*
X09068Y04087D03*
X08902Y03725D03*
X08733Y03733D03*
X09237Y0409D03*
G54D56*
X08736Y03555D03*
Y03632D03*
G54D57*
X08772Y04737D03*
X08517D03*
X09347Y04016D03*
Y0409D03*
G54D58*
X08047Y04267D03*
X07975D03*
G54D59*
X08667Y04976D03*
X08722D03*
G54D60*
X08592Y04979D03*
X08517D03*
X09052Y03592D03*
X08977D03*
G54D61*
X09836Y0484D03*
Y0479D03*
Y0474D03*
Y0469D03*
Y0464D03*
Y0459D03*
Y0454D03*
Y0449D03*
X10202Y0484D03*
Y0479D03*
Y0474D03*
Y0469D03*
Y0464D03*
Y0459D03*
Y0454D03*
Y0449D03*
G54D62*
X08532Y03875D03*
Y03792D03*
X08533Y04039D03*
Y03956D03*
G54D63*
X11651Y0412D03*
X11551D03*
G54D64*
X11451Y0412D03*
G54D65*
X1008Y05168D03*
Y05227D03*
Y05286D03*
X08432Y04121D03*
X08373D03*
X08313D03*
G54D66*
X10698Y05347D03*
X10856D03*
X10777D03*
X10698Y05098D03*
X10856D03*
X10777D03*
X10698Y04853D03*
X10856D03*
X10777D03*
X09924Y05409D03*
Y05309D03*
Y05209D03*
X08592Y05326D03*
X11189Y05322D03*
X11176Y03655D03*
X08444Y0524D03*
X08464Y03582D03*
G54D67*
X10935Y05347D03*
Y05098D03*
Y04853D03*
G54D68*
X10688Y04582D03*
X10767D03*
X10846D03*
X10925D03*
X10688Y03777D03*
X10767D03*
X10846D03*
X10925D03*
X10688Y04183D03*
X10767D03*
X10846D03*
X10925D03*
X10688Y03574D03*
X10767D03*
X10846D03*
X10925D03*
X10688Y04379D03*
X10767D03*
X10846D03*
X10925D03*
X10688Y0398D03*
X10767D03*
X10846D03*
X10925D03*
X08244Y0474D03*
X08303D03*
X08244Y04572D03*
X08303D03*
X08243Y04403D03*
X08302D03*
X09104Y04222D03*
X09183D03*
X09261D03*
X0934D03*
X09419D03*
G54D69*
X09924Y05109D03*
X08592Y05226D03*
X11189Y05244D03*
X11176Y03576D03*
X08444Y05318D03*
X08464Y03661D03*
G54D70*
X10127Y03893D03*
X10029D03*
X09931D03*
X09832D03*
X09734D03*
X10127Y03631D03*
X10029D03*
X09931D03*
X09832D03*
X09734D03*
X0797Y05098D03*
Y05196D03*
Y05295D03*
X08031Y03799D03*
Y037D03*
Y03602D03*
X11655Y03799D03*
Y037D03*
Y03602D03*
X11624Y05098D03*
Y05196D03*
Y05295D03*
G54D71*
X09635Y03893D03*
Y03631D03*
G54D72*
X0824Y05161D03*
Y0524D03*
X08259Y03582D03*
Y03661D03*
X11387Y03736D03*
Y03657D03*
X11395Y05318D03*
Y0524D03*
G54D73*
X0824Y05318D03*
X08259Y0374D03*
X11387Y03578D03*
X11395Y05161D03*
G54D74*
X08254Y04121D03*
G54D75*
X08251Y04251D03*
X08311D03*
X0837D03*
X08429D03*
X08488D03*
X08547D03*
G54D76*
X0797Y05D03*
X08031Y03897D03*
X11655D03*
X11624Y05D03*
G54D77*
X11428Y04821D03*
X11196Y03893D03*
X07948Y04102D03*
X09832Y04253D03*
X08756D03*
X08806Y05287D03*
X09783D03*
G54D78*
X09319Y04547D03*
X09092Y04794D03*
X09045Y04793D03*
X09721Y04794D03*
X11057Y04033D03*
X11187Y04083D03*
X08382Y03956D03*
X09921Y04539D03*
X08658Y05285D03*
X08683Y04732D03*
X08825Y046D03*
X08849Y04647D03*
X09466Y0457D03*
X09417Y0457D03*
X09365Y04565D03*
X10701Y04267D03*
X09495Y03805D03*
X08517Y04921D03*
X11645Y04027D03*
X09986Y04654D03*
X08837Y04998D03*
X08839Y04947D03*
X08779Y04905D03*
X08122Y04818D03*
X09515Y0433D03*
X09566Y04334D03*
X08577Y03688D03*
X112Y04896D03*
X11492Y04578D03*
X11246Y05208D03*
X11279Y05236D03*
X08925Y04405D03*
X09Y04255D03*
X09311Y03968D03*
X09118Y03952D03*
X09149Y04098D03*
X0972Y04216D03*
X10283Y04842D03*
X09967Y04603D03*
X0993Y04583D03*
X10055Y04543D03*
X11007Y05015D03*
X10161Y04307D03*
X10173Y0422D03*
X09102Y03811D03*
X0885Y04854D03*
X08848Y04897D03*
X08333Y04884D03*
X08417Y04413D03*
Y04501D03*
X11118Y04381D03*
X11364Y04168D03*
X09582Y04196D03*
X10295Y04952D03*
X09976Y04901D03*
X09724Y04996D03*
X09976Y04948D03*
Y05D03*
X1037Y03692D03*
X11043Y04763D03*
X10692D03*
X09724Y04944D03*
X09763Y05098D03*
X09724Y05048D03*
Y04598D03*
X09665Y04385D03*
X09779Y04535D03*
X09756Y04104D03*
X11129Y04968D03*
X09543Y03511D03*
X08848Y04744D03*
Y04696D03*
Y04803D03*
X10206Y03838D03*
X0869Y04557D03*
X08592D03*
X09557Y04685D03*
X09724Y04724D03*
X09753Y04685D03*
X09724Y04649D03*
X08503Y05196D03*
X08919Y03614D03*
X08415Y04005D03*
X08978Y03848D03*
X09015Y03917D03*
X08001Y04458D03*
X087Y05393D03*
X10728Y05D03*
X09724Y04547D03*
X09507Y04714D03*
X11092Y05206D03*
X09724Y04846D03*
Y04897D03*
M02*