%FSTAX23Y23*%
%MOIN*%
%SFA1B1*%

%IPPOS*%
%ADD11C,0.007874*%
%LNpcb1-1*%
%LPD*%
G54D11*
X09994Y05109D02*
X10131D01*
Y05404*
X09994D02*
X10131D01*
X09994Y05109D02*
Y05404D01*
X08598Y05052D02*
Y05109D01*
X08511D02*
X08598D01*
X08511Y05052D02*
Y05109D01*
Y05052D02*
X08598D01*
X1108Y04515D02*
Y04692D01*
X10612D02*
X1108D01*
X10612Y04515D02*
Y04692D01*
Y04515D02*
X1108D01*
X10437Y04435D02*
X10487D01*
X10437Y04356D02*
Y04435D01*
Y04356D02*
X10487D01*
Y04435*
X1108Y0371D02*
Y03887D01*
X10612D02*
X1108D01*
X10612Y0371D02*
Y03887D01*
Y0371D02*
X1108D01*
X11225Y04046D02*
X11274D01*
Y04125*
X11225D02*
X11274D01*
X11225Y04046D02*
Y04125D01*
X09843Y04369D02*
Y04418D01*
X09764D02*
X09843D01*
X09764Y04369D02*
Y04418D01*
Y04369D02*
X09843D01*
X09846Y04978D02*
Y05027D01*
Y04978D02*
X09925D01*
Y05027*
X09846D02*
X09925D01*
X08247Y05D02*
Y0505D01*
X08168D02*
X08247D01*
X08168Y05D02*
Y0505D01*
Y05D02*
X08247D01*
X08188Y03856D02*
Y03905D01*
Y03856D02*
X08267D01*
Y03905*
X08188D02*
X08267D01*
X11383Y03847D02*
Y03896D01*
Y03847D02*
X11462D01*
Y03896*
X11383D02*
X11462D01*
X11474Y04998D02*
Y05047D01*
X11395D02*
X11474D01*
X11395Y04998D02*
Y05047D01*
Y04998D02*
X11474D01*
X09539Y03801D02*
Y04027D01*
Y03801D02*
X10224D01*
Y04027*
X09539D02*
X10224D01*
X09539Y03539D02*
Y03765D01*
Y03539D02*
X10224D01*
Y03765*
X09539D02*
X10224D01*
X09377Y03699D02*
X09431D01*
X09377Y03613D02*
Y03699D01*
Y03613D02*
X09431D01*
Y03699*
X09377Y03941D02*
X09431D01*
X09377Y03855D02*
Y03941D01*
Y03855D02*
X09431D01*
Y03941*
X08608Y03631D02*
X08661D01*
X08608Y03549D02*
Y03631D01*
Y03549D02*
X08661D01*
Y03631*
X1108Y04116D02*
Y04293D01*
X10612D02*
X1108D01*
X10612Y04116D02*
Y04293D01*
Y04116D02*
X1108D01*
Y03507D02*
Y03685D01*
X10612D02*
X1108D01*
X10612Y03507D02*
Y03685D01*
Y03507D02*
X1108D01*
Y04312D02*
Y0449D01*
X10612D02*
X1108D01*
X10612Y04312D02*
Y0449D01*
Y04312D02*
X1108D01*
Y03913D02*
Y0409D01*
X10612D02*
X1108D01*
X10612Y03913D02*
Y0409D01*
Y03913D02*
X1108D01*
X10437Y04638D02*
X10487D01*
X10437Y04559D02*
Y04638D01*
Y04559D02*
X10487D01*
Y04638*
X10447Y04238D02*
X10497D01*
X10447Y04159D02*
Y04238D01*
Y04159D02*
X10497D01*
Y04238*
X10447Y04035D02*
X10497D01*
X10447Y03956D02*
Y04035D01*
Y03956D02*
X10497D01*
Y04035*
X10447Y0382D02*
X10497D01*
X10447Y03741D02*
Y0382D01*
Y03741D02*
X10497D01*
Y0382*
X10447Y0363D02*
X10497D01*
X10447Y03551D02*
Y0363D01*
Y03551D02*
X10497D01*
Y0363*
X10437Y04811D02*
X10487D01*
Y0489*
X10437D02*
X10487D01*
X10437Y04811D02*
Y0489D01*
Y05057D02*
X10487D01*
Y05135*
X10437D02*
X10487D01*
X10437Y05057D02*
Y05135D01*
Y05306D02*
X10487D01*
Y05384*
X10437D02*
X10487D01*
X10437Y05306D02*
Y05384D01*
X08491Y04034D02*
Y04172D01*
X08195D02*
X08491D01*
X08195Y04034D02*
Y04172D01*
Y04034D02*
X08491D01*
X08665Y05056D02*
Y05105D01*
Y05056D02*
X08744D01*
Y05105*
X08665D02*
X08744D01*
X07965Y04329D02*
Y04382D01*
Y04329D02*
X08047D01*
Y04382*
X07965D02*
X08047D01*
X08185Y04688D02*
Y04826D01*
Y04688D02*
X08421D01*
Y04826*
X08185D02*
X08421D01*
X11104Y04046D02*
X11153D01*
Y04125*
X11104D02*
X11153D01*
X11104Y04046D02*
Y04125D01*
X08185Y04521D02*
Y04659D01*
Y04521D02*
X08421D01*
Y04659*
X08185D02*
X08421D01*
X08593Y03876D02*
X08642D01*
X08593Y03798D02*
Y03876D01*
Y03798D02*
X08642D01*
Y03876*
X08587Y0404D02*
X08636D01*
X08587Y03961D02*
Y0404D01*
Y03961D02*
X08636D01*
Y0404*
X08184Y04352D02*
Y0449D01*
Y04352D02*
X0842D01*
Y0449*
X08184D02*
X0842D01*
X09027Y04155D02*
Y04332D01*
Y04155D02*
X09574D01*
Y04332*
X09027D02*
X09574D01*
X07877Y05391D02*
X08104D01*
X07877Y04903D02*
Y05391D01*
Y04903D02*
X08104D01*
Y05391*
X07897Y03505D02*
X08124D01*
Y03994*
X07897D02*
X08124D01*
X07897Y03505D02*
Y03994D01*
X11521Y03505D02*
X11748D01*
Y03994*
X11521D02*
X11748D01*
X11521Y03505D02*
Y03994D01*
X11531Y05391D02*
X11757D01*
X11531Y04903D02*
Y05391D01*
Y04903D02*
X11757D01*
Y05391*
M02*