%FSTAX23Y23*%
%MOIN*%
%SFA1B1*%

%IPPOS*%
%ADD11C,0.007874*%
%ADD116C,0.001969*%
%LNpcb1-1*%
%LPD*%
G54D11*
X0999Y05105D02*
X10135D01*
Y05408*
X0999D02*
X10135D01*
X0999Y05105D02*
Y05408D01*
X08617Y05048D02*
Y05113D01*
X08491D02*
X08617D01*
X08491Y05048D02*
Y05113D01*
Y05048D02*
X08617D01*
X11084Y04511D02*
Y04696D01*
X10608D02*
X11084D01*
X10608Y04511D02*
Y04696D01*
Y04511D02*
X11084D01*
X10432Y04449D02*
X10493D01*
X10432Y04342D02*
Y04449D01*
Y04342D02*
X10493D01*
Y04449*
X11084Y03706D02*
Y03891D01*
X10608D02*
X11084D01*
X10608Y03706D02*
Y03891D01*
Y03706D02*
X11084D01*
X112Y04001D02*
X11299D01*
Y04171*
X112D02*
X11299D01*
X112Y04001D02*
Y04171D01*
X09888Y04344D02*
Y04443D01*
X09719D02*
X09888D01*
X09719Y04344D02*
Y04443D01*
Y04344D02*
X09888D01*
X09832Y04972D02*
Y05033D01*
Y04972D02*
X09939D01*
Y05033*
X09832D02*
X09939D01*
X08292Y04977D02*
Y05074D01*
X08122D02*
X08292D01*
X08122Y04977D02*
Y05074D01*
Y04977D02*
X08292D01*
X08143Y03832D02*
Y03929D01*
Y03832D02*
X08313D01*
Y03929*
X08143D02*
X08313D01*
X11338Y03823D02*
Y0392D01*
Y03823D02*
X11508D01*
Y0392*
X11338D02*
X11508D01*
X11519Y04974D02*
Y05071D01*
X1135D02*
X11519D01*
X1135Y04974D02*
Y05071D01*
Y04974D02*
X11519D01*
X09535Y03797D02*
Y04031D01*
Y03797D02*
X10228D01*
Y04031*
X09535D02*
X10228D01*
X09535Y03535D02*
Y03769D01*
Y03535D02*
X10228D01*
Y03769*
X09535D02*
X10228D01*
X09374Y03729D02*
X09435D01*
X09374Y03583D02*
Y03729D01*
Y03583D02*
X09435D01*
Y03729*
X09374Y03971D02*
X09435D01*
X09374Y03825D02*
Y03971D01*
Y03825D02*
X09435D01*
Y03971*
X08604Y03659D02*
X08665D01*
X08604Y03521D02*
Y03659D01*
Y03521D02*
X08665D01*
Y03659*
X11084Y04112D02*
Y04297D01*
X10608D02*
X11084D01*
X10608Y04112D02*
Y04297D01*
Y04112D02*
X11084D01*
Y03503D02*
Y03688D01*
X10608D02*
X11084D01*
X10608Y03503D02*
Y03688D01*
Y03503D02*
X11084D01*
Y04309D02*
Y04494D01*
X10608D02*
X11084D01*
X10608Y04309D02*
Y04494D01*
Y04309D02*
X11084D01*
Y03909D02*
Y04094D01*
X10608D02*
X11084D01*
X10608Y03909D02*
Y04094D01*
Y03909D02*
X11084D01*
X10432Y04651D02*
X10493D01*
X10432Y04545D02*
Y04651D01*
Y04545D02*
X10493D01*
Y04651*
X10441Y04252D02*
X10502D01*
X10441Y04145D02*
Y04252D01*
Y04145D02*
X10502D01*
Y04252*
X10441Y04049D02*
X10502D01*
X10441Y03943D02*
Y04049D01*
Y03943D02*
X10502D01*
Y04049*
X10441Y03834D02*
X10502D01*
X10441Y03727D02*
Y03834D01*
Y03727D02*
X10502D01*
Y03834*
X10441Y03644D02*
X10502D01*
X10441Y03537D02*
Y03644D01*
Y03537D02*
X10502D01*
Y03644*
X10432Y04798D02*
X10493D01*
Y04904*
X10432D02*
X10493D01*
X10432Y04798D02*
Y04904D01*
Y05043D02*
X10493D01*
Y05149*
X10432D02*
X10493D01*
X10432Y05043D02*
Y05149D01*
Y05292D02*
X10493D01*
Y05398*
X10432D02*
X10493D01*
X10432Y05292D02*
Y05398D01*
X08495Y0403D02*
Y04176D01*
X08191D02*
X08495D01*
X08191Y0403D02*
Y04176D01*
Y0403D02*
X08495D01*
X08619Y05031D02*
Y0513D01*
Y05031D02*
X08789D01*
Y0513*
X08619D02*
X08789D01*
X07937Y04325D02*
Y04386D01*
Y04325D02*
X08075D01*
Y04386*
X07937D02*
X08075D01*
X08181Y04685D02*
Y0483D01*
Y04685D02*
X08425D01*
Y0483*
X08181D02*
X08425D01*
X11079Y04001D02*
X11178D01*
Y04171*
X11079D02*
X11178D01*
X11079Y04001D02*
Y04171D01*
X08181Y04517D02*
Y04663D01*
Y04517D02*
X08425D01*
Y04663*
X08181D02*
X08425D01*
X0858Y03904D02*
X08655D01*
X0858Y0377D02*
Y03904D01*
Y0377D02*
X08655D01*
Y03904*
X08574Y04068D02*
X08649D01*
X08574Y03933D02*
Y04068D01*
Y03933D02*
X08649D01*
Y04068*
X0818Y04348D02*
Y04494D01*
Y04348D02*
X08424D01*
Y04494*
X0818D02*
X08424D01*
X09023Y04151D02*
Y04336D01*
Y04151D02*
X09578D01*
Y04336*
X09023D02*
X09578D01*
X07874Y05395D02*
X08108D01*
X07874Y04899D02*
Y05395D01*
Y04899D02*
X08108D01*
Y05395*
X07893Y03501D02*
X08127D01*
Y03998*
X07893D02*
X08127D01*
X07893Y03501D02*
Y03998D01*
X11517Y03501D02*
X11751D01*
Y03998*
X11517D02*
X11751D01*
X11517Y03501D02*
Y03998D01*
X11527Y05395D02*
X11761D01*
X11527Y04899D02*
Y05395D01*
Y04899D02*
X11761D01*
Y05395*
G54D116*
X10548Y04389D02*
Y04429D01*
X10528Y04409D02*
X10567D01*
X10513Y04338D02*
Y0448D01*
X10582*
Y04338D02*
Y0448D01*
X10513Y04338D02*
X10582D01*
X09854Y04914D02*
X09893D01*
X09874Y04894D02*
Y04934D01*
X09803Y04879D02*
X09944D01*
X09803D02*
Y04948D01*
X09944*
Y04879D02*
Y04948D01*
X08188Y04937D02*
X08228D01*
X08208Y04918D02*
Y04957D01*
X08137Y04972D02*
X08279D01*
Y04903D02*
Y04972D01*
X08137Y04903D02*
X08279D01*
X08137D02*
Y04972D01*
X0821Y03972D02*
X0825D01*
X0823Y03952D02*
Y03992D01*
X08159Y03937D02*
X08301D01*
X08159D02*
Y04006D01*
X08301*
Y03937D02*
Y04006D01*
X11406Y0396D02*
X11445D01*
X11426Y0394D02*
Y0398D01*
X11355Y03926D02*
X11497D01*
X11355D02*
Y03995D01*
X11497*
Y03926D02*
Y03995D01*
X1141Y04935D02*
X11449D01*
X1143Y04915D02*
Y04954D01*
X11359Y04969D02*
X115D01*
Y049D02*
Y04969D01*
X11359Y049D02*
X115D01*
X11359D02*
Y04969D01*
X09477Y0364D02*
Y0368D01*
X09457Y0366D02*
X09497D01*
X09442Y03589D02*
Y03731D01*
X09511*
Y03589D02*
Y03731D01*
X09442Y03589D02*
X09511D01*
X09477Y03881D02*
Y03921D01*
X09457Y03901D02*
X09497D01*
X09442Y0383D02*
Y03972D01*
X09511*
Y0383D02*
Y03972D01*
X09442Y0383D02*
X09511D01*
X10548Y04592D02*
Y04631D01*
X10528Y04612D02*
X10567D01*
X10513Y04541D02*
Y04683D01*
X10582*
Y04541D02*
Y04683D01*
X10513Y04541D02*
X10582D01*
X10558Y04192D02*
Y04232D01*
X10538Y04212D02*
X10577D01*
X10523Y04141D02*
Y04283D01*
X10592*
Y04141D02*
Y04283D01*
X10523Y04141D02*
X10592D01*
X10558Y0399D02*
Y04029D01*
X10538Y04009D02*
X10577D01*
X10523Y03938D02*
Y0408D01*
X10592*
Y03938D02*
Y0408D01*
X10523Y03938D02*
X10592D01*
X10558Y03787D02*
Y03826D01*
X10538Y03807D02*
X10577D01*
X10523Y03736D02*
Y03877D01*
X10592*
Y03736D02*
Y03877D01*
X10523Y03736D02*
X10592D01*
X10558Y03584D02*
Y03624D01*
X10538Y03604D02*
X10577D01*
X10523Y03533D02*
Y03675D01*
X10592*
Y03533D02*
Y03675D01*
X10523Y03533D02*
X10592D01*
X10549Y04831D02*
Y0487D01*
X1053Y0485D02*
X10569D01*
X10584Y0478D02*
Y04921D01*
X10515Y0478D02*
X10584D01*
X10515D02*
Y04921D01*
X10584*
X10551Y05078D02*
Y05118D01*
X10531Y05098D02*
X1057D01*
X10585Y05027D02*
Y05169D01*
X10516Y05027D02*
X10585D01*
X10516D02*
Y05169D01*
X10585*
X10551Y05324D02*
Y05364D01*
X10531Y05344D02*
X1057D01*
X10585Y05273D02*
Y05415D01*
X10516Y05273D02*
X10585D01*
X10516D02*
Y05415D01*
X10585*
M02*