%FSTAX23Y23*%
%MOIN*%
%SFA1B1*%

%IPPOS*%
%ADD119C,0.002000*%
%ADD120C,0.002665*%
%LNpcb1-1*%
%LPD*%
G54D119*
X10072Y0516D02*
Y05176D01*
X10088*
Y0516*
X10072*
Y05219D02*
Y05235D01*
X10088*
Y05219*
X10072*
Y05278D02*
Y05294D01*
X10088*
Y05278*
X10072*
Y05337D02*
Y05353D01*
X10088*
Y05337*
X10072*
X09259Y0478D02*
X09251Y04796D01*
X09267*
X09259Y0478*
X09204D02*
X09196Y04796D01*
X09212*
X09204Y0478*
X09259Y04836D02*
X09251Y04852D01*
X09267*
X09259Y04836*
X09204D02*
X09196Y04852D01*
X09212*
X09204Y04836*
X09259Y04891D02*
X09251Y04907D01*
X09267*
X09259Y04891*
X09204D02*
X09196Y04907D01*
X09212*
X09204Y04891*
X09287Y04808D02*
X09279Y04824D01*
X09295*
X09287Y04808*
X09232D02*
X09224Y04824D01*
X0924*
X09232Y04808*
X09177D02*
X09169Y04824D01*
X09185*
X09177Y04808*
X09287Y04863D02*
X09279Y04879D01*
X09295*
X09287Y04863*
X09177D02*
X09169Y04879D01*
X09185*
X09177Y04863*
X09232D02*
X09224Y04879D01*
X0924*
X09232Y04863*
X10688Y04574D02*
X10692Y04578D01*
X10696*
X10692Y04582*
X10696Y04586*
X10692*
X10688Y0459*
X10684Y04586*
X1068*
X10684Y04582*
X1068Y04578*
X10684*
X10688Y04574*
X10767D02*
X10771Y04578D01*
X10775*
X10771Y04582*
X10775Y04586*
X10771*
X10767Y0459*
X10763Y04586*
X10759*
X10763Y04582*
X10759Y04578*
X10763*
X10767Y04574*
X10846D02*
X1085Y04578D01*
X10854*
X1085Y04582*
X10854Y04586*
X1085*
X10846Y0459*
X10842Y04586*
X10838*
X10842Y04582*
X10838Y04578*
X10842*
X10846Y04574*
X10925D02*
X10929Y04578D01*
X10933*
X10929Y04582*
X10933Y04586*
X10929*
X10925Y0459*
X10921Y04586*
X10917*
X10921Y04582*
X10917Y04578*
X10921*
X10925Y04574*
X11003D02*
X11007Y04578D01*
X11011*
X11007Y04582*
X11011Y04586*
X11007*
X11003Y0459*
X10999Y04586*
X10995*
X10999Y04582*
X10995Y04578*
X10999*
X11003Y04574*
X10688Y03769D02*
X10692Y03773D01*
X10696*
X10692Y03777*
X10696Y03781*
X10692*
X10688Y03785*
X10684Y03781*
X1068*
X10684Y03777*
X1068Y03773*
X10684*
X10688Y03769*
X10767D02*
X10771Y03773D01*
X10775*
X10771Y03777*
X10775Y03781*
X10771*
X10767Y03785*
X10763Y03781*
X10759*
X10763Y03777*
X10759Y03773*
X10763*
X10767Y03769*
X10846D02*
X1085Y03773D01*
X10854*
X1085Y03777*
X10854Y03781*
X1085*
X10846Y03785*
X10842Y03781*
X10838*
X10842Y03777*
X10838Y03773*
X10842*
X10846Y03769*
X10925D02*
X10929Y03773D01*
X10933*
X10929Y03777*
X10933Y03781*
X10929*
X10925Y03785*
X10921Y03781*
X10917*
X10921Y03777*
X10917Y03773*
X10921*
X10925Y03769*
X11003D02*
X11007Y03773D01*
X11011*
X11007Y03777*
X11011Y03781*
X11007*
X11003Y03785*
X10999Y03781*
X10995*
X10999Y03777*
X10995Y03773*
X10999*
X11003Y03769*
X09916Y05401D02*
X0992Y05409D01*
X09916Y05417*
X09924Y05413*
X09932Y05417*
X09928Y05409*
X09932Y05401*
X09924Y05405*
X09916Y05401*
Y05301D02*
X0992Y05309D01*
X09916Y05317*
X09924Y05313*
X09932Y05317*
X09928Y05309*
X09932Y05301*
X09924Y05305*
X09916Y05301*
Y05201D02*
X0992Y05209D01*
X09916Y05217*
X09924Y05213*
X09932Y05217*
X09928Y05209*
X09932Y05201*
X09924Y05205*
X09916Y05201*
Y05101D02*
X0992Y05109D01*
X09916Y05117*
X09924Y05113*
X09932Y05117*
X09928Y05109*
X09932Y05101*
X09924Y05105*
X09916Y05101*
X10119Y03885D02*
X10123Y03893D01*
X10119Y03901*
X10127Y03897*
X10135Y03901*
X10131Y03893*
X10135Y03885*
X10127Y03889*
X10119Y03885*
X10021D02*
X10025Y03893D01*
X10021Y03901*
X10029Y03897*
X10037Y03901*
X10033Y03893*
X10037Y03885*
X10029Y03889*
X10021Y03885*
X09923D02*
X09927Y03893D01*
X09923Y03901*
X09931Y03897*
X09939Y03901*
X09935Y03893*
X09939Y03885*
X09931Y03889*
X09923Y03885*
X09824D02*
X09828Y03893D01*
X09824Y03901*
X09832Y03897*
X0984Y03901*
X09836Y03893*
X0984Y03885*
X09832Y03889*
X09824Y03885*
X09726D02*
X0973Y03893D01*
X09726Y03901*
X09734Y03897*
X09742Y03901*
X09738Y03893*
X09742Y03885*
X09734Y03889*
X09726Y03885*
X09627D02*
X09631Y03893D01*
X09627Y03901*
X09635Y03897*
X09643Y03901*
X09639Y03893*
X09643Y03885*
X09635Y03889*
X09627Y03885*
X10119Y03623D02*
X10123Y03631D01*
X10119Y03639*
X10127Y03635*
X10135Y03639*
X10131Y03631*
X10135Y03623*
X10127Y03627*
X10119Y03623*
X10021D02*
X10025Y03631D01*
X10021Y03639*
X10029Y03635*
X10037Y03639*
X10033Y03631*
X10037Y03623*
X10029Y03627*
X10021Y03623*
X09923D02*
X09927Y03631D01*
X09923Y03639*
X09931Y03635*
X09939Y03639*
X09935Y03631*
X09939Y03623*
X09931Y03627*
X09923Y03623*
X09824D02*
X09828Y03631D01*
X09824Y03639*
X09832Y03635*
X0984Y03639*
X09836Y03631*
X0984Y03623*
X09832Y03627*
X09824Y03623*
X09726D02*
X0973Y03631D01*
X09726Y03639*
X09734Y03635*
X09742Y03639*
X09738Y03631*
X09742Y03623*
X09734Y03627*
X09726Y03623*
X09627D02*
X09631Y03631D01*
X09627Y03639*
X09635Y03635*
X09643Y03639*
X09639Y03631*
X09643Y03623*
X09635Y03627*
X09627Y03623*
X08236Y05157D02*
Y05153D01*
X08244*
Y05157*
X08248*
Y05165*
X08244*
Y05169*
X08236*
Y05165*
X08232*
Y05157*
X08236*
Y05236D02*
Y05232D01*
X08244*
Y05236*
X08248*
Y05244*
X08244*
Y05248*
X08236*
Y05244*
X08232*
Y05236*
X08236*
Y05314D02*
Y0531D01*
X08244*
Y05314*
X08248*
Y05322*
X08244*
Y05326*
X08236*
Y05322*
X08232*
Y05314*
X08236*
X08255Y03578D02*
Y03574D01*
X08263*
Y03578*
X08267*
Y03586*
X08263*
Y0359*
X08255*
Y03586*
X08251*
Y03578*
X08255*
Y03657D02*
Y03653D01*
X08263*
Y03657*
X08267*
Y03665*
X08263*
Y03669*
X08255*
Y03665*
X08251*
Y03657*
X08255*
Y03736D02*
Y03732D01*
X08263*
Y03736*
X08267*
Y03744*
X08263*
Y03748*
X08255*
Y03744*
X08251*
Y03736*
X08255*
X11383Y03732D02*
Y03728D01*
X11391*
Y03732*
X11395*
Y0374*
X11391*
Y03744*
X11383*
Y0374*
X11379*
Y03732*
X11383*
Y03653D02*
Y03649D01*
X11391*
Y03653*
X11395*
Y03661*
X11391*
Y03665*
X11383*
Y03661*
X11379*
Y03653*
X11383*
Y03574D02*
Y0357D01*
X11391*
Y03574*
X11395*
Y03582*
X11391*
Y03586*
X11383*
Y03582*
X11379*
Y03574*
X11383*
X11391Y05314D02*
Y0531D01*
X11399*
Y05314*
X11403*
Y05322*
X11399*
Y05326*
X11391*
Y05322*
X11387*
Y05314*
X11391*
Y05236D02*
Y05232D01*
X11399*
Y05236*
X11403*
Y05244*
X11399*
Y05248*
X11391*
Y05244*
X11387*
Y05236*
X11391*
Y05157D02*
Y05153D01*
X11399*
Y05157*
X11403*
Y05165*
X11399*
Y05169*
X11391*
Y05165*
X11387*
Y05157*
X11391*
X10688Y04175D02*
X10692Y04179D01*
X10696*
X10692Y04183*
X10696Y04187*
X10692*
X10688Y04191*
X10684Y04187*
X1068*
X10684Y04183*
X1068Y04179*
X10684*
X10688Y04175*
X10767D02*
X10771Y04179D01*
X10775*
X10771Y04183*
X10775Y04187*
X10771*
X10767Y04191*
X10763Y04187*
X10759*
X10763Y04183*
X10759Y04179*
X10763*
X10767Y04175*
X10846D02*
X1085Y04179D01*
X10854*
X1085Y04183*
X10854Y04187*
X1085*
X10846Y04191*
X10842Y04187*
X10838*
X10842Y04183*
X10838Y04179*
X10842*
X10846Y04175*
X10925D02*
X10929Y04179D01*
X10933*
X10929Y04183*
X10933Y04187*
X10929*
X10925Y04191*
X10921Y04187*
X10917*
X10921Y04183*
X10917Y04179*
X10921*
X10925Y04175*
X11003D02*
X11007Y04179D01*
X11011*
X11007Y04183*
X11011Y04187*
X11007*
X11003Y04191*
X10999Y04187*
X10995*
X10999Y04183*
X10995Y04179*
X10999*
X11003Y04175*
X10688Y03566D02*
X10692Y0357D01*
X10696*
X10692Y03574*
X10696Y03578*
X10692*
X10688Y03582*
X10684Y03578*
X1068*
X10684Y03574*
X1068Y0357*
X10684*
X10688Y03566*
X10767D02*
X10771Y0357D01*
X10775*
X10771Y03574*
X10775Y03578*
X10771*
X10767Y03582*
X10763Y03578*
X10759*
X10763Y03574*
X10759Y0357*
X10763*
X10767Y03566*
X10846D02*
X1085Y0357D01*
X10854*
X1085Y03574*
X10854Y03578*
X1085*
X10846Y03582*
X10842Y03578*
X10838*
X10842Y03574*
X10838Y0357*
X10842*
X10846Y03566*
X10925D02*
X10929Y0357D01*
X10933*
X10929Y03574*
X10933Y03578*
X10929*
X10925Y03582*
X10921Y03578*
X10917*
X10921Y03574*
X10917Y0357*
X10921*
X10925Y03566*
X11003D02*
X11007Y0357D01*
X11011*
X11007Y03574*
X11011Y03578*
X11007*
X11003Y03582*
X10999Y03578*
X10995*
X10999Y03574*
X10995Y0357*
X10999*
X11003Y03566*
X10688Y04371D02*
X10692Y04375D01*
X10696*
X10692Y04379*
X10696Y04383*
X10692*
X10688Y04387*
X10684Y04383*
X1068*
X10684Y04379*
X1068Y04375*
X10684*
X10688Y04371*
X10767D02*
X10771Y04375D01*
X10775*
X10771Y04379*
X10775Y04383*
X10771*
X10767Y04387*
X10763Y04383*
X10759*
X10763Y04379*
X10759Y04375*
X10763*
X10767Y04371*
X10846D02*
X1085Y04375D01*
X10854*
X1085Y04379*
X10854Y04383*
X1085*
X10846Y04387*
X10842Y04383*
X10838*
X10842Y04379*
X10838Y04375*
X10842*
X10846Y04371*
X10925D02*
X10929Y04375D01*
X10933*
X10929Y04379*
X10933Y04383*
X10929*
X10925Y04387*
X10921Y04383*
X10917*
X10921Y04379*
X10917Y04375*
X10921*
X10925Y04371*
X11003D02*
X11007Y04375D01*
X11011*
X11007Y04379*
X11011Y04383*
X11007*
X11003Y04387*
X10999Y04383*
X10995*
X10999Y04379*
X10995Y04375*
X10999*
X11003Y04371*
X10688Y03972D02*
X10692Y03976D01*
X10696*
X10692Y0398*
X10696Y03984*
X10692*
X10688Y03988*
X10684Y03984*
X1068*
X10684Y0398*
X1068Y03976*
X10684*
X10688Y03972*
X10767D02*
X10771Y03976D01*
X10775*
X10771Y0398*
X10775Y03984*
X10771*
X10767Y03988*
X10763Y03984*
X10759*
X10763Y0398*
X10759Y03976*
X10763*
X10767Y03972*
X10846D02*
X1085Y03976D01*
X10854*
X1085Y0398*
X10854Y03984*
X1085*
X10846Y03988*
X10842Y03984*
X10838*
X10842Y0398*
X10838Y03976*
X10842*
X10846Y03972*
X10925D02*
X10929Y03976D01*
X10933*
X10929Y0398*
X10933Y03984*
X10929*
X10925Y03988*
X10921Y03984*
X10917*
X10921Y0398*
X10917Y03976*
X10921*
X10925Y03972*
X11003D02*
X11007Y03976D01*
X11011*
X11007Y0398*
X11011Y03984*
X11007*
X11003Y03988*
X10999Y03984*
X10995*
X10999Y0398*
X10995Y03976*
X10999*
X11003Y03972*
X08424Y04113D02*
Y04129D01*
X0844*
Y04113*
X08424*
X08365D02*
Y04129D01*
X08381*
Y04113*
X08365*
X08305D02*
Y04129D01*
X08321*
Y04113*
X08305*
X08246D02*
Y04129D01*
X08262*
Y04113*
X08246*
X08584Y05218D02*
X08588Y05226D01*
X08584Y05234*
X08592Y0523*
X086Y05234*
X08596Y05226*
X086Y05218*
X08592Y05222*
X08584Y05218*
Y05318D02*
X08588Y05326D01*
X08584Y05334*
X08592Y0533*
X086Y05334*
X08596Y05326*
X086Y05318*
X08592Y05322*
X08584Y05318*
X08244Y04732D02*
X08248Y04736D01*
X08252*
X08248Y0474*
X08252Y04744*
X08248*
X08244Y04748*
X0824Y04744*
X08236*
X0824Y0474*
X08236Y04736*
X0824*
X08244Y04732*
X08303D02*
X08307Y04736D01*
X08311*
X08307Y0474*
X08311Y04744*
X08307*
X08303Y04748*
X08299Y04744*
X08295*
X08299Y0474*
X08295Y04736*
X08299*
X08303Y04732*
X08362D02*
X08366Y04736D01*
X0837*
X08366Y0474*
X0837Y04744*
X08366*
X08362Y04748*
X08358Y04744*
X08354*
X08358Y0474*
X08354Y04736*
X08358*
X08362Y04732*
X08244Y04564D02*
X08248Y04568D01*
X08252*
X08248Y04572*
X08252Y04576*
X08248*
X08244Y0458*
X0824Y04576*
X08236*
X0824Y04572*
X08236Y04568*
X0824*
X08244Y04564*
X08303D02*
X08307Y04568D01*
X08311*
X08307Y04572*
X08311Y04576*
X08307*
X08303Y0458*
X08299Y04576*
X08295*
X08299Y04572*
X08295Y04568*
X08299*
X08303Y04564*
X08362D02*
X08366Y04568D01*
X0837*
X08366Y04572*
X0837Y04576*
X08366*
X08362Y0458*
X08358Y04576*
X08354*
X08358Y04572*
X08354Y04568*
X08358*
X08362Y04564*
X08243Y04395D02*
X08247Y04399D01*
X08251*
X08247Y04403*
X08251Y04407*
X08247*
X08243Y04411*
X08239Y04407*
X08235*
X08239Y04403*
X08235Y04399*
X08239*
X08243Y04395*
X08302D02*
X08306Y04399D01*
X0831*
X08306Y04403*
X0831Y04407*
X08306*
X08302Y04411*
X08298Y04407*
X08294*
X08298Y04403*
X08294Y04399*
X08298*
X08302Y04395*
X08361D02*
X08365Y04399D01*
X08369*
X08365Y04403*
X08369Y04407*
X08365*
X08361Y04411*
X08357Y04407*
X08353*
X08357Y04403*
X08353Y04399*
X08357*
X08361Y04395*
X09104Y04214D02*
X09108Y04218D01*
X09112*
X09108Y04222*
X09112Y04226*
X09108*
X09104Y0423*
X091Y04226*
X09096*
X091Y04222*
X09096Y04218*
X091*
X09104Y04214*
X09183D02*
X09187Y04218D01*
X09191*
X09187Y04222*
X09191Y04226*
X09187*
X09183Y0423*
X09179Y04226*
X09175*
X09179Y04222*
X09175Y04218*
X09179*
X09183Y04214*
X09261D02*
X09265Y04218D01*
X09269*
X09265Y04222*
X09269Y04226*
X09265*
X09261Y0423*
X09257Y04226*
X09253*
X09257Y04222*
X09253Y04218*
X09257*
X09261Y04214*
X0934D02*
X09344Y04218D01*
X09348*
X09344Y04222*
X09348Y04226*
X09344*
X0934Y0423*
X09336Y04226*
X09332*
X09336Y04222*
X09332Y04218*
X09336*
X0934Y04214*
X09419D02*
X09423Y04218D01*
X09427*
X09423Y04222*
X09427Y04226*
X09423*
X09419Y0423*
X09415Y04226*
X09411*
X09415Y04222*
X09411Y04218*
X09415*
X09419Y04214*
X09498D02*
X09502Y04218D01*
X09506*
X09502Y04222*
X09506Y04226*
X09502*
X09498Y0423*
X09494Y04226*
X0949*
X09494Y04222*
X0949Y04218*
X09494*
X09498Y04214*
X08251Y04243D02*
X08255Y04247D01*
X08259*
X08255Y04251*
X08259Y04255*
X08255*
X08251Y04259*
X08247Y04255*
X08243*
X08247Y04251*
X08243Y04247*
X08247*
X08251Y04243*
X08311D02*
X08315Y04247D01*
X08319*
X08315Y04251*
X08319Y04255*
X08315*
X08311Y04259*
X08307Y04255*
X08303*
X08307Y04251*
X08303Y04247*
X08307*
X08311Y04243*
X0837D02*
X08374Y04247D01*
X08378*
X08374Y04251*
X08378Y04255*
X08374*
X0837Y04259*
X08366Y04255*
X08362*
X08366Y04251*
X08362Y04247*
X08366*
X0837Y04243*
X08429D02*
X08433Y04247D01*
X08437*
X08433Y04251*
X08437Y04255*
X08433*
X08429Y04259*
X08425Y04255*
X08421*
X08425Y04251*
X08421Y04247*
X08425*
X08429Y04243*
X08488D02*
X08492Y04247D01*
X08496*
X08492Y04251*
X08496Y04255*
X08492*
X08488Y04259*
X08484Y04255*
X0848*
X08484Y04251*
X0848Y04247*
X08484*
X08488Y04243*
X08547D02*
X08551Y04247D01*
X08555*
X08551Y04251*
X08555Y04255*
X08551*
X08547Y04259*
X08543Y04255*
X08539*
X08543Y04251*
X08539Y04247*
X08543*
X08547Y04243*
X07962Y04992D02*
X07966Y05D01*
X07962Y05008*
X0797Y05004*
X07978Y05008*
X07974Y05*
X07978Y04992*
X0797Y04996*
X07962Y04992*
Y0509D02*
X07966Y05098D01*
X07962Y05106*
X0797Y05102*
X07978Y05106*
X07974Y05098*
X07978Y0509*
X0797Y05094*
X07962Y0509*
Y05188D02*
X07966Y05196D01*
X07962Y05204*
X0797Y052*
X07978Y05204*
X07974Y05196*
X07978Y05188*
X0797Y05192*
X07962Y05188*
Y05287D02*
X07966Y05295D01*
X07962Y05303*
X0797Y05299*
X07978Y05303*
X07974Y05295*
X07978Y05287*
X0797Y05291*
X07962Y05287*
X08023Y03889D02*
X08027Y03897D01*
X08023Y03905*
X08031Y03901*
X08039Y03905*
X08035Y03897*
X08039Y03889*
X08031Y03893*
X08023Y03889*
Y03791D02*
X08027Y03799D01*
X08023Y03807*
X08031Y03803*
X08039Y03807*
X08035Y03799*
X08039Y03791*
X08031Y03795*
X08023Y03791*
Y03692D02*
X08027Y037D01*
X08023Y03708*
X08031Y03704*
X08039Y03708*
X08035Y037*
X08039Y03692*
X08031Y03696*
X08023Y03692*
Y03594D02*
X08027Y03602D01*
X08023Y0361*
X08031Y03606*
X08039Y0361*
X08035Y03602*
X08039Y03594*
X08031Y03598*
X08023Y03594*
X11647Y03889D02*
X11651Y03897D01*
X11647Y03905*
X11655Y03901*
X11663Y03905*
X11659Y03897*
X11663Y03889*
X11655Y03893*
X11647Y03889*
Y03791D02*
X11651Y03799D01*
X11647Y03807*
X11655Y03803*
X11663Y03807*
X11659Y03799*
X11663Y03791*
X11655Y03795*
X11647Y03791*
Y03692D02*
X11651Y037D01*
X11647Y03708*
X11655Y03704*
X11663Y03708*
X11659Y037*
X11663Y03692*
X11655Y03696*
X11647Y03692*
Y03594D02*
X11651Y03602D01*
X11647Y0361*
X11655Y03606*
X11663Y0361*
X11659Y03602*
X11663Y03594*
X11655Y03598*
X11647Y03594*
X11616Y04992D02*
X1162Y05D01*
X11616Y05008*
X11624Y05004*
X11632Y05008*
X11628Y05*
X11632Y04992*
X11624Y04996*
X11616Y04992*
Y0509D02*
X1162Y05098D01*
X11616Y05106*
X11624Y05102*
X11632Y05106*
X11628Y05098*
X11632Y0509*
X11624Y05094*
X11616Y0509*
Y05188D02*
X1162Y05196D01*
X11616Y05204*
X11624Y052*
X11632Y05204*
X11628Y05196*
X11632Y05188*
X11624Y05192*
X11616Y05188*
Y05287D02*
X1162Y05295D01*
X11616Y05303*
X11624Y05299*
X11632Y05303*
X11628Y05295*
X11632Y05287*
X11624Y05291*
X11616Y05287*
X1142Y04813D02*
X11424D01*
X11428Y04817*
X11432Y04813*
X11436*
Y04817*
X11432Y04821*
X11436Y04825*
Y04829*
X11432*
X11428Y04825*
X11424Y04829*
X1142*
Y04825*
X11424Y04821*
X1142Y04817*
Y04813*
X11188Y03885D02*
X11192D01*
X11196Y03889*
X112Y03885*
X11204*
Y03889*
X112Y03893*
X11204Y03897*
Y03901*
X112*
X11196Y03897*
X11192Y03901*
X11188*
Y03897*
X11192Y03893*
X11188Y03889*
Y03885*
X0794Y04094D02*
X07944D01*
X07948Y04098*
X07952Y04094*
X07956*
Y04098*
X07952Y04102*
X07956Y04106*
Y0411*
X07952*
X07948Y04106*
X07944Y0411*
X0794*
Y04106*
X07944Y04102*
X0794Y04098*
Y04094*
X09824Y04245D02*
X09828D01*
X09832Y04249*
X09836Y04245*
X0984*
Y04249*
X09836Y04253*
X0984Y04257*
Y04261*
X09836*
X09832Y04257*
X09828Y04261*
X09824*
Y04257*
X09828Y04253*
X09824Y04249*
Y04245*
X08748D02*
X08752D01*
X08756Y04249*
X0876Y04245*
X08764*
Y04249*
X0876Y04253*
X08764Y04257*
Y04261*
X0876*
X08756Y04257*
X08752Y04261*
X08748*
Y04257*
X08752Y04253*
X08748Y04249*
Y04245*
X08798Y05279D02*
X08802D01*
X08806Y05283*
X0881Y05279*
X08814*
Y05283*
X0881Y05287*
X08814Y05291*
Y05295*
X0881*
X08806Y05291*
X08802Y05295*
X08798*
Y05291*
X08802Y05287*
X08798Y05283*
Y05279*
X09775D02*
X09779D01*
X09783Y05283*
X09787Y05279*
X09791*
Y05283*
X09787Y05287*
X09791Y05291*
Y05295*
X09787*
X09783Y05291*
X09779Y05295*
X09775*
Y05291*
X09779Y05287*
X09775Y05283*
Y05279*
X09311Y04547D02*
X09319Y04555D01*
X09327Y04547*
X09319Y04539*
X09311Y04547*
X09084Y04794D02*
X09092Y04802D01*
X091Y04794*
X09092Y04786*
X09084Y04794*
X09037Y04793D02*
X09045Y04801D01*
X09053Y04793*
X09045Y04785*
X09037Y04793*
X09713Y04794D02*
X09721Y04802D01*
X09729Y04794*
X09721Y04786*
X09713Y04794*
X11049Y04033D02*
X11057Y04041D01*
X11065Y04033*
X11057Y04025*
X11049Y04033*
X11179Y04083D02*
X11187Y04091D01*
X11195Y04083*
X11187Y04075*
X11179Y04083*
X08374Y03956D02*
X08382Y03964D01*
X0839Y03956*
X08382Y03948*
X08374Y03956*
X09913Y04539D02*
X09921Y04547D01*
X09929Y04539*
X09921Y04531*
X09913Y04539*
X0865Y05285D02*
X08658Y05293D01*
X08666Y05285*
X08658Y05277*
X0865Y05285*
X08675Y04732D02*
X08683Y0474D01*
X08691Y04732*
X08683Y04724*
X08675Y04732*
X08817Y046D02*
X08825Y04608D01*
X08833Y046*
X08825Y04592*
X08817Y046*
X08841Y04647D02*
X08849Y04655D01*
X08857Y04647*
X08849Y04639*
X08841Y04647*
X09458Y0457D02*
X09466Y04578D01*
X09474Y0457*
X09466Y04562*
X09458Y0457*
X09409Y0457D02*
X09417Y04578D01*
X09425Y0457*
X09417Y04562*
X09409Y0457*
X09357Y04565D02*
X09365Y04573D01*
X09373Y04565*
X09365Y04557*
X09357Y04565*
X10693Y04267D02*
X10701Y04275D01*
X10709Y04267*
X10701Y04259*
X10693Y04267*
X09487Y03805D02*
X09495Y03813D01*
X09503Y03805*
X09495Y03797*
X09487Y03805*
X08509Y04921D02*
X08517Y04929D01*
X08525Y04921*
X08517Y04913*
X08509Y04921*
X11637Y04027D02*
X11645Y04035D01*
X11653Y04027*
X11645Y04019*
X11637Y04027*
X09978Y04654D02*
X09986Y04662D01*
X09994Y04654*
X09986Y04646*
X09978Y04654*
X08829Y04998D02*
X08837Y05006D01*
X08845Y04998*
X08837Y0499*
X08829Y04998*
X08831Y04947D02*
X08839Y04955D01*
X08847Y04947*
X08839Y04939*
X08831Y04947*
X08771Y04905D02*
X08779Y04913D01*
X08787Y04905*
X08779Y04897*
X08771Y04905*
X08114Y04818D02*
X08122Y04826D01*
X0813Y04818*
X08122Y0481*
X08114Y04818*
X09507Y0433D02*
X09515Y04338D01*
X09523Y0433*
X09515Y04322*
X09507Y0433*
X09558Y04334D02*
X09566Y04342D01*
X09574Y04334*
X09566Y04326*
X09558Y04334*
X08569Y03688D02*
X08577Y03696D01*
X08585Y03688*
X08577Y0368*
X08569Y03688*
X11192Y04896D02*
X112Y04904D01*
X11208Y04896*
X112Y04888*
X11192Y04896*
X11484Y04578D02*
X11492Y04586D01*
X115Y04578*
X11492Y0457*
X11484Y04578*
X11238Y05208D02*
X11246Y05216D01*
X11254Y05208*
X11246Y052*
X11238Y05208*
X11271Y05236D02*
X11279Y05244D01*
X11287Y05236*
X11279Y05228*
X11271Y05236*
X08917Y04405D02*
X08925Y04413D01*
X08933Y04405*
X08925Y04397*
X08917Y04405*
X08992Y04255D02*
X09Y04263D01*
X09008Y04255*
X09Y04247*
X08992Y04255*
X09303Y03968D02*
X09311Y03976D01*
X09319Y03968*
X09311Y0396*
X09303Y03968*
X0911Y03952D02*
X09118Y0396D01*
X09126Y03952*
X09118Y03944*
X0911Y03952*
X09141Y04098D02*
X09149Y04106D01*
X09157Y04098*
X09149Y0409*
X09141Y04098*
X09712Y04216D02*
X0972Y04224D01*
X09728Y04216*
X0972Y04208*
X09712Y04216*
X10275Y04842D02*
X10283Y0485D01*
X10291Y04842*
X10283Y04834*
X10275Y04842*
X09959Y04603D02*
X09967Y04611D01*
X09975Y04603*
X09967Y04595*
X09959Y04603*
X09922Y04583D02*
X0993Y04591D01*
X09938Y04583*
X0993Y04575*
X09922Y04583*
X10047Y04543D02*
X10055Y04551D01*
X10063Y04543*
X10055Y04535*
X10047Y04543*
X10999Y05015D02*
X11007Y05023D01*
X11015Y05015*
X11007Y05007*
X10999Y05015*
X10153Y04307D02*
X10161Y04315D01*
X10169Y04307*
X10161Y04299*
X10153Y04307*
X10165Y0422D02*
X10173Y04228D01*
X10181Y0422*
X10173Y04212*
X10165Y0422*
X09094Y03811D02*
X09102Y03819D01*
X0911Y03811*
X09102Y03803*
X09094Y03811*
X08842Y04854D02*
X0885Y04862D01*
X08858Y04854*
X0885Y04846*
X08842Y04854*
X0884Y04897D02*
X08848Y04905D01*
X08856Y04897*
X08848Y04889*
X0884Y04897*
X08325Y04884D02*
X08333Y04892D01*
X08341Y04884*
X08333Y04876*
X08325Y04884*
X08409Y04413D02*
X08417Y04421D01*
X08425Y04413*
X08417Y04405*
X08409Y04413*
Y04501D02*
X08417Y04509D01*
X08425Y04501*
X08417Y04493*
X08409Y04501*
X1111Y04381D02*
X11118Y04389D01*
X11126Y04381*
X11118Y04373*
X1111Y04381*
X11356Y04168D02*
X11364Y04176D01*
X11372Y04168*
X11364Y0416*
X11356Y04168*
X09574Y04196D02*
X09582Y04204D01*
X0959Y04196*
X09582Y04188*
X09574Y04196*
X10287Y04952D02*
X10295Y0496D01*
X10303Y04952*
X10295Y04944*
X10287Y04952*
X09968Y04901D02*
X09976Y04909D01*
X09984Y04901*
X09976Y04893*
X09968Y04901*
X09716Y04996D02*
X09724Y05004D01*
X09732Y04996*
X09724Y04988*
X09716Y04996*
X09968Y04948D02*
X09976Y04956D01*
X09984Y04948*
X09976Y0494*
X09968Y04948*
Y05D02*
X09976Y05008D01*
X09984Y05*
X09976Y04992*
X09968Y05*
X10362Y03692D02*
X1037Y037D01*
X10378Y03692*
X1037Y03684*
X10362Y03692*
X11035Y04763D02*
X11043Y04771D01*
X11051Y04763*
X11043Y04755*
X11035Y04763*
X10684D02*
X10692Y04771D01*
X107Y04763*
X10692Y04755*
X10684Y04763*
X09716Y04944D02*
X09724Y04952D01*
X09732Y04944*
X09724Y04936*
X09716Y04944*
X09755Y05098D02*
X09763Y05106D01*
X09771Y05098*
X09763Y0509*
X09755Y05098*
X09716Y05048D02*
X09724Y05056D01*
X09732Y05048*
X09724Y0504*
X09716Y05048*
Y04598D02*
X09724Y04606D01*
X09732Y04598*
X09724Y0459*
X09716Y04598*
X09657Y04385D02*
X09665Y04393D01*
X09673Y04385*
X09665Y04377*
X09657Y04385*
X09771Y04535D02*
X09779Y04543D01*
X09787Y04535*
X09779Y04527*
X09771Y04535*
X09748Y04104D02*
X09756Y04112D01*
X09764Y04104*
X09756Y04096*
X09748Y04104*
X11121Y04968D02*
X11129Y04976D01*
X11137Y04968*
X11129Y0496*
X11121Y04968*
X09535Y03511D02*
X09543Y03519D01*
X09551Y03511*
X09543Y03503*
X09535Y03511*
X0884Y04744D02*
X08848Y04752D01*
X08856Y04744*
X08848Y04736*
X0884Y04744*
Y04696D02*
X08848Y04704D01*
X08856Y04696*
X08848Y04688*
X0884Y04696*
Y04803D02*
X08848Y04811D01*
X08856Y04803*
X08848Y04795*
X0884Y04803*
X10198Y03838D02*
X10206Y03846D01*
X10214Y03838*
X10206Y0383*
X10198Y03838*
X08682Y04557D02*
X0869Y04565D01*
X08698Y04557*
X0869Y04549*
X08682Y04557*
X08584D02*
X08592Y04565D01*
X086Y04557*
X08592Y04549*
X08584Y04557*
X09549Y04685D02*
X09557Y04693D01*
X09565Y04685*
X09557Y04677*
X09549Y04685*
X09716Y04724D02*
X09724Y04732D01*
X09732Y04724*
X09724Y04716*
X09716Y04724*
X09745Y04685D02*
X09753Y04693D01*
X09761Y04685*
X09753Y04677*
X09745Y04685*
X09716Y04649D02*
X09724Y04657D01*
X09732Y04649*
X09724Y04641*
X09716Y04649*
X08495Y05196D02*
X08503Y05204D01*
X08511Y05196*
X08503Y05188*
X08495Y05196*
X08911Y03614D02*
X08919Y03622D01*
X08927Y03614*
X08919Y03606*
X08911Y03614*
X08407Y04005D02*
X08415Y04013D01*
X08423Y04005*
X08415Y03997*
X08407Y04005*
X0897Y03848D02*
X08978Y03856D01*
X08986Y03848*
X08978Y0384*
X0897Y03848*
X09007Y03917D02*
X09015Y03925D01*
X09023Y03917*
X09015Y03909*
X09007Y03917*
X07993Y04458D02*
X08001Y04466D01*
X08009Y04458*
X08001Y0445*
X07993Y04458*
X08692Y05393D02*
X087Y05401D01*
X08708Y05393*
X087Y05385*
X08692Y05393*
X1072Y05D02*
X10728Y05008D01*
X10736Y05*
X10728Y04992*
X1072Y05*
X09716Y04547D02*
X09724Y04555D01*
X09732Y04547*
X09724Y04539*
X09716Y04547*
X09499Y04714D02*
X09507Y04722D01*
X09515Y04714*
X09507Y04706*
X09499Y04714*
X11084Y05206D02*
X11092Y05214D01*
X111Y05206*
X11092Y05198*
X11084Y05206*
X09716Y04846D02*
X09724Y04854D01*
X09732Y04846*
X09724Y04838*
X09716Y04846*
Y04897D02*
X09724Y04905D01*
X09732Y04897*
X09724Y04889*
X09716Y04897*
G54D120*
X10706Y05347D02*
D01*
X10706Y05348*
X10706Y05348*
X10706Y05349*
X10706Y05349*
X10706Y0535*
X10706Y0535*
X10705Y05351*
X10705Y05351*
X10705Y05352*
X10704Y05352*
X10704Y05353*
X10704Y05353*
X10703Y05353*
X10703Y05354*
X10702Y05354*
X10702Y05354*
X10701Y05355*
X10701Y05355*
X107Y05355*
X107Y05355*
X10699Y05355*
X10699Y05355*
X10698*
X10697Y05355*
X10697Y05355*
X10696Y05355*
X10696Y05355*
X10695Y05355*
X10695Y05354*
X10694Y05354*
X10694Y05354*
X10693Y05353*
X10693Y05353*
X10693Y05353*
X10692Y05352*
X10692Y05352*
X10692Y05351*
X10691Y05351*
X10691Y0535*
X10691Y0535*
X10691Y05349*
X1069Y05349*
X1069Y05348*
X1069Y05348*
X1069Y05347*
X1069Y05347*
X1069Y05346*
X1069Y05345*
X10691Y05345*
X10691Y05344*
X10691Y05344*
X10691Y05343*
X10692Y05343*
X10692Y05342*
X10692Y05342*
X10693Y05342*
X10693Y05341*
X10693Y05341*
X10694Y0534*
X10694Y0534*
X10695Y0534*
X10695Y0534*
X10696Y05339*
X10696Y05339*
X10697Y05339*
X10697Y05339*
X10698Y05339*
X10699*
X10699Y05339*
X107Y05339*
X107Y05339*
X10701Y05339*
X10701Y0534*
X10702Y0534*
X10702Y0534*
X10703Y0534*
X10703Y05341*
X10704Y05341*
X10704Y05342*
X10704Y05342*
X10705Y05342*
X10705Y05343*
X10705Y05343*
X10706Y05344*
X10706Y05344*
X10706Y05345*
X10706Y05345*
X10706Y05346*
X10706Y05347*
X10706Y05347*
X10943D02*
D01*
X10943Y05348*
X10942Y05348*
X10942Y05349*
X10942Y05349*
X10942Y0535*
X10942Y0535*
X10942Y05351*
X10941Y05351*
X10941Y05352*
X10941Y05352*
X1094Y05353*
X1094Y05353*
X10939Y05353*
X10939Y05354*
X10939Y05354*
X10938Y05354*
X10938Y05355*
X10937Y05355*
X10936Y05355*
X10936Y05355*
X10935Y05355*
X10935Y05355*
X10934*
X10934Y05355*
X10933Y05355*
X10933Y05355*
X10932Y05355*
X10932Y05355*
X10931Y05354*
X10931Y05354*
X1093Y05354*
X1093Y05353*
X10929Y05353*
X10929Y05353*
X10928Y05352*
X10928Y05352*
X10928Y05351*
X10927Y05351*
X10927Y0535*
X10927Y0535*
X10927Y05349*
X10927Y05349*
X10927Y05348*
X10927Y05348*
X10927Y05347*
X10927Y05347*
X10927Y05346*
X10927Y05345*
X10927Y05345*
X10927Y05344*
X10927Y05344*
X10927Y05343*
X10928Y05343*
X10928Y05342*
X10928Y05342*
X10929Y05342*
X10929Y05341*
X1093Y05341*
X1093Y0534*
X10931Y0534*
X10931Y0534*
X10932Y0534*
X10932Y05339*
X10933Y05339*
X10933Y05339*
X10934Y05339*
X10934Y05339*
X10935*
X10935Y05339*
X10936Y05339*
X10936Y05339*
X10937Y05339*
X10938Y0534*
X10938Y0534*
X10939Y0534*
X10939Y0534*
X10939Y05341*
X1094Y05341*
X1094Y05342*
X10941Y05342*
X10941Y05342*
X10941Y05343*
X10942Y05343*
X10942Y05344*
X10942Y05344*
X10942Y05345*
X10942Y05345*
X10942Y05346*
X10943Y05347*
X10943Y05347*
X10864D02*
D01*
X10864Y05348*
X10864Y05348*
X10864Y05349*
X10863Y05349*
X10863Y0535*
X10863Y0535*
X10863Y05351*
X10863Y05351*
X10862Y05352*
X10862Y05352*
X10862Y05353*
X10861Y05353*
X10861Y05353*
X1086Y05354*
X1086Y05354*
X10859Y05354*
X10859Y05355*
X10858Y05355*
X10858Y05355*
X10857Y05355*
X10857Y05355*
X10856Y05355*
X10856*
X10855Y05355*
X10854Y05355*
X10854Y05355*
X10853Y05355*
X10853Y05355*
X10852Y05354*
X10852Y05354*
X10851Y05354*
X10851Y05353*
X1085Y05353*
X1085Y05353*
X1085Y05352*
X10849Y05352*
X10849Y05351*
X10849Y05351*
X10848Y0535*
X10848Y0535*
X10848Y05349*
X10848Y05349*
X10848Y05348*
X10848Y05348*
X10848Y05347*
X10848Y05347*
X10848Y05346*
X10848Y05345*
X10848Y05345*
X10848Y05344*
X10848Y05344*
X10849Y05343*
X10849Y05343*
X10849Y05342*
X1085Y05342*
X1085Y05342*
X1085Y05341*
X10851Y05341*
X10851Y0534*
X10852Y0534*
X10852Y0534*
X10853Y0534*
X10853Y05339*
X10854Y05339*
X10854Y05339*
X10855Y05339*
X10856Y05339*
X10856*
X10857Y05339*
X10857Y05339*
X10858Y05339*
X10858Y05339*
X10859Y0534*
X10859Y0534*
X1086Y0534*
X1086Y0534*
X10861Y05341*
X10861Y05341*
X10862Y05342*
X10862Y05342*
X10862Y05342*
X10863Y05343*
X10863Y05343*
X10863Y05344*
X10863Y05344*
X10863Y05345*
X10864Y05345*
X10864Y05346*
X10864Y05347*
X10864Y05347*
X10785D02*
D01*
X10785Y05348*
X10785Y05348*
X10785Y05349*
X10785Y05349*
X10785Y0535*
X10784Y0535*
X10784Y05351*
X10784Y05351*
X10784Y05352*
X10783Y05352*
X10783Y05353*
X10782Y05353*
X10782Y05353*
X10782Y05354*
X10781Y05354*
X10781Y05354*
X1078Y05355*
X1078Y05355*
X10779Y05355*
X10778Y05355*
X10778Y05355*
X10777Y05355*
X10777*
X10776Y05355*
X10776Y05355*
X10775Y05355*
X10775Y05355*
X10774Y05355*
X10774Y05354*
X10773Y05354*
X10773Y05354*
X10772Y05353*
X10772Y05353*
X10771Y05353*
X10771Y05352*
X10771Y05352*
X1077Y05351*
X1077Y05351*
X1077Y0535*
X1077Y0535*
X10769Y05349*
X10769Y05349*
X10769Y05348*
X10769Y05348*
X10769Y05347*
X10769Y05347*
X10769Y05346*
X10769Y05345*
X10769Y05345*
X1077Y05344*
X1077Y05344*
X1077Y05343*
X1077Y05343*
X10771Y05342*
X10771Y05342*
X10771Y05342*
X10772Y05341*
X10772Y05341*
X10773Y0534*
X10773Y0534*
X10774Y0534*
X10774Y0534*
X10775Y05339*
X10775Y05339*
X10776Y05339*
X10776Y05339*
X10777Y05339*
X10777*
X10778Y05339*
X10778Y05339*
X10779Y05339*
X1078Y05339*
X1078Y0534*
X10781Y0534*
X10781Y0534*
X10782Y0534*
X10782Y05341*
X10782Y05341*
X10783Y05342*
X10783Y05342*
X10784Y05342*
X10784Y05343*
X10784Y05343*
X10784Y05344*
X10785Y05344*
X10785Y05345*
X10785Y05345*
X10785Y05346*
X10785Y05347*
X10785Y05347*
X10706Y05098D02*
D01*
X10706Y05098*
X10706Y05099*
X10706Y051*
X10706Y051*
X10706Y05101*
X10706Y05101*
X10705Y05102*
X10705Y05102*
X10705Y05103*
X10704Y05103*
X10704Y05103*
X10704Y05104*
X10703Y05104*
X10703Y05105*
X10702Y05105*
X10702Y05105*
X10701Y05105*
X10701Y05106*
X107Y05106*
X107Y05106*
X10699Y05106*
X10699Y05106*
X10698*
X10697Y05106*
X10697Y05106*
X10696Y05106*
X10696Y05106*
X10695Y05105*
X10695Y05105*
X10694Y05105*
X10694Y05105*
X10693Y05104*
X10693Y05104*
X10693Y05103*
X10692Y05103*
X10692Y05103*
X10692Y05102*
X10691Y05102*
X10691Y05101*
X10691Y05101*
X10691Y051*
X1069Y051*
X1069Y05099*
X1069Y05098*
X1069Y05098*
X1069Y05097*
X1069Y05097*
X1069Y05096*
X10691Y05096*
X10691Y05095*
X10691Y05095*
X10691Y05094*
X10692Y05094*
X10692Y05093*
X10692Y05093*
X10693Y05092*
X10693Y05092*
X10693Y05092*
X10694Y05091*
X10694Y05091*
X10695Y05091*
X10695Y05091*
X10696Y0509*
X10696Y0509*
X10697Y0509*
X10697Y0509*
X10698Y0509*
X10699*
X10699Y0509*
X107Y0509*
X107Y0509*
X10701Y0509*
X10701Y05091*
X10702Y05091*
X10702Y05091*
X10703Y05091*
X10703Y05092*
X10704Y05092*
X10704Y05092*
X10704Y05093*
X10705Y05093*
X10705Y05094*
X10705Y05094*
X10706Y05095*
X10706Y05095*
X10706Y05096*
X10706Y05096*
X10706Y05097*
X10706Y05097*
X10706Y05098*
X10943D02*
D01*
X10943Y05098*
X10942Y05099*
X10942Y051*
X10942Y051*
X10942Y05101*
X10942Y05101*
X10942Y05102*
X10941Y05102*
X10941Y05103*
X10941Y05103*
X1094Y05103*
X1094Y05104*
X10939Y05104*
X10939Y05105*
X10939Y05105*
X10938Y05105*
X10938Y05105*
X10937Y05106*
X10936Y05106*
X10936Y05106*
X10935Y05106*
X10935Y05106*
X10934*
X10934Y05106*
X10933Y05106*
X10933Y05106*
X10932Y05106*
X10932Y05105*
X10931Y05105*
X10931Y05105*
X1093Y05105*
X1093Y05104*
X10929Y05104*
X10929Y05103*
X10928Y05103*
X10928Y05103*
X10928Y05102*
X10927Y05102*
X10927Y05101*
X10927Y05101*
X10927Y051*
X10927Y051*
X10927Y05099*
X10927Y05098*
X10927Y05098*
X10927Y05097*
X10927Y05097*
X10927Y05096*
X10927Y05096*
X10927Y05095*
X10927Y05095*
X10927Y05094*
X10928Y05094*
X10928Y05093*
X10928Y05093*
X10929Y05092*
X10929Y05092*
X1093Y05092*
X1093Y05091*
X10931Y05091*
X10931Y05091*
X10932Y05091*
X10932Y0509*
X10933Y0509*
X10933Y0509*
X10934Y0509*
X10934Y0509*
X10935*
X10935Y0509*
X10936Y0509*
X10936Y0509*
X10937Y0509*
X10938Y05091*
X10938Y05091*
X10939Y05091*
X10939Y05091*
X10939Y05092*
X1094Y05092*
X1094Y05092*
X10941Y05093*
X10941Y05093*
X10941Y05094*
X10942Y05094*
X10942Y05095*
X10942Y05095*
X10942Y05096*
X10942Y05096*
X10942Y05097*
X10943Y05097*
X10943Y05098*
X10864D02*
D01*
X10864Y05098*
X10864Y05099*
X10864Y051*
X10863Y051*
X10863Y05101*
X10863Y05101*
X10863Y05102*
X10863Y05102*
X10862Y05103*
X10862Y05103*
X10862Y05103*
X10861Y05104*
X10861Y05104*
X1086Y05105*
X1086Y05105*
X10859Y05105*
X10859Y05105*
X10858Y05106*
X10858Y05106*
X10857Y05106*
X10857Y05106*
X10856Y05106*
X10856*
X10855Y05106*
X10854Y05106*
X10854Y05106*
X10853Y05106*
X10853Y05105*
X10852Y05105*
X10852Y05105*
X10851Y05105*
X10851Y05104*
X1085Y05104*
X1085Y05103*
X1085Y05103*
X10849Y05103*
X10849Y05102*
X10849Y05102*
X10848Y05101*
X10848Y05101*
X10848Y051*
X10848Y051*
X10848Y05099*
X10848Y05098*
X10848Y05098*
X10848Y05097*
X10848Y05097*
X10848Y05096*
X10848Y05096*
X10848Y05095*
X10848Y05095*
X10849Y05094*
X10849Y05094*
X10849Y05093*
X1085Y05093*
X1085Y05092*
X1085Y05092*
X10851Y05092*
X10851Y05091*
X10852Y05091*
X10852Y05091*
X10853Y05091*
X10853Y0509*
X10854Y0509*
X10854Y0509*
X10855Y0509*
X10856Y0509*
X10856*
X10857Y0509*
X10857Y0509*
X10858Y0509*
X10858Y0509*
X10859Y05091*
X10859Y05091*
X1086Y05091*
X1086Y05091*
X10861Y05092*
X10861Y05092*
X10862Y05092*
X10862Y05093*
X10862Y05093*
X10863Y05094*
X10863Y05094*
X10863Y05095*
X10863Y05095*
X10863Y05096*
X10864Y05096*
X10864Y05097*
X10864Y05097*
X10864Y05098*
X10785D02*
D01*
X10785Y05098*
X10785Y05099*
X10785Y051*
X10785Y051*
X10785Y05101*
X10784Y05101*
X10784Y05102*
X10784Y05102*
X10784Y05103*
X10783Y05103*
X10783Y05103*
X10782Y05104*
X10782Y05104*
X10782Y05105*
X10781Y05105*
X10781Y05105*
X1078Y05105*
X1078Y05106*
X10779Y05106*
X10778Y05106*
X10778Y05106*
X10777Y05106*
X10777*
X10776Y05106*
X10776Y05106*
X10775Y05106*
X10775Y05106*
X10774Y05105*
X10774Y05105*
X10773Y05105*
X10773Y05105*
X10772Y05104*
X10772Y05104*
X10771Y05103*
X10771Y05103*
X10771Y05103*
X1077Y05102*
X1077Y05102*
X1077Y05101*
X1077Y05101*
X10769Y051*
X10769Y051*
X10769Y05099*
X10769Y05098*
X10769Y05098*
X10769Y05097*
X10769Y05097*
X10769Y05096*
X10769Y05096*
X1077Y05095*
X1077Y05095*
X1077Y05094*
X1077Y05094*
X10771Y05093*
X10771Y05093*
X10771Y05092*
X10772Y05092*
X10772Y05092*
X10773Y05091*
X10773Y05091*
X10774Y05091*
X10774Y05091*
X10775Y0509*
X10775Y0509*
X10776Y0509*
X10776Y0509*
X10777Y0509*
X10777*
X10778Y0509*
X10778Y0509*
X10779Y0509*
X1078Y0509*
X1078Y05091*
X10781Y05091*
X10781Y05091*
X10782Y05091*
X10782Y05092*
X10782Y05092*
X10783Y05092*
X10783Y05093*
X10784Y05093*
X10784Y05094*
X10784Y05094*
X10784Y05095*
X10785Y05095*
X10785Y05096*
X10785Y05096*
X10785Y05097*
X10785Y05097*
X10785Y05098*
X10706Y04853D02*
D01*
X10706Y04853*
X10706Y04854*
X10706Y04855*
X10706Y04855*
X10706Y04856*
X10706Y04856*
X10705Y04857*
X10705Y04857*
X10705Y04858*
X10704Y04858*
X10704Y04858*
X10704Y04859*
X10703Y04859*
X10703Y04859*
X10702Y0486*
X10702Y0486*
X10701Y0486*
X10701Y0486*
X107Y04861*
X107Y04861*
X10699Y04861*
X10699Y04861*
X10698*
X10697Y04861*
X10697Y04861*
X10696Y04861*
X10696Y0486*
X10695Y0486*
X10695Y0486*
X10694Y0486*
X10694Y04859*
X10693Y04859*
X10693Y04859*
X10693Y04858*
X10692Y04858*
X10692Y04858*
X10692Y04857*
X10691Y04857*
X10691Y04856*
X10691Y04856*
X10691Y04855*
X1069Y04855*
X1069Y04854*
X1069Y04853*
X1069Y04853*
X1069Y04852*
X1069Y04852*
X1069Y04851*
X10691Y04851*
X10691Y0485*
X10691Y0485*
X10691Y04849*
X10692Y04849*
X10692Y04848*
X10692Y04848*
X10693Y04847*
X10693Y04847*
X10693Y04847*
X10694Y04846*
X10694Y04846*
X10695Y04846*
X10695Y04845*
X10696Y04845*
X10696Y04845*
X10697Y04845*
X10697Y04845*
X10698Y04845*
X10699*
X10699Y04845*
X107Y04845*
X107Y04845*
X10701Y04845*
X10701Y04845*
X10702Y04846*
X10702Y04846*
X10703Y04846*
X10703Y04847*
X10704Y04847*
X10704Y04847*
X10704Y04848*
X10705Y04848*
X10705Y04849*
X10705Y04849*
X10706Y0485*
X10706Y0485*
X10706Y04851*
X10706Y04851*
X10706Y04852*
X10706Y04852*
X10706Y04853*
X10943D02*
D01*
X10943Y04853*
X10942Y04854*
X10942Y04855*
X10942Y04855*
X10942Y04856*
X10942Y04856*
X10942Y04857*
X10941Y04857*
X10941Y04858*
X10941Y04858*
X1094Y04858*
X1094Y04859*
X10939Y04859*
X10939Y04859*
X10939Y0486*
X10938Y0486*
X10938Y0486*
X10937Y0486*
X10936Y04861*
X10936Y04861*
X10935Y04861*
X10935Y04861*
X10934*
X10934Y04861*
X10933Y04861*
X10933Y04861*
X10932Y0486*
X10932Y0486*
X10931Y0486*
X10931Y0486*
X1093Y04859*
X1093Y04859*
X10929Y04859*
X10929Y04858*
X10928Y04858*
X10928Y04858*
X10928Y04857*
X10927Y04857*
X10927Y04856*
X10927Y04856*
X10927Y04855*
X10927Y04855*
X10927Y04854*
X10927Y04853*
X10927Y04853*
X10927Y04852*
X10927Y04852*
X10927Y04851*
X10927Y04851*
X10927Y0485*
X10927Y0485*
X10927Y04849*
X10928Y04849*
X10928Y04848*
X10928Y04848*
X10929Y04847*
X10929Y04847*
X1093Y04847*
X1093Y04846*
X10931Y04846*
X10931Y04846*
X10932Y04845*
X10932Y04845*
X10933Y04845*
X10933Y04845*
X10934Y04845*
X10934Y04845*
X10935*
X10935Y04845*
X10936Y04845*
X10936Y04845*
X10937Y04845*
X10938Y04845*
X10938Y04846*
X10939Y04846*
X10939Y04846*
X10939Y04847*
X1094Y04847*
X1094Y04847*
X10941Y04848*
X10941Y04848*
X10941Y04849*
X10942Y04849*
X10942Y0485*
X10942Y0485*
X10942Y04851*
X10942Y04851*
X10942Y04852*
X10943Y04852*
X10943Y04853*
X10864D02*
D01*
X10864Y04853*
X10864Y04854*
X10864Y04855*
X10863Y04855*
X10863Y04856*
X10863Y04856*
X10863Y04857*
X10863Y04857*
X10862Y04858*
X10862Y04858*
X10862Y04858*
X10861Y04859*
X10861Y04859*
X1086Y04859*
X1086Y0486*
X10859Y0486*
X10859Y0486*
X10858Y0486*
X10858Y04861*
X10857Y04861*
X10857Y04861*
X10856Y04861*
X10856*
X10855Y04861*
X10854Y04861*
X10854Y04861*
X10853Y0486*
X10853Y0486*
X10852Y0486*
X10852Y0486*
X10851Y04859*
X10851Y04859*
X1085Y04859*
X1085Y04858*
X1085Y04858*
X10849Y04858*
X10849Y04857*
X10849Y04857*
X10848Y04856*
X10848Y04856*
X10848Y04855*
X10848Y04855*
X10848Y04854*
X10848Y04853*
X10848Y04853*
X10848Y04852*
X10848Y04852*
X10848Y04851*
X10848Y04851*
X10848Y0485*
X10848Y0485*
X10849Y04849*
X10849Y04849*
X10849Y04848*
X1085Y04848*
X1085Y04847*
X1085Y04847*
X10851Y04847*
X10851Y04846*
X10852Y04846*
X10852Y04846*
X10853Y04845*
X10853Y04845*
X10854Y04845*
X10854Y04845*
X10855Y04845*
X10856Y04845*
X10856*
X10857Y04845*
X10857Y04845*
X10858Y04845*
X10858Y04845*
X10859Y04845*
X10859Y04846*
X1086Y04846*
X1086Y04846*
X10861Y04847*
X10861Y04847*
X10862Y04847*
X10862Y04848*
X10862Y04848*
X10863Y04849*
X10863Y04849*
X10863Y0485*
X10863Y0485*
X10863Y04851*
X10864Y04851*
X10864Y04852*
X10864Y04852*
X10864Y04853*
X10785D02*
D01*
X10785Y04853*
X10785Y04854*
X10785Y04855*
X10785Y04855*
X10785Y04856*
X10784Y04856*
X10784Y04857*
X10784Y04857*
X10784Y04858*
X10783Y04858*
X10783Y04858*
X10782Y04859*
X10782Y04859*
X10782Y04859*
X10781Y0486*
X10781Y0486*
X1078Y0486*
X1078Y0486*
X10779Y04861*
X10778Y04861*
X10778Y04861*
X10777Y04861*
X10777*
X10776Y04861*
X10776Y04861*
X10775Y04861*
X10775Y0486*
X10774Y0486*
X10774Y0486*
X10773Y0486*
X10773Y04859*
X10772Y04859*
X10772Y04859*
X10771Y04858*
X10771Y04858*
X10771Y04858*
X1077Y04857*
X1077Y04857*
X1077Y04856*
X1077Y04856*
X10769Y04855*
X10769Y04855*
X10769Y04854*
X10769Y04853*
X10769Y04853*
X10769Y04852*
X10769Y04852*
X10769Y04851*
X10769Y04851*
X1077Y0485*
X1077Y0485*
X1077Y04849*
X1077Y04849*
X10771Y04848*
X10771Y04848*
X10771Y04847*
X10772Y04847*
X10772Y04847*
X10773Y04846*
X10773Y04846*
X10774Y04846*
X10774Y04845*
X10775Y04845*
X10775Y04845*
X10776Y04845*
X10776Y04845*
X10777Y04845*
X10777*
X10778Y04845*
X10778Y04845*
X10779Y04845*
X1078Y04845*
X1078Y04845*
X10781Y04846*
X10781Y04846*
X10782Y04846*
X10782Y04847*
X10782Y04847*
X10783Y04847*
X10783Y04848*
X10784Y04848*
X10784Y04849*
X10784Y04849*
X10784Y0485*
X10785Y0485*
X10785Y04851*
X10785Y04851*
X10785Y04852*
X10785Y04852*
X10785Y04853*
X11659Y04119D02*
D01*
X11659Y04119*
X11659Y0412*
X11659Y0412*
X11658Y04121*
X11658Y04121*
X11658Y04122*
X11658Y04122*
X11657Y04123*
X11657Y04123*
X11657Y04124*
X11656Y04124*
X11656Y04125*
X11656Y04125*
X11655Y04125*
X11655Y04126*
X11654Y04126*
X11654Y04126*
X11653Y04126*
X11653Y04126*
X11652Y04126*
X11652Y04127*
X11651Y04127*
X1165*
X1165Y04127*
X11649Y04126*
X11649Y04126*
X11648Y04126*
X11648Y04126*
X11647Y04126*
X11647Y04126*
X11646Y04125*
X11646Y04125*
X11645Y04125*
X11645Y04124*
X11645Y04124*
X11644Y04123*
X11644Y04123*
X11644Y04122*
X11643Y04122*
X11643Y04121*
X11643Y04121*
X11643Y0412*
X11643Y0412*
X11643Y04119*
X11643Y04119*
X11643Y04118*
X11643Y04117*
X11643Y04117*
X11643Y04116*
X11643Y04116*
X11643Y04115*
X11644Y04115*
X11644Y04114*
X11644Y04114*
X11645Y04113*
X11645Y04113*
X11645Y04113*
X11646Y04112*
X11646Y04112*
X11647Y04112*
X11647Y04111*
X11648Y04111*
X11648Y04111*
X11649Y04111*
X11649Y04111*
X1165Y04111*
X1165Y04111*
X11651*
X11652Y04111*
X11652Y04111*
X11653Y04111*
X11653Y04111*
X11654Y04111*
X11654Y04111*
X11655Y04112*
X11655Y04112*
X11656Y04112*
X11656Y04113*
X11656Y04113*
X11657Y04113*
X11657Y04114*
X11657Y04114*
X11658Y04115*
X11658Y04115*
X11658Y04116*
X11658Y04116*
X11659Y04117*
X11659Y04117*
X11659Y04118*
X11659Y04119*
X11559D02*
D01*
X11559Y04119*
X11559Y0412*
X11559Y0412*
X11558Y04121*
X11558Y04121*
X11558Y04122*
X11558Y04122*
X11557Y04123*
X11557Y04123*
X11557Y04124*
X11556Y04124*
X11556Y04125*
X11556Y04125*
X11555Y04125*
X11555Y04126*
X11554Y04126*
X11554Y04126*
X11553Y04126*
X11553Y04126*
X11552Y04126*
X11552Y04127*
X11551Y04127*
X1155*
X1155Y04127*
X11549Y04126*
X11549Y04126*
X11548Y04126*
X11548Y04126*
X11547Y04126*
X11547Y04126*
X11546Y04125*
X11546Y04125*
X11545Y04125*
X11545Y04124*
X11545Y04124*
X11544Y04123*
X11544Y04123*
X11544Y04122*
X11543Y04122*
X11543Y04121*
X11543Y04121*
X11543Y0412*
X11543Y0412*
X11543Y04119*
X11543Y04119*
X11543Y04118*
X11543Y04117*
X11543Y04117*
X11543Y04116*
X11543Y04116*
X11543Y04115*
X11544Y04115*
X11544Y04114*
X11544Y04114*
X11545Y04113*
X11545Y04113*
X11545Y04113*
X11546Y04112*
X11546Y04112*
X11547Y04112*
X11547Y04111*
X11548Y04111*
X11548Y04111*
X11549Y04111*
X11549Y04111*
X1155Y04111*
X1155Y04111*
X11551*
X11552Y04111*
X11552Y04111*
X11553Y04111*
X11553Y04111*
X11554Y04111*
X11554Y04111*
X11555Y04112*
X11555Y04112*
X11556Y04112*
X11556Y04113*
X11556Y04113*
X11557Y04113*
X11557Y04114*
X11557Y04114*
X11558Y04115*
X11558Y04115*
X11558Y04116*
X11558Y04116*
X11559Y04117*
X11559Y04117*
X11559Y04118*
X11559Y04119*
X11459D02*
D01*
X11459Y04119*
X11459Y0412*
X11459Y0412*
X11458Y04121*
X11458Y04121*
X11458Y04122*
X11458Y04122*
X11457Y04123*
X11457Y04123*
X11457Y04124*
X11456Y04124*
X11456Y04125*
X11456Y04125*
X11455Y04125*
X11455Y04126*
X11454Y04126*
X11454Y04126*
X11453Y04126*
X11453Y04126*
X11452Y04126*
X11452Y04127*
X11451Y04127*
X1145*
X1145Y04127*
X11449Y04126*
X11449Y04126*
X11448Y04126*
X11448Y04126*
X11447Y04126*
X11447Y04126*
X11446Y04125*
X11446Y04125*
X11445Y04125*
X11445Y04124*
X11445Y04124*
X11444Y04123*
X11444Y04123*
X11444Y04122*
X11443Y04122*
X11443Y04121*
X11443Y04121*
X11443Y0412*
X11443Y0412*
X11443Y04119*
X11443Y04119*
X11443Y04118*
X11443Y04117*
X11443Y04117*
X11443Y04116*
X11443Y04116*
X11443Y04115*
X11444Y04115*
X11444Y04114*
X11444Y04114*
X11445Y04113*
X11445Y04113*
X11445Y04113*
X11446Y04112*
X11446Y04112*
X11447Y04112*
X11447Y04111*
X11448Y04111*
X11448Y04111*
X11449Y04111*
X11449Y04111*
X1145Y04111*
X1145Y04111*
X11451*
X11452Y04111*
X11452Y04111*
X11453Y04111*
X11453Y04111*
X11454Y04111*
X11454Y04111*
X11455Y04112*
X11455Y04112*
X11456Y04112*
X11456Y04113*
X11456Y04113*
X11457Y04113*
X11457Y04114*
X11457Y04114*
X11458Y04115*
X11458Y04115*
X11458Y04116*
X11458Y04116*
X11459Y04117*
X11459Y04117*
X11459Y04118*
X11459Y04119*
X11197Y05244D02*
D01*
X11197Y05244*
X11197Y05245*
X11197Y05245*
X11197Y05246*
X11197Y05246*
X11197Y05247*
X11197Y05247*
X11196Y05248*
X11196Y05248*
X11196Y05249*
X11195Y05249*
X11195Y0525*
X11194Y0525*
X11194Y0525*
X11193Y05251*
X11193Y05251*
X11192Y05251*
X11192Y05251*
X11191Y05251*
X11191Y05251*
X1119Y05252*
X1119Y05252*
X11189*
X11189Y05252*
X11188Y05251*
X11188Y05251*
X11187Y05251*
X11186Y05251*
X11186Y05251*
X11185Y05251*
X11185Y0525*
X11185Y0525*
X11184Y0525*
X11184Y05249*
X11183Y05249*
X11183Y05248*
X11183Y05248*
X11182Y05247*
X11182Y05247*
X11182Y05246*
X11182Y05246*
X11182Y05245*
X11182Y05245*
X11181Y05244*
X11181Y05244*
X11181Y05243*
X11182Y05242*
X11182Y05242*
X11182Y05241*
X11182Y05241*
X11182Y0524*
X11182Y0524*
X11183Y05239*
X11183Y05239*
X11183Y05238*
X11184Y05238*
X11184Y05238*
X11185Y05237*
X11185Y05237*
X11185Y05237*
X11186Y05236*
X11186Y05236*
X11187Y05236*
X11188Y05236*
X11188Y05236*
X11189Y05236*
X11189Y05236*
X1119*
X1119Y05236*
X11191Y05236*
X11191Y05236*
X11192Y05236*
X11192Y05236*
X11193Y05236*
X11193Y05237*
X11194Y05237*
X11194Y05237*
X11195Y05238*
X11195Y05238*
X11196Y05238*
X11196Y05239*
X11196Y05239*
X11197Y0524*
X11197Y0524*
X11197Y05241*
X11197Y05241*
X11197Y05242*
X11197Y05242*
X11197Y05243*
X11197Y05244*
Y05322D02*
D01*
X11197Y05323*
X11197Y05323*
X11197Y05324*
X11197Y05325*
X11197Y05325*
X11197Y05326*
X11197Y05326*
X11196Y05327*
X11196Y05327*
X11196Y05327*
X11195Y05328*
X11195Y05328*
X11194Y05329*
X11194Y05329*
X11193Y05329*
X11193Y0533*
X11192Y0533*
X11192Y0533*
X11191Y0533*
X11191Y0533*
X1119Y0533*
X1119Y0533*
X11189*
X11189Y0533*
X11188Y0533*
X11188Y0533*
X11187Y0533*
X11186Y0533*
X11186Y0533*
X11185Y05329*
X11185Y05329*
X11185Y05329*
X11184Y05328*
X11184Y05328*
X11183Y05327*
X11183Y05327*
X11183Y05327*
X11182Y05326*
X11182Y05326*
X11182Y05325*
X11182Y05325*
X11182Y05324*
X11182Y05323*
X11181Y05323*
X11181Y05322*
X11181Y05322*
X11182Y05321*
X11182Y05321*
X11182Y0532*
X11182Y0532*
X11182Y05319*
X11182Y05319*
X11183Y05318*
X11183Y05318*
X11183Y05317*
X11184Y05317*
X11184Y05316*
X11185Y05316*
X11185Y05316*
X11185Y05315*
X11186Y05315*
X11186Y05315*
X11187Y05315*
X11188Y05315*
X11188Y05314*
X11189Y05314*
X11189Y05314*
X1119*
X1119Y05314*
X11191Y05314*
X11191Y05315*
X11192Y05315*
X11192Y05315*
X11193Y05315*
X11193Y05315*
X11194Y05316*
X11194Y05316*
X11195Y05316*
X11195Y05317*
X11196Y05317*
X11196Y05318*
X11196Y05318*
X11197Y05319*
X11197Y05319*
X11197Y0532*
X11197Y0532*
X11197Y05321*
X11197Y05321*
X11197Y05322*
X11197Y05322*
X11184Y03576D02*
D01*
X11184Y03577*
X11184Y03577*
X11184Y03578*
X11183Y03578*
X11183Y03579*
X11183Y0358*
X11183Y0358*
X11182Y03581*
X11182Y03581*
X11182Y03581*
X11181Y03582*
X11181Y03582*
X11181Y03583*
X1118Y03583*
X1118Y03583*
X11179Y03583*
X11179Y03584*
X11178Y03584*
X11178Y03584*
X11177Y03584*
X11177Y03584*
X11176Y03584*
X11175*
X11175Y03584*
X11174Y03584*
X11174Y03584*
X11173Y03584*
X11173Y03584*
X11172Y03583*
X11172Y03583*
X11171Y03583*
X11171Y03583*
X1117Y03582*
X1117Y03582*
X1117Y03581*
X11169Y03581*
X11169Y03581*
X11169Y0358*
X11168Y0358*
X11168Y03579*
X11168Y03578*
X11168Y03578*
X11168Y03577*
X11168Y03577*
X11168Y03576*
X11168Y03576*
X11168Y03575*
X11168Y03575*
X11168Y03574*
X11168Y03574*
X11168Y03573*
X11169Y03573*
X11169Y03572*
X11169Y03572*
X1117Y03571*
X1117Y03571*
X1117Y0357*
X11171Y0357*
X11171Y0357*
X11172Y03569*
X11172Y03569*
X11173Y03569*
X11173Y03569*
X11174Y03569*
X11174Y03568*
X11175Y03568*
X11175Y03568*
X11176*
X11177Y03568*
X11177Y03568*
X11178Y03569*
X11178Y03569*
X11179Y03569*
X11179Y03569*
X1118Y03569*
X1118Y0357*
X11181Y0357*
X11181Y0357*
X11181Y03571*
X11182Y03571*
X11182Y03572*
X11182Y03572*
X11183Y03573*
X11183Y03573*
X11183Y03574*
X11183Y03574*
X11184Y03575*
X11184Y03575*
X11184Y03576*
X11184Y03576*
Y03655D02*
D01*
X11184Y03656*
X11184Y03656*
X11184Y03657*
X11183Y03657*
X11183Y03658*
X11183Y03658*
X11183Y03659*
X11182Y03659*
X11182Y0366*
X11182Y0366*
X11181Y03661*
X11181Y03661*
X11181Y03661*
X1118Y03662*
X1118Y03662*
X11179Y03662*
X11179Y03662*
X11178Y03663*
X11178Y03663*
X11177Y03663*
X11177Y03663*
X11176Y03663*
X11175*
X11175Y03663*
X11174Y03663*
X11174Y03663*
X11173Y03663*
X11173Y03662*
X11172Y03662*
X11172Y03662*
X11171Y03662*
X11171Y03661*
X1117Y03661*
X1117Y03661*
X1117Y0366*
X11169Y0366*
X11169Y03659*
X11169Y03659*
X11168Y03658*
X11168Y03658*
X11168Y03657*
X11168Y03657*
X11168Y03656*
X11168Y03656*
X11168Y03655*
X11168Y03654*
X11168Y03654*
X11168Y03653*
X11168Y03653*
X11168Y03652*
X11168Y03652*
X11169Y03651*
X11169Y03651*
X11169Y0365*
X1117Y0365*
X1117Y03649*
X1117Y03649*
X11171Y03649*
X11171Y03648*
X11172Y03648*
X11172Y03648*
X11173Y03648*
X11173Y03647*
X11174Y03647*
X11174Y03647*
X11175Y03647*
X11175Y03647*
X11176*
X11177Y03647*
X11177Y03647*
X11178Y03647*
X11178Y03647*
X11179Y03648*
X11179Y03648*
X1118Y03648*
X1118Y03648*
X11181Y03649*
X11181Y03649*
X11181Y03649*
X11182Y0365*
X11182Y0365*
X11182Y03651*
X11183Y03651*
X11183Y03652*
X11183Y03652*
X11183Y03653*
X11184Y03653*
X11184Y03654*
X11184Y03654*
X11184Y03655*
X08452Y05318D02*
D01*
X08452Y05319*
X08452Y0532*
X08452Y0532*
X08452Y05321*
X08452Y05321*
X08452Y05322*
X08451Y05322*
X08451Y05323*
X08451Y05323*
X08451Y05324*
X0845Y05324*
X0845Y05324*
X08449Y05325*
X08449Y05325*
X08448Y05325*
X08448Y05326*
X08447Y05326*
X08447Y05326*
X08446Y05326*
X08446Y05326*
X08445Y05326*
X08445Y05326*
X08444*
X08444Y05326*
X08443Y05326*
X08442Y05326*
X08442Y05326*
X08441Y05326*
X08441Y05326*
X0844Y05325*
X0844Y05325*
X08439Y05325*
X08439Y05324*
X08439Y05324*
X08438Y05324*
X08438Y05323*
X08438Y05323*
X08437Y05322*
X08437Y05322*
X08437Y05321*
X08437Y05321*
X08437Y0532*
X08436Y0532*
X08436Y05319*
X08436Y05318*
X08436Y05318*
X08436Y05317*
X08437Y05317*
X08437Y05316*
X08437Y05316*
X08437Y05315*
X08437Y05315*
X08438Y05314*
X08438Y05314*
X08438Y05313*
X08439Y05313*
X08439Y05312*
X08439Y05312*
X0844Y05312*
X0844Y05311*
X08441Y05311*
X08441Y05311*
X08442Y05311*
X08442Y05311*
X08443Y05311*
X08444Y0531*
X08444Y0531*
X08445*
X08445Y0531*
X08446Y05311*
X08446Y05311*
X08447Y05311*
X08447Y05311*
X08448Y05311*
X08448Y05311*
X08449Y05312*
X08449Y05312*
X0845Y05312*
X0845Y05313*
X08451Y05313*
X08451Y05314*
X08451Y05314*
X08451Y05315*
X08452Y05315*
X08452Y05316*
X08452Y05316*
X08452Y05317*
X08452Y05317*
X08452Y05318*
X08452Y05318*
Y0524D02*
D01*
X08452Y0524*
X08452Y05241*
X08452Y05241*
X08452Y05242*
X08452Y05242*
X08452Y05243*
X08451Y05243*
X08451Y05244*
X08451Y05244*
X08451Y05245*
X0845Y05245*
X0845Y05246*
X08449Y05246*
X08449Y05246*
X08448Y05247*
X08448Y05247*
X08447Y05247*
X08447Y05247*
X08446Y05247*
X08446Y05248*
X08445Y05248*
X08445Y05248*
X08444*
X08444Y05248*
X08443Y05248*
X08442Y05247*
X08442Y05247*
X08441Y05247*
X08441Y05247*
X0844Y05247*
X0844Y05246*
X08439Y05246*
X08439Y05246*
X08439Y05245*
X08438Y05245*
X08438Y05244*
X08438Y05244*
X08437Y05243*
X08437Y05243*
X08437Y05242*
X08437Y05242*
X08437Y05241*
X08436Y05241*
X08436Y0524*
X08436Y0524*
X08436Y05239*
X08436Y05239*
X08437Y05238*
X08437Y05237*
X08437Y05237*
X08437Y05236*
X08437Y05236*
X08438Y05235*
X08438Y05235*
X08438Y05235*
X08439Y05234*
X08439Y05234*
X08439Y05233*
X0844Y05233*
X0844Y05233*
X08441Y05232*
X08441Y05232*
X08442Y05232*
X08442Y05232*
X08443Y05232*
X08444Y05232*
X08444Y05232*
X08445*
X08445Y05232*
X08446Y05232*
X08446Y05232*
X08447Y05232*
X08447Y05232*
X08448Y05232*
X08448Y05233*
X08449Y05233*
X08449Y05233*
X0845Y05234*
X0845Y05234*
X08451Y05235*
X08451Y05235*
X08451Y05235*
X08451Y05236*
X08452Y05236*
X08452Y05237*
X08452Y05237*
X08452Y05238*
X08452Y05239*
X08452Y05239*
X08452Y0524*
X08472Y03661D02*
D01*
X08472Y03661*
X08472Y03662*
X08472Y03663*
X08472Y03663*
X08472Y03664*
X08471Y03664*
X08471Y03665*
X08471Y03665*
X08471Y03666*
X0847Y03666*
X0847Y03666*
X08469Y03667*
X08469Y03667*
X08469Y03668*
X08468Y03668*
X08468Y03668*
X08467Y03668*
X08467Y03669*
X08466Y03669*
X08465Y03669*
X08465Y03669*
X08464Y03669*
X08464*
X08463Y03669*
X08463Y03669*
X08462Y03669*
X08462Y03669*
X08461Y03668*
X08461Y03668*
X0846Y03668*
X0846Y03668*
X08459Y03667*
X08459Y03667*
X08458Y03666*
X08458Y03666*
X08458Y03666*
X08457Y03665*
X08457Y03665*
X08457Y03664*
X08457Y03664*
X08456Y03663*
X08456Y03663*
X08456Y03662*
X08456Y03661*
X08456Y03661*
X08456Y0366*
X08456Y0366*
X08456Y03659*
X08456Y03659*
X08457Y03658*
X08457Y03658*
X08457Y03657*
X08457Y03657*
X08458Y03656*
X08458Y03656*
X08458Y03655*
X08459Y03655*
X08459Y03655*
X0846Y03654*
X0846Y03654*
X08461Y03654*
X08461Y03653*
X08462Y03653*
X08462Y03653*
X08463Y03653*
X08463Y03653*
X08464Y03653*
X08464*
X08465Y03653*
X08465Y03653*
X08466Y03653*
X08467Y03653*
X08467Y03653*
X08468Y03654*
X08468Y03654*
X08469Y03654*
X08469Y03655*
X08469Y03655*
X0847Y03655*
X0847Y03656*
X08471Y03656*
X08471Y03657*
X08471Y03657*
X08471Y03658*
X08472Y03658*
X08472Y03659*
X08472Y03659*
X08472Y0366*
X08472Y0366*
X08472Y03661*
Y03582D02*
D01*
X08472Y03583*
X08472Y03583*
X08472Y03584*
X08472Y03584*
X08472Y03585*
X08471Y03585*
X08471Y03586*
X08471Y03586*
X08471Y03587*
X0847Y03587*
X0847Y03588*
X08469Y03588*
X08469Y03588*
X08469Y03589*
X08468Y03589*
X08468Y03589*
X08467Y0359*
X08467Y0359*
X08466Y0359*
X08465Y0359*
X08465Y0359*
X08464Y0359*
X08464*
X08463Y0359*
X08463Y0359*
X08462Y0359*
X08462Y0359*
X08461Y0359*
X08461Y03589*
X0846Y03589*
X0846Y03589*
X08459Y03588*
X08459Y03588*
X08458Y03588*
X08458Y03587*
X08458Y03587*
X08457Y03586*
X08457Y03586*
X08457Y03585*
X08457Y03585*
X08456Y03584*
X08456Y03584*
X08456Y03583*
X08456Y03583*
X08456Y03582*
X08456Y03582*
X08456Y03581*
X08456Y03581*
X08456Y0358*
X08457Y03579*
X08457Y03579*
X08457Y03578*
X08457Y03578*
X08458Y03577*
X08458Y03577*
X08458Y03577*
X08459Y03576*
X08459Y03576*
X0846Y03576*
X0846Y03575*
X08461Y03575*
X08461Y03575*
X08462Y03575*
X08462Y03574*
X08463Y03574*
X08463Y03574*
X08464Y03574*
X08464*
X08465Y03574*
X08465Y03574*
X08466Y03574*
X08467Y03575*
X08467Y03575*
X08468Y03575*
X08468Y03575*
X08469Y03576*
X08469Y03576*
X08469Y03576*
X0847Y03577*
X0847Y03577*
X08471Y03577*
X08471Y03578*
X08471Y03578*
X08471Y03579*
X08472Y03579*
X08472Y0358*
X08472Y03581*
X08472Y03581*
X08472Y03582*
X08472Y03582*
M02*