G04*
G04 #@! TF.GenerationSoftware,Altium Limited,Altium Designer,20.2.5 (213)*
G04*
G04 Layer_Color=2752767*
%FSLAX44Y44*%
%MOMM*%
G71*
G04*
G04 #@! TF.SameCoordinates,141B8AC5-84E1-4BD6-917F-AD625E5865C0*
G04*
G04*
G04 #@! TF.FilePolarity,Positive*
G04*
G01*
G75*
%ADD117C,0.0508*%
%ADD118C,0.0677*%
D117*
X2349968Y1214368D02*
Y1218432D01*
X2354032D01*
Y1214368D01*
X2349968D01*
X2335968D02*
Y1218432D01*
X2340032D01*
Y1214368D01*
X2335968D01*
X2349968Y1228368D02*
Y1232432D01*
X2354032D01*
Y1228368D01*
X2349968D01*
X2335968D02*
Y1232432D01*
X2340032D01*
Y1228368D01*
X2335968D01*
X2349968Y1242368D02*
Y1246432D01*
X2354032D01*
Y1242368D01*
X2349968D01*
X2335968D02*
Y1246432D01*
X2340032D01*
Y1242368D01*
X2335968D01*
X2356968Y1221368D02*
Y1225432D01*
X2361032D01*
Y1221368D01*
X2356968D01*
X2342968D02*
Y1225432D01*
X2347032D01*
Y1221368D01*
X2342968D01*
X2328968D02*
Y1225432D01*
X2333032D01*
Y1221368D01*
X2328968D01*
X2356968Y1235368D02*
Y1239432D01*
X2361032D01*
Y1235368D01*
X2356968D01*
X2328968D02*
Y1239432D01*
X2333032D01*
Y1235368D01*
X2328968D01*
X2342968D02*
Y1239432D01*
X2347032D01*
Y1235368D01*
X2342968D01*
X2959400Y1044218D02*
X2957368Y1048282D01*
X2961432D01*
X2959400Y1044218D01*
X2934000D02*
X2931968Y1048282D01*
X2936032D01*
X2934000Y1044218D01*
X2908600D02*
X2906568Y1048282D01*
X2910632D01*
X2908600Y1044218D01*
X2608312Y1363968D02*
X2606280Y1368032D01*
X2610344D01*
X2608312Y1363968D01*
Y1303968D02*
X2606280Y1308032D01*
X2610344D01*
X2608312Y1303968D01*
Y1323968D02*
X2606280Y1328032D01*
X2610344D01*
X2608312Y1323968D01*
Y1343968D02*
X2606280Y1348032D01*
X2610344D01*
X2608312Y1343968D01*
X2557812Y1363968D02*
X2555780Y1368032D01*
X2559844D01*
X2557812Y1363968D01*
Y1303968D02*
X2555780Y1308032D01*
X2559844D01*
X2557812Y1303968D01*
Y1323968D02*
X2555780Y1328032D01*
X2559844D01*
X2557812Y1323968D01*
Y1343968D02*
X2555780Y1348032D01*
X2559844D01*
X2557812Y1343968D01*
X2520812Y1371868D02*
X2521828Y1372884D01*
X2522844D01*
X2521828Y1373900D01*
X2522844Y1374916D01*
X2521828D01*
X2520812Y1375932D01*
X2519796Y1374916D01*
X2518780D01*
X2519796Y1373900D01*
X2518780Y1372884D01*
X2519796D01*
X2520812Y1371868D01*
Y1346468D02*
X2521828Y1347484D01*
X2522844D01*
X2521828Y1348500D01*
X2522844Y1349516D01*
X2521828D01*
X2520812Y1350532D01*
X2519796Y1349516D01*
X2518780D01*
X2519796Y1348500D01*
X2518780Y1347484D01*
X2519796D01*
X2520812Y1346468D01*
Y1321068D02*
X2521828Y1322084D01*
X2522844D01*
X2521828Y1323100D01*
X2522844Y1324116D01*
X2521828D01*
X2520812Y1325132D01*
X2519796Y1324116D01*
X2518780D01*
X2519796Y1323100D01*
X2518780Y1322084D01*
X2519796D01*
X2520812Y1321068D01*
Y1295668D02*
X2521828Y1296684D01*
X2522844D01*
X2521828Y1297700D01*
X2522844Y1298716D01*
X2521828D01*
X2520812Y1299732D01*
X2519796Y1298716D01*
X2518780D01*
X2519796Y1297700D01*
X2518780Y1296684D01*
X2519796D01*
X2520812Y1295668D01*
X2572500Y986967D02*
X2573516Y987983D01*
X2574532D01*
X2573516Y988999D01*
X2574532Y990015D01*
X2573516D01*
X2572500Y991031D01*
X2571484Y990015D01*
X2570468D01*
X2571484Y988999D01*
X2570468Y987983D01*
X2571484D01*
X2572500Y986967D01*
X2547500D02*
X2548516Y987983D01*
X2549532D01*
X2548516Y988999D01*
X2549532Y990015D01*
X2548516D01*
X2547500Y991031D01*
X2546484Y990015D01*
X2545468D01*
X2546484Y988999D01*
X2545468Y987983D01*
X2546484D01*
X2547500Y986967D01*
X2522500D02*
X2523516Y987983D01*
X2524532D01*
X2523516Y988999D01*
X2524532Y990015D01*
X2523516D01*
X2522500Y991031D01*
X2521484Y990015D01*
X2520468D01*
X2521484Y988999D01*
X2520468Y987983D01*
X2521484D01*
X2522500Y986967D01*
X2497500D02*
X2498516Y987983D01*
X2499532D01*
X2498516Y988999D01*
X2499532Y990015D01*
X2498516D01*
X2497500Y991031D01*
X2496484Y990015D01*
X2495468D01*
X2496484Y988999D01*
X2495468Y987983D01*
X2496484D01*
X2497500Y986967D01*
X2472500D02*
X2473516Y987983D01*
X2474532D01*
X2473516Y988999D01*
X2474532Y990015D01*
X2473516D01*
X2472500Y991031D01*
X2471484Y990015D01*
X2470468D01*
X2471484Y988999D01*
X2470468Y987983D01*
X2471484D01*
X2472500Y986967D01*
X2447500D02*
X2448516Y987983D01*
X2449532D01*
X2448516Y988999D01*
X2449532Y990015D01*
X2448516D01*
X2447500Y991031D01*
X2446484Y990015D01*
X2445468D01*
X2446484Y988999D01*
X2445468Y987983D01*
X2446484D01*
X2447500Y986967D01*
X2572500Y920468D02*
X2573516Y921484D01*
X2574532D01*
X2573516Y922500D01*
X2574532Y923516D01*
X2573516D01*
X2572500Y924532D01*
X2571484Y923516D01*
X2570468D01*
X2571484Y922500D01*
X2570468Y921484D01*
X2571484D01*
X2572500Y920468D01*
X2547500D02*
X2548516Y921484D01*
X2549532D01*
X2548516Y922500D01*
X2549532Y923516D01*
X2548516D01*
X2547500Y924532D01*
X2546484Y923516D01*
X2545468D01*
X2546484Y922500D01*
X2545468Y921484D01*
X2546484D01*
X2547500Y920468D01*
X2522500D02*
X2523516Y921484D01*
X2524532D01*
X2523516Y922500D01*
X2524532Y923516D01*
X2523516D01*
X2522500Y924532D01*
X2521484Y923516D01*
X2520468D01*
X2521484Y922500D01*
X2520468Y921484D01*
X2521484D01*
X2522500Y920468D01*
X2497500D02*
X2498516Y921484D01*
X2499532D01*
X2498516Y922500D01*
X2499532Y923516D01*
X2498516D01*
X2497500Y924532D01*
X2496484Y923516D01*
X2495468D01*
X2496484Y922500D01*
X2495468Y921484D01*
X2496484D01*
X2497500Y920468D01*
X2472500D02*
X2473516Y921484D01*
X2474532D01*
X2473516Y922500D01*
X2474532Y923516D01*
X2473516D01*
X2472500Y924532D01*
X2471484Y923516D01*
X2470468D01*
X2471484Y922500D01*
X2470468Y921484D01*
X2471484D01*
X2472500Y920468D01*
X2447500D02*
X2448516Y921484D01*
X2449532D01*
X2448516Y922500D01*
X2449532Y923516D01*
X2448516D01*
X2447500Y924532D01*
X2446484Y923516D01*
X2445468D01*
X2446484Y922500D01*
X2445468Y921484D01*
X2446484D01*
X2447500Y920468D01*
X2090968Y1308968D02*
X2091984Y1311000D01*
X2090968Y1313032D01*
X2093000Y1312016D01*
X2095032Y1313032D01*
X2094016Y1311000D01*
X2095032Y1308968D01*
X2093000Y1309984D01*
X2090968Y1308968D01*
Y1328968D02*
X2091984Y1331000D01*
X2090968Y1333032D01*
X2093000Y1332016D01*
X2095032Y1333032D01*
X2094016Y1331000D01*
X2095032Y1328968D01*
X2093000Y1329984D01*
X2090968Y1328968D01*
Y1348968D02*
X2091984Y1351000D01*
X2090968Y1353032D01*
X2093000Y1352016D01*
X2095032Y1353032D01*
X2094016Y1351000D01*
X2095032Y1348968D01*
X2093000Y1349984D01*
X2090968Y1348968D01*
X2095968Y907968D02*
X2096984Y910000D01*
X2095968Y912032D01*
X2098000Y911016D01*
X2100032Y912032D01*
X2099016Y910000D01*
X2100032Y907968D01*
X2098000Y908984D01*
X2095968Y907968D01*
Y927968D02*
X2096984Y930000D01*
X2095968Y932032D01*
X2098000Y931016D01*
X2100032Y932032D01*
X2099016Y930000D01*
X2100032Y927968D01*
X2098000Y928984D01*
X2095968Y927968D01*
Y947968D02*
X2096984Y950000D01*
X2095968Y952032D01*
X2098000Y951016D01*
X2100032Y952032D01*
X2099016Y950000D01*
X2100032Y947968D01*
X2098000Y948984D01*
X2095968Y947968D01*
X2890468Y946968D02*
X2891484Y949000D01*
X2890468Y951032D01*
X2892500Y950016D01*
X2894532Y951032D01*
X2893516Y949000D01*
X2894532Y946968D01*
X2892500Y947984D01*
X2890468Y946968D01*
Y926968D02*
X2891484Y929000D01*
X2890468Y931032D01*
X2892500Y930016D01*
X2894532Y931032D01*
X2893516Y929000D01*
X2894532Y926968D01*
X2892500Y927984D01*
X2890468Y926968D01*
Y906968D02*
X2891484Y909000D01*
X2890468Y911032D01*
X2892500Y910016D01*
X2894532Y911032D01*
X2893516Y909000D01*
X2894532Y906968D01*
X2892500Y907984D01*
X2890468Y906968D01*
X2892468Y1348968D02*
X2893484Y1351000D01*
X2892468Y1353032D01*
X2894500Y1352016D01*
X2896532Y1353032D01*
X2895516Y1351000D01*
X2896532Y1348968D01*
X2894500Y1349984D01*
X2892468Y1348968D01*
Y1328968D02*
X2893484Y1331000D01*
X2892468Y1333032D01*
X2894500Y1332016D01*
X2896532Y1333032D01*
X2895516Y1331000D01*
X2896532Y1328968D01*
X2894500Y1329984D01*
X2892468Y1328968D01*
Y1308968D02*
X2893484Y1311000D01*
X2892468Y1313032D01*
X2894500Y1312016D01*
X2896532Y1313032D01*
X2895516Y1311000D01*
X2896532Y1308968D01*
X2894500Y1309984D01*
X2892468Y1308968D01*
X2717500Y1356258D02*
X2718516Y1357274D01*
X2719532D01*
X2718516Y1358290D01*
X2719532Y1359306D01*
X2718516D01*
X2717500Y1360322D01*
X2716484Y1359306D01*
X2715468D01*
X2716484Y1358290D01*
X2715468Y1357274D01*
X2716484D01*
X2717500Y1356258D01*
X2742500D02*
X2743516Y1357274D01*
X2744532D01*
X2743516Y1358290D01*
X2744532Y1359306D01*
X2743516D01*
X2742500Y1360322D01*
X2741484Y1359306D01*
X2740468D01*
X2741484Y1358290D01*
X2740468Y1357274D01*
X2741484D01*
X2742500Y1356258D01*
X2767500D02*
X2768516Y1357274D01*
X2769532D01*
X2768516Y1358290D01*
X2769532Y1359306D01*
X2768516D01*
X2767500Y1360322D01*
X2766484Y1359306D01*
X2765468D01*
X2766484Y1358290D01*
X2765468Y1357274D01*
X2766484D01*
X2767500Y1356258D01*
X2792500D02*
X2793516Y1357274D01*
X2794532D01*
X2793516Y1358290D01*
X2794532Y1359306D01*
X2793516D01*
X2792500Y1360322D01*
X2791484Y1359306D01*
X2790468D01*
X2791484Y1358290D01*
X2790468Y1357274D01*
X2791484D01*
X2792500Y1356258D01*
X2717500Y1292968D02*
X2718516Y1293984D01*
X2719532D01*
X2718516Y1295000D01*
X2719532Y1296016D01*
X2718516D01*
X2717500Y1297032D01*
X2716484Y1296016D01*
X2715468D01*
X2716484Y1295000D01*
X2715468Y1293984D01*
X2716484D01*
X2717500Y1292968D01*
X2742500D02*
X2743516Y1293984D01*
X2744532D01*
X2743516Y1295000D01*
X2744532Y1296016D01*
X2743516D01*
X2742500Y1297032D01*
X2741484Y1296016D01*
X2740468D01*
X2741484Y1295000D01*
X2740468Y1293984D01*
X2741484D01*
X2742500Y1292968D01*
X2767500D02*
X2768516Y1293984D01*
X2769532D01*
X2768516Y1295000D01*
X2769532Y1296016D01*
X2768516D01*
X2767500Y1297032D01*
X2766484Y1296016D01*
X2765468D01*
X2766484Y1295000D01*
X2765468Y1293984D01*
X2766484D01*
X2767500Y1292968D01*
X2792500D02*
X2793516Y1293984D01*
X2794532D01*
X2793516Y1295000D01*
X2794532Y1296016D01*
X2793516D01*
X2792500Y1297032D01*
X2791484Y1296016D01*
X2790468D01*
X2791484Y1295000D01*
X2790468Y1293984D01*
X2791484D01*
X2792500Y1292968D01*
X2717500Y1230718D02*
X2718516Y1231734D01*
X2719532D01*
X2718516Y1232750D01*
X2719532Y1233766D01*
X2718516D01*
X2717500Y1234782D01*
X2716484Y1233766D01*
X2715468D01*
X2716484Y1232750D01*
X2715468Y1231734D01*
X2716484D01*
X2717500Y1230718D01*
X2742500D02*
X2743516Y1231734D01*
X2744532D01*
X2743516Y1232750D01*
X2744532Y1233766D01*
X2743516D01*
X2742500Y1234782D01*
X2741484Y1233766D01*
X2740468D01*
X2741484Y1232750D01*
X2740468Y1231734D01*
X2741484D01*
X2742500Y1230718D01*
X2767500D02*
X2768516Y1231734D01*
X2769532D01*
X2768516Y1232750D01*
X2769532Y1233766D01*
X2768516D01*
X2767500Y1234782D01*
X2766484Y1233766D01*
X2765468D01*
X2766484Y1232750D01*
X2765468Y1231734D01*
X2766484D01*
X2767500Y1230718D01*
X2792500D02*
X2793516Y1231734D01*
X2794532D01*
X2793516Y1232750D01*
X2794532Y1233766D01*
X2793516D01*
X2792500Y1234782D01*
X2791484Y1233766D01*
X2790468D01*
X2791484Y1232750D01*
X2790468Y1231734D01*
X2791484D01*
X2792500Y1230718D01*
X2140726Y1045742D02*
Y1044726D01*
X2142758D01*
Y1045742D01*
X2143774D01*
Y1047774D01*
X2142758D01*
Y1048790D01*
X2140726D01*
Y1047774D01*
X2139710D01*
Y1045742D01*
X2140726D01*
X2125726D02*
Y1044726D01*
X2127758D01*
Y1045742D01*
X2128774D01*
Y1047774D01*
X2127758D01*
Y1048790D01*
X2125726D01*
Y1047774D01*
X2124710D01*
Y1045742D01*
X2125726D01*
X2110726D02*
Y1044726D01*
X2112758D01*
Y1045742D01*
X2113774D01*
Y1047774D01*
X2112758D01*
Y1048790D01*
X2110726D01*
Y1047774D01*
X2109710D01*
Y1045742D01*
X2110726D01*
X2095726D02*
Y1044726D01*
X2097758D01*
Y1045742D01*
X2098774D01*
Y1047774D01*
X2097758D01*
Y1048790D01*
X2095726D01*
Y1047774D01*
X2094710D01*
Y1045742D01*
X2095726D01*
X2182500Y1325468D02*
X2183516Y1326484D01*
X2184532D01*
X2183516Y1327500D01*
X2184532Y1328516D01*
X2183516D01*
X2182500Y1329532D01*
X2181484Y1328516D01*
X2180468D01*
X2181484Y1327500D01*
X2180468Y1326484D01*
X2181484D01*
X2182500Y1325468D01*
Y1350868D02*
X2183516Y1351884D01*
X2184532D01*
X2183516Y1352900D01*
X2184532Y1353916D01*
X2183516D01*
X2182500Y1354932D01*
X2181484Y1353916D01*
X2180468D01*
X2181484Y1352900D01*
X2180468Y1351884D01*
X2181484D01*
X2182500Y1350868D01*
X2842250Y1329968D02*
X2840218Y1334032D01*
X2844282D01*
X2842250Y1329968D01*
Y1349968D02*
X2840218Y1354032D01*
X2844282D01*
X2842250Y1349968D01*
X2838750Y906468D02*
X2836718Y910532D01*
X2840782D01*
X2838750Y906468D01*
Y926468D02*
X2836718Y930532D01*
X2840782D01*
X2838750Y926468D01*
X2145000Y1348968D02*
X2142968Y1353032D01*
X2147032D01*
X2145000Y1348968D01*
Y1328968D02*
X2142968Y1333032D01*
X2147032D01*
X2145000Y1328968D01*
X2150000Y927968D02*
X2147968Y932032D01*
X2152032D01*
X2150000Y927968D01*
Y907968D02*
X2147968Y912032D01*
X2152032D01*
X2150000Y907968D01*
X2024500Y1267968D02*
X2025516Y1268984D01*
X2026532D01*
X2025516Y1270000D01*
X2026532Y1271016D01*
X2025516D01*
X2024500Y1272032D01*
X2023484Y1271016D01*
X2022468D01*
X2023484Y1270000D01*
X2022468Y1268984D01*
X2023484D01*
X2024500Y1267968D01*
Y1292968D02*
X2025516Y1293984D01*
X2026532D01*
X2025516Y1295000D01*
X2026532Y1296016D01*
X2025516D01*
X2024500Y1297032D01*
X2023484Y1296016D01*
X2022468D01*
X2023484Y1295000D01*
X2022468Y1293984D01*
X2023484D01*
X2024500Y1292968D01*
Y1317968D02*
X2025516Y1318984D01*
X2026532D01*
X2025516Y1320000D01*
X2026532Y1321016D01*
X2025516D01*
X2024500Y1322032D01*
X2023484Y1321016D01*
X2022468D01*
X2023484Y1320000D01*
X2022468Y1318984D01*
X2023484D01*
X2024500Y1317968D01*
Y1342968D02*
X2025516Y1343984D01*
X2026532D01*
X2025516Y1345000D01*
X2026532Y1346016D01*
X2025516D01*
X2024500Y1347032D01*
X2023484Y1346016D01*
X2022468D01*
X2023484Y1345000D01*
X2022468Y1343984D01*
X2023484D01*
X2024500Y1342968D01*
X2040000Y987968D02*
X2041016Y988984D01*
X2042032D01*
X2041016Y990000D01*
X2042032Y991016D01*
X2041016D01*
X2040000Y992032D01*
X2038984Y991016D01*
X2037968D01*
X2038984Y990000D01*
X2037968Y988984D01*
X2038984D01*
X2040000Y987968D01*
Y962968D02*
X2041016Y963984D01*
X2042032D01*
X2041016Y965000D01*
X2042032Y966016D01*
X2041016D01*
X2040000Y967032D01*
X2038984Y966016D01*
X2037968D01*
X2038984Y965000D01*
X2037968Y963984D01*
X2038984D01*
X2040000Y962968D01*
Y937968D02*
X2041016Y938984D01*
X2042032D01*
X2041016Y940000D01*
X2042032Y941016D01*
X2041016D01*
X2040000Y942032D01*
X2038984Y941016D01*
X2037968D01*
X2038984Y940000D01*
X2037968Y938984D01*
X2038984D01*
X2040000Y937968D01*
Y912968D02*
X2041016Y913984D01*
X2042032D01*
X2041016Y915000D01*
X2042032Y916016D01*
X2041016D01*
X2040000Y917032D01*
X2038984Y916016D01*
X2037968D01*
X2038984Y915000D01*
X2037968Y913984D01*
X2038984D01*
X2040000Y912968D01*
X2960500Y987968D02*
X2961516Y988984D01*
X2962532D01*
X2961516Y990000D01*
X2962532Y991016D01*
X2961516D01*
X2960500Y992032D01*
X2959484Y991016D01*
X2958468D01*
X2959484Y990000D01*
X2958468Y988984D01*
X2959484D01*
X2960500Y987968D01*
Y962968D02*
X2961516Y963984D01*
X2962532D01*
X2961516Y965000D01*
X2962532Y966016D01*
X2961516D01*
X2960500Y967032D01*
X2959484Y966016D01*
X2958468D01*
X2959484Y965000D01*
X2958468Y963984D01*
X2959484D01*
X2960500Y962968D01*
Y937968D02*
X2961516Y938984D01*
X2962532D01*
X2961516Y940000D01*
X2962532Y941016D01*
X2961516D01*
X2960500Y942032D01*
X2959484Y941016D01*
X2958468D01*
X2959484Y940000D01*
X2958468Y938984D01*
X2959484D01*
X2960500Y937968D01*
Y912968D02*
X2961516Y913984D01*
X2962532D01*
X2961516Y915000D01*
X2962532Y916016D01*
X2961516D01*
X2960500Y917032D01*
X2959484Y916016D01*
X2958468D01*
X2959484Y915000D01*
X2958468Y913984D01*
X2959484D01*
X2960500Y912968D01*
X2952500Y1267968D02*
X2953516Y1268984D01*
X2954532D01*
X2953516Y1270000D01*
X2954532Y1271016D01*
X2953516D01*
X2952500Y1272032D01*
X2951484Y1271016D01*
X2950468D01*
X2951484Y1270000D01*
X2950468Y1268984D01*
X2951484D01*
X2952500Y1267968D01*
Y1292968D02*
X2953516Y1293984D01*
X2954532D01*
X2953516Y1295000D01*
X2954532Y1296016D01*
X2953516D01*
X2952500Y1297032D01*
X2951484Y1296016D01*
X2950468D01*
X2951484Y1295000D01*
X2950468Y1293984D01*
X2951484D01*
X2952500Y1292968D01*
Y1317968D02*
X2953516Y1318984D01*
X2954532D01*
X2953516Y1320000D01*
X2954532Y1321016D01*
X2953516D01*
X2952500Y1322032D01*
X2951484Y1321016D01*
X2950468D01*
X2951484Y1320000D01*
X2950468Y1318984D01*
X2951484D01*
X2952500Y1317968D01*
Y1342968D02*
X2953516Y1343984D01*
X2954532D01*
X2953516Y1345000D01*
X2954532Y1346016D01*
X2953516D01*
X2952500Y1347032D01*
X2951484Y1346016D01*
X2950468D01*
X2951484Y1345000D01*
X2950468Y1343984D01*
X2951484D01*
X2952500Y1342968D01*
X2900718Y1222718D02*
X2901734D01*
X2902750Y1223734D01*
X2903766Y1222718D01*
X2904782D01*
Y1223734D01*
X2903766Y1224750D01*
X2904782Y1225766D01*
Y1226782D01*
X2903766D01*
X2902750Y1225766D01*
X2901734Y1226782D01*
X2900718D01*
Y1225766D01*
X2901734Y1224750D01*
X2900718Y1223734D01*
Y1222718D01*
X2841968Y986968D02*
X2842984D01*
X2844000Y987984D01*
X2845016Y986968D01*
X2846032D01*
Y987984D01*
X2845016Y989000D01*
X2846032Y990016D01*
Y991032D01*
X2845016D01*
X2844000Y990016D01*
X2842984Y991032D01*
X2841968D01*
Y990016D01*
X2842984Y989000D01*
X2841968Y987984D01*
Y986968D01*
X2016968Y1039968D02*
X2017984D01*
X2019000Y1040984D01*
X2020016Y1039968D01*
X2021032D01*
Y1040984D01*
X2020016Y1042000D01*
X2021032Y1043016D01*
Y1044032D01*
X2020016D01*
X2019000Y1043016D01*
X2017984Y1044032D01*
X2016968D01*
Y1043016D01*
X2017984Y1042000D01*
X2016968Y1040984D01*
Y1039968D01*
X2495468Y1078468D02*
X2496484D01*
X2497500Y1079484D01*
X2498516Y1078468D01*
X2499532D01*
Y1079484D01*
X2498516Y1080500D01*
X2499532Y1081516D01*
Y1082532D01*
X2498516D01*
X2497500Y1081516D01*
X2496484Y1082532D01*
X2495468D01*
Y1081516D01*
X2496484Y1080500D01*
X2495468Y1079484D01*
Y1078468D01*
X2222218D02*
X2223234D01*
X2224250Y1079484D01*
X2225266Y1078468D01*
X2226282D01*
Y1079484D01*
X2225266Y1080500D01*
X2226282Y1081516D01*
Y1082532D01*
X2225266D01*
X2224250Y1081516D01*
X2223234Y1082532D01*
X2222218D01*
Y1081516D01*
X2223234Y1080500D01*
X2222218Y1079484D01*
Y1078468D01*
X2234718Y1340968D02*
X2235734D01*
X2236750Y1341984D01*
X2237766Y1340968D01*
X2238782D01*
Y1341984D01*
X2237766Y1343000D01*
X2238782Y1344016D01*
Y1345032D01*
X2237766D01*
X2236750Y1344016D01*
X2235734Y1345032D01*
X2234718D01*
Y1344016D01*
X2235734Y1343000D01*
X2234718Y1341984D01*
Y1340968D01*
X2482968D02*
X2483984D01*
X2485000Y1341984D01*
X2486016Y1340968D01*
X2487032D01*
Y1341984D01*
X2486016Y1343000D01*
X2487032Y1344016D01*
Y1345032D01*
X2486016D01*
X2485000Y1344016D01*
X2483984Y1345032D01*
X2482968D01*
Y1344016D01*
X2483984Y1343000D01*
X2482968Y1341984D01*
Y1340968D01*
X2307468Y1217750D02*
X2309500Y1219782D01*
X2311532Y1217750D01*
X2309500Y1215718D01*
X2307468Y1217750D01*
X2295468Y1217500D02*
X2297500Y1219532D01*
X2299532Y1217500D01*
X2297500Y1215468D01*
X2295468Y1217500D01*
X2467180Y1217719D02*
X2469212Y1219751D01*
X2471244Y1217719D01*
X2469212Y1215686D01*
X2467180Y1217719D01*
X2806670Y1024601D02*
X2808702Y1026633D01*
X2810734Y1024601D01*
X2808702Y1022569D01*
X2806670Y1024601D01*
X2839718Y1037250D02*
X2841750Y1039282D01*
X2843782Y1037250D01*
X2841750Y1035218D01*
X2839718Y1037250D01*
X2364468Y1153870D02*
X2366500Y1155902D01*
X2368532Y1153870D01*
X2366500Y1151838D01*
X2364468Y1153870D01*
X2127198Y1005000D02*
X2129230Y1007032D01*
X2131262Y1005000D01*
X2129230Y1002968D01*
X2127198Y1005000D01*
X2517968Y1153000D02*
X2520000Y1155032D01*
X2522032Y1153000D01*
X2520000Y1150968D01*
X2517968Y1153000D01*
X2197158Y1342500D02*
X2199190Y1344532D01*
X2201222Y1342500D01*
X2199190Y1340468D01*
X2197158Y1342500D01*
X2203474Y1202087D02*
X2205506Y1204119D01*
X2207538Y1202087D01*
X2205506Y1200055D01*
X2203474Y1202087D01*
X2239658Y1168500D02*
X2241690Y1170532D01*
X2243722Y1168500D01*
X2241690Y1166468D01*
X2239658Y1168500D01*
X2245668Y1180487D02*
X2247700Y1182519D01*
X2249732Y1180487D01*
X2247700Y1178455D01*
X2245668Y1180487D01*
X2402468Y1161000D02*
X2404500Y1163032D01*
X2406532Y1161000D01*
X2404500Y1158968D01*
X2402468Y1161000D01*
X2389890Y1160922D02*
X2391922Y1162954D01*
X2393954Y1160922D01*
X2391922Y1158890D01*
X2389890Y1160922D01*
X2376831Y1159613D02*
X2378863Y1161645D01*
X2380895Y1159613D01*
X2378863Y1157581D01*
X2376831Y1159613D01*
X2716218Y1084000D02*
X2718250Y1086032D01*
X2720282Y1084000D01*
X2718250Y1081968D01*
X2716218Y1084000D01*
X2409745Y966527D02*
X2411777Y968559D01*
X2413809Y966527D01*
X2411777Y964495D01*
X2409745Y966527D01*
X2161468Y1250050D02*
X2163500Y1252082D01*
X2165532Y1250050D01*
X2163500Y1248018D01*
X2161468Y1250050D01*
X2955968Y1023000D02*
X2958000Y1025032D01*
X2960032Y1023000D01*
X2958000Y1020968D01*
X2955968Y1023000D01*
X2534618Y1182215D02*
X2536650Y1184247D01*
X2538682Y1182215D01*
X2536650Y1180182D01*
X2534618Y1182215D01*
X2242718Y1269500D02*
X2244750Y1271532D01*
X2246782Y1269500D01*
X2244750Y1267468D01*
X2242718Y1269500D01*
X2243218Y1256750D02*
X2245250Y1258782D01*
X2247282Y1256750D01*
X2245250Y1254718D01*
X2243218Y1256750D01*
X2227968Y1245940D02*
X2230000Y1247972D01*
X2232032Y1245940D01*
X2230000Y1243908D01*
X2227968Y1245940D01*
X2060968Y1224000D02*
X2063000Y1226032D01*
X2065032Y1224000D01*
X2063000Y1221968D01*
X2060968Y1224000D01*
X2414968Y1100000D02*
X2417000Y1102032D01*
X2419032Y1100000D01*
X2417000Y1097968D01*
X2414968Y1100000D01*
X2427968Y1101000D02*
X2430000Y1103032D01*
X2432032Y1101000D01*
X2430000Y1098968D01*
X2427968Y1101000D01*
X2176778Y937000D02*
X2178810Y939032D01*
X2180842Y937000D01*
X2178810Y934968D01*
X2176778Y937000D01*
X2842968Y1243810D02*
X2845000Y1245842D01*
X2847032Y1243810D01*
X2845000Y1241778D01*
X2842968Y1243810D01*
X2916968Y1163000D02*
X2919000Y1165032D01*
X2921032Y1163000D01*
X2919000Y1160968D01*
X2916968Y1163000D01*
X2854698Y1323000D02*
X2856730Y1325032D01*
X2858762Y1323000D01*
X2856730Y1320968D01*
X2854698Y1323000D01*
X2862968Y1330000D02*
X2865000Y1332032D01*
X2867032Y1330000D01*
X2865000Y1327968D01*
X2862968Y1330000D01*
X2264968Y1119000D02*
X2267000Y1121032D01*
X2269032Y1119000D01*
X2267000Y1116968D01*
X2264968Y1119000D01*
X2283968Y1081000D02*
X2286000Y1083032D01*
X2288032Y1081000D01*
X2286000Y1078968D01*
X2283968Y1081000D01*
X2362968Y1008000D02*
X2365000Y1010032D01*
X2367032Y1008000D01*
X2365000Y1005968D01*
X2362968Y1008000D01*
X2313968Y1004000D02*
X2316000Y1006032D01*
X2318032Y1004000D01*
X2316000Y1001968D01*
X2313968Y1004000D01*
X2321968Y1041000D02*
X2324000Y1043032D01*
X2326032Y1041000D01*
X2324000Y1038968D01*
X2321968Y1041000D01*
X2466968Y1071000D02*
X2469000Y1073032D01*
X2471032Y1071000D01*
X2469000Y1068968D01*
X2466968Y1071000D01*
X2609968Y1230000D02*
X2612000Y1232032D01*
X2614032Y1230000D01*
X2612000Y1227968D01*
X2609968Y1230000D01*
X2529624Y1169384D02*
X2531656Y1171416D01*
X2533688Y1169384D01*
X2531656Y1167352D01*
X2529624Y1169384D01*
X2520419Y1164277D02*
X2522451Y1166309D01*
X2524483Y1164277D01*
X2522451Y1162244D01*
X2520419Y1164277D01*
X2551968Y1153968D02*
X2554000Y1156000D01*
X2556032Y1153968D01*
X2554000Y1151936D01*
X2551968Y1153968D01*
X2793968Y1274000D02*
X2796000Y1276032D01*
X2798032Y1274000D01*
X2796000Y1271968D01*
X2793968Y1274000D01*
X2578968Y1094000D02*
X2581000Y1096032D01*
X2583032Y1094000D01*
X2581000Y1091968D01*
X2578968Y1094000D01*
X2581968Y1072000D02*
X2584000Y1074032D01*
X2586032Y1072000D01*
X2584000Y1069968D01*
X2581968Y1072000D01*
X2309968Y968000D02*
X2312000Y970032D01*
X2314032Y968000D01*
X2312000Y965968D01*
X2309968Y968000D01*
X2245968Y1233000D02*
X2248000Y1235032D01*
X2250032Y1233000D01*
X2248000Y1230968D01*
X2245968Y1233000D01*
X2245468Y1244000D02*
X2247500Y1246032D01*
X2249532Y1244000D01*
X2247500Y1241968D01*
X2245468Y1244000D01*
X2114706Y1240762D02*
X2116738Y1242794D01*
X2118770Y1240762D01*
X2116738Y1238730D01*
X2114706Y1240762D01*
X2135998Y1121000D02*
X2138030Y1123032D01*
X2140062Y1121000D01*
X2138030Y1118968D01*
X2135998Y1121000D01*
Y1143310D02*
X2138030Y1145342D01*
X2140062Y1143310D01*
X2138030Y1141278D01*
X2135998Y1143310D01*
X2821968Y1113000D02*
X2824000Y1115032D01*
X2826032Y1113000D01*
X2824000Y1110968D01*
X2821968Y1113000D01*
X2884468Y1058710D02*
X2886500Y1060742D01*
X2888532Y1058710D01*
X2886500Y1056678D01*
X2884468Y1058710D01*
X2431968Y1066000D02*
X2434000Y1068032D01*
X2436032Y1066000D01*
X2434000Y1063968D01*
X2431968Y1066000D01*
X2612968Y1258000D02*
X2615000Y1260032D01*
X2617032Y1258000D01*
X2615000Y1255968D01*
X2612968Y1258000D01*
X2531968Y1245000D02*
X2534000Y1247032D01*
X2536032Y1245000D01*
X2534000Y1242968D01*
X2531968Y1245000D01*
X2467968Y1269000D02*
X2470000Y1271032D01*
X2472032Y1269000D01*
X2470000Y1266968D01*
X2467968Y1269000D01*
X2531968Y1257000D02*
X2534000Y1259032D01*
X2536032Y1257000D01*
X2534000Y1254968D01*
X2531968Y1257000D01*
Y1270000D02*
X2534000Y1272032D01*
X2536032Y1270000D01*
X2534000Y1267968D01*
X2531968Y1270000D01*
X2631968Y938000D02*
X2634000Y940032D01*
X2636032Y938000D01*
X2634000Y935968D01*
X2631968Y938000D01*
X2802968Y1210000D02*
X2805000Y1212032D01*
X2807032Y1210000D01*
X2805000Y1207968D01*
X2802968Y1210000D01*
X2713968D02*
X2716000Y1212032D01*
X2718032Y1210000D01*
X2716000Y1207968D01*
X2713968Y1210000D01*
X2467968Y1256000D02*
X2470000Y1258032D01*
X2472032Y1256000D01*
X2470000Y1253968D01*
X2467968Y1256000D01*
X2477968Y1295000D02*
X2480000Y1297032D01*
X2482032Y1295000D01*
X2480000Y1292968D01*
X2477968Y1295000D01*
X2467968Y1282200D02*
X2470000Y1284232D01*
X2472032Y1282200D01*
X2470000Y1280168D01*
X2467968Y1282200D01*
Y1168000D02*
X2470000Y1170032D01*
X2472032Y1168000D01*
X2470000Y1165968D01*
X2467968Y1168000D01*
X2452968Y1114030D02*
X2455000Y1116062D01*
X2457032Y1114030D01*
X2455000Y1111998D01*
X2452968Y1114030D01*
X2481968Y1152000D02*
X2484000Y1154032D01*
X2486032Y1152000D01*
X2484000Y1149968D01*
X2481968Y1152000D01*
X2476218Y1042500D02*
X2478250Y1044532D01*
X2480282Y1042500D01*
X2478250Y1040468D01*
X2476218Y1042500D01*
X2824968Y1262000D02*
X2827000Y1264032D01*
X2829032Y1262000D01*
X2827000Y1259968D01*
X2824968Y1262000D01*
X2421968Y892000D02*
X2424000Y894032D01*
X2426032Y892000D01*
X2424000Y889968D01*
X2421968Y892000D01*
X2245468Y1205000D02*
X2247500Y1207032D01*
X2249532Y1205000D01*
X2247500Y1202968D01*
X2245468Y1205000D01*
Y1193000D02*
X2247500Y1195032D01*
X2249532Y1193000D01*
X2247500Y1190968D01*
X2245468Y1193000D01*
Y1220000D02*
X2247500Y1222032D01*
X2249532Y1220000D01*
X2247500Y1217968D01*
X2245468Y1220000D01*
X2590468Y975000D02*
X2592500Y977032D01*
X2594532Y975000D01*
X2592500Y972968D01*
X2590468Y975000D01*
X2205468Y1157500D02*
X2207500Y1159532D01*
X2209532Y1157500D01*
X2207500Y1155468D01*
X2205468Y1157500D01*
X2180468D02*
X2182500Y1159532D01*
X2184532Y1157500D01*
X2182500Y1155468D01*
X2180468Y1157500D01*
X2425468Y1190000D02*
X2427500Y1192032D01*
X2429532Y1190000D01*
X2427500Y1187968D01*
X2425468Y1190000D01*
X2467968Y1200000D02*
X2470000Y1202032D01*
X2472032Y1200000D01*
X2470000Y1197968D01*
X2467968Y1200000D01*
X2475468Y1190000D02*
X2477500Y1192032D01*
X2479532Y1190000D01*
X2477500Y1187968D01*
X2475468Y1190000D01*
X2467968Y1181000D02*
X2470000Y1183032D01*
X2472032Y1181000D01*
X2470000Y1178968D01*
X2467968Y1181000D01*
X2157968Y1320000D02*
X2160000Y1322032D01*
X2162032Y1320000D01*
X2160000Y1317968D01*
X2157968Y1320000D01*
X2263468Y918000D02*
X2265500Y920032D01*
X2267532Y918000D01*
X2265500Y915968D01*
X2263468Y918000D01*
X2135468Y1017500D02*
X2137500Y1019532D01*
X2139532Y1017500D01*
X2137500Y1015468D01*
X2135468Y1017500D01*
X2278468Y977500D02*
X2280500Y979532D01*
X2282532Y977500D01*
X2280500Y975468D01*
X2278468Y977500D01*
X2287968Y995000D02*
X2290000Y997032D01*
X2292032Y995000D01*
X2290000Y992968D01*
X2287968Y995000D01*
X2030468Y1132500D02*
X2032500Y1134532D01*
X2034532Y1132500D01*
X2032500Y1130468D01*
X2030468Y1132500D01*
X2207968Y1370000D02*
X2210000Y1372032D01*
X2212032Y1370000D01*
X2210000Y1367968D01*
X2207968Y1370000D01*
X2722968Y1270000D02*
X2725000Y1272032D01*
X2727032Y1270000D01*
X2725000Y1267968D01*
X2722968Y1270000D01*
X2467968Y1155000D02*
X2470000Y1157032D01*
X2472032Y1155000D01*
X2470000Y1152968D01*
X2467968Y1155000D01*
X2412968Y1197500D02*
X2415000Y1199532D01*
X2417032Y1197500D01*
X2415000Y1195468D01*
X2412968Y1197500D01*
X2815468Y1322500D02*
X2817500Y1324532D01*
X2819532Y1322500D01*
X2817500Y1320468D01*
X2815468Y1322500D01*
X2467968Y1231000D02*
X2470000Y1233032D01*
X2472032Y1231000D01*
X2470000Y1228968D01*
X2467968Y1231000D01*
Y1244000D02*
X2470000Y1246032D01*
X2472032Y1244000D01*
X2470000Y1241968D01*
X2467968Y1244000D01*
D118*
X2717032Y1164000D02*
G03*
X2717032Y1164000I-2032J0D01*
G01*
X2737032D02*
G03*
X2737032Y1164000I-2032J0D01*
G01*
X2757032D02*
G03*
X2757032Y1164000I-2032J0D01*
G01*
X2777032D02*
G03*
X2777032Y1164000I-2032J0D01*
G01*
X2797032D02*
G03*
X2797032Y1164000I-2032J0D01*
G01*
X2717032Y959500D02*
G03*
X2717032Y959500I-2032J0D01*
G01*
X2737032D02*
G03*
X2737032Y959500I-2032J0D01*
G01*
X2757032D02*
G03*
X2757032Y959500I-2032J0D01*
G01*
X2777032D02*
G03*
X2777032Y959500I-2032J0D01*
G01*
X2797032D02*
G03*
X2797032Y959500I-2032J0D01*
G01*
X2717032Y1062500D02*
G03*
X2717032Y1062500I-2032J0D01*
G01*
X2737032D02*
G03*
X2737032Y1062500I-2032J0D01*
G01*
X2757032D02*
G03*
X2757032Y1062500I-2032J0D01*
G01*
X2777032D02*
G03*
X2777032Y1062500I-2032J0D01*
G01*
X2797032D02*
G03*
X2797032Y1062500I-2032J0D01*
G01*
X2717032Y908000D02*
G03*
X2717032Y908000I-2032J0D01*
G01*
X2737032D02*
G03*
X2737032Y908000I-2032J0D01*
G01*
X2757032D02*
G03*
X2757032Y908000I-2032J0D01*
G01*
X2777032D02*
G03*
X2777032Y908000I-2032J0D01*
G01*
X2797032D02*
G03*
X2797032Y908000I-2032J0D01*
G01*
X2717032Y1112500D02*
G03*
X2717032Y1112500I-2032J0D01*
G01*
X2737032D02*
G03*
X2737032Y1112500I-2032J0D01*
G01*
X2757032D02*
G03*
X2757032Y1112500I-2032J0D01*
G01*
X2777032D02*
G03*
X2777032Y1112500I-2032J0D01*
G01*
X2797032D02*
G03*
X2797032Y1112500I-2032J0D01*
G01*
X2717032Y1011000D02*
G03*
X2717032Y1011000I-2032J0D01*
G01*
X2737032D02*
G03*
X2737032Y1011000I-2032J0D01*
G01*
X2757032D02*
G03*
X2757032Y1011000I-2032J0D01*
G01*
X2777032D02*
G03*
X2777032Y1011000I-2032J0D01*
G01*
X2797032D02*
G03*
X2797032Y1011000I-2032J0D01*
G01*
X2096032Y1204000D02*
G03*
X2096032Y1204000I-2032J0D01*
G01*
X2111032D02*
G03*
X2111032Y1204000I-2032J0D01*
G01*
X2126032D02*
G03*
X2126032Y1204000I-2032J0D01*
G01*
X2096032Y1161500D02*
G03*
X2096032Y1161500I-2032J0D01*
G01*
X2111032D02*
G03*
X2111032Y1161500I-2032J0D01*
G01*
X2126032D02*
G03*
X2126032Y1161500I-2032J0D01*
G01*
X2095782Y1118500D02*
G03*
X2095782Y1118500I-2032J0D01*
G01*
X2110782D02*
G03*
X2110782Y1118500I-2032J0D01*
G01*
X2125782D02*
G03*
X2125782Y1118500I-2032J0D01*
G01*
X2314532Y1072500D02*
G03*
X2314532Y1072500I-2032J0D01*
G01*
X2334532D02*
G03*
X2334532Y1072500I-2032J0D01*
G01*
X2354532D02*
G03*
X2354532Y1072500I-2032J0D01*
G01*
X2374532D02*
G03*
X2374532Y1072500I-2032J0D01*
G01*
X2394532D02*
G03*
X2394532Y1072500I-2032J0D01*
G01*
X2414532D02*
G03*
X2414532Y1072500I-2032J0D01*
G01*
X2098032Y1080000D02*
G03*
X2098032Y1080000I-2032J0D01*
G01*
X2113032D02*
G03*
X2113032Y1080000I-2032J0D01*
G01*
X2128032D02*
G03*
X2128032Y1080000I-2032J0D01*
G01*
X2143032D02*
G03*
X2143032Y1080000I-2032J0D01*
G01*
X2158032D02*
G03*
X2158032Y1080000I-2032J0D01*
G01*
X2173032D02*
G03*
X2173032Y1080000I-2032J0D01*
G01*
M02*
