G04*
G04 #@! TF.GenerationSoftware,Altium Limited,Altium Designer,20.2.5 (213)*
G04*
G04 Layer_Color=128*
%FSLAX44Y44*%
%MOMM*%
G71*
G04*
G04 #@! TF.SameCoordinates,141B8AC5-84E1-4BD6-917F-AD625E5865C0*
G04*
G04*
G04 #@! TF.FilePolarity,Positive*
G04*
G01*
G75*
%ADD117C,0.0508*%
D117*
X2351000Y1216400D02*
X2353000D01*
X2352000Y1215400D02*
Y1217400D01*
X2337000Y1216400D02*
X2339000D01*
X2338000Y1215400D02*
Y1217400D01*
X2351000Y1230400D02*
X2353000D01*
X2352000Y1229400D02*
Y1231400D01*
X2337000Y1230400D02*
X2339000D01*
X2338000Y1229400D02*
Y1231400D01*
X2351000Y1244400D02*
X2353000D01*
X2352000Y1243400D02*
Y1245400D01*
X2337000Y1244400D02*
X2339000D01*
X2338000Y1243400D02*
Y1245400D01*
X2358000Y1223400D02*
X2360000D01*
X2359000Y1222400D02*
Y1224400D01*
X2344000Y1223400D02*
X2346000D01*
X2345000Y1222400D02*
Y1224400D01*
X2330000Y1223400D02*
X2332000D01*
X2331000Y1222400D02*
Y1224400D01*
X2358000Y1237400D02*
X2360000D01*
X2359000Y1236400D02*
Y1238400D01*
X2330000Y1237400D02*
X2332000D01*
X2331000Y1236400D02*
Y1238400D01*
X2344000Y1237400D02*
X2346000D01*
X2345000Y1236400D02*
Y1238400D01*
X2711500Y1164000D02*
X2718500D01*
X2715000Y1160500D02*
Y1167500D01*
X2731500Y1164000D02*
X2738500D01*
X2735000Y1160500D02*
Y1167500D01*
X2751500Y1164000D02*
X2758500D01*
X2755000Y1160500D02*
Y1167500D01*
X2771500Y1164000D02*
X2778500D01*
X2775000Y1160500D02*
Y1167500D01*
X2791500Y1164000D02*
X2798500D01*
X2795000Y1160500D02*
Y1167500D01*
X2711500Y959500D02*
X2718500D01*
X2715000Y956000D02*
Y963000D01*
X2731500Y959500D02*
X2738500D01*
X2735000Y956000D02*
Y963000D01*
X2751500Y959500D02*
X2758500D01*
X2755000Y956000D02*
Y963000D01*
X2771500Y959500D02*
X2778500D01*
X2775000Y956000D02*
Y963000D01*
X2791500Y959500D02*
X2798500D01*
X2795000Y956000D02*
Y963000D01*
X2954400Y1046250D02*
X2964400D01*
X2959400Y1041250D02*
Y1051250D01*
X2929000Y1046250D02*
X2939000D01*
X2934000Y1041250D02*
Y1051250D01*
X2903600Y1046250D02*
X2913600D01*
X2908600Y1041250D02*
Y1051250D01*
X2603312Y1366000D02*
X2613312D01*
X2608312Y1361000D02*
Y1371000D01*
X2603312Y1306000D02*
X2613312D01*
X2608312Y1301000D02*
Y1311000D01*
X2603312Y1326000D02*
X2613312D01*
X2608312Y1321000D02*
Y1331000D01*
X2603312Y1346000D02*
X2613312D01*
X2608312Y1341000D02*
Y1351000D01*
X2552812Y1366000D02*
X2562812D01*
X2557812Y1361000D02*
Y1371000D01*
X2552812Y1306000D02*
X2562812D01*
X2557812Y1301000D02*
Y1311000D01*
X2552812Y1326000D02*
X2562812D01*
X2557812Y1321000D02*
Y1331000D01*
X2552812Y1346000D02*
X2562812D01*
X2557812Y1341000D02*
Y1351000D01*
X2516312Y1373900D02*
X2525312D01*
X2520812Y1369400D02*
Y1378400D01*
X2516312Y1348500D02*
X2525312D01*
X2520812Y1344000D02*
Y1353000D01*
X2516312Y1323100D02*
X2525312D01*
X2520812Y1318600D02*
Y1327600D01*
X2516312Y1297700D02*
X2525312D01*
X2520812Y1293200D02*
Y1302200D01*
X2568000Y988999D02*
X2577000D01*
X2572500Y984499D02*
Y993499D01*
X2543000Y988999D02*
X2552000D01*
X2547500Y984499D02*
Y993499D01*
X2518000Y988999D02*
X2527000D01*
X2522500Y984499D02*
Y993499D01*
X2493000Y988999D02*
X2502000D01*
X2497500Y984499D02*
Y993499D01*
X2468000Y988999D02*
X2477000D01*
X2472500Y984499D02*
Y993499D01*
X2443000Y988999D02*
X2452000D01*
X2447500Y984499D02*
Y993499D01*
X2568000Y922500D02*
X2577000D01*
X2572500Y918000D02*
Y927000D01*
X2543000Y922500D02*
X2552000D01*
X2547500Y918000D02*
Y927000D01*
X2518000Y922500D02*
X2527000D01*
X2522500Y918000D02*
Y927000D01*
X2493000Y922500D02*
X2502000D01*
X2497500Y918000D02*
Y927000D01*
X2468000Y922500D02*
X2477000D01*
X2472500Y918000D02*
Y927000D01*
X2443000Y922500D02*
X2452000D01*
X2447500Y918000D02*
Y927000D01*
X2089000Y1311000D02*
X2097000D01*
X2093000Y1307000D02*
Y1315000D01*
X2089000Y1331000D02*
X2097000D01*
X2093000Y1327000D02*
Y1335000D01*
X2089000Y1351000D02*
X2097000D01*
X2093000Y1347000D02*
Y1355000D01*
X2094000Y910000D02*
X2102000D01*
X2098000Y906000D02*
Y914000D01*
X2094000Y930000D02*
X2102000D01*
X2098000Y926000D02*
Y934000D01*
X2094000Y950000D02*
X2102000D01*
X2098000Y946000D02*
Y954000D01*
X2888500Y949000D02*
X2896500D01*
X2892500Y945000D02*
Y953000D01*
X2888500Y929000D02*
X2896500D01*
X2892500Y925000D02*
Y933000D01*
X2888500Y909000D02*
X2896500D01*
X2892500Y905000D02*
Y913000D01*
X2890500Y1351000D02*
X2898500D01*
X2894500Y1347000D02*
Y1355000D01*
X2890500Y1331000D02*
X2898500D01*
X2894500Y1327000D02*
Y1335000D01*
X2890500Y1311000D02*
X2898500D01*
X2894500Y1307000D02*
Y1315000D01*
X2713000Y1358290D02*
X2722000D01*
X2717500Y1353790D02*
Y1362790D01*
X2738000Y1358290D02*
X2747000D01*
X2742500Y1353790D02*
Y1362790D01*
X2763000Y1358290D02*
X2772000D01*
X2767500Y1353790D02*
Y1362790D01*
X2788000Y1358290D02*
X2797000D01*
X2792500Y1353790D02*
Y1362790D01*
X2711500Y1062500D02*
X2718500D01*
X2715000Y1059000D02*
Y1066000D01*
X2731500Y1062500D02*
X2738500D01*
X2735000Y1059000D02*
Y1066000D01*
X2751500Y1062500D02*
X2758500D01*
X2755000Y1059000D02*
Y1066000D01*
X2771500Y1062500D02*
X2778500D01*
X2775000Y1059000D02*
Y1066000D01*
X2791500Y1062500D02*
X2798500D01*
X2795000Y1059000D02*
Y1066000D01*
X2711500Y908000D02*
X2718500D01*
X2715000Y904500D02*
Y911500D01*
X2731500Y908000D02*
X2738500D01*
X2735000Y904500D02*
Y911500D01*
X2751500Y908000D02*
X2758500D01*
X2755000Y904500D02*
Y911500D01*
X2771500Y908000D02*
X2778500D01*
X2775000Y904500D02*
Y911500D01*
X2791500Y908000D02*
X2798500D01*
X2795000Y904500D02*
Y911500D01*
X2713000Y1295000D02*
X2722000D01*
X2717500Y1290500D02*
Y1299500D01*
X2738000Y1295000D02*
X2747000D01*
X2742500Y1290500D02*
Y1299500D01*
X2763000Y1295000D02*
X2772000D01*
X2767500Y1290500D02*
Y1299500D01*
X2788000Y1295000D02*
X2797000D01*
X2792500Y1290500D02*
Y1299500D01*
X2713000Y1232750D02*
X2722000D01*
X2717500Y1228250D02*
Y1237250D01*
X2738000Y1232750D02*
X2747000D01*
X2742500Y1228250D02*
Y1237250D01*
X2763000Y1232750D02*
X2772000D01*
X2767500Y1228250D02*
Y1237250D01*
X2788000Y1232750D02*
X2797000D01*
X2792500Y1228250D02*
Y1237250D01*
X2711500Y1112500D02*
X2718500D01*
X2715000Y1109000D02*
Y1116000D01*
X2731500Y1112500D02*
X2738500D01*
X2735000Y1109000D02*
Y1116000D01*
X2751500Y1112500D02*
X2758500D01*
X2755000Y1109000D02*
Y1116000D01*
X2771500Y1112500D02*
X2778500D01*
X2775000Y1109000D02*
Y1116000D01*
X2791500Y1112500D02*
X2798500D01*
X2795000Y1109000D02*
Y1116000D01*
X2711500Y1011000D02*
X2718500D01*
X2715000Y1007500D02*
Y1014500D01*
X2731500Y1011000D02*
X2738500D01*
X2735000Y1007500D02*
Y1014500D01*
X2751500Y1011000D02*
X2758500D01*
X2755000Y1007500D02*
Y1014500D01*
X2771500Y1011000D02*
X2778500D01*
X2775000Y1007500D02*
Y1014500D01*
X2791500Y1011000D02*
X2798500D01*
X2795000Y1007500D02*
Y1014500D01*
X2138492Y1046758D02*
X2144992D01*
X2141742Y1043508D02*
Y1050008D01*
X2123492Y1046758D02*
X2129992D01*
X2126742Y1043508D02*
Y1050008D01*
X2108492Y1046758D02*
X2114992D01*
X2111742Y1043508D02*
Y1050008D01*
X2093492Y1046758D02*
X2099992D01*
X2096742Y1043508D02*
Y1050008D01*
X2178000Y1327500D02*
X2187000D01*
X2182500Y1323000D02*
Y1332000D01*
X2178000Y1352900D02*
X2187000D01*
X2182500Y1348400D02*
Y1357400D01*
X2090500Y1204000D02*
X2097500D01*
X2094000Y1200500D02*
Y1207500D01*
X2105500Y1204000D02*
X2112500D01*
X2109000Y1200500D02*
Y1207500D01*
X2120500Y1204000D02*
X2127500D01*
X2124000Y1200500D02*
Y1207500D01*
X2090500Y1161500D02*
X2097500D01*
X2094000Y1158000D02*
Y1165000D01*
X2105500Y1161500D02*
X2112500D01*
X2109000Y1158000D02*
Y1165000D01*
X2120500Y1161500D02*
X2127500D01*
X2124000Y1158000D02*
Y1165000D01*
X2090250Y1118500D02*
X2097250D01*
X2093750Y1115000D02*
Y1122000D01*
X2105250Y1118500D02*
X2112250D01*
X2108750Y1115000D02*
Y1122000D01*
X2120250Y1118500D02*
X2127250D01*
X2123750Y1115000D02*
Y1122000D01*
X2837250Y1332000D02*
X2847250D01*
X2842250Y1327000D02*
Y1337000D01*
X2837250Y1352000D02*
X2847250D01*
X2842250Y1347000D02*
Y1357000D01*
X2833750Y908500D02*
X2843750D01*
X2838750Y903500D02*
Y913500D01*
X2833750Y928500D02*
X2843750D01*
X2838750Y923500D02*
Y933500D01*
X2309000Y1072500D02*
X2316000D01*
X2312500Y1069000D02*
Y1076000D01*
X2329000Y1072500D02*
X2336000D01*
X2332500Y1069000D02*
Y1076000D01*
X2349000Y1072500D02*
X2356000D01*
X2352500Y1069000D02*
Y1076000D01*
X2369000Y1072500D02*
X2376000D01*
X2372500Y1069000D02*
Y1076000D01*
X2389000Y1072500D02*
X2396000D01*
X2392500Y1069000D02*
Y1076000D01*
X2409000Y1072500D02*
X2416000D01*
X2412500Y1069000D02*
Y1076000D01*
X2092500Y1080000D02*
X2099500D01*
X2096000Y1076500D02*
Y1083500D01*
X2107500Y1080000D02*
X2114500D01*
X2111000Y1076500D02*
Y1083500D01*
X2122500Y1080000D02*
X2129500D01*
X2126000Y1076500D02*
Y1083500D01*
X2137500Y1080000D02*
X2144500D01*
X2141000Y1076500D02*
Y1083500D01*
X2152500Y1080000D02*
X2159500D01*
X2156000Y1076500D02*
Y1083500D01*
X2167500Y1080000D02*
X2174500D01*
X2171000Y1076500D02*
Y1083500D01*
X2140000Y1351000D02*
X2150000D01*
X2145000Y1346000D02*
Y1356000D01*
X2140000Y1331000D02*
X2150000D01*
X2145000Y1326000D02*
Y1336000D01*
X2145000Y930000D02*
X2155000D01*
X2150000Y925000D02*
Y935000D01*
X2145000Y910000D02*
X2155000D01*
X2150000Y905000D02*
Y915000D01*
X2020000Y1270000D02*
X2029000D01*
X2024500Y1265500D02*
Y1274500D01*
X2020000Y1295000D02*
X2029000D01*
X2024500Y1290500D02*
Y1299500D01*
X2020000Y1320000D02*
X2029000D01*
X2024500Y1315500D02*
Y1324500D01*
X2020000Y1345000D02*
X2029000D01*
X2024500Y1340500D02*
Y1349500D01*
X2035500Y990000D02*
X2044500D01*
X2040000Y985500D02*
Y994500D01*
X2035500Y965000D02*
X2044500D01*
X2040000Y960500D02*
Y969500D01*
X2035500Y940000D02*
X2044500D01*
X2040000Y935500D02*
Y944500D01*
X2035500Y915000D02*
X2044500D01*
X2040000Y910500D02*
Y919500D01*
X2956000Y990000D02*
X2965000D01*
X2960500Y985500D02*
Y994500D01*
X2956000Y965000D02*
X2965000D01*
X2960500Y960500D02*
Y969500D01*
X2956000Y940000D02*
X2965000D01*
X2960500Y935500D02*
Y944500D01*
X2956000Y915000D02*
X2965000D01*
X2960500Y910500D02*
Y919500D01*
X2948000Y1270000D02*
X2957000D01*
X2952500Y1265500D02*
Y1274500D01*
X2948000Y1295000D02*
X2957000D01*
X2952500Y1290500D02*
Y1299500D01*
X2948000Y1320000D02*
X2957000D01*
X2952500Y1315500D02*
Y1324500D01*
X2948000Y1345000D02*
X2957000D01*
X2952500Y1340500D02*
Y1349500D01*
X2891500Y1224750D02*
X2914000D01*
X2902750Y1213500D02*
Y1236000D01*
X2832750Y989000D02*
X2855250D01*
X2844000Y977750D02*
Y1000250D01*
X2007750Y1042000D02*
X2030250D01*
X2019000Y1030750D02*
Y1053250D01*
X2486250Y1080500D02*
X2508750D01*
X2497500Y1069250D02*
Y1091750D01*
X2213000Y1080500D02*
X2235500D01*
X2224250Y1069250D02*
Y1091750D01*
X2225500Y1343000D02*
X2248000D01*
X2236750Y1331750D02*
Y1354250D01*
X2473750Y1343000D02*
X2496250D01*
X2485000Y1331750D02*
Y1354250D01*
X2307500Y1217750D02*
X2311500D01*
X2309500Y1215750D02*
Y1219750D01*
X2295500Y1217500D02*
X2299500D01*
X2297500Y1215500D02*
Y1219500D01*
X2467212Y1217719D02*
X2471212D01*
X2469212Y1215719D02*
Y1219718D01*
X2806702Y1024601D02*
X2810702D01*
X2808702Y1022601D02*
Y1026601D01*
X2839750Y1037250D02*
X2843750D01*
X2841750Y1035250D02*
Y1039250D01*
X2364500Y1153870D02*
X2368500D01*
X2366500Y1151870D02*
Y1155870D01*
X2127230Y1005000D02*
X2131230D01*
X2129230Y1003000D02*
Y1007000D01*
X2518000Y1153000D02*
X2522000D01*
X2520000Y1151000D02*
Y1155000D01*
X2197190Y1342500D02*
X2201190D01*
X2199190Y1340500D02*
Y1344500D01*
X2203506Y1202087D02*
X2207506D01*
X2205506Y1200087D02*
Y1204087D01*
X2239690Y1168500D02*
X2243690D01*
X2241690Y1166500D02*
Y1170500D01*
X2245700Y1180487D02*
X2249700D01*
X2247700Y1178487D02*
Y1182487D01*
X2402500Y1161000D02*
X2406500D01*
X2404500Y1159000D02*
Y1163000D01*
X2389922Y1160922D02*
X2393922D01*
X2391922Y1158922D02*
Y1162922D01*
X2376863Y1159613D02*
X2380863D01*
X2378863Y1157613D02*
Y1161613D01*
X2716250Y1084000D02*
X2720250D01*
X2718250Y1082000D02*
Y1086000D01*
X2409777Y966527D02*
X2413777D01*
X2411777Y964527D02*
Y968527D01*
X2161500Y1250050D02*
X2165500D01*
X2163500Y1248050D02*
Y1252050D01*
X2956000Y1023000D02*
X2960000D01*
X2958000Y1021000D02*
Y1025000D01*
X2534650Y1182215D02*
X2538650D01*
X2536650Y1180214D02*
Y1184214D01*
X2242750Y1269500D02*
X2246750D01*
X2244750Y1267500D02*
Y1271500D01*
X2243250Y1256750D02*
X2247250D01*
X2245250Y1254750D02*
Y1258750D01*
X2228000Y1245940D02*
X2232000D01*
X2230000Y1243940D02*
Y1247940D01*
X2061000Y1224000D02*
X2065000D01*
X2063000Y1222000D02*
Y1226000D01*
X2415000Y1100000D02*
X2419000D01*
X2417000Y1098000D02*
Y1102000D01*
X2428000Y1101000D02*
X2432000D01*
X2430000Y1099000D02*
Y1103000D01*
X2176810Y937000D02*
X2180810D01*
X2178810Y935000D02*
Y939000D01*
X2843000Y1243810D02*
X2847000D01*
X2845000Y1241810D02*
Y1245810D01*
X2917000Y1163000D02*
X2921000D01*
X2919000Y1161000D02*
Y1165000D01*
X2854730Y1323000D02*
X2858730D01*
X2856730Y1321000D02*
Y1325000D01*
X2863000Y1330000D02*
X2867000D01*
X2865000Y1328000D02*
Y1332000D01*
X2265000Y1119000D02*
X2269000D01*
X2267000Y1117000D02*
Y1121000D01*
X2284000Y1081000D02*
X2288000D01*
X2286000Y1079000D02*
Y1083000D01*
X2363000Y1008000D02*
X2367000D01*
X2365000Y1006000D02*
Y1010000D01*
X2314000Y1004000D02*
X2318000D01*
X2316000Y1002000D02*
Y1006000D01*
X2322000Y1041000D02*
X2326000D01*
X2324000Y1039000D02*
Y1043000D01*
X2467000Y1071000D02*
X2471000D01*
X2469000Y1069000D02*
Y1073000D01*
X2610000Y1230000D02*
X2614000D01*
X2612000Y1228000D02*
Y1232000D01*
X2529656Y1169384D02*
X2533656D01*
X2531656Y1167384D02*
Y1171384D01*
X2520451Y1164277D02*
X2524451D01*
X2522451Y1162277D02*
Y1166276D01*
X2552000Y1153968D02*
X2556000D01*
X2554000Y1151968D02*
Y1155968D01*
X2794000Y1274000D02*
X2798000D01*
X2796000Y1272000D02*
Y1276000D01*
X2579000Y1094000D02*
X2583000D01*
X2581000Y1092000D02*
Y1096000D01*
X2582000Y1072000D02*
X2586000D01*
X2584000Y1070000D02*
Y1074000D01*
X2310000Y968000D02*
X2314000D01*
X2312000Y966000D02*
Y970000D01*
X2246000Y1233000D02*
X2250000D01*
X2248000Y1231000D02*
Y1235000D01*
X2245500Y1244000D02*
X2249500D01*
X2247500Y1242000D02*
Y1246000D01*
X2114738Y1240762D02*
X2118738D01*
X2116738Y1238762D02*
Y1242762D01*
X2136030Y1121000D02*
X2140030D01*
X2138030Y1119000D02*
Y1123000D01*
X2136030Y1143310D02*
X2140030D01*
X2138030Y1141310D02*
Y1145310D01*
X2822000Y1113000D02*
X2826000D01*
X2824000Y1111000D02*
Y1115000D01*
X2884500Y1058710D02*
X2888500D01*
X2886500Y1056710D02*
Y1060710D01*
X2432000Y1066000D02*
X2436000D01*
X2434000Y1064000D02*
Y1068000D01*
X2613000Y1258000D02*
X2617000D01*
X2615000Y1256000D02*
Y1260000D01*
X2532000Y1245000D02*
X2536000D01*
X2534000Y1243000D02*
Y1247000D01*
X2468000Y1269000D02*
X2472000D01*
X2470000Y1267000D02*
Y1271000D01*
X2532000Y1257000D02*
X2536000D01*
X2534000Y1255000D02*
Y1259000D01*
X2532000Y1270000D02*
X2536000D01*
X2534000Y1268000D02*
Y1272000D01*
X2632000Y938000D02*
X2636000D01*
X2634000Y936000D02*
Y940000D01*
X2803000Y1210000D02*
X2807000D01*
X2805000Y1208000D02*
Y1212000D01*
X2714000Y1210000D02*
X2718000D01*
X2716000Y1208000D02*
Y1212000D01*
X2468000Y1256000D02*
X2472000D01*
X2470000Y1254000D02*
Y1258000D01*
X2478000Y1295000D02*
X2482000D01*
X2480000Y1293000D02*
Y1297000D01*
X2468000Y1282200D02*
X2472000D01*
X2470000Y1280200D02*
Y1284200D01*
X2468000Y1168000D02*
X2472000D01*
X2470000Y1166000D02*
Y1170000D01*
X2453000Y1114030D02*
X2457000D01*
X2455000Y1112030D02*
Y1116030D01*
X2482000Y1152000D02*
X2486000D01*
X2484000Y1150000D02*
Y1154000D01*
X2476250Y1042500D02*
X2480250D01*
X2478250Y1040500D02*
Y1044500D01*
X2825000Y1262000D02*
X2829000D01*
X2827000Y1260000D02*
Y1264000D01*
X2422000Y892000D02*
X2426000D01*
X2424000Y890000D02*
Y894000D01*
X2245500Y1205000D02*
X2249500D01*
X2247500Y1203000D02*
Y1207000D01*
X2245500Y1193000D02*
X2249500D01*
X2247500Y1191000D02*
Y1195000D01*
X2245500Y1220000D02*
X2249500D01*
X2247500Y1218000D02*
Y1222000D01*
X2590500Y975000D02*
X2594500D01*
X2592500Y973000D02*
Y977000D01*
X2205500Y1157500D02*
X2209500D01*
X2207500Y1155500D02*
Y1159500D01*
X2180500Y1157500D02*
X2184500D01*
X2182500Y1155500D02*
Y1159500D01*
X2425500Y1190000D02*
X2429500D01*
X2427500Y1188000D02*
Y1192000D01*
X2468000Y1200000D02*
X2472000D01*
X2470000Y1198000D02*
Y1202000D01*
X2475500Y1190000D02*
X2479500D01*
X2477500Y1188000D02*
Y1192000D01*
X2468000Y1181000D02*
X2472000D01*
X2470000Y1179000D02*
Y1183000D01*
X2158000Y1320000D02*
X2162000D01*
X2160000Y1318000D02*
Y1322000D01*
X2263500Y918000D02*
X2267500D01*
X2265500Y916000D02*
Y920000D01*
X2135500Y1017500D02*
X2139500D01*
X2137500Y1015500D02*
Y1019500D01*
X2278500Y977500D02*
X2282500D01*
X2280500Y975500D02*
Y979500D01*
X2288000Y995000D02*
X2292000D01*
X2290000Y993000D02*
Y997000D01*
X2030500Y1132500D02*
X2034500D01*
X2032500Y1130500D02*
Y1134500D01*
X2208000Y1370000D02*
X2212000D01*
X2210000Y1368000D02*
Y1372000D01*
X2723000Y1270000D02*
X2727000D01*
X2725000Y1268000D02*
Y1272000D01*
X2468000Y1155000D02*
X2472000D01*
X2470000Y1153000D02*
Y1157000D01*
X2413000Y1197500D02*
X2417000D01*
X2415000Y1195500D02*
Y1199500D01*
X2815500Y1322500D02*
X2819500D01*
X2817500Y1320500D02*
Y1324500D01*
X2468000Y1231000D02*
X2472000D01*
X2470000Y1229000D02*
Y1233000D01*
X2468000Y1244000D02*
X2472000D01*
X2470000Y1242000D02*
Y1246000D01*
M02*
