G04*
G04 #@! TF.GenerationSoftware,Altium Limited,Altium Designer,20.2.5 (213)*
G04*
G04 Layer_Color=32768*
%FSLAX44Y44*%
%MOMM*%
G71*
G04*
G04 #@! TF.SameCoordinates,141B8AC5-84E1-4BD6-917F-AD625E5865C0*
G04*
G04*
G04 #@! TF.FilePolarity,Positive*
G04*
G01*
G75*
%ADD113C,0.1000*%
%ADD115R,1.2500X0.3000*%
%ADD116R,0.3000X1.2500*%
D113*
X2673000Y1130000D02*
X2685500D01*
Y1110000D02*
Y1130000D01*
X2673000Y1110000D02*
X2685500D01*
X2673000D02*
Y1130000D01*
X2498000Y1242000D02*
Y1254500D01*
X2518000D01*
Y1242000D02*
Y1254500D01*
X2498000Y1242000D02*
X2518000D01*
X2095000Y1248000D02*
Y1260500D01*
X2075000Y1248000D02*
X2095000D01*
X2075000D02*
Y1260500D01*
X2095000D01*
X2080500Y1002750D02*
Y1015250D01*
X2100500D01*
Y1002750D02*
Y1015250D01*
X2080500Y1002750D02*
X2100500D01*
X2892250Y999750D02*
Y1012250D01*
X2912250D01*
Y999750D02*
Y1012250D01*
X2892250Y999750D02*
X2912250D01*
X2913250Y1247250D02*
Y1259750D01*
X2893250Y1247250D02*
X2913250D01*
X2893250D02*
Y1259750D01*
X2913250D01*
X2401000Y939750D02*
X2413500D01*
Y919750D02*
Y939750D01*
X2401000Y919750D02*
X2413500D01*
X2401000D02*
Y939750D01*
Y1001000D02*
X2413500D01*
Y981000D02*
Y1001000D01*
X2401000Y981000D02*
X2413500D01*
X2401000D02*
Y1001000D01*
X2673000Y1181500D02*
X2685500D01*
Y1161500D02*
Y1181500D01*
X2673000Y1161500D02*
X2685500D01*
X2673000D02*
Y1181500D01*
X2675500Y1080000D02*
X2688000D01*
Y1060000D02*
Y1080000D01*
X2675500Y1060000D02*
X2688000D01*
X2675500D02*
Y1080000D01*
Y1028500D02*
X2688000D01*
Y1008500D02*
Y1028500D01*
X2675500Y1008500D02*
X2688000D01*
X2675500D02*
Y1028500D01*
Y977000D02*
X2688000D01*
Y957000D02*
Y977000D01*
X2675500Y957000D02*
X2688000D01*
X2675500D02*
Y977000D01*
Y925500D02*
X2688000D01*
Y905500D02*
Y925500D01*
X2675500Y905500D02*
X2688000D01*
X2675500D02*
Y925500D01*
X2673400Y1222150D02*
X2685900D01*
X2673400D02*
Y1242150D01*
X2685900D01*
Y1222150D02*
Y1242150D01*
X2673750Y1285000D02*
X2686250D01*
X2673750D02*
Y1305000D01*
X2686250D01*
Y1285000D02*
Y1305000D01*
X2673750Y1347500D02*
X2686250D01*
X2673750D02*
Y1367500D01*
X2686250D01*
Y1347500D02*
Y1367500D01*
D115*
X2679249Y1111499D02*
D03*
X2407250Y921250D02*
D03*
X2407249Y982500D02*
D03*
X2679250Y1162999D02*
D03*
X2681750Y1061500D02*
D03*
X2681750Y1010000D02*
D03*
X2681750Y958500D02*
D03*
X2681750Y907000D02*
D03*
X2679650Y1240650D02*
D03*
X2680000Y1303500D02*
D03*
X2680001Y1366000D02*
D03*
D116*
X2516500Y1248250D02*
D03*
X2076500Y1254250D02*
D03*
X2099000Y1009000D02*
D03*
X2910750Y1006000D02*
D03*
X2894750Y1253500D02*
D03*
M02*
