G04*
G04 #@! TF.GenerationSoftware,Altium Limited,Altium Designer,20.2.5 (213)*
G04*
G04 Layer_Color=32768*
%FSLAX44Y44*%
%MOMM*%
G71*
G04*
G04 #@! TF.SameCoordinates,6FB6FDCA-9B6E-4508-9425-F46C68CC7845*
G04*
G04*
G04 #@! TF.FilePolarity,Positive*
G04*
G01*
G75*
%ADD115C,0.1000*%
%ADD116C,0.0500*%
D115*
X2742500Y1363790D02*
X2752500D01*
X2747500Y1358790D02*
Y1368790D01*
X2742500Y1300500D02*
X2752500D01*
X2747500Y1295500D02*
Y1305500D01*
X2742500Y1238250D02*
X2752500D01*
X2747500Y1233250D02*
Y1243250D01*
X2246900Y971100D02*
X2256900D01*
X2251900Y966100D02*
Y976100D01*
X2069400Y1003730D02*
Y1006270D01*
X2068130Y1005000D02*
X2070670D01*
X2298307Y992186D02*
X2308307D01*
X2303307Y987186D02*
Y997186D01*
X2256173Y992286D02*
X2266173D01*
X2261173Y987286D02*
Y997286D01*
X2213250Y994300D02*
X2223250D01*
X2218250Y989300D02*
Y999300D01*
X2929000Y1046250D02*
X2939000D01*
X2934000Y1041250D02*
Y1051250D01*
X2135000Y1274500D02*
Y1284500D01*
X2130000Y1279500D02*
X2140000D01*
X2849750Y1280000D02*
Y1290000D01*
X2844750Y1285000D02*
X2854750D01*
X2219038Y907888D02*
Y917888D01*
X2214038Y912888D02*
X2224038D01*
X2082500Y1331000D02*
X2092500D01*
X2087500Y1326000D02*
Y1336000D01*
X2087500Y930000D02*
X2097500D01*
X2092500Y925000D02*
Y935000D01*
X2893000Y929000D02*
X2903000D01*
X2898000Y924000D02*
Y934000D01*
X2895000Y1331000D02*
X2905000D01*
X2900000Y1326000D02*
Y1336000D01*
X2029908Y1084001D02*
X2039908D01*
X2034908Y1079001D02*
Y1089001D01*
X2208500Y1259000D02*
Y1269000D01*
X2203500Y1264000D02*
X2213500D01*
X2168000Y1264750D02*
X2178000D01*
X2173000Y1259750D02*
Y1269750D01*
X2284750Y912500D02*
X2294750D01*
X2289750Y907500D02*
Y917500D01*
X2341374Y993118D02*
X2351374D01*
X2346374Y988118D02*
Y998118D01*
X2374318Y1024568D02*
Y1034568D01*
X2369318Y1029568D02*
X2379318D01*
X2545000Y1180000D02*
Y1190000D01*
X2540000Y1185000D02*
X2550000D01*
X2167250Y971350D02*
Y976350D01*
X2164750Y973850D02*
X2169750D01*
X2167500Y1013000D02*
Y1018000D01*
X2165000Y1015500D02*
X2170000D01*
X2847750Y1337000D02*
Y1347000D01*
X2842750Y1342000D02*
X2852750D01*
X2844250Y913500D02*
Y923500D01*
X2839250Y918500D02*
X2849250D01*
X2139500Y1336000D02*
Y1346000D01*
X2134500Y1341000D02*
X2144500D01*
X2144500Y915000D02*
Y925000D01*
X2139500Y920000D02*
X2149500D01*
D116*
X2697000Y1340290D02*
X2798000D01*
X2697000D02*
Y1387290D01*
X2798000Y1340290D02*
Y1387290D01*
X2697000D02*
X2798000D01*
X2697000Y1277000D02*
X2798000D01*
X2697000D02*
Y1324000D01*
X2798000Y1277000D02*
Y1324000D01*
X2697000D02*
X2798000D01*
X2697000Y1214750D02*
X2798000D01*
X2697000D02*
Y1261750D01*
X2798000Y1214750D02*
Y1261750D01*
X2697000D02*
X2798000D01*
X2262500Y1120000D02*
X2457500D01*
Y1385000D01*
X2262500D02*
X2457500D01*
X2262500Y1120000D02*
Y1385000D01*
X2588020Y1056510D02*
Y1070870D01*
X2596980Y1056510D02*
Y1070870D01*
X2588020D02*
X2596980D01*
X2588020Y1056510D02*
X2596980D01*
X2587520Y1076880D02*
Y1091240D01*
X2596480Y1076880D02*
Y1091240D01*
X2587520D02*
X2596480D01*
X2587520Y1076880D02*
X2596480D01*
Y1098130D02*
Y1112490D01*
X2587520Y1098130D02*
Y1112490D01*
Y1098130D02*
X2596480D01*
X2587520Y1112490D02*
X2596480D01*
X2609480Y1056510D02*
Y1070870D01*
X2600520Y1056510D02*
Y1070870D01*
Y1056510D02*
X2609480D01*
X2600520Y1070870D02*
X2609480D01*
Y1076820D02*
Y1091180D01*
X2600520Y1076820D02*
Y1091180D01*
Y1076820D02*
X2609480D01*
X2600520Y1091180D02*
X2609480D01*
X2600020Y1098130D02*
Y1112490D01*
X2608980Y1098130D02*
Y1112490D01*
X2600020D02*
X2608980D01*
X2600020Y1098130D02*
X2608980D01*
X2412950Y1152760D02*
X2437050D01*
X2412950Y1105660D02*
X2437050D01*
Y1152760D01*
X2412950Y1105660D02*
Y1152760D01*
X2385136Y1152831D02*
X2409236D01*
X2385136Y1105731D02*
X2409236D01*
Y1152831D01*
X2385136Y1105731D02*
Y1152831D01*
X2039740Y1020950D02*
Y1045050D01*
X2086840Y1020950D02*
Y1045050D01*
X2039740D02*
X2086840D01*
X2039740Y1020950D02*
X2086840D01*
X2039845Y1133055D02*
Y1157155D01*
X2086945Y1133055D02*
Y1157155D01*
X2039845D02*
X2086945D01*
X2039845Y1133055D02*
X2086945D01*
X2039950Y1104950D02*
Y1129050D01*
X2087050Y1104950D02*
Y1129050D01*
X2039950D02*
X2087050D01*
X2039950Y1104950D02*
X2087050D01*
X2039740Y1050235D02*
Y1074334D01*
X2086840Y1050235D02*
Y1074334D01*
X2039740D02*
X2086840D01*
X2039740Y1050235D02*
X2086840D01*
X2040450Y1160450D02*
Y1184550D01*
X2087550Y1160450D02*
Y1184550D01*
X2040450D02*
X2087550D01*
X2040450Y1160450D02*
X2087550D01*
X2039950Y1077580D02*
Y1101680D01*
X2087050Y1077580D02*
Y1101680D01*
X2039950D02*
X2087050D01*
X2039950Y1077580D02*
X2087050D01*
X2859950Y1115173D02*
X2884050D01*
X2859950Y1068074D02*
X2884050D01*
Y1115173D01*
X2859950Y1068074D02*
Y1115173D01*
X2655804Y1326096D02*
Y1350197D01*
X2702903Y1326096D02*
Y1350197D01*
X2655804D02*
X2702903D01*
X2655804Y1326096D02*
X2702903D01*
X2655804Y1294950D02*
Y1319050D01*
X2702903Y1294950D02*
Y1319050D01*
X2655804D02*
X2702903D01*
X2655804Y1294950D02*
X2702903D01*
X2655804Y1232950D02*
Y1257050D01*
X2702903Y1232950D02*
Y1257050D01*
X2655804D02*
X2702903D01*
X2655804Y1232950D02*
X2702903D01*
X2655804Y1357950D02*
Y1382050D01*
X2702903Y1357950D02*
Y1382050D01*
X2655804D02*
X2702903D01*
X2655804Y1357950D02*
X2702903D01*
X2655804Y1265450D02*
Y1289550D01*
X2702903Y1265450D02*
Y1289550D01*
X2655804D02*
X2702903D01*
X2655804Y1265450D02*
X2702903D01*
X2655804Y1205450D02*
Y1229550D01*
X2702903Y1205450D02*
Y1229550D01*
X2655804D02*
X2702903D01*
X2655804Y1205450D02*
X2702903D01*
X2473550Y1030450D02*
Y1054550D01*
X2426450Y1030450D02*
Y1054550D01*
Y1030450D02*
X2473550D01*
X2426450Y1054550D02*
X2473550D01*
X2412949Y898942D02*
X2437049D01*
X2412949Y946042D02*
X2437049D01*
X2412949Y898942D02*
Y946042D01*
X2437049Y898942D02*
Y946042D01*
X2473951Y1002549D02*
Y1026649D01*
X2426851Y1002549D02*
Y1026649D01*
Y1002549D02*
X2473951D01*
X2426851Y1026649D02*
X2473951D01*
X2385450Y898942D02*
X2409550D01*
X2385450Y946042D02*
X2409550D01*
X2385450Y898942D02*
Y946042D01*
X2409550Y898942D02*
Y946042D01*
X2063550Y1189450D02*
Y1213550D01*
X2016450Y1189450D02*
Y1213550D01*
X2063550D01*
X2016450Y1189450D02*
X2063550D01*
Y1157950D02*
Y1182050D01*
X2016450Y1157950D02*
Y1182050D01*
X2063550D01*
X2016450Y1157950D02*
X2063550D01*
X2039950Y1216950D02*
Y1241050D01*
X2087050Y1216950D02*
Y1241050D01*
X2039950D02*
X2087050D01*
X2039950Y1216950D02*
X2087050D01*
X2039950Y1188950D02*
Y1213050D01*
X2087050Y1188950D02*
Y1213050D01*
X2039950D02*
X2087050D01*
X2039950Y1188950D02*
X2087050D01*
X2051900Y997750D02*
X2086900D01*
X2051900D02*
Y1012250D01*
X2086900D01*
Y997750D02*
Y1012250D01*
X2284807Y934336D02*
Y1050136D01*
X2321807D01*
X2284807Y934336D02*
X2321807D01*
Y1050136D01*
X2279673Y934336D02*
Y1050136D01*
X2242673Y934336D02*
X2279673D01*
X2242673Y1050136D02*
X2279673D01*
X2242673Y934336D02*
Y1050136D01*
X2236750Y936350D02*
Y1052150D01*
X2199750Y936350D02*
X2236750D01*
X2199750Y1052150D02*
X2236750D01*
X2199750Y936350D02*
Y1052150D01*
X2987500Y1023350D02*
Y1075350D01*
X2880500Y1023350D02*
Y1075350D01*
X2987500D01*
X2880500Y1023350D02*
X2987500D01*
X2117000Y1248000D02*
X2153000D01*
X2117000Y1311000D02*
X2153000D01*
Y1248000D02*
Y1311000D01*
X2117000Y1248000D02*
Y1311000D01*
X2831750Y1253500D02*
X2867750D01*
X2831750Y1316500D02*
X2867750D01*
Y1253500D02*
Y1316500D01*
X2831750Y1253500D02*
Y1316500D01*
X2206038Y891388D02*
X2232038D01*
X2206038Y934388D02*
X2232038D01*
X2206038Y891388D02*
Y934388D01*
X2232038Y891388D02*
Y934388D01*
X2064000Y1371500D02*
X2111000D01*
X2064000Y1290500D02*
Y1371500D01*
Y1290500D02*
X2111000D01*
Y1371500D01*
X2069000Y970500D02*
X2116000D01*
X2069000Y889500D02*
Y970500D01*
Y889500D02*
X2116000D01*
Y970500D01*
X2874500Y888500D02*
X2921500D01*
Y969500D01*
X2874500D02*
X2921500D01*
X2874500Y888500D02*
Y969500D01*
X2876500Y1290500D02*
X2923500D01*
Y1371500D01*
X2876500D02*
X2923500D01*
X2876500Y1290500D02*
Y1371500D01*
X2163322Y1212730D02*
Y1224730D01*
X2153322Y1212730D02*
X2163322D01*
X2153322Y1193730D02*
Y1212730D01*
Y1193730D02*
X2163322D01*
Y1181730D02*
Y1193730D01*
Y1181730D02*
X2228322D01*
Y1193730D01*
X2238322D01*
Y1212730D01*
X2228322D02*
X2238322D01*
X2228322D02*
Y1224730D01*
X2163322D02*
X2228322D01*
X2051908Y1074001D02*
Y1094001D01*
X2017908Y1074001D02*
Y1094001D01*
Y1074001D02*
X2051908D01*
X2017908Y1094001D02*
X2051908D01*
X2195000Y1272500D02*
X2222000D01*
X2195000Y1255500D02*
X2222000D01*
X2195000D02*
Y1272500D01*
X2222000Y1255500D02*
Y1272500D01*
X2194500Y1252250D02*
Y1277250D01*
X2151500Y1252250D02*
Y1277250D01*
Y1252250D02*
X2194500D01*
X2151500Y1277250D02*
X2194500D01*
X2311250Y900000D02*
Y925000D01*
X2268250Y900000D02*
Y925000D01*
Y900000D02*
X2311250D01*
X2268250Y925000D02*
X2311250D01*
X2327874Y935268D02*
Y1051068D01*
X2364874D01*
X2327874Y935268D02*
X2364874D01*
Y1051068D01*
X2361818Y1008068D02*
X2386818D01*
X2361818Y1051068D02*
X2386818D01*
X2361818Y1008068D02*
Y1051068D01*
X2386818Y1008068D02*
Y1051068D01*
X2489250Y1238500D02*
X2600750D01*
X2489250Y1131500D02*
X2600750D01*
X2489250D02*
Y1238500D01*
X2600750Y1131500D02*
Y1238500D01*
X2174250Y956350D02*
Y991350D01*
X2160250D02*
X2174250D01*
X2160250Y956350D02*
Y991350D01*
Y956350D02*
X2174250D01*
X2174500Y998000D02*
Y1033000D01*
X2160500D02*
X2174500D01*
X2160500Y998000D02*
Y1033000D01*
Y998000D02*
X2174500D01*
X2824250Y1311500D02*
Y1372500D01*
Y1311500D02*
X2871250D01*
X2824250Y1372500D02*
X2871250D01*
Y1311500D02*
Y1372500D01*
X2820750Y888000D02*
Y949000D01*
Y888000D02*
X2867750D01*
X2820750Y949000D02*
X2867750D01*
Y888000D02*
Y949000D01*
X2163000Y1310500D02*
Y1371500D01*
X2116000D02*
X2163000D01*
X2116000Y1310500D02*
X2163000D01*
X2116000D02*
Y1371500D01*
X2168000Y889500D02*
Y950500D01*
X2121000D02*
X2168000D01*
X2121000Y889500D02*
X2168000D01*
X2121000D02*
Y950500D01*
M02*
