G04*
G04 #@! TF.GenerationSoftware,Altium Limited,Altium Designer,20.2.5 (213)*
G04*
G04 Layer_Color=2752767*
%FSLAX44Y44*%
%MOMM*%
G71*
G04*
G04 #@! TF.SameCoordinates,19D5FE96-1F57-4DB1-9F11-37EF29D1C5BE*
G04*
G04*
G04 #@! TF.FilePolarity,Positive*
G04*
G01*
G75*
%ADD119C,0.0508*%
%ADD120C,0.0677*%
D119*
X2957468Y1044468D02*
Y1048532D01*
X2961532D01*
Y1044468D01*
X2957468D01*
X2932068D02*
Y1048532D01*
X2936132D01*
Y1044468D01*
X2932068D01*
X2906668D02*
Y1048532D01*
X2910732D01*
Y1044468D01*
X2906668D01*
X2715468Y1356258D02*
Y1360322D01*
X2719532D01*
Y1356258D01*
X2715468D01*
X2775468D02*
Y1360322D01*
X2779532D01*
Y1356258D01*
X2775468D01*
X2755468D02*
Y1360322D01*
X2759532D01*
Y1356258D01*
X2755468D01*
X2735468D02*
Y1360322D01*
X2739532D01*
Y1356258D01*
X2735468D01*
X2715468Y1292968D02*
Y1297032D01*
X2719532D01*
Y1292968D01*
X2715468D01*
X2775468D02*
Y1297032D01*
X2779532D01*
Y1292968D01*
X2775468D01*
X2755468D02*
Y1297032D01*
X2759532D01*
Y1292968D01*
X2755468D01*
X2735468D02*
Y1297032D01*
X2739532D01*
Y1292968D01*
X2735468D01*
X2715468Y1230718D02*
Y1234782D01*
X2719532D01*
Y1230718D01*
X2715468D01*
X2775468D02*
Y1234782D01*
X2779532D01*
Y1230718D01*
X2775468D01*
X2755468D02*
Y1234782D01*
X2759532D01*
Y1230718D01*
X2755468D01*
X2735468D02*
Y1234782D01*
X2739532D01*
Y1230718D01*
X2735468D01*
X2352000Y1214368D02*
X2349968Y1218432D01*
X2354032D01*
X2352000Y1214368D01*
X2338000D02*
X2335968Y1218432D01*
X2340032D01*
X2338000Y1214368D01*
X2352000Y1228368D02*
X2349968Y1232432D01*
X2354032D01*
X2352000Y1228368D01*
X2338000D02*
X2335968Y1232432D01*
X2340032D01*
X2338000Y1228368D01*
X2352000Y1242368D02*
X2349968Y1246432D01*
X2354032D01*
X2352000Y1242368D01*
X2338000D02*
X2335968Y1246432D01*
X2340032D01*
X2338000Y1242368D01*
X2359000Y1221368D02*
X2356968Y1225432D01*
X2361032D01*
X2359000Y1221368D01*
X2345000D02*
X2342968Y1225432D01*
X2347032D01*
X2345000Y1221368D01*
X2331000D02*
X2328968Y1225432D01*
X2333032D01*
X2331000Y1221368D01*
X2359000Y1235368D02*
X2356968Y1239432D01*
X2361032D01*
X2359000Y1235368D01*
X2331000D02*
X2328968Y1239432D01*
X2333032D01*
X2331000Y1235368D01*
X2345000D02*
X2342968Y1239432D01*
X2347032D01*
X2345000Y1235368D01*
X2715000Y1161968D02*
X2716016Y1162984D01*
X2717032D01*
X2716016Y1164000D01*
X2717032Y1165016D01*
X2716016D01*
X2715000Y1166032D01*
X2713984Y1165016D01*
X2712968D01*
X2713984Y1164000D01*
X2712968Y1162984D01*
X2713984D01*
X2715000Y1161968D01*
X2735000D02*
X2736016Y1162984D01*
X2737032D01*
X2736016Y1164000D01*
X2737032Y1165016D01*
X2736016D01*
X2735000Y1166032D01*
X2733984Y1165016D01*
X2732968D01*
X2733984Y1164000D01*
X2732968Y1162984D01*
X2733984D01*
X2735000Y1161968D01*
X2755000D02*
X2756016Y1162984D01*
X2757032D01*
X2756016Y1164000D01*
X2757032Y1165016D01*
X2756016D01*
X2755000Y1166032D01*
X2753984Y1165016D01*
X2752968D01*
X2753984Y1164000D01*
X2752968Y1162984D01*
X2753984D01*
X2755000Y1161968D01*
X2775000D02*
X2776016Y1162984D01*
X2777032D01*
X2776016Y1164000D01*
X2777032Y1165016D01*
X2776016D01*
X2775000Y1166032D01*
X2773984Y1165016D01*
X2772968D01*
X2773984Y1164000D01*
X2772968Y1162984D01*
X2773984D01*
X2775000Y1161968D01*
X2795000D02*
X2796016Y1162984D01*
X2797032D01*
X2796016Y1164000D01*
X2797032Y1165016D01*
X2796016D01*
X2795000Y1166032D01*
X2793984Y1165016D01*
X2792968D01*
X2793984Y1164000D01*
X2792968Y1162984D01*
X2793984D01*
X2795000Y1161968D01*
X2715000Y957468D02*
X2716016Y958484D01*
X2717032D01*
X2716016Y959500D01*
X2717032Y960516D01*
X2716016D01*
X2715000Y961532D01*
X2713984Y960516D01*
X2712968D01*
X2713984Y959500D01*
X2712968Y958484D01*
X2713984D01*
X2715000Y957468D01*
X2735000D02*
X2736016Y958484D01*
X2737032D01*
X2736016Y959500D01*
X2737032Y960516D01*
X2736016D01*
X2735000Y961532D01*
X2733984Y960516D01*
X2732968D01*
X2733984Y959500D01*
X2732968Y958484D01*
X2733984D01*
X2735000Y957468D01*
X2755000D02*
X2756016Y958484D01*
X2757032D01*
X2756016Y959500D01*
X2757032Y960516D01*
X2756016D01*
X2755000Y961532D01*
X2753984Y960516D01*
X2752968D01*
X2753984Y959500D01*
X2752968Y958484D01*
X2753984D01*
X2755000Y957468D01*
X2775000D02*
X2776016Y958484D01*
X2777032D01*
X2776016Y959500D01*
X2777032Y960516D01*
X2776016D01*
X2775000Y961532D01*
X2773984Y960516D01*
X2772968D01*
X2773984Y959500D01*
X2772968Y958484D01*
X2773984D01*
X2775000Y957468D01*
X2795000D02*
X2796016Y958484D01*
X2797032D01*
X2796016Y959500D01*
X2797032Y960516D01*
X2796016D01*
X2795000Y961532D01*
X2793984Y960516D01*
X2792968D01*
X2793984Y959500D01*
X2792968Y958484D01*
X2793984D01*
X2795000Y957468D01*
X2518780Y1371868D02*
X2519796Y1373900D01*
X2518780Y1375932D01*
X2520812Y1374916D01*
X2522844Y1375932D01*
X2521828Y1373900D01*
X2522844Y1371868D01*
X2520812Y1372884D01*
X2518780Y1371868D01*
Y1346468D02*
X2519796Y1348500D01*
X2518780Y1350532D01*
X2520812Y1349516D01*
X2522844Y1350532D01*
X2521828Y1348500D01*
X2522844Y1346468D01*
X2520812Y1347484D01*
X2518780Y1346468D01*
Y1321068D02*
X2519796Y1323100D01*
X2518780Y1325132D01*
X2520812Y1324116D01*
X2522844Y1325132D01*
X2521828Y1323100D01*
X2522844Y1321068D01*
X2520812Y1322084D01*
X2518780Y1321068D01*
Y1295668D02*
X2519796Y1297700D01*
X2518780Y1299732D01*
X2520812Y1298716D01*
X2522844Y1299732D01*
X2521828Y1297700D01*
X2522844Y1295668D01*
X2520812Y1296684D01*
X2518780Y1295668D01*
X2570468Y986967D02*
X2571484Y988999D01*
X2570468Y991031D01*
X2572500Y990015D01*
X2574532Y991031D01*
X2573516Y988999D01*
X2574532Y986967D01*
X2572500Y987983D01*
X2570468Y986967D01*
X2545468D02*
X2546484Y988999D01*
X2545468Y991031D01*
X2547500Y990015D01*
X2549532Y991031D01*
X2548516Y988999D01*
X2549532Y986967D01*
X2547500Y987983D01*
X2545468Y986967D01*
X2520468D02*
X2521484Y988999D01*
X2520468Y991031D01*
X2522500Y990015D01*
X2524532Y991031D01*
X2523516Y988999D01*
X2524532Y986967D01*
X2522500Y987983D01*
X2520468Y986967D01*
X2495468D02*
X2496484Y988999D01*
X2495468Y991031D01*
X2497500Y990015D01*
X2499532Y991031D01*
X2498516Y988999D01*
X2499532Y986967D01*
X2497500Y987983D01*
X2495468Y986967D01*
X2470468D02*
X2471484Y988999D01*
X2470468Y991031D01*
X2472500Y990015D01*
X2474532Y991031D01*
X2473516Y988999D01*
X2474532Y986967D01*
X2472500Y987983D01*
X2470468Y986967D01*
X2445468D02*
X2446484Y988999D01*
X2445468Y991031D01*
X2447500Y990015D01*
X2449532Y991031D01*
X2448516Y988999D01*
X2449532Y986967D01*
X2447500Y987983D01*
X2445468Y986967D01*
X2570468Y920468D02*
X2571484Y922500D01*
X2570468Y924532D01*
X2572500Y923516D01*
X2574532Y924532D01*
X2573516Y922500D01*
X2574532Y920468D01*
X2572500Y921484D01*
X2570468Y920468D01*
X2545468D02*
X2546484Y922500D01*
X2545468Y924532D01*
X2547500Y923516D01*
X2549532Y924532D01*
X2548516Y922500D01*
X2549532Y920468D01*
X2547500Y921484D01*
X2545468Y920468D01*
X2520468D02*
X2521484Y922500D01*
X2520468Y924532D01*
X2522500Y923516D01*
X2524532Y924532D01*
X2523516Y922500D01*
X2524532Y920468D01*
X2522500Y921484D01*
X2520468Y920468D01*
X2495468D02*
X2496484Y922500D01*
X2495468Y924532D01*
X2497500Y923516D01*
X2499532Y924532D01*
X2498516Y922500D01*
X2499532Y920468D01*
X2497500Y921484D01*
X2495468Y920468D01*
X2470468D02*
X2471484Y922500D01*
X2470468Y924532D01*
X2472500Y923516D01*
X2474532Y924532D01*
X2473516Y922500D01*
X2474532Y920468D01*
X2472500Y921484D01*
X2470468Y920468D01*
X2445468D02*
X2446484Y922500D01*
X2445468Y924532D01*
X2447500Y923516D01*
X2449532Y924532D01*
X2448516Y922500D01*
X2449532Y920468D01*
X2447500Y921484D01*
X2445468Y920468D01*
X2091984Y1309984D02*
Y1308968D01*
X2094016D01*
Y1309984D01*
X2095032D01*
Y1312016D01*
X2094016D01*
Y1313032D01*
X2091984D01*
Y1312016D01*
X2090968D01*
Y1309984D01*
X2091984D01*
Y1329984D02*
Y1328968D01*
X2094016D01*
Y1329984D01*
X2095032D01*
Y1332016D01*
X2094016D01*
Y1333032D01*
X2091984D01*
Y1332016D01*
X2090968D01*
Y1329984D01*
X2091984D01*
Y1349984D02*
Y1348968D01*
X2094016D01*
Y1349984D01*
X2095032D01*
Y1352016D01*
X2094016D01*
Y1353032D01*
X2091984D01*
Y1352016D01*
X2090968D01*
Y1349984D01*
X2091984D01*
X2096984Y908984D02*
Y907968D01*
X2099016D01*
Y908984D01*
X2100032D01*
Y911016D01*
X2099016D01*
Y912032D01*
X2096984D01*
Y911016D01*
X2095968D01*
Y908984D01*
X2096984D01*
Y928984D02*
Y927968D01*
X2099016D01*
Y928984D01*
X2100032D01*
Y931016D01*
X2099016D01*
Y932032D01*
X2096984D01*
Y931016D01*
X2095968D01*
Y928984D01*
X2096984D01*
Y948984D02*
Y947968D01*
X2099016D01*
Y948984D01*
X2100032D01*
Y951016D01*
X2099016D01*
Y952032D01*
X2096984D01*
Y951016D01*
X2095968D01*
Y948984D01*
X2096984D01*
X2891484Y947984D02*
Y946968D01*
X2893516D01*
Y947984D01*
X2894532D01*
Y950016D01*
X2893516D01*
Y951032D01*
X2891484D01*
Y950016D01*
X2890468D01*
Y947984D01*
X2891484D01*
Y927984D02*
Y926968D01*
X2893516D01*
Y927984D01*
X2894532D01*
Y930016D01*
X2893516D01*
Y931032D01*
X2891484D01*
Y930016D01*
X2890468D01*
Y927984D01*
X2891484D01*
Y907984D02*
Y906968D01*
X2893516D01*
Y907984D01*
X2894532D01*
Y910016D01*
X2893516D01*
Y911032D01*
X2891484D01*
Y910016D01*
X2890468D01*
Y907984D01*
X2891484D01*
X2893484Y1349984D02*
Y1348968D01*
X2895516D01*
Y1349984D01*
X2896532D01*
Y1352016D01*
X2895516D01*
Y1353032D01*
X2893484D01*
Y1352016D01*
X2892468D01*
Y1349984D01*
X2893484D01*
Y1329984D02*
Y1328968D01*
X2895516D01*
Y1329984D01*
X2896532D01*
Y1332016D01*
X2895516D01*
Y1333032D01*
X2893484D01*
Y1332016D01*
X2892468D01*
Y1329984D01*
X2893484D01*
Y1309984D02*
Y1308968D01*
X2895516D01*
Y1309984D01*
X2896532D01*
Y1312016D01*
X2895516D01*
Y1313032D01*
X2893484D01*
Y1312016D01*
X2892468D01*
Y1309984D01*
X2893484D01*
X2715000Y1060468D02*
X2716016Y1061484D01*
X2717032D01*
X2716016Y1062500D01*
X2717032Y1063516D01*
X2716016D01*
X2715000Y1064532D01*
X2713984Y1063516D01*
X2712968D01*
X2713984Y1062500D01*
X2712968Y1061484D01*
X2713984D01*
X2715000Y1060468D01*
X2735000D02*
X2736016Y1061484D01*
X2737032D01*
X2736016Y1062500D01*
X2737032Y1063516D01*
X2736016D01*
X2735000Y1064532D01*
X2733984Y1063516D01*
X2732968D01*
X2733984Y1062500D01*
X2732968Y1061484D01*
X2733984D01*
X2735000Y1060468D01*
X2755000D02*
X2756016Y1061484D01*
X2757032D01*
X2756016Y1062500D01*
X2757032Y1063516D01*
X2756016D01*
X2755000Y1064532D01*
X2753984Y1063516D01*
X2752968D01*
X2753984Y1062500D01*
X2752968Y1061484D01*
X2753984D01*
X2755000Y1060468D01*
X2775000D02*
X2776016Y1061484D01*
X2777032D01*
X2776016Y1062500D01*
X2777032Y1063516D01*
X2776016D01*
X2775000Y1064532D01*
X2773984Y1063516D01*
X2772968D01*
X2773984Y1062500D01*
X2772968Y1061484D01*
X2773984D01*
X2775000Y1060468D01*
X2795000D02*
X2796016Y1061484D01*
X2797032D01*
X2796016Y1062500D01*
X2797032Y1063516D01*
X2796016D01*
X2795000Y1064532D01*
X2793984Y1063516D01*
X2792968D01*
X2793984Y1062500D01*
X2792968Y1061484D01*
X2793984D01*
X2795000Y1060468D01*
X2715000Y905968D02*
X2716016Y906984D01*
X2717032D01*
X2716016Y908000D01*
X2717032Y909016D01*
X2716016D01*
X2715000Y910032D01*
X2713984Y909016D01*
X2712968D01*
X2713984Y908000D01*
X2712968Y906984D01*
X2713984D01*
X2715000Y905968D01*
X2735000D02*
X2736016Y906984D01*
X2737032D01*
X2736016Y908000D01*
X2737032Y909016D01*
X2736016D01*
X2735000Y910032D01*
X2733984Y909016D01*
X2732968D01*
X2733984Y908000D01*
X2732968Y906984D01*
X2733984D01*
X2735000Y905968D01*
X2755000D02*
X2756016Y906984D01*
X2757032D01*
X2756016Y908000D01*
X2757032Y909016D01*
X2756016D01*
X2755000Y910032D01*
X2753984Y909016D01*
X2752968D01*
X2753984Y908000D01*
X2752968Y906984D01*
X2753984D01*
X2755000Y905968D01*
X2775000D02*
X2776016Y906984D01*
X2777032D01*
X2776016Y908000D01*
X2777032Y909016D01*
X2776016D01*
X2775000Y910032D01*
X2773984Y909016D01*
X2772968D01*
X2773984Y908000D01*
X2772968Y906984D01*
X2773984D01*
X2775000Y905968D01*
X2795000D02*
X2796016Y906984D01*
X2797032D01*
X2796016Y908000D01*
X2797032Y909016D01*
X2796016D01*
X2795000Y910032D01*
X2793984Y909016D01*
X2792968D01*
X2793984Y908000D01*
X2792968Y906984D01*
X2793984D01*
X2795000Y905968D01*
X2715000Y1110468D02*
X2716016Y1111484D01*
X2717032D01*
X2716016Y1112500D01*
X2717032Y1113516D01*
X2716016D01*
X2715000Y1114532D01*
X2713984Y1113516D01*
X2712968D01*
X2713984Y1112500D01*
X2712968Y1111484D01*
X2713984D01*
X2715000Y1110468D01*
X2735000D02*
X2736016Y1111484D01*
X2737032D01*
X2736016Y1112500D01*
X2737032Y1113516D01*
X2736016D01*
X2735000Y1114532D01*
X2733984Y1113516D01*
X2732968D01*
X2733984Y1112500D01*
X2732968Y1111484D01*
X2733984D01*
X2735000Y1110468D01*
X2755000D02*
X2756016Y1111484D01*
X2757032D01*
X2756016Y1112500D01*
X2757032Y1113516D01*
X2756016D01*
X2755000Y1114532D01*
X2753984Y1113516D01*
X2752968D01*
X2753984Y1112500D01*
X2752968Y1111484D01*
X2753984D01*
X2755000Y1110468D01*
X2775000D02*
X2776016Y1111484D01*
X2777032D01*
X2776016Y1112500D01*
X2777032Y1113516D01*
X2776016D01*
X2775000Y1114532D01*
X2773984Y1113516D01*
X2772968D01*
X2773984Y1112500D01*
X2772968Y1111484D01*
X2773984D01*
X2775000Y1110468D01*
X2795000D02*
X2796016Y1111484D01*
X2797032D01*
X2796016Y1112500D01*
X2797032Y1113516D01*
X2796016D01*
X2795000Y1114532D01*
X2793984Y1113516D01*
X2792968D01*
X2793984Y1112500D01*
X2792968Y1111484D01*
X2793984D01*
X2795000Y1110468D01*
X2715000Y1008968D02*
X2716016Y1009984D01*
X2717032D01*
X2716016Y1011000D01*
X2717032Y1012016D01*
X2716016D01*
X2715000Y1013032D01*
X2713984Y1012016D01*
X2712968D01*
X2713984Y1011000D01*
X2712968Y1009984D01*
X2713984D01*
X2715000Y1008968D01*
X2735000D02*
X2736016Y1009984D01*
X2737032D01*
X2736016Y1011000D01*
X2737032Y1012016D01*
X2736016D01*
X2735000Y1013032D01*
X2733984Y1012016D01*
X2732968D01*
X2733984Y1011000D01*
X2732968Y1009984D01*
X2733984D01*
X2735000Y1008968D01*
X2755000D02*
X2756016Y1009984D01*
X2757032D01*
X2756016Y1011000D01*
X2757032Y1012016D01*
X2756016D01*
X2755000Y1013032D01*
X2753984Y1012016D01*
X2752968D01*
X2753984Y1011000D01*
X2752968Y1009984D01*
X2753984D01*
X2755000Y1008968D01*
X2775000D02*
X2776016Y1009984D01*
X2777032D01*
X2776016Y1011000D01*
X2777032Y1012016D01*
X2776016D01*
X2775000Y1013032D01*
X2773984Y1012016D01*
X2772968D01*
X2773984Y1011000D01*
X2772968Y1009984D01*
X2773984D01*
X2775000Y1008968D01*
X2795000D02*
X2796016Y1009984D01*
X2797032D01*
X2796016Y1011000D01*
X2797032Y1012016D01*
X2796016D01*
X2795000Y1013032D01*
X2793984Y1012016D01*
X2792968D01*
X2793984Y1011000D01*
X2792968Y1009984D01*
X2793984D01*
X2795000Y1008968D01*
X2180468Y1325468D02*
X2181484Y1327500D01*
X2180468Y1329532D01*
X2182500Y1328516D01*
X2184532Y1329532D01*
X2183516Y1327500D01*
X2184532Y1325468D01*
X2182500Y1326484D01*
X2180468Y1325468D01*
Y1350868D02*
X2181484Y1352900D01*
X2180468Y1354932D01*
X2182500Y1353916D01*
X2184532Y1354932D01*
X2183516Y1352900D01*
X2184532Y1350868D01*
X2182500Y1351884D01*
X2180468Y1350868D01*
X2094000Y1201968D02*
X2095016Y1202984D01*
X2096032D01*
X2095016Y1204000D01*
X2096032Y1205016D01*
X2095016D01*
X2094000Y1206032D01*
X2092984Y1205016D01*
X2091968D01*
X2092984Y1204000D01*
X2091968Y1202984D01*
X2092984D01*
X2094000Y1201968D01*
X2109000D02*
X2110016Y1202984D01*
X2111032D01*
X2110016Y1204000D01*
X2111032Y1205016D01*
X2110016D01*
X2109000Y1206032D01*
X2107984Y1205016D01*
X2106968D01*
X2107984Y1204000D01*
X2106968Y1202984D01*
X2107984D01*
X2109000Y1201968D01*
X2124000D02*
X2125016Y1202984D01*
X2126032D01*
X2125016Y1204000D01*
X2126032Y1205016D01*
X2125016D01*
X2124000Y1206032D01*
X2122984Y1205016D01*
X2121968D01*
X2122984Y1204000D01*
X2121968Y1202984D01*
X2122984D01*
X2124000Y1201968D01*
X2094000Y1159468D02*
X2095016Y1160484D01*
X2096032D01*
X2095016Y1161500D01*
X2096032Y1162516D01*
X2095016D01*
X2094000Y1163532D01*
X2092984Y1162516D01*
X2091968D01*
X2092984Y1161500D01*
X2091968Y1160484D01*
X2092984D01*
X2094000Y1159468D01*
X2109000D02*
X2110016Y1160484D01*
X2111032D01*
X2110016Y1161500D01*
X2111032Y1162516D01*
X2110016D01*
X2109000Y1163532D01*
X2107984Y1162516D01*
X2106968D01*
X2107984Y1161500D01*
X2106968Y1160484D01*
X2107984D01*
X2109000Y1159468D01*
X2124000D02*
X2125016Y1160484D01*
X2126032D01*
X2125016Y1161500D01*
X2126032Y1162516D01*
X2125016D01*
X2124000Y1163532D01*
X2122984Y1162516D01*
X2121968D01*
X2122984Y1161500D01*
X2121968Y1160484D01*
X2122984D01*
X2124000Y1159468D01*
X2093750Y1116468D02*
X2094766Y1117484D01*
X2095782D01*
X2094766Y1118500D01*
X2095782Y1119516D01*
X2094766D01*
X2093750Y1120532D01*
X2092734Y1119516D01*
X2091718D01*
X2092734Y1118500D01*
X2091718Y1117484D01*
X2092734D01*
X2093750Y1116468D01*
X2108750D02*
X2109766Y1117484D01*
X2110782D01*
X2109766Y1118500D01*
X2110782Y1119516D01*
X2109766D01*
X2108750Y1120532D01*
X2107734Y1119516D01*
X2106718D01*
X2107734Y1118500D01*
X2106718Y1117484D01*
X2107734D01*
X2108750Y1116468D01*
X2123750D02*
X2124766Y1117484D01*
X2125782D01*
X2124766Y1118500D01*
X2125782Y1119516D01*
X2124766D01*
X2123750Y1120532D01*
X2122734Y1119516D01*
X2121718D01*
X2122734Y1118500D01*
X2121718Y1117484D01*
X2122734D01*
X2123750Y1116468D01*
X2840218Y1329968D02*
Y1334032D01*
X2844282D01*
Y1329968D01*
X2840218D01*
Y1349968D02*
Y1354032D01*
X2844282D01*
Y1349968D01*
X2840218D01*
X2836718Y906468D02*
Y910532D01*
X2840782D01*
Y906468D01*
X2836718D01*
Y926468D02*
Y930532D01*
X2840782D01*
Y926468D01*
X2836718D01*
X2312500Y1070468D02*
X2313516Y1071484D01*
X2314532D01*
X2313516Y1072500D01*
X2314532Y1073516D01*
X2313516D01*
X2312500Y1074532D01*
X2311484Y1073516D01*
X2310468D01*
X2311484Y1072500D01*
X2310468Y1071484D01*
X2311484D01*
X2312500Y1070468D01*
X2332500D02*
X2333516Y1071484D01*
X2334532D01*
X2333516Y1072500D01*
X2334532Y1073516D01*
X2333516D01*
X2332500Y1074532D01*
X2331484Y1073516D01*
X2330468D01*
X2331484Y1072500D01*
X2330468Y1071484D01*
X2331484D01*
X2332500Y1070468D01*
X2352500D02*
X2353516Y1071484D01*
X2354532D01*
X2353516Y1072500D01*
X2354532Y1073516D01*
X2353516D01*
X2352500Y1074532D01*
X2351484Y1073516D01*
X2350468D01*
X2351484Y1072500D01*
X2350468Y1071484D01*
X2351484D01*
X2352500Y1070468D01*
X2372500D02*
X2373516Y1071484D01*
X2374532D01*
X2373516Y1072500D01*
X2374532Y1073516D01*
X2373516D01*
X2372500Y1074532D01*
X2371484Y1073516D01*
X2370468D01*
X2371484Y1072500D01*
X2370468Y1071484D01*
X2371484D01*
X2372500Y1070468D01*
X2392500D02*
X2393516Y1071484D01*
X2394532D01*
X2393516Y1072500D01*
X2394532Y1073516D01*
X2393516D01*
X2392500Y1074532D01*
X2391484Y1073516D01*
X2390468D01*
X2391484Y1072500D01*
X2390468Y1071484D01*
X2391484D01*
X2392500Y1070468D01*
X2412500D02*
X2413516Y1071484D01*
X2414532D01*
X2413516Y1072500D01*
X2414532Y1073516D01*
X2413516D01*
X2412500Y1074532D01*
X2411484Y1073516D01*
X2410468D01*
X2411484Y1072500D01*
X2410468Y1071484D01*
X2411484D01*
X2412500Y1070468D01*
X2096000Y1077968D02*
X2097016Y1078984D01*
X2098032D01*
X2097016Y1080000D01*
X2098032Y1081016D01*
X2097016D01*
X2096000Y1082032D01*
X2094984Y1081016D01*
X2093968D01*
X2094984Y1080000D01*
X2093968Y1078984D01*
X2094984D01*
X2096000Y1077968D01*
X2111000D02*
X2112016Y1078984D01*
X2113032D01*
X2112016Y1080000D01*
X2113032Y1081016D01*
X2112016D01*
X2111000Y1082032D01*
X2109984Y1081016D01*
X2108968D01*
X2109984Y1080000D01*
X2108968Y1078984D01*
X2109984D01*
X2111000Y1077968D01*
X2126000D02*
X2127016Y1078984D01*
X2128032D01*
X2127016Y1080000D01*
X2128032Y1081016D01*
X2127016D01*
X2126000Y1082032D01*
X2124984Y1081016D01*
X2123968D01*
X2124984Y1080000D01*
X2123968Y1078984D01*
X2124984D01*
X2126000Y1077968D01*
X2141000D02*
X2142016Y1078984D01*
X2143032D01*
X2142016Y1080000D01*
X2143032Y1081016D01*
X2142016D01*
X2141000Y1082032D01*
X2139984Y1081016D01*
X2138968D01*
X2139984Y1080000D01*
X2138968Y1078984D01*
X2139984D01*
X2141000Y1077968D01*
X2156000D02*
X2157016Y1078984D01*
X2158032D01*
X2157016Y1080000D01*
X2158032Y1081016D01*
X2157016D01*
X2156000Y1082032D01*
X2154984Y1081016D01*
X2153968D01*
X2154984Y1080000D01*
X2153968Y1078984D01*
X2154984D01*
X2156000Y1077968D01*
X2171000D02*
X2172016Y1078984D01*
X2173032D01*
X2172016Y1080000D01*
X2173032Y1081016D01*
X2172016D01*
X2171000Y1082032D01*
X2169984Y1081016D01*
X2168968D01*
X2169984Y1080000D01*
X2168968Y1078984D01*
X2169984D01*
X2171000Y1077968D01*
X2142968Y1348968D02*
Y1353032D01*
X2147032D01*
Y1348968D01*
X2142968D01*
Y1328968D02*
Y1333032D01*
X2147032D01*
Y1328968D01*
X2142968D01*
X2147968Y927968D02*
Y932032D01*
X2152032D01*
Y927968D01*
X2147968D01*
Y907968D02*
Y912032D01*
X2152032D01*
Y907968D01*
X2147968D01*
X2022468Y1267968D02*
X2023484Y1270000D01*
X2022468Y1272032D01*
X2024500Y1271016D01*
X2026532Y1272032D01*
X2025516Y1270000D01*
X2026532Y1267968D01*
X2024500Y1268984D01*
X2022468Y1267968D01*
Y1292968D02*
X2023484Y1295000D01*
X2022468Y1297032D01*
X2024500Y1296016D01*
X2026532Y1297032D01*
X2025516Y1295000D01*
X2026532Y1292968D01*
X2024500Y1293984D01*
X2022468Y1292968D01*
Y1317968D02*
X2023484Y1320000D01*
X2022468Y1322032D01*
X2024500Y1321016D01*
X2026532Y1322032D01*
X2025516Y1320000D01*
X2026532Y1317968D01*
X2024500Y1318984D01*
X2022468Y1317968D01*
Y1342968D02*
X2023484Y1345000D01*
X2022468Y1347032D01*
X2024500Y1346016D01*
X2026532Y1347032D01*
X2025516Y1345000D01*
X2026532Y1342968D01*
X2024500Y1343984D01*
X2022468Y1342968D01*
X2037968Y987968D02*
X2038984Y990000D01*
X2037968Y992032D01*
X2040000Y991016D01*
X2042032Y992032D01*
X2041016Y990000D01*
X2042032Y987968D01*
X2040000Y988984D01*
X2037968Y987968D01*
Y962968D02*
X2038984Y965000D01*
X2037968Y967032D01*
X2040000Y966016D01*
X2042032Y967032D01*
X2041016Y965000D01*
X2042032Y962968D01*
X2040000Y963984D01*
X2037968Y962968D01*
Y937968D02*
X2038984Y940000D01*
X2037968Y942032D01*
X2040000Y941016D01*
X2042032Y942032D01*
X2041016Y940000D01*
X2042032Y937968D01*
X2040000Y938984D01*
X2037968Y937968D01*
Y912968D02*
X2038984Y915000D01*
X2037968Y917032D01*
X2040000Y916016D01*
X2042032Y917032D01*
X2041016Y915000D01*
X2042032Y912968D01*
X2040000Y913984D01*
X2037968Y912968D01*
X2958468Y987968D02*
X2959484Y990000D01*
X2958468Y992032D01*
X2960500Y991016D01*
X2962532Y992032D01*
X2961516Y990000D01*
X2962532Y987968D01*
X2960500Y988984D01*
X2958468Y987968D01*
Y962968D02*
X2959484Y965000D01*
X2958468Y967032D01*
X2960500Y966016D01*
X2962532Y967032D01*
X2961516Y965000D01*
X2962532Y962968D01*
X2960500Y963984D01*
X2958468Y962968D01*
Y937968D02*
X2959484Y940000D01*
X2958468Y942032D01*
X2960500Y941016D01*
X2962532Y942032D01*
X2961516Y940000D01*
X2962532Y937968D01*
X2960500Y938984D01*
X2958468Y937968D01*
Y912968D02*
X2959484Y915000D01*
X2958468Y917032D01*
X2960500Y916016D01*
X2962532Y917032D01*
X2961516Y915000D01*
X2962532Y912968D01*
X2960500Y913984D01*
X2958468Y912968D01*
X2950468Y1267968D02*
X2951484Y1270000D01*
X2950468Y1272032D01*
X2952500Y1271016D01*
X2954532Y1272032D01*
X2953516Y1270000D01*
X2954532Y1267968D01*
X2952500Y1268984D01*
X2950468Y1267968D01*
Y1292968D02*
X2951484Y1295000D01*
X2950468Y1297032D01*
X2952500Y1296016D01*
X2954532Y1297032D01*
X2953516Y1295000D01*
X2954532Y1292968D01*
X2952500Y1293984D01*
X2950468Y1292968D01*
Y1317968D02*
X2951484Y1320000D01*
X2950468Y1322032D01*
X2952500Y1321016D01*
X2954532Y1322032D01*
X2953516Y1320000D01*
X2954532Y1317968D01*
X2952500Y1318984D01*
X2950468Y1317968D01*
Y1342968D02*
X2951484Y1345000D01*
X2950468Y1347032D01*
X2952500Y1346016D01*
X2954532Y1347032D01*
X2953516Y1345000D01*
X2954532Y1342968D01*
X2952500Y1343984D01*
X2950468Y1342968D01*
X2900718Y1222718D02*
X2901734D01*
X2902750Y1223734D01*
X2903766Y1222718D01*
X2904782D01*
Y1223734D01*
X2903766Y1224750D01*
X2904782Y1225766D01*
Y1226782D01*
X2903766D01*
X2902750Y1225766D01*
X2901734Y1226782D01*
X2900718D01*
Y1225766D01*
X2901734Y1224750D01*
X2900718Y1223734D01*
Y1222718D01*
X2841968Y986968D02*
X2842984D01*
X2844000Y987984D01*
X2845016Y986968D01*
X2846032D01*
Y987984D01*
X2845016Y989000D01*
X2846032Y990016D01*
Y991032D01*
X2845016D01*
X2844000Y990016D01*
X2842984Y991032D01*
X2841968D01*
Y990016D01*
X2842984Y989000D01*
X2841968Y987984D01*
Y986968D01*
X2016968Y1039968D02*
X2017984D01*
X2019000Y1040984D01*
X2020016Y1039968D01*
X2021032D01*
Y1040984D01*
X2020016Y1042000D01*
X2021032Y1043016D01*
Y1044032D01*
X2020016D01*
X2019000Y1043016D01*
X2017984Y1044032D01*
X2016968D01*
Y1043016D01*
X2017984Y1042000D01*
X2016968Y1040984D01*
Y1039968D01*
X2495468Y1078468D02*
X2496484D01*
X2497500Y1079484D01*
X2498516Y1078468D01*
X2499532D01*
Y1079484D01*
X2498516Y1080500D01*
X2499532Y1081516D01*
Y1082532D01*
X2498516D01*
X2497500Y1081516D01*
X2496484Y1082532D01*
X2495468D01*
Y1081516D01*
X2496484Y1080500D01*
X2495468Y1079484D01*
Y1078468D01*
X2222218D02*
X2223234D01*
X2224250Y1079484D01*
X2225266Y1078468D01*
X2226282D01*
Y1079484D01*
X2225266Y1080500D01*
X2226282Y1081516D01*
Y1082532D01*
X2225266D01*
X2224250Y1081516D01*
X2223234Y1082532D01*
X2222218D01*
Y1081516D01*
X2223234Y1080500D01*
X2222218Y1079484D01*
Y1078468D01*
X2234718Y1340968D02*
X2235734D01*
X2236750Y1341984D01*
X2237766Y1340968D01*
X2238782D01*
Y1341984D01*
X2237766Y1343000D01*
X2238782Y1344016D01*
Y1345032D01*
X2237766D01*
X2236750Y1344016D01*
X2235734Y1345032D01*
X2234718D01*
Y1344016D01*
X2235734Y1343000D01*
X2234718Y1341984D01*
Y1340968D01*
X2482968D02*
X2483984D01*
X2485000Y1341984D01*
X2486016Y1340968D01*
X2487032D01*
Y1341984D01*
X2486016Y1343000D01*
X2487032Y1344016D01*
Y1345032D01*
X2486016D01*
X2485000Y1344016D01*
X2483984Y1345032D01*
X2482968D01*
Y1344016D01*
X2483984Y1343000D01*
X2482968Y1341984D01*
Y1340968D01*
X2365083Y1155056D02*
X2367115Y1157088D01*
X2369147Y1155056D01*
X2367115Y1153024D01*
X2365083Y1155056D01*
X2307468Y1217750D02*
X2309500Y1219782D01*
X2311532Y1217750D01*
X2309500Y1215718D01*
X2307468Y1217750D01*
X2295468Y1217500D02*
X2297500Y1219532D01*
X2299532Y1217500D01*
X2297500Y1215468D01*
X2295468Y1217500D01*
X2467180Y1217719D02*
X2469212Y1219751D01*
X2471244Y1217719D01*
X2469212Y1215686D01*
X2467180Y1217719D01*
X2806670Y1024601D02*
X2808702Y1026633D01*
X2810734Y1024601D01*
X2808702Y1022569D01*
X2806670Y1024601D01*
X2839718Y1037250D02*
X2841750Y1039282D01*
X2843782Y1037250D01*
X2841750Y1035218D01*
X2839718Y1037250D01*
X2127198Y1005000D02*
X2129230Y1007032D01*
X2131262Y1005000D01*
X2129230Y1002968D01*
X2127198Y1005000D01*
X2517968Y1153000D02*
X2520000Y1155032D01*
X2522032Y1153000D01*
X2520000Y1150968D01*
X2517968Y1153000D01*
X2197158Y1342500D02*
X2199190Y1344532D01*
X2201222Y1342500D01*
X2199190Y1340468D01*
X2197158Y1342500D01*
X2203474Y1202087D02*
X2205506Y1204119D01*
X2207538Y1202087D01*
X2205506Y1200055D01*
X2203474Y1202087D01*
X2239658Y1168500D02*
X2241690Y1170532D01*
X2243722Y1168500D01*
X2241690Y1166468D01*
X2239658Y1168500D01*
X2245668Y1180487D02*
X2247700Y1182519D01*
X2249732Y1180487D01*
X2247700Y1178455D01*
X2245668Y1180487D01*
X2402468Y1161000D02*
X2404500Y1163032D01*
X2406532Y1161000D01*
X2404500Y1158968D01*
X2402468Y1161000D01*
X2389890Y1160922D02*
X2391922Y1162954D01*
X2393954Y1160922D01*
X2391922Y1158890D01*
X2389890Y1160922D01*
X2376831Y1159613D02*
X2378863Y1161645D01*
X2380895Y1159613D01*
X2378863Y1157581D01*
X2376831Y1159613D01*
X2716218Y1084000D02*
X2718250Y1086032D01*
X2720282Y1084000D01*
X2718250Y1081968D01*
X2716218Y1084000D01*
X2409745Y966527D02*
X2411777Y968559D01*
X2413809Y966527D01*
X2411777Y964495D01*
X2409745Y966527D01*
X2161468Y1250050D02*
X2163500Y1252082D01*
X2165532Y1250050D01*
X2163500Y1248018D01*
X2161468Y1250050D01*
X2955968Y1023000D02*
X2958000Y1025032D01*
X2960032Y1023000D01*
X2958000Y1020968D01*
X2955968Y1023000D01*
X2534618Y1182215D02*
X2536650Y1184247D01*
X2538682Y1182215D01*
X2536650Y1180182D01*
X2534618Y1182215D01*
X2242718Y1269500D02*
X2244750Y1271532D01*
X2246782Y1269500D01*
X2244750Y1267468D01*
X2242718Y1269500D01*
X2243218Y1256750D02*
X2245250Y1258782D01*
X2247282Y1256750D01*
X2245250Y1254718D01*
X2243218Y1256750D01*
X2227968Y1245940D02*
X2230000Y1247972D01*
X2232032Y1245940D01*
X2230000Y1243908D01*
X2227968Y1245940D01*
X2060968Y1224000D02*
X2063000Y1226032D01*
X2065032Y1224000D01*
X2063000Y1221968D01*
X2060968Y1224000D01*
X2414968Y1100000D02*
X2417000Y1102032D01*
X2419032Y1100000D01*
X2417000Y1097968D01*
X2414968Y1100000D01*
X2427968Y1101000D02*
X2430000Y1103032D01*
X2432032Y1101000D01*
X2430000Y1098968D01*
X2427968Y1101000D01*
X2176778Y937000D02*
X2178810Y939032D01*
X2180842Y937000D01*
X2178810Y934968D01*
X2176778Y937000D01*
X2842968Y1243810D02*
X2845000Y1245842D01*
X2847032Y1243810D01*
X2845000Y1241778D01*
X2842968Y1243810D01*
X2916968Y1163000D02*
X2919000Y1165032D01*
X2921032Y1163000D01*
X2919000Y1160968D01*
X2916968Y1163000D01*
X2854698Y1323000D02*
X2856730Y1325032D01*
X2858762Y1323000D01*
X2856730Y1320968D01*
X2854698Y1323000D01*
X2862968Y1330000D02*
X2865000Y1332032D01*
X2867032Y1330000D01*
X2865000Y1327968D01*
X2862968Y1330000D01*
X2264968Y1119000D02*
X2267000Y1121032D01*
X2269032Y1119000D01*
X2267000Y1116968D01*
X2264968Y1119000D01*
X2283968Y1081000D02*
X2286000Y1083032D01*
X2288032Y1081000D01*
X2286000Y1078968D01*
X2283968Y1081000D01*
X2362968Y1008000D02*
X2365000Y1010032D01*
X2367032Y1008000D01*
X2365000Y1005968D01*
X2362968Y1008000D01*
X2313968Y1004000D02*
X2316000Y1006032D01*
X2318032Y1004000D01*
X2316000Y1001968D01*
X2313968Y1004000D01*
X2321968Y1041000D02*
X2324000Y1043032D01*
X2326032Y1041000D01*
X2324000Y1038968D01*
X2321968Y1041000D01*
X2466968Y1071000D02*
X2469000Y1073032D01*
X2471032Y1071000D01*
X2469000Y1068968D01*
X2466968Y1071000D01*
X2609968Y1230000D02*
X2612000Y1232032D01*
X2614032Y1230000D01*
X2612000Y1227968D01*
X2609968Y1230000D01*
X2529624Y1169384D02*
X2531656Y1171416D01*
X2533688Y1169384D01*
X2531656Y1167352D01*
X2529624Y1169384D01*
X2520419Y1164277D02*
X2522451Y1166309D01*
X2524483Y1164277D01*
X2522451Y1162244D01*
X2520419Y1164277D01*
X2551968Y1153968D02*
X2554000Y1156000D01*
X2556032Y1153968D01*
X2554000Y1151936D01*
X2551968Y1153968D01*
X2793968Y1274000D02*
X2796000Y1276032D01*
X2798032Y1274000D01*
X2796000Y1271968D01*
X2793968Y1274000D01*
X2578968Y1094000D02*
X2581000Y1096032D01*
X2583032Y1094000D01*
X2581000Y1091968D01*
X2578968Y1094000D01*
X2581968Y1072000D02*
X2584000Y1074032D01*
X2586032Y1072000D01*
X2584000Y1069968D01*
X2581968Y1072000D01*
X2309968Y968000D02*
X2312000Y970032D01*
X2314032Y968000D01*
X2312000Y965968D01*
X2309968Y968000D01*
X2245968Y1233000D02*
X2248000Y1235032D01*
X2250032Y1233000D01*
X2248000Y1230968D01*
X2245968Y1233000D01*
X2245468Y1244000D02*
X2247500Y1246032D01*
X2249532Y1244000D01*
X2247500Y1241968D01*
X2245468Y1244000D01*
X2114706Y1240762D02*
X2116738Y1242794D01*
X2118770Y1240762D01*
X2116738Y1238730D01*
X2114706Y1240762D01*
X2135998Y1121000D02*
X2138030Y1123032D01*
X2140062Y1121000D01*
X2138030Y1118968D01*
X2135998Y1121000D01*
Y1143310D02*
X2138030Y1145342D01*
X2140062Y1143310D01*
X2138030Y1141278D01*
X2135998Y1143310D01*
X2821968Y1113000D02*
X2824000Y1115032D01*
X2826032Y1113000D01*
X2824000Y1110968D01*
X2821968Y1113000D01*
X2884468Y1058710D02*
X2886500Y1060742D01*
X2888532Y1058710D01*
X2886500Y1056678D01*
X2884468Y1058710D01*
X2431968Y1066000D02*
X2434000Y1068032D01*
X2436032Y1066000D01*
X2434000Y1063968D01*
X2431968Y1066000D01*
X2612968Y1258000D02*
X2615000Y1260032D01*
X2617032Y1258000D01*
X2615000Y1255968D01*
X2612968Y1258000D01*
X2531968Y1245000D02*
X2534000Y1247032D01*
X2536032Y1245000D01*
X2534000Y1242968D01*
X2531968Y1245000D01*
X2467968Y1269000D02*
X2470000Y1271032D01*
X2472032Y1269000D01*
X2470000Y1266968D01*
X2467968Y1269000D01*
X2531968Y1257000D02*
X2534000Y1259032D01*
X2536032Y1257000D01*
X2534000Y1254968D01*
X2531968Y1257000D01*
Y1270000D02*
X2534000Y1272032D01*
X2536032Y1270000D01*
X2534000Y1267968D01*
X2531968Y1270000D01*
X2631968Y938000D02*
X2634000Y940032D01*
X2636032Y938000D01*
X2634000Y935968D01*
X2631968Y938000D01*
X2802968Y1210000D02*
X2805000Y1212032D01*
X2807032Y1210000D01*
X2805000Y1207968D01*
X2802968Y1210000D01*
X2713968D02*
X2716000Y1212032D01*
X2718032Y1210000D01*
X2716000Y1207968D01*
X2713968Y1210000D01*
X2467968Y1256000D02*
X2470000Y1258032D01*
X2472032Y1256000D01*
X2470000Y1253968D01*
X2467968Y1256000D01*
X2477968Y1295000D02*
X2480000Y1297032D01*
X2482032Y1295000D01*
X2480000Y1292968D01*
X2477968Y1295000D01*
X2467968Y1282200D02*
X2470000Y1284232D01*
X2472032Y1282200D01*
X2470000Y1280168D01*
X2467968Y1282200D01*
Y1168000D02*
X2470000Y1170032D01*
X2472032Y1168000D01*
X2470000Y1165968D01*
X2467968Y1168000D01*
X2452968Y1114030D02*
X2455000Y1116062D01*
X2457032Y1114030D01*
X2455000Y1111998D01*
X2452968Y1114030D01*
X2481968Y1152000D02*
X2484000Y1154032D01*
X2486032Y1152000D01*
X2484000Y1149968D01*
X2481968Y1152000D01*
X2476218Y1042500D02*
X2478250Y1044532D01*
X2480282Y1042500D01*
X2478250Y1040468D01*
X2476218Y1042500D01*
X2824968Y1262000D02*
X2827000Y1264032D01*
X2829032Y1262000D01*
X2827000Y1259968D01*
X2824968Y1262000D01*
X2421968Y892000D02*
X2424000Y894032D01*
X2426032Y892000D01*
X2424000Y889968D01*
X2421968Y892000D01*
X2245468Y1205000D02*
X2247500Y1207032D01*
X2249532Y1205000D01*
X2247500Y1202968D01*
X2245468Y1205000D01*
Y1193000D02*
X2247500Y1195032D01*
X2249532Y1193000D01*
X2247500Y1190968D01*
X2245468Y1193000D01*
Y1220000D02*
X2247500Y1222032D01*
X2249532Y1220000D01*
X2247500Y1217968D01*
X2245468Y1220000D01*
X2590468Y975000D02*
X2592500Y977032D01*
X2594532Y975000D01*
X2592500Y972968D01*
X2590468Y975000D01*
X2205468Y1157500D02*
X2207500Y1159532D01*
X2209532Y1157500D01*
X2207500Y1155468D01*
X2205468Y1157500D01*
X2180468D02*
X2182500Y1159532D01*
X2184532Y1157500D01*
X2182500Y1155468D01*
X2180468Y1157500D01*
X2425468Y1190000D02*
X2427500Y1192032D01*
X2429532Y1190000D01*
X2427500Y1187968D01*
X2425468Y1190000D01*
X2467968Y1200000D02*
X2470000Y1202032D01*
X2472032Y1200000D01*
X2470000Y1197968D01*
X2467968Y1200000D01*
X2475468Y1190000D02*
X2477500Y1192032D01*
X2479532Y1190000D01*
X2477500Y1187968D01*
X2475468Y1190000D01*
X2467968Y1181000D02*
X2470000Y1183032D01*
X2472032Y1181000D01*
X2470000Y1178968D01*
X2467968Y1181000D01*
X2157968Y1320000D02*
X2160000Y1322032D01*
X2162032Y1320000D01*
X2160000Y1317968D01*
X2157968Y1320000D01*
X2263468Y918000D02*
X2265500Y920032D01*
X2267532Y918000D01*
X2265500Y915968D01*
X2263468Y918000D01*
X2135468Y1017500D02*
X2137500Y1019532D01*
X2139532Y1017500D01*
X2137500Y1015468D01*
X2135468Y1017500D01*
X2278468Y977500D02*
X2280500Y979532D01*
X2282532Y977500D01*
X2280500Y975468D01*
X2278468Y977500D01*
X2287968Y995000D02*
X2290000Y997032D01*
X2292032Y995000D01*
X2290000Y992968D01*
X2287968Y995000D01*
X2030468Y1132500D02*
X2032500Y1134532D01*
X2034532Y1132500D01*
X2032500Y1130468D01*
X2030468Y1132500D01*
X2207968Y1370000D02*
X2210000Y1372032D01*
X2212032Y1370000D01*
X2210000Y1367968D01*
X2207968Y1370000D01*
X2722968Y1270000D02*
X2725000Y1272032D01*
X2727032Y1270000D01*
X2725000Y1267968D01*
X2722968Y1270000D01*
X2467968Y1155000D02*
X2470000Y1157032D01*
X2472032Y1155000D01*
X2470000Y1152968D01*
X2467968Y1155000D01*
X2412968Y1197500D02*
X2415000Y1199532D01*
X2417032Y1197500D01*
X2415000Y1195468D01*
X2412968Y1197500D01*
X2815468Y1322500D02*
X2817500Y1324532D01*
X2819532Y1322500D01*
X2817500Y1320468D01*
X2815468Y1322500D01*
X2467968Y1231000D02*
X2470000Y1233032D01*
X2472032Y1231000D01*
X2470000Y1228968D01*
X2467968Y1231000D01*
Y1244000D02*
X2470000Y1246032D01*
X2472032Y1244000D01*
X2470000Y1241968D01*
X2467968Y1244000D01*
D120*
X2562532Y1312750D02*
G03*
X2562532Y1312750I-2032J0D01*
G01*
Y1327750D02*
G03*
X2562532Y1327750I-2032J0D01*
G01*
Y1342750D02*
G03*
X2562532Y1342750I-2032J0D01*
G01*
Y1357750D02*
G03*
X2562532Y1357750I-2032J0D01*
G01*
X2143774Y1046758D02*
G03*
X2143774Y1046758I-2032J0D01*
G01*
X2128774D02*
G03*
X2128774Y1046758I-2032J0D01*
G01*
X2113774D02*
G03*
X2113774Y1046758I-2032J0D01*
G01*
X2098774D02*
G03*
X2098774Y1046758I-2032J0D01*
G01*
M02*
