G04*
G04 #@! TF.GenerationSoftware,Altium Limited,Altium Designer,20.2.5 (213)*
G04*
G04 Layer_Color=16711935*
%FSLAX44Y44*%
%MOMM*%
G71*
G04*
G04 #@! TF.SameCoordinates,6FB6FDCA-9B6E-4508-9425-F46C68CC7845*
G04*
G04*
G04 #@! TF.FilePolarity,Negative*
G04*
G01*
G75*
%ADD29R,1.5082X1.2065*%
%ADD36R,1.1500X1.1500*%
%ADD43R,1.2000X1.2000*%
%ADD50R,1.5732X2.1132*%
%ADD52R,1.5032X1.3032*%
%ADD63C,1.1500*%
%ADD64C,1.7032*%
%ADD65R,1.7032X1.7032*%
%ADD66C,1.2000*%
%ADD67C,1.8032*%
%ADD68R,1.8032X1.8032*%
%ADD69R,1.7032X1.7032*%
%ADD70C,1.4000*%
%ADD71R,1.4000X1.4000*%
%ADD72C,1.5032*%
%ADD73R,1.5032X1.5032*%
%ADD74R,1.1500X1.1500*%
%ADD75C,1.4112*%
%ADD76R,1.4000X1.4000*%
%ADD77C,3.7032*%
%ADD78C,0.9032*%
%ADD92R,0.9549X1.3562*%
G04:AMPARAMS|DCode=93|XSize=1.6554mm|YSize=0.3808mm|CornerRadius=0.1904mm|HoleSize=0mm|Usage=FLASHONLY|Rotation=0.000|XOffset=0mm|YOffset=0mm|HoleType=Round|Shape=RoundedRectangle|*
%AMROUNDEDRECTD93*
21,1,1.6554,0.0000,0,0,0.0*
21,1,1.2747,0.3808,0,0,0.0*
1,1,0.3808,0.6373,0.0000*
1,1,0.3808,-0.6373,0.0000*
1,1,0.3808,-0.6373,0.0000*
1,1,0.3808,0.6373,0.0000*
%
%ADD93ROUNDEDRECTD93*%
%ADD94R,1.6554X0.3808*%
%ADD99R,1.6000X1.0500*%
%ADD101R,3.0000X1.6000*%
%ADD102R,6.2000X5.8000*%
%ADD104R,1.4500X0.9500*%
%ADD105R,1.2621X0.8081*%
%ADD106R,1.6000X0.3000*%
%ADD107R,2.1132X1.5732*%
%ADD108R,1.0032X1.7032*%
%ADD109R,1.5032X1.6032*%
%ADD110R,1.2032X1.1532*%
%ADD111R,1.6032X2.1032*%
%ADD112R,1.0032X0.8032*%
%ADD113O,0.5032X1.9032*%
D29*
X2927250Y1104000D02*
D03*
Y1082983D02*
D03*
D36*
X2560500Y1357750D02*
D03*
D43*
X2795000Y1164000D02*
D03*
Y959500D02*
D03*
Y1062500D02*
D03*
Y908000D02*
D03*
Y1112500D02*
D03*
Y1011000D02*
D03*
X2124000Y1204000D02*
D03*
Y1161500D02*
D03*
X2123750Y1118500D02*
D03*
X2412500Y1072500D02*
D03*
D50*
X2049080Y1033000D02*
D03*
X2077500D02*
D03*
X2049185Y1145105D02*
D03*
X2077605D02*
D03*
X2049290Y1117000D02*
D03*
X2077710D02*
D03*
X2049080Y1062284D02*
D03*
X2077500D02*
D03*
X2049790Y1172500D02*
D03*
X2078210D02*
D03*
X2049290Y1089630D02*
D03*
X2077710D02*
D03*
X2665143Y1338147D02*
D03*
X2693564D02*
D03*
X2665143Y1307000D02*
D03*
X2693564D02*
D03*
X2665143Y1245000D02*
D03*
X2693564D02*
D03*
X2665143Y1370000D02*
D03*
X2693564D02*
D03*
X2665143Y1277500D02*
D03*
X2693564D02*
D03*
X2665143Y1217500D02*
D03*
X2693564D02*
D03*
X2464210Y1042500D02*
D03*
X2435790D02*
D03*
X2464611Y1014599D02*
D03*
X2436191D02*
D03*
X2049290Y1229000D02*
D03*
X2077710D02*
D03*
X2049290Y1201000D02*
D03*
X2077710D02*
D03*
D52*
X2958000Y1104483D02*
D03*
Y1083484D02*
D03*
D63*
X2560500Y1312750D02*
D03*
Y1327750D02*
D03*
Y1342750D02*
D03*
X2141742Y1046758D02*
D03*
X2126742D02*
D03*
X2111742D02*
D03*
D64*
X2717500Y1358290D02*
D03*
X2757500D02*
D03*
X2737500D02*
D03*
X2717500Y1295000D02*
D03*
X2757500D02*
D03*
X2737500D02*
D03*
X2717500Y1232750D02*
D03*
X2757500D02*
D03*
X2737500D02*
D03*
X2520812Y1373900D02*
D03*
Y1348500D02*
D03*
Y1323100D02*
D03*
X2182500Y1352900D02*
D03*
X2842250Y1352000D02*
D03*
X2838750Y928500D02*
D03*
X2145000Y1331000D02*
D03*
X2150000Y910000D02*
D03*
D65*
X2777500Y1358290D02*
D03*
Y1295000D02*
D03*
Y1232750D02*
D03*
D66*
X2715000Y1164000D02*
D03*
X2735000D02*
D03*
X2755000D02*
D03*
X2775000D02*
D03*
X2715000Y959500D02*
D03*
X2735000D02*
D03*
X2755000D02*
D03*
X2775000D02*
D03*
X2715000Y1062500D02*
D03*
X2735000D02*
D03*
X2755000D02*
D03*
X2775000D02*
D03*
X2715000Y908000D02*
D03*
X2735000D02*
D03*
X2755000D02*
D03*
X2775000D02*
D03*
X2715000Y1112500D02*
D03*
X2735000D02*
D03*
X2755000D02*
D03*
X2775000D02*
D03*
X2715000Y1011000D02*
D03*
X2735000D02*
D03*
X2755000D02*
D03*
X2775000D02*
D03*
X2094000Y1204000D02*
D03*
X2109000D02*
D03*
X2094000Y1161500D02*
D03*
X2109000D02*
D03*
X2093750Y1118500D02*
D03*
X2108750D02*
D03*
X2312500Y1072500D02*
D03*
X2332500D02*
D03*
X2352500D02*
D03*
X2372500D02*
D03*
X2392500D02*
D03*
D67*
X2959400Y1046250D02*
D03*
X2934000D02*
D03*
D68*
X2908600D02*
D03*
D69*
X2520812Y1297700D02*
D03*
X2182500Y1327500D02*
D03*
X2842250Y1332000D02*
D03*
X2838750Y908500D02*
D03*
X2145000Y1351000D02*
D03*
X2150000Y930000D02*
D03*
D70*
X2572500Y988999D02*
D03*
X2547500D02*
D03*
X2522500D02*
D03*
X2497500D02*
D03*
X2472500D02*
D03*
X2572500Y922500D02*
D03*
X2547500D02*
D03*
X2522500D02*
D03*
X2497500D02*
D03*
X2472500D02*
D03*
X2024500Y1295000D02*
D03*
Y1320000D02*
D03*
Y1345000D02*
D03*
X2040000Y965000D02*
D03*
Y940000D02*
D03*
Y915000D02*
D03*
X2960500Y965000D02*
D03*
Y940000D02*
D03*
Y915000D02*
D03*
X2952500Y1295000D02*
D03*
Y1320000D02*
D03*
Y1345000D02*
D03*
D71*
X2447500Y988999D02*
D03*
Y922500D02*
D03*
D72*
X2093000Y1311000D02*
D03*
Y1331000D02*
D03*
X2098000Y910000D02*
D03*
Y930000D02*
D03*
X2892500Y949000D02*
D03*
Y929000D02*
D03*
X2894500Y1351000D02*
D03*
Y1331000D02*
D03*
D73*
X2093000Y1351000D02*
D03*
X2098000Y950000D02*
D03*
X2892500Y909000D02*
D03*
X2894500Y1311000D02*
D03*
D74*
X2096742Y1046758D02*
D03*
D75*
X2096000Y1080000D02*
D03*
X2111000D02*
D03*
X2126000D02*
D03*
X2141000D02*
D03*
X2156000D02*
D03*
X2171000D02*
D03*
D76*
X2024500Y1270000D02*
D03*
X2040000Y990000D02*
D03*
X2960500D02*
D03*
X2952500Y1270000D02*
D03*
D77*
X2902750Y1224750D02*
D03*
X2844000Y989000D02*
D03*
X2019000Y1042000D02*
D03*
X2497500Y1080500D02*
D03*
X2224250D02*
D03*
X2236750Y1343000D02*
D03*
X2485000D02*
D03*
D78*
X2367115Y1155056D02*
D03*
X2309500Y1217750D02*
D03*
X2297500Y1217500D02*
D03*
X2469212Y1217719D02*
D03*
X2808702Y1024601D02*
D03*
X2841750Y1037250D02*
D03*
X2129230Y1005000D02*
D03*
X2520000Y1153000D02*
D03*
X2199190Y1342500D02*
D03*
X2205506Y1202087D02*
D03*
X2241690Y1168500D02*
D03*
X2247700Y1180487D02*
D03*
X2404500Y1161000D02*
D03*
X2391922Y1160922D02*
D03*
X2378863Y1159613D02*
D03*
X2718250Y1084000D02*
D03*
X2411777Y966527D02*
D03*
X2163500Y1250050D02*
D03*
X2958000Y1023000D02*
D03*
X2536650Y1182215D02*
D03*
X2244750Y1269500D02*
D03*
X2245250Y1256750D02*
D03*
X2230000Y1245940D02*
D03*
X2063000Y1224000D02*
D03*
X2417000Y1100000D02*
D03*
X2430000Y1101000D02*
D03*
X2178810Y937000D02*
D03*
X2845000Y1243810D02*
D03*
X2919000Y1163000D02*
D03*
X2856730Y1323000D02*
D03*
X2865000Y1330000D02*
D03*
X2267000Y1119000D02*
D03*
X2286000Y1081000D02*
D03*
X2365000Y1008000D02*
D03*
X2316000Y1004000D02*
D03*
X2324000Y1041000D02*
D03*
X2469000Y1071000D02*
D03*
X2612000Y1230000D02*
D03*
X2531656Y1169384D02*
D03*
X2522451Y1164277D02*
D03*
X2554000Y1153968D02*
D03*
X2796000Y1274000D02*
D03*
X2581000Y1094000D02*
D03*
X2584000Y1072000D02*
D03*
X2312000Y968000D02*
D03*
X2248000Y1233000D02*
D03*
X2247500Y1244000D02*
D03*
X2116738Y1240762D02*
D03*
X2138030Y1121000D02*
D03*
Y1143310D02*
D03*
X2824000Y1113000D02*
D03*
X2886500Y1058710D02*
D03*
X2434000Y1066000D02*
D03*
X2615000Y1258000D02*
D03*
X2534000Y1245000D02*
D03*
X2470000Y1269000D02*
D03*
X2534000Y1257000D02*
D03*
Y1270000D02*
D03*
X2634000Y938000D02*
D03*
X2805000Y1210000D02*
D03*
X2716000D02*
D03*
X2470000Y1256000D02*
D03*
X2480000Y1295000D02*
D03*
X2470000Y1282200D02*
D03*
Y1168000D02*
D03*
X2455000Y1114030D02*
D03*
X2484000Y1152000D02*
D03*
X2478250Y1042500D02*
D03*
X2827000Y1262000D02*
D03*
X2424000Y892000D02*
D03*
X2247500Y1205000D02*
D03*
Y1193000D02*
D03*
Y1220000D02*
D03*
X2592500Y975000D02*
D03*
X2207500Y1157500D02*
D03*
X2182500D02*
D03*
X2427500Y1190000D02*
D03*
X2470000Y1200000D02*
D03*
X2477500Y1190000D02*
D03*
X2470000Y1181000D02*
D03*
X2160000Y1320000D02*
D03*
X2265500Y918000D02*
D03*
X2137500Y1017500D02*
D03*
X2280500Y977500D02*
D03*
X2290000Y995000D02*
D03*
X2032500Y1132500D02*
D03*
X2210000Y1370000D02*
D03*
X2725000Y1270000D02*
D03*
X2470000Y1155000D02*
D03*
X2415000Y1197500D02*
D03*
X2817500Y1322500D02*
D03*
X2470000Y1231000D02*
D03*
Y1244000D02*
D03*
D92*
X2369000Y907500D02*
D03*
X2353487D02*
D03*
Y930250D02*
D03*
X2369000D02*
D03*
X2353994Y955250D02*
D03*
X2369507D02*
D03*
X2391494Y1043250D02*
D03*
X2407007D02*
D03*
D93*
X2395500Y982000D02*
D03*
Y988500D02*
D03*
Y995000D02*
D03*
Y1001500D02*
D03*
Y1008000D02*
D03*
Y1014500D02*
D03*
Y1021000D02*
D03*
X2338992D02*
D03*
Y1014500D02*
D03*
Y1008000D02*
D03*
Y1001500D02*
D03*
Y995000D02*
D03*
Y988500D02*
D03*
D94*
Y982000D02*
D03*
D99*
X2900395Y1073717D02*
D03*
Y1103217D02*
D03*
X2845500D02*
D03*
Y1073717D02*
D03*
D101*
X2943750Y1131150D02*
D03*
Y1176850D02*
D03*
D102*
X2872850Y1154000D02*
D03*
D104*
X2342500Y1143420D02*
D03*
Y1123920D02*
D03*
X2287500Y1143420D02*
D03*
Y1123920D02*
D03*
D105*
X2370000Y1127380D02*
D03*
Y1143420D02*
D03*
X2315000Y1127380D02*
D03*
Y1143420D02*
D03*
D106*
X2223000Y1170500D02*
D03*
Y1177000D02*
D03*
Y1183500D02*
D03*
Y1190000D02*
D03*
Y1196500D02*
D03*
Y1203000D02*
D03*
Y1209500D02*
D03*
Y1216000D02*
D03*
Y1222500D02*
D03*
Y1229000D02*
D03*
X2167000Y1170500D02*
D03*
Y1177000D02*
D03*
Y1183500D02*
D03*
Y1190000D02*
D03*
Y1196500D02*
D03*
Y1203000D02*
D03*
Y1209500D02*
D03*
Y1216000D02*
D03*
Y1222500D02*
D03*
Y1229000D02*
D03*
X2504770Y1227480D02*
D03*
Y1220980D02*
D03*
Y1214480D02*
D03*
Y1207980D02*
D03*
Y1201480D02*
D03*
Y1194980D02*
D03*
Y1188480D02*
D03*
Y1181980D02*
D03*
Y1175480D02*
D03*
Y1168980D02*
D03*
X2560770Y1227480D02*
D03*
Y1220980D02*
D03*
Y1214480D02*
D03*
Y1207980D02*
D03*
Y1201480D02*
D03*
Y1194980D02*
D03*
Y1188480D02*
D03*
Y1181980D02*
D03*
Y1175480D02*
D03*
Y1168980D02*
D03*
D107*
X2425000Y1143420D02*
D03*
Y1115000D02*
D03*
X2397186Y1143491D02*
D03*
Y1115071D02*
D03*
X2872000Y1105834D02*
D03*
Y1077413D02*
D03*
X2424999Y908282D02*
D03*
Y936702D02*
D03*
X2397500Y908282D02*
D03*
Y936702D02*
D03*
D108*
X2309500Y934500D02*
D03*
X2298500D02*
D03*
X2287500Y932500D02*
D03*
X2276500Y934500D02*
D03*
X2265500Y932500D02*
D03*
X2254500Y934500D02*
D03*
X2243500Y938500D02*
D03*
X2232500Y934500D02*
D03*
D109*
X2301400Y1043100D02*
D03*
X2244400D02*
D03*
D110*
X2287500Y1045350D02*
D03*
D111*
X2317400Y911600D02*
D03*
X2185900Y901600D02*
D03*
D112*
X2056900Y1005000D02*
D03*
X2081900D02*
D03*
D113*
X2145000Y1259000D02*
D03*
X2140000D02*
D03*
X2135000D02*
D03*
X2130000D02*
D03*
X2125000D02*
D03*
X2145000Y1300000D02*
D03*
X2140000D02*
D03*
X2135000D02*
D03*
X2130000D02*
D03*
X2125000D02*
D03*
X2859750Y1264500D02*
D03*
X2854750D02*
D03*
X2849750D02*
D03*
X2844750D02*
D03*
X2839750D02*
D03*
X2859750Y1305500D02*
D03*
X2854750D02*
D03*
X2849750D02*
D03*
X2844750D02*
D03*
X2839750D02*
D03*
M02*
