G04*
G04 #@! TF.GenerationSoftware,Altium Limited,Altium Designer,20.2.5 (213)*
G04*
G04 Layer_Color=32896*
%FSLAX44Y44*%
%MOMM*%
G71*
G04*
G04 #@! TF.SameCoordinates,19D5FE96-1F57-4DB1-9F11-37EF29D1C5BE*
G04*
G04*
G04 #@! TF.FilePolarity,Positive*
G04*
G01*
G75*
%ADD116C,0.0500*%
D116*
X2676751Y1113752D02*
X2681749D01*
Y1116251D01*
X2680916Y1117084D01*
X2677584D01*
X2676751Y1116251D01*
Y1113752D01*
X2681749Y1118750D02*
Y1120417D01*
Y1119584D01*
X2676751D01*
X2677584Y1118750D01*
X2681749Y1126248D02*
Y1122916D01*
X2678417Y1126248D01*
X2677584D01*
X2676751Y1125415D01*
Y1123749D01*
X2677584Y1122916D01*
X2514664Y1245751D02*
Y1250749D01*
X2512165D01*
X2511332Y1249916D01*
Y1246584D01*
X2512165Y1245751D01*
X2514664D01*
X2506334Y1250749D02*
X2509666D01*
X2506334Y1247417D01*
Y1246584D01*
X2507167Y1245751D01*
X2508833D01*
X2509666Y1246584D01*
X2504668D02*
X2503835Y1245751D01*
X2502169D01*
X2501335Y1246584D01*
Y1249916D01*
X2502169Y1250749D01*
X2503835D01*
X2504668Y1249916D01*
Y1246584D01*
X2078752Y1256749D02*
Y1251751D01*
X2081251D01*
X2082084Y1252584D01*
Y1255916D01*
X2081251Y1256749D01*
X2078752D01*
X2083750Y1251751D02*
X2085417D01*
X2084583D01*
Y1256749D01*
X2083750Y1255916D01*
X2087916Y1252584D02*
X2088749Y1251751D01*
X2090415D01*
X2091248Y1252584D01*
Y1255916D01*
X2090415Y1256749D01*
X2088749D01*
X2087916Y1255916D01*
Y1255083D01*
X2088749Y1254250D01*
X2091248D01*
X2096748Y1006501D02*
Y1011499D01*
X2094249D01*
X2093416Y1010666D01*
Y1007334D01*
X2094249Y1006501D01*
X2096748D01*
X2091750Y1011499D02*
X2090083D01*
X2090916D01*
Y1006501D01*
X2091750Y1007334D01*
X2087584D02*
X2086751Y1006501D01*
X2085085D01*
X2084252Y1007334D01*
Y1008167D01*
X2085085Y1009000D01*
X2084252Y1009833D01*
Y1010666D01*
X2085085Y1011499D01*
X2086751D01*
X2087584Y1010666D01*
Y1009833D01*
X2086751Y1009000D01*
X2087584Y1008167D01*
Y1007334D01*
X2086751Y1009000D02*
X2085085D01*
X2908498Y1003501D02*
Y1008499D01*
X2905999D01*
X2905166Y1007666D01*
Y1004334D01*
X2905999Y1003501D01*
X2908498D01*
X2903499Y1008499D02*
X2901833D01*
X2902667D01*
Y1003501D01*
X2903499Y1004334D01*
X2899334Y1003501D02*
X2896002D01*
Y1004334D01*
X2899334Y1007666D01*
Y1008499D01*
X2897002Y1255999D02*
Y1251001D01*
X2899501D01*
X2900334Y1251834D01*
Y1255166D01*
X2899501Y1255999D01*
X2897002D01*
X2902000Y1251001D02*
X2903666D01*
X2902834D01*
Y1255999D01*
X2902000Y1255166D01*
X2909498Y1255999D02*
X2907832Y1255166D01*
X2906166Y1253500D01*
Y1251834D01*
X2906999Y1251001D01*
X2908665D01*
X2909498Y1251834D01*
Y1252667D01*
X2908665Y1253500D01*
X2906166D01*
X2404751Y923502D02*
X2409749D01*
Y926001D01*
X2408916Y926834D01*
X2405584D01*
X2404751Y926001D01*
Y923502D01*
X2409749Y928500D02*
Y930166D01*
Y929333D01*
X2404751D01*
X2405584Y928500D01*
X2404751Y935998D02*
Y932666D01*
X2407250D01*
X2406417Y934332D01*
Y935165D01*
X2407250Y935998D01*
X2408916D01*
X2409749Y935165D01*
Y933499D01*
X2408916Y932666D01*
X2404751Y984752D02*
X2409749D01*
Y987251D01*
X2408916Y988084D01*
X2405584D01*
X2404751Y987251D01*
Y984752D01*
X2409749Y989750D02*
Y991416D01*
Y990583D01*
X2404751D01*
X2405584Y989750D01*
X2409749Y996415D02*
X2404751D01*
X2407250Y993916D01*
Y997248D01*
X2676751Y1166085D02*
X2681749D01*
Y1168584D01*
X2680916Y1169417D01*
X2677584D01*
X2676751Y1168584D01*
Y1166085D01*
X2681749Y1171084D02*
Y1172750D01*
Y1171917D01*
X2676751D01*
X2677584Y1171084D01*
X2681749Y1175249D02*
Y1176915D01*
Y1176082D01*
X2676751D01*
X2677584Y1175249D01*
X2679251Y1063752D02*
X2684249D01*
Y1066251D01*
X2683416Y1067084D01*
X2680084D01*
X2679251Y1066251D01*
Y1063752D01*
X2684249Y1068750D02*
Y1070416D01*
Y1069583D01*
X2679251D01*
X2680084Y1068750D01*
Y1072916D02*
X2679251Y1073749D01*
Y1075415D01*
X2680084Y1076248D01*
X2683416D01*
X2684249Y1075415D01*
Y1073749D01*
X2683416Y1072916D01*
X2680084D01*
X2679251Y1014335D02*
X2684249D01*
Y1016834D01*
X2683416Y1017667D01*
X2680084D01*
X2679251Y1016834D01*
Y1014335D01*
X2683416Y1019333D02*
X2684249Y1020166D01*
Y1021832D01*
X2683416Y1022665D01*
X2680084D01*
X2679251Y1021832D01*
Y1020166D01*
X2680084Y1019333D01*
X2680917D01*
X2681750Y1020166D01*
Y1022665D01*
X2679251Y962835D02*
X2684249D01*
Y965334D01*
X2683416Y966167D01*
X2680084D01*
X2679251Y965334D01*
Y962835D01*
X2680084Y967833D02*
X2679251Y968666D01*
Y970332D01*
X2680084Y971165D01*
X2680917D01*
X2681750Y970332D01*
X2682583Y971165D01*
X2683416D01*
X2684249Y970332D01*
Y968666D01*
X2683416Y967833D01*
X2682583D01*
X2681750Y968666D01*
X2680917Y967833D01*
X2680084D01*
X2681750Y968666D02*
Y970332D01*
X2679251Y911335D02*
X2684249D01*
Y913834D01*
X2683416Y914667D01*
X2680084D01*
X2679251Y913834D01*
Y911335D01*
Y916333D02*
Y919665D01*
X2680084D01*
X2683416Y916333D01*
X2684249D01*
X2682149Y1236315D02*
X2677151D01*
Y1233816D01*
X2677984Y1232983D01*
X2681316D01*
X2682149Y1233816D01*
Y1236315D01*
Y1227985D02*
X2681316Y1229651D01*
X2679650Y1231317D01*
X2677984D01*
X2677151Y1230484D01*
Y1228818D01*
X2677984Y1227985D01*
X2678817D01*
X2679650Y1228818D01*
Y1231317D01*
X2682499Y1299165D02*
X2677501D01*
Y1296666D01*
X2678334Y1295833D01*
X2681666D01*
X2682499Y1296666D01*
Y1299165D01*
Y1290835D02*
Y1294167D01*
X2680000D01*
X2680833Y1292501D01*
Y1291668D01*
X2680000Y1290835D01*
X2678334D01*
X2677501Y1291668D01*
Y1293334D01*
X2678334Y1294167D01*
X2682499Y1361665D02*
X2677501D01*
Y1359166D01*
X2678334Y1358333D01*
X2681666D01*
X2682499Y1359166D01*
Y1361665D01*
X2677501Y1354168D02*
X2682499D01*
X2680000Y1356667D01*
Y1353335D01*
M02*
