G04*
G04 #@! TF.GenerationSoftware,Altium Limited,Altium Designer,20.2.5 (213)*
G04*
G04 Layer_Color=32768*
%FSLAX44Y44*%
%MOMM*%
G71*
G04*
G04 #@! TF.SameCoordinates,6FB6FDCA-9B6E-4508-9425-F46C68CC7845*
G04*
G04*
G04 #@! TF.FilePolarity,Positive*
G04*
G01*
G75*
%ADD11C,0.2000*%
D11*
X2351243Y901250D02*
Y913750D01*
X2371243D01*
Y901250D02*
Y913750D01*
X2351243Y901250D02*
X2371243D01*
Y924000D02*
Y936500D01*
X2351243Y924000D02*
X2371243D01*
X2351243D02*
Y936500D01*
X2371243D01*
X2371750Y949000D02*
Y961500D01*
X2351750Y949000D02*
X2371750D01*
X2351750D02*
Y961500D01*
X2371750D01*
X2409250Y1037000D02*
Y1049500D01*
X2389250Y1037000D02*
X2409250D01*
X2389250D02*
Y1049500D01*
X2409250D01*
X2345246Y976500D02*
Y1026500D01*
X2389246D01*
Y976500D02*
Y1026500D01*
X2345246Y976500D02*
X2389246D01*
X2891395Y1105468D02*
X2909395D01*
Y1071468D02*
Y1105468D01*
X2891395Y1071468D02*
X2909395D01*
X2891395D02*
Y1105468D01*
X2836500Y1071468D02*
X2854500D01*
X2836500D02*
Y1105468D01*
X2854500D01*
Y1071468D02*
Y1105468D01*
X2921000Y1083491D02*
X2933500D01*
X2921000D02*
Y1103491D01*
X2933500D01*
Y1083491D02*
Y1103491D01*
X2861400Y1187650D02*
X2923600D01*
Y1120350D02*
Y1187650D01*
X2861400Y1120350D02*
X2923600D01*
X2861400D02*
Y1187650D01*
X2335500Y1122670D02*
X2349500D01*
X2335500D02*
Y1144670D01*
X2349500D01*
Y1122670D02*
Y1144670D01*
X2363750Y1145400D02*
X2376250D01*
Y1125400D02*
Y1145400D01*
X2363750Y1125400D02*
X2376250D01*
X2363750D02*
Y1145400D01*
X2280500Y1122670D02*
X2294500D01*
X2280500D02*
Y1144670D01*
X2294500D01*
Y1122670D02*
Y1144670D01*
X2308750Y1145400D02*
X2321250D01*
Y1125400D02*
Y1145400D01*
X2308750Y1125400D02*
X2321250D01*
X2308750D02*
Y1145400D01*
X2172500Y1166750D02*
Y1232750D01*
X2217500D01*
Y1166750D02*
Y1232750D01*
X2172500Y1166750D02*
X2217500D01*
X2555270Y1165230D02*
Y1231230D01*
X2510270Y1165230D02*
X2555270D01*
X2510270D02*
Y1231230D01*
X2555270D01*
M02*
