G04*
G04 #@! TF.GenerationSoftware,Altium Limited,Altium Designer,20.2.5 (213)*
G04*
G04 Layer_Color=0*
%FSLAX44Y44*%
%MOMM*%
G71*
G04*
G04 #@! TF.SameCoordinates,19D5FE96-1F57-4DB1-9F11-37EF29D1C5BE*
G04*
G04*
G04 #@! TF.FilePolarity,Positive*
G04*
G01*
G75*
%ADD115C,0.1000*%
D115*
X2551000Y1335250D02*
X2561000D01*
X2556000Y1330250D02*
Y1340250D01*
X2172895Y1285500D02*
Y1295500D01*
X2167895Y1290500D02*
X2177895D01*
X2755000Y1164500D02*
Y1174500D01*
X2750000Y1169500D02*
X2760000D01*
X2652500Y1116567D02*
X2662500D01*
X2657500Y1111567D02*
Y1121567D01*
X2755000Y960000D02*
Y970000D01*
X2750000Y965000D02*
X2760000D01*
X2852500Y1037912D02*
X2862500D01*
X2857500Y1032912D02*
Y1042912D01*
X2490171Y1111030D02*
Y1121030D01*
X2485172Y1116030D02*
X2495171D01*
X2510982Y1265732D02*
Y1275732D01*
X2505982Y1270732D02*
X2515982D01*
X2084756Y1271500D02*
Y1281500D01*
X2079756Y1276500D02*
X2089756D01*
X2089993Y980750D02*
Y990750D01*
X2084993Y985750D02*
X2094993D01*
X2901506Y978500D02*
Y988500D01*
X2896506Y983500D02*
X2906506D01*
X2904493Y1270750D02*
Y1280750D01*
X2899493Y1275750D02*
X2909493D01*
X2510000Y989249D02*
Y999249D01*
X2505000Y994249D02*
X2515000D01*
X2510000Y922750D02*
Y932750D01*
X2505000Y927750D02*
X2515000D01*
X2383750Y928750D02*
X2393750D01*
X2388750Y923750D02*
Y933750D01*
X2383750Y990250D02*
X2393750D01*
X2388750Y985250D02*
Y995250D01*
X2188250Y912000D02*
X2198250D01*
X2193250Y907000D02*
Y917000D01*
X2755000Y1063000D02*
Y1073000D01*
X2750000Y1068000D02*
X2760000D01*
X2755000Y908500D02*
Y918500D01*
X2750000Y913500D02*
X2760000D01*
X2755000Y1113000D02*
Y1123000D01*
X2750000Y1118000D02*
X2760000D01*
X2755000Y1011500D02*
Y1021500D01*
X2750000Y1016500D02*
X2760000D01*
X2652500Y1168066D02*
X2662500D01*
X2657500Y1163067D02*
Y1173066D01*
X2655000Y1066566D02*
X2665000D01*
X2660000Y1061566D02*
Y1071566D01*
X2655000Y1015067D02*
X2665000D01*
X2660000Y1010067D02*
Y1020067D01*
X2655000Y960412D02*
X2665000D01*
X2660000Y955412D02*
Y965412D01*
X2655000Y912066D02*
X2665000D01*
X2660000Y907066D02*
Y917066D01*
X2652500Y1232243D02*
X2662500D01*
X2657500Y1227243D02*
Y1237243D01*
X2652500Y1294494D02*
X2662500D01*
X2657500Y1289494D02*
Y1299494D01*
X2652500Y1357783D02*
X2662500D01*
X2657500Y1352783D02*
Y1362783D01*
X2119242Y1037258D02*
Y1047258D01*
X2114242Y1042258D02*
X2124242D01*
X2211009Y1285500D02*
Y1295500D01*
X2206009Y1290500D02*
X2216009D01*
X2033679Y1101321D02*
Y1111321D01*
X2028679Y1106321D02*
X2038679D01*
X2109000Y1203500D02*
Y1213500D01*
X2104000Y1208500D02*
X2114000D01*
X2821750Y1037912D02*
X2831750D01*
X2826750Y1032912D02*
Y1042912D01*
X2109000Y1161000D02*
Y1171000D01*
X2104000Y1166000D02*
X2114000D01*
X2184000Y974750D02*
X2194000D01*
X2189000Y969750D02*
Y979750D01*
X2182500Y1016250D02*
X2192500D01*
X2187500Y1011250D02*
Y1021250D01*
X2108750Y1118000D02*
Y1128000D01*
X2103750Y1123000D02*
X2113750D01*
X2362500Y1073000D02*
Y1083000D01*
X2357500Y1078000D02*
X2367500D01*
X2024750Y1307500D02*
X2034750D01*
X2029750Y1302500D02*
Y1312500D01*
X2029750Y952500D02*
X2039750D01*
X2034750Y947500D02*
Y957500D01*
X2950250Y952500D02*
X2960250D01*
X2955250Y947500D02*
Y957500D01*
X2952750Y1307500D02*
X2962750D01*
X2957750Y1302500D02*
Y1312500D01*
M02*
