G04*
G04 #@! TF.GenerationSoftware,Altium Limited,Altium Designer,20.2.5 (213)*
G04*
G04 Layer_Color=8421504*
%FSLAX44Y44*%
%MOMM*%
G71*
G04*
G04 #@! TF.SameCoordinates,19D5FE96-1F57-4DB1-9F11-37EF29D1C5BE*
G04*
G04*
G04 #@! TF.FilePolarity,Positive*
G04*
G01*
G75*
%ADD20R,0.9000X0.9000*%
%ADD21R,0.9000X2.2500*%
%ADD22R,2.2500X0.9000*%
%ADD23R,0.4000X0.3800*%
%ADD24R,1.3700X1.9100*%
%ADD25C,2.0000*%
%ADD26R,1.0000X1.2500*%
%ADD27R,1.3000X1.1000*%
%ADD28R,1.2621X0.9549*%
%ADD29R,1.5082X1.2065*%
%ADD30R,1.2065X1.5082*%
%ADD31R,1.1000X1.3000*%
%ADD32R,1.6000X2.1800*%
%ADD33R,1.6000X2.2000*%
%ADD34R,0.9549X1.2621*%
%ADD35R,1.3549X1.4621*%
%ADD36R,1.1500X1.1500*%
%ADD37R,1.5500X1.3500*%
%ADD38R,1.2000X1.2000*%
%ADD39R,1.5000X1.4000*%
%ADD40R,1.0500X1.4500*%
%ADD41R,1.1000X1.3500*%
%ADD42R,1.4000X1.5000*%
%ADD43R,1.2000X1.2000*%
G04:AMPARAMS|DCode=44|XSize=0.55mm|YSize=1.7mm|CornerRadius=0.0495mm|HoleSize=0mm|Usage=FLASHONLY|Rotation=270.000|XOffset=0mm|YOffset=0mm|HoleType=Round|Shape=RoundedRectangle|*
%AMROUNDEDRECTD44*
21,1,0.5500,1.6010,0,0,270.0*
21,1,0.4510,1.7000,0,0,270.0*
1,1,0.0990,-0.8005,-0.2255*
1,1,0.0990,-0.8005,0.2255*
1,1,0.0990,0.8005,0.2255*
1,1,0.0990,0.8005,-0.2255*
%
%ADD44ROUNDEDRECTD44*%
%ADD45R,1.4082X1.0065*%
D20*
X2359000Y1244400D02*
D03*
X2345000D02*
D03*
X2331000D02*
D03*
X2359000Y1216400D02*
D03*
X2345000D02*
D03*
X2331000D02*
D03*
X2359000Y1230400D02*
D03*
X2331000D02*
D03*
X2345000D02*
D03*
D21*
X2429850Y1126000D02*
D03*
X2417150D02*
D03*
X2404450D02*
D03*
X2391750D02*
D03*
X2379050D02*
D03*
X2366350D02*
D03*
X2353650D02*
D03*
X2340950D02*
D03*
X2328250D02*
D03*
X2315550D02*
D03*
X2302850D02*
D03*
X2290150D02*
D03*
D22*
X2451500Y1307600D02*
D03*
Y1142500D02*
D03*
Y1155200D02*
D03*
Y1167900D02*
D03*
Y1180600D02*
D03*
Y1193300D02*
D03*
Y1206000D02*
D03*
Y1218700D02*
D03*
Y1231400D02*
D03*
Y1244100D02*
D03*
Y1256800D02*
D03*
Y1269500D02*
D03*
Y1282200D02*
D03*
Y1294900D02*
D03*
X2268750Y1269400D02*
D03*
Y1256700D02*
D03*
Y1244000D02*
D03*
Y1231300D02*
D03*
Y1218600D02*
D03*
Y1205900D02*
D03*
Y1193200D02*
D03*
Y1180500D02*
D03*
Y1167800D02*
D03*
Y1155100D02*
D03*
Y1142400D02*
D03*
Y1282100D02*
D03*
Y1294800D02*
D03*
Y1307500D02*
D03*
D23*
X2592500Y1066500D02*
D03*
Y1060880D02*
D03*
X2592000Y1086870D02*
D03*
Y1081250D02*
D03*
Y1102500D02*
D03*
Y1108120D02*
D03*
X2605000Y1060880D02*
D03*
Y1066500D02*
D03*
Y1081190D02*
D03*
Y1086810D02*
D03*
X2604500Y1108120D02*
D03*
Y1102500D02*
D03*
D24*
X2054210Y1201500D02*
D03*
X2025790D02*
D03*
X2054210Y1170000D02*
D03*
X2025790D02*
D03*
D25*
X2615001Y975000D02*
D03*
Y937496D02*
D03*
X2615000Y899250D02*
D03*
D26*
X2162895Y1290500D02*
D03*
X2182895D02*
D03*
D27*
X2679250Y1109500D02*
D03*
Y1130500D02*
D03*
X2407250Y919250D02*
D03*
Y940250D02*
D03*
Y980500D02*
D03*
Y1001500D02*
D03*
X2679250Y1161000D02*
D03*
Y1182000D02*
D03*
X2681750Y1059500D02*
D03*
Y1080500D02*
D03*
Y1008000D02*
D03*
Y1029000D02*
D03*
Y956500D02*
D03*
Y977500D02*
D03*
Y905000D02*
D03*
Y926000D02*
D03*
X2679650Y1242650D02*
D03*
Y1221650D02*
D03*
X2680000Y1305500D02*
D03*
Y1284500D02*
D03*
Y1368000D02*
D03*
Y1347000D02*
D03*
D28*
X2657500Y1108810D02*
D03*
Y1124323D02*
D03*
Y1160310D02*
D03*
Y1175823D02*
D03*
X2660000Y1058810D02*
D03*
Y1074323D02*
D03*
Y1007310D02*
D03*
Y1022823D02*
D03*
Y952655D02*
D03*
Y968168D02*
D03*
Y904310D02*
D03*
Y919823D02*
D03*
X2657500Y1240000D02*
D03*
Y1224487D02*
D03*
Y1302250D02*
D03*
Y1286737D02*
D03*
Y1365540D02*
D03*
Y1350027D02*
D03*
D29*
X2857500Y1048420D02*
D03*
Y1027403D02*
D03*
X2826750Y1048420D02*
D03*
Y1027403D02*
D03*
D30*
X2479663Y1116030D02*
D03*
X2500680D02*
D03*
X2221517Y1290500D02*
D03*
X2200500D02*
D03*
D31*
X2518500Y1248250D02*
D03*
X2497500D02*
D03*
X2074500Y1254250D02*
D03*
X2095500D02*
D03*
X2101000Y1009000D02*
D03*
X2080000D02*
D03*
X2912750Y1006000D02*
D03*
X2891750D02*
D03*
X2892750Y1253500D02*
D03*
X2913750D02*
D03*
D32*
X2303307Y946236D02*
D03*
X2261173Y1038236D02*
D03*
X2218250Y1040250D02*
D03*
X2346374Y947168D02*
D03*
D33*
X2303307Y1038136D02*
D03*
X2261173Y946336D02*
D03*
X2218250Y948350D02*
D03*
X2346374Y1039068D02*
D03*
D34*
X2518739Y1270732D02*
D03*
X2503226D02*
D03*
D35*
X2075000Y1276500D02*
D03*
X2094513D02*
D03*
X2099750Y985750D02*
D03*
X2080237D02*
D03*
X2911263Y983500D02*
D03*
X2891750D02*
D03*
X2894737Y1275750D02*
D03*
X2914250D02*
D03*
D36*
X2388750Y917000D02*
D03*
Y940500D02*
D03*
Y978500D02*
D03*
Y1002000D02*
D03*
D37*
X2219038Y903138D02*
D03*
Y922638D02*
D03*
D38*
X2193250Y901500D02*
D03*
Y922500D02*
D03*
X2167250Y984350D02*
D03*
Y963350D02*
D03*
X2167500Y1026000D02*
D03*
Y1005000D02*
D03*
D39*
X2228322Y1203230D02*
D03*
X2163322D02*
D03*
X2374318Y1020068D02*
D03*
Y1039068D02*
D03*
D40*
X2044158Y1084001D02*
D03*
X2025658D02*
D03*
D41*
X2201500Y1264000D02*
D03*
X2215500D02*
D03*
D42*
X2182500Y1264750D02*
D03*
X2163500D02*
D03*
X2299250Y912500D02*
D03*
X2280250D02*
D03*
D43*
X2044179Y1106321D02*
D03*
X2023179D02*
D03*
D44*
X2498500Y1229450D02*
D03*
Y1216750D02*
D03*
Y1204050D02*
D03*
Y1191350D02*
D03*
Y1178650D02*
D03*
Y1165950D02*
D03*
Y1153250D02*
D03*
Y1140550D02*
D03*
X2591500Y1229450D02*
D03*
Y1216750D02*
D03*
Y1204050D02*
D03*
Y1191350D02*
D03*
Y1178650D02*
D03*
Y1165950D02*
D03*
Y1153250D02*
D03*
Y1140550D02*
D03*
D45*
X2189000Y965241D02*
D03*
Y984259D02*
D03*
X2187500Y1006741D02*
D03*
Y1025759D02*
D03*
M02*
