G04*
G04 #@! TF.GenerationSoftware,Altium Limited,Altium Designer,20.2.5 (213)*
G04*
G04 Layer_Color=32896*
%FSLAX44Y44*%
%MOMM*%
G71*
G04*
G04 #@! TF.SameCoordinates,19D5FE96-1F57-4DB1-9F11-37EF29D1C5BE*
G04*
G04*
G04 #@! TF.FilePolarity,Positive*
G04*
G01*
G75*
%ADD115C,0.1000*%
D115*
X2361243Y902500D02*
Y912500D01*
X2356243Y907500D02*
X2366243D01*
X2361243Y925250D02*
Y935250D01*
X2356243Y930250D02*
X2366243D01*
X2361750Y950250D02*
Y960250D01*
X2356750Y955250D02*
X2366750D01*
X2399250Y1038250D02*
Y1048250D01*
X2394250Y1043250D02*
X2404250D01*
X2367246Y996500D02*
Y1006500D01*
X2362246Y1001500D02*
X2372246D01*
X2895395Y1088467D02*
X2905395D01*
X2900395Y1083467D02*
Y1093467D01*
X2840500Y1088467D02*
X2850500D01*
X2845500Y1083467D02*
Y1093467D01*
X2922250Y1093491D02*
X2932250D01*
X2927250Y1088491D02*
Y1098491D01*
X2895750Y1154000D02*
X2905750D01*
X2900750Y1149000D02*
Y1159000D01*
X2337500Y1133670D02*
X2347500D01*
X2342500Y1128670D02*
Y1138670D01*
X2365000Y1135400D02*
X2375000D01*
X2370000Y1130400D02*
Y1140400D01*
X2282500Y1133670D02*
X2292500D01*
X2287500Y1128670D02*
Y1138670D01*
X2310000Y1135400D02*
X2320000D01*
X2315000Y1130400D02*
Y1140400D01*
X2195000Y1194750D02*
Y1204750D01*
X2190000Y1199750D02*
X2200000D01*
X2532770Y1193230D02*
Y1203230D01*
X2527770Y1198230D02*
X2537770D01*
M02*
