G04*
G04 #@! TF.GenerationSoftware,Altium Limited,Altium Designer,20.2.5 (213)*
G04*
G04 Layer_Color=8388736*
%FSLAX44Y44*%
%MOMM*%
G71*
G04*
G04 #@! TF.SameCoordinates,6FB6FDCA-9B6E-4508-9425-F46C68CC7845*
G04*
G04*
G04 #@! TF.FilePolarity,Negative*
G04*
G01*
G75*
%ADD26R,1.0000X1.2500*%
%ADD28R,1.2621X0.9549*%
%ADD29R,1.5082X1.2065*%
%ADD30R,1.2065X1.5082*%
%ADD34R,0.9549X1.2621*%
%ADD35R,1.3549X1.4621*%
%ADD36R,1.1500X1.1500*%
%ADD38R,1.2000X1.2000*%
%ADD43R,1.2000X1.2000*%
%ADD45R,1.4082X1.0065*%
%ADD46R,1.1032X1.1032*%
%ADD47R,1.1032X2.4532*%
%ADD48R,2.4532X1.1032*%
%ADD49R,0.6032X0.5832*%
%ADD50R,1.5732X2.1132*%
%ADD51C,2.2032*%
%ADD52R,1.5032X1.3032*%
%ADD53R,1.3032X1.5032*%
%ADD54R,1.8032X2.3832*%
%ADD55R,1.8032X2.4032*%
%ADD56R,1.7532X1.5532*%
%ADD57R,1.7032X1.6032*%
%ADD58R,1.2532X1.6532*%
%ADD59R,1.3032X1.5532*%
%ADD60R,1.6032X1.7032*%
G04:AMPARAMS|DCode=61|XSize=0.7532mm|YSize=1.9032mm|CornerRadius=0.1511mm|HoleSize=0mm|Usage=FLASHONLY|Rotation=270.000|XOffset=0mm|YOffset=0mm|HoleType=Round|Shape=RoundedRectangle|*
%AMROUNDEDRECTD61*
21,1,0.7532,1.6010,0,0,270.0*
21,1,0.4510,1.9032,0,0,270.0*
1,1,0.3022,-0.8005,-0.2255*
1,1,0.3022,-0.8005,0.2255*
1,1,0.3022,0.8005,0.2255*
1,1,0.3022,0.8005,-0.2255*
%
%ADD61ROUNDEDRECTD61*%
%ADD62R,1.4032X1.4032*%
%ADD63C,1.1500*%
%ADD64C,1.7032*%
%ADD65R,1.7032X1.7032*%
%ADD66C,1.2000*%
%ADD67C,1.8032*%
%ADD68R,1.8032X1.8032*%
%ADD69R,1.7032X1.7032*%
%ADD70C,1.4000*%
%ADD71R,1.4000X1.4000*%
%ADD72C,1.5032*%
%ADD73R,1.5032X1.5032*%
%ADD74R,1.1500X1.1500*%
%ADD75C,1.4112*%
%ADD76R,1.4000X1.4000*%
%ADD77C,3.7032*%
%ADD78C,0.9032*%
D26*
X2162895Y1290500D02*
D03*
X2182895D02*
D03*
D28*
X2657500Y1108810D02*
D03*
Y1124323D02*
D03*
Y1160310D02*
D03*
Y1175823D02*
D03*
X2660000Y1058810D02*
D03*
Y1074323D02*
D03*
Y1007310D02*
D03*
Y1022823D02*
D03*
Y952655D02*
D03*
Y968168D02*
D03*
Y904310D02*
D03*
Y919823D02*
D03*
X2657500Y1240000D02*
D03*
Y1224487D02*
D03*
Y1302250D02*
D03*
Y1286737D02*
D03*
Y1365540D02*
D03*
Y1350027D02*
D03*
D29*
X2857500Y1048420D02*
D03*
Y1027403D02*
D03*
X2826750Y1048420D02*
D03*
Y1027403D02*
D03*
D30*
X2479663Y1116030D02*
D03*
X2500680D02*
D03*
X2221517Y1290500D02*
D03*
X2200500D02*
D03*
D34*
X2518739Y1270732D02*
D03*
X2503226D02*
D03*
D35*
X2075000Y1276500D02*
D03*
X2094513D02*
D03*
X2099750Y985750D02*
D03*
X2080237D02*
D03*
X2911263Y983500D02*
D03*
X2891750D02*
D03*
X2894737Y1275750D02*
D03*
X2914250D02*
D03*
D36*
X2388750Y917000D02*
D03*
Y940500D02*
D03*
Y978500D02*
D03*
Y1002000D02*
D03*
X2560500Y1357750D02*
D03*
D38*
X2193250Y901500D02*
D03*
Y922500D02*
D03*
D43*
X2044179Y1106321D02*
D03*
X2023179D02*
D03*
X2795000Y1164000D02*
D03*
Y959500D02*
D03*
Y1062500D02*
D03*
Y908000D02*
D03*
Y1112500D02*
D03*
Y1011000D02*
D03*
X2124000Y1204000D02*
D03*
Y1161500D02*
D03*
X2123750Y1118500D02*
D03*
X2412500Y1072500D02*
D03*
D45*
X2189000Y965241D02*
D03*
Y984259D02*
D03*
X2187500Y1006741D02*
D03*
Y1025759D02*
D03*
D46*
X2359000Y1244400D02*
D03*
X2345000D02*
D03*
X2331000D02*
D03*
X2359000Y1216400D02*
D03*
X2345000D02*
D03*
X2331000D02*
D03*
X2359000Y1230400D02*
D03*
X2331000D02*
D03*
X2345000D02*
D03*
D47*
X2429850Y1126000D02*
D03*
X2417150D02*
D03*
X2404450D02*
D03*
X2391750D02*
D03*
X2379050D02*
D03*
X2366350D02*
D03*
X2353650D02*
D03*
X2340950D02*
D03*
X2328250D02*
D03*
X2315550D02*
D03*
X2302850D02*
D03*
X2290150D02*
D03*
D48*
X2451500Y1307600D02*
D03*
Y1142500D02*
D03*
Y1155200D02*
D03*
Y1167900D02*
D03*
Y1180600D02*
D03*
Y1193300D02*
D03*
Y1206000D02*
D03*
Y1218700D02*
D03*
Y1231400D02*
D03*
Y1244100D02*
D03*
Y1256800D02*
D03*
Y1269500D02*
D03*
Y1282200D02*
D03*
Y1294900D02*
D03*
X2268750Y1269400D02*
D03*
Y1256700D02*
D03*
Y1244000D02*
D03*
Y1231300D02*
D03*
Y1218600D02*
D03*
Y1205900D02*
D03*
Y1193200D02*
D03*
Y1180500D02*
D03*
Y1167800D02*
D03*
Y1155100D02*
D03*
Y1142400D02*
D03*
Y1282100D02*
D03*
Y1294800D02*
D03*
Y1307500D02*
D03*
D49*
X2592500Y1066500D02*
D03*
Y1060880D02*
D03*
X2592000Y1086870D02*
D03*
Y1081250D02*
D03*
Y1102500D02*
D03*
Y1108120D02*
D03*
X2605000Y1060880D02*
D03*
Y1066500D02*
D03*
Y1081190D02*
D03*
Y1086810D02*
D03*
X2604500Y1108120D02*
D03*
Y1102500D02*
D03*
D50*
X2054210Y1201500D02*
D03*
X2025790D02*
D03*
X2054210Y1170000D02*
D03*
X2025790D02*
D03*
D51*
X2615001Y975000D02*
D03*
Y937496D02*
D03*
X2615000Y899250D02*
D03*
D52*
X2679250Y1109500D02*
D03*
Y1130500D02*
D03*
X2407250Y919250D02*
D03*
Y940250D02*
D03*
Y980500D02*
D03*
Y1001500D02*
D03*
X2679250Y1161000D02*
D03*
Y1182000D02*
D03*
X2681750Y1059500D02*
D03*
Y1080500D02*
D03*
Y1008000D02*
D03*
Y1029000D02*
D03*
Y956500D02*
D03*
Y977500D02*
D03*
Y905000D02*
D03*
Y926000D02*
D03*
X2679650Y1242650D02*
D03*
Y1221650D02*
D03*
X2680000Y1305500D02*
D03*
Y1284500D02*
D03*
Y1368000D02*
D03*
Y1347000D02*
D03*
D53*
X2518500Y1248250D02*
D03*
X2497500D02*
D03*
X2074500Y1254250D02*
D03*
X2095500D02*
D03*
X2101000Y1009000D02*
D03*
X2080000D02*
D03*
X2912750Y1006000D02*
D03*
X2891750D02*
D03*
X2892750Y1253500D02*
D03*
X2913750D02*
D03*
D54*
X2303307Y946236D02*
D03*
X2261173Y1038236D02*
D03*
X2218250Y1040250D02*
D03*
X2346374Y947168D02*
D03*
D55*
X2303307Y1038136D02*
D03*
X2261173Y946336D02*
D03*
X2218250Y948350D02*
D03*
X2346374Y1039068D02*
D03*
D56*
X2219038Y903138D02*
D03*
Y922638D02*
D03*
D57*
X2228322Y1203230D02*
D03*
X2163322D02*
D03*
X2374318Y1020068D02*
D03*
Y1039068D02*
D03*
D58*
X2044158Y1084001D02*
D03*
X2025658D02*
D03*
D59*
X2201500Y1264000D02*
D03*
X2215500D02*
D03*
D60*
X2182500Y1264750D02*
D03*
X2163500D02*
D03*
X2299250Y912500D02*
D03*
X2280250D02*
D03*
D61*
X2498500Y1229450D02*
D03*
Y1216750D02*
D03*
Y1204050D02*
D03*
Y1191350D02*
D03*
Y1178650D02*
D03*
Y1165950D02*
D03*
Y1153250D02*
D03*
Y1140550D02*
D03*
X2591500Y1229450D02*
D03*
Y1216750D02*
D03*
Y1204050D02*
D03*
Y1191350D02*
D03*
Y1178650D02*
D03*
Y1165950D02*
D03*
Y1153250D02*
D03*
Y1140550D02*
D03*
D62*
X2167250Y984350D02*
D03*
Y963350D02*
D03*
X2167500Y1026000D02*
D03*
Y1005000D02*
D03*
D63*
X2560500Y1312750D02*
D03*
Y1327750D02*
D03*
Y1342750D02*
D03*
X2141742Y1046758D02*
D03*
X2126742D02*
D03*
X2111742D02*
D03*
D64*
X2717500Y1358290D02*
D03*
X2757500D02*
D03*
X2737500D02*
D03*
X2717500Y1295000D02*
D03*
X2757500D02*
D03*
X2737500D02*
D03*
X2717500Y1232750D02*
D03*
X2757500D02*
D03*
X2737500D02*
D03*
X2520812Y1373900D02*
D03*
Y1348500D02*
D03*
Y1323100D02*
D03*
X2182500Y1352900D02*
D03*
X2842250Y1352000D02*
D03*
X2838750Y928500D02*
D03*
X2145000Y1331000D02*
D03*
X2150000Y910000D02*
D03*
D65*
X2777500Y1358290D02*
D03*
Y1295000D02*
D03*
Y1232750D02*
D03*
D66*
X2715000Y1164000D02*
D03*
X2735000D02*
D03*
X2755000D02*
D03*
X2775000D02*
D03*
X2715000Y959500D02*
D03*
X2735000D02*
D03*
X2755000D02*
D03*
X2775000D02*
D03*
X2715000Y1062500D02*
D03*
X2735000D02*
D03*
X2755000D02*
D03*
X2775000D02*
D03*
X2715000Y908000D02*
D03*
X2735000D02*
D03*
X2755000D02*
D03*
X2775000D02*
D03*
X2715000Y1112500D02*
D03*
X2735000D02*
D03*
X2755000D02*
D03*
X2775000D02*
D03*
X2715000Y1011000D02*
D03*
X2735000D02*
D03*
X2755000D02*
D03*
X2775000D02*
D03*
X2094000Y1204000D02*
D03*
X2109000D02*
D03*
X2094000Y1161500D02*
D03*
X2109000D02*
D03*
X2093750Y1118500D02*
D03*
X2108750D02*
D03*
X2312500Y1072500D02*
D03*
X2332500D02*
D03*
X2352500D02*
D03*
X2372500D02*
D03*
X2392500D02*
D03*
D67*
X2959400Y1046250D02*
D03*
X2934000D02*
D03*
D68*
X2908600D02*
D03*
D69*
X2520812Y1297700D02*
D03*
X2182500Y1327500D02*
D03*
X2842250Y1332000D02*
D03*
X2838750Y908500D02*
D03*
X2145000Y1351000D02*
D03*
X2150000Y930000D02*
D03*
D70*
X2572500Y988999D02*
D03*
X2547500D02*
D03*
X2522500D02*
D03*
X2497500D02*
D03*
X2472500D02*
D03*
X2572500Y922500D02*
D03*
X2547500D02*
D03*
X2522500D02*
D03*
X2497500D02*
D03*
X2472500D02*
D03*
X2024500Y1295000D02*
D03*
Y1320000D02*
D03*
Y1345000D02*
D03*
X2040000Y965000D02*
D03*
Y940000D02*
D03*
Y915000D02*
D03*
X2960500Y965000D02*
D03*
Y940000D02*
D03*
Y915000D02*
D03*
X2952500Y1295000D02*
D03*
Y1320000D02*
D03*
Y1345000D02*
D03*
D71*
X2447500Y988999D02*
D03*
Y922500D02*
D03*
D72*
X2093000Y1311000D02*
D03*
Y1331000D02*
D03*
X2098000Y910000D02*
D03*
Y930000D02*
D03*
X2892500Y949000D02*
D03*
Y929000D02*
D03*
X2894500Y1351000D02*
D03*
Y1331000D02*
D03*
D73*
X2093000Y1351000D02*
D03*
X2098000Y950000D02*
D03*
X2892500Y909000D02*
D03*
X2894500Y1311000D02*
D03*
D74*
X2096742Y1046758D02*
D03*
D75*
X2096000Y1080000D02*
D03*
X2111000D02*
D03*
X2126000D02*
D03*
X2141000D02*
D03*
X2156000D02*
D03*
X2171000D02*
D03*
D76*
X2024500Y1270000D02*
D03*
X2040000Y990000D02*
D03*
X2960500D02*
D03*
X2952500Y1270000D02*
D03*
D77*
X2902750Y1224750D02*
D03*
X2844000Y989000D02*
D03*
X2019000Y1042000D02*
D03*
X2497500Y1080500D02*
D03*
X2224250D02*
D03*
X2236750Y1343000D02*
D03*
X2485000D02*
D03*
D78*
X2367115Y1155056D02*
D03*
X2309500Y1217750D02*
D03*
X2297500Y1217500D02*
D03*
X2469212Y1217719D02*
D03*
X2808702Y1024601D02*
D03*
X2841750Y1037250D02*
D03*
X2129230Y1005000D02*
D03*
X2520000Y1153000D02*
D03*
X2199190Y1342500D02*
D03*
X2205506Y1202087D02*
D03*
X2241690Y1168500D02*
D03*
X2247700Y1180487D02*
D03*
X2404500Y1161000D02*
D03*
X2391922Y1160922D02*
D03*
X2378863Y1159613D02*
D03*
X2718250Y1084000D02*
D03*
X2411777Y966527D02*
D03*
X2163500Y1250050D02*
D03*
X2958000Y1023000D02*
D03*
X2536650Y1182215D02*
D03*
X2244750Y1269500D02*
D03*
X2245250Y1256750D02*
D03*
X2230000Y1245940D02*
D03*
X2063000Y1224000D02*
D03*
X2417000Y1100000D02*
D03*
X2430000Y1101000D02*
D03*
X2178810Y937000D02*
D03*
X2845000Y1243810D02*
D03*
X2919000Y1163000D02*
D03*
X2856730Y1323000D02*
D03*
X2865000Y1330000D02*
D03*
X2267000Y1119000D02*
D03*
X2286000Y1081000D02*
D03*
X2365000Y1008000D02*
D03*
X2316000Y1004000D02*
D03*
X2324000Y1041000D02*
D03*
X2469000Y1071000D02*
D03*
X2612000Y1230000D02*
D03*
X2531656Y1169384D02*
D03*
X2522451Y1164277D02*
D03*
X2554000Y1153968D02*
D03*
X2796000Y1274000D02*
D03*
X2581000Y1094000D02*
D03*
X2584000Y1072000D02*
D03*
X2312000Y968000D02*
D03*
X2248000Y1233000D02*
D03*
X2247500Y1244000D02*
D03*
X2116738Y1240762D02*
D03*
X2138030Y1121000D02*
D03*
Y1143310D02*
D03*
X2824000Y1113000D02*
D03*
X2886500Y1058710D02*
D03*
X2434000Y1066000D02*
D03*
X2615000Y1258000D02*
D03*
X2534000Y1245000D02*
D03*
X2470000Y1269000D02*
D03*
X2534000Y1257000D02*
D03*
Y1270000D02*
D03*
X2634000Y938000D02*
D03*
X2805000Y1210000D02*
D03*
X2716000D02*
D03*
X2470000Y1256000D02*
D03*
X2480000Y1295000D02*
D03*
X2470000Y1282200D02*
D03*
Y1168000D02*
D03*
X2455000Y1114030D02*
D03*
X2484000Y1152000D02*
D03*
X2478250Y1042500D02*
D03*
X2827000Y1262000D02*
D03*
X2424000Y892000D02*
D03*
X2247500Y1205000D02*
D03*
Y1193000D02*
D03*
Y1220000D02*
D03*
X2592500Y975000D02*
D03*
X2207500Y1157500D02*
D03*
X2182500D02*
D03*
X2427500Y1190000D02*
D03*
X2470000Y1200000D02*
D03*
X2477500Y1190000D02*
D03*
X2470000Y1181000D02*
D03*
X2160000Y1320000D02*
D03*
X2265500Y918000D02*
D03*
X2137500Y1017500D02*
D03*
X2280500Y977500D02*
D03*
X2290000Y995000D02*
D03*
X2032500Y1132500D02*
D03*
X2210000Y1370000D02*
D03*
X2725000Y1270000D02*
D03*
X2470000Y1155000D02*
D03*
X2415000Y1197500D02*
D03*
X2817500Y1322500D02*
D03*
X2470000Y1231000D02*
D03*
Y1244000D02*
D03*
M02*
