G04*
G04 #@! TF.GenerationSoftware,Altium Limited,Altium Designer,20.2.5 (213)*
G04*
G04 Layer_Color=2752767*
%FSLAX44Y44*%
%MOMM*%
G71*
G04*
G04 #@! TF.SameCoordinates,F2EF3DC7-CE59-478A-9F64-9A272EA7E262*
G04*
G04*
G04 #@! TF.FilePolarity,Positive*
G04*
G01*
G75*
%ADD125C,0.0508*%
%ADD126C,0.0677*%
%ADD127C,0.0339*%
D125*
X10916Y-199042D02*
Y-194978D01*
X14980D01*
Y-199042D01*
X10916D01*
X-14084D02*
Y-194978D01*
X-10020D01*
Y-199042D01*
X-14084D01*
X-39084D02*
Y-194978D01*
X-35020D01*
Y-199042D01*
X-39084D01*
X-64084D02*
Y-194978D01*
X-60020D01*
Y-199042D01*
X-64084D01*
X-89084D02*
Y-194978D01*
X-85020D01*
Y-199042D01*
X-89084D01*
X-114084D02*
Y-194978D01*
X-110020D01*
Y-199042D01*
X-114084D01*
X-436019Y185634D02*
X-438051Y189698D01*
X-433987D01*
X-436019Y185634D01*
X-461419Y185434D02*
X-463451Y189498D01*
X-459387D01*
X-461419Y185434D01*
X-486819Y185634D02*
X-488851Y189698D01*
X-484787D01*
X-486819Y185634D01*
X-512219D02*
X-514251Y189698D01*
X-510187D01*
X-512219Y185634D01*
X-272080Y185255D02*
X-274112Y189319D01*
X-270048D01*
X-272080Y185255D01*
X-297480D02*
X-299512Y189319D01*
X-295448D01*
X-297480Y185255D01*
X-221280D02*
X-223312Y189319D01*
X-219248D01*
X-221280Y185255D01*
X-246680Y185055D02*
X-248712Y189119D01*
X-244648D01*
X-246680Y185055D01*
X195909Y184855D02*
X193877Y188919D01*
X197941D01*
X195909Y184855D01*
X170509Y184655D02*
X168477Y188719D01*
X172541D01*
X170509Y184655D01*
X145109Y184855D02*
X143077Y188919D01*
X147141D01*
X145109Y184855D01*
X119709D02*
X117677Y188919D01*
X121741D01*
X119709Y184855D01*
X411209D02*
X409177Y188919D01*
X413241D01*
X411209Y184855D01*
X385809Y184655D02*
X383777Y188719D01*
X387841D01*
X385809Y184655D01*
X360409Y184855D02*
X358377Y188919D01*
X362441D01*
X360409Y184855D01*
X335009D02*
X332977Y188919D01*
X337041D01*
X335009Y184855D01*
X88842Y-265843D02*
X89858Y-264827D01*
X90874D01*
X89858Y-263811D01*
X90874Y-262795D01*
X89858D01*
X88842Y-261779D01*
X87826Y-262795D01*
X86810D01*
X87826Y-263811D01*
X86810Y-264827D01*
X87826D01*
X88842Y-265843D01*
X108842D02*
X109858Y-264827D01*
X110874D01*
X109858Y-263811D01*
X110874Y-262795D01*
X109858D01*
X108842Y-261779D01*
X107826Y-262795D01*
X106810D01*
X107826Y-263811D01*
X106810Y-264827D01*
X107826D01*
X108842Y-265843D01*
X128842D02*
X129858Y-264827D01*
X130874D01*
X129858Y-263811D01*
X130874Y-262795D01*
X129858D01*
X128842Y-261779D01*
X127826Y-262795D01*
X126810D01*
X127826Y-263811D01*
X126810Y-264827D01*
X127826D01*
X128842Y-265843D01*
X148842D02*
X149858Y-264827D01*
X150874D01*
X149858Y-263811D01*
X150874Y-262795D01*
X149858D01*
X148842Y-261779D01*
X147826Y-262795D01*
X146810D01*
X147826Y-263811D01*
X146810Y-264827D01*
X147826D01*
X148842Y-265843D01*
X168842D02*
X169858Y-264827D01*
X170874D01*
X169858Y-263811D01*
X170874Y-262795D01*
X169858D01*
X168842Y-261779D01*
X167826Y-262795D01*
X166810D01*
X167826Y-263811D01*
X166810Y-264827D01*
X167826D01*
X168842Y-265843D01*
X-2032Y-96032D02*
X-1016Y-94000D01*
X-2032Y-91968D01*
X0Y-92984D01*
X2032Y-91968D01*
X1016Y-94000D01*
X2032Y-96032D01*
X0Y-95016D01*
X-2032Y-96032D01*
X238968Y-148343D02*
Y-144279D01*
X243032D01*
Y-148343D01*
X238968D01*
X263968D02*
Y-144279D01*
X268032D01*
Y-148343D01*
X263968D01*
X288968D02*
Y-144279D01*
X293032D01*
Y-148343D01*
X288968D01*
X313968D02*
Y-144279D01*
X318032D01*
Y-148343D01*
X313968D01*
X556430Y-128946D02*
Y-124881D01*
X560494D01*
Y-128946D01*
X556430D01*
X581830D02*
Y-124881D01*
X585894D01*
Y-128946D01*
X581830D01*
X607230D02*
Y-124881D01*
X611294D01*
Y-128946D01*
X607230D01*
X632630D02*
Y-124881D01*
X636694D01*
Y-128946D01*
X632630D01*
X565746Y-94930D02*
Y-95946D01*
X567778D01*
Y-94930D01*
X568794D01*
Y-92898D01*
X567778D01*
Y-91882D01*
X565746D01*
Y-92898D01*
X564730D01*
Y-94930D01*
X565746D01*
X625746D02*
Y-95946D01*
X627778D01*
Y-94930D01*
X628794D01*
Y-92898D01*
X627778D01*
Y-91882D01*
X625746D01*
Y-92898D01*
X624730D01*
Y-94930D01*
X625746D01*
X605746D02*
Y-95946D01*
X607778D01*
Y-94930D01*
X608794D01*
Y-92898D01*
X607778D01*
Y-91882D01*
X605746D01*
Y-92898D01*
X604730D01*
Y-94930D01*
X605746D01*
X585746D02*
Y-95946D01*
X587778D01*
Y-94930D01*
X588794D01*
Y-92898D01*
X587778D01*
Y-91882D01*
X585746D01*
Y-92898D01*
X584730D01*
Y-94930D01*
X585746D01*
X-623000Y-83032D02*
X-621984Y-82016D01*
X-620968D01*
X-621984Y-81000D01*
X-620968Y-79984D01*
X-621984D01*
X-623000Y-78968D01*
X-624016Y-79984D01*
X-625032D01*
X-624016Y-81000D01*
X-625032Y-82016D01*
X-624016D01*
X-623000Y-83032D01*
X-608000D02*
X-606984Y-82016D01*
X-605968D01*
X-606984Y-81000D01*
X-605968Y-79984D01*
X-606984D01*
X-608000Y-78968D01*
X-609016Y-79984D01*
X-610032D01*
X-609016Y-81000D01*
X-610032Y-82016D01*
X-609016D01*
X-608000Y-83032D01*
X-593000D02*
X-591984Y-82016D01*
X-590968D01*
X-591984Y-81000D01*
X-590968Y-79984D01*
X-591984D01*
X-593000Y-78968D01*
X-594016Y-79984D01*
X-595032D01*
X-594016Y-81000D01*
X-595032Y-82016D01*
X-594016D01*
X-593000Y-83032D01*
X-578000D02*
X-576984Y-82016D01*
X-575968D01*
X-576984Y-81000D01*
X-575968Y-79984D01*
X-576984D01*
X-578000Y-78968D01*
X-579016Y-79984D01*
X-580032D01*
X-579016Y-81000D01*
X-580032Y-82016D01*
X-579016D01*
X-578000Y-83032D01*
X-563000D02*
X-561984Y-82016D01*
X-560968D01*
X-561984Y-81000D01*
X-560968Y-79984D01*
X-561984D01*
X-563000Y-78968D01*
X-564016Y-79984D01*
X-565032D01*
X-564016Y-81000D01*
X-565032Y-82016D01*
X-564016D01*
X-563000Y-83032D01*
X-548000D02*
X-546984Y-82016D01*
X-545968D01*
X-546984Y-81000D01*
X-545968Y-79984D01*
X-546984D01*
X-548000Y-78968D01*
X-549016Y-79984D01*
X-550032D01*
X-549016Y-81000D01*
X-550032Y-82016D01*
X-549016D01*
X-548000Y-83032D01*
X473710Y267845D02*
X474726Y269877D01*
X473710Y271909D01*
X475742Y270893D01*
X477774Y271909D01*
X476758Y269877D01*
X477774Y267845D01*
X475742Y268861D01*
X473710Y267845D01*
X619346Y143564D02*
X620362D01*
X621377Y144580D01*
X622393Y143564D01*
X623410D01*
Y144580D01*
X622393Y145596D01*
X623410Y146612D01*
Y147628D01*
X622393D01*
X621377Y146612D01*
X620362Y147628D01*
X619346D01*
Y146612D01*
X620362Y145596D01*
X619346Y144580D01*
Y143564D01*
Y123564D02*
X620362D01*
X621377Y124580D01*
X622393Y123564D01*
X623410D01*
Y124580D01*
X622393Y125596D01*
X623410Y126612D01*
Y127628D01*
X622393D01*
X621377Y126612D01*
X620362Y127628D01*
X619346D01*
Y126612D01*
X620362Y125596D01*
X619346Y124580D01*
Y123564D01*
Y103564D02*
X620362D01*
X621377Y104580D01*
X622393Y103564D01*
X623410D01*
Y104580D01*
X622393Y105596D01*
X623410Y106612D01*
Y107628D01*
X622393D01*
X621377Y106612D01*
X620362Y107628D01*
X619346D01*
Y106612D01*
X620362Y105596D01*
X619346Y104580D01*
Y103564D01*
X-334419Y-93766D02*
X-336451Y-89702D01*
X-332387D01*
X-334419Y-93766D01*
X-359819D02*
X-361851Y-89702D01*
X-357787D01*
X-359819Y-93766D01*
X-385219D02*
X-387251Y-89702D01*
X-383187D01*
X-385219Y-93766D01*
X-410619D02*
X-412651Y-89702D01*
X-408587D01*
X-410619Y-93766D01*
X-436019D02*
X-438051Y-89702D01*
X-433987D01*
X-436019Y-93766D01*
X-461419D02*
X-463451Y-89702D01*
X-459387D01*
X-461419Y-93766D01*
X-486819D02*
X-488851Y-89702D01*
X-484787D01*
X-486819Y-93766D01*
X-512219D02*
X-514251Y-89702D01*
X-510187D01*
X-512219Y-93766D01*
X-410619Y185634D02*
X-412651Y189698D01*
X-408587D01*
X-410619Y185634D01*
X-359819D02*
X-361851Y189698D01*
X-357787D01*
X-359819Y185634D01*
X-334419D02*
X-336451Y189698D01*
X-332387D01*
X-334419Y185634D01*
X-385219D02*
X-387251Y189698D01*
X-383187D01*
X-385219Y185634D01*
X-119680Y-94145D02*
X-121712Y-90081D01*
X-117648D01*
X-119680Y-94145D01*
X-145080D02*
X-147112Y-90081D01*
X-143048D01*
X-145080Y-94145D01*
X-170480D02*
X-172512Y-90081D01*
X-168448D01*
X-170480Y-94145D01*
X-195880D02*
X-197912Y-90081D01*
X-193848D01*
X-195880Y-94145D01*
X-221280D02*
X-223312Y-90081D01*
X-219248D01*
X-221280Y-94145D01*
X-246680D02*
X-248712Y-90081D01*
X-244648D01*
X-246680Y-94145D01*
X-272080D02*
X-274112Y-90081D01*
X-270048D01*
X-272080Y-94145D01*
X-297480D02*
X-299512Y-90081D01*
X-295448D01*
X-297480Y-94145D01*
X-195880Y185255D02*
X-197912Y189319D01*
X-193848D01*
X-195880Y185255D01*
X-145080D02*
X-147112Y189319D01*
X-143048D01*
X-145080Y185255D01*
X-119680D02*
X-121712Y189319D01*
X-117648D01*
X-119680Y185255D01*
X-170480D02*
X-172512Y189319D01*
X-168448D01*
X-170480Y185255D01*
X297509Y-94545D02*
X295477Y-90481D01*
X299541D01*
X297509Y-94545D01*
X272109D02*
X270077Y-90481D01*
X274141D01*
X272109Y-94545D01*
X246709D02*
X244677Y-90481D01*
X248741D01*
X246709Y-94545D01*
X221309D02*
X219277Y-90481D01*
X223341D01*
X221309Y-94545D01*
X195909D02*
X193877Y-90481D01*
X197941D01*
X195909Y-94545D01*
X170509D02*
X168477Y-90481D01*
X172541D01*
X170509Y-94545D01*
X145109D02*
X143077Y-90481D01*
X147141D01*
X145109Y-94545D01*
X119709D02*
X117677Y-90481D01*
X121741D01*
X119709Y-94545D01*
X221309Y184855D02*
X219277Y188919D01*
X223341D01*
X221309Y184855D01*
X272109D02*
X270077Y188919D01*
X274141D01*
X272109Y184855D01*
X297509D02*
X295477Y188919D01*
X299541D01*
X297509Y184855D01*
X246709D02*
X244677Y188919D01*
X248741D01*
X246709Y184855D01*
X512809Y-94545D02*
X510777Y-90481D01*
X514841D01*
X512809Y-94545D01*
X487409D02*
X485377Y-90481D01*
X489441D01*
X487409Y-94545D01*
X462009D02*
X459977Y-90481D01*
X464041D01*
X462009Y-94545D01*
X436609D02*
X434577Y-90481D01*
X438641D01*
X436609Y-94545D01*
X411209D02*
X409177Y-90481D01*
X413241D01*
X411209Y-94545D01*
X385809D02*
X383777Y-90481D01*
X387841D01*
X385809Y-94545D01*
X360409D02*
X358377Y-90481D01*
X362441D01*
X360409Y-94545D01*
X335009D02*
X332977Y-90481D01*
X337041D01*
X335009Y-94545D01*
X436609Y184855D02*
X434577Y188919D01*
X438641D01*
X436609Y184855D01*
X487409D02*
X485377Y188919D01*
X489441D01*
X487409Y184855D01*
X512809D02*
X510777Y188919D01*
X514841D01*
X512809Y184855D01*
X462009D02*
X459977Y188919D01*
X464041D01*
X462009Y184855D01*
X-569532Y-209532D02*
X-568516D01*
X-567500Y-208516D01*
X-566484Y-209532D01*
X-565468D01*
Y-208516D01*
X-566484Y-207500D01*
X-565468Y-206484D01*
Y-205468D01*
X-566484D01*
X-567500Y-206484D01*
X-568516Y-205468D01*
X-569532D01*
Y-206484D01*
X-568516Y-207500D01*
X-569532Y-208516D01*
Y-209532D01*
Y-189532D02*
X-568516D01*
X-567500Y-188516D01*
X-566484Y-189532D01*
X-565468D01*
Y-188516D01*
X-566484Y-187500D01*
X-565468Y-186484D01*
Y-185468D01*
X-566484D01*
X-567500Y-186484D01*
X-568516Y-185468D01*
X-569532D01*
Y-186484D01*
X-568516Y-187500D01*
X-569532Y-188516D01*
Y-189532D01*
Y-169532D02*
X-568516D01*
X-567500Y-168516D01*
X-566484Y-169532D01*
X-565468D01*
Y-168516D01*
X-566484Y-167500D01*
X-565468Y-166484D01*
Y-165468D01*
X-566484D01*
X-567500Y-166484D01*
X-568516Y-165468D01*
X-569532D01*
Y-166484D01*
X-568516Y-167500D01*
X-569532Y-168516D01*
Y-169532D01*
X-625070Y103375D02*
X-624054D01*
X-623038Y104391D01*
X-622022Y103375D01*
X-621006D01*
Y104391D01*
X-622022Y105407D01*
X-621006Y106423D01*
Y107439D01*
X-622022D01*
X-623038Y106423D01*
X-624054Y107439D01*
X-625070D01*
Y106423D01*
X-624054Y105407D01*
X-625070Y104391D01*
Y103375D01*
Y123375D02*
X-624054D01*
X-623038Y124391D01*
X-622022Y123375D01*
X-621006D01*
Y124391D01*
X-622022Y125407D01*
X-621006Y126423D01*
Y127439D01*
X-622022D01*
X-623038Y126423D01*
X-624054Y127439D01*
X-625070D01*
Y126423D01*
X-624054Y125407D01*
X-625070Y124391D01*
Y123375D01*
Y143375D02*
X-624054D01*
X-623038Y144391D01*
X-622022Y143375D01*
X-621006D01*
Y144391D01*
X-622022Y145407D01*
X-621006Y146423D01*
Y147439D01*
X-622022D01*
X-623038Y146423D01*
X-624054Y147439D01*
X-625070D01*
Y146423D01*
X-624054Y145407D01*
X-625070Y144391D01*
Y143375D01*
X318500Y-215843D02*
X319516Y-214827D01*
X320532D01*
X319516Y-213811D01*
X320532Y-212795D01*
X319516D01*
X318500Y-211779D01*
X317484Y-212795D01*
X316468D01*
X317484Y-213811D01*
X316468Y-214827D01*
X317484D01*
X318500Y-215843D01*
X168842D02*
X169858Y-214827D01*
X170874D01*
X169858Y-213811D01*
X170874Y-212795D01*
X169858D01*
X168842Y-211779D01*
X167826Y-212795D01*
X166810D01*
X167826Y-213811D01*
X166810Y-214827D01*
X167826D01*
X168842Y-215843D01*
X318500Y-265843D02*
X319516Y-264827D01*
X320532D01*
X319516Y-263811D01*
X320532Y-262795D01*
X319516D01*
X318500Y-261779D01*
X317484Y-262795D01*
X316468D01*
X317484Y-263811D01*
X316468Y-264827D01*
X317484D01*
X318500Y-265843D01*
X466842D02*
X467858Y-264827D01*
X468874D01*
X467858Y-263811D01*
X468874Y-262795D01*
X467858D01*
X466842Y-261779D01*
X465826Y-262795D01*
X464810D01*
X465826Y-263811D01*
X464810Y-264827D01*
X465826D01*
X466842Y-265843D01*
X466000Y-215843D02*
X467016Y-214827D01*
X468032D01*
X467016Y-213811D01*
X468032Y-212795D01*
X467016D01*
X466000Y-211779D01*
X464984Y-212795D01*
X463968D01*
X464984Y-213811D01*
X463968Y-214827D01*
X464984D01*
X466000Y-215843D01*
X-577750Y-43282D02*
X-576734Y-42266D01*
X-575718D01*
X-576734Y-41250D01*
X-575718Y-40234D01*
X-576734D01*
X-577750Y-39218D01*
X-578766Y-40234D01*
X-579782D01*
X-578766Y-41250D01*
X-579782Y-42266D01*
X-578766D01*
X-577750Y-43282D01*
Y37346D02*
X-576734Y38362D01*
X-575718D01*
X-576734Y39378D01*
X-575718Y40394D01*
X-576734D01*
X-577750Y41410D01*
X-578766Y40394D01*
X-579782D01*
X-578766Y39378D01*
X-579782Y38362D01*
X-578766D01*
X-577750Y37346D01*
Y77968D02*
X-576734Y78984D01*
X-575718D01*
X-576734Y80000D01*
X-575718Y81016D01*
X-576734D01*
X-577750Y82032D01*
X-578766Y81016D01*
X-579782D01*
X-578766Y80000D01*
X-579782Y78984D01*
X-578766D01*
X-577750Y77968D01*
Y-2654D02*
X-576734Y-1638D01*
X-575718D01*
X-576734Y-622D01*
X-575718Y394D01*
X-576734D01*
X-577750Y1410D01*
X-578766Y394D01*
X-579782D01*
X-578766Y-622D01*
X-579782Y-1638D01*
X-578766D01*
X-577750Y-2654D01*
X-547750Y77968D02*
X-546734Y78984D01*
X-545718D01*
X-546734Y80000D01*
X-545718Y81016D01*
X-546734D01*
X-547750Y82032D01*
X-548766Y81016D01*
X-549782D01*
X-548766Y80000D01*
X-549782Y78984D01*
X-548766D01*
X-547750Y77968D01*
X-562750D02*
X-561734Y78984D01*
X-560718D01*
X-561734Y80000D01*
X-560718Y81016D01*
X-561734D01*
X-562750Y82032D01*
X-563766Y81016D01*
X-564782D01*
X-563766Y80000D01*
X-564782Y78984D01*
X-563766D01*
X-562750Y77968D01*
Y37346D02*
X-561734Y38362D01*
X-560718D01*
X-561734Y39378D01*
X-560718Y40394D01*
X-561734D01*
X-562750Y41410D01*
X-563766Y40394D01*
X-564782D01*
X-563766Y39378D01*
X-564782Y38362D01*
X-563766D01*
X-562750Y37346D01*
X-547750D02*
X-546734Y38362D01*
X-545718D01*
X-546734Y39378D01*
X-545718Y40394D01*
X-546734D01*
X-547750Y41410D01*
X-548766Y40394D01*
X-549782D01*
X-548766Y39378D01*
X-549782Y38362D01*
X-548766D01*
X-547750Y37346D01*
X-562750Y-2654D02*
X-561734Y-1638D01*
X-560718D01*
X-561734Y-622D01*
X-560718Y394D01*
X-561734D01*
X-562750Y1410D01*
X-563766Y394D01*
X-564782D01*
X-563766Y-622D01*
X-564782Y-1638D01*
X-563766D01*
X-562750Y-2654D01*
X-547750D02*
X-546734Y-1638D01*
X-545718D01*
X-546734Y-622D01*
X-545718Y394D01*
X-546734D01*
X-547750Y1410D01*
X-548766Y394D01*
X-549782D01*
X-548766Y-622D01*
X-549782Y-1638D01*
X-548766D01*
X-547750Y-2654D01*
X-562750Y-43282D02*
X-561734Y-42266D01*
X-560718D01*
X-561734Y-41250D01*
X-560718Y-40234D01*
X-561734D01*
X-562750Y-39218D01*
X-563766Y-40234D01*
X-564782D01*
X-563766Y-41250D01*
X-564782Y-42266D01*
X-563766D01*
X-562750Y-43282D01*
X-547750D02*
X-546734Y-42266D01*
X-545718D01*
X-546734Y-41250D01*
X-545718Y-40234D01*
X-546734D01*
X-547750Y-39218D01*
X-548766Y-40234D01*
X-549782D01*
X-548766Y-41250D01*
X-549782Y-42266D01*
X-548766D01*
X-547750Y-43282D01*
X-10032Y61400D02*
X-8000Y63432D01*
X-5968Y61400D01*
X-8000Y59368D01*
X-10032Y61400D01*
X-24032D02*
X-22000Y63432D01*
X-19968Y61400D01*
X-22000Y59368D01*
X-24032Y61400D01*
X-10032Y75400D02*
X-8000Y77432D01*
X-5968Y75400D01*
X-8000Y73368D01*
X-10032Y75400D01*
X-24032D02*
X-22000Y77432D01*
X-19968Y75400D01*
X-22000Y73368D01*
X-24032Y75400D01*
X-10032Y89400D02*
X-8000Y91432D01*
X-5968Y89400D01*
X-8000Y87368D01*
X-10032Y89400D01*
X-24032D02*
X-22000Y91432D01*
X-19968Y89400D01*
X-22000Y87368D01*
X-24032Y89400D01*
X-3032Y68400D02*
X-1000Y70432D01*
X1032Y68400D01*
X-1000Y66368D01*
X-3032Y68400D01*
X-17032D02*
X-15000Y70432D01*
X-12968Y68400D01*
X-15000Y66368D01*
X-17032Y68400D01*
X-31032D02*
X-29000Y70432D01*
X-26968Y68400D01*
X-29000Y66368D01*
X-31032Y68400D01*
X-3032Y82400D02*
X-1000Y84432D01*
X1032Y82400D01*
X-1000Y80368D01*
X-3032Y82400D01*
X-31032D02*
X-29000Y84432D01*
X-26968Y82400D01*
X-29000Y80368D01*
X-31032Y82400D01*
X-17032D02*
X-15000Y84432D01*
X-12968Y82400D01*
X-15000Y80368D01*
X-17032Y82400D01*
X-127032Y273368D02*
Y277432D01*
X-122968D01*
Y273368D01*
X-127032D01*
Y247968D02*
Y252032D01*
X-122968D01*
Y247968D01*
X-127032D01*
X-113584Y-264292D02*
Y-260228D01*
X-109520D01*
Y-264292D01*
X-113584D01*
X-88584D02*
Y-260228D01*
X-84520D01*
Y-264292D01*
X-88584D01*
X-63584D02*
Y-260228D01*
X-59520D01*
Y-264292D01*
X-63584D01*
X-38584D02*
Y-260228D01*
X-34520D01*
Y-264292D01*
X-38584D01*
X-13584D02*
Y-260228D01*
X-9520D01*
Y-264292D01*
X-13584D01*
X11416D02*
Y-260228D01*
X15480D01*
Y-264292D01*
X11416D01*
X238500Y-215843D02*
X239516Y-214827D01*
X240532D01*
X239516Y-213811D01*
X240532Y-212795D01*
X239516D01*
X238500Y-211779D01*
X237484Y-212795D01*
X236468D01*
X237484Y-213811D01*
X236468Y-214827D01*
X237484D01*
X238500Y-215843D01*
X258500D02*
X259516Y-214827D01*
X260532D01*
X259516Y-213811D01*
X260532Y-212795D01*
X259516D01*
X258500Y-211779D01*
X257484Y-212795D01*
X256468D01*
X257484Y-213811D01*
X256468Y-214827D01*
X257484D01*
X258500Y-215843D01*
X278500D02*
X279516Y-214827D01*
X280532D01*
X279516Y-213811D01*
X280532Y-212795D01*
X279516D01*
X278500Y-211779D01*
X277484Y-212795D01*
X276468D01*
X277484Y-213811D01*
X276468Y-214827D01*
X277484D01*
X278500Y-215843D01*
X298500D02*
X299516Y-214827D01*
X300532D01*
X299516Y-213811D01*
X300532Y-212795D01*
X299516D01*
X298500Y-211779D01*
X297484Y-212795D01*
X296468D01*
X297484Y-213811D01*
X296468Y-214827D01*
X297484D01*
X298500Y-215843D01*
X164468Y-148343D02*
Y-144279D01*
X168532D01*
Y-148343D01*
X164468D01*
X139468D02*
Y-144279D01*
X143532D01*
Y-148343D01*
X139468D01*
X114468D02*
Y-144279D01*
X118532D01*
Y-148343D01*
X114468D01*
X89468D02*
Y-144279D01*
X93532D01*
Y-148343D01*
X89468D01*
X461468D02*
Y-144279D01*
X465532D01*
Y-148343D01*
X461468D01*
X436468D02*
Y-144279D01*
X440532D01*
Y-148343D01*
X436468D01*
X411468D02*
Y-144279D01*
X415532D01*
Y-148343D01*
X411468D01*
X386468D02*
Y-144279D01*
X390532D01*
Y-148343D01*
X386468D01*
X-657098Y-211453D02*
X-656082Y-209421D01*
X-657098Y-207389D01*
X-655066Y-208405D01*
X-653034Y-207389D01*
X-654050Y-209421D01*
X-653034Y-211453D01*
X-655066Y-210437D01*
X-657098Y-211453D01*
X653034D02*
X654050Y-209421D01*
X653034Y-207389D01*
X655066Y-208405D01*
X657098Y-207389D01*
X656082Y-209421D01*
X657098Y-211453D01*
X655066Y-210437D01*
X653034Y-211453D01*
Y208917D02*
X654050Y210949D01*
X653034Y212981D01*
X655066Y211965D01*
X657098Y212981D01*
X656082Y210949D01*
X657098Y208917D01*
X655066Y209933D01*
X653034Y208917D01*
X-477774Y267845D02*
X-476758Y269877D01*
X-477774Y271909D01*
X-475742Y270893D01*
X-473710Y271909D01*
X-474726Y269877D01*
X-473710Y267845D01*
X-475742Y268861D01*
X-477774Y267845D01*
X-657098Y208917D02*
X-656082Y210949D01*
X-657098Y212981D01*
X-655066Y211965D01*
X-653034Y212981D01*
X-654050Y210949D01*
X-653034Y208917D01*
X-655066Y209933D01*
X-657098Y208917D01*
X-53448Y-145512D02*
Y-141447D01*
X-49384D01*
Y-145512D01*
X-53448D01*
X-52432Y-144495D02*
Y-142464D01*
X-50400D01*
Y-144495D01*
X-52432D01*
X-38448Y-145512D02*
Y-141447D01*
X-34384D01*
Y-145512D01*
X-38448D01*
X-37432Y-144495D02*
Y-142464D01*
X-35400D01*
Y-144495D01*
X-37432D01*
X-23448Y-145512D02*
Y-141447D01*
X-19384D01*
Y-145512D01*
X-23448D01*
X-22432Y-144495D02*
Y-142464D01*
X-20400D01*
Y-144495D01*
X-22432D01*
X-8448Y-145512D02*
Y-141447D01*
X-4384D01*
Y-145512D01*
X-8448D01*
X-7432Y-144495D02*
Y-142464D01*
X-5400D01*
Y-144495D01*
X-7432D01*
X148842Y-215843D02*
X149858Y-214827D01*
X150874D01*
X149858Y-213811D01*
X150874Y-212795D01*
X149858D01*
X148842Y-211779D01*
X147826Y-212795D01*
X146810D01*
X147826Y-213811D01*
X146810Y-214827D01*
X147826D01*
X148842Y-215843D01*
X128842D02*
X129858Y-214827D01*
X130874D01*
X129858Y-213811D01*
X130874Y-212795D01*
X129858D01*
X128842Y-211779D01*
X127826Y-212795D01*
X126810D01*
X127826Y-213811D01*
X126810Y-214827D01*
X127826D01*
X128842Y-215843D01*
X108842D02*
X109858Y-214827D01*
X110874D01*
X109858Y-213811D01*
X110874Y-212795D01*
X109858D01*
X108842Y-211779D01*
X107826Y-212795D01*
X106810D01*
X107826Y-213811D01*
X106810Y-214827D01*
X107826D01*
X108842Y-215843D01*
X88842D02*
X89858Y-214827D01*
X90874D01*
X89858Y-213811D01*
X90874Y-212795D01*
X89858D01*
X88842Y-211779D01*
X87826Y-212795D01*
X86810D01*
X87826Y-213811D01*
X86810Y-214827D01*
X87826D01*
X88842Y-215843D01*
X298500Y-265843D02*
X299516Y-264827D01*
X300532D01*
X299516Y-263811D01*
X300532Y-262795D01*
X299516D01*
X298500Y-261779D01*
X297484Y-262795D01*
X296468D01*
X297484Y-263811D01*
X296468Y-264827D01*
X297484D01*
X298500Y-265843D01*
X278500D02*
X279516Y-264827D01*
X280532D01*
X279516Y-263811D01*
X280532Y-262795D01*
X279516D01*
X278500Y-261779D01*
X277484Y-262795D01*
X276468D01*
X277484Y-263811D01*
X276468Y-264827D01*
X277484D01*
X278500Y-265843D01*
X258500D02*
X259516Y-264827D01*
X260532D01*
X259516Y-263811D01*
X260532Y-262795D01*
X259516D01*
X258500Y-261779D01*
X257484Y-262795D01*
X256468D01*
X257484Y-263811D01*
X256468Y-264827D01*
X257484D01*
X258500Y-265843D01*
X238500D02*
X239516Y-264827D01*
X240532D01*
X239516Y-263811D01*
X240532Y-262795D01*
X239516D01*
X238500Y-261779D01*
X237484Y-262795D01*
X236468D01*
X237484Y-263811D01*
X236468Y-264827D01*
X237484D01*
X238500Y-265843D01*
X446842D02*
X447858Y-264827D01*
X448874D01*
X447858Y-263811D01*
X448874Y-262795D01*
X447858D01*
X446842Y-261779D01*
X445826Y-262795D01*
X444810D01*
X445826Y-263811D01*
X444810Y-264827D01*
X445826D01*
X446842Y-265843D01*
X426842D02*
X427858Y-264827D01*
X428874D01*
X427858Y-263811D01*
X428874Y-262795D01*
X427858D01*
X426842Y-261779D01*
X425826Y-262795D01*
X424810D01*
X425826Y-263811D01*
X424810Y-264827D01*
X425826D01*
X426842Y-265843D01*
X406842D02*
X407858Y-264827D01*
X408874D01*
X407858Y-263811D01*
X408874Y-262795D01*
X407858D01*
X406842Y-261779D01*
X405826Y-262795D01*
X404810D01*
X405826Y-263811D01*
X404810Y-264827D01*
X405826D01*
X406842Y-265843D01*
X386842D02*
X387858Y-264827D01*
X388874D01*
X387858Y-263811D01*
X388874Y-262795D01*
X387858D01*
X386842Y-261779D01*
X385826Y-262795D01*
X384810D01*
X385826Y-263811D01*
X384810Y-264827D01*
X385826D01*
X386842Y-265843D01*
X446000Y-215843D02*
X447016Y-214827D01*
X448032D01*
X447016Y-213811D01*
X448032Y-212795D01*
X447016D01*
X446000Y-211779D01*
X444984Y-212795D01*
X443968D01*
X444984Y-213811D01*
X443968Y-214827D01*
X444984D01*
X446000Y-215843D01*
X426000D02*
X427016Y-214827D01*
X428032D01*
X427016Y-213811D01*
X428032Y-212795D01*
X427016D01*
X426000Y-211779D01*
X424984Y-212795D01*
X423968D01*
X424984Y-213811D01*
X423968Y-214827D01*
X424984D01*
X426000Y-215843D01*
X406000D02*
X407016Y-214827D01*
X408032D01*
X407016Y-213811D01*
X408032Y-212795D01*
X407016D01*
X406000Y-211779D01*
X404984Y-212795D01*
X403968D01*
X404984Y-213811D01*
X403968Y-214827D01*
X404984D01*
X406000Y-215843D01*
X386000D02*
X387016Y-214827D01*
X388032D01*
X387016Y-213811D01*
X388032Y-212795D01*
X387016D01*
X386000Y-211779D01*
X384984Y-212795D01*
X383968D01*
X384984Y-213811D01*
X383968Y-214827D01*
X384984D01*
X386000Y-215843D01*
X555530Y-169532D02*
X556545D01*
X557561Y-168516D01*
X558577Y-169532D01*
X559594D01*
Y-168516D01*
X558577Y-167500D01*
X559594Y-166484D01*
Y-165468D01*
X558577D01*
X557561Y-166484D01*
X556545Y-165468D01*
X555530D01*
Y-166484D01*
X556545Y-167500D01*
X555530Y-168516D01*
Y-169532D01*
Y-189532D02*
X556545D01*
X557561Y-188516D01*
X558577Y-189532D01*
X559594D01*
Y-188516D01*
X558577Y-187500D01*
X559594Y-186484D01*
Y-185468D01*
X558577D01*
X557561Y-186484D01*
X556545Y-185468D01*
X555530D01*
Y-186484D01*
X556545Y-187500D01*
X555530Y-188516D01*
Y-189532D01*
Y-209532D02*
X556545D01*
X557561Y-208516D01*
X558577Y-209532D01*
X559594D01*
Y-208516D01*
X558577Y-207500D01*
X559594Y-206484D01*
Y-205468D01*
X558577D01*
X557561Y-206484D01*
X556545Y-205468D01*
X555530D01*
Y-206484D01*
X556545Y-207500D01*
X555530Y-208516D01*
Y-209532D01*
X259000Y-81032D02*
X256968Y-76968D01*
X261032D01*
X259000Y-81032D01*
Y-80016D02*
X257984Y-77984D01*
X260016D01*
X259000Y-80016D01*
X-129187Y-218220D02*
X-128172Y-217204D01*
X-127156D01*
X-128172Y-216187D01*
X-127156Y-215172D01*
X-128172D01*
X-129187Y-214156D01*
X-130204Y-215172D01*
X-131220D01*
X-130204Y-216187D01*
X-131220Y-217204D01*
X-130204D01*
X-129187Y-218220D01*
Y-217204D02*
X-128680Y-216695D01*
X-128172D01*
X-128680Y-216187D01*
X-128172Y-215679D01*
X-128680D01*
X-129187Y-215172D01*
X-129696Y-215679D01*
X-130204D01*
X-129696Y-216187D01*
X-130204Y-216695D01*
X-129696D01*
X-129187Y-217204D01*
X-129939Y-227295D02*
X-128923Y-226279D01*
X-127907D01*
X-128923Y-225263D01*
X-127907Y-224247D01*
X-128923D01*
X-129939Y-223231D01*
X-130955Y-224247D01*
X-131971D01*
X-130955Y-225263D01*
X-131971Y-226279D01*
X-130955D01*
X-129939Y-227295D01*
Y-226279D02*
X-129431Y-225771D01*
X-128923D01*
X-129431Y-225263D01*
X-128923Y-224755D01*
X-129431D01*
X-129939Y-224247D01*
X-130447Y-224755D01*
X-130955D01*
X-130447Y-225263D01*
X-130955Y-225771D01*
X-130447D01*
X-129939Y-226279D01*
X665066Y97068D02*
X666082Y98084D01*
X667098D01*
X666082Y99100D01*
X667098Y100116D01*
X666082D01*
X665066Y101132D01*
X664050Y100116D01*
X663034D01*
X664050Y99100D01*
X663034Y98084D01*
X664050D01*
X665066Y97068D01*
Y98084D02*
X665574Y98592D01*
X666082D01*
X665574Y99100D01*
X666082Y99608D01*
X665574D01*
X665066Y100116D01*
X664558Y99608D01*
X664050D01*
X664558Y99100D01*
X664050Y98592D01*
X664558D01*
X665066Y98084D01*
X22772Y212037D02*
X23788Y214069D01*
X22772Y216101D01*
X24804Y215085D01*
X26836Y216101D01*
X25820Y214069D01*
X26836Y212037D01*
X24804Y213053D01*
X22772Y212037D01*
X23788Y213053D02*
X24296Y214069D01*
X23788Y215085D01*
X24804Y214577D01*
X25820Y215085D01*
X25312Y214069D01*
X25820Y213053D01*
X24804Y213561D01*
X23788Y213053D01*
X-165313Y211966D02*
X-164297Y213998D01*
X-165313Y216030D01*
X-163281Y215014D01*
X-161249Y216030D01*
X-162265Y213998D01*
X-161249Y211966D01*
X-163281Y212982D01*
X-165313Y211966D01*
X-164297Y212982D02*
X-163789Y213998D01*
X-164297Y215014D01*
X-163281Y214506D01*
X-162265Y215014D01*
X-162773Y213998D01*
X-162265Y212982D01*
X-163281Y213490D01*
X-164297Y212982D01*
X295556Y211716D02*
X296572Y213748D01*
X295556Y215781D01*
X297588Y214764D01*
X299620Y215781D01*
X298604Y213748D01*
X299620Y211716D01*
X297588Y212733D01*
X295556Y211716D01*
X296572Y212733D02*
X297080Y213748D01*
X296572Y214764D01*
X297588Y214256D01*
X298604Y214764D01*
X298096Y213748D01*
X298604Y212733D01*
X297588Y213241D01*
X296572Y212733D01*
X-338782Y211968D02*
X-337766Y214000D01*
X-338782Y216032D01*
X-336750Y215016D01*
X-334718Y216032D01*
X-335734Y214000D01*
X-334718Y211968D01*
X-336750Y212984D01*
X-338782Y211968D01*
X-337766Y212984D02*
X-337258Y214000D01*
X-337766Y215016D01*
X-336750Y214508D01*
X-335734Y215016D01*
X-336242Y214000D01*
X-335734Y212984D01*
X-336750Y213492D01*
X-337766Y212984D01*
X255000Y-33215D02*
X256016Y-32199D01*
X257032D01*
X256016Y-31183D01*
X257032Y-30167D01*
X256016D01*
X255000Y-29151D01*
X253984Y-30167D01*
X252968D01*
X253984Y-31183D01*
X252968Y-32199D01*
X253984D01*
X255000Y-33215D01*
Y-32199D02*
X255508Y-31691D01*
X256016D01*
X255508Y-31183D01*
X256016Y-30675D01*
X255508D01*
X255000Y-30167D01*
X254492Y-30675D01*
X253984D01*
X254492Y-31183D01*
X253984Y-31691D01*
X254492D01*
X255000Y-32199D01*
X385000Y-8032D02*
X386016Y-7016D01*
X387032D01*
X386016Y-6000D01*
X387032Y-4984D01*
X386016D01*
X385000Y-3968D01*
X383984Y-4984D01*
X382968D01*
X383984Y-6000D01*
X382968Y-7016D01*
X383984D01*
X385000Y-8032D01*
Y-7016D02*
X385508Y-6508D01*
X386016D01*
X385508Y-6000D01*
X386016Y-5492D01*
X385508D01*
X385000Y-4984D01*
X384492Y-5492D01*
X383984D01*
X384492Y-6000D01*
X383984Y-6508D01*
X384492D01*
X385000Y-7016D01*
X479000Y68598D02*
X480016Y69614D01*
X481032D01*
X480016Y70630D01*
X481032Y71646D01*
X480016D01*
X479000Y72662D01*
X477984Y71646D01*
X476968D01*
X477984Y70630D01*
X476968Y69614D01*
X477984D01*
X479000Y68598D01*
Y69614D02*
X479508Y70122D01*
X480016D01*
X479508Y70630D01*
X480016Y71138D01*
X479508D01*
X479000Y71646D01*
X478492Y71138D01*
X477984D01*
X478492Y70630D01*
X477984Y70122D01*
X478492D01*
X479000Y69614D01*
X554000Y119218D02*
X555016Y120234D01*
X556032D01*
X555016Y121250D01*
X556032Y122266D01*
X555016D01*
X554000Y123282D01*
X552984Y122266D01*
X551968D01*
X552984Y121250D01*
X551968Y120234D01*
X552984D01*
X554000Y119218D01*
Y120234D02*
X554508Y120742D01*
X555016D01*
X554508Y121250D01*
X555016Y121758D01*
X554508D01*
X554000Y122266D01*
X553492Y121758D01*
X552984D01*
X553492Y121250D01*
X552984Y120742D01*
X553492D01*
X554000Y120234D01*
X453000Y130048D02*
X454016Y131064D01*
X455032D01*
X454016Y132080D01*
X455032Y133096D01*
X454016D01*
X453000Y134112D01*
X451984Y133096D01*
X450968D01*
X451984Y132080D01*
X450968Y131064D01*
X451984D01*
X453000Y130048D01*
Y131064D02*
X453508Y131572D01*
X454016D01*
X453508Y132080D01*
X454016Y132588D01*
X453508D01*
X453000Y133096D01*
X452492Y132588D01*
X451984D01*
X452492Y132080D01*
X451984Y131572D01*
X452492D01*
X453000Y131064D01*
X227250Y104218D02*
X228266Y105234D01*
X229282D01*
X228266Y106250D01*
X229282Y107266D01*
X228266D01*
X227250Y108282D01*
X226234Y107266D01*
X225218D01*
X226234Y106250D01*
X225218Y105234D01*
X226234D01*
X227250Y104218D01*
Y105234D02*
X227758Y105742D01*
X228266D01*
X227758Y106250D01*
X228266Y106758D01*
X227758D01*
X227250Y107266D01*
X226742Y106758D01*
X226234D01*
X226742Y106250D01*
X226234Y105742D01*
X226742D01*
X227250Y105234D01*
X238500Y90468D02*
X239516Y91484D01*
X240532D01*
X239516Y92500D01*
X240532Y93516D01*
X239516D01*
X238500Y94532D01*
X237484Y93516D01*
X236468D01*
X237484Y92500D01*
X236468Y91484D01*
X237484D01*
X238500Y90468D01*
Y91484D02*
X239008Y91992D01*
X239516D01*
X239008Y92500D01*
X239516Y93008D01*
X239008D01*
X238500Y93516D01*
X237992Y93008D01*
X237484D01*
X237992Y92500D01*
X237484Y91992D01*
X237992D01*
X238500Y91484D01*
X-75840Y-92801D02*
X-74824Y-91785D01*
X-73808D01*
X-74824Y-90769D01*
X-73808Y-89753D01*
X-74824D01*
X-75840Y-88737D01*
X-76856Y-89753D01*
X-77872D01*
X-76856Y-90769D01*
X-77872Y-91785D01*
X-76856D01*
X-75840Y-92801D01*
Y-91785D02*
X-75332Y-91277D01*
X-74824D01*
X-75332Y-90769D01*
X-74824Y-90261D01*
X-75332D01*
X-75840Y-89753D01*
X-76348Y-90261D01*
X-76856D01*
X-76348Y-90769D01*
X-76856Y-91277D01*
X-76348D01*
X-75840Y-91785D01*
X-71071Y-102961D02*
X-70055Y-101945D01*
X-69039D01*
X-70055Y-100929D01*
X-69039Y-99913D01*
X-70055D01*
X-71071Y-98897D01*
X-72087Y-99913D01*
X-73103D01*
X-72087Y-100929D01*
X-73103Y-101945D01*
X-72087D01*
X-71071Y-102961D01*
Y-101945D02*
X-70563Y-101437D01*
X-70055D01*
X-70563Y-100929D01*
X-70055Y-100421D01*
X-70563D01*
X-71071Y-99913D01*
X-71579Y-100421D01*
X-72087D01*
X-71579Y-100929D01*
X-72087Y-101437D01*
X-71579D01*
X-71071Y-101945D01*
X-216250Y-242032D02*
X-215234Y-241016D01*
X-214218D01*
X-215234Y-240000D01*
X-214218Y-238984D01*
X-215234D01*
X-216250Y-237968D01*
X-217266Y-238984D01*
X-218282D01*
X-217266Y-240000D01*
X-218282Y-241016D01*
X-217266D01*
X-216250Y-242032D01*
Y-241016D02*
X-215742Y-240508D01*
X-215234D01*
X-215742Y-240000D01*
X-215234Y-239492D01*
X-215742D01*
X-216250Y-238984D01*
X-216758Y-239492D01*
X-217266D01*
X-216758Y-240000D01*
X-217266Y-240508D01*
X-216758D01*
X-216250Y-241016D01*
X-134323Y-124115D02*
X-133307Y-123099D01*
X-132291D01*
X-133307Y-122083D01*
X-132291Y-121067D01*
X-133307D01*
X-134323Y-120051D01*
X-135339Y-121067D01*
X-136355D01*
X-135339Y-122083D01*
X-136355Y-123099D01*
X-135339D01*
X-134323Y-124115D01*
Y-123099D02*
X-133815Y-122591D01*
X-133307D01*
X-133815Y-122083D01*
X-133307Y-121575D01*
X-133815D01*
X-134323Y-121067D01*
X-134831Y-121575D01*
X-135339D01*
X-134831Y-122083D01*
X-135339Y-122591D01*
X-134831D01*
X-134323Y-123099D01*
X-228000Y82718D02*
X-226984Y83734D01*
X-225968D01*
X-226984Y84750D01*
X-225968Y85766D01*
X-226984D01*
X-228000Y86782D01*
X-229016Y85766D01*
X-230032D01*
X-229016Y84750D01*
X-230032Y83734D01*
X-229016D01*
X-228000Y82718D01*
Y83734D02*
X-227492Y84242D01*
X-226984D01*
X-227492Y84750D01*
X-226984Y85258D01*
X-227492D01*
X-228000Y85766D01*
X-228508Y85258D01*
X-229016D01*
X-228508Y84750D01*
X-229016Y84242D01*
X-228508D01*
X-228000Y83734D01*
X15448Y-174347D02*
X16464Y-173331D01*
X17480D01*
X16464Y-172315D01*
X17480Y-171299D01*
X16464D01*
X15448Y-170283D01*
X14432Y-171299D01*
X13416D01*
X14432Y-172315D01*
X13416Y-173331D01*
X14432D01*
X15448Y-174347D01*
Y-173331D02*
X15956Y-172823D01*
X16464D01*
X15956Y-172315D01*
X16464Y-171807D01*
X15956D01*
X15448Y-171299D01*
X14940Y-171807D01*
X14432D01*
X14940Y-172315D01*
X14432Y-172823D01*
X14940D01*
X15448Y-173331D01*
X-447500Y-272032D02*
X-446484Y-271016D01*
X-445468D01*
X-446484Y-270000D01*
X-445468Y-268984D01*
X-446484D01*
X-447500Y-267968D01*
X-448516Y-268984D01*
X-449532D01*
X-448516Y-270000D01*
X-449532Y-271016D01*
X-448516D01*
X-447500Y-272032D01*
Y-271016D02*
X-446992Y-270508D01*
X-446484D01*
X-446992Y-270000D01*
X-446484Y-269492D01*
X-446992D01*
X-447500Y-268984D01*
X-448008Y-269492D01*
X-448516D01*
X-448008Y-270000D01*
X-448516Y-270508D01*
X-448008D01*
X-447500Y-271016D01*
X137250Y113218D02*
X135218Y117282D01*
X139282D01*
X137250Y113218D01*
Y114234D02*
X136234Y116266D01*
X138266D01*
X137250Y114234D01*
X102832Y-118864D02*
X103848Y-117848D01*
X104864D01*
X103848Y-116832D01*
X104864Y-115816D01*
X103848D01*
X102832Y-114800D01*
X101816Y-115816D01*
X100800D01*
X101816Y-116832D01*
X100800Y-117848D01*
X101816D01*
X102832Y-118864D01*
Y-117848D02*
X103340Y-117340D01*
X103848D01*
X103340Y-116832D01*
X103848Y-116324D01*
X103340D01*
X102832Y-115816D01*
X102324Y-116324D01*
X101816D01*
X102324Y-116832D01*
X101816Y-117340D01*
X102324D01*
X102832Y-117848D01*
X-128000Y-183782D02*
X-130032Y-179718D01*
X-125968D01*
X-128000Y-183782D01*
Y-182766D02*
X-129016Y-180734D01*
X-126984D01*
X-128000Y-182766D01*
X-190000Y-142032D02*
X-192032Y-137968D01*
X-187968D01*
X-190000Y-142032D01*
Y-141016D02*
X-191016Y-138984D01*
X-188984D01*
X-190000Y-141016D01*
X-309750Y-173282D02*
X-311782Y-169218D01*
X-307718D01*
X-309750Y-173282D01*
Y-172266D02*
X-310766Y-170234D01*
X-308734D01*
X-309750Y-172266D01*
X160460Y19218D02*
X161476Y20234D01*
X162492D01*
X161476Y21250D01*
X162492Y22266D01*
X161476D01*
X160460Y23282D01*
X159444Y22266D01*
X158428D01*
X159444Y21250D01*
X158428Y20234D01*
X159444D01*
X160460Y19218D01*
Y20234D02*
X160968Y20742D01*
X161476D01*
X160968Y21250D01*
X161476Y21758D01*
X160968D01*
X160460Y22266D01*
X159952Y21758D01*
X159444D01*
X159952Y21250D01*
X159444Y20742D01*
X159952D01*
X160460Y20234D01*
X160250Y30968D02*
X161266Y31984D01*
X162282D01*
X161266Y33000D01*
X162282Y34016D01*
X161266D01*
X160250Y35032D01*
X159234Y34016D01*
X158218D01*
X159234Y33000D01*
X158218Y31984D01*
X159234D01*
X160250Y30968D01*
Y31984D02*
X160758Y32492D01*
X161266D01*
X160758Y33000D01*
X161266Y33508D01*
X160758D01*
X160250Y34016D01*
X159742Y33508D01*
X159234D01*
X159742Y33000D01*
X159234Y32492D01*
X159742D01*
X160250Y31984D01*
X118250Y-15782D02*
X116218Y-11718D01*
X120282D01*
X118250Y-15782D01*
Y-14766D02*
X117234Y-12734D01*
X119266D01*
X118250Y-14766D01*
X-407500Y-266532D02*
X-409532Y-262468D01*
X-405468D01*
X-407500Y-266532D01*
Y-265516D02*
X-408516Y-263484D01*
X-406484D01*
X-407500Y-265516D01*
X-64750Y19718D02*
X-66782Y23782D01*
X-62718D01*
X-64750Y19718D01*
Y20734D02*
X-65766Y22766D01*
X-63734D01*
X-64750Y20734D01*
X46500Y-1782D02*
X44468Y2282D01*
X48532D01*
X46500Y-1782D01*
Y-766D02*
X45484Y1266D01*
X47516D01*
X46500Y-766D01*
X-163000Y54968D02*
X-165032Y59032D01*
X-160968D01*
X-163000Y54968D01*
Y55984D02*
X-164016Y58016D01*
X-161984D01*
X-163000Y55984D01*
X-422798Y-130630D02*
X-421782Y-129614D01*
X-420766D01*
X-421782Y-128598D01*
X-420766Y-127582D01*
X-421782D01*
X-422798Y-126566D01*
X-423814Y-127582D01*
X-424830D01*
X-423814Y-128598D01*
X-424830Y-129614D01*
X-423814D01*
X-422798Y-130630D01*
Y-129614D02*
X-422290Y-129106D01*
X-421782D01*
X-422290Y-128598D01*
X-421782Y-128090D01*
X-422290D01*
X-422798Y-127582D01*
X-423306Y-128090D01*
X-423814D01*
X-423306Y-128598D01*
X-423814Y-129106D01*
X-423306D01*
X-422798Y-129614D01*
X-539500Y-159345D02*
X-538484Y-158329D01*
X-537468D01*
X-538484Y-157313D01*
X-537468Y-156297D01*
X-538484D01*
X-539500Y-155281D01*
X-540516Y-156297D01*
X-541532D01*
X-540516Y-157313D01*
X-541532Y-158329D01*
X-540516D01*
X-539500Y-159345D01*
Y-158329D02*
X-538992Y-157821D01*
X-538484D01*
X-538992Y-157313D01*
X-538484Y-156805D01*
X-538992D01*
X-539500Y-156297D01*
X-540008Y-156805D01*
X-540516D01*
X-540008Y-157313D01*
X-540516Y-157821D01*
X-540008D01*
X-539500Y-158329D01*
X38948Y-281891D02*
X39964Y-280875D01*
X40980D01*
X39964Y-279859D01*
X40980Y-278843D01*
X39964D01*
X38948Y-277827D01*
X37932Y-278843D01*
X36916D01*
X37932Y-279859D01*
X36916Y-280875D01*
X37932D01*
X38948Y-281891D01*
Y-280875D02*
X39456Y-280367D01*
X39964D01*
X39456Y-279859D01*
X39964Y-279351D01*
X39456D01*
X38948Y-278843D01*
X38440Y-279351D01*
X37932D01*
X38440Y-279859D01*
X37932Y-280367D01*
X38440D01*
X38948Y-280875D01*
X346270Y46968D02*
X347286Y47984D01*
X348302D01*
X347286Y49000D01*
X348302Y50016D01*
X347286D01*
X346270Y51032D01*
X345254Y50016D01*
X344238D01*
X345254Y49000D01*
X344238Y47984D01*
X345254D01*
X346270Y46968D01*
Y47984D02*
X346778Y48492D01*
X347286D01*
X346778Y49000D01*
X347286Y49508D01*
X346778D01*
X346270Y50016D01*
X345762Y49508D01*
X345254D01*
X345762Y49000D01*
X345254Y48492D01*
X345762D01*
X346270Y47984D01*
X194753Y56968D02*
X195769Y57984D01*
X196785D01*
X195769Y59000D01*
X196785Y60016D01*
X195769D01*
X194753Y61032D01*
X193737Y60016D01*
X192721D01*
X193737Y59000D01*
X192721Y57984D01*
X193737D01*
X194753Y56968D01*
Y57984D02*
X195261Y58492D01*
X195769D01*
X195261Y59000D01*
X195769Y59508D01*
X195261D01*
X194753Y60016D01*
X194245Y59508D01*
X193737D01*
X194245Y59000D01*
X193737Y58492D01*
X194245D01*
X194753Y57984D01*
X335000Y46968D02*
X336016Y47984D01*
X337032D01*
X336016Y49000D01*
X337032Y50016D01*
X336016D01*
X335000Y51032D01*
X333984Y50016D01*
X332968D01*
X333984Y49000D01*
X332968Y47984D01*
X333984D01*
X335000Y46968D01*
Y47984D02*
X335508Y48492D01*
X336016D01*
X335508Y49000D01*
X336016Y49508D01*
X335508D01*
X335000Y50016D01*
X334492Y49508D01*
X333984D01*
X334492Y49000D01*
X333984Y48492D01*
X334492D01*
X335000Y47984D01*
X194000Y46968D02*
X195016Y47984D01*
X196032D01*
X195016Y49000D01*
X196032Y50016D01*
X195016D01*
X194000Y51032D01*
X192984Y50016D01*
X191968D01*
X192984Y49000D01*
X191968Y47984D01*
X192984D01*
X194000Y46968D01*
Y47984D02*
X194508Y48492D01*
X195016D01*
X194508Y49000D01*
X195016Y49508D01*
X194508D01*
X194000Y50016D01*
X193492Y49508D01*
X192984D01*
X193492Y49000D01*
X192984Y48492D01*
X193492D01*
X194000Y47984D01*
X638000Y36655D02*
X639016Y37671D01*
X640032D01*
X639016Y38687D01*
X640032Y39703D01*
X639016D01*
X638000Y40719D01*
X636984Y39703D01*
X635968D01*
X636984Y38687D01*
X635968Y37671D01*
X636984D01*
X638000Y36655D01*
Y37671D02*
X638508Y38179D01*
X639016D01*
X638508Y38687D01*
X639016Y39195D01*
X638508D01*
X638000Y39703D01*
X637492Y39195D01*
X636984D01*
X637492Y38687D01*
X636984Y38179D01*
X637492D01*
X638000Y37671D01*
X617000Y54968D02*
X618016Y55984D01*
X619032D01*
X618016Y57000D01*
X619032Y58016D01*
X618016D01*
X617000Y59032D01*
X615984Y58016D01*
X614968D01*
X615984Y57000D01*
X614968Y55984D01*
X615984D01*
X617000Y54968D01*
Y55984D02*
X617508Y56492D01*
X618016D01*
X617508Y57000D01*
X618016Y57508D01*
X617508D01*
X617000Y58016D01*
X616492Y57508D01*
X615984D01*
X616492Y57000D01*
X615984Y56492D01*
X616492D01*
X617000Y55984D01*
X579000Y-36032D02*
X580016Y-35016D01*
X581032D01*
X580016Y-34000D01*
X581032Y-32984D01*
X580016D01*
X579000Y-31968D01*
X577984Y-32984D01*
X576968D01*
X577984Y-34000D01*
X576968Y-35016D01*
X577984D01*
X579000Y-36032D01*
Y-35016D02*
X579508Y-34508D01*
X580016D01*
X579508Y-34000D01*
X580016Y-33492D01*
X579508D01*
X579000Y-32984D01*
X578492Y-33492D01*
X577984D01*
X578492Y-34000D01*
X577984Y-34508D01*
X578492D01*
X579000Y-35016D01*
X436000Y-8032D02*
X437016Y-7016D01*
X438032D01*
X437016Y-6000D01*
X438032Y-4984D01*
X437016D01*
X436000Y-3968D01*
X434984Y-4984D01*
X433968D01*
X434984Y-6000D01*
X433968Y-7016D01*
X434984D01*
X436000Y-8032D01*
Y-7016D02*
X436508Y-6508D01*
X437016D01*
X436508Y-6000D01*
X437016Y-5492D01*
X436508D01*
X436000Y-4984D01*
X435492Y-5492D01*
X434984D01*
X435492Y-6000D01*
X434984Y-6508D01*
X435492D01*
X436000Y-7016D01*
X308298Y29255D02*
X309314Y30271D01*
X310330D01*
X309314Y31287D01*
X310330Y32303D01*
X309314D01*
X308298Y33319D01*
X307282Y32303D01*
X306266D01*
X307282Y31287D01*
X306266Y30271D01*
X307282D01*
X308298Y29255D01*
Y30271D02*
X308806Y30779D01*
X309314D01*
X308806Y31287D01*
X309314Y31795D01*
X308806D01*
X308298Y32303D01*
X307790Y31795D01*
X307282D01*
X307790Y31287D01*
X307282Y30779D01*
X307790D01*
X308298Y30271D01*
X479000Y18968D02*
X480016Y19984D01*
X481032D01*
X480016Y21000D01*
X481032Y22016D01*
X480016D01*
X479000Y23032D01*
X477984Y22016D01*
X476968D01*
X477984Y21000D01*
X476968Y19984D01*
X477984D01*
X479000Y18968D01*
Y19984D02*
X479508Y20492D01*
X480016D01*
X479508Y21000D01*
X480016Y21508D01*
X479508D01*
X479000Y22016D01*
X478492Y21508D01*
X477984D01*
X478492Y21000D01*
X477984Y20492D01*
X478492D01*
X479000Y19984D01*
X254798Y27182D02*
X255814Y28198D01*
X256830D01*
X255814Y29214D01*
X256830Y30230D01*
X255814D01*
X254798Y31246D01*
X253782Y30230D01*
X252766D01*
X253782Y29214D01*
X252766Y28198D01*
X253782D01*
X254798Y27182D01*
Y28198D02*
X255306Y28706D01*
X255814D01*
X255306Y29214D01*
X255814Y29722D01*
X255306D01*
X254798Y30230D01*
X254290Y29722D01*
X253782D01*
X254290Y29214D01*
X253782Y28706D01*
X254290D01*
X254798Y28198D01*
X221154Y-74432D02*
X222170Y-73416D01*
X223186D01*
X222170Y-72400D01*
X223186Y-71384D01*
X222170D01*
X221154Y-70368D01*
X220138Y-71384D01*
X219122D01*
X220138Y-72400D01*
X219122Y-73416D01*
X220138D01*
X221154Y-74432D01*
Y-73416D02*
X221662Y-72908D01*
X222170D01*
X221662Y-72400D01*
X222170Y-71892D01*
X221662D01*
X221154Y-71384D01*
X220646Y-71892D01*
X220138D01*
X220646Y-72400D01*
X220138Y-72908D01*
X220646D01*
X221154Y-73416D01*
X401000Y-170032D02*
X402016Y-169016D01*
X403032D01*
X402016Y-168000D01*
X403032Y-166984D01*
X402016D01*
X401000Y-165968D01*
X399984Y-166984D01*
X398968D01*
X399984Y-168000D01*
X398968Y-169016D01*
X399984D01*
X401000Y-170032D01*
Y-169016D02*
X401508Y-168508D01*
X402016D01*
X401508Y-168000D01*
X402016Y-167492D01*
X401508D01*
X401000Y-166984D01*
X400492Y-167492D01*
X399984D01*
X400492Y-168000D01*
X399984Y-168508D01*
X400492D01*
X401000Y-169016D01*
X381003Y-190032D02*
X382019Y-189016D01*
X383035D01*
X382019Y-188000D01*
X383035Y-186984D01*
X382019D01*
X381003Y-185968D01*
X379987Y-186984D01*
X378971D01*
X379987Y-188000D01*
X378971Y-189016D01*
X379987D01*
X381003Y-190032D01*
Y-189016D02*
X381511Y-188508D01*
X382019D01*
X381511Y-188000D01*
X382019Y-187492D01*
X381511D01*
X381003Y-186984D01*
X380495Y-187492D01*
X379987D01*
X380495Y-188000D01*
X379987Y-188508D01*
X380495D01*
X381003Y-189016D01*
X341690Y-179797D02*
X342706Y-178781D01*
X343722D01*
X342706Y-177765D01*
X343722Y-176749D01*
X342706D01*
X341690Y-175733D01*
X340674Y-176749D01*
X339658D01*
X340674Y-177765D01*
X339658Y-178781D01*
X340674D01*
X341690Y-179797D01*
Y-178781D02*
X342198Y-178273D01*
X342706D01*
X342198Y-177765D01*
X342706Y-177257D01*
X342198D01*
X341690Y-176749D01*
X341182Y-177257D01*
X340674D01*
X341182Y-177765D01*
X340674Y-178273D01*
X341182D01*
X341690Y-178781D01*
X366500Y-226691D02*
X367516Y-225675D01*
X368532D01*
X367516Y-224659D01*
X368532Y-223643D01*
X367516D01*
X366500Y-222627D01*
X365484Y-223643D01*
X364468D01*
X365484Y-224659D01*
X364468Y-225675D01*
X365484D01*
X366500Y-226691D01*
Y-225675D02*
X367008Y-225167D01*
X367516D01*
X367008Y-224659D01*
X367516Y-224151D01*
X367008D01*
X366500Y-223643D01*
X365992Y-224151D01*
X365484D01*
X365992Y-224659D01*
X365484Y-225167D01*
X365992D01*
X366500Y-225675D01*
X286042Y152968D02*
X287059Y153984D01*
X288074D01*
X287059Y155000D01*
X288074Y156016D01*
X287059D01*
X286042Y157032D01*
X285026Y156016D01*
X284011D01*
X285026Y155000D01*
X284011Y153984D01*
X285026D01*
X286042Y152968D01*
Y153984D02*
X286551Y154492D01*
X287059D01*
X286551Y155000D01*
X287059Y155508D01*
X286551D01*
X286042Y156016D01*
X285534Y155508D01*
X285026D01*
X285534Y155000D01*
X285026Y154492D01*
X285534D01*
X286042Y153984D01*
X286000Y114968D02*
X287016Y115984D01*
X288032D01*
X287016Y117000D01*
X288032Y118016D01*
X287016D01*
X286000Y119032D01*
X284984Y118016D01*
X283968D01*
X284984Y117000D01*
X283968Y115984D01*
X284984D01*
X286000Y114968D01*
Y115984D02*
X286508Y116492D01*
X287016D01*
X286508Y117000D01*
X287016Y117508D01*
X286508D01*
X286000Y118016D01*
X285492Y117508D01*
X284984D01*
X285492Y117000D01*
X284984Y116492D01*
X285492D01*
X286000Y115984D01*
X244000Y115088D02*
X245016Y116104D01*
X246032D01*
X245016Y117120D01*
X246032Y118136D01*
X245016D01*
X244000Y119152D01*
X242984Y118136D01*
X241968D01*
X242984Y117120D01*
X241968Y116104D01*
X242984D01*
X244000Y115088D01*
Y116104D02*
X244508Y116612D01*
X245016D01*
X244508Y117120D01*
X245016Y117628D01*
X244508D01*
X244000Y118136D01*
X243492Y117628D01*
X242984D01*
X243492Y117120D01*
X242984Y116612D01*
X243492D01*
X244000Y116104D01*
X-169798Y-161630D02*
X-168782Y-160614D01*
X-167766D01*
X-168782Y-159598D01*
X-167766Y-158582D01*
X-168782D01*
X-169798Y-157566D01*
X-170814Y-158582D01*
X-171830D01*
X-170814Y-159598D01*
X-171830Y-160614D01*
X-170814D01*
X-169798Y-161630D01*
Y-160614D02*
X-169290Y-160106D01*
X-168782D01*
X-169290Y-159598D01*
X-168782Y-159090D01*
X-169290D01*
X-169798Y-158582D01*
X-170306Y-159090D01*
X-170814D01*
X-170306Y-159598D01*
X-170814Y-160106D01*
X-170306D01*
X-169798Y-160614D01*
X-147798Y-169630D02*
X-146782Y-168614D01*
X-145766D01*
X-146782Y-167598D01*
X-145766Y-166582D01*
X-146782D01*
X-147798Y-165566D01*
X-148814Y-166582D01*
X-149830D01*
X-148814Y-167598D01*
X-149830Y-168614D01*
X-148814D01*
X-147798Y-169630D01*
Y-168614D02*
X-147290Y-168106D01*
X-146782D01*
X-147290Y-167598D01*
X-146782Y-167090D01*
X-147290D01*
X-147798Y-166582D01*
X-148306Y-167090D01*
X-148814D01*
X-148306Y-167598D01*
X-148814Y-168106D01*
X-148306D01*
X-147798Y-168614D01*
X324000Y-134032D02*
X325016Y-133016D01*
X326032D01*
X325016Y-132000D01*
X326032Y-130984D01*
X325016D01*
X324000Y-129968D01*
X322984Y-130984D01*
X321968D01*
X322984Y-132000D01*
X321968Y-133016D01*
X322984D01*
X324000Y-134032D01*
Y-133016D02*
X324508Y-132508D01*
X325016D01*
X324508Y-132000D01*
X325016Y-131492D01*
X324508D01*
X324000Y-130984D01*
X323492Y-131492D01*
X322984D01*
X323492Y-132000D01*
X322984Y-132508D01*
X323492D01*
X324000Y-133016D01*
X247165Y-236843D02*
X248181Y-235827D01*
X249197D01*
X248181Y-234811D01*
X249197Y-233795D01*
X248181D01*
X247165Y-232779D01*
X246149Y-233795D01*
X245133D01*
X246149Y-234811D01*
X245133Y-235827D01*
X246149D01*
X247165Y-236843D01*
Y-235827D02*
X247673Y-235319D01*
X248181D01*
X247673Y-234811D01*
X248181Y-234303D01*
X247673D01*
X247165Y-233795D01*
X246657Y-234303D01*
X246149D01*
X246657Y-234811D01*
X246149Y-235319D01*
X246657D01*
X247165Y-235827D01*
X225838Y-232843D02*
X226854Y-231827D01*
X227870D01*
X226854Y-230811D01*
X227870Y-229795D01*
X226854D01*
X225838Y-228779D01*
X224822Y-229795D01*
X223806D01*
X224822Y-230811D01*
X223806Y-231827D01*
X224822D01*
X225838Y-232843D01*
Y-231827D02*
X226346Y-231319D01*
X226854D01*
X226346Y-230811D01*
X226854Y-230303D01*
X226346D01*
X225838Y-229795D01*
X225330Y-230303D01*
X224822D01*
X225330Y-230811D01*
X224822Y-231319D01*
X225330D01*
X225838Y-231827D01*
X189342Y-223080D02*
X190358Y-222064D01*
X191374D01*
X190358Y-221048D01*
X191374Y-220032D01*
X190358D01*
X189342Y-219016D01*
X188326Y-220032D01*
X187310D01*
X188326Y-221048D01*
X187310Y-222064D01*
X188326D01*
X189342Y-223080D01*
Y-222064D02*
X189850Y-221556D01*
X190358D01*
X189850Y-221048D01*
X190358Y-220540D01*
X189850D01*
X189342Y-220032D01*
X188834Y-220540D01*
X188326D01*
X188834Y-221048D01*
X188326Y-221556D01*
X188834D01*
X189342Y-222064D01*
X186590Y-182343D02*
X187607Y-181327D01*
X188622D01*
X187607Y-180311D01*
X188622Y-179295D01*
X187607D01*
X186590Y-178279D01*
X185574Y-179295D01*
X184559D01*
X185574Y-180311D01*
X184559Y-181327D01*
X185574D01*
X186590Y-182343D01*
Y-181327D02*
X187099Y-180819D01*
X187607D01*
X187099Y-180311D01*
X187607Y-179803D01*
X187099D01*
X186590Y-179295D01*
X186082Y-179803D01*
X185574D01*
X186082Y-180311D01*
X185574Y-180819D01*
X186082D01*
X186590Y-181327D01*
X81847Y-99726D02*
X82863Y-98709D01*
X83878D01*
X82863Y-97694D01*
X83878Y-96678D01*
X82863D01*
X81847Y-95661D01*
X80830Y-96678D01*
X79815D01*
X80830Y-97694D01*
X79815Y-98709D01*
X80830D01*
X81847Y-99726D01*
Y-98709D02*
X82354Y-98202D01*
X82863D01*
X82354Y-97694D01*
X82863Y-97185D01*
X82354D01*
X81847Y-96678D01*
X81339Y-97185D01*
X80830D01*
X81339Y-97694D01*
X80830Y-98202D01*
X81339D01*
X81847Y-98709D01*
X81000Y-107952D02*
X82016Y-106936D01*
X83032D01*
X82016Y-105920D01*
X83032Y-104904D01*
X82016D01*
X81000Y-103888D01*
X79984Y-104904D01*
X78968D01*
X79984Y-105920D01*
X78968Y-106936D01*
X79984D01*
X81000Y-107952D01*
Y-106936D02*
X81508Y-106428D01*
X82016D01*
X81508Y-105920D01*
X82016Y-105412D01*
X81508D01*
X81000Y-104904D01*
X80492Y-105412D01*
X79984D01*
X80492Y-105920D01*
X79984Y-106428D01*
X80492D01*
X81000Y-106936D01*
X178000Y-133032D02*
X179016Y-132016D01*
X180032D01*
X179016Y-131000D01*
X180032Y-129984D01*
X179016D01*
X178000Y-128968D01*
X176984Y-129984D01*
X175968D01*
X176984Y-131000D01*
X175968Y-132016D01*
X176984D01*
X178000Y-133032D01*
Y-132016D02*
X178508Y-131508D01*
X179016D01*
X178508Y-131000D01*
X179016Y-130492D01*
X178508D01*
X178000Y-129984D01*
X177492Y-130492D01*
X176984D01*
X177492Y-131000D01*
X176984Y-131508D01*
X177492D01*
X178000Y-132016D01*
X101000Y-133032D02*
X102016Y-132016D01*
X103032D01*
X102016Y-131000D01*
X103032Y-129984D01*
X102016D01*
X101000Y-128968D01*
X99984Y-129984D01*
X98968D01*
X99984Y-131000D01*
X98968Y-132016D01*
X99984D01*
X101000Y-133032D01*
Y-132016D02*
X101508Y-131508D01*
X102016D01*
X101508Y-131000D01*
X102016Y-130492D01*
X101508D01*
X101000Y-129984D01*
X100492Y-130492D01*
X99984D01*
X100492Y-131000D01*
X99984Y-131508D01*
X100492D01*
X101000Y-132016D01*
X320737Y-110903D02*
X321753Y-109887D01*
X322769D01*
X321753Y-108871D01*
X322769Y-107855D01*
X321753D01*
X320737Y-106839D01*
X319721Y-107855D01*
X318705D01*
X319721Y-108871D01*
X318705Y-109887D01*
X319721D01*
X320737Y-110903D01*
Y-109887D02*
X321245Y-109379D01*
X321753D01*
X321245Y-108871D01*
X321753Y-108363D01*
X321245D01*
X320737Y-107855D01*
X320229Y-108363D01*
X319721D01*
X320229Y-108871D01*
X319721Y-109379D01*
X320229D01*
X320737Y-109887D01*
X310000Y-110903D02*
X311016Y-109887D01*
X312032D01*
X311016Y-108871D01*
X312032Y-107855D01*
X311016D01*
X310000Y-106839D01*
X308984Y-107855D01*
X307968D01*
X308984Y-108871D01*
X307968Y-109887D01*
X308984D01*
X310000Y-110903D01*
Y-109887D02*
X310508Y-109379D01*
X311016D01*
X310508Y-108871D01*
X311016Y-108363D01*
X310508D01*
X310000Y-107855D01*
X309492Y-108363D01*
X308984D01*
X309492Y-108871D01*
X308984Y-109379D01*
X309492D01*
X310000Y-109887D01*
X-31548Y-580D02*
X-30532Y436D01*
X-29516D01*
X-30532Y1452D01*
X-29516Y2468D01*
X-30532D01*
X-31548Y3484D01*
X-32564Y2468D01*
X-33580D01*
X-32564Y1452D01*
X-33580Y436D01*
X-32564D01*
X-31548Y-580D01*
Y436D02*
X-31040Y944D01*
X-30532D01*
X-31040Y1452D01*
X-30532Y1960D01*
X-31040D01*
X-31548Y2468D01*
X-32056Y1960D01*
X-32564D01*
X-32056Y1452D01*
X-32564Y944D01*
X-32056D01*
X-31548Y436D01*
X127000Y-33032D02*
X128016Y-32016D01*
X129032D01*
X128016Y-31000D01*
X129032Y-29984D01*
X128016D01*
X127000Y-28968D01*
X125984Y-29984D01*
X124968D01*
X125984Y-31000D01*
X124968Y-32016D01*
X125984D01*
X127000Y-33032D01*
Y-32016D02*
X127508Y-31508D01*
X128016D01*
X127508Y-31000D01*
X128016Y-30492D01*
X127508D01*
X127000Y-29984D01*
X126492Y-30492D01*
X125984D01*
X126492Y-31000D01*
X125984Y-31508D01*
X126492D01*
X127000Y-32016D01*
X133000Y-26032D02*
X134016Y-25016D01*
X135032D01*
X134016Y-24000D01*
X135032Y-22984D01*
X134016D01*
X133000Y-21968D01*
X131984Y-22984D01*
X130968D01*
X131984Y-24000D01*
X130968Y-25016D01*
X131984D01*
X133000Y-26032D01*
Y-25016D02*
X133508Y-24508D01*
X134016D01*
X133508Y-24000D01*
X134016Y-23492D01*
X133508D01*
X133000Y-22984D01*
X132492Y-23492D01*
X131984D01*
X132492Y-24000D01*
X131984Y-24508D01*
X132492D01*
X133000Y-25016D01*
X284000Y-79032D02*
X281968Y-74968D01*
X286032D01*
X284000Y-79032D01*
Y-78016D02*
X282984Y-75984D01*
X285016D01*
X284000Y-78016D01*
X102000Y-109032D02*
X103016Y-108016D01*
X104032D01*
X103016Y-107000D01*
X104032Y-105984D01*
X103016D01*
X102000Y-104968D01*
X100984Y-105984D01*
X99968D01*
X100984Y-107000D01*
X99968Y-108016D01*
X100984D01*
X102000Y-109032D01*
Y-108016D02*
X102508Y-107508D01*
X103016D01*
X102508Y-107000D01*
X103016Y-106492D01*
X102508D01*
X102000Y-105984D01*
X101492Y-106492D01*
X100984D01*
X101492Y-107000D01*
X100984Y-107508D01*
X101492D01*
X102000Y-108016D01*
X82938Y-87970D02*
X83954Y-86954D01*
X84970D01*
X83954Y-85938D01*
X84970Y-84922D01*
X83954D01*
X82938Y-83906D01*
X81922Y-84922D01*
X80906D01*
X81922Y-85938D01*
X80906Y-86954D01*
X81922D01*
X82938Y-87970D01*
Y-86954D02*
X83446Y-86446D01*
X83954D01*
X83446Y-85938D01*
X83954Y-85430D01*
X83446D01*
X82938Y-84922D01*
X82430Y-85430D01*
X81922D01*
X82430Y-85938D01*
X81922Y-86446D01*
X82430D01*
X82938Y-86954D01*
X-44412Y-10692D02*
X-43396Y-9676D01*
X-42380D01*
X-43396Y-8660D01*
X-42380Y-7644D01*
X-43396D01*
X-44412Y-6628D01*
X-45428Y-7644D01*
X-46444D01*
X-45428Y-8660D01*
X-46444Y-9676D01*
X-45428D01*
X-44412Y-10692D01*
Y-9676D02*
X-43904Y-9168D01*
X-43396D01*
X-43904Y-8660D01*
X-43396Y-8152D01*
X-43904D01*
X-44412Y-7644D01*
X-44920Y-8152D01*
X-45428D01*
X-44920Y-8660D01*
X-45428Y-9168D01*
X-44920D01*
X-44412Y-9676D01*
X-220253Y11221D02*
X-219237Y12237D01*
X-218221D01*
X-219237Y13253D01*
X-218221Y14269D01*
X-219237D01*
X-220253Y15285D01*
X-221269Y14269D01*
X-222285D01*
X-221269Y13253D01*
X-222285Y12237D01*
X-221269D01*
X-220253Y11221D01*
Y12237D02*
X-219745Y12745D01*
X-219237D01*
X-219745Y13253D01*
X-219237Y13761D01*
X-219745D01*
X-220253Y14269D01*
X-220761Y13761D01*
X-221269D01*
X-220761Y13253D01*
X-221269Y12745D01*
X-220761D01*
X-220253Y12237D01*
X32000Y-13032D02*
X33016Y-12016D01*
X34032D01*
X33016Y-11000D01*
X34032Y-9984D01*
X33016D01*
X32000Y-8968D01*
X30984Y-9984D01*
X29968D01*
X30984Y-11000D01*
X29968Y-12016D01*
X30984D01*
X32000Y-13032D01*
Y-12016D02*
X32508Y-11508D01*
X33016D01*
X32508Y-11000D01*
X33016Y-10492D01*
X32508D01*
X32000Y-9984D01*
X31492Y-10492D01*
X30984D01*
X31492Y-11000D01*
X30984Y-11508D01*
X31492D01*
X32000Y-12016D01*
X-55000Y-116032D02*
X-53984Y-115016D01*
X-52968D01*
X-53984Y-114000D01*
X-52968Y-112984D01*
X-53984D01*
X-55000Y-111968D01*
X-56016Y-112984D01*
X-57032D01*
X-56016Y-114000D01*
X-57032Y-115016D01*
X-56016D01*
X-55000Y-116032D01*
Y-115016D02*
X-54492Y-114508D01*
X-53984D01*
X-54492Y-114000D01*
X-53984Y-113492D01*
X-54492D01*
X-55000Y-112984D01*
X-55508Y-113492D01*
X-56016D01*
X-55508Y-114000D01*
X-56016Y-114508D01*
X-55508D01*
X-55000Y-115016D01*
X19000Y6968D02*
X20016Y7984D01*
X21032D01*
X20016Y9000D01*
X21032Y10016D01*
X20016D01*
X19000Y11032D01*
X17984Y10016D01*
X16968D01*
X17984Y9000D01*
X16968Y7984D01*
X17984D01*
X19000Y6968D01*
Y7984D02*
X19508Y8492D01*
X20016D01*
X19508Y9000D01*
X20016Y9508D01*
X19508D01*
X19000Y10016D01*
X18492Y9508D01*
X17984D01*
X18492Y9000D01*
X17984Y8492D01*
X18492D01*
X19000Y7984D01*
X37448Y-218215D02*
X38464Y-217199D01*
X39480D01*
X38464Y-216183D01*
X39480Y-215167D01*
X38464D01*
X37448Y-214151D01*
X36432Y-215167D01*
X35416D01*
X36432Y-216183D01*
X35416Y-217199D01*
X36432D01*
X37448Y-218215D01*
Y-217199D02*
X37956Y-216691D01*
X38464D01*
X37956Y-216183D01*
X38464Y-215675D01*
X37956D01*
X37448Y-215167D01*
X36940Y-215675D01*
X36432D01*
X36940Y-216183D01*
X36432Y-216691D01*
X36940D01*
X37448Y-217199D01*
X36000Y-254426D02*
X37016Y-253410D01*
X38032D01*
X37016Y-252394D01*
X38032Y-251378D01*
X37016D01*
X36000Y-250362D01*
X34984Y-251378D01*
X33968D01*
X34984Y-252394D01*
X33968Y-253410D01*
X34984D01*
X36000Y-254426D01*
Y-253410D02*
X36508Y-252902D01*
X37016D01*
X36508Y-252394D01*
X37016Y-251886D01*
X36508D01*
X36000Y-251378D01*
X35492Y-251886D01*
X34984D01*
X35492Y-252394D01*
X34984Y-252902D01*
X35492D01*
X36000Y-253410D01*
X-147798Y-234250D02*
X-146782Y-233234D01*
X-145766D01*
X-146782Y-232218D01*
X-145766Y-231202D01*
X-146782D01*
X-147798Y-230186D01*
X-148814Y-231202D01*
X-149830D01*
X-148814Y-232218D01*
X-149830Y-233234D01*
X-148814D01*
X-147798Y-234250D01*
Y-233234D02*
X-147290Y-232726D01*
X-146782D01*
X-147290Y-232218D01*
X-146782Y-231710D01*
X-147290D01*
X-147798Y-231202D01*
X-148306Y-231710D01*
X-148814D01*
X-148306Y-232218D01*
X-148814Y-232726D01*
X-148306D01*
X-147798Y-233234D01*
X44000Y-63332D02*
X45016Y-62316D01*
X46032D01*
X45016Y-61300D01*
X46032Y-60284D01*
X45016D01*
X44000Y-59268D01*
X42984Y-60284D01*
X41968D01*
X42984Y-61300D01*
X41968Y-62316D01*
X42984D01*
X44000Y-63332D01*
Y-62316D02*
X44508Y-61808D01*
X45016D01*
X44508Y-61300D01*
X45016Y-60792D01*
X44508D01*
X44000Y-60284D01*
X43492Y-60792D01*
X42984D01*
X43492Y-61300D01*
X42984Y-61808D01*
X43492D01*
X44000Y-62316D01*
X31250Y-51782D02*
X32266Y-50766D01*
X33282D01*
X32266Y-49750D01*
X33282Y-48734D01*
X32266D01*
X31250Y-47718D01*
X30234Y-48734D01*
X29218D01*
X30234Y-49750D01*
X29218Y-50766D01*
X30234D01*
X31250Y-51782D01*
Y-50766D02*
X31758Y-50258D01*
X32266D01*
X31758Y-49750D01*
X32266Y-49242D01*
X31758D01*
X31250Y-48734D01*
X30742Y-49242D01*
X30234D01*
X30742Y-49750D01*
X30234Y-50258D01*
X30742D01*
X31250Y-50766D01*
X-537000Y65968D02*
X-535984Y66984D01*
X-534968D01*
X-535984Y68000D01*
X-534968Y69016D01*
X-535984D01*
X-537000Y70032D01*
X-538016Y69016D01*
X-539032D01*
X-538016Y68000D01*
X-539032Y66984D01*
X-538016D01*
X-537000Y65968D01*
Y66984D02*
X-536492Y67492D01*
X-535984D01*
X-536492Y68000D01*
X-535984Y68508D01*
X-536492D01*
X-537000Y69016D01*
X-537508Y68508D01*
X-538016D01*
X-537508Y68000D01*
X-538016Y67492D01*
X-537508D01*
X-537000Y66984D01*
X335282Y-271550D02*
X336298Y-270534D01*
X337314D01*
X336298Y-269518D01*
X337314Y-268502D01*
X336298D01*
X335282Y-267486D01*
X334266Y-268502D01*
X333250D01*
X334266Y-269518D01*
X333250Y-270534D01*
X334266D01*
X335282Y-271550D01*
Y-270534D02*
X335790Y-270026D01*
X336298D01*
X335790Y-269518D01*
X336298Y-269010D01*
X335790D01*
X335282Y-268502D01*
X334774Y-269010D01*
X334266D01*
X334774Y-269518D01*
X334266Y-270026D01*
X334774D01*
X335282Y-270534D01*
X-134000Y-113955D02*
X-132984Y-112939D01*
X-131968D01*
X-132984Y-111923D01*
X-131968Y-110907D01*
X-132984D01*
X-134000Y-109891D01*
X-135016Y-110907D01*
X-136032D01*
X-135016Y-111923D01*
X-136032Y-112939D01*
X-135016D01*
X-134000Y-113955D01*
Y-112939D02*
X-133492Y-112431D01*
X-132984D01*
X-133492Y-111923D01*
X-132984Y-111415D01*
X-133492D01*
X-134000Y-110907D01*
X-134508Y-111415D01*
X-135016D01*
X-134508Y-111923D01*
X-135016Y-112431D01*
X-134508D01*
X-134000Y-112939D01*
X-346000Y-265032D02*
X-344984Y-264016D01*
X-343968D01*
X-344984Y-263000D01*
X-343968Y-261984D01*
X-344984D01*
X-346000Y-260968D01*
X-347016Y-261984D01*
X-348032D01*
X-347016Y-263000D01*
X-348032Y-264016D01*
X-347016D01*
X-346000Y-265032D01*
Y-264016D02*
X-345492Y-263508D01*
X-344984D01*
X-345492Y-263000D01*
X-344984Y-262492D01*
X-345492D01*
X-346000Y-261984D01*
X-346508Y-262492D01*
X-347016D01*
X-346508Y-263000D01*
X-347016Y-263508D01*
X-346508D01*
X-346000Y-264016D01*
X-610750Y-165601D02*
X-609734Y-164585D01*
X-608718D01*
X-609734Y-163569D01*
X-608718Y-162553D01*
X-609734D01*
X-610750Y-161537D01*
X-611766Y-162553D01*
X-612782D01*
X-611766Y-163569D01*
X-612782Y-164585D01*
X-611766D01*
X-610750Y-165601D01*
Y-164585D02*
X-610242Y-164077D01*
X-609734D01*
X-610242Y-163569D01*
X-609734Y-163061D01*
X-610242D01*
X-610750Y-162553D01*
X-611258Y-163061D01*
X-611766D01*
X-611258Y-163569D01*
X-611766Y-164077D01*
X-611258D01*
X-610750Y-164585D01*
X-174000Y20968D02*
X-172984Y21984D01*
X-171968D01*
X-172984Y23000D01*
X-171968Y24016D01*
X-172984D01*
X-174000Y25032D01*
X-175016Y24016D01*
X-176032D01*
X-175016Y23000D01*
X-176032Y21984D01*
X-175016D01*
X-174000Y20968D01*
Y21984D02*
X-173492Y22492D01*
X-172984D01*
X-173492Y23000D01*
X-172984Y23508D01*
X-173492D01*
X-174000Y24016D01*
X-174508Y23508D01*
X-175016D01*
X-174508Y23000D01*
X-175016Y22492D01*
X-174508D01*
X-174000Y21984D01*
X-338798Y-182630D02*
X-340830Y-178566D01*
X-336766D01*
X-338798Y-182630D01*
Y-181614D02*
X-339814Y-179582D01*
X-337782D01*
X-338798Y-181614D01*
X-464000Y-119032D02*
X-462984Y-118016D01*
X-461968D01*
X-462984Y-117000D01*
X-461968Y-115984D01*
X-462984D01*
X-464000Y-114968D01*
X-465016Y-115984D01*
X-466032D01*
X-465016Y-117000D01*
X-466032Y-118016D01*
X-465016D01*
X-464000Y-119032D01*
Y-118016D02*
X-463492Y-117508D01*
X-462984D01*
X-463492Y-117000D01*
X-462984Y-116492D01*
X-463492D01*
X-464000Y-115984D01*
X-464508Y-116492D01*
X-465016D01*
X-464508Y-117000D01*
X-465016Y-117508D01*
X-464508D01*
X-464000Y-118016D01*
X-196798Y-162630D02*
X-195782Y-161614D01*
X-194766D01*
X-195782Y-160598D01*
X-194766Y-159582D01*
X-195782D01*
X-196798Y-158566D01*
X-197814Y-159582D01*
X-198830D01*
X-197814Y-160598D01*
X-198830Y-161614D01*
X-197814D01*
X-196798Y-162630D01*
Y-161614D02*
X-196290Y-161106D01*
X-195782D01*
X-196290Y-160598D01*
X-195782Y-160090D01*
X-196290D01*
X-196798Y-159582D01*
X-197306Y-160090D01*
X-197814D01*
X-197306Y-160598D01*
X-197814Y-161106D01*
X-197306D01*
X-196798Y-161614D01*
X185202Y-272630D02*
X186218Y-271614D01*
X187234D01*
X186218Y-270598D01*
X187234Y-269582D01*
X186218D01*
X185202Y-268566D01*
X184186Y-269582D01*
X183170D01*
X184186Y-270598D01*
X183170Y-271614D01*
X184186D01*
X185202Y-272630D01*
Y-271614D02*
X185710Y-271106D01*
X186218D01*
X185710Y-270598D01*
X186218Y-270090D01*
X185710D01*
X185202Y-269582D01*
X184694Y-270090D01*
X184186D01*
X184694Y-270598D01*
X184186Y-271106D01*
X184694D01*
X185202Y-271614D01*
X-169798Y-258505D02*
X-168782Y-257489D01*
X-167766D01*
X-168782Y-256473D01*
X-167766Y-255457D01*
X-168782D01*
X-169798Y-254441D01*
X-170814Y-255457D01*
X-171830D01*
X-170814Y-256473D01*
X-171830Y-257489D01*
X-170814D01*
X-169798Y-258505D01*
Y-257489D02*
X-169290Y-256981D01*
X-168782D01*
X-169290Y-256473D01*
X-168782Y-255965D01*
X-169290D01*
X-169798Y-255457D01*
X-170306Y-255965D01*
X-170814D01*
X-170306Y-256473D01*
X-170814Y-256981D01*
X-170306D01*
X-169798Y-257489D01*
X-365000Y-155273D02*
X-363984Y-154257D01*
X-362968D01*
X-363984Y-153241D01*
X-362968Y-152225D01*
X-363984D01*
X-365000Y-151209D01*
X-366016Y-152225D01*
X-367032D01*
X-366016Y-153241D01*
X-367032Y-154257D01*
X-366016D01*
X-365000Y-155273D01*
Y-154257D02*
X-364492Y-153749D01*
X-363984D01*
X-364492Y-153241D01*
X-363984Y-152733D01*
X-364492D01*
X-365000Y-152225D01*
X-365508Y-152733D01*
X-366016D01*
X-365508Y-153241D01*
X-366016Y-153749D01*
X-365508D01*
X-365000Y-154257D01*
X577476Y65769D02*
X578492Y66785D01*
X579508D01*
X578492Y67801D01*
X579508Y68817D01*
X578492D01*
X577476Y69833D01*
X576460Y68817D01*
X575444D01*
X576460Y67801D01*
X575444Y66785D01*
X576460D01*
X577476Y65769D01*
Y66785D02*
X577984Y67293D01*
X578492D01*
X577984Y67801D01*
X578492Y68309D01*
X577984D01*
X577476Y68817D01*
X576968Y68309D01*
X576460D01*
X576968Y67801D01*
X576460Y67293D01*
X576968D01*
X577476Y66785D01*
X578976Y-5231D02*
X579992Y-4215D01*
X581008D01*
X579992Y-3199D01*
X581008Y-2183D01*
X579992D01*
X578976Y-1167D01*
X577960Y-2183D01*
X576944D01*
X577960Y-3199D01*
X576944Y-4215D01*
X577960D01*
X578976Y-5231D01*
Y-4215D02*
X579484Y-3707D01*
X579992D01*
X579484Y-3199D01*
X579992Y-2691D01*
X579484D01*
X578976Y-2183D01*
X578468Y-2691D01*
X577960D01*
X578468Y-3199D01*
X577960Y-3707D01*
X578468D01*
X578976Y-4215D01*
X578476Y17769D02*
X579492Y18785D01*
X580508D01*
X579492Y19801D01*
X580508Y20817D01*
X579492D01*
X578476Y21833D01*
X577460Y20817D01*
X576444D01*
X577460Y19801D01*
X576444Y18785D01*
X577460D01*
X578476Y17769D01*
Y18785D02*
X578984Y19293D01*
X579492D01*
X578984Y19801D01*
X579492Y20309D01*
X578984D01*
X578476Y20817D01*
X577968Y20309D01*
X577460D01*
X577968Y19801D01*
X577460Y19293D01*
X577968D01*
X578476Y18785D01*
X577476Y41769D02*
X578492Y42785D01*
X579508D01*
X578492Y43801D01*
X579508Y44817D01*
X578492D01*
X577476Y45833D01*
X576460Y44817D01*
X575444D01*
X576460Y43801D01*
X575444Y42785D01*
X576460D01*
X577476Y41769D01*
Y42785D02*
X577984Y43293D01*
X578492D01*
X577984Y43801D01*
X578492Y44309D01*
X577984D01*
X577476Y44817D01*
X576968Y44309D01*
X576460D01*
X576968Y43801D01*
X576460Y43293D01*
X576968D01*
X577476Y42785D01*
X411000Y-8032D02*
X412016Y-7016D01*
X413032D01*
X412016Y-6000D01*
X413032Y-4984D01*
X412016D01*
X411000Y-3968D01*
X409984Y-4984D01*
X408968D01*
X409984Y-6000D01*
X408968Y-7016D01*
X409984D01*
X411000Y-8032D01*
Y-7016D02*
X411508Y-6508D01*
X412016D01*
X411508Y-6000D01*
X412016Y-5492D01*
X411508D01*
X411000Y-4984D01*
X410492Y-5492D01*
X409984D01*
X410492Y-6000D01*
X409984Y-6508D01*
X410492D01*
X411000Y-7016D01*
X-666726Y149872D02*
X-665710Y150888D01*
X-664694D01*
X-665710Y151904D01*
X-664694Y152920D01*
X-665710D01*
X-666726Y153936D01*
X-667742Y152920D01*
X-668758D01*
X-667742Y151904D01*
X-668758Y150888D01*
X-667742D01*
X-666726Y149872D01*
Y150888D02*
X-666218Y151396D01*
X-665710D01*
X-666218Y151904D01*
X-665710Y152412D01*
X-666218D01*
X-666726Y152920D01*
X-667234Y152412D01*
X-667742D01*
X-667234Y151904D01*
X-667742Y151396D01*
X-667234D01*
X-666726Y150888D01*
X45952Y-186880D02*
X46968Y-185864D01*
X47984D01*
X46968Y-184848D01*
X47984Y-183832D01*
X46968D01*
X45952Y-182816D01*
X44936Y-183832D01*
X43920D01*
X44936Y-184848D01*
X43920Y-185864D01*
X44936D01*
X45952Y-186880D01*
Y-185864D02*
X46460Y-185356D01*
X46968D01*
X46460Y-184848D01*
X46968Y-184340D01*
X46460D01*
X45952Y-183832D01*
X45444Y-184340D01*
X44936D01*
X45444Y-184848D01*
X44936Y-185356D01*
X45444D01*
X45952Y-185864D01*
D126*
X-22948Y264787D02*
G03*
X-22948Y264787I-2032J0D01*
G01*
X27052D02*
G03*
X27052Y264787I-2032J0D01*
G01*
X-572948Y149788D02*
G03*
X-572948Y149788I-2032J0D01*
G01*
Y199788D02*
G03*
X-572948Y199788I-2032J0D01*
G01*
X-247968Y262500D02*
G03*
X-247968Y262500I-2032J0D01*
G01*
X-197968D02*
G03*
X-197968Y262500I-2032J0D01*
G01*
X252032D02*
G03*
X252032Y262500I-2032J0D01*
G01*
X202032D02*
G03*
X202032Y262500I-2032J0D01*
G01*
X577032Y200000D02*
G03*
X577032Y200000I-2032J0D01*
G01*
Y150000D02*
G03*
X577032Y150000I-2032J0D01*
G01*
X517032Y-144000D02*
G03*
X517032Y-144000I-2032J0D01*
G01*
X604532Y-213750D02*
G03*
X604532Y-213750I-2032J0D01*
G01*
X116830Y-713D02*
G03*
X116830Y-713I-2032J0D01*
G01*
Y75287D02*
G03*
X116830Y75287I-2032J0D01*
G01*
Y113287D02*
G03*
X116830Y113287I-2032J0D01*
G01*
X-114218Y26000D02*
G03*
X-114218Y26000I-2032J0D01*
G01*
Y39000D02*
G03*
X-114218Y39000I-2032J0D01*
G01*
Y13000D02*
G03*
X-114218Y13000I-2032J0D01*
G01*
X116830Y11287D02*
G03*
X116830Y11287I-2032J0D01*
G01*
Y24287D02*
G03*
X116830Y24287I-2032J0D01*
G01*
Y62310D02*
G03*
X116830Y62310I-2032J0D01*
G01*
Y87287D02*
G03*
X116830Y87287I-2032J0D01*
G01*
X-336968Y-200000D02*
G03*
X-336968Y-200000I-2032J0D01*
G01*
X-114218Y89000D02*
G03*
X-114218Y89000I-2032J0D01*
G01*
X116830Y100287D02*
G03*
X116830Y100287I-2032J0D01*
G01*
X-110718Y126000D02*
G03*
X-110718Y126000I-2032J0D01*
G01*
Y139000D02*
G03*
X-110718Y139000I-2032J0D01*
G01*
X-114218Y51000D02*
G03*
X-114218Y51000I-2032J0D01*
G01*
Y63000D02*
G03*
X-114218Y63000I-2032J0D01*
G01*
Y76000D02*
G03*
X-114218Y76000I-2032J0D01*
G01*
D127*
X516016Y-144000D02*
G03*
X516016Y-144000I-1016J0D01*
G01*
X603516Y-213750D02*
G03*
X603516Y-213750I-1016J0D01*
G01*
X115814Y-713D02*
G03*
X115814Y-713I-1016J0D01*
G01*
Y75287D02*
G03*
X115814Y75287I-1016J0D01*
G01*
Y113287D02*
G03*
X115814Y113287I-1016J0D01*
G01*
X-115234Y26000D02*
G03*
X-115234Y26000I-1016J0D01*
G01*
Y39000D02*
G03*
X-115234Y39000I-1016J0D01*
G01*
Y13000D02*
G03*
X-115234Y13000I-1016J0D01*
G01*
X115814Y11287D02*
G03*
X115814Y11287I-1016J0D01*
G01*
Y24287D02*
G03*
X115814Y24287I-1016J0D01*
G01*
Y62310D02*
G03*
X115814Y62310I-1016J0D01*
G01*
Y87287D02*
G03*
X115814Y87287I-1016J0D01*
G01*
X-337984Y-200000D02*
G03*
X-337984Y-200000I-1016J0D01*
G01*
X-115234Y89000D02*
G03*
X-115234Y89000I-1016J0D01*
G01*
X115814Y100287D02*
G03*
X115814Y100287I-1016J0D01*
G01*
X-111734Y126000D02*
G03*
X-111734Y126000I-1016J0D01*
G01*
Y139000D02*
G03*
X-111734Y139000I-1016J0D01*
G01*
X-115234Y51000D02*
G03*
X-115234Y51000I-1016J0D01*
G01*
Y63000D02*
G03*
X-115234Y63000I-1016J0D01*
G01*
Y76000D02*
G03*
X-115234Y76000I-1016J0D01*
G01*
M02*
