G04*
G04 #@! TF.GenerationSoftware,Altium Limited,Altium Designer,20.2.5 (213)*
G04*
G04 Layer_Color=32768*
%FSLAX44Y44*%
%MOMM*%
G71*
G04*
G04 #@! TF.SameCoordinates,F2EF3DC7-CE59-478A-9F64-9A272EA7E262*
G04*
G04*
G04 #@! TF.FilePolarity,Positive*
G04*
G01*
G75*
%ADD12C,0.2000*%
%ADD122C,0.0500*%
D12*
X-137552Y-221510D02*
Y-162010D01*
Y-221510D02*
X38448D01*
Y-162010D01*
X-137552D02*
X38448D01*
X189342Y-281811D02*
Y-234811D01*
X68342D02*
X189342D01*
X68342Y-281811D02*
Y-234811D01*
Y-281811D02*
X189342D01*
X341500Y-181311D02*
Y-121811D01*
X215500D02*
X341500D01*
X215500Y-181311D02*
Y-121811D01*
Y-181311D02*
X341500D01*
X-285252Y-173020D02*
X-266170D01*
X-285252Y-207102D02*
Y-173020D01*
Y-207102D02*
X-266170D01*
Y-173020D01*
X-265942Y-164139D02*
Y-130057D01*
X-285025Y-164139D02*
X-265942D01*
X-285025D02*
Y-130057D01*
X-265942D01*
X-249110Y-256733D02*
Y-221733D01*
X-264610Y-256733D02*
X-249110D01*
X-264610D02*
Y-221733D01*
X-249110D01*
X-593750Y103000D02*
X-531750D01*
Y66000D02*
Y103000D01*
X-593750Y66000D02*
X-531750D01*
X-593750D02*
Y103000D01*
Y25378D02*
Y62378D01*
Y25378D02*
X-531750D01*
Y62378D01*
X-593750D02*
X-531750D01*
X-593750Y-14622D02*
Y22378D01*
Y-14622D02*
X-531750D01*
Y22378D01*
X-593750D02*
X-531750D01*
X-593750Y-55250D02*
Y-18250D01*
Y-55250D02*
X-531750D01*
Y-18250D01*
X-593750D02*
X-531750D01*
X-83750Y239000D02*
Y274000D01*
X-68250D01*
Y239000D02*
Y274000D01*
X-83750Y239000D02*
X-68250D01*
X-137052Y-227260D02*
X38948D01*
Y-286760D02*
Y-227260D01*
X-137052Y-286760D02*
X38948D01*
X-137052D02*
Y-227260D01*
X339000Y-231811D02*
Y-184811D01*
X218000D02*
X339000D01*
X218000Y-231811D02*
Y-184811D01*
Y-231811D02*
X339000D01*
X66000Y-181311D02*
X192000D01*
X66000D02*
Y-121811D01*
X192000D01*
Y-181311D02*
Y-121811D01*
X363000Y-181311D02*
X489000D01*
X363000D02*
Y-121811D01*
X489000D01*
Y-181311D02*
Y-121811D01*
X-67416Y-157479D02*
Y-120479D01*
Y-157479D02*
X9584D01*
Y-120479D01*
X-67416D02*
X9584D01*
X68342Y-231811D02*
X189342D01*
X68342D02*
Y-184811D01*
X189342D01*
Y-231811D02*
Y-184811D01*
X218000Y-281811D02*
X339000D01*
X218000D02*
Y-234811D01*
X339000D01*
Y-281811D02*
Y-234811D01*
X366342Y-281811D02*
X487342D01*
X366342D02*
Y-234811D01*
X487342D01*
Y-281811D02*
Y-234811D01*
X365500Y-231811D02*
X486500D01*
X365500D02*
Y-184811D01*
X486500D01*
Y-231811D02*
Y-184811D01*
D122*
X517611Y-126075D02*
X527611D01*
X522611Y-131075D02*
Y-121075D01*
X504611Y-134825D02*
X540611D01*
X504611D02*
Y-117325D01*
X540611D01*
Y-134825D02*
Y-117325D01*
X548524Y-34159D02*
X558524D01*
X553524Y-39159D02*
Y-29159D01*
X535524Y-25409D02*
X571524D01*
Y-42909D02*
Y-25409D01*
X535524Y-42909D02*
X571524D01*
X535524D02*
Y-25409D01*
X-147798Y-260598D02*
Y-250598D01*
X-152798Y-255598D02*
X-142798D01*
X-156548Y-273598D02*
Y-237598D01*
X-139048D01*
Y-273598D02*
Y-237598D01*
X-156548Y-273598D02*
X-139048D01*
X655987Y144590D02*
X673487D01*
X655987Y108590D02*
Y144590D01*
Y108590D02*
X673487D01*
Y144590D01*
X659737Y126590D02*
X669737D01*
X664737Y121590D02*
Y131590D01*
X-610860Y-193994D02*
Y-183994D01*
X-615860Y-188994D02*
X-605860D01*
X-619610Y-206994D02*
Y-170994D01*
X-602110D01*
Y-206994D02*
Y-170994D01*
X-619610Y-206994D02*
X-602110D01*
X-666398Y118670D02*
Y128670D01*
X-671398Y123670D02*
X-661398D01*
X-675148Y105670D02*
Y141670D01*
X-657648D01*
Y105670D02*
Y141670D01*
X-675148Y105670D02*
X-657648D01*
X203904Y-156811D02*
Y-146811D01*
X198904Y-151811D02*
X208904D01*
X212654Y-169811D02*
Y-133811D01*
X195154Y-169811D02*
X212654D01*
X195154D02*
Y-133811D01*
X212654D01*
X55000Y-156811D02*
Y-146811D01*
X50000Y-151811D02*
X60000D01*
X63750Y-169811D02*
Y-133811D01*
X46250Y-169811D02*
X63750D01*
X46250D02*
Y-133811D01*
X63750D01*
X353202Y-156848D02*
Y-146848D01*
X348202Y-151848D02*
X358202D01*
X361952Y-169848D02*
Y-133848D01*
X344452Y-169848D02*
X361952D01*
X344452D02*
Y-133848D01*
X361952D01*
X601000Y-189018D02*
Y-179018D01*
X596000Y-184018D02*
X606000D01*
X609750Y-202018D02*
Y-166018D01*
X592250Y-202018D02*
X609750D01*
X592250D02*
Y-166018D01*
X609750D01*
X46250Y-189311D02*
X63750D01*
X46250Y-225311D02*
Y-189311D01*
Y-225311D02*
X63750D01*
Y-189311D01*
X50000Y-207311D02*
X60000D01*
X55000Y-212311D02*
Y-202311D01*
X344452Y-192098D02*
X361952D01*
X344452Y-228098D02*
Y-192098D01*
Y-228098D02*
X361952D01*
Y-192098D01*
X348202Y-210098D02*
X358202D01*
X353202Y-215098D02*
Y-205098D01*
X195154Y-194311D02*
X212654D01*
X195154Y-230311D02*
Y-194311D01*
Y-230311D02*
X212654D01*
Y-194311D01*
X198904Y-212311D02*
X208904D01*
X203904Y-217311D02*
Y-207311D01*
X195908Y-244311D02*
X213408D01*
X195908Y-280311D02*
Y-244311D01*
Y-280311D02*
X213408D01*
Y-244311D01*
X199658Y-262311D02*
X209658D01*
X204658Y-267311D02*
Y-257311D01*
X344452Y-242848D02*
X361952D01*
X344452Y-278848D02*
Y-242848D01*
Y-278848D02*
X361952D01*
Y-242848D01*
X348202Y-260848D02*
X358202D01*
X353202Y-265848D02*
Y-255848D01*
X-147798Y-196598D02*
Y-186598D01*
X-152798Y-191598D02*
X-142798D01*
X-156548Y-209598D02*
Y-173598D01*
X-139048D01*
Y-209598D02*
Y-173598D01*
X-156548Y-209598D02*
X-139048D01*
X55000Y-267311D02*
Y-257311D01*
X50000Y-262311D02*
X60000D01*
X63750Y-280311D02*
Y-244311D01*
X46250Y-280311D02*
X63750D01*
X46250D02*
Y-244311D01*
X63750D01*
M02*
