G04*
G04 #@! TF.GenerationSoftware,Altium Limited,Altium Designer,20.2.5 (213)*
G04*
G04 Layer_Color=255*
%FSLAX44Y44*%
%MOMM*%
G71*
G04*
G04 #@! TF.SameCoordinates,F2EF3DC7-CE59-478A-9F64-9A272EA7E262*
G04*
G04*
G04 #@! TF.FilePolarity,Positive*
G04*
G01*
G75*
%ADD20R,1.1000X1.3000*%
%ADD21R,1.4082X1.0065*%
%ADD22R,1.3000X1.1000*%
%ADD23R,1.2000X1.2000*%
%ADD24R,1.6000X2.2000*%
%ADD25R,1.6000X2.1800*%
%ADD26R,1.2000X1.2000*%
%ADD27R,1.5500X1.3500*%
%ADD28R,1.9100X1.3700*%
%ADD29R,0.6000X0.8000*%
%ADD30C,2.0000*%
%ADD31R,0.9000X0.9000*%
%ADD32R,0.9000X2.2500*%
%ADD33R,2.2500X0.9000*%
%ADD34R,1.4000X1.5000*%
%ADD35R,1.4500X1.0500*%
%ADD53C,1.4000*%
%ADD54R,1.4000X1.4000*%
%ADD57C,1.2000*%
%ADD65C,1.1500*%
%ADD66R,1.1500X1.1500*%
%ADD73C,2.7000*%
%ADD74C,1.5240*%
%ADD75C,4.8000*%
%ADD76C,1.5000*%
%ADD77R,1.5000X1.5000*%
%ADD78C,1.2080*%
%ADD79C,1.3000*%
%ADD80R,1.3000X1.3000*%
%ADD81C,0.4000*%
%ADD82R,1.5000X1.5000*%
D20*
X533111Y-126075D02*
D03*
X512111D02*
D03*
X564024Y-34159D02*
D03*
X543024D02*
D03*
D21*
X-275711Y-199569D02*
D03*
Y-180552D02*
D03*
X-275483Y-137589D02*
D03*
Y-156606D02*
D03*
D22*
X-147798Y-266098D02*
D03*
Y-245098D02*
D03*
X664737Y116090D02*
D03*
Y137090D02*
D03*
X-610860Y-199494D02*
D03*
Y-178494D02*
D03*
X-666398Y113170D02*
D03*
Y134170D02*
D03*
X203904Y-141311D02*
D03*
Y-162311D02*
D03*
X55000Y-141311D02*
D03*
Y-162311D02*
D03*
X353202Y-141348D02*
D03*
Y-162348D02*
D03*
X601000Y-173518D02*
D03*
Y-194518D02*
D03*
X55000Y-217811D02*
D03*
Y-196811D02*
D03*
X353202Y-220598D02*
D03*
Y-199598D02*
D03*
X203904Y-222811D02*
D03*
Y-201811D02*
D03*
X204658Y-272811D02*
D03*
Y-251811D02*
D03*
X353202Y-271348D02*
D03*
Y-250348D02*
D03*
X-147798Y-202098D02*
D03*
Y-181098D02*
D03*
X55000Y-251811D02*
D03*
Y-272811D02*
D03*
D23*
X563976Y67801D02*
D03*
X542976D02*
D03*
X563976Y43801D02*
D03*
X542976D02*
D03*
X564976Y19801D02*
D03*
X543976D02*
D03*
X564976Y-3199D02*
D03*
X543976D02*
D03*
X168842Y-263811D02*
D03*
X318500Y-213811D02*
D03*
X168842D02*
D03*
X318500Y-263811D02*
D03*
X466842D02*
D03*
X466000Y-213811D02*
D03*
X-547750Y80000D02*
D03*
Y39378D02*
D03*
Y-622D02*
D03*
Y-41250D02*
D03*
D24*
X-387500Y-150550D02*
D03*
X-348000Y-242511D02*
D03*
X-308500D02*
D03*
X-427250Y-150550D02*
D03*
D25*
X-387500Y-242450D02*
D03*
X-348000Y-150611D02*
D03*
X-308500D02*
D03*
X-427250Y-242450D02*
D03*
D26*
X-256711Y-199561D02*
D03*
Y-178561D02*
D03*
X-256483Y-158598D02*
D03*
Y-137598D02*
D03*
X-256860Y-228733D02*
D03*
Y-249733D02*
D03*
X-76000Y246000D02*
D03*
Y267000D02*
D03*
D27*
X-278570Y-248861D02*
D03*
Y-229361D02*
D03*
D28*
X-327998Y81530D02*
D03*
Y53110D02*
D03*
X-355711Y81530D02*
D03*
Y53110D02*
D03*
X-383425Y81530D02*
D03*
Y53110D02*
D03*
X-411138Y81530D02*
D03*
Y53110D02*
D03*
X-466565Y81530D02*
D03*
Y53110D02*
D03*
X-494279Y81530D02*
D03*
Y53110D02*
D03*
X-438852Y81530D02*
D03*
Y53110D02*
D03*
X-272571Y81530D02*
D03*
Y53110D02*
D03*
X-300284Y81530D02*
D03*
Y53110D02*
D03*
X-244858Y81530D02*
D03*
Y53110D02*
D03*
D29*
X19000Y-154500D02*
D03*
Y-129500D02*
D03*
D30*
X635202Y57963D02*
D03*
Y20963D02*
D03*
Y-12037D02*
D03*
D31*
X-1000Y89400D02*
D03*
X-15000D02*
D03*
X-29000D02*
D03*
X-1000Y61400D02*
D03*
X-15000D02*
D03*
X-29000D02*
D03*
X-1000Y75400D02*
D03*
X-29000D02*
D03*
X-15000D02*
D03*
D32*
X69850Y-29000D02*
D03*
X57150D02*
D03*
X44450D02*
D03*
X31750D02*
D03*
X19050D02*
D03*
X6350D02*
D03*
X-6350D02*
D03*
X-19050D02*
D03*
X-31750D02*
D03*
X-44450D02*
D03*
X-57150D02*
D03*
X-69850D02*
D03*
D33*
X91500Y152600D02*
D03*
Y-12500D02*
D03*
Y200D02*
D03*
Y12900D02*
D03*
Y25600D02*
D03*
Y38300D02*
D03*
Y51000D02*
D03*
Y63700D02*
D03*
Y76400D02*
D03*
Y89100D02*
D03*
Y101800D02*
D03*
Y114500D02*
D03*
Y127200D02*
D03*
Y139900D02*
D03*
X-91250Y114400D02*
D03*
Y101700D02*
D03*
Y89000D02*
D03*
Y76300D02*
D03*
Y63600D02*
D03*
Y50900D02*
D03*
Y38200D02*
D03*
Y25500D02*
D03*
Y12800D02*
D03*
Y100D02*
D03*
Y-12600D02*
D03*
Y127100D02*
D03*
Y139800D02*
D03*
Y152500D02*
D03*
D34*
X-473304Y-230878D02*
D03*
Y-165878D02*
D03*
D35*
X-98000Y263500D02*
D03*
Y245000D02*
D03*
D53*
X12948Y-197010D02*
D03*
X-12052D02*
D03*
X-37052D02*
D03*
X-62052D02*
D03*
X-87052D02*
D03*
X266000Y-146311D02*
D03*
X291000D02*
D03*
X316000D02*
D03*
X-86552Y-262260D02*
D03*
X-61552D02*
D03*
X-36552D02*
D03*
X-11552D02*
D03*
X13448D02*
D03*
X166500Y-146311D02*
D03*
X141500D02*
D03*
X116500D02*
D03*
X463500D02*
D03*
X438500D02*
D03*
X413500D02*
D03*
D54*
X-112052Y-197010D02*
D03*
X241000Y-146311D02*
D03*
X-111552Y-262260D02*
D03*
X91500Y-146311D02*
D03*
X388500D02*
D03*
D57*
X88842Y-263811D02*
D03*
X108842D02*
D03*
X128842D02*
D03*
X148842D02*
D03*
X-577750Y-41250D02*
D03*
Y39378D02*
D03*
Y80000D02*
D03*
Y-622D02*
D03*
X-562750Y80000D02*
D03*
Y39378D02*
D03*
Y-622D02*
D03*
Y-41250D02*
D03*
X238500Y-213811D02*
D03*
X258500D02*
D03*
X278500D02*
D03*
X298500D02*
D03*
X148842D02*
D03*
X128842D02*
D03*
X108842D02*
D03*
X88842D02*
D03*
X298500Y-263811D02*
D03*
X278500D02*
D03*
X258500D02*
D03*
X238500D02*
D03*
X446842D02*
D03*
X426842D02*
D03*
X406842D02*
D03*
X386842D02*
D03*
X446000Y-213811D02*
D03*
X426000D02*
D03*
X406000D02*
D03*
X386000D02*
D03*
D65*
X-51416Y-143479D02*
D03*
X-36416D02*
D03*
X-21416D02*
D03*
D66*
X-6416D02*
D03*
D73*
X-24980Y264787D02*
D03*
X25020D02*
D03*
X-574980Y149788D02*
D03*
Y199788D02*
D03*
X-250000Y262500D02*
D03*
X-200000D02*
D03*
X250000D02*
D03*
X200000D02*
D03*
X575000Y200000D02*
D03*
Y150000D02*
D03*
D74*
X-436019Y187666D02*
D03*
X-461419Y187466D02*
D03*
X-486819Y187666D02*
D03*
X-512219D02*
D03*
X-272080Y187287D02*
D03*
X-297480D02*
D03*
X-221280D02*
D03*
X-246680Y187087D02*
D03*
X195909Y186887D02*
D03*
X170509Y186687D02*
D03*
X145109Y186887D02*
D03*
X119709D02*
D03*
X411209D02*
D03*
X385809Y186687D02*
D03*
X360409Y186887D02*
D03*
X335009D02*
D03*
X-334419Y-91734D02*
D03*
X-359819D02*
D03*
X-385219D02*
D03*
X-410619D02*
D03*
X-436019D02*
D03*
X-461419D02*
D03*
X-486819D02*
D03*
X-512219D02*
D03*
X-410619Y187666D02*
D03*
X-359819D02*
D03*
X-334419D02*
D03*
X-385219D02*
D03*
X-119680Y-92113D02*
D03*
X-145080D02*
D03*
X-170480D02*
D03*
X-195880D02*
D03*
X-221280D02*
D03*
X-246680D02*
D03*
X-272080D02*
D03*
X-297480D02*
D03*
X-195880Y187287D02*
D03*
X-145080D02*
D03*
X-119680D02*
D03*
X-170480D02*
D03*
X297509Y-92513D02*
D03*
X272109D02*
D03*
X246709D02*
D03*
X221309D02*
D03*
X195909D02*
D03*
X170509D02*
D03*
X145109D02*
D03*
X119709D02*
D03*
X221309Y186887D02*
D03*
X272109D02*
D03*
X297509D02*
D03*
X246709D02*
D03*
X512809Y-92513D02*
D03*
X487409D02*
D03*
X462009D02*
D03*
X436609D02*
D03*
X411209D02*
D03*
X385809D02*
D03*
X360409D02*
D03*
X335009D02*
D03*
X436609Y186887D02*
D03*
X487409D02*
D03*
X512809D02*
D03*
X462009D02*
D03*
D75*
X0Y-94000D02*
D03*
X475742Y269877D02*
D03*
X-655066Y-209421D02*
D03*
X655066D02*
D03*
Y210949D02*
D03*
X-475742Y269877D02*
D03*
X-655066Y210949D02*
D03*
D76*
X558462Y-126913D02*
D03*
X583862D02*
D03*
X609262D02*
D03*
X566762Y-93913D02*
D03*
X606762D02*
D03*
X586762D02*
D03*
X-125000Y275400D02*
D03*
D77*
X634662Y-126913D02*
D03*
X626762Y-93913D02*
D03*
D78*
X-623000Y-81000D02*
D03*
X-608000D02*
D03*
X-593000D02*
D03*
X-578000D02*
D03*
X-563000D02*
D03*
X-548000D02*
D03*
D79*
X621377Y145596D02*
D03*
Y125596D02*
D03*
X-567500Y-187500D02*
D03*
Y-167500D02*
D03*
X-623038Y105407D02*
D03*
Y125407D02*
D03*
X557561Y-167500D02*
D03*
Y-187500D02*
D03*
D80*
X621377Y105596D02*
D03*
X-567500Y-207500D02*
D03*
X-623038Y145407D02*
D03*
X557561Y-207500D02*
D03*
D81*
X-8000Y61400D02*
D03*
X-22000D02*
D03*
X-8000Y75400D02*
D03*
X-22000D02*
D03*
X-8000Y89400D02*
D03*
X-22000D02*
D03*
X-1000Y68400D02*
D03*
X-15000D02*
D03*
X-29000D02*
D03*
X-1000Y82400D02*
D03*
X-29000D02*
D03*
X-15000D02*
D03*
D82*
X-125000Y250000D02*
D03*
M02*
