G04*
G04 #@! TF.GenerationSoftware,Altium Limited,Altium Designer,20.2.5 (213)*
G04*
G04 Layer_Color=16711935*
%FSLAX44Y44*%
%MOMM*%
G71*
G04*
G04 #@! TF.SameCoordinates,F2EF3DC7-CE59-478A-9F64-9A272EA7E262*
G04*
G04*
G04 #@! TF.FilePolarity,Positive*
G04*
G01*
G75*
%ADD12C,0.2000*%
D12*
X509080Y-133825D02*
X536142D01*
Y-118325D01*
X509080D02*
X536142D01*
X509080Y-133825D02*
Y-118325D01*
X589839Y-205466D02*
X614460D01*
X589839D02*
Y-162404D01*
X614460D01*
Y-205466D02*
Y-162404D01*
X652427Y105059D02*
X677048D01*
X652427D02*
Y148121D01*
X677048D01*
Y105059D02*
Y148121D01*
X-289531Y-190061D02*
Y-135061D01*
X-211469D01*
Y-190061D02*
Y-135061D01*
X-289531Y-190061D02*
X-211469D01*
X531983Y-21618D02*
X575065D01*
X531983Y-46700D02*
Y-21618D01*
Y-46700D02*
X575065D01*
Y-21618D01*
X144798Y112037D02*
X218798D01*
X144798Y41037D02*
Y112037D01*
Y41037D02*
X218798D01*
Y112037D01*
X197459Y10916D02*
X240541D01*
X197459Y-14166D02*
Y10916D01*
Y-14166D02*
X240541D01*
Y10916D01*
X197459Y40541D02*
X240541D01*
X197459Y15459D02*
Y40541D01*
Y15459D02*
X240541D01*
Y40541D01*
X368459Y-78541D02*
X411541D01*
Y-53459D01*
X368459D02*
X411541D01*
X368459Y-78541D02*
Y-53459D01*
Y-49541D02*
X411541D01*
Y-24459D01*
X368459D02*
X411541D01*
X368459Y-49541D02*
Y-24459D01*
X-155548Y-210098D02*
Y-173098D01*
Y-210098D02*
X-140048D01*
Y-173098D01*
X-155548D02*
X-140048D01*
X-155548Y-237098D02*
X-140048D01*
Y-274098D02*
Y-237098D01*
X-155548Y-274098D02*
X-140048D01*
X-155548D02*
Y-237098D01*
X570517Y58260D02*
Y77342D01*
X536435Y58260D02*
X570517D01*
X536435D02*
Y77342D01*
X570517D01*
Y34260D02*
Y53342D01*
X536435Y34260D02*
X570517D01*
X536435D02*
Y53342D01*
X570517D01*
X570009Y10635D02*
Y29717D01*
X535926Y10635D02*
X570009D01*
X535926D02*
Y29717D01*
X570009D01*
Y-12990D02*
Y6092D01*
X535926Y-12990D02*
X570009D01*
X535926D02*
Y6092D01*
X570009D01*
X-623171Y-210025D02*
Y-166963D01*
Y-210025D02*
X-598549D01*
Y-166963D01*
X-623171D02*
X-598549D01*
X-678708Y145201D02*
X-654087D01*
Y102139D02*
Y145201D01*
X-678708Y102139D02*
X-654087D01*
X-678708D02*
Y145201D01*
X200171Y-193098D02*
X227233D01*
Y-177598D01*
X200171D02*
X227233D01*
X200171Y-193098D02*
Y-177598D01*
X51171Y-192098D02*
X78233D01*
Y-176598D01*
X51171D02*
X78233D01*
X51171Y-192098D02*
Y-176598D01*
X348671Y-192098D02*
X375733D01*
Y-176598D01*
X348671D02*
X375733D01*
X348671Y-192098D02*
Y-176598D01*
X47750Y-220842D02*
X63250D01*
X47750D02*
Y-193780D01*
X63250D01*
Y-220842D02*
Y-193780D01*
X62750Y-275842D02*
Y-248780D01*
X47250D02*
X62750D01*
X47250Y-275842D02*
Y-248780D01*
Y-275842D02*
X62750D01*
X196908D02*
X212408D01*
X196908D02*
Y-248780D01*
X212408D01*
Y-275842D02*
Y-248780D01*
X196908Y-225842D02*
X212408D01*
X196908D02*
Y-198780D01*
X212408D01*
Y-225842D02*
Y-198780D01*
X362202Y-223629D02*
Y-196567D01*
X346702D02*
X362202D01*
X346702Y-223629D02*
Y-196567D01*
Y-223629D02*
X362202D01*
Y-274379D02*
Y-247317D01*
X346702D02*
X362202D01*
X346702Y-274379D02*
Y-247317D01*
Y-274379D02*
X362202D01*
X534000Y81250D02*
Y101250D01*
X576000D01*
Y81250D02*
Y101250D01*
X534000Y81250D02*
X576000D01*
X497000Y111000D02*
Y131000D01*
X539000D01*
Y111000D02*
Y131000D01*
X497000Y111000D02*
X539000D01*
X410250Y140500D02*
X491750D01*
X410250Y71500D02*
Y140500D01*
Y71500D02*
X491750D01*
Y140500D01*
X-146530Y114359D02*
X-121448D01*
X-146530D02*
Y157441D01*
X-121448D01*
Y114359D02*
Y157441D01*
X-211250Y138516D02*
X-194750D01*
Y106516D02*
Y138516D01*
X-211250Y106516D02*
X-194750D01*
X-211250D02*
Y138516D01*
X-212250Y17500D02*
Y88500D01*
X-138250D01*
Y17500D02*
Y88500D01*
X-212250Y17500D02*
X-138250D01*
M02*
