G04*
G04 #@! TF.GenerationSoftware,Altium Limited,Altium Designer,20.2.5 (213)*
G04*
G04 Layer_Color=32896*
%FSLAX44Y44*%
%MOMM*%
G71*
G04*
G04 #@! TF.SameCoordinates,F2EF3DC7-CE59-478A-9F64-9A272EA7E262*
G04*
G04*
G04 #@! TF.FilePolarity,Positive*
G04*
G01*
G75*
%ADD13C,0.1000*%
D13*
X517611Y-126075D02*
X527611D01*
X522611Y-131075D02*
Y-121075D01*
X597149Y-183936D02*
X607149D01*
X602149Y-188936D02*
Y-178936D01*
X659737Y126590D02*
X669737D01*
X664737Y121590D02*
Y131590D01*
X-250500Y-167561D02*
Y-157561D01*
X-255500Y-162561D02*
X-245500D01*
X548524Y-34159D02*
X558524D01*
X553524Y-39159D02*
Y-29159D01*
X176798Y76537D02*
X186798D01*
X181798Y71537D02*
Y81537D01*
X214000Y-1625D02*
X224000D01*
X219000Y-6625D02*
Y3375D01*
X214000Y28000D02*
X224000D01*
X219000Y23000D02*
Y33000D01*
X385000Y-66000D02*
X395000D01*
X390000Y-71000D02*
Y-61000D01*
X385000Y-37000D02*
X395000D01*
X390000Y-42000D02*
Y-32000D01*
X-147798Y-196598D02*
Y-186598D01*
X-152798Y-191598D02*
X-142798D01*
X-152798Y-255598D02*
X-142798D01*
X-147798Y-260598D02*
Y-250598D01*
X553476Y62801D02*
Y72801D01*
X548476Y67801D02*
X558476D01*
X553476Y38801D02*
Y48801D01*
X548476Y43801D02*
X558476D01*
X552967Y15176D02*
Y25176D01*
X547967Y20176D02*
X557967D01*
X552967Y-8449D02*
Y1551D01*
X547967Y-3449D02*
X557967D01*
X-610860Y-193494D02*
Y-183494D01*
X-615860Y-188494D02*
X-605860D01*
X-671398Y123670D02*
X-661398D01*
X-666398Y118670D02*
Y128670D01*
X208702Y-185348D02*
X218702D01*
X213702Y-190348D02*
Y-180348D01*
X59702Y-184348D02*
X69702D01*
X64702Y-189348D02*
Y-179348D01*
X357202Y-184348D02*
X367202D01*
X362202Y-189348D02*
Y-179348D01*
X50500Y-207311D02*
X60500D01*
X55500Y-212311D02*
Y-202311D01*
X55000Y-267311D02*
Y-257311D01*
X50000Y-262311D02*
X60000D01*
X199658D02*
X209658D01*
X204658Y-267311D02*
Y-257311D01*
X199658Y-212311D02*
X209658D01*
X204658Y-217311D02*
Y-207311D01*
X354452Y-215098D02*
Y-205098D01*
X349452Y-210098D02*
X359452D01*
X354452Y-265848D02*
Y-255848D01*
X349452Y-260848D02*
X359452D01*
X555000Y86250D02*
Y96250D01*
X550000Y91250D02*
X560000D01*
X518000Y116000D02*
Y126000D01*
X513000Y121000D02*
X523000D01*
X446000Y106000D02*
X456000D01*
X451000Y101000D02*
Y111000D01*
X-138989Y135900D02*
X-128989D01*
X-133989Y130900D02*
Y140900D01*
X-208000Y122516D02*
X-198000D01*
X-203000Y117516D02*
Y127516D01*
X-175250Y48000D02*
Y58000D01*
X-180250Y53000D02*
X-170250D01*
M02*
