G04*
G04 #@! TF.GenerationSoftware,Altium Limited,Altium Designer,20.2.5 (213)*
G04*
G04 Layer_Color=255*
%FSLAX44Y44*%
%MOMM*%
G71*
G04*
G04 #@! TF.SameCoordinates,F2EF3DC7-CE59-478A-9F64-9A272EA7E262*
G04*
G04*
G04 #@! TF.FilePolarity,Positive*
G04*
G01*
G75*
%ADD23R,1.2000X1.2000*%
%ADD28R,1.9100X1.3700*%
%ADD53C,1.4000*%
%ADD54R,1.4000X1.4000*%
%ADD57C,1.2000*%
%ADD65C,1.1500*%
%ADD66R,1.1500X1.1500*%
%ADD73C,2.7000*%
%ADD74C,1.5240*%
%ADD75C,4.8000*%
%ADD76C,1.5000*%
%ADD77R,1.5000X1.5000*%
%ADD78C,1.2080*%
%ADD79C,1.3000*%
%ADD80R,1.3000X1.3000*%
%ADD81C,0.4000*%
%ADD82R,1.5000X1.5000*%
%ADD86R,0.9549X1.2621*%
%ADD87R,1.4621X1.3549*%
G04:AMPARAMS|DCode=88|XSize=1.6554mm|YSize=0.3808mm|CornerRadius=0.1904mm|HoleSize=0mm|Usage=FLASHONLY|Rotation=0.000|XOffset=0mm|YOffset=0mm|HoleType=Round|Shape=RoundedRectangle|*
%AMROUNDEDRECTD88*
21,1,1.6554,0.0000,0,0,0.0*
21,1,1.2747,0.3808,0,0,0.0*
1,1,0.3808,0.6373,0.0000*
1,1,0.3808,-0.6373,0.0000*
1,1,0.3808,-0.6373,0.0000*
1,1,0.3808,0.6373,0.0000*
%
%ADD88ROUNDEDRECTD88*%
%ADD89R,1.6554X0.3808*%
%ADD90R,0.8000X1.5000*%
%ADD91R,1.3000X1.4000*%
%ADD92R,1.0000X0.9500*%
%ADD93R,1.4000X1.9000*%
%ADD94R,1.2065X1.5082*%
%ADD95O,1.7000X0.3000*%
%ADD96R,1.5000X1.4000*%
%ADD97R,1.6000X0.3000*%
%ADD98R,1.1500X1.1500*%
%ADD99R,1.0065X1.4082*%
%ADD100R,0.3800X0.4000*%
%ADD101R,1.3500X1.1000*%
%ADD102R,1.3700X1.9100*%
%ADD103R,1.0500X1.6000*%
%ADD104R,2.1500X0.9500*%
%ADD105O,0.4500X1.8000*%
%ADD106R,1.2621X0.9549*%
%ADD107R,2.1500X3.2500*%
%ADD108R,1.5082X1.2065*%
%ADD109R,1.2500X1.0000*%
D23*
X168842Y-263811D02*
D03*
X318500Y-213811D02*
D03*
X168842D02*
D03*
X318500Y-263811D02*
D03*
X466842D02*
D03*
X466000Y-213811D02*
D03*
X-547750Y80000D02*
D03*
Y39378D02*
D03*
Y-622D02*
D03*
Y-41250D02*
D03*
D28*
X-169647Y-242263D02*
D03*
Y-270683D02*
D03*
X-197209Y-242263D02*
D03*
Y-270683D02*
D03*
X-169647Y-176133D02*
D03*
Y-204553D02*
D03*
X-197209Y-176133D02*
D03*
Y-204553D02*
D03*
X-489615Y-144816D02*
D03*
Y-116396D02*
D03*
X-520000Y-145085D02*
D03*
Y-116665D02*
D03*
D53*
X12948Y-197010D02*
D03*
X-12052D02*
D03*
X-37052D02*
D03*
X-62052D02*
D03*
X-87052D02*
D03*
X266000Y-146311D02*
D03*
X291000D02*
D03*
X316000D02*
D03*
X-86552Y-262260D02*
D03*
X-61552D02*
D03*
X-36552D02*
D03*
X-11552D02*
D03*
X13448D02*
D03*
X166500Y-146311D02*
D03*
X141500D02*
D03*
X116500D02*
D03*
X463500D02*
D03*
X438500D02*
D03*
X413500D02*
D03*
D54*
X-112052Y-197010D02*
D03*
X241000Y-146311D02*
D03*
X-111552Y-262260D02*
D03*
X91500Y-146311D02*
D03*
X388500D02*
D03*
D57*
X88842Y-263811D02*
D03*
X108842D02*
D03*
X128842D02*
D03*
X148842D02*
D03*
X-577750Y-41250D02*
D03*
Y39378D02*
D03*
Y80000D02*
D03*
Y-622D02*
D03*
X-562750Y80000D02*
D03*
Y39378D02*
D03*
Y-622D02*
D03*
Y-41250D02*
D03*
X238500Y-213811D02*
D03*
X258500D02*
D03*
X278500D02*
D03*
X298500D02*
D03*
X148842D02*
D03*
X128842D02*
D03*
X108842D02*
D03*
X88842D02*
D03*
X298500Y-263811D02*
D03*
X278500D02*
D03*
X258500D02*
D03*
X238500D02*
D03*
X446842D02*
D03*
X426842D02*
D03*
X406842D02*
D03*
X386842D02*
D03*
X446000Y-213811D02*
D03*
X426000D02*
D03*
X406000D02*
D03*
X386000D02*
D03*
D65*
X-51416Y-143479D02*
D03*
X-36416D02*
D03*
X-21416D02*
D03*
D66*
X-6416D02*
D03*
D73*
X-24980Y264787D02*
D03*
X25020D02*
D03*
X-574980Y149788D02*
D03*
Y199788D02*
D03*
X-250000Y262500D02*
D03*
X-200000D02*
D03*
X250000D02*
D03*
X200000D02*
D03*
X575000Y200000D02*
D03*
Y150000D02*
D03*
D74*
X-436019Y187666D02*
D03*
X-461419Y187466D02*
D03*
X-486819Y187666D02*
D03*
X-512219D02*
D03*
X-272080Y187287D02*
D03*
X-297480D02*
D03*
X-221280D02*
D03*
X-246680Y187087D02*
D03*
X195909Y186887D02*
D03*
X170509Y186687D02*
D03*
X145109Y186887D02*
D03*
X119709D02*
D03*
X411209D02*
D03*
X385809Y186687D02*
D03*
X360409Y186887D02*
D03*
X335009D02*
D03*
X-334419Y-91734D02*
D03*
X-359819D02*
D03*
X-385219D02*
D03*
X-410619D02*
D03*
X-436019D02*
D03*
X-461419D02*
D03*
X-486819D02*
D03*
X-512219D02*
D03*
X-410619Y187666D02*
D03*
X-359819D02*
D03*
X-334419D02*
D03*
X-385219D02*
D03*
X-119680Y-92113D02*
D03*
X-145080D02*
D03*
X-170480D02*
D03*
X-195880D02*
D03*
X-221280D02*
D03*
X-246680D02*
D03*
X-272080D02*
D03*
X-297480D02*
D03*
X-195880Y187287D02*
D03*
X-145080D02*
D03*
X-119680D02*
D03*
X-170480D02*
D03*
X297509Y-92513D02*
D03*
X272109D02*
D03*
X246709D02*
D03*
X221309D02*
D03*
X195909D02*
D03*
X170509D02*
D03*
X145109D02*
D03*
X119709D02*
D03*
X221309Y186887D02*
D03*
X272109D02*
D03*
X297509D02*
D03*
X246709D02*
D03*
X512809Y-92513D02*
D03*
X487409D02*
D03*
X462009D02*
D03*
X436609D02*
D03*
X411209D02*
D03*
X385809D02*
D03*
X360409D02*
D03*
X335009D02*
D03*
X436609Y186887D02*
D03*
X487409D02*
D03*
X512809D02*
D03*
X462009D02*
D03*
D75*
X0Y-94000D02*
D03*
X475742Y269877D02*
D03*
X-655066Y-209421D02*
D03*
X655066D02*
D03*
Y210949D02*
D03*
X-475742Y269877D02*
D03*
X-655066Y210949D02*
D03*
D76*
X558462Y-126913D02*
D03*
X583862D02*
D03*
X609262D02*
D03*
X566762Y-93913D02*
D03*
X606762D02*
D03*
X586762D02*
D03*
X-125000Y275400D02*
D03*
D77*
X634662Y-126913D02*
D03*
X626762Y-93913D02*
D03*
D78*
X-623000Y-81000D02*
D03*
X-608000D02*
D03*
X-593000D02*
D03*
X-578000D02*
D03*
X-563000D02*
D03*
X-548000D02*
D03*
D79*
X621377Y145596D02*
D03*
Y125596D02*
D03*
X-567500Y-187500D02*
D03*
Y-167500D02*
D03*
X-623038Y105407D02*
D03*
Y125407D02*
D03*
X557561Y-167500D02*
D03*
Y-187500D02*
D03*
D80*
X621377Y105596D02*
D03*
X-567500Y-207500D02*
D03*
X-623038Y145407D02*
D03*
X557561Y-207500D02*
D03*
D81*
X-8000Y61400D02*
D03*
X-22000D02*
D03*
X-8000Y75400D02*
D03*
X-22000D02*
D03*
X-8000Y89400D02*
D03*
X-22000D02*
D03*
X-1000Y68400D02*
D03*
X-15000D02*
D03*
X-29000D02*
D03*
X-1000Y82400D02*
D03*
X-29000D02*
D03*
X-15000D02*
D03*
D82*
X-125000Y250000D02*
D03*
D86*
X514855Y-126075D02*
D03*
X530368D02*
D03*
X205946Y-185348D02*
D03*
X221459D02*
D03*
X56946Y-184348D02*
D03*
X72459D02*
D03*
X354446D02*
D03*
X369959D02*
D03*
D87*
X602149Y-174179D02*
D03*
Y-193692D02*
D03*
X664737Y136346D02*
D03*
Y116833D02*
D03*
X-610860Y-178737D02*
D03*
Y-198250D02*
D03*
X-666398Y113914D02*
D03*
Y133427D02*
D03*
D88*
X-222246Y-182061D02*
D03*
Y-175561D02*
D03*
Y-169061D02*
D03*
Y-162561D02*
D03*
Y-156061D02*
D03*
Y-149561D02*
D03*
Y-143061D02*
D03*
X-278754D02*
D03*
Y-149561D02*
D03*
Y-156061D02*
D03*
Y-162561D02*
D03*
Y-169061D02*
D03*
Y-175561D02*
D03*
D89*
Y-182061D02*
D03*
D90*
X-309900Y-230161D02*
D03*
X-320900D02*
D03*
X-331900Y-232161D02*
D03*
X-342900Y-230161D02*
D03*
X-353900Y-232161D02*
D03*
X-364900Y-230161D02*
D03*
X-375900Y-226161D02*
D03*
X-386900Y-230161D02*
D03*
D91*
X-318000Y-121561D02*
D03*
X-375000D02*
D03*
D92*
X-331900Y-119311D02*
D03*
D93*
X-302000Y-253061D02*
D03*
X-433500Y-263061D02*
D03*
D94*
X564033Y-34159D02*
D03*
X543015D02*
D03*
X229509Y-1625D02*
D03*
X208491D02*
D03*
X229509Y28000D02*
D03*
X208491D02*
D03*
X379491Y-66000D02*
D03*
X400509D02*
D03*
X379491Y-37000D02*
D03*
X400509D02*
D03*
D95*
X100500Y-46000D02*
D03*
Y-41000D02*
D03*
X59500Y-46000D02*
D03*
Y-41000D02*
D03*
Y-36000D02*
D03*
Y-31000D02*
D03*
Y-26000D02*
D03*
X100500Y-36000D02*
D03*
Y-31000D02*
D03*
Y-26000D02*
D03*
D96*
X-422500Y-201061D02*
D03*
Y-182061D02*
D03*
X-161000Y129500D02*
D03*
Y110500D02*
D03*
X-225500Y129500D02*
D03*
Y110500D02*
D03*
D97*
X209797Y53787D02*
D03*
Y60287D02*
D03*
Y66787D02*
D03*
Y73287D02*
D03*
Y79787D02*
D03*
Y86287D02*
D03*
Y92787D02*
D03*
Y105787D02*
D03*
X153798Y47287D02*
D03*
Y53787D02*
D03*
Y60287D02*
D03*
Y66787D02*
D03*
Y73287D02*
D03*
Y79787D02*
D03*
Y86287D02*
D03*
Y92787D02*
D03*
Y99287D02*
D03*
Y105787D02*
D03*
X209797Y99287D02*
D03*
Y47287D02*
D03*
X-203250Y30250D02*
D03*
Y82250D02*
D03*
X-147250Y23750D02*
D03*
Y30250D02*
D03*
Y36750D02*
D03*
Y43250D02*
D03*
Y49750D02*
D03*
Y56250D02*
D03*
Y62750D02*
D03*
Y69250D02*
D03*
Y75750D02*
D03*
Y82250D02*
D03*
X-203250Y23750D02*
D03*
Y36750D02*
D03*
Y43250D02*
D03*
Y49750D02*
D03*
Y56250D02*
D03*
Y62750D02*
D03*
Y69250D02*
D03*
Y75750D02*
D03*
D98*
X-147798Y-179848D02*
D03*
Y-203348D02*
D03*
Y-267348D02*
D03*
Y-243848D02*
D03*
D99*
X543968Y67801D02*
D03*
X562985D02*
D03*
X543968Y43801D02*
D03*
X562985D02*
D03*
X543459Y20176D02*
D03*
X562476D02*
D03*
X543459Y-3449D02*
D03*
X562476D02*
D03*
D100*
X375100Y-6287D02*
D03*
X369480D02*
D03*
X401810D02*
D03*
X396190D02*
D03*
Y4713D02*
D03*
X401810D02*
D03*
X426620Y-6287D02*
D03*
X421000D02*
D03*
Y4713D02*
D03*
X426620D02*
D03*
X369480Y5000D02*
D03*
X375100D02*
D03*
D101*
X-184042Y117000D02*
D03*
Y131000D02*
D03*
D102*
X-263710Y-206561D02*
D03*
X-235290D02*
D03*
X-263710Y-231561D02*
D03*
X-235290D02*
D03*
Y-257561D02*
D03*
X-263710D02*
D03*
X-248210Y-120000D02*
D03*
X-219790D02*
D03*
X340790Y-161311D02*
D03*
X44164Y-161685D02*
D03*
X193080Y-161311D02*
D03*
Y-134311D02*
D03*
X221500D02*
D03*
X43790D02*
D03*
X72210D02*
D03*
X340790D02*
D03*
X369210D02*
D03*
X221500Y-161311D02*
D03*
X72584Y-161685D02*
D03*
X369210Y-161311D02*
D03*
D103*
X540250Y91250D02*
D03*
X569750D02*
D03*
X532750Y121000D02*
D03*
X503250D02*
D03*
D104*
X480000Y83000D02*
D03*
Y129000D02*
D03*
Y106000D02*
D03*
D105*
X318048Y65287D02*
D03*
X331048Y-2713D02*
D03*
X266048Y65287D02*
D03*
X272548D02*
D03*
X279048D02*
D03*
X285548D02*
D03*
X292048D02*
D03*
X298548D02*
D03*
X305047D02*
D03*
X311548D02*
D03*
X324548D02*
D03*
X331048D02*
D03*
X337548D02*
D03*
X344048D02*
D03*
X350548D02*
D03*
X266048Y-2713D02*
D03*
X272548D02*
D03*
X279048D02*
D03*
X285548D02*
D03*
X292048D02*
D03*
X298548D02*
D03*
X305047D02*
D03*
X311548D02*
D03*
X318048D02*
D03*
X324548D02*
D03*
X337548D02*
D03*
X344048D02*
D03*
X350548D02*
D03*
D106*
X55500Y-199554D02*
D03*
Y-215067D02*
D03*
X55000Y-270067D02*
D03*
Y-254554D02*
D03*
X204658D02*
D03*
Y-270067D02*
D03*
X204658Y-204554D02*
D03*
Y-220067D02*
D03*
X354452Y-217854D02*
D03*
Y-202341D02*
D03*
Y-268604D02*
D03*
Y-253091D02*
D03*
D107*
X422000Y106000D02*
D03*
D108*
X-133989Y146409D02*
D03*
Y125391D02*
D03*
D109*
X-203000Y112516D02*
D03*
Y132516D02*
D03*
M02*
