G04*
G04 #@! TF.GenerationSoftware,Altium Limited,Altium Designer,20.2.5 (213)*
G04*
G04 Layer_Color=32768*
%FSLAX44Y44*%
%MOMM*%
G71*
G04*
G04 #@! TF.SameCoordinates,F2EF3DC7-CE59-478A-9F64-9A272EA7E262*
G04*
G04*
G04 #@! TF.FilePolarity,Positive*
G04*
G01*
G75*
%ADD12C,0.2000*%
D12*
X512611Y-132325D02*
X532611D01*
Y-119825D01*
X512611D02*
X532611D01*
X512611Y-132325D02*
Y-119825D01*
X595899Y-193936D02*
X608399D01*
X595899D02*
Y-173936D01*
X608399D01*
Y-193936D02*
Y-173936D01*
X658487Y116590D02*
X670987D01*
X658487D02*
Y136590D01*
X670987D01*
Y116590D02*
Y136590D01*
X-272500Y-187561D02*
Y-137561D01*
X-228500D01*
Y-187561D02*
Y-137561D01*
X-272500Y-187561D02*
X-228500D01*
X543524Y-27909D02*
X563524D01*
X543524Y-40409D02*
Y-27909D01*
Y-40409D02*
X563524D01*
Y-27909D01*
X159298Y109537D02*
X204298D01*
X159298Y43537D02*
Y109537D01*
Y43537D02*
X204298D01*
Y109537D01*
X209000Y4625D02*
X229000D01*
X209000Y-7875D02*
Y4625D01*
Y-7875D02*
X229000D01*
Y4625D01*
X209000Y34250D02*
X229000D01*
X209000Y21750D02*
Y34250D01*
Y21750D02*
X229000D01*
Y34250D01*
X380000Y-72250D02*
X400000D01*
Y-59750D01*
X380000D02*
X400000D01*
X380000Y-72250D02*
Y-59750D01*
Y-43250D02*
X400000D01*
Y-30750D01*
X380000D02*
X400000D01*
X380000Y-43250D02*
Y-30750D01*
X-154548Y-202598D02*
Y-180598D01*
Y-202598D02*
X-141048D01*
Y-180598D01*
X-154548D02*
X-141048D01*
X-154548Y-244598D02*
X-141048D01*
Y-266598D02*
Y-244598D01*
X-154548Y-266598D02*
X-141048D01*
X-154548D02*
Y-244598D01*
X563476Y61551D02*
Y74051D01*
X543476Y61551D02*
X563476D01*
X543476D02*
Y74051D01*
X563476D01*
Y37551D02*
Y50051D01*
X543476Y37551D02*
X563476D01*
X543476D02*
Y50051D01*
X563476D01*
X562967Y13926D02*
Y26426D01*
X542967Y13926D02*
X562967D01*
X542967D02*
Y26426D01*
X562967D01*
Y-9699D02*
Y2801D01*
X542967Y-9699D02*
X562967D01*
X542967D02*
Y2801D01*
X562967D01*
X-617110Y-198494D02*
Y-178494D01*
Y-198494D02*
X-604610D01*
Y-178494D01*
X-617110D02*
X-604610D01*
X-672648Y133670D02*
X-660148D01*
Y113670D02*
Y133670D01*
X-672648Y113670D02*
X-660148D01*
X-672648D02*
Y133670D01*
X203702Y-191598D02*
X223702D01*
Y-179098D01*
X203702D02*
X223702D01*
X203702Y-191598D02*
Y-179098D01*
X54702Y-190598D02*
X74702D01*
Y-178098D01*
X54702D02*
X74702D01*
X54702Y-190598D02*
Y-178098D01*
X352202Y-190598D02*
X372202D01*
Y-178098D01*
X352202D02*
X372202D01*
X352202Y-190598D02*
Y-178098D01*
X49250Y-217311D02*
X61750D01*
X49250D02*
Y-197311D01*
X61750D01*
Y-217311D02*
Y-197311D01*
X61250Y-272311D02*
Y-252311D01*
X48750D02*
X61250D01*
X48750Y-272311D02*
Y-252311D01*
Y-272311D02*
X61250D01*
X198408D02*
X210908D01*
X198408D02*
Y-252311D01*
X210908D01*
Y-272311D02*
Y-252311D01*
X198408Y-222311D02*
X210908D01*
X198408D02*
Y-202311D01*
X210908D01*
Y-222311D02*
Y-202311D01*
X360702Y-220098D02*
Y-200098D01*
X348202D02*
X360702D01*
X348202Y-220098D02*
Y-200098D01*
Y-220098D02*
X360702D01*
Y-270848D02*
Y-250848D01*
X348202D02*
X360702D01*
X348202Y-270848D02*
Y-250848D01*
Y-270848D02*
X360702D01*
X538000Y82250D02*
Y100250D01*
X572000D01*
Y82250D02*
Y100250D01*
X538000Y82250D02*
X572000D01*
X501000Y112000D02*
Y130000D01*
X535000D01*
Y112000D02*
Y130000D01*
X501000Y112000D02*
X535000D01*
X432500Y139500D02*
X469500D01*
X432500Y72500D02*
Y139500D01*
Y72500D02*
X469500D01*
Y139500D01*
X-140239Y125900D02*
X-127739D01*
X-140239D02*
Y145900D01*
X-127739D01*
Y125900D02*
Y145900D01*
X-210250Y133516D02*
X-195750D01*
Y111516D02*
Y133516D01*
X-210250Y111516D02*
X-195750D01*
X-210250D02*
Y133516D01*
X-197750Y20000D02*
Y86000D01*
X-152750D01*
Y20000D02*
Y86000D01*
X-197750Y20000D02*
X-152750D01*
M02*
