G04*
G04 #@! TF.GenerationSoftware,Altium Limited,Altium Designer,20.2.5 (213)*
G04*
G04 Layer_Color=128*
%FSLAX44Y44*%
%MOMM*%
G71*
G04*
G04 #@! TF.SameCoordinates,F2EF3DC7-CE59-478A-9F64-9A272EA7E262*
G04*
G04*
G04 #@! TF.FilePolarity,Positive*
G04*
G01*
G75*
%ADD125C,0.0508*%
D125*
X8448Y-197010D02*
X17448D01*
X12948Y-201510D02*
Y-192510D01*
X-16552Y-197010D02*
X-7552D01*
X-12052Y-201510D02*
Y-192510D01*
X-41552Y-197010D02*
X-32552D01*
X-37052Y-201510D02*
Y-192510D01*
X-66552Y-197010D02*
X-57552D01*
X-62052Y-201510D02*
Y-192510D01*
X-91552Y-197010D02*
X-82552D01*
X-87052Y-201510D02*
Y-192510D01*
X-116552Y-197010D02*
X-107552D01*
X-112052Y-201510D02*
Y-192510D01*
X-33980Y264787D02*
X-15980D01*
X-24980Y255787D02*
Y273787D01*
X16020Y264787D02*
X34020D01*
X25020Y255787D02*
Y273787D01*
X-439829Y187666D02*
X-432209D01*
X-436019Y183856D02*
Y191476D01*
X-465229Y187466D02*
X-457609D01*
X-461419Y183656D02*
Y191276D01*
X-583980Y149788D02*
X-565980D01*
X-574980Y140787D02*
Y158787D01*
X-490629Y187666D02*
X-483009D01*
X-486819Y183856D02*
Y191476D01*
X-516029Y187666D02*
X-508409D01*
X-512219Y183856D02*
Y191476D01*
X-583980Y199788D02*
X-565980D01*
X-574980Y190788D02*
Y208787D01*
X-275890Y187287D02*
X-268270D01*
X-272080Y183477D02*
Y191097D01*
X-301290Y187287D02*
X-293670D01*
X-297480Y183477D02*
Y191097D01*
X-259000Y262500D02*
X-241000D01*
X-250000Y253500D02*
Y271500D01*
X-225090Y187287D02*
X-217470D01*
X-221280Y183477D02*
Y191097D01*
X-250490Y187087D02*
X-242870D01*
X-246680Y183277D02*
Y190897D01*
X-209000Y262500D02*
X-191000D01*
X-200000Y253500D02*
Y271500D01*
X241000Y262500D02*
X259000D01*
X250000Y253500D02*
Y271500D01*
X192099Y186887D02*
X199719D01*
X195909Y183077D02*
Y190697D01*
X166699Y186687D02*
X174319D01*
X170509Y182877D02*
Y190497D01*
X191000Y262500D02*
X209000D01*
X200000Y253500D02*
Y271500D01*
X141299Y186887D02*
X148919D01*
X145109Y183077D02*
Y190697D01*
X115899Y186887D02*
X123519D01*
X119709Y183077D02*
Y190697D01*
X566000Y200000D02*
X584000D01*
X575000Y191000D02*
Y209000D01*
X407399Y186887D02*
X415019D01*
X411209Y183077D02*
Y190697D01*
X381999Y186687D02*
X389619D01*
X385809Y182877D02*
Y190497D01*
X566000Y150000D02*
X584000D01*
X575000Y141000D02*
Y159000D01*
X356599Y186887D02*
X364219D01*
X360409Y183077D02*
Y190697D01*
X331199Y186887D02*
X338819D01*
X335009Y183077D02*
Y190697D01*
X85342Y-263811D02*
X92342D01*
X88842Y-267311D02*
Y-260311D01*
X105342Y-263811D02*
X112342D01*
X108842Y-267311D02*
Y-260311D01*
X125342Y-263811D02*
X132342D01*
X128842Y-267311D02*
Y-260311D01*
X145342Y-263811D02*
X152342D01*
X148842Y-267311D02*
Y-260311D01*
X165342Y-263811D02*
X172342D01*
X168842Y-267311D02*
Y-260311D01*
X-15500Y-94000D02*
X15500D01*
X0Y-109500D02*
Y-78500D01*
X236500Y-146311D02*
X245500D01*
X241000Y-150811D02*
Y-141811D01*
X261500Y-146311D02*
X270500D01*
X266000Y-150811D02*
Y-141811D01*
X286500Y-146311D02*
X295500D01*
X291000Y-150811D02*
Y-141811D01*
X311500Y-146311D02*
X320500D01*
X316000Y-150811D02*
Y-141811D01*
X553962Y-126913D02*
X562962D01*
X558462Y-131413D02*
Y-122414D01*
X579362Y-126913D02*
X588362D01*
X583862Y-131413D02*
Y-122414D01*
X604762Y-126913D02*
X613762D01*
X609262Y-131413D02*
Y-122414D01*
X630162Y-126913D02*
X639162D01*
X634662Y-131413D02*
Y-122414D01*
X561762Y-93913D02*
X571762D01*
X566762Y-98913D02*
Y-88913D01*
X621762Y-93913D02*
X631762D01*
X626762Y-98913D02*
Y-88913D01*
X601762Y-93913D02*
X611762D01*
X606762Y-98913D02*
Y-88913D01*
X581762Y-93913D02*
X591762D01*
X586762Y-98913D02*
Y-88913D01*
X-626500Y-81000D02*
X-619500D01*
X-623000Y-84500D02*
Y-77500D01*
X-611500Y-81000D02*
X-604500D01*
X-608000Y-84500D02*
Y-77500D01*
X-596500Y-81000D02*
X-589500D01*
X-593000Y-84500D02*
Y-77500D01*
X-581500Y-81000D02*
X-574500D01*
X-578000Y-84500D02*
Y-77500D01*
X-566500Y-81000D02*
X-559500D01*
X-563000Y-84500D02*
Y-77500D01*
X-551500Y-81000D02*
X-544500D01*
X-548000Y-84500D02*
Y-77500D01*
X460242Y269877D02*
X491242D01*
X475742Y254377D02*
Y285377D01*
X617378Y145596D02*
X625378D01*
X621377Y141596D02*
Y149596D01*
X617378Y125596D02*
X625378D01*
X621377Y121596D02*
Y129596D01*
X617378Y105596D02*
X625378D01*
X621377Y101596D02*
Y109596D01*
X-338229Y-91734D02*
X-330609D01*
X-334419Y-95544D02*
Y-87924D01*
X-363629Y-91734D02*
X-356009D01*
X-359819Y-95544D02*
Y-87924D01*
X-389029Y-91734D02*
X-381409D01*
X-385219Y-95544D02*
Y-87924D01*
X-414429Y-91734D02*
X-406809D01*
X-410619Y-95544D02*
Y-87924D01*
X-439829Y-91734D02*
X-432209D01*
X-436019Y-95544D02*
Y-87924D01*
X-465229Y-91734D02*
X-457609D01*
X-461419Y-95544D02*
Y-87924D01*
X-490629Y-91734D02*
X-483009D01*
X-486819Y-95544D02*
Y-87924D01*
X-516029Y-91734D02*
X-508409D01*
X-512219Y-95544D02*
Y-87924D01*
X-414429Y187666D02*
X-406809D01*
X-410619Y183856D02*
Y191476D01*
X-363629Y187666D02*
X-356009D01*
X-359819Y183856D02*
Y191476D01*
X-338229Y187666D02*
X-330609D01*
X-334419Y183856D02*
Y191476D01*
X-389029Y187666D02*
X-381409D01*
X-385219Y183856D02*
Y191476D01*
X-123490Y-92113D02*
X-115870D01*
X-119680Y-95923D02*
Y-88303D01*
X-148890Y-92113D02*
X-141270D01*
X-145080Y-95923D02*
Y-88303D01*
X-174290Y-92113D02*
X-166670D01*
X-170480Y-95923D02*
Y-88303D01*
X-199690Y-92113D02*
X-192070D01*
X-195880Y-95923D02*
Y-88303D01*
X-225090Y-92113D02*
X-217470D01*
X-221280Y-95923D02*
Y-88303D01*
X-250490Y-92113D02*
X-242870D01*
X-246680Y-95923D02*
Y-88303D01*
X-275890Y-92113D02*
X-268270D01*
X-272080Y-95923D02*
Y-88303D01*
X-301290Y-92113D02*
X-293670D01*
X-297480Y-95923D02*
Y-88303D01*
X-199690Y187287D02*
X-192070D01*
X-195880Y183477D02*
Y191097D01*
X-148890Y187287D02*
X-141270D01*
X-145080Y183477D02*
Y191097D01*
X-123490Y187287D02*
X-115870D01*
X-119680Y183477D02*
Y191097D01*
X-174290Y187287D02*
X-166670D01*
X-170480Y183477D02*
Y191097D01*
X293699Y-92513D02*
X301319D01*
X297509Y-96323D02*
Y-88703D01*
X268299Y-92513D02*
X275919D01*
X272109Y-96323D02*
Y-88703D01*
X242899Y-92513D02*
X250519D01*
X246709Y-96323D02*
Y-88703D01*
X217499Y-92513D02*
X225119D01*
X221309Y-96323D02*
Y-88703D01*
X192099Y-92513D02*
X199719D01*
X195909Y-96323D02*
Y-88703D01*
X166699Y-92513D02*
X174319D01*
X170509Y-96323D02*
Y-88703D01*
X141299Y-92513D02*
X148919D01*
X145109Y-96323D02*
Y-88703D01*
X115899Y-92513D02*
X123519D01*
X119709Y-96323D02*
Y-88703D01*
X217499Y186887D02*
X225119D01*
X221309Y183077D02*
Y190697D01*
X268299Y186887D02*
X275919D01*
X272109Y183077D02*
Y190697D01*
X293699Y186887D02*
X301319D01*
X297509Y183077D02*
Y190697D01*
X242899Y186887D02*
X250519D01*
X246709Y183077D02*
Y190697D01*
X508999Y-92513D02*
X516619D01*
X512809Y-96323D02*
Y-88703D01*
X483599Y-92513D02*
X491219D01*
X487409Y-96323D02*
Y-88703D01*
X458199Y-92513D02*
X465819D01*
X462009Y-96323D02*
Y-88703D01*
X432799Y-92513D02*
X440419D01*
X436609Y-96323D02*
Y-88703D01*
X407399Y-92513D02*
X415019D01*
X411209Y-96323D02*
Y-88703D01*
X381999Y-92513D02*
X389619D01*
X385809Y-96323D02*
Y-88703D01*
X356599Y-92513D02*
X364219D01*
X360409Y-96323D02*
Y-88703D01*
X331199Y-92513D02*
X338819D01*
X335009Y-96323D02*
Y-88703D01*
X432799Y186887D02*
X440419D01*
X436609Y183077D02*
Y190697D01*
X483599Y186887D02*
X491219D01*
X487409Y183077D02*
Y190697D01*
X508999Y186887D02*
X516619D01*
X512809Y183077D02*
Y190697D01*
X458199Y186887D02*
X465819D01*
X462009Y183077D02*
Y190697D01*
X-571500Y-207500D02*
X-563500D01*
X-567500Y-211500D02*
Y-203500D01*
X-571500Y-187500D02*
X-563500D01*
X-567500Y-191500D02*
Y-183500D01*
X-571500Y-167500D02*
X-563500D01*
X-567500Y-171500D02*
Y-163500D01*
X-627038Y105407D02*
X-619038D01*
X-623038Y101407D02*
Y109407D01*
X-627038Y125407D02*
X-619038D01*
X-623038Y121407D02*
Y129407D01*
X-627038Y145407D02*
X-619038D01*
X-623038Y141407D02*
Y149407D01*
X315000Y-213811D02*
X322000D01*
X318500Y-217311D02*
Y-210311D01*
X165342Y-213811D02*
X172342D01*
X168842Y-217311D02*
Y-210311D01*
X315000Y-263811D02*
X322000D01*
X318500Y-267311D02*
Y-260311D01*
X463342Y-263811D02*
X470342D01*
X466842Y-267311D02*
Y-260311D01*
X462500Y-213811D02*
X469500D01*
X466000Y-217311D02*
Y-210311D01*
X-581250Y-41250D02*
X-574250D01*
X-577750Y-44750D02*
Y-37750D01*
X-581250Y39378D02*
X-574250D01*
X-577750Y35878D02*
Y42878D01*
X-581250Y80000D02*
X-574250D01*
X-577750Y76500D02*
Y83500D01*
X-581250Y-622D02*
X-574250D01*
X-577750Y-4122D02*
Y2878D01*
X-551250Y80000D02*
X-544250D01*
X-547750Y76500D02*
Y83500D01*
X-566250Y80000D02*
X-559250D01*
X-562750Y76500D02*
Y83500D01*
X-566250Y39378D02*
X-559250D01*
X-562750Y35878D02*
Y42878D01*
X-551250Y39378D02*
X-544250D01*
X-547750Y35878D02*
Y42878D01*
X-566250Y-622D02*
X-559250D01*
X-562750Y-4122D02*
Y2878D01*
X-551250Y-622D02*
X-544250D01*
X-547750Y-4122D02*
Y2878D01*
X-566250Y-41250D02*
X-559250D01*
X-562750Y-44750D02*
Y-37750D01*
X-551250Y-41250D02*
X-544250D01*
X-547750Y-44750D02*
Y-37750D01*
X-9000Y61400D02*
X-7000D01*
X-8000Y60400D02*
Y62400D01*
X-23000Y61400D02*
X-21000D01*
X-22000Y60400D02*
Y62400D01*
X-9000Y75400D02*
X-7000D01*
X-8000Y74400D02*
Y76400D01*
X-23000Y75400D02*
X-21000D01*
X-22000Y74400D02*
Y76400D01*
X-9000Y89400D02*
X-7000D01*
X-8000Y88400D02*
Y90400D01*
X-23000Y89400D02*
X-21000D01*
X-22000Y88400D02*
Y90400D01*
X-2000Y68400D02*
X0D01*
X-1000Y67400D02*
Y69400D01*
X-16000Y68400D02*
X-14000D01*
X-15000Y67400D02*
Y69400D01*
X-30000Y68400D02*
X-28000D01*
X-29000Y67400D02*
Y69400D01*
X-2000Y82400D02*
X0D01*
X-1000Y81400D02*
Y83400D01*
X-30000Y82400D02*
X-28000D01*
X-29000Y81400D02*
Y83400D01*
X-16000Y82400D02*
X-14000D01*
X-15000Y81400D02*
Y83400D01*
X-129500Y275400D02*
X-120500D01*
X-125000Y270900D02*
Y279900D01*
X-129500Y250000D02*
X-120500D01*
X-125000Y245500D02*
Y254500D01*
X-116052Y-262260D02*
X-107052D01*
X-111552Y-266760D02*
Y-257760D01*
X-91052Y-262260D02*
X-82052D01*
X-86552Y-266760D02*
Y-257760D01*
X-66052Y-262260D02*
X-57052D01*
X-61552Y-266760D02*
Y-257760D01*
X-41052Y-262260D02*
X-32052D01*
X-36552Y-266760D02*
Y-257760D01*
X-16052Y-262260D02*
X-7052D01*
X-11552Y-266760D02*
Y-257760D01*
X8948Y-262260D02*
X17948D01*
X13448Y-266760D02*
Y-257760D01*
X235000Y-213811D02*
X242000D01*
X238500Y-217311D02*
Y-210311D01*
X255000Y-213811D02*
X262000D01*
X258500Y-217311D02*
Y-210311D01*
X275000Y-213811D02*
X282000D01*
X278500Y-217311D02*
Y-210311D01*
X295000Y-213811D02*
X302000D01*
X298500Y-217311D02*
Y-210311D01*
X162000Y-146311D02*
X171000D01*
X166500Y-150811D02*
Y-141811D01*
X137000Y-146311D02*
X146000D01*
X141500Y-150811D02*
Y-141811D01*
X112000Y-146311D02*
X121000D01*
X116500Y-150811D02*
Y-141811D01*
X87000Y-146311D02*
X96000D01*
X91500Y-150811D02*
Y-141811D01*
X459000Y-146311D02*
X468000D01*
X463500Y-150811D02*
Y-141811D01*
X434000Y-146311D02*
X443000D01*
X438500Y-150811D02*
Y-141811D01*
X409000Y-146311D02*
X418000D01*
X413500Y-150811D02*
Y-141811D01*
X384000Y-146311D02*
X393000D01*
X388500Y-150811D02*
Y-141811D01*
X-670566Y-209421D02*
X-639566D01*
X-655066Y-224921D02*
Y-193921D01*
X639566Y-209421D02*
X670566D01*
X655066Y-224921D02*
Y-193921D01*
X639566Y210949D02*
X670566D01*
X655066Y195449D02*
Y226449D01*
X-491242Y269877D02*
X-460242D01*
X-475742Y254377D02*
Y285377D01*
X-670566Y210949D02*
X-639566D01*
X-655066Y195449D02*
Y226449D01*
X-54666Y-143479D02*
X-48166D01*
X-51416Y-146729D02*
Y-140230D01*
X-39666Y-143479D02*
X-33166D01*
X-36416Y-146729D02*
Y-140230D01*
X-24666Y-143479D02*
X-18166D01*
X-21416Y-146729D02*
Y-140230D01*
X-9666Y-143479D02*
X-3166D01*
X-6416Y-146729D02*
Y-140230D01*
X145342Y-213811D02*
X152342D01*
X148842Y-217311D02*
Y-210311D01*
X125342Y-213811D02*
X132342D01*
X128842Y-217311D02*
Y-210311D01*
X105342Y-213811D02*
X112342D01*
X108842Y-217311D02*
Y-210311D01*
X85342Y-213811D02*
X92342D01*
X88842Y-217311D02*
Y-210311D01*
X295000Y-263811D02*
X302000D01*
X298500Y-267311D02*
Y-260311D01*
X275000Y-263811D02*
X282000D01*
X278500Y-267311D02*
Y-260311D01*
X255000Y-263811D02*
X262000D01*
X258500Y-267311D02*
Y-260311D01*
X235000Y-263811D02*
X242000D01*
X238500Y-267311D02*
Y-260311D01*
X443342Y-263811D02*
X450342D01*
X446842Y-267311D02*
Y-260311D01*
X423342Y-263811D02*
X430342D01*
X426842Y-267311D02*
Y-260311D01*
X403342Y-263811D02*
X410342D01*
X406842Y-267311D02*
Y-260311D01*
X383342Y-263811D02*
X390342D01*
X386842Y-267311D02*
Y-260311D01*
X442500Y-213811D02*
X449500D01*
X446000Y-217311D02*
Y-210311D01*
X422500Y-213811D02*
X429500D01*
X426000Y-217311D02*
Y-210311D01*
X402500Y-213811D02*
X409500D01*
X406000Y-217311D02*
Y-210311D01*
X382500Y-213811D02*
X389500D01*
X386000Y-217311D02*
Y-210311D01*
X553562Y-167500D02*
X561562D01*
X557561Y-171500D02*
Y-163500D01*
X553562Y-187500D02*
X561562D01*
X557561Y-191500D02*
Y-183500D01*
X553562Y-207500D02*
X561562D01*
X557561Y-211500D02*
Y-203500D01*
X512500Y-144000D02*
X517500D01*
X515000Y-146500D02*
Y-141500D01*
X257000Y-79000D02*
X261000D01*
X259000Y-81000D02*
Y-77000D01*
X-130457Y-216187D02*
X-127917D01*
X-129187Y-217458D02*
Y-214918D01*
X-131209Y-225263D02*
X-128669D01*
X-129939Y-226533D02*
Y-223993D01*
X600000Y-213750D02*
X605000D01*
X602500Y-216250D02*
Y-211250D01*
X663796Y99100D02*
X666336D01*
X665066Y97830D02*
Y100370D01*
X14804Y214069D02*
X34804D01*
X24804Y204069D02*
Y224069D01*
X-173281Y213998D02*
X-153281D01*
X-163281Y203998D02*
Y223998D01*
X287588Y213748D02*
X307588D01*
X297588Y203748D02*
Y223748D01*
X-346750Y214000D02*
X-326750D01*
X-336750Y204000D02*
Y224000D01*
X253730Y-31183D02*
X256270D01*
X255000Y-32453D02*
Y-29913D01*
X383730Y-6000D02*
X386270D01*
X385000Y-7270D02*
Y-4730D01*
X477730Y70630D02*
X480270D01*
X479000Y69360D02*
Y71900D01*
X552730Y121250D02*
X555270D01*
X554000Y119980D02*
Y122520D01*
X451730Y132080D02*
X454270D01*
X453000Y130810D02*
Y133350D01*
X225980Y106250D02*
X228520D01*
X227250Y104980D02*
Y107520D01*
X237230Y92500D02*
X239770D01*
X238500Y91230D02*
Y93770D01*
X-77110Y-90769D02*
X-74570D01*
X-75840Y-92039D02*
Y-89499D01*
X-72341Y-100929D02*
X-69801D01*
X-71071Y-102199D02*
Y-99659D01*
X-217520Y-240000D02*
X-214980D01*
X-216250Y-241270D02*
Y-238730D01*
X-135593Y-122083D02*
X-133053D01*
X-134323Y-123353D02*
Y-120813D01*
X-229270Y84750D02*
X-226730D01*
X-228000Y83480D02*
Y86020D01*
X112298Y-713D02*
X117298D01*
X114798Y-3213D02*
Y1787D01*
X112298Y75287D02*
X117298D01*
X114798Y72787D02*
Y77787D01*
X14178Y-172315D02*
X16718D01*
X15448Y-173585D02*
Y-171045D01*
X-448770Y-270000D02*
X-446230D01*
X-447500Y-271270D02*
Y-268730D01*
X135250Y115250D02*
X139250D01*
X137250Y113250D02*
Y117250D01*
X101562Y-116832D02*
X104102D01*
X102832Y-118102D02*
Y-115562D01*
X-130000Y-181750D02*
X-126000D01*
X-128000Y-183750D02*
Y-179750D01*
X-192000Y-140000D02*
X-188000D01*
X-190000Y-142000D02*
Y-138000D01*
X-311750Y-171250D02*
X-307750D01*
X-309750Y-173250D02*
Y-169250D01*
X159190Y21250D02*
X161730D01*
X160460Y19980D02*
Y22520D01*
X158980Y33000D02*
X161520D01*
X160250Y31730D02*
Y34270D01*
X116250Y-13750D02*
X120250D01*
X118250Y-15750D02*
Y-11750D01*
X-409500Y-264500D02*
X-405500D01*
X-407500Y-266500D02*
Y-262500D01*
X-66750Y21750D02*
X-62750D01*
X-64750Y19750D02*
Y23750D01*
X44500Y250D02*
X48500D01*
X46500Y-1750D02*
Y2250D01*
X-165000Y57000D02*
X-161000D01*
X-163000Y55000D02*
Y59000D01*
X-424068Y-128598D02*
X-421528D01*
X-422798Y-129868D02*
Y-127328D01*
X-540770Y-157313D02*
X-538230D01*
X-539500Y-158583D02*
Y-156043D01*
X37678Y-279859D02*
X40218D01*
X38948Y-281129D02*
Y-278589D01*
X345000Y49000D02*
X347540D01*
X346270Y47730D02*
Y50270D01*
X193483Y59000D02*
X196023D01*
X194753Y57730D02*
Y60270D01*
X333730Y49000D02*
X336270D01*
X335000Y47730D02*
Y50270D01*
X192730Y49000D02*
X195270D01*
X194000Y47730D02*
Y50270D01*
X636730Y38687D02*
X639270D01*
X638000Y37417D02*
Y39957D01*
X615730Y57000D02*
X618270D01*
X617000Y55730D02*
Y58270D01*
X577730Y-34000D02*
X580270D01*
X579000Y-35270D02*
Y-32730D01*
X434730Y-6000D02*
X437270D01*
X436000Y-7270D02*
Y-4730D01*
X307028Y31287D02*
X309568D01*
X308298Y30017D02*
Y32557D01*
X477730Y21000D02*
X480270D01*
X479000Y19730D02*
Y22270D01*
X253528Y29214D02*
X256068D01*
X254798Y27944D02*
Y30484D01*
X219884Y-72400D02*
X222424D01*
X221154Y-73670D02*
Y-71130D01*
X399730Y-168000D02*
X402270D01*
X401000Y-169270D02*
Y-166730D01*
X379733Y-188000D02*
X382273D01*
X381003Y-189270D02*
Y-186730D01*
X340420Y-177765D02*
X342960D01*
X341690Y-179035D02*
Y-176495D01*
X365230Y-224659D02*
X367770D01*
X366500Y-225929D02*
Y-223389D01*
X112298Y113287D02*
X117298D01*
X114798Y110787D02*
Y115787D01*
X284772Y155000D02*
X287313D01*
X286042Y153730D02*
Y156270D01*
X284730Y117000D02*
X287270D01*
X286000Y115730D02*
Y118270D01*
X242730Y117120D02*
X245270D01*
X244000Y115850D02*
Y118390D01*
X-171068Y-159598D02*
X-168528D01*
X-169798Y-160868D02*
Y-158328D01*
X-149068Y-167598D02*
X-146528D01*
X-147798Y-168868D02*
Y-166328D01*
X322730Y-132000D02*
X325270D01*
X324000Y-133270D02*
Y-130730D01*
X245895Y-234811D02*
X248435D01*
X247165Y-236081D02*
Y-233541D01*
X224568Y-230811D02*
X227108D01*
X225838Y-232081D02*
Y-229541D01*
X188072Y-221048D02*
X190612D01*
X189342Y-222318D02*
Y-219778D01*
X185320Y-180311D02*
X187861D01*
X186590Y-181581D02*
Y-179041D01*
X80576Y-97694D02*
X83117D01*
X81847Y-98963D02*
Y-96424D01*
X79730Y-105920D02*
X82270D01*
X81000Y-107190D02*
Y-104650D01*
X176730Y-131000D02*
X179270D01*
X178000Y-132270D02*
Y-129730D01*
X99730Y-131000D02*
X102270D01*
X101000Y-132270D02*
Y-129730D01*
X319467Y-108871D02*
X322007D01*
X320737Y-110141D02*
Y-107601D01*
X308730Y-108871D02*
X311270D01*
X310000Y-110141D02*
Y-107601D01*
X-32818Y1452D02*
X-30278D01*
X-31548Y182D02*
Y2722D01*
X125730Y-31000D02*
X128270D01*
X127000Y-32270D02*
Y-29730D01*
X131730Y-24000D02*
X134270D01*
X133000Y-25270D02*
Y-22730D01*
X282000Y-77000D02*
X286000D01*
X284000Y-79000D02*
Y-75000D01*
X100730Y-107000D02*
X103270D01*
X102000Y-108270D02*
Y-105730D01*
X81668Y-85938D02*
X84208D01*
X82938Y-87208D02*
Y-84668D01*
X-118750Y26000D02*
X-113750D01*
X-116250Y23500D02*
Y28500D01*
X-118750Y39000D02*
X-113750D01*
X-116250Y36500D02*
Y41500D01*
X-45682Y-8660D02*
X-43142D01*
X-44412Y-9930D02*
Y-7390D01*
X-118750Y13000D02*
X-113750D01*
X-116250Y10500D02*
Y15500D01*
X-221523Y13253D02*
X-218983D01*
X-220253Y11983D02*
Y14523D01*
X30730Y-11000D02*
X33270D01*
X32000Y-12270D02*
Y-9730D01*
X-56270Y-114000D02*
X-53730D01*
X-55000Y-115270D02*
Y-112730D01*
X17730Y9000D02*
X20270D01*
X19000Y7730D02*
Y10270D01*
X36178Y-216183D02*
X38718D01*
X37448Y-217453D02*
Y-214913D01*
X34730Y-252394D02*
X37270D01*
X36000Y-253664D02*
Y-251124D01*
X-149068Y-232218D02*
X-146528D01*
X-147798Y-233488D02*
Y-230948D01*
X42730Y-61300D02*
X45270D01*
X44000Y-62570D02*
Y-60030D01*
X29980Y-49750D02*
X32520D01*
X31250Y-51020D02*
Y-48480D01*
X-538270Y68000D02*
X-535730D01*
X-537000Y66730D02*
Y69270D01*
X334012Y-269518D02*
X336552D01*
X335282Y-270788D02*
Y-268248D01*
X-135270Y-111923D02*
X-132730D01*
X-134000Y-113193D02*
Y-110653D01*
X112298Y11287D02*
X117298D01*
X114798Y8787D02*
Y13787D01*
X112298Y24287D02*
X117298D01*
X114798Y21787D02*
Y26787D01*
X112298Y62310D02*
X117298D01*
X114798Y59810D02*
Y64810D01*
X112298Y87287D02*
X117298D01*
X114798Y84787D02*
Y89787D01*
X-347270Y-263000D02*
X-344730D01*
X-346000Y-264270D02*
Y-261730D01*
X-612020Y-163569D02*
X-609480D01*
X-610750Y-164839D02*
Y-162299D01*
X-175270Y23000D02*
X-172730D01*
X-174000Y21730D02*
Y24270D01*
X-341500Y-200000D02*
X-336500D01*
X-339000Y-202500D02*
Y-197500D01*
X-340798Y-180598D02*
X-336798D01*
X-338798Y-182598D02*
Y-178598D01*
X-465270Y-117000D02*
X-462730D01*
X-464000Y-118270D02*
Y-115730D01*
X-198068Y-160598D02*
X-195528D01*
X-196798Y-161868D02*
Y-159328D01*
X183932Y-270598D02*
X186472D01*
X185202Y-271868D02*
Y-269328D01*
X-171068Y-256473D02*
X-168528D01*
X-169798Y-257743D02*
Y-255203D01*
X-366270Y-153241D02*
X-363730D01*
X-365000Y-154511D02*
Y-151971D01*
X576206Y67801D02*
X578746D01*
X577476Y66531D02*
Y69071D01*
X577706Y-3199D02*
X580246D01*
X578976Y-4469D02*
Y-1929D01*
X577206Y19801D02*
X579746D01*
X578476Y18531D02*
Y21071D01*
X576206Y43801D02*
X578746D01*
X577476Y42531D02*
Y45071D01*
X409730Y-6000D02*
X412270D01*
X411000Y-7270D02*
Y-4730D01*
X-118750Y89000D02*
X-113750D01*
X-116250Y86500D02*
Y91500D01*
X-667996Y151904D02*
X-665456D01*
X-666726Y150634D02*
Y153174D01*
X112298Y100287D02*
X117298D01*
X114798Y97787D02*
Y102787D01*
X44682Y-184848D02*
X47222D01*
X45952Y-186118D02*
Y-183578D01*
X-115250Y126000D02*
X-110250D01*
X-112750Y123500D02*
Y128500D01*
X-115250Y139000D02*
X-110250D01*
X-112750Y136500D02*
Y141500D01*
X-118750Y51000D02*
X-113750D01*
X-116250Y48500D02*
Y53500D01*
X-118750Y63000D02*
X-113750D01*
X-116250Y60500D02*
Y65500D01*
X-118750Y76000D02*
X-113750D01*
X-116250Y73500D02*
Y78500D01*
M02*
