G04*
G04 #@! TF.GenerationSoftware,Altium Limited,Altium Designer,20.2.5 (213)*
G04*
G04 Layer_Color=8421504*
%FSLAX44Y44*%
%MOMM*%
G71*
G04*
G04 #@! TF.SameCoordinates,F2EF3DC7-CE59-478A-9F64-9A272EA7E262*
G04*
G04*
G04 #@! TF.FilePolarity,Positive*
G04*
G01*
G75*
%ADD20R,1.1000X1.3000*%
%ADD21R,1.4082X1.0065*%
%ADD22R,1.3000X1.1000*%
%ADD23R,1.2000X1.2000*%
%ADD24R,1.6000X2.2000*%
%ADD25R,1.6000X2.1800*%
%ADD26R,1.2000X1.2000*%
%ADD27R,1.5500X1.3500*%
%ADD28R,1.9100X1.3700*%
%ADD29R,0.6000X0.8000*%
%ADD30C,2.0000*%
%ADD31R,0.9000X0.9000*%
%ADD32R,0.9000X2.2500*%
%ADD33R,2.2500X0.9000*%
%ADD34R,1.4000X1.5000*%
%ADD35R,1.4500X1.0500*%
D20*
X533111Y-126075D02*
D03*
X512111D02*
D03*
X564024Y-34159D02*
D03*
X543024D02*
D03*
D21*
X-275711Y-199569D02*
D03*
Y-180552D02*
D03*
X-275483Y-137589D02*
D03*
Y-156606D02*
D03*
D22*
X-147798Y-266098D02*
D03*
Y-245098D02*
D03*
X664737Y116090D02*
D03*
Y137090D02*
D03*
X-610860Y-199494D02*
D03*
Y-178494D02*
D03*
X-666398Y113170D02*
D03*
Y134170D02*
D03*
X203904Y-141311D02*
D03*
Y-162311D02*
D03*
X55000Y-141311D02*
D03*
Y-162311D02*
D03*
X353202Y-141348D02*
D03*
Y-162348D02*
D03*
X601000Y-173518D02*
D03*
Y-194518D02*
D03*
X55000Y-217811D02*
D03*
Y-196811D02*
D03*
X353202Y-220598D02*
D03*
Y-199598D02*
D03*
X203904Y-222811D02*
D03*
Y-201811D02*
D03*
X204658Y-272811D02*
D03*
Y-251811D02*
D03*
X353202Y-271348D02*
D03*
Y-250348D02*
D03*
X-147798Y-202098D02*
D03*
Y-181098D02*
D03*
X55000Y-251811D02*
D03*
Y-272811D02*
D03*
D23*
X563976Y67801D02*
D03*
X542976D02*
D03*
X563976Y43801D02*
D03*
X542976D02*
D03*
X564976Y19801D02*
D03*
X543976D02*
D03*
X564976Y-3199D02*
D03*
X543976D02*
D03*
D24*
X-387500Y-150550D02*
D03*
X-348000Y-242511D02*
D03*
X-308500D02*
D03*
X-427250Y-150550D02*
D03*
D25*
X-387500Y-242450D02*
D03*
X-348000Y-150611D02*
D03*
X-308500D02*
D03*
X-427250Y-242450D02*
D03*
D26*
X-256711Y-199561D02*
D03*
Y-178561D02*
D03*
X-256483Y-158598D02*
D03*
Y-137598D02*
D03*
X-256860Y-228733D02*
D03*
Y-249733D02*
D03*
X-76000Y246000D02*
D03*
Y267000D02*
D03*
D27*
X-278570Y-248861D02*
D03*
Y-229361D02*
D03*
D28*
X-327998Y81530D02*
D03*
Y53110D02*
D03*
X-355711Y81530D02*
D03*
Y53110D02*
D03*
X-383425Y81530D02*
D03*
Y53110D02*
D03*
X-411138Y81530D02*
D03*
Y53110D02*
D03*
X-466565Y81530D02*
D03*
Y53110D02*
D03*
X-494279Y81530D02*
D03*
Y53110D02*
D03*
X-438852Y81530D02*
D03*
Y53110D02*
D03*
X-272571Y81530D02*
D03*
Y53110D02*
D03*
X-300284Y81530D02*
D03*
Y53110D02*
D03*
X-244858Y81530D02*
D03*
Y53110D02*
D03*
D29*
X19000Y-154500D02*
D03*
Y-129500D02*
D03*
D30*
X635202Y57963D02*
D03*
Y20963D02*
D03*
Y-12037D02*
D03*
D31*
X-1000Y89400D02*
D03*
X-15000D02*
D03*
X-29000D02*
D03*
X-1000Y61400D02*
D03*
X-15000D02*
D03*
X-29000D02*
D03*
X-1000Y75400D02*
D03*
X-29000D02*
D03*
X-15000D02*
D03*
D32*
X69850Y-29000D02*
D03*
X57150D02*
D03*
X44450D02*
D03*
X31750D02*
D03*
X19050D02*
D03*
X6350D02*
D03*
X-6350D02*
D03*
X-19050D02*
D03*
X-31750D02*
D03*
X-44450D02*
D03*
X-57150D02*
D03*
X-69850D02*
D03*
D33*
X91500Y152600D02*
D03*
Y-12500D02*
D03*
Y200D02*
D03*
Y12900D02*
D03*
Y25600D02*
D03*
Y38300D02*
D03*
Y51000D02*
D03*
Y63700D02*
D03*
Y76400D02*
D03*
Y89100D02*
D03*
Y101800D02*
D03*
Y114500D02*
D03*
Y127200D02*
D03*
Y139900D02*
D03*
X-91250Y114400D02*
D03*
Y101700D02*
D03*
Y89000D02*
D03*
Y76300D02*
D03*
Y63600D02*
D03*
Y50900D02*
D03*
Y38200D02*
D03*
Y25500D02*
D03*
Y12800D02*
D03*
Y100D02*
D03*
Y-12600D02*
D03*
Y127100D02*
D03*
Y139800D02*
D03*
Y152500D02*
D03*
D34*
X-473304Y-230878D02*
D03*
Y-165878D02*
D03*
D35*
X-98000Y263500D02*
D03*
Y245000D02*
D03*
M02*
