G04*
G04 #@! TF.GenerationSoftware,Altium Limited,Altium Designer,20.2.5 (213)*
G04*
G04 Layer_Color=32768*
%FSLAX44Y44*%
%MOMM*%
G71*
G04*
G04 #@! TF.SameCoordinates,F2EF3DC7-CE59-478A-9F64-9A272EA7E262*
G04*
G04*
G04 #@! TF.FilePolarity,Positive*
G04*
G01*
G75*
%ADD13C,0.1000*%
%ADD122C,0.0500*%
D13*
X-372500Y-193561D02*
X-362500D01*
X-367500Y-198561D02*
Y-188561D01*
X-422500Y-196561D02*
Y-186561D01*
X-427500Y-191561D02*
X-417500D01*
X550976Y67801D02*
X555976D01*
X553476Y65301D02*
Y70301D01*
X550976Y43801D02*
X555976D01*
X553476Y41301D02*
Y46301D01*
X551976Y19801D02*
X556976D01*
X554476Y17301D02*
Y22301D01*
X551976Y-3199D02*
X556976D01*
X554476Y-5699D02*
Y-699D01*
X591762Y-88413D02*
X601762D01*
X596762Y-93413D02*
Y-83413D01*
X621878Y125596D02*
X631878D01*
X626878Y120596D02*
Y130596D01*
X-166000Y120000D02*
X-156000D01*
X-161000Y115000D02*
Y125000D01*
X-184042Y119000D02*
Y129000D01*
X-189042Y124000D02*
X-179042D01*
X-387500Y-201500D02*
Y-191500D01*
X-392500Y-196500D02*
X-382500D01*
X-348000Y-201561D02*
Y-191561D01*
X-353000Y-196561D02*
X-343000D01*
X-308500Y-201561D02*
Y-191561D01*
X-313500Y-196561D02*
X-303500D01*
X-427250Y-201500D02*
Y-191500D01*
X-432250Y-196500D02*
X-422250D01*
X-259211Y-189061D02*
X-254211D01*
X-256711Y-191561D02*
Y-186561D01*
X-258983Y-148098D02*
X-253983D01*
X-256483Y-150598D02*
Y-145598D01*
X-278570Y-244111D02*
Y-234111D01*
X-283570Y-239111D02*
X-273570D01*
X-562000Y-192500D02*
Y-182500D01*
X-567000Y-187500D02*
X-557000D01*
X-633538Y125407D02*
X-623538D01*
X-628538Y120407D02*
Y130407D01*
X19000Y-143270D02*
Y-140730D01*
X17730Y-142000D02*
X20270D01*
X-225500Y115000D02*
Y125000D01*
X-230500Y120000D02*
X-220500D01*
X-98000Y249250D02*
Y259250D01*
X-103000Y254250D02*
X-93000D01*
X308298Y26287D02*
Y36287D01*
X303298Y31287D02*
X313298D01*
X75000Y-36000D02*
X85000D01*
X80000Y-41000D02*
Y-31000D01*
X558061Y-187500D02*
X568061D01*
X563061Y-192500D02*
Y-182500D01*
D122*
X-181697Y-232923D02*
X-157597D01*
X-181697Y-280023D02*
X-157597D01*
Y-232923D01*
X-181697Y-280023D02*
Y-232923D01*
X-209259D02*
X-185159D01*
X-209259Y-280023D02*
X-185159D01*
Y-232923D01*
X-209259Y-280023D02*
Y-232923D01*
X-435000Y-213061D02*
X-410000D01*
X-435000Y-170061D02*
X-410000D01*
Y-213061D02*
Y-170061D01*
X-435000Y-213061D02*
Y-170061D01*
X535976Y60801D02*
X570976D01*
Y74801D01*
X535976D02*
X570976D01*
X535976Y60801D02*
Y74801D01*
Y36801D02*
X570976D01*
Y50801D01*
X535976D02*
X570976D01*
X535976Y36801D02*
Y50801D01*
X536976Y12801D02*
X571976D01*
Y26801D01*
X536976D02*
X571976D01*
X536976Y12801D02*
Y26801D01*
Y-10199D02*
X571976D01*
Y3801D01*
X536976D02*
X571976D01*
X536976Y-10199D02*
Y3801D01*
X546262Y-111913D02*
X647262D01*
X546262D02*
Y-64914D01*
X647262Y-111913D02*
Y-64914D01*
X546262D02*
X647262D01*
X379470Y-10767D02*
Y-1807D01*
X365110Y-10767D02*
Y-1807D01*
Y-10767D02*
X379470D01*
X365110Y-1807D02*
X379470D01*
X406180Y-10767D02*
Y-1807D01*
X391820Y-10767D02*
Y-1807D01*
Y-10767D02*
X406180D01*
X391820Y-1807D02*
X406180D01*
X391820Y233D02*
Y9193D01*
X406180Y233D02*
Y9193D01*
X391820D02*
X406180D01*
X391820Y233D02*
X406180D01*
X430990Y-10767D02*
Y-1807D01*
X416630Y-10767D02*
Y-1807D01*
X430990D01*
X416630Y-10767D02*
X430990D01*
X416630Y233D02*
Y9193D01*
X430990Y233D02*
Y9193D01*
X416630Y233D02*
X430990D01*
X416630Y9193D02*
X430990D01*
X365110Y520D02*
Y9480D01*
X379470Y520D02*
Y9480D01*
X365110D02*
X379470D01*
X365110Y520D02*
X379470D01*
X603377Y85096D02*
X650378D01*
Y166096D01*
X603377D02*
X650378D01*
X603377Y85096D02*
Y166096D01*
X-173500Y98500D02*
Y141500D01*
X-148500Y98500D02*
Y141500D01*
X-173500D02*
X-148500D01*
X-173500Y98500D02*
X-148500D01*
X-192542Y110500D02*
X-175543D01*
X-192542Y137500D02*
X-175543D01*
Y110500D02*
Y137500D01*
X-192542Y110500D02*
Y137500D01*
X-369000Y-254350D02*
Y-138550D01*
X-406000Y-254350D02*
X-369000D01*
X-406000Y-138550D02*
X-369000D01*
X-406000Y-254350D02*
Y-138550D01*
X-366500Y-254511D02*
Y-138711D01*
X-329500D01*
X-366500Y-254511D02*
X-329500D01*
Y-138711D01*
X-327000Y-254511D02*
Y-138711D01*
X-290000D01*
X-327000Y-254511D02*
X-290000D01*
Y-138711D01*
X-408750Y-254350D02*
Y-138550D01*
X-445750Y-254350D02*
X-408750D01*
X-445750Y-138550D02*
X-408750D01*
X-445750Y-254350D02*
Y-138550D01*
X-263711Y-206561D02*
X-249711D01*
X-263711D02*
Y-171561D01*
X-249711D01*
Y-206561D02*
Y-171561D01*
X-263483Y-165598D02*
X-249483D01*
X-263483D02*
Y-130598D01*
X-249483D01*
Y-165598D02*
Y-130598D01*
X-273050Y-194511D02*
X-225950D01*
X-273050Y-218611D02*
X-225950D01*
X-273050D02*
Y-194511D01*
X-225950Y-218611D02*
Y-194511D01*
X-273050Y-219511D02*
X-225950D01*
X-273050Y-243611D02*
X-225950D01*
X-273050D02*
Y-219511D01*
X-225950Y-243611D02*
Y-219511D01*
X-273050Y-269611D02*
X-225950D01*
X-273050Y-245511D02*
X-225950D01*
Y-269611D02*
Y-245511D01*
X-273050Y-269611D02*
Y-245511D01*
X-291570Y-260611D02*
X-265570D01*
X-291570Y-217611D02*
X-265570D01*
X-291570Y-260611D02*
Y-217611D01*
X-265570Y-260611D02*
Y-217611D01*
X-257550Y-107950D02*
X-210450D01*
X-257550Y-132050D02*
X-210450D01*
X-257550D02*
Y-107950D01*
X-210450Y-132050D02*
Y-107950D01*
X-340048Y90870D02*
X-315948D01*
X-340048Y43770D02*
X-315948D01*
Y90870D01*
X-340048Y43770D02*
Y90870D01*
X-367761D02*
X-343661D01*
X-367761Y43770D02*
X-343661D01*
Y90870D01*
X-367761Y43770D02*
Y90870D01*
X-395475D02*
X-371375D01*
X-395475Y43770D02*
X-371375D01*
Y90870D01*
X-395475Y43770D02*
Y90870D01*
X-423188D02*
X-399088D01*
X-423188Y43770D02*
X-399088D01*
Y90870D01*
X-423188Y43770D02*
Y90870D01*
X-478615D02*
X-454515D01*
X-478615Y43770D02*
X-454515D01*
Y90870D01*
X-478615Y43770D02*
Y90870D01*
X-506329D02*
X-482229D01*
X-506329Y43770D02*
X-482229D01*
Y90870D01*
X-506329Y43770D02*
Y90870D01*
X-450902D02*
X-426802D01*
X-450902Y43770D02*
X-426802D01*
Y90870D01*
X-450902Y43770D02*
Y90870D01*
X-284621D02*
X-260521D01*
X-284621Y43770D02*
X-260521D01*
Y90870D01*
X-284621Y43770D02*
Y90870D01*
X-312334D02*
X-288234D01*
X-312334Y43770D02*
X-288234D01*
Y90870D01*
X-312334Y43770D02*
Y90870D01*
X-256908D02*
X-232808D01*
X-256908Y43770D02*
X-232808D01*
Y90870D01*
X-256908Y43770D02*
Y90870D01*
X-585500Y-228000D02*
Y-147000D01*
X-538500D01*
Y-228000D02*
Y-147000D01*
X-585500Y-228000D02*
X-538500D01*
X-652038Y165907D02*
X-605038D01*
X-652038Y84907D02*
Y165907D01*
Y84907D02*
X-605038D01*
Y165907D01*
X-97500Y-35000D02*
X97500D01*
Y230000D01*
X-97500D02*
X97500D01*
X-97500Y-35000D02*
Y230000D01*
X-463804Y-165878D02*
X-451804D01*
X-463804D02*
Y-155878D01*
X-482804D02*
X-463804D01*
X-482804Y-165878D02*
Y-155878D01*
X-494804Y-165878D02*
X-482804D01*
X-494804Y-230878D02*
Y-165878D01*
Y-230878D02*
X-482804D01*
Y-240878D02*
Y-230878D01*
Y-240878D02*
X-463804D01*
Y-230878D01*
X-451804D01*
Y-165878D01*
X183740Y-146361D02*
Y-122261D01*
X230840Y-146361D02*
Y-122261D01*
X183740D02*
X230840D01*
X183740Y-146361D02*
X230840D01*
X34450D02*
Y-122261D01*
X81550Y-146361D02*
Y-122261D01*
X34450D02*
X81550D01*
X34450Y-146361D02*
X81550D01*
X331450D02*
Y-122261D01*
X378550Y-146361D02*
Y-122261D01*
X331450D02*
X378550D01*
X331450Y-146361D02*
X378550D01*
X183740Y-173361D02*
Y-149261D01*
X230840Y-173361D02*
Y-149261D01*
X183740D02*
X230840D01*
X183740Y-173361D02*
X230840D01*
X34824Y-173735D02*
Y-149635D01*
X81924Y-173735D02*
Y-149635D01*
X34824D02*
X81924D01*
X34824Y-173735D02*
X81924D01*
X331450Y-173361D02*
Y-149261D01*
X378550Y-173361D02*
Y-149261D01*
X331450D02*
X378550D01*
X331450Y-173361D02*
X378550D01*
X-181697Y-166793D02*
X-157597D01*
X-181697Y-213893D02*
X-157597D01*
Y-166793D01*
X-181697Y-213893D02*
Y-166793D01*
X-209259D02*
X-185159D01*
X-209259Y-213893D02*
X-185159D01*
Y-166793D01*
X-209259Y-213893D02*
Y-166793D01*
X-501665Y-154156D02*
X-477565D01*
X-501665Y-107056D02*
X-477565D01*
X-501665Y-154156D02*
Y-107056D01*
X-477565Y-154156D02*
Y-107056D01*
X-532050Y-154425D02*
X-507950D01*
X-532050Y-107325D02*
X-507950D01*
X-532050Y-154425D02*
Y-107325D01*
X-507950Y-154425D02*
Y-107325D01*
X11750Y-124500D02*
X26250D01*
Y-159500D02*
Y-124500D01*
X11750Y-159500D02*
X26250D01*
X11750D02*
Y-124500D01*
X-238000Y141500D02*
X-213000D01*
X-238000Y98500D02*
X-213000D01*
X-238000D02*
Y141500D01*
X-213000Y98500D02*
Y141500D01*
X-108000Y271250D02*
X-88000D01*
X-108000Y237250D02*
X-88000D01*
Y271250D01*
X-108000Y237250D02*
Y271250D01*
X254798Y75287D02*
X361797D01*
X254798Y-12713D02*
X361797D01*
X254798D02*
Y75287D01*
X361797Y-12713D02*
Y75287D01*
X48500Y-54000D02*
Y-18000D01*
X111500Y-54000D02*
Y-18000D01*
X48500Y-54000D02*
X111500D01*
X48500Y-18000D02*
X111500D01*
X539562Y-228000D02*
X586562D01*
Y-147000D01*
X539562D02*
X586562D01*
X539562Y-228000D02*
Y-147000D01*
M02*
