G04*
G04 #@! TF.GenerationSoftware,Altium Limited,Altium Designer,20.2.5 (213)*
G04*
G04 Layer_Physical_Order=1*
G04 Layer_Color=255*
%FSLAX44Y44*%
%MOMM*%
G71*
G04*
G04 #@! TF.SameCoordinates,F2EF3DC7-CE59-478A-9F64-9A272EA7E262*
G04*
G04*
G04 #@! TF.FilePolarity,Positive*
G04*
G01*
G75*
%ADD14C,0.2540*%
%ADD20R,1.1000X1.3000*%
%ADD21R,1.4082X1.0065*%
%ADD22R,1.3000X1.1000*%
%ADD23R,1.2000X1.2000*%
%ADD24R,1.6000X2.2000*%
%ADD25R,1.6000X2.1800*%
%ADD26R,1.2000X1.2000*%
%ADD27R,1.5500X1.3500*%
%ADD28R,1.9100X1.3700*%
%ADD29R,0.6000X0.8000*%
%ADD30C,2.0000*%
%ADD31R,0.9000X0.9000*%
%ADD32R,0.9000X2.2500*%
%ADD33R,2.2500X0.9000*%
%ADD34R,1.4000X1.5000*%
%ADD35R,1.4500X1.0500*%
%ADD53C,1.4000*%
%ADD54R,1.4000X1.4000*%
%ADD57C,1.2000*%
%ADD65C,1.1500*%
%ADD66R,1.1500X1.1500*%
%ADD71C,3.0000*%
%ADD72C,0.7620*%
%ADD73C,2.7000*%
%ADD74C,1.5240*%
%ADD75C,4.8000*%
%ADD76C,1.5000*%
%ADD77R,1.5000X1.5000*%
%ADD78C,1.2080*%
%ADD79C,1.3000*%
%ADD80R,1.3000X1.3000*%
%ADD81C,0.4000*%
%ADD82R,1.5000X1.5000*%
%ADD83C,0.7500*%
%ADD84C,0.7000*%
%ADD85C,3.0000*%
G36*
X502000Y236287D02*
X679066D01*
Y-238183D01*
X502000D01*
Y-291000D01*
X-502000D01*
Y-236963D01*
X-679066D01*
X-679066Y-236963D01*
Y236287D01*
X-502000D01*
Y295287D01*
X502000D01*
Y236287D01*
D02*
G37*
%LPC*%
G36*
X-67460Y275540D02*
X-84540D01*
Y273474D01*
X-92500D01*
X-94978Y272982D01*
X-97078Y271578D01*
X-97366Y271290D01*
X-107790D01*
Y256474D01*
X-114960D01*
Y260040D01*
X-135040D01*
Y239960D01*
X-114960D01*
Y243526D01*
X-107790D01*
Y237210D01*
X-88210D01*
Y252790D01*
X-98634D01*
X-100284Y254440D01*
X-100099Y255644D01*
X-100079Y255710D01*
X-88210D01*
Y260526D01*
X-84540D01*
Y258460D01*
X-67460D01*
Y275540D01*
D02*
G37*
G36*
X25020Y280905D02*
X21876Y280595D01*
X18852Y279678D01*
X16066Y278189D01*
X13623Y276184D01*
X11619Y273742D01*
X10129Y270955D01*
X9212Y267932D01*
X8903Y264787D01*
X9212Y261643D01*
X10129Y258619D01*
X11619Y255833D01*
X13623Y253390D01*
X16066Y251386D01*
X18852Y249897D01*
X21876Y248979D01*
X25020Y248670D01*
X28165Y248979D01*
X31188Y249897D01*
X33975Y251386D01*
X36417Y253390D01*
X38421Y255833D01*
X39911Y258619D01*
X40828Y261643D01*
X41138Y264787D01*
X40828Y267932D01*
X39911Y270955D01*
X38421Y273742D01*
X36417Y276184D01*
X33975Y278189D01*
X31188Y279678D01*
X28165Y280595D01*
X25020Y280905D01*
D02*
G37*
G36*
X250000Y278618D02*
X246856Y278308D01*
X243832Y277391D01*
X241045Y275901D01*
X238603Y273897D01*
X236599Y271455D01*
X235109Y268668D01*
X234192Y265644D01*
X233882Y262500D01*
X234192Y259356D01*
X235109Y256332D01*
X236599Y253545D01*
X238603Y251103D01*
X241045Y249099D01*
X243832Y247609D01*
X246856Y246692D01*
X250000Y246382D01*
X253144Y246692D01*
X256168Y247609D01*
X258955Y249099D01*
X261397Y251103D01*
X263401Y253545D01*
X264891Y256332D01*
X265808Y259356D01*
X266118Y262500D01*
X265808Y265644D01*
X264891Y268668D01*
X263401Y271455D01*
X261397Y273897D01*
X258955Y275901D01*
X256168Y277391D01*
X253144Y278308D01*
X250000Y278618D01*
D02*
G37*
G36*
X200000D02*
X196856Y278308D01*
X193832Y277391D01*
X191045Y275901D01*
X188603Y273897D01*
X186599Y271455D01*
X185109Y268668D01*
X184192Y265644D01*
X183882Y262500D01*
X184192Y259356D01*
X185109Y256332D01*
X186599Y253545D01*
X188603Y251103D01*
X191045Y249099D01*
X193832Y247609D01*
X196856Y246692D01*
X200000Y246382D01*
X203144Y246692D01*
X206168Y247609D01*
X208955Y249099D01*
X211397Y251103D01*
X213401Y253545D01*
X214891Y256332D01*
X215808Y259356D01*
X216118Y262500D01*
X215808Y265644D01*
X214891Y268668D01*
X213401Y271455D01*
X211397Y273897D01*
X208955Y275901D01*
X206168Y277391D01*
X203144Y278308D01*
X200000Y278618D01*
D02*
G37*
G36*
X-200000D02*
X-203144Y278308D01*
X-206168Y277391D01*
X-208955Y275901D01*
X-211397Y273897D01*
X-213401Y271455D01*
X-214891Y268668D01*
X-215808Y265644D01*
X-216118Y262500D01*
X-215808Y259356D01*
X-214891Y256332D01*
X-213401Y253545D01*
X-211397Y251103D01*
X-208955Y249099D01*
X-206168Y247609D01*
X-203144Y246692D01*
X-200000Y246382D01*
X-196856Y246692D01*
X-193832Y247609D01*
X-191045Y249099D01*
X-188603Y251103D01*
X-186599Y253545D01*
X-185109Y256332D01*
X-184192Y259356D01*
X-183882Y262500D01*
X-184192Y265644D01*
X-185109Y268668D01*
X-186599Y271455D01*
X-188603Y273897D01*
X-191045Y275901D01*
X-193832Y277391D01*
X-196856Y278308D01*
X-200000Y278618D01*
D02*
G37*
G36*
X-250000D02*
X-253144Y278308D01*
X-256168Y277391D01*
X-258955Y275901D01*
X-261397Y273897D01*
X-263401Y271455D01*
X-264891Y268668D01*
X-265808Y265644D01*
X-266118Y262500D01*
X-265808Y259356D01*
X-264891Y256332D01*
X-263401Y253545D01*
X-261397Y251103D01*
X-258955Y249099D01*
X-256168Y247609D01*
X-253144Y246692D01*
X-250000Y246382D01*
X-246856Y246692D01*
X-243832Y247609D01*
X-241045Y249099D01*
X-238603Y251103D01*
X-236599Y253545D01*
X-235109Y256332D01*
X-234192Y259356D01*
X-233882Y262500D01*
X-234192Y265644D01*
X-235109Y268668D01*
X-236599Y271455D01*
X-238603Y273897D01*
X-241045Y275901D01*
X-243832Y277391D01*
X-246856Y278308D01*
X-250000Y278618D01*
D02*
G37*
G36*
X25020Y231912D02*
X23314Y231744D01*
X22056Y231623D01*
X-163260D01*
X-163283Y231625D01*
X-336750D01*
X-340188Y231286D01*
X-343495Y230283D01*
X-346542Y228654D01*
X-349213Y226463D01*
X-351404Y223792D01*
X-353033Y220745D01*
X-354036Y217439D01*
X-354375Y214000D01*
X-354036Y210562D01*
X-353033Y207255D01*
X-351404Y204208D01*
X-349213Y201537D01*
X-346542Y199345D01*
X-343495Y197717D01*
X-340188Y196714D01*
X-336750Y196375D01*
X-304412D01*
X-303981Y195105D01*
X-304726Y194534D01*
X-306355Y192411D01*
X-307378Y189939D01*
X-307728Y187287D01*
X-307378Y184635D01*
X-306355Y182163D01*
X-304726Y180041D01*
X-302604Y178412D01*
X-300132Y177389D01*
X-297480Y177040D01*
X-294828Y177389D01*
X-292356Y178412D01*
X-290234Y180041D01*
X-288605Y182163D01*
X-287581Y184635D01*
X-287232Y187287D01*
X-287581Y189939D01*
X-288605Y192411D01*
X-290234Y194534D01*
X-290979Y195105D01*
X-290548Y196375D01*
X-279012D01*
X-278581Y195105D01*
X-279326Y194534D01*
X-280955Y192411D01*
X-281978Y189939D01*
X-282328Y187287D01*
X-281978Y184635D01*
X-280955Y182163D01*
X-279326Y180041D01*
X-277204Y178412D01*
X-274732Y177389D01*
X-272080Y177040D01*
X-269428Y177389D01*
X-266956Y178412D01*
X-264834Y180041D01*
X-263205Y182163D01*
X-262181Y184635D01*
X-261832Y187287D01*
X-262181Y189939D01*
X-263205Y192411D01*
X-264834Y194534D01*
X-265579Y195105D01*
X-265148Y196375D01*
X-253352D01*
X-252920Y195105D01*
X-253926Y194333D01*
X-255555Y192211D01*
X-256578Y189739D01*
X-256928Y187087D01*
X-256578Y184435D01*
X-255555Y181963D01*
X-253926Y179841D01*
X-251804Y178213D01*
X-249332Y177189D01*
X-246680Y176840D01*
X-244028Y177189D01*
X-241556Y178213D01*
X-239434Y179841D01*
X-237805Y181963D01*
X-236781Y184435D01*
X-236432Y187087D01*
X-236781Y189739D01*
X-237805Y192211D01*
X-239434Y194333D01*
X-240439Y195105D01*
X-240008Y196375D01*
X-228212D01*
X-227781Y195105D01*
X-228526Y194534D01*
X-230155Y192411D01*
X-231178Y189939D01*
X-231528Y187287D01*
X-231178Y184635D01*
X-230155Y182163D01*
X-228526Y180041D01*
X-226404Y178412D01*
X-223932Y177389D01*
X-221280Y177040D01*
X-218628Y177389D01*
X-216156Y178412D01*
X-214034Y180041D01*
X-212405Y182163D01*
X-211381Y184635D01*
X-211032Y187287D01*
X-211381Y189939D01*
X-212405Y192411D01*
X-214034Y194534D01*
X-214779Y195105D01*
X-214348Y196375D01*
X-202812D01*
X-202381Y195105D01*
X-203126Y194534D01*
X-204755Y192411D01*
X-205778Y189939D01*
X-206128Y187287D01*
X-205778Y184635D01*
X-204755Y182163D01*
X-203126Y180041D01*
X-201004Y178412D01*
X-198532Y177389D01*
X-195880Y177040D01*
X-193228Y177389D01*
X-190756Y178412D01*
X-188634Y180041D01*
X-187005Y182163D01*
X-185981Y184635D01*
X-185632Y187287D01*
X-185981Y189939D01*
X-187005Y192411D01*
X-188634Y194534D01*
X-189379Y195105D01*
X-188948Y196375D01*
X-177412D01*
X-176981Y195105D01*
X-177726Y194534D01*
X-179355Y192411D01*
X-180378Y189939D01*
X-180728Y187287D01*
X-180378Y184635D01*
X-179355Y182163D01*
X-177726Y180041D01*
X-175604Y178412D01*
X-173132Y177389D01*
X-170480Y177040D01*
X-167828Y177389D01*
X-165356Y178412D01*
X-163234Y180041D01*
X-161605Y182163D01*
X-160581Y184635D01*
X-160232Y187287D01*
X-160581Y189939D01*
X-161605Y192411D01*
X-163234Y194534D01*
X-163979Y195105D01*
X-163548Y196375D01*
X-163304D01*
X-163281Y196373D01*
X24731D01*
X27617Y196657D01*
X113444Y196488D01*
X113874Y195217D01*
X112463Y194133D01*
X110834Y192011D01*
X109810Y189540D01*
X109461Y186887D01*
X109810Y184235D01*
X110834Y181763D01*
X112463Y179641D01*
X114585Y178012D01*
X117057Y176989D01*
X119709Y176639D01*
X122361Y176989D01*
X124833Y178012D01*
X126955Y179641D01*
X128584Y181763D01*
X129607Y184235D01*
X129957Y186887D01*
X129607Y189540D01*
X128584Y192011D01*
X126955Y194133D01*
X125574Y195194D01*
X126006Y196463D01*
X138779Y196437D01*
X139209Y195167D01*
X137863Y194133D01*
X136234Y192011D01*
X135210Y189540D01*
X134861Y186887D01*
X135210Y184235D01*
X136234Y181763D01*
X137863Y179641D01*
X139985Y178012D01*
X142457Y176989D01*
X145109Y176639D01*
X147761Y176989D01*
X150233Y178012D01*
X152355Y179641D01*
X153984Y181763D01*
X155007Y184235D01*
X155357Y186887D01*
X155007Y189540D01*
X153984Y192011D01*
X152355Y194133D01*
X151039Y195143D01*
X151471Y196412D01*
X164374Y196387D01*
X164804Y195116D01*
X163263Y193933D01*
X161634Y191811D01*
X160610Y189340D01*
X160261Y186687D01*
X160610Y184035D01*
X161634Y181563D01*
X163263Y179441D01*
X165385Y177812D01*
X167857Y176789D01*
X170509Y176439D01*
X173161Y176789D01*
X175633Y177812D01*
X177755Y179441D01*
X179384Y181563D01*
X180407Y184035D01*
X180756Y186687D01*
X180407Y189340D01*
X179384Y191811D01*
X177755Y193933D01*
X176243Y195093D01*
X176676Y196362D01*
X189449Y196337D01*
X189879Y195066D01*
X188663Y194133D01*
X187034Y192011D01*
X186010Y189540D01*
X185661Y186887D01*
X186010Y184235D01*
X187034Y181763D01*
X188663Y179641D01*
X190785Y178012D01*
X193256Y176989D01*
X195909Y176639D01*
X198561Y176989D01*
X201033Y178012D01*
X203155Y179641D01*
X204784Y181763D01*
X205807Y184235D01*
X206157Y186887D01*
X205807Y189540D01*
X204784Y192011D01*
X203155Y194133D01*
X201970Y195042D01*
X202402Y196312D01*
X214783Y196287D01*
X215213Y195016D01*
X214063Y194133D01*
X212434Y192011D01*
X211410Y189540D01*
X211061Y186887D01*
X211410Y184235D01*
X212434Y181763D01*
X214063Y179641D01*
X216185Y178012D01*
X218657Y176989D01*
X221309Y176639D01*
X223961Y176989D01*
X226433Y178012D01*
X228555Y179641D01*
X230184Y181763D01*
X231207Y184235D01*
X231556Y186887D01*
X231207Y189540D01*
X230184Y192011D01*
X228555Y194133D01*
X227436Y194992D01*
X227868Y196261D01*
X240118Y196237D01*
X240548Y194966D01*
X239463Y194133D01*
X237834Y192011D01*
X236810Y189540D01*
X236461Y186887D01*
X236810Y184235D01*
X237834Y181763D01*
X239463Y179641D01*
X241585Y178012D01*
X244056Y176989D01*
X246709Y176639D01*
X249361Y176989D01*
X251833Y178012D01*
X253955Y179641D01*
X255584Y181763D01*
X256607Y184235D01*
X256957Y186887D01*
X256607Y189540D01*
X255584Y192011D01*
X253955Y194133D01*
X252901Y194942D01*
X253334Y196211D01*
X297553Y196124D01*
X328191Y196063D01*
X328621Y194792D01*
X327763Y194133D01*
X326134Y192011D01*
X325110Y189540D01*
X324761Y186887D01*
X325110Y184235D01*
X326134Y181763D01*
X327763Y179641D01*
X329885Y178012D01*
X332356Y176989D01*
X335009Y176639D01*
X337661Y176989D01*
X340133Y178012D01*
X342255Y179641D01*
X343884Y181763D01*
X344907Y184235D01*
X345257Y186887D01*
X344907Y189540D01*
X343884Y192011D01*
X342255Y194133D01*
X341429Y194767D01*
X341862Y196036D01*
X353526Y196013D01*
X353956Y194742D01*
X353163Y194133D01*
X351534Y192011D01*
X350510Y189540D01*
X350161Y186887D01*
X350510Y184235D01*
X351534Y181763D01*
X353163Y179641D01*
X355285Y178012D01*
X357757Y176989D01*
X360409Y176639D01*
X363061Y176989D01*
X365533Y178012D01*
X367655Y179641D01*
X369284Y181763D01*
X370307Y184235D01*
X370657Y186887D01*
X370307Y189540D01*
X369284Y192011D01*
X367655Y194133D01*
X366895Y194717D01*
X367327Y195986D01*
X379121Y195962D01*
X379551Y194692D01*
X378563Y193933D01*
X376934Y191811D01*
X375910Y189340D01*
X375561Y186687D01*
X375910Y184035D01*
X376934Y181563D01*
X378563Y179441D01*
X380685Y177812D01*
X383157Y176789D01*
X385809Y176439D01*
X388461Y176789D01*
X390933Y177812D01*
X393055Y179441D01*
X394684Y181563D01*
X395707Y184035D01*
X396057Y186687D01*
X395707Y189340D01*
X394684Y191811D01*
X393055Y193933D01*
X392099Y194667D01*
X392532Y195936D01*
X404195Y195913D01*
X404625Y194642D01*
X403963Y194133D01*
X402334Y192011D01*
X401310Y189540D01*
X400961Y186887D01*
X401310Y184235D01*
X402334Y181763D01*
X403963Y179641D01*
X406085Y178012D01*
X408557Y176989D01*
X411209Y176639D01*
X413861Y176989D01*
X416333Y178012D01*
X418455Y179641D01*
X420084Y181763D01*
X421107Y184235D01*
X421456Y186887D01*
X421174Y189032D01*
X422320Y189786D01*
X423984Y188645D01*
X423765Y186422D01*
X424104Y182983D01*
X425107Y179677D01*
X426736Y176630D01*
X428927Y173959D01*
X431598Y171767D01*
X434645Y170138D01*
X437952Y169135D01*
X441390Y168797D01*
X446526D01*
Y132080D01*
X447018Y129602D01*
X447585Y128755D01*
X446986Y127634D01*
X441140D01*
X409197Y159578D01*
X407096Y160982D01*
X404618Y161474D01*
X124682D01*
X114747Y171409D01*
X112647Y172812D01*
X110169Y173305D01*
X-127169D01*
X-129647Y172812D01*
X-131747Y171409D01*
X-171275Y131882D01*
X-616626D01*
X-618479Y133304D01*
X-620678Y134214D01*
X-623038Y134525D01*
X-625398Y134214D01*
X-627597Y133304D01*
X-629485Y131855D01*
X-630254Y130852D01*
X-640170D01*
X-642648Y130359D01*
X-644748Y128956D01*
X-649212Y124492D01*
X-650616Y122392D01*
X-651108Y119914D01*
Y85907D01*
Y-139366D01*
X-650616Y-141844D01*
X-649212Y-143944D01*
X-639578Y-153578D01*
X-637478Y-154982D01*
X-635000Y-155474D01*
X-607226D01*
X-594474Y-168226D01*
Y-180826D01*
X-593982Y-183304D01*
X-592578Y-185405D01*
X-586934Y-191049D01*
X-584833Y-192452D01*
X-582356Y-192945D01*
X-574716D01*
X-573947Y-193947D01*
X-572059Y-195396D01*
X-569860Y-196307D01*
X-567500Y-196618D01*
X-565140Y-196307D01*
X-562941Y-195396D01*
X-561088Y-193974D01*
X-524589D01*
X-485985Y-232578D01*
X-483884Y-233982D01*
X-482844Y-234189D01*
Y-240918D01*
X-463764D01*
Y-233505D01*
X-462386Y-233231D01*
X-460286Y-231827D01*
X-458531Y-230072D01*
X-366595D01*
X-358540Y-238127D01*
Y-256051D01*
X-354474D01*
Y-261000D01*
X-353982Y-263478D01*
X-352578Y-265578D01*
X-350456Y-267701D01*
X-349625Y-268256D01*
X-350010Y-269526D01*
X-438818D01*
X-442922Y-265422D01*
X-445022Y-264018D01*
X-447500Y-263526D01*
X-449978Y-264018D01*
X-452078Y-265422D01*
X-453482Y-267522D01*
X-453974Y-270000D01*
X-453482Y-272478D01*
X-452078Y-274578D01*
X-446078Y-280578D01*
X-443978Y-281982D01*
X-441500Y-282474D01*
X-160794D01*
X-159690Y-283578D01*
X-157590Y-284982D01*
X-155112Y-285474D01*
X23000D01*
X25478Y-284982D01*
X27578Y-283578D01*
X31272Y-279884D01*
X32576Y-280376D01*
X32966Y-282337D01*
X34369Y-284437D01*
X36470Y-285841D01*
X38948Y-286334D01*
X41425Y-285841D01*
X43526Y-284437D01*
X46988Y-280975D01*
X53310D01*
X53935Y-280851D01*
X64040D01*
Y-264771D01*
X45960D01*
Y-268026D01*
X44306D01*
X43327Y-268221D01*
X42248Y-267141D01*
X42474Y-266000D01*
Y-252394D01*
Y-245682D01*
X48682Y-239474D01*
X63318D01*
X69026Y-245182D01*
Y-269009D01*
X69518Y-271487D01*
X70922Y-273587D01*
X78833Y-281499D01*
X80934Y-282902D01*
X83411Y-283395D01*
X155732D01*
X158209Y-282902D01*
X160310Y-281499D01*
X169458Y-272351D01*
X177382D01*
Y-264427D01*
X198334Y-243474D01*
X213318D01*
X217526Y-247682D01*
Y-269146D01*
X218018Y-271624D01*
X219422Y-273724D01*
X227196Y-281499D01*
X229297Y-282902D01*
X231774Y-283395D01*
X305390D01*
X307868Y-282902D01*
X309968Y-281499D01*
X319116Y-272351D01*
X327040D01*
Y-269117D01*
X327650Y-268827D01*
X328553Y-269366D01*
X328838Y-269669D01*
X329301Y-271995D01*
X330704Y-274096D01*
X330844Y-274236D01*
X332945Y-275639D01*
X335422Y-276132D01*
X344162D01*
Y-279388D01*
X362242D01*
Y-263308D01*
X352775D01*
X352150Y-263183D01*
X337426D01*
X336900Y-261913D01*
X337078Y-261735D01*
X338482Y-259635D01*
X338974Y-257157D01*
Y-248182D01*
X342951Y-244205D01*
X363660D01*
X367257Y-247803D01*
Y-269241D01*
X367750Y-271719D01*
X369154Y-273819D01*
X376833Y-281499D01*
X378934Y-282902D01*
X381411Y-283395D01*
X453732D01*
X456209Y-282902D01*
X458310Y-281499D01*
X467458Y-272351D01*
X475382D01*
Y-264064D01*
X475415Y-263811D01*
X475382Y-263557D01*
Y-255271D01*
X467095D01*
X466842Y-255237D01*
X466588Y-255271D01*
X458302D01*
Y-263195D01*
X451050Y-270446D01*
X434115D01*
X433489Y-269176D01*
X434301Y-268118D01*
X435162Y-266040D01*
X435455Y-263811D01*
X435162Y-261581D01*
X434301Y-259504D01*
X432933Y-257720D01*
X431149Y-256351D01*
X429071Y-255490D01*
X426842Y-255197D01*
X424612Y-255490D01*
X422535Y-256351D01*
X420751Y-257720D01*
X419382Y-259504D01*
X418521Y-261581D01*
X418228Y-263811D01*
X418521Y-266040D01*
X419382Y-268118D01*
X420195Y-269176D01*
X419568Y-270446D01*
X414115D01*
X413489Y-269176D01*
X414301Y-268118D01*
X415162Y-266040D01*
X415455Y-263811D01*
X415162Y-261581D01*
X414301Y-259504D01*
X412933Y-257720D01*
X411149Y-256351D01*
X409071Y-255490D01*
X406842Y-255197D01*
X404612Y-255490D01*
X402535Y-256351D01*
X400751Y-257720D01*
X399382Y-259504D01*
X398521Y-261581D01*
X398228Y-263811D01*
X398521Y-266040D01*
X399382Y-268118D01*
X400194Y-269176D01*
X399568Y-270446D01*
X394115D01*
X393489Y-269176D01*
X394301Y-268118D01*
X395162Y-266040D01*
X395455Y-263811D01*
X395162Y-261581D01*
X394301Y-259504D01*
X392933Y-257720D01*
X391148Y-256351D01*
X390726Y-256176D01*
Y-229601D01*
X390431Y-228114D01*
X389589Y-226854D01*
X386389Y-223654D01*
X386844Y-222313D01*
X388229Y-222131D01*
X390307Y-221270D01*
X392091Y-219902D01*
X393460Y-218118D01*
X394320Y-216040D01*
X394614Y-213811D01*
X394320Y-211581D01*
X393890Y-210542D01*
X399247Y-205185D01*
X400089Y-203925D01*
X400385Y-202438D01*
Y-175647D01*
X400608Y-175220D01*
X401494Y-174474D01*
X455318D01*
X472422Y-191578D01*
X474522Y-192982D01*
X477000Y-193474D01*
X550751D01*
X551114Y-193948D01*
X553003Y-195396D01*
X555202Y-196307D01*
X557561Y-196618D01*
X559921Y-196307D01*
X562121Y-195396D01*
X564009Y-193948D01*
X565458Y-192059D01*
X566369Y-189860D01*
X566679Y-187500D01*
X566369Y-185140D01*
X565458Y-182941D01*
X564009Y-181053D01*
X562121Y-179604D01*
X559921Y-178693D01*
X557561Y-178382D01*
X555202Y-178693D01*
X553003Y-179604D01*
X551801Y-180526D01*
X479682D01*
X462578Y-163422D01*
X462000Y-163035D01*
X462385Y-161765D01*
X483614D01*
X485101Y-161470D01*
X486361Y-160627D01*
X502346Y-144643D01*
X503188Y-143383D01*
X503483Y-141896D01*
Y-136142D01*
X504071Y-135115D01*
X504753Y-135115D01*
X507327D01*
Y-142801D01*
X507487Y-143607D01*
X507435Y-144000D01*
X507693Y-145958D01*
X508449Y-147782D01*
X509651Y-149349D01*
X511218Y-150551D01*
X513042Y-151307D01*
X515000Y-151565D01*
X516958Y-151307D01*
X518782Y-150551D01*
X520349Y-149349D01*
X521551Y-147782D01*
X522307Y-145958D01*
X522565Y-144000D01*
X522307Y-142042D01*
X521551Y-140218D01*
X520349Y-138651D01*
X520276Y-138595D01*
Y-127765D01*
X520151Y-127140D01*
Y-117035D01*
X504753D01*
X504071Y-117035D01*
X503483Y-116009D01*
Y-99136D01*
X504753Y-98705D01*
X505563Y-99759D01*
X507685Y-101388D01*
X510157Y-102411D01*
X512809Y-102760D01*
X515461Y-102411D01*
X517933Y-101388D01*
X520055Y-99759D01*
X521684Y-97637D01*
X522707Y-95165D01*
X523056Y-92513D01*
X522707Y-89860D01*
X521684Y-87389D01*
X520055Y-85267D01*
X517933Y-83638D01*
X515461Y-82614D01*
X512809Y-82265D01*
X510157Y-82614D01*
X507685Y-83638D01*
X505563Y-85267D01*
X504753Y-86321D01*
X503483Y-85890D01*
Y-26350D01*
X503188Y-24863D01*
X502346Y-23603D01*
X426996Y51747D01*
X425736Y52589D01*
X424249Y52885D01*
X351215D01*
X350790Y53520D01*
X348716Y54906D01*
X348135Y55022D01*
X341410Y61747D01*
X340150Y62589D01*
X338663Y62885D01*
X199698D01*
X199273Y63520D01*
X197199Y64906D01*
X194753Y65393D01*
X192306Y64906D01*
X190232Y63520D01*
X189384Y62251D01*
X188629Y61747D01*
X164550Y37668D01*
X162696Y38906D01*
X160250Y39393D01*
X157804Y38906D01*
X155730Y37520D01*
X155527Y37218D01*
X154179Y37486D01*
X153982Y38478D01*
X152578Y40578D01*
X137578Y55578D01*
X135478Y56982D01*
X133000Y57474D01*
X121955D01*
X121439Y58744D01*
X122105Y60352D01*
X122362Y62310D01*
X122105Y64268D01*
X121349Y66092D01*
X120147Y67659D01*
X119489Y68164D01*
Y69434D01*
X120147Y69938D01*
X121349Y71505D01*
X122105Y73329D01*
X122362Y75287D01*
X122105Y77245D01*
X121349Y79069D01*
X120147Y80636D01*
X120126Y80652D01*
Y81424D01*
X120291Y82126D01*
X121349Y83505D01*
X122105Y85329D01*
X122362Y87287D01*
X122105Y89245D01*
X121349Y91069D01*
X120147Y92636D01*
X119474Y93152D01*
Y94422D01*
X120147Y94938D01*
X121349Y96505D01*
X122105Y98329D01*
X122362Y100287D01*
X122105Y102245D01*
X121349Y104069D01*
X120147Y105636D01*
X119474Y106152D01*
Y107422D01*
X120147Y107938D01*
X121349Y109505D01*
X122105Y111329D01*
X122362Y113287D01*
X122105Y115245D01*
X121349Y117070D01*
X120147Y118636D01*
X119079Y119456D01*
X119510Y120726D01*
X237521D01*
X238031Y119773D01*
X238072Y119456D01*
X237607Y117120D01*
X238094Y114674D01*
X239480Y112600D01*
X241554Y111214D01*
X244000Y110727D01*
X246446Y111214D01*
X248520Y112600D01*
X248905Y113175D01*
X281015D01*
X281480Y112480D01*
X283554Y111094D01*
X286000Y110607D01*
X288446Y111094D01*
X290520Y112480D01*
X291906Y114554D01*
X292393Y117000D01*
X291906Y119446D01*
X291800Y119606D01*
X292399Y120726D01*
X311118D01*
X335167Y96677D01*
X334357Y95691D01*
X333761Y96089D01*
X332275Y96385D01*
X243445D01*
X243020Y97020D01*
X240946Y98406D01*
X238500Y98893D01*
X236054Y98406D01*
X233980Y97020D01*
X232594Y94946D01*
X232107Y92500D01*
X232594Y90054D01*
X233980Y87980D01*
X236054Y86594D01*
X238500Y86107D01*
X240946Y86594D01*
X243020Y87980D01*
X243445Y88615D01*
X330665D01*
X333648Y85633D01*
X334908Y84791D01*
X336394Y84495D01*
X589511D01*
X603377Y70629D01*
Y-84448D01*
X601699Y-85144D01*
X599602Y-86753D01*
X597992Y-88850D01*
X597450Y-90161D01*
X596075D01*
X595532Y-88850D01*
X593923Y-86753D01*
X591826Y-85144D01*
X591147Y-84862D01*
Y70488D01*
X590851Y71975D01*
X590009Y73235D01*
X582247Y80997D01*
X580987Y81839D01*
X579500Y82135D01*
X235109D01*
X228875Y88369D01*
Y100180D01*
X229696Y100344D01*
X231770Y101730D01*
X233156Y103804D01*
X233643Y106250D01*
X233156Y108696D01*
X231770Y110770D01*
X229696Y112156D01*
X227250Y112643D01*
X224804Y112156D01*
X222730Y110770D01*
X221344Y108696D01*
X220857Y106250D01*
X221206Y104496D01*
X221105Y103990D01*
Y86760D01*
X221401Y85273D01*
X222243Y84013D01*
X230753Y75503D01*
X232013Y74661D01*
X233500Y74365D01*
X472512D01*
X473110Y73245D01*
X473018Y73108D01*
X472526Y70630D01*
Y21000D01*
X473018Y18522D01*
X474422Y16422D01*
X476522Y15018D01*
X479000Y14526D01*
X481478Y15018D01*
X483578Y16422D01*
X484982Y18522D01*
X485474Y21000D01*
Y70630D01*
X484982Y73108D01*
X484890Y73245D01*
X485488Y74365D01*
X555436D01*
Y59261D01*
X572516D01*
Y61326D01*
X577476D01*
X579954Y61819D01*
X582054Y63223D01*
X582162Y63384D01*
X583377Y63016D01*
Y48586D01*
X582162Y48217D01*
X582054Y48379D01*
X579954Y49782D01*
X577476Y50275D01*
X572516D01*
Y52341D01*
X555436D01*
Y35261D01*
X572516D01*
Y37326D01*
X577476D01*
X579954Y37819D01*
X582054Y39223D01*
X582162Y39384D01*
X583377Y39016D01*
Y25690D01*
X582108Y25011D01*
X580954Y25782D01*
X578476Y26275D01*
X573516D01*
Y28341D01*
X556436D01*
Y11261D01*
X573516D01*
Y13326D01*
X578476D01*
X580954Y13819D01*
X582108Y14590D01*
X583377Y13911D01*
Y2844D01*
X582257Y2245D01*
X581454Y2782D01*
X578976Y3275D01*
X573516D01*
Y5341D01*
X556436D01*
Y-11739D01*
X573516D01*
Y-9674D01*
X578976D01*
X581454Y-9181D01*
X582257Y-8644D01*
X583377Y-9243D01*
Y-27941D01*
X582257Y-28540D01*
X581478Y-28018D01*
X579000Y-27526D01*
X578201Y-27685D01*
X572064D01*
Y-25119D01*
X555984D01*
Y-43199D01*
X572064D01*
Y-40633D01*
X578841D01*
X581319Y-40141D01*
X582257Y-39513D01*
X583377Y-40112D01*
Y-84448D01*
X581699Y-85144D01*
X579602Y-86753D01*
X577992Y-88850D01*
X576981Y-91293D01*
X576636Y-93913D01*
X576981Y-96535D01*
X577992Y-98977D01*
X579602Y-101074D01*
X581699Y-102683D01*
X584141Y-103695D01*
X586762Y-104040D01*
X589383Y-103695D01*
X591826Y-102683D01*
X593923Y-101074D01*
X595532Y-98977D01*
X596075Y-97667D01*
X597450D01*
X597992Y-98977D01*
X599602Y-101074D01*
X601699Y-102683D01*
X604141Y-103695D01*
X606762Y-104040D01*
X609383Y-103695D01*
X611826Y-102683D01*
X613923Y-101074D01*
X615452Y-99081D01*
X615594Y-99080D01*
X616722Y-99931D01*
Y-103954D01*
X626411D01*
X626762Y-104000D01*
X627114Y-103954D01*
X636802D01*
Y-94265D01*
X636848Y-93913D01*
X636802Y-93562D01*
Y-83874D01*
X627114D01*
X626762Y-83827D01*
X626411Y-83874D01*
X616722D01*
Y-87896D01*
X615594Y-88748D01*
X615452Y-88746D01*
X613923Y-86753D01*
X611826Y-85144D01*
X611147Y-84862D01*
Y52143D01*
X612362Y52511D01*
X612422Y52422D01*
X614522Y51018D01*
X617000Y50526D01*
X625103D01*
X626259Y49019D01*
X628878Y47009D01*
X631929Y45746D01*
X634367Y45424D01*
X634675Y44103D01*
X633422Y43266D01*
X630422Y40265D01*
X629018Y38165D01*
X628526Y35687D01*
Y31646D01*
X626259Y29906D01*
X624249Y27287D01*
X622985Y24236D01*
X622554Y20963D01*
X622985Y17689D01*
X624249Y14639D01*
X626259Y12019D01*
X628878Y10009D01*
X631929Y8746D01*
X635202Y8315D01*
X638476Y8746D01*
X641526Y10009D01*
X644146Y12019D01*
X646156Y14639D01*
X647420Y17689D01*
X647851Y20963D01*
X647420Y24236D01*
X646156Y27287D01*
X644146Y29906D01*
X641661Y31813D01*
X641584Y33116D01*
X642578Y34109D01*
X643982Y36210D01*
X644474Y38687D01*
X643982Y41165D01*
X642578Y43266D01*
X640478Y44669D01*
X639612Y44841D01*
X639481Y46162D01*
X641526Y47009D01*
X644146Y49019D01*
X646156Y51639D01*
X647420Y54689D01*
X647851Y57963D01*
X647420Y61236D01*
X646156Y64287D01*
X644146Y66906D01*
X641526Y68916D01*
X638476Y70180D01*
X635202Y70611D01*
X631929Y70180D01*
X628878Y68916D01*
X626259Y66906D01*
X624249Y64287D01*
X623912Y63474D01*
X617000D01*
X614522Y62982D01*
X612422Y61578D01*
X612362Y61489D01*
X611147Y61857D01*
Y72238D01*
X610851Y73724D01*
X610009Y74985D01*
X596642Y88352D01*
X597127Y89526D01*
X605237D01*
X617341Y77422D01*
X619441Y76018D01*
X621919Y75526D01*
X648318D01*
X653526Y70318D01*
Y-138318D01*
X643318Y-148526D01*
X570418D01*
X567941Y-149018D01*
X565840Y-150422D01*
X557843Y-158419D01*
X557561Y-158382D01*
X555202Y-158693D01*
X553003Y-159604D01*
X551114Y-161053D01*
X549665Y-162941D01*
X548754Y-165140D01*
X548444Y-167500D01*
X548754Y-169860D01*
X549665Y-172059D01*
X551114Y-173948D01*
X553003Y-175396D01*
X555202Y-176307D01*
X557561Y-176618D01*
X559921Y-176307D01*
X562121Y-175396D01*
X564009Y-173948D01*
X565458Y-172059D01*
X566369Y-169860D01*
X566620Y-167955D01*
X573100Y-161474D01*
X646000D01*
X648478Y-160982D01*
X650578Y-159578D01*
X664578Y-145578D01*
X665982Y-143478D01*
X666474Y-141000D01*
Y73000D01*
X665982Y75478D01*
X664578Y77578D01*
X655578Y86578D01*
X653478Y87982D01*
X651000Y88474D01*
X624600D01*
X612497Y100578D01*
X610396Y101982D01*
X607919Y102474D01*
X347682D01*
X318378Y131778D01*
X317813Y132156D01*
X318198Y133426D01*
X402668D01*
X429672Y106422D01*
X431772Y105018D01*
X434250Y104526D01*
X586781D01*
X589259Y105018D01*
X591359Y106422D01*
X611124Y126187D01*
X611899Y125805D01*
X612268Y125534D01*
X612570Y123236D01*
X613481Y121037D01*
X614930Y119149D01*
X616819Y117700D01*
X619018Y116789D01*
X621377Y116478D01*
X623737Y116789D01*
X625937Y117700D01*
X627825Y119149D01*
X629274Y121037D01*
X630185Y123236D01*
X630495Y125596D01*
X630185Y127956D01*
X629274Y130155D01*
X627825Y132044D01*
X625937Y133493D01*
X623737Y134403D01*
X622013Y134630D01*
X621369Y135902D01*
X621788Y136532D01*
X623737Y136789D01*
X625937Y137700D01*
X627825Y139149D01*
X629274Y141037D01*
X630185Y143236D01*
X630495Y145596D01*
X630185Y147956D01*
X629274Y150155D01*
X627825Y152044D01*
X625937Y153493D01*
X623737Y154403D01*
X621377Y154714D01*
X619018Y154403D01*
X616819Y153493D01*
X614930Y152044D01*
X613481Y150155D01*
X612570Y147956D01*
X612265Y145640D01*
X584100Y117474D01*
X560461D01*
X559863Y118595D01*
X559982Y118772D01*
X560474Y121250D01*
X559982Y123728D01*
X558578Y125828D01*
X556478Y127232D01*
X554000Y127724D01*
X553548Y127634D01*
X459014D01*
X458415Y128755D01*
X458982Y129602D01*
X459474Y132080D01*
Y168904D01*
X461829Y169135D01*
X465135Y170138D01*
X468182Y171767D01*
X470853Y173959D01*
X471069Y174223D01*
X471336Y174442D01*
X473524Y177116D01*
X475149Y180166D01*
X476147Y183473D01*
X476481Y186912D01*
X476137Y190350D01*
X475129Y193655D01*
X473496Y196700D01*
X471301Y199368D01*
X468627Y201556D01*
X453217Y211820D01*
X428661Y228177D01*
X427241Y228934D01*
X425831Y229709D01*
X425746Y229736D01*
X425667Y229779D01*
X425638Y229787D01*
X425612Y229802D01*
X424072Y230266D01*
X422537Y230752D01*
X422448Y230762D01*
X422363Y230788D01*
X422333Y230791D01*
X422304Y230800D01*
X420703Y230955D01*
X419103Y231132D01*
X419014Y231125D01*
X418925Y231134D01*
X297623Y231373D01*
X241204Y231485D01*
X224962Y231517D01*
X25055Y231912D01*
X25038Y231910D01*
X25020Y231912D01*
D02*
G37*
G36*
X575000Y216118D02*
X571856Y215808D01*
X568832Y214891D01*
X566045Y213401D01*
X563603Y211397D01*
X561599Y208955D01*
X560109Y206168D01*
X559192Y203144D01*
X558882Y200000D01*
X559192Y196856D01*
X560109Y193832D01*
X561599Y191045D01*
X563603Y188603D01*
X566045Y186599D01*
X568832Y185109D01*
X571856Y184192D01*
X575000Y183882D01*
X578144Y184192D01*
X581168Y185109D01*
X583955Y186599D01*
X586397Y188603D01*
X588401Y191045D01*
X589891Y193832D01*
X590808Y196856D01*
X591118Y200000D01*
X590808Y203144D01*
X589891Y206168D01*
X588401Y208955D01*
X586397Y211397D01*
X583955Y213401D01*
X581168Y214891D01*
X578144Y215808D01*
X575000Y216118D01*
D02*
G37*
G36*
X-574980Y215905D02*
X-578124Y215595D01*
X-581148Y214678D01*
X-583934Y213189D01*
X-586377Y211184D01*
X-588381Y208742D01*
X-589871Y205955D01*
X-590788Y202932D01*
X-591097Y199788D01*
X-590788Y196643D01*
X-589871Y193619D01*
X-588381Y190833D01*
X-586377Y188391D01*
X-583934Y186386D01*
X-581148Y184897D01*
X-578124Y183979D01*
X-574980Y183670D01*
X-571836Y183979D01*
X-568812Y184897D01*
X-566026Y186386D01*
X-563583Y188391D01*
X-561579Y190833D01*
X-560089Y193619D01*
X-559172Y196643D01*
X-558862Y199788D01*
X-559172Y202932D01*
X-560089Y205955D01*
X-561579Y208742D01*
X-563583Y211184D01*
X-566026Y213189D01*
X-568812Y214678D01*
X-571836Y215595D01*
X-574980Y215905D01*
D02*
G37*
G36*
X-385219Y197913D02*
X-387871Y197564D01*
X-390342Y196540D01*
X-392465Y194912D01*
X-394093Y192789D01*
X-395117Y190318D01*
X-395466Y187666D01*
X-395117Y185013D01*
X-394093Y182542D01*
X-392465Y180419D01*
X-390342Y178791D01*
X-387871Y177767D01*
X-385219Y177418D01*
X-382566Y177767D01*
X-380095Y178791D01*
X-377972Y180419D01*
X-376344Y182542D01*
X-375320Y185013D01*
X-374971Y187666D01*
X-375320Y190318D01*
X-376344Y192789D01*
X-377972Y194912D01*
X-380095Y196540D01*
X-382566Y197564D01*
X-385219Y197913D01*
D02*
G37*
G36*
X-410619D02*
X-413271Y197564D01*
X-415742Y196540D01*
X-417865Y194912D01*
X-419493Y192789D01*
X-420517Y190318D01*
X-420866Y187666D01*
X-420517Y185013D01*
X-419493Y182542D01*
X-417865Y180419D01*
X-415742Y178791D01*
X-413271Y177767D01*
X-410619Y177418D01*
X-407966Y177767D01*
X-405495Y178791D01*
X-403372Y180419D01*
X-401744Y182542D01*
X-400720Y185013D01*
X-400371Y187666D01*
X-400720Y190318D01*
X-401744Y192789D01*
X-403372Y194912D01*
X-405495Y196540D01*
X-407966Y197564D01*
X-410619Y197913D01*
D02*
G37*
G36*
X-436019D02*
X-438671Y197564D01*
X-441143Y196540D01*
X-443265Y194912D01*
X-444893Y192789D01*
X-445917Y190318D01*
X-446266Y187666D01*
X-445917Y185013D01*
X-444893Y182542D01*
X-443265Y180419D01*
X-441143Y178791D01*
X-438671Y177767D01*
X-436019Y177418D01*
X-433366Y177767D01*
X-430895Y178791D01*
X-428772Y180419D01*
X-427144Y182542D01*
X-426120Y185013D01*
X-425771Y187666D01*
X-426120Y190318D01*
X-427144Y192789D01*
X-428772Y194912D01*
X-430895Y196540D01*
X-433366Y197564D01*
X-436019Y197913D01*
D02*
G37*
G36*
X-486819D02*
X-489471Y197564D01*
X-491942Y196540D01*
X-494065Y194912D01*
X-495693Y192789D01*
X-496717Y190318D01*
X-497066Y187666D01*
X-496717Y185013D01*
X-495693Y182542D01*
X-494065Y180419D01*
X-491942Y178791D01*
X-489471Y177767D01*
X-486819Y177418D01*
X-484166Y177767D01*
X-481695Y178791D01*
X-479572Y180419D01*
X-477944Y182542D01*
X-476920Y185013D01*
X-476571Y187666D01*
X-476920Y190318D01*
X-477944Y192789D01*
X-479572Y194912D01*
X-481695Y196540D01*
X-484166Y197564D01*
X-486819Y197913D01*
D02*
G37*
G36*
X-512219D02*
X-514871Y197564D01*
X-517342Y196540D01*
X-519465Y194912D01*
X-521093Y192789D01*
X-522117Y190318D01*
X-522466Y187666D01*
X-522117Y185013D01*
X-521093Y182542D01*
X-519465Y180419D01*
X-517342Y178791D01*
X-514871Y177767D01*
X-512219Y177418D01*
X-509566Y177767D01*
X-507095Y178791D01*
X-504972Y180419D01*
X-503344Y182542D01*
X-502320Y185013D01*
X-501971Y187666D01*
X-502320Y190318D01*
X-503344Y192789D01*
X-504972Y194912D01*
X-507095Y196540D01*
X-509566Y197564D01*
X-512219Y197913D01*
D02*
G37*
G36*
X-461419Y197713D02*
X-464071Y197364D01*
X-466543Y196340D01*
X-468665Y194712D01*
X-470293Y192589D01*
X-471317Y190118D01*
X-471666Y187466D01*
X-471317Y184813D01*
X-470293Y182342D01*
X-468665Y180219D01*
X-466543Y178591D01*
X-464071Y177567D01*
X-461419Y177218D01*
X-458766Y177567D01*
X-456295Y178591D01*
X-454172Y180219D01*
X-452544Y182342D01*
X-451520Y184813D01*
X-451171Y187466D01*
X-451520Y190118D01*
X-452544Y192589D01*
X-454172Y194712D01*
X-456295Y196340D01*
X-458766Y197364D01*
X-461419Y197713D01*
D02*
G37*
G36*
X575000Y166118D02*
X571856Y165808D01*
X568832Y164891D01*
X566045Y163401D01*
X563603Y161397D01*
X561599Y158954D01*
X560109Y156168D01*
X559192Y153144D01*
X558882Y150000D01*
X559192Y146856D01*
X560109Y143832D01*
X561599Y141046D01*
X563603Y138603D01*
X566045Y136599D01*
X568832Y135109D01*
X571856Y134192D01*
X575000Y133882D01*
X578144Y134192D01*
X581168Y135109D01*
X583955Y136599D01*
X586397Y138603D01*
X588401Y141046D01*
X589891Y143832D01*
X590808Y146856D01*
X591118Y150000D01*
X590808Y153144D01*
X589891Y156168D01*
X588401Y158954D01*
X586397Y161397D01*
X583955Y163401D01*
X581168Y164891D01*
X578144Y165808D01*
X575000Y166118D01*
D02*
G37*
G36*
X-574980Y165905D02*
X-578124Y165595D01*
X-581148Y164678D01*
X-583934Y163189D01*
X-586377Y161184D01*
X-588381Y158742D01*
X-589871Y155955D01*
X-590788Y152932D01*
X-591097Y149788D01*
X-590788Y146643D01*
X-589871Y143619D01*
X-588381Y140833D01*
X-586377Y138391D01*
X-583934Y136386D01*
X-581148Y134897D01*
X-578124Y133980D01*
X-574980Y133670D01*
X-571836Y133980D01*
X-568812Y134897D01*
X-566026Y136386D01*
X-563583Y138391D01*
X-561579Y140833D01*
X-560089Y143619D01*
X-559172Y146643D01*
X-558862Y149788D01*
X-559172Y152932D01*
X-560089Y155955D01*
X-561579Y158742D01*
X-563583Y161184D01*
X-566026Y163189D01*
X-568812Y164678D01*
X-571836Y165595D01*
X-574980Y165905D01*
D02*
G37*
G36*
X-666726Y158378D02*
X-669204Y157885D01*
X-671304Y156482D01*
X-672708Y154382D01*
X-673201Y151904D01*
Y142210D01*
X-675438D01*
Y126130D01*
X-657358D01*
Y142210D01*
X-660252D01*
Y151904D01*
X-660745Y154382D01*
X-662148Y156482D01*
X-664249Y157885D01*
X-666726Y158378D01*
D02*
G37*
G36*
X673777Y124130D02*
X655697D01*
Y108050D01*
X658592D01*
Y99100D01*
X659084Y96622D01*
X660488Y94522D01*
X662588Y93118D01*
X665066Y92625D01*
X667544Y93118D01*
X669644Y94522D01*
X671048Y96622D01*
X671540Y99100D01*
Y108050D01*
X673777D01*
Y124130D01*
D02*
G37*
G36*
X644702Y-116874D02*
X624622D01*
Y-136953D01*
X644702D01*
Y-116874D01*
D02*
G37*
G36*
X609262Y-116787D02*
X606641Y-117132D01*
X604199Y-118144D01*
X602102Y-119753D01*
X600492Y-121850D01*
X599481Y-124292D01*
X599136Y-126913D01*
X599481Y-129535D01*
X600492Y-131977D01*
X602102Y-134074D01*
X604199Y-135683D01*
X606641Y-136695D01*
X609262Y-137040D01*
X611883Y-136695D01*
X614325Y-135683D01*
X616423Y-134074D01*
X618032Y-131977D01*
X619044Y-129535D01*
X619389Y-126913D01*
X619044Y-124292D01*
X618032Y-121850D01*
X616423Y-119753D01*
X614325Y-118144D01*
X611883Y-117132D01*
X609262Y-116787D01*
D02*
G37*
G36*
X583862D02*
X581241Y-117132D01*
X578799Y-118144D01*
X576702Y-119753D01*
X575092Y-121850D01*
X574081Y-124292D01*
X573736Y-126913D01*
X574081Y-129535D01*
X575092Y-131977D01*
X576702Y-134074D01*
X578799Y-135683D01*
X581241Y-136695D01*
X583862Y-137040D01*
X586483Y-136695D01*
X588926Y-135683D01*
X591023Y-134074D01*
X592632Y-131977D01*
X593644Y-129535D01*
X593989Y-126913D01*
X593644Y-124292D01*
X592632Y-121850D01*
X591023Y-119753D01*
X588926Y-118144D01*
X586483Y-117132D01*
X583862Y-116787D01*
D02*
G37*
G36*
X-610750Y-157095D02*
X-613228Y-157588D01*
X-615328Y-158991D01*
X-615438Y-159101D01*
X-616842Y-161202D01*
X-617334Y-163679D01*
Y-170454D01*
X-619900D01*
Y-186534D01*
X-601820D01*
Y-170454D01*
X-604385D01*
Y-164122D01*
X-604276Y-163569D01*
X-604768Y-161092D01*
X-606172Y-158991D01*
X-608272Y-157588D01*
X-610750Y-157095D01*
D02*
G37*
G36*
X610040Y-186478D02*
X591960D01*
Y-202558D01*
X596026D01*
Y-209868D01*
X595949Y-209968D01*
X595193Y-211792D01*
X594935Y-213750D01*
X595193Y-215708D01*
X595949Y-217532D01*
X597151Y-219099D01*
X598718Y-220301D01*
X600542Y-221057D01*
X602500Y-221315D01*
X604458Y-221057D01*
X606282Y-220301D01*
X607849Y-219099D01*
X609051Y-217532D01*
X609807Y-215708D01*
X610065Y-213750D01*
X609807Y-211792D01*
X609051Y-209968D01*
X608974Y-209868D01*
Y-202558D01*
X610040D01*
Y-186478D01*
D02*
G37*
G36*
X466000Y-205237D02*
X465747Y-205271D01*
X457460D01*
Y-213557D01*
X457427Y-213811D01*
X457460Y-214064D01*
Y-222351D01*
X465747D01*
X466000Y-222384D01*
X466253Y-222351D01*
X474540D01*
Y-214064D01*
X474573Y-213811D01*
X474540Y-213557D01*
Y-205271D01*
X466253D01*
X466000Y-205237D01*
D02*
G37*
G36*
X426000Y-205197D02*
X423771Y-205490D01*
X421693Y-206351D01*
X419909Y-207720D01*
X418540Y-209504D01*
X417680Y-211581D01*
X417386Y-213811D01*
X417680Y-216040D01*
X418540Y-218118D01*
X419909Y-219902D01*
X421693Y-221270D01*
X423771Y-222131D01*
X426000Y-222424D01*
X428229Y-222131D01*
X430307Y-221270D01*
X432091Y-219902D01*
X433460Y-218118D01*
X434320Y-216040D01*
X434614Y-213811D01*
X434320Y-211581D01*
X433460Y-209504D01*
X432091Y-207720D01*
X430307Y-206351D01*
X428229Y-205490D01*
X426000Y-205197D01*
D02*
G37*
G36*
X406000D02*
X403771Y-205490D01*
X401693Y-206351D01*
X399909Y-207720D01*
X398540Y-209504D01*
X397680Y-211581D01*
X397386Y-213811D01*
X397680Y-216040D01*
X398540Y-218118D01*
X399909Y-219902D01*
X401693Y-221270D01*
X403771Y-222131D01*
X406000Y-222424D01*
X408229Y-222131D01*
X410307Y-221270D01*
X412091Y-219902D01*
X413460Y-218118D01*
X414320Y-216040D01*
X414614Y-213811D01*
X414320Y-211581D01*
X413460Y-209504D01*
X412091Y-207720D01*
X410307Y-206351D01*
X408229Y-205490D01*
X406000Y-205197D01*
D02*
G37*
G36*
X185202Y-264123D02*
X182725Y-264616D01*
X180624Y-266020D01*
X179221Y-268120D01*
X178728Y-270598D01*
X179221Y-273076D01*
X180624Y-275176D01*
X182150Y-276702D01*
X184251Y-278105D01*
X186728Y-278598D01*
X195618D01*
Y-280851D01*
X213698D01*
Y-264771D01*
X195618D01*
Y-265649D01*
X189226D01*
X187680Y-264616D01*
X185202Y-264123D01*
D02*
G37*
%LPD*%
G36*
X117422Y150422D02*
X119522Y149018D01*
X122000Y148526D01*
X401937D01*
X402915Y147548D01*
X402429Y146374D01*
X105290D01*
Y146940D01*
X77710D01*
Y132860D01*
Y120160D01*
Y107460D01*
Y94760D01*
Y82060D01*
Y69360D01*
Y56660D01*
Y43960D01*
Y31260D01*
Y18560D01*
Y5860D01*
Y-3749D01*
X76728Y-4555D01*
X76580Y-4526D01*
X32000D01*
X29522Y-5018D01*
X27422Y-6422D01*
X26018Y-8522D01*
X25526Y-11000D01*
X26018Y-13478D01*
X26428Y-14090D01*
X25829Y-15210D01*
X22885D01*
Y4055D01*
X23520Y4480D01*
X24906Y6554D01*
X25393Y9000D01*
X24906Y11446D01*
X23520Y13520D01*
X21446Y14906D01*
X19000Y15393D01*
X16554Y14906D01*
X14480Y13520D01*
X13094Y11446D01*
X12607Y9000D01*
X13094Y6554D01*
X14480Y4480D01*
X15115Y4055D01*
Y-15210D01*
X-25276D01*
Y435D01*
X-25073Y1452D01*
X-25566Y3930D01*
X-26970Y6030D01*
X-29070Y7434D01*
X-31548Y7927D01*
X-34025Y7434D01*
X-36126Y6030D01*
X-36328Y5828D01*
X-37732Y3728D01*
X-38224Y1250D01*
Y-4205D01*
X-39494Y-4590D01*
X-39834Y-4082D01*
X-41935Y-2678D01*
X-44412Y-2186D01*
X-46890Y-2678D01*
X-48990Y-4082D01*
X-49028Y-4120D01*
X-50432Y-6220D01*
X-50924Y-8698D01*
Y-15210D01*
X-51490D01*
Y-42790D01*
X-25524D01*
Y-49511D01*
X-60308Y-84294D01*
X-75840D01*
X-78318Y-84787D01*
X-80418Y-86191D01*
X-81822Y-88291D01*
X-82314Y-90769D01*
X-81822Y-93246D01*
X-80418Y-95347D01*
X-78318Y-96750D01*
X-77319Y-96949D01*
X-76833Y-98122D01*
X-77053Y-98451D01*
X-77546Y-100929D01*
X-77155Y-102893D01*
X-78326Y-103518D01*
X-84776Y-97068D01*
Y-19640D01*
X-77460Y-19640D01*
X-76890Y-20674D01*
Y-42790D01*
X-62810D01*
Y-15210D01*
X-76190D01*
X-76890Y-15210D01*
X-77460Y-14176D01*
Y-6940D01*
Y5760D01*
Y18460D01*
Y31160D01*
Y43860D01*
Y56560D01*
Y69260D01*
Y81960D01*
Y94660D01*
Y107360D01*
Y120060D01*
Y132760D01*
Y146840D01*
X-105040D01*
Y145674D01*
X-109265D01*
X-110792Y146307D01*
X-112750Y146565D01*
X-114708Y146307D01*
X-116532Y145551D01*
X-118099Y144349D01*
X-119301Y142782D01*
X-120057Y140958D01*
X-120315Y139000D01*
X-120057Y137042D01*
X-119301Y135218D01*
X-118099Y133651D01*
X-117427Y133135D01*
Y131865D01*
X-118099Y131349D01*
X-119301Y129782D01*
X-120057Y127958D01*
X-120315Y126000D01*
X-120057Y124042D01*
X-119301Y122218D01*
X-119145Y122014D01*
X-119706Y120874D01*
X-162310D01*
X-162796Y122048D01*
X-124487Y160357D01*
X107487D01*
X117422Y150422D01*
D02*
G37*
G36*
X-602842Y117760D02*
X-608720Y111882D01*
X-616626D01*
X-618479Y113304D01*
X-620678Y114214D01*
X-623038Y114525D01*
X-625398Y114214D01*
X-627597Y113304D01*
X-629485Y111855D01*
X-630934Y109966D01*
X-631845Y107767D01*
X-632156Y105407D01*
X-631845Y103047D01*
X-630934Y100848D01*
X-629485Y98960D01*
X-627597Y97511D01*
X-625398Y96600D01*
X-623038Y96289D01*
X-620678Y96600D01*
X-618479Y97511D01*
X-616626Y98933D01*
X-607357D01*
X-606831Y97663D01*
X-612112Y92382D01*
X-638160D01*
Y117232D01*
X-637489Y117903D01*
X-628108D01*
X-627597Y117511D01*
X-625398Y116600D01*
X-623038Y116289D01*
X-620678Y116600D01*
X-618479Y117511D01*
X-616626Y118933D01*
X-603328D01*
X-602842Y117760D01*
D02*
G37*
G36*
X-226666Y92172D02*
X-227292Y91002D01*
X-228000Y91143D01*
X-230446Y90656D01*
X-231497Y89954D01*
X-232768Y90633D01*
Y90920D01*
X-256947D01*
Y81296D01*
X-259308Y78936D01*
X-260481Y79422D01*
Y90920D01*
X-266096D01*
Y100355D01*
X-234849D01*
X-226666Y92172D01*
D02*
G37*
G36*
X-279045Y90920D02*
X-284661D01*
Y74804D01*
X-288194D01*
Y90920D01*
X-312374D01*
Y79116D01*
X-312499Y78490D01*
X-312374Y77864D01*
Y74804D01*
X-315908D01*
Y90920D01*
X-321865D01*
Y97766D01*
X-279045D01*
Y90920D01*
D02*
G37*
G36*
X-334813D02*
X-340088D01*
Y74804D01*
X-343621D01*
Y90920D01*
X-367801D01*
Y74804D01*
X-371335D01*
Y90920D01*
X-376407D01*
Y97766D01*
X-334813D01*
Y90920D01*
D02*
G37*
G36*
X-389356D02*
X-395515D01*
Y74804D01*
X-399048D01*
Y90920D01*
X-423228D01*
Y74804D01*
X-426762D01*
Y90920D01*
X-432377D01*
Y97766D01*
X-389356D01*
Y90920D01*
D02*
G37*
G36*
X-445326D02*
X-450942D01*
Y74804D01*
X-454475D01*
Y90920D01*
X-478655D01*
Y74804D01*
X-482189D01*
Y90920D01*
X-487804D01*
Y97766D01*
X-445326D01*
Y90920D01*
D02*
G37*
G36*
X330966Y53845D02*
X330480Y53520D01*
X330055Y52885D01*
X200207D01*
X199800Y53388D01*
X199401Y54215D01*
X199869Y55115D01*
X330581D01*
X330966Y53845D01*
D02*
G37*
G36*
X-230446Y78844D02*
X-228000Y78357D01*
X-225615Y78832D01*
X-225391Y78845D01*
X-224345Y78191D01*
Y18059D01*
X-224773Y17773D01*
X-226159Y15699D01*
X-226645Y13253D01*
X-226159Y10806D01*
X-224773Y8732D01*
X-222793Y7409D01*
X-222598Y7156D01*
X-222284Y6122D01*
X-236772Y-8366D01*
X-302840D01*
X-304094Y-8615D01*
X-304720Y-7445D01*
X-267993Y29282D01*
X-266589Y31383D01*
X-266096Y33860D01*
Y43720D01*
X-260481D01*
Y46636D01*
X-256947D01*
Y43720D01*
X-232768D01*
Y62500D01*
X-255400D01*
X-255793Y63692D01*
X-255795Y63770D01*
X-252093Y67472D01*
X-251354Y68577D01*
X-247791Y72140D01*
X-232768D01*
Y78867D01*
X-231497Y79546D01*
X-230446Y78844D01*
D02*
G37*
G36*
X-284661Y43720D02*
X-279045D01*
Y36542D01*
X-314113Y1474D01*
X-339460D01*
X-339946Y2648D01*
X-323420Y19174D01*
X-322016Y21274D01*
X-321524Y23752D01*
Y43720D01*
X-315908D01*
Y46636D01*
X-312374D01*
Y43720D01*
X-288194D01*
Y61856D01*
X-284661D01*
Y43720D01*
D02*
G37*
G36*
X-340088D02*
X-334472D01*
Y26434D01*
X-349112Y11794D01*
X-390315D01*
X-390801Y12968D01*
X-378847Y24922D01*
X-377443Y27022D01*
X-376950Y29500D01*
Y43720D01*
X-371335D01*
Y46636D01*
X-367801D01*
Y43720D01*
X-343621D01*
Y61856D01*
X-340088D01*
Y43720D01*
D02*
G37*
G36*
X-395515D02*
X-389899D01*
Y32182D01*
X-399499Y22582D01*
X-437853D01*
X-438339Y23755D01*
X-434422Y27672D01*
X-433018Y29772D01*
X-432526Y32250D01*
Y43720D01*
X-426762D01*
Y46636D01*
X-423228D01*
Y43720D01*
X-399048D01*
Y61856D01*
X-395515D01*
Y43720D01*
D02*
G37*
G36*
X-450942D02*
X-445474D01*
Y34932D01*
X-447664Y32742D01*
X-539210D01*
Y39124D01*
X-539177Y39378D01*
X-539210Y39631D01*
Y46636D01*
X-506369D01*
Y43720D01*
X-482189D01*
Y46636D01*
X-478655D01*
Y43720D01*
X-454475D01*
Y61856D01*
X-450942D01*
Y43720D01*
D02*
G37*
G36*
X330480Y44480D02*
X331115Y44055D01*
Y40000D01*
X331411Y38513D01*
X332253Y37253D01*
X343031Y26475D01*
X344292Y25633D01*
X345778Y25337D01*
X428353D01*
X471334Y-17644D01*
Y-85890D01*
X470064Y-86321D01*
X469255Y-85267D01*
X467133Y-83638D01*
X464661Y-82614D01*
X462009Y-82265D01*
X459356Y-82614D01*
X456885Y-83638D01*
X454763Y-85267D01*
X453134Y-87389D01*
X452110Y-89860D01*
X451761Y-92513D01*
X452110Y-95165D01*
X452624Y-96404D01*
X448210Y-100818D01*
X444367D01*
X444017Y-99548D01*
X445484Y-97637D01*
X446507Y-95165D01*
X446856Y-92513D01*
X446507Y-89860D01*
X445484Y-87389D01*
X443855Y-85267D01*
X441733Y-83638D01*
X440494Y-83125D01*
Y-22488D01*
X440198Y-21001D01*
X439356Y-19741D01*
X437868Y-18253D01*
X436608Y-17411D01*
X435121Y-17115D01*
X362194D01*
X314541Y30537D01*
X314690Y31287D01*
X314204Y33734D01*
X312818Y35807D01*
X310744Y37193D01*
X308298Y37680D01*
X305851Y37193D01*
X303777Y35807D01*
X302391Y33734D01*
X301905Y31287D01*
X302391Y28841D01*
X303777Y26767D01*
X305851Y25381D01*
X308298Y24894D01*
X309048Y25043D01*
X357838Y-23747D01*
X359098Y-24589D01*
X360585Y-24885D01*
X432724D01*
Y-83125D01*
X431485Y-83638D01*
X429363Y-85267D01*
X427734Y-87389D01*
X426710Y-89860D01*
X426361Y-92513D01*
X426710Y-95165D01*
X427734Y-97637D01*
X429201Y-99548D01*
X428850Y-100818D01*
X418967D01*
X418617Y-99548D01*
X420084Y-97637D01*
X421107Y-95165D01*
X421456Y-92513D01*
X421107Y-89860D01*
X420084Y-87389D01*
X418455Y-85267D01*
X416333Y-83638D01*
X413861Y-82614D01*
X411209Y-82265D01*
X408557Y-82614D01*
X406085Y-83638D01*
X403963Y-85267D01*
X402334Y-87389D01*
X401310Y-89860D01*
X400961Y-92513D01*
X401310Y-95165D01*
X402334Y-97637D01*
X403801Y-99548D01*
X403450Y-100818D01*
X393567D01*
X393217Y-99548D01*
X394684Y-97637D01*
X395707Y-95165D01*
X396057Y-92513D01*
X395707Y-89860D01*
X394684Y-87389D01*
X393055Y-85267D01*
X392283Y-84674D01*
Y-55320D01*
X391790Y-52842D01*
X390387Y-50742D01*
X376330Y-36685D01*
X374229Y-35281D01*
X371752Y-34788D01*
X261479D01*
X260969Y-33835D01*
X260928Y-33519D01*
X261393Y-31183D01*
X260906Y-28737D01*
X259520Y-26662D01*
X258783Y-26170D01*
Y24337D01*
X259318Y24694D01*
X260704Y26768D01*
X261190Y29214D01*
X260704Y31661D01*
X259318Y33735D01*
X257244Y35120D01*
X254798Y35607D01*
X252351Y35120D01*
X250277Y33735D01*
X248891Y31661D01*
X248405Y29214D01*
X248891Y26768D01*
X250277Y24694D01*
X251014Y24201D01*
Y-26305D01*
X250480Y-26662D01*
X249094Y-28737D01*
X248607Y-31183D01*
X249072Y-33519D01*
X249031Y-33835D01*
X248521Y-34788D01*
X205211D01*
X154965Y15458D01*
X155065Y15903D01*
X155091Y15928D01*
X156472Y16374D01*
X158014Y15344D01*
X160460Y14857D01*
X162906Y15344D01*
X164980Y16730D01*
X165419Y17385D01*
X166270D01*
X167757Y17681D01*
X169017Y18523D01*
X193250Y42756D01*
X194000Y42607D01*
X196446Y43094D01*
X198520Y44480D01*
X198945Y45115D01*
X330055D01*
X330480Y44480D01*
D02*
G37*
G36*
X-194672Y106656D02*
X-195237Y106278D01*
X-212461Y89054D01*
X-213864Y86954D01*
X-214357Y84476D01*
Y17903D01*
X-215573Y17534D01*
X-215732Y17773D01*
X-216575Y18336D01*
Y91460D01*
X-216871Y92947D01*
X-217713Y94207D01*
X-230162Y106656D01*
X-229693Y107926D01*
X-195057D01*
X-194672Y106656D01*
D02*
G37*
G36*
X125366Y30135D02*
Y1436D01*
X125858Y-1041D01*
X127262Y-3142D01*
X143062Y-18942D01*
X142576Y-20115D01*
X137945D01*
X137520Y-19480D01*
X135446Y-18094D01*
X133000Y-17607D01*
X130554Y-18094D01*
X128480Y-19480D01*
X127094Y-21554D01*
X126607Y-24000D01*
X126738Y-24659D01*
X124554Y-25094D01*
X122480Y-26480D01*
X121094Y-28554D01*
X120607Y-31000D01*
X121094Y-33446D01*
X122480Y-35520D01*
X124554Y-36906D01*
X127000Y-37393D01*
X127750Y-37244D01*
X142386Y-51879D01*
X143646Y-52721D01*
X145132Y-53017D01*
X162389D01*
X163341Y-53969D01*
X162715Y-55139D01*
X161340Y-54866D01*
X90022D01*
X77014Y-41858D01*
Y-29690D01*
X76890Y-29064D01*
Y-20470D01*
X77710Y-19540D01*
X105290D01*
Y-4597D01*
X108325D01*
X109448Y-6062D01*
X111015Y-7264D01*
X112840Y-8020D01*
X114798Y-8278D01*
X116755Y-8020D01*
X118580Y-7264D01*
X120147Y-6062D01*
X121349Y-4495D01*
X122105Y-2671D01*
X122362Y-713D01*
X122105Y1245D01*
X121349Y3070D01*
X120147Y4636D01*
X120126Y4652D01*
Y5424D01*
X120291Y6126D01*
X121349Y7505D01*
X122105Y9329D01*
X122362Y11287D01*
X122105Y13245D01*
X121349Y15070D01*
X120147Y16636D01*
X119474Y17152D01*
Y18422D01*
X120147Y18938D01*
X121349Y20505D01*
X122105Y22329D01*
X122362Y24287D01*
X122105Y26245D01*
X121349Y28070D01*
X120147Y29636D01*
X118948Y30556D01*
X119380Y31826D01*
X123675D01*
X125366Y30135D01*
D02*
G37*
G36*
X161081Y-44074D02*
X160595Y-45248D01*
X146741D01*
X133244Y-31750D01*
X133393Y-31000D01*
X133262Y-30341D01*
X135446Y-29906D01*
X137520Y-28520D01*
X137945Y-27885D01*
X144891D01*
X161081Y-44074D01*
D02*
G37*
G36*
X141526Y33318D02*
Y13266D01*
X142018Y10789D01*
X143422Y8688D01*
X196622Y-44512D01*
X196136Y-45686D01*
X188118D01*
X138314Y4118D01*
Y32817D01*
X137838Y35209D01*
X137894Y35286D01*
X139153Y35691D01*
X141526Y33318D01*
D02*
G37*
G36*
X-105040Y-19640D02*
X-97724D01*
Y-58144D01*
X-98898Y-58630D01*
X-112994Y-44534D01*
Y-9211D01*
X-110157Y-6374D01*
X-105040D01*
Y-19640D01*
D02*
G37*
G36*
X341750Y44480D02*
X343824Y43094D01*
X346270Y42607D01*
X348716Y43094D01*
X350790Y44480D01*
X351215Y45115D01*
X422640D01*
X495714Y-27959D01*
Y-84754D01*
X494444Y-85105D01*
X492533Y-83638D01*
X490061Y-82614D01*
X487409Y-82265D01*
X484757Y-82614D01*
X482285Y-83638D01*
X480373Y-85105D01*
X479104Y-84754D01*
Y-16035D01*
X478808Y-14548D01*
X477966Y-13288D01*
X432709Y31969D01*
X431449Y32811D01*
X429962Y33107D01*
X347387D01*
X338885Y41609D01*
Y44055D01*
X339520Y44480D01*
X340000Y45197D01*
X341270D01*
X341750Y44480D01*
D02*
G37*
G36*
X379334Y-58002D02*
Y-84674D01*
X378563Y-85267D01*
X376934Y-87389D01*
X375910Y-89860D01*
X375561Y-92513D01*
X375910Y-95165D01*
X376934Y-97637D01*
X378401Y-99548D01*
X378050Y-100818D01*
X368167D01*
X367817Y-99548D01*
X369284Y-97637D01*
X370307Y-95165D01*
X370657Y-92513D01*
X370307Y-89860D01*
X369284Y-87389D01*
X367655Y-85267D01*
X366883Y-84674D01*
Y-68409D01*
X366390Y-65931D01*
X364987Y-63831D01*
X350067Y-48911D01*
X350553Y-47737D01*
X369070D01*
X379334Y-58002D01*
D02*
G37*
G36*
X471334Y-99136D02*
Y-107983D01*
X441917Y-137400D01*
X440990Y-137016D01*
X438500Y-136688D01*
X436009Y-137016D01*
X433689Y-137978D01*
X431696Y-139507D01*
X430167Y-141500D01*
X429206Y-143820D01*
X428878Y-146311D01*
X429206Y-148801D01*
X430167Y-151122D01*
X431398Y-152726D01*
X430876Y-153996D01*
X426679D01*
X422411Y-149728D01*
X422794Y-148801D01*
X423122Y-146311D01*
X422794Y-143820D01*
X421833Y-141500D01*
X420304Y-139507D01*
X418311Y-137978D01*
X415990Y-137016D01*
X413500Y-136688D01*
X411009Y-137016D01*
X408689Y-137978D01*
X406696Y-139507D01*
X405167Y-141500D01*
X404206Y-143820D01*
X403878Y-146311D01*
X404206Y-148801D01*
X405167Y-151122D01*
X406696Y-153115D01*
X408689Y-154644D01*
X411009Y-155605D01*
X413500Y-155933D01*
X415990Y-155605D01*
X416917Y-155221D01*
X421951Y-160256D01*
X421425Y-161526D01*
X401000D01*
X398522Y-162018D01*
X396422Y-163422D01*
X395018Y-165522D01*
X394798Y-166630D01*
X393583Y-166998D01*
X383609Y-157024D01*
X384095Y-155851D01*
X388181D01*
X388500Y-155893D01*
X388819Y-155851D01*
X398040D01*
Y-146629D01*
X398082Y-146311D01*
X398040Y-145992D01*
Y-136771D01*
X388819D01*
X388500Y-136729D01*
X388181Y-136771D01*
X380815D01*
Y-135585D01*
X380519Y-134099D01*
X379677Y-132839D01*
X356599Y-109761D01*
X357085Y-108587D01*
X449819D01*
X451305Y-108292D01*
X452566Y-107450D01*
X458117Y-101898D01*
X459356Y-102411D01*
X462009Y-102760D01*
X464661Y-102411D01*
X467133Y-101388D01*
X469255Y-99759D01*
X470064Y-98705D01*
X471334Y-99136D01*
D02*
G37*
G36*
X344115Y-74609D02*
Y-99471D01*
X344411Y-100958D01*
X345253Y-102218D01*
X346848Y-103813D01*
X346362Y-104986D01*
X325682D01*
X325257Y-104350D01*
X323184Y-102964D01*
X320737Y-102478D01*
X318291Y-102964D01*
X316217Y-104350D01*
X316003Y-104669D01*
X314734D01*
X314520Y-104350D01*
X312446Y-102964D01*
X310000Y-102478D01*
X307554Y-102964D01*
X305480Y-104350D01*
X304094Y-106424D01*
X303607Y-108871D01*
X304094Y-111317D01*
X305480Y-113391D01*
X306115Y-113816D01*
Y-114726D01*
X306411Y-116213D01*
X307253Y-117473D01*
X311478Y-121698D01*
X312738Y-122540D01*
X314224Y-122835D01*
X346168D01*
X365887Y-142555D01*
Y-161228D01*
X366183Y-162714D01*
X367025Y-163975D01*
X383895Y-180845D01*
X383782Y-181098D01*
X383147Y-181893D01*
X380925Y-181451D01*
X348325D01*
X347672Y-180404D01*
X347684Y-180181D01*
X348164Y-177765D01*
Y-175542D01*
X353319Y-170388D01*
X362242D01*
Y-154308D01*
X344162D01*
Y-161232D01*
X339178Y-166216D01*
X338004Y-165730D01*
Y-139530D01*
X337512Y-137052D01*
X336108Y-134952D01*
X328578Y-127422D01*
X326478Y-126018D01*
X324000Y-125526D01*
X321522Y-126018D01*
X319422Y-127422D01*
X318018Y-129522D01*
X317526Y-132000D01*
X318018Y-134478D01*
X319422Y-136578D01*
X325056Y-142212D01*
Y-183011D01*
X325136Y-183413D01*
Y-187925D01*
Y-205271D01*
X318753D01*
X318500Y-205237D01*
X318247Y-205271D01*
X309960D01*
Y-213557D01*
X309927Y-213811D01*
X309960Y-214064D01*
Y-221096D01*
X308446D01*
X305968Y-221589D01*
X303868Y-222993D01*
X298524Y-228336D01*
X247165D01*
X244687Y-228829D01*
X243655Y-229519D01*
X242385Y-228840D01*
Y-228759D01*
X242089Y-227272D01*
X241247Y-226012D01*
X238889Y-223654D01*
X239344Y-222313D01*
X240729Y-222131D01*
X242807Y-221270D01*
X244591Y-219902D01*
X245960Y-218118D01*
X246820Y-216040D01*
X247114Y-213811D01*
X246820Y-211581D01*
X245960Y-209504D01*
X244591Y-207720D01*
X242807Y-206351D01*
X242385Y-206176D01*
Y-166253D01*
X242089Y-164767D01*
X241247Y-163506D01*
X234764Y-157024D01*
X235250Y-155851D01*
X240681D01*
X241000Y-155893D01*
X241319Y-155851D01*
X250540D01*
Y-146629D01*
X250582Y-146311D01*
X250540Y-145992D01*
Y-136771D01*
X241319D01*
X241000Y-136729D01*
X240681Y-136771D01*
X237230D01*
X236744Y-135597D01*
X250967Y-121375D01*
X264371D01*
X265858Y-121079D01*
X267118Y-120237D01*
X287046Y-100309D01*
X287888Y-99049D01*
X287935Y-98812D01*
X287956Y-98798D01*
X289293Y-98495D01*
X290263Y-99759D01*
X292385Y-101388D01*
X294856Y-102411D01*
X297509Y-102760D01*
X300161Y-102411D01*
X302633Y-101388D01*
X304755Y-99759D01*
X306384Y-97637D01*
X307407Y-95165D01*
X307757Y-92513D01*
X307407Y-89860D01*
X306384Y-87389D01*
X304755Y-85267D01*
X302633Y-83638D01*
X300161Y-82614D01*
X297509Y-82265D01*
X294856Y-82614D01*
X292385Y-83638D01*
X290263Y-85267D01*
X289453Y-86321D01*
X288183Y-85890D01*
Y-82613D01*
X288992Y-81992D01*
X290114Y-80530D01*
X290820Y-78827D01*
X291060Y-77000D01*
X290820Y-75173D01*
X290114Y-73470D01*
X288992Y-72008D01*
X287530Y-70886D01*
X285827Y-70180D01*
X284000Y-69940D01*
X282173Y-70180D01*
X280470Y-70886D01*
X279007Y-72008D01*
X277885Y-73470D01*
X277180Y-75173D01*
X276940Y-77000D01*
X277180Y-78827D01*
X277885Y-80530D01*
X279007Y-81992D01*
X280414Y-83072D01*
Y-84754D01*
X279144Y-85105D01*
X277233Y-83638D01*
X274761Y-82614D01*
X272109Y-82265D01*
X269457Y-82614D01*
X266985Y-83638D01*
X264863Y-85267D01*
X264622Y-85581D01*
X263313Y-85200D01*
X263256Y-84558D01*
X263992Y-83992D01*
X265114Y-82530D01*
X265820Y-80827D01*
X266060Y-79000D01*
X265820Y-77173D01*
X265114Y-75470D01*
X263992Y-74008D01*
X262530Y-72885D01*
X260827Y-72180D01*
X259000Y-71940D01*
X257173Y-72180D01*
X255470Y-72885D01*
X254007Y-74008D01*
X252885Y-75470D01*
X252180Y-77173D01*
X251940Y-79000D01*
X252180Y-80827D01*
X252885Y-82530D01*
X253473Y-83296D01*
X252567Y-84202D01*
X251833Y-83638D01*
X250593Y-83125D01*
Y-72311D01*
X250298Y-70825D01*
X249456Y-69564D01*
X244729Y-64838D01*
X245215Y-63665D01*
X333171D01*
X344115Y-74609D01*
D02*
G37*
G36*
X24776Y-49750D02*
X25268Y-52228D01*
X26672Y-54328D01*
X28772Y-55732D01*
X31250Y-56224D01*
X33728Y-55732D01*
X35828Y-54328D01*
X36256Y-53688D01*
X37526Y-54074D01*
Y-61300D01*
X38018Y-63778D01*
X39422Y-65878D01*
X41522Y-67282D01*
X44000Y-67774D01*
X46478Y-67282D01*
X48578Y-65878D01*
X49982Y-63778D01*
X50474Y-61300D01*
Y-49729D01*
X51744Y-49344D01*
X52572Y-50583D01*
X78067Y-76078D01*
X80168Y-77482D01*
X82646Y-77974D01*
X137963D01*
X138634Y-78646D01*
Y-84674D01*
X137863Y-85267D01*
X136234Y-87389D01*
X135210Y-89860D01*
X134861Y-92513D01*
X135210Y-95165D01*
X136234Y-97637D01*
X137863Y-99759D01*
X139985Y-101388D01*
X142457Y-102411D01*
X145109Y-102760D01*
X147761Y-102411D01*
X150233Y-101388D01*
X152355Y-99759D01*
X153984Y-97637D01*
X155007Y-95165D01*
X155357Y-92513D01*
X155007Y-89860D01*
X153984Y-87389D01*
X152355Y-85267D01*
X151583Y-84674D01*
Y-75964D01*
X151090Y-73486D01*
X149687Y-71386D01*
X147289Y-68988D01*
X147775Y-67814D01*
X158658D01*
X164034Y-73191D01*
Y-84674D01*
X163263Y-85267D01*
X161634Y-87389D01*
X160610Y-89860D01*
X160261Y-92513D01*
X160610Y-95165D01*
X161634Y-97637D01*
X163263Y-99759D01*
X165385Y-101388D01*
X167857Y-102411D01*
X170509Y-102760D01*
X173161Y-102411D01*
X175633Y-101388D01*
X177755Y-99759D01*
X179384Y-97637D01*
X180407Y-95165D01*
X180756Y-92513D01*
X180407Y-89860D01*
X179384Y-87389D01*
X177755Y-85267D01*
X176983Y-84674D01*
Y-70509D01*
X176668Y-68927D01*
X177812Y-68163D01*
X178239Y-68449D01*
X179726Y-68745D01*
X214596D01*
X215249Y-69791D01*
X215236Y-70015D01*
X214762Y-72400D01*
X215248Y-74846D01*
X216634Y-76920D01*
X217347Y-77397D01*
Y-83157D01*
X216185Y-83638D01*
X214063Y-85267D01*
X212434Y-87389D01*
X211410Y-89860D01*
X211061Y-92513D01*
X211410Y-95165D01*
X212434Y-97637D01*
X214063Y-99759D01*
X216185Y-101388D01*
X218657Y-102411D01*
X221309Y-102760D01*
X223961Y-102411D01*
X226433Y-101388D01*
X228555Y-99759D01*
X230184Y-97637D01*
X231207Y-95165D01*
X231556Y-92513D01*
X231207Y-89860D01*
X230184Y-87389D01*
X228555Y-85267D01*
X226433Y-83638D01*
X225116Y-83093D01*
Y-77294D01*
X225675Y-76920D01*
X227061Y-74846D01*
X227547Y-72400D01*
X227073Y-70015D01*
X227059Y-69791D01*
X227713Y-68745D01*
X237648D01*
X242824Y-73920D01*
Y-83125D01*
X241585Y-83638D01*
X239463Y-85267D01*
X237834Y-87389D01*
X236810Y-89860D01*
X236461Y-92513D01*
X236810Y-95165D01*
X237834Y-97637D01*
X239463Y-99759D01*
X241585Y-101388D01*
X244056Y-102411D01*
X246709Y-102760D01*
X249361Y-102411D01*
X250388Y-101986D01*
X251107Y-103063D01*
X221603Y-132567D01*
X220761Y-133827D01*
X220465Y-135314D01*
Y-185687D01*
X219292Y-186173D01*
X216799Y-183680D01*
X214698Y-182276D01*
X212221Y-181783D01*
X197241D01*
X194763Y-182276D01*
X194654Y-182349D01*
X193351Y-181692D01*
X193321Y-181050D01*
X204020Y-170351D01*
X212944D01*
Y-154271D01*
X194864D01*
Y-161194D01*
X182012Y-174046D01*
X181744Y-174447D01*
X180474Y-174062D01*
Y-171682D01*
X189254Y-162902D01*
X190657Y-160802D01*
X191150Y-158324D01*
Y-137676D01*
X190657Y-135198D01*
X189254Y-133098D01*
X182578Y-126422D01*
X180478Y-125018D01*
X178000Y-124526D01*
X101000D01*
X99891Y-124746D01*
X99266Y-123576D01*
X100216Y-122625D01*
X100385Y-122738D01*
X102832Y-123224D01*
X105278Y-122738D01*
X107352Y-121352D01*
X108738Y-119278D01*
X109224Y-116832D01*
X108738Y-114385D01*
X107352Y-112311D01*
X107117Y-110627D01*
X107906Y-109446D01*
X108393Y-107000D01*
X107906Y-104553D01*
X106520Y-102480D01*
X104446Y-101094D01*
X102000Y-100607D01*
X99554Y-101094D01*
X97480Y-102480D01*
X96094Y-104553D01*
X95607Y-107000D01*
X95756Y-107750D01*
X66595Y-136911D01*
X65753Y-138172D01*
X65457Y-139658D01*
Y-157453D01*
X64187Y-157922D01*
X64040Y-157750D01*
Y-154271D01*
X58918D01*
X58024Y-154093D01*
X57130Y-154271D01*
X47318D01*
Y-133576D01*
X71090Y-109805D01*
X76055D01*
X76480Y-110440D01*
X78554Y-111826D01*
X81000Y-112313D01*
X83446Y-111826D01*
X85520Y-110440D01*
X86906Y-108366D01*
X87393Y-105920D01*
X86906Y-103474D01*
X86158Y-102354D01*
X86367Y-102214D01*
X87753Y-100140D01*
X88239Y-97694D01*
X87753Y-95247D01*
X86367Y-93173D01*
X85989Y-92921D01*
X86025Y-91417D01*
X87459Y-90459D01*
X88845Y-88385D01*
X89331Y-85938D01*
X88845Y-83492D01*
X87459Y-81418D01*
X85385Y-80032D01*
X82938Y-79546D01*
X80492Y-80032D01*
X78418Y-81418D01*
X77993Y-82054D01*
X48466D01*
X46979Y-82350D01*
X45719Y-83192D01*
X6975Y-121935D01*
X-28571D01*
X-39253Y-111253D01*
X-40513Y-110411D01*
X-42000Y-110115D01*
X-50055D01*
X-50480Y-109480D01*
X-51741Y-108637D01*
X-51445Y-107307D01*
X-49451Y-106910D01*
X-47351Y-105507D01*
X-1772Y-59928D01*
X-368Y-57828D01*
X124Y-55350D01*
Y-42790D01*
X24776D01*
Y-49750D01*
D02*
G37*
G36*
X13460Y-128097D02*
Y-136040D01*
X13770D01*
X14296Y-137310D01*
X12012Y-139595D01*
X1874D01*
Y-135190D01*
X-6179D01*
X-6416Y-135158D01*
X-6653Y-135190D01*
X-14706D01*
Y-136602D01*
X-15976Y-137205D01*
X-17235Y-136238D01*
X-19252Y-135403D01*
X-21416Y-135118D01*
X-23580Y-135403D01*
X-25597Y-136238D01*
X-27328Y-137567D01*
X-28140Y-138625D01*
X-29692D01*
X-30503Y-137567D01*
X-30684Y-137429D01*
Y-133237D01*
X-31177Y-130759D01*
X-30381Y-129665D01*
X-30180Y-129705D01*
X8584D01*
X10071Y-129409D01*
X11331Y-128567D01*
X12287Y-127611D01*
X13460Y-128097D01*
D02*
G37*
G36*
X-500753Y90920D02*
X-506369D01*
Y74804D01*
X-536670D01*
X-537940Y74552D01*
X-539210Y75594D01*
Y79747D01*
X-539177Y80000D01*
X-539210Y80253D01*
Y88540D01*
X-547497D01*
X-547750Y88573D01*
X-548003Y88540D01*
X-556290D01*
Y80253D01*
X-556323Y80000D01*
X-556290Y79747D01*
Y71460D01*
X-548003D01*
X-547750Y71427D01*
X-547497Y71460D01*
X-543736D01*
X-543039Y70190D01*
X-543474Y68000D01*
X-542982Y65522D01*
X-541578Y63422D01*
X-539478Y62018D01*
X-537000Y61526D01*
X-535341Y61856D01*
X-506369D01*
Y59584D01*
X-551719D01*
X-569569Y77435D01*
X-569430Y77771D01*
X-569136Y80000D01*
X-569430Y82229D01*
X-570290Y84307D01*
X-571659Y86091D01*
X-573443Y87460D01*
X-575521Y88320D01*
X-577750Y88614D01*
X-579979Y88320D01*
X-582057Y87460D01*
X-583841Y86091D01*
X-585210Y84307D01*
X-586070Y82229D01*
X-586364Y80000D01*
X-586070Y77771D01*
X-585210Y75693D01*
X-583841Y73909D01*
X-582902Y73189D01*
X-582893Y73144D01*
X-581490Y71044D01*
X-558978Y48532D01*
X-556878Y47129D01*
X-556290Y47011D01*
Y39631D01*
X-556323Y39378D01*
X-556290Y39124D01*
Y32742D01*
X-565499D01*
X-569569Y36812D01*
X-569430Y37148D01*
X-569136Y39378D01*
X-569430Y41607D01*
X-570290Y43684D01*
X-571659Y45468D01*
X-573443Y46837D01*
X-575521Y47698D01*
X-577750Y47991D01*
X-579979Y47698D01*
X-582057Y46837D01*
X-583841Y45468D01*
X-585210Y43684D01*
X-586070Y41607D01*
X-586364Y39378D01*
X-586070Y37148D01*
X-585210Y35071D01*
X-583841Y33287D01*
X-582902Y32567D01*
X-582893Y32522D01*
X-581490Y30421D01*
X-572758Y21690D01*
X-571063Y20557D01*
X-570722Y19102D01*
X-581490Y8334D01*
X-582893Y6234D01*
X-582902Y6188D01*
X-583841Y5468D01*
X-585210Y3684D01*
X-586070Y1607D01*
X-586364Y-622D01*
X-586070Y-2852D01*
X-585210Y-4929D01*
X-583841Y-6713D01*
X-582057Y-8082D01*
X-579979Y-8943D01*
X-577750Y-9236D01*
X-575521Y-8943D01*
X-573443Y-8082D01*
X-571659Y-6713D01*
X-570290Y-4929D01*
X-569430Y-2852D01*
X-569136Y-622D01*
X-569430Y1607D01*
X-569569Y1943D01*
X-561879Y9633D01*
X-520630D01*
X-520144Y8460D01*
X-538063Y-9459D01*
X-539210Y-8810D01*
X-539210Y-8038D01*
Y-876D01*
X-539177Y-622D01*
X-539210Y-369D01*
Y7918D01*
X-547497D01*
X-547750Y7951D01*
X-548003Y7918D01*
X-556290D01*
Y-369D01*
X-556323Y-622D01*
X-556290Y-876D01*
Y-9162D01*
X-548003D01*
X-547750Y-9196D01*
X-547497Y-9162D01*
X-540424D01*
X-539562Y-9162D01*
X-538913Y-10310D01*
X-543379Y-14776D01*
X-561290D01*
X-563768Y-15268D01*
X-565868Y-16672D01*
X-581490Y-32294D01*
X-582893Y-34394D01*
X-582902Y-34439D01*
X-583841Y-35159D01*
X-585210Y-36943D01*
X-586070Y-39021D01*
X-586364Y-41250D01*
X-586070Y-43479D01*
X-585210Y-45557D01*
X-583841Y-47341D01*
X-582057Y-48710D01*
X-579979Y-49570D01*
X-577750Y-49864D01*
X-575521Y-49570D01*
X-573443Y-48710D01*
X-571659Y-47341D01*
X-570290Y-45557D01*
X-569430Y-43479D01*
X-569136Y-41250D01*
X-569430Y-39021D01*
X-569569Y-38685D01*
X-558609Y-27724D01*
X-540698D01*
X-538220Y-27232D01*
X-536120Y-25828D01*
X-511446Y-1154D01*
X-484260D01*
X-483774Y-2328D01*
X-541972Y-60526D01*
X-612597D01*
X-615075Y-61018D01*
X-617175Y-62422D01*
X-625728Y-70975D01*
X-626621Y-72311D01*
X-626725Y-72415D01*
X-627586Y-73704D01*
X-629119Y-74881D01*
X-630495Y-76673D01*
X-631359Y-78760D01*
X-631654Y-81000D01*
X-631359Y-83240D01*
X-630495Y-85327D01*
X-629119Y-87119D01*
X-627327Y-88495D01*
X-625240Y-89359D01*
X-623000Y-89654D01*
X-620760Y-89359D01*
X-618673Y-88495D01*
X-616881Y-87119D01*
X-616300Y-86363D01*
X-614700D01*
X-614119Y-87119D01*
X-612327Y-88495D01*
X-610240Y-89359D01*
X-608000Y-89654D01*
X-605760Y-89359D01*
X-603673Y-88495D01*
X-601881Y-87119D01*
X-601300Y-86363D01*
X-599700D01*
X-599119Y-87119D01*
X-597327Y-88495D01*
X-595240Y-89359D01*
X-593000Y-89654D01*
X-590760Y-89359D01*
X-588673Y-88495D01*
X-586881Y-87119D01*
X-586300Y-86363D01*
X-584700D01*
X-584119Y-87119D01*
X-582327Y-88495D01*
X-580240Y-89359D01*
X-578000Y-89654D01*
X-575760Y-89359D01*
X-573673Y-88495D01*
X-571881Y-87119D01*
X-571300Y-86363D01*
X-569700D01*
X-569119Y-87119D01*
X-567327Y-88495D01*
X-565240Y-89359D01*
X-563000Y-89654D01*
X-560760Y-89359D01*
X-558673Y-88495D01*
X-556881Y-87119D01*
X-555505Y-85327D01*
X-554641Y-83240D01*
X-554346Y-81000D01*
X-554641Y-78760D01*
X-555505Y-76673D01*
X-556881Y-74881D01*
X-557058Y-74744D01*
X-556627Y-73474D01*
X-539290D01*
X-536813Y-72982D01*
X-534712Y-71578D01*
X-474608Y-11474D01*
X-311432D01*
X-310177Y-11225D01*
X-309552Y-12395D01*
X-354172Y-57016D01*
X-512490D01*
X-514968Y-57508D01*
X-517068Y-58912D01*
X-532717Y-74561D01*
X-534121Y-76661D01*
X-534613Y-79139D01*
Y-106457D01*
X-572078Y-143922D01*
X-573482Y-146022D01*
X-573974Y-148500D01*
Y-161088D01*
X-575396Y-162941D01*
X-576307Y-165140D01*
X-576618Y-167500D01*
X-576307Y-169860D01*
X-575396Y-172059D01*
X-573947Y-173947D01*
X-572059Y-175396D01*
X-569860Y-176307D01*
X-567500Y-176618D01*
X-565140Y-176307D01*
X-562941Y-175396D01*
X-561053Y-173947D01*
X-559604Y-172059D01*
X-558693Y-169860D01*
X-558382Y-167500D01*
X-558693Y-165140D01*
X-559604Y-162941D01*
X-561026Y-161088D01*
Y-151182D01*
X-523561Y-113717D01*
X-522158Y-111617D01*
X-521665Y-109139D01*
Y-81821D01*
X-509808Y-69964D01*
X-351490D01*
X-349012Y-69472D01*
X-346912Y-68068D01*
X-300158Y-21314D01*
X-234090D01*
X-231612Y-20822D01*
X-229512Y-19418D01*
X-203305Y6789D01*
X-201901Y8889D01*
X-201409Y11367D01*
Y81794D01*
X-187977Y95226D01*
X-122427D01*
X-121901Y93956D01*
X-122801Y92782D01*
X-123557Y90958D01*
X-123815Y89000D01*
X-123557Y87042D01*
X-122801Y85218D01*
X-121599Y83651D01*
X-120927Y83135D01*
Y81865D01*
X-121599Y81349D01*
X-122801Y79782D01*
X-123557Y77958D01*
X-123815Y76000D01*
X-123557Y74042D01*
X-122801Y72218D01*
X-121599Y70651D01*
X-120927Y70135D01*
Y68865D01*
X-121599Y68349D01*
X-122801Y66782D01*
X-123557Y64958D01*
X-123815Y63000D01*
X-123557Y61042D01*
X-122801Y59218D01*
X-121743Y57839D01*
X-121578Y57137D01*
Y56863D01*
X-121743Y56161D01*
X-122801Y54782D01*
X-123557Y52958D01*
X-123815Y51000D01*
X-123557Y49042D01*
X-122801Y47218D01*
X-121743Y45839D01*
X-121578Y45137D01*
Y44863D01*
X-121743Y44161D01*
X-122801Y42782D01*
X-123557Y40958D01*
X-123815Y39000D01*
X-123557Y37042D01*
X-122801Y35218D01*
X-121599Y33651D01*
X-120927Y33135D01*
Y31865D01*
X-121599Y31349D01*
X-122801Y29782D01*
X-123557Y27958D01*
X-123815Y26000D01*
X-123557Y24042D01*
X-122801Y22218D01*
X-121599Y20651D01*
X-120927Y20135D01*
Y18865D01*
X-121599Y18349D01*
X-122801Y16782D01*
X-123557Y14958D01*
X-123815Y13000D01*
X-123557Y11042D01*
X-122801Y9218D01*
X-121599Y7651D01*
X-120032Y6449D01*
X-118208Y5693D01*
X-118075Y5676D01*
X-117744Y4351D01*
X-124046Y-1951D01*
X-125449Y-4052D01*
X-125942Y-6529D01*
Y-47216D01*
X-125449Y-49694D01*
X-124046Y-51794D01*
X-107884Y-67956D01*
Y-132590D01*
X-107392Y-135068D01*
X-105988Y-137168D01*
X-80539Y-162618D01*
X-78438Y-164021D01*
X-75960Y-164514D01*
X-25880D01*
X-23402Y-164021D01*
X-21302Y-162618D01*
X-17580Y-158896D01*
X-16177Y-156796D01*
X-15684Y-154318D01*
Y-152474D01*
X-14706Y-151770D01*
X-6653D01*
X-6416Y-151801D01*
X-6179Y-151770D01*
X1874D01*
Y-147364D01*
X12437D01*
X13460Y-147960D01*
X13460Y-148634D01*
Y-161040D01*
X15115D01*
Y-165989D01*
X13002Y-166409D01*
X10928Y-167795D01*
X9542Y-169869D01*
X9056Y-172315D01*
X9542Y-174762D01*
X10928Y-176836D01*
X12302Y-177754D01*
X11916Y-179024D01*
X2049D01*
X562Y-179319D01*
X-698Y-180162D01*
X-8635Y-188099D01*
X-9562Y-187715D01*
X-12052Y-187387D01*
X-14543Y-187715D01*
X-16863Y-188676D01*
X-18856Y-190206D01*
X-20385Y-192199D01*
X-21347Y-194519D01*
X-21675Y-197010D01*
X-21347Y-199500D01*
X-20385Y-201821D01*
X-18856Y-203814D01*
X-16863Y-205343D01*
X-14543Y-206304D01*
X-12052Y-206632D01*
X-9562Y-206304D01*
X-7241Y-205343D01*
X-5248Y-203814D01*
X-3719Y-201821D01*
X-2758Y-199500D01*
X-2430Y-197010D01*
X-2758Y-194519D01*
X-3142Y-193593D01*
X3658Y-186793D01*
X20092D01*
X21578Y-186497D01*
X22838Y-185655D01*
X32997Y-175497D01*
X33839Y-174237D01*
X34135Y-172750D01*
Y-122389D01*
X54945Y-101578D01*
X66835D01*
X67220Y-102848D01*
X66734Y-103173D01*
X40686Y-129221D01*
X39844Y-130481D01*
X39548Y-131967D01*
Y-171708D01*
X24541Y-186716D01*
X23699Y-187976D01*
X23403Y-189462D01*
Y-221811D01*
X-8135Y-253349D01*
X-9062Y-252965D01*
X-11552Y-252637D01*
X-14043Y-252965D01*
X-16364Y-253927D01*
X-18356Y-255456D01*
X-19885Y-257449D01*
X-20847Y-259769D01*
X-21175Y-262260D01*
X-20847Y-264750D01*
X-19885Y-267071D01*
X-18356Y-269064D01*
X-16364Y-270593D01*
X-14763Y-271256D01*
X-15016Y-272526D01*
X-33089D01*
X-33341Y-271256D01*
X-31741Y-270593D01*
X-29748Y-269064D01*
X-28219Y-267071D01*
X-27258Y-264750D01*
X-26930Y-262260D01*
X-27258Y-259769D01*
X-28219Y-257449D01*
X-29748Y-255456D01*
X-31741Y-253927D01*
X-34062Y-252965D01*
X-36552Y-252637D01*
X-39043Y-252965D01*
X-41364Y-253927D01*
X-43356Y-255456D01*
X-44886Y-257449D01*
X-45847Y-259769D01*
X-46175Y-262260D01*
X-45847Y-264750D01*
X-44886Y-267071D01*
X-43356Y-269064D01*
X-41364Y-270593D01*
X-39764Y-271256D01*
X-40016Y-272526D01*
X-58089D01*
X-58341Y-271256D01*
X-56741Y-270593D01*
X-54748Y-269064D01*
X-53219Y-267071D01*
X-52258Y-264750D01*
X-51930Y-262260D01*
X-52258Y-259769D01*
X-53219Y-257449D01*
X-54748Y-255456D01*
X-56741Y-253927D01*
X-57668Y-253543D01*
Y-238843D01*
X-57963Y-237356D01*
X-58805Y-236096D01*
X-72385Y-222516D01*
X-73646Y-221674D01*
X-75132Y-221379D01*
X-122149D01*
X-122868Y-220109D01*
X-122846Y-220072D01*
X-59043D01*
X-57557Y-219776D01*
X-56296Y-218934D01*
X-42340Y-204978D01*
X-41863Y-205343D01*
X-39543Y-206304D01*
X-37052Y-206632D01*
X-34562Y-206304D01*
X-32241Y-205343D01*
X-30248Y-203814D01*
X-28719Y-201821D01*
X-27758Y-199500D01*
X-27430Y-197010D01*
X-27758Y-194519D01*
X-28719Y-192199D01*
X-30248Y-190206D01*
X-32241Y-188676D01*
X-34562Y-187715D01*
X-37052Y-187387D01*
X-39543Y-187715D01*
X-41863Y-188676D01*
X-43856Y-190206D01*
X-45385Y-192199D01*
X-46347Y-194519D01*
X-46675Y-197010D01*
X-46522Y-198172D01*
X-60652Y-212303D01*
X-124242D01*
X-124667Y-211667D01*
X-126741Y-210281D01*
X-129187Y-209795D01*
X-131634Y-210281D01*
X-133708Y-211667D01*
X-135094Y-213741D01*
X-135580Y-216187D01*
X-135094Y-218634D01*
X-133924Y-220385D01*
X-134459Y-220743D01*
X-135845Y-222817D01*
X-136332Y-225263D01*
X-135845Y-227710D01*
X-134459Y-229784D01*
X-132385Y-231169D01*
X-129939Y-231656D01*
X-127493Y-231169D01*
X-125419Y-229784D01*
X-124994Y-229148D01*
X-76741D01*
X-65437Y-240452D01*
Y-253543D01*
X-66364Y-253927D01*
X-68356Y-255456D01*
X-69886Y-257449D01*
X-70847Y-259769D01*
X-71175Y-262260D01*
X-70847Y-264750D01*
X-69886Y-267071D01*
X-68356Y-269064D01*
X-66364Y-270593D01*
X-64763Y-271256D01*
X-65016Y-272526D01*
X-83089D01*
X-83341Y-271256D01*
X-81741Y-270593D01*
X-79748Y-269064D01*
X-78219Y-267071D01*
X-77258Y-264750D01*
X-76930Y-262260D01*
X-77258Y-259769D01*
X-78219Y-257449D01*
X-79748Y-255456D01*
X-81741Y-253927D01*
X-84062Y-252965D01*
X-86552Y-252637D01*
X-89043Y-252965D01*
X-91363Y-253927D01*
X-93356Y-255456D01*
X-94886Y-257449D01*
X-95847Y-259769D01*
X-96175Y-262260D01*
X-95847Y-264750D01*
X-94886Y-267071D01*
X-93356Y-269064D01*
X-91363Y-270593D01*
X-89763Y-271256D01*
X-90016Y-272526D01*
X-101043D01*
X-102012Y-271800D01*
X-102012Y-271256D01*
Y-262578D01*
X-101970Y-262260D01*
X-102012Y-261941D01*
Y-252720D01*
X-111234D01*
X-111552Y-252678D01*
X-111871Y-252720D01*
X-121092D01*
Y-261941D01*
X-121134Y-262260D01*
X-121092Y-262578D01*
Y-271256D01*
X-121092Y-271800D01*
X-122062Y-272526D01*
X-152430D01*
X-153534Y-271422D01*
X-155634Y-270018D01*
X-158112Y-269526D01*
X-163323D01*
Y-159598D01*
X-163816Y-157120D01*
X-165219Y-155020D01*
X-167320Y-153616D01*
X-169798Y-153123D01*
X-172275Y-153616D01*
X-174376Y-155020D01*
X-175779Y-157120D01*
X-176272Y-159598D01*
Y-269526D01*
X-224307D01*
X-224693Y-268256D01*
X-223862Y-267701D01*
X-211672Y-255511D01*
X-210268Y-253410D01*
X-209776Y-250933D01*
Y-182732D01*
X-192220Y-165176D01*
X-190816Y-163076D01*
X-190323Y-160598D01*
X-190816Y-158120D01*
X-192220Y-156020D01*
X-194320Y-154616D01*
X-196798Y-154123D01*
X-199275Y-154616D01*
X-201376Y-156020D01*
X-220828Y-175472D01*
X-222232Y-177573D01*
X-222724Y-180050D01*
Y-248251D01*
X-231122Y-256648D01*
X-248320D01*
Y-241193D01*
X-265400D01*
Y-242822D01*
X-268280D01*
Y-239571D01*
X-268280D01*
Y-238651D01*
X-268280D01*
Y-220474D01*
X-266196D01*
X-265525Y-221145D01*
Y-226543D01*
X-265400Y-227169D01*
Y-237273D01*
X-248320D01*
Y-220193D01*
X-252576D01*
Y-218464D01*
X-253069Y-215986D01*
X-254472Y-213886D01*
X-258936Y-209422D01*
X-261036Y-208018D01*
X-263514Y-207526D01*
X-265019D01*
X-266130Y-207142D01*
Y-191997D01*
X-285292D01*
Y-193095D01*
X-297760D01*
X-316725Y-174129D01*
Y-164051D01*
X-297960D01*
Y-161858D01*
X-285065D01*
Y-164179D01*
X-265902D01*
Y-149034D01*
X-276080D01*
X-276706Y-148909D01*
X-297960D01*
Y-137171D01*
X-302026D01*
Y-132146D01*
X-298437Y-128557D01*
X-266256D01*
X-266109Y-128747D01*
X-266137Y-128908D01*
X-267182Y-130017D01*
X-285065D01*
Y-145162D01*
X-265902D01*
X-265023Y-146068D01*
Y-146138D01*
X-247943D01*
Y-129827D01*
X-247943Y-129058D01*
X-246881Y-128557D01*
X-134323D01*
X-131846Y-128064D01*
X-129745Y-126661D01*
X-128342Y-124560D01*
X-127849Y-122083D01*
X-128342Y-119605D01*
X-129745Y-117505D01*
Y-116717D01*
X-129422Y-116501D01*
X-128018Y-114400D01*
X-127526Y-111923D01*
X-128018Y-109445D01*
X-129422Y-107345D01*
X-131522Y-105941D01*
X-134000Y-105448D01*
X-308362D01*
X-310840Y-105941D01*
X-311479Y-106368D01*
X-312422Y-105578D01*
X-311018Y-103478D01*
X-310526Y-101000D01*
Y-54956D01*
X-299642Y-44072D01*
X-226760D01*
X-224282Y-43579D01*
X-222182Y-42176D01*
X-169422Y10584D01*
X-168018Y12684D01*
X-167526Y15162D01*
Y23000D01*
X-168018Y25478D01*
X-169422Y27578D01*
X-171522Y28982D01*
X-174000Y29474D01*
X-176478Y28982D01*
X-178578Y27578D01*
X-179982Y25478D01*
X-180474Y23000D01*
Y17844D01*
X-229442Y-31123D01*
X-302324D01*
X-304802Y-31616D01*
X-306902Y-33020D01*
X-321578Y-47696D01*
X-322982Y-49796D01*
X-323474Y-52274D01*
Y-88288D01*
X-324744Y-88541D01*
X-325544Y-86610D01*
X-327172Y-84488D01*
X-329295Y-82860D01*
X-331766Y-81836D01*
X-334419Y-81487D01*
X-337071Y-81836D01*
X-339543Y-82860D01*
X-341665Y-84488D01*
X-343293Y-86610D01*
X-344317Y-89082D01*
X-344666Y-91734D01*
X-344317Y-94387D01*
X-343293Y-96858D01*
X-341665Y-98981D01*
X-339543Y-100609D01*
X-337071Y-101633D01*
X-334419Y-101982D01*
X-331766Y-101633D01*
X-329295Y-100609D01*
X-327172Y-98981D01*
X-325544Y-96858D01*
X-324744Y-94928D01*
X-323474Y-95181D01*
Y-98318D01*
X-336242Y-111086D01*
X-368218D01*
X-368744Y-109816D01*
X-360783Y-101855D01*
X-359819Y-101982D01*
X-357166Y-101633D01*
X-354695Y-100609D01*
X-352572Y-98981D01*
X-350944Y-96858D01*
X-349920Y-94387D01*
X-349571Y-91734D01*
X-349920Y-89082D01*
X-350944Y-86610D01*
X-352572Y-84488D01*
X-354695Y-82860D01*
X-357166Y-81836D01*
X-359819Y-81487D01*
X-362471Y-81836D01*
X-364943Y-82860D01*
X-367065Y-84488D01*
X-368693Y-86610D01*
X-369717Y-89082D01*
X-370066Y-91734D01*
X-369939Y-92699D01*
X-376586Y-99346D01*
X-376633Y-99322D01*
X-376993Y-97705D01*
X-376344Y-96858D01*
X-375320Y-94387D01*
X-374971Y-91734D01*
X-375320Y-89082D01*
X-376344Y-86610D01*
X-377972Y-84488D01*
X-380095Y-82860D01*
X-382566Y-81836D01*
X-385219Y-81487D01*
X-387871Y-81836D01*
X-390342Y-82860D01*
X-392465Y-84488D01*
X-394093Y-86610D01*
X-395117Y-89082D01*
X-395466Y-91734D01*
X-395117Y-94387D01*
X-394093Y-96858D01*
X-392665Y-98720D01*
X-393063Y-99990D01*
X-402774D01*
X-403172Y-98720D01*
X-401744Y-96858D01*
X-400720Y-94387D01*
X-400371Y-91734D01*
X-400720Y-89082D01*
X-401744Y-86610D01*
X-403372Y-84488D01*
X-405495Y-82860D01*
X-407966Y-81836D01*
X-410619Y-81487D01*
X-413271Y-81836D01*
X-415742Y-82860D01*
X-417865Y-84488D01*
X-419493Y-86610D01*
X-420517Y-89082D01*
X-420866Y-91734D01*
X-420517Y-94387D01*
X-419493Y-96858D01*
X-418065Y-98720D01*
X-418463Y-99990D01*
X-428174D01*
X-428572Y-98720D01*
X-427144Y-96858D01*
X-426120Y-94387D01*
X-425771Y-91734D01*
X-426120Y-89082D01*
X-427144Y-86610D01*
X-428772Y-84488D01*
X-430895Y-82860D01*
X-433366Y-81836D01*
X-436019Y-81487D01*
X-438671Y-81836D01*
X-441143Y-82860D01*
X-443265Y-84488D01*
X-444893Y-86610D01*
X-445917Y-89082D01*
X-446266Y-91734D01*
X-445917Y-94387D01*
X-444893Y-96858D01*
X-443465Y-98720D01*
X-443863Y-99990D01*
X-453402D01*
X-453666Y-99703D01*
X-453809Y-99499D01*
X-454041Y-98810D01*
X-452544Y-96858D01*
X-451520Y-94387D01*
X-451171Y-91734D01*
X-451520Y-89082D01*
X-452544Y-86610D01*
X-454172Y-84488D01*
X-456295Y-82860D01*
X-458766Y-81836D01*
X-461419Y-81487D01*
X-464071Y-81836D01*
X-466543Y-82860D01*
X-468665Y-84488D01*
X-470293Y-86610D01*
X-471317Y-89082D01*
X-471666Y-91734D01*
X-471317Y-94387D01*
X-470293Y-96858D01*
X-468665Y-98981D01*
X-466543Y-100609D01*
X-464071Y-101633D01*
X-461419Y-101982D01*
X-459709Y-101757D01*
X-459116Y-102960D01*
X-468578Y-112422D01*
X-469982Y-114522D01*
X-470474Y-117000D01*
X-469982Y-119478D01*
X-468578Y-121578D01*
X-466478Y-122982D01*
X-464000Y-123474D01*
X-461522Y-122982D01*
X-459422Y-121578D01*
X-450783Y-112939D01*
X-383830D01*
X-383304Y-114209D01*
X-389078Y-119983D01*
X-390482Y-122083D01*
X-390975Y-124561D01*
Y-137010D01*
X-398040D01*
Y-164090D01*
X-376960D01*
Y-137010D01*
X-378026D01*
Y-127242D01*
X-374818Y-124035D01*
X-333561D01*
X-331083Y-123542D01*
X-329513Y-122493D01*
X-328597Y-123409D01*
X-329181Y-124283D01*
X-329674Y-126760D01*
Y-144136D01*
X-337460D01*
Y-137171D01*
X-358540D01*
Y-149193D01*
X-359810Y-149578D01*
X-360422Y-148663D01*
X-362522Y-147259D01*
X-365000Y-146766D01*
X-367478Y-147259D01*
X-369578Y-148663D01*
X-370982Y-150763D01*
X-371474Y-153241D01*
Y-203055D01*
X-370982Y-205533D01*
X-369578Y-207633D01*
X-361127Y-216084D01*
X-361753Y-217255D01*
X-362413Y-217123D01*
X-461213D01*
X-463690Y-217616D01*
X-465791Y-219020D01*
X-467546Y-220775D01*
X-470114D01*
X-470434Y-220838D01*
X-479412D01*
X-517329Y-182922D01*
X-519429Y-181518D01*
X-521907Y-181026D01*
X-561088D01*
X-562941Y-179604D01*
X-565140Y-178693D01*
X-567500Y-178382D01*
X-569860Y-178693D01*
X-572059Y-179604D01*
X-572571Y-179996D01*
X-579674D01*
X-581526Y-178145D01*
Y-165544D01*
X-582018Y-163067D01*
X-583422Y-160966D01*
X-599966Y-144422D01*
X-602066Y-143018D01*
X-604544Y-142526D01*
X-632318D01*
X-638160Y-136684D01*
Y79433D01*
X-609430D01*
X-606952Y79926D01*
X-604852Y81329D01*
X-588415Y97766D01*
X-500753D01*
Y90920D01*
D02*
G37*
G36*
X-69966Y-130190D02*
X-67865Y-131594D01*
X-65388Y-132087D01*
X-47465D01*
X-43633Y-135919D01*
Y-139267D01*
X-43657Y-139299D01*
X-44493Y-141315D01*
X-44777Y-143479D01*
X-44493Y-145644D01*
X-43657Y-147660D01*
X-42328Y-149392D01*
X-41151Y-150295D01*
X-41582Y-151565D01*
X-73279D01*
X-94936Y-129908D01*
Y-106880D01*
X-93762Y-106394D01*
X-69966Y-130190D01*
D02*
G37*
G36*
X482285Y-101388D02*
X484757Y-102411D01*
X487409Y-102760D01*
X490061Y-102411D01*
X492533Y-101388D01*
X494444Y-99921D01*
X495714Y-100271D01*
Y-140287D01*
X482005Y-153996D01*
X446124D01*
X445602Y-152726D01*
X446833Y-151122D01*
X447794Y-148801D01*
X448122Y-146311D01*
X447794Y-143820D01*
X447411Y-142894D01*
X477966Y-112339D01*
X478808Y-111078D01*
X479104Y-109592D01*
Y-100271D01*
X480373Y-99921D01*
X482285Y-101388D01*
D02*
G37*
G36*
X178201Y-140358D02*
Y-155642D01*
X169422Y-164422D01*
X168018Y-166522D01*
X167526Y-169000D01*
Y-187000D01*
X168018Y-189478D01*
X169422Y-191578D01*
X174999Y-197155D01*
X177099Y-198559D01*
X179577Y-199051D01*
X192921D01*
X195399Y-198559D01*
X197499Y-197155D01*
X199923Y-194732D01*
X209539D01*
X210210Y-195403D01*
Y-214771D01*
X202840D01*
X202214Y-214646D01*
X189708D01*
X189342Y-214573D01*
X186864Y-215066D01*
X184764Y-216470D01*
X183360Y-218570D01*
X182867Y-221048D01*
X183360Y-223525D01*
X184764Y-225626D01*
X184837Y-225699D01*
X186937Y-227102D01*
X189415Y-227595D01*
X194864D01*
Y-230682D01*
X193175Y-231018D01*
X191074Y-232422D01*
X168225Y-255271D01*
X160302D01*
Y-263195D01*
X153050Y-270446D01*
X136115D01*
X135489Y-269176D01*
X136301Y-268118D01*
X137162Y-266040D01*
X137455Y-263811D01*
X137162Y-261581D01*
X136301Y-259504D01*
X134932Y-257720D01*
X133149Y-256351D01*
X131071Y-255490D01*
X128842Y-255197D01*
X126612Y-255490D01*
X124535Y-256351D01*
X122751Y-257720D01*
X121382Y-259504D01*
X120521Y-261581D01*
X120228Y-263811D01*
X120521Y-266040D01*
X121382Y-268118D01*
X122194Y-269176D01*
X121568Y-270446D01*
X116115D01*
X115489Y-269176D01*
X116301Y-268118D01*
X117162Y-266040D01*
X117455Y-263811D01*
X117162Y-261581D01*
X116301Y-259504D01*
X114932Y-257720D01*
X113148Y-256351D01*
X111071Y-255490D01*
X108842Y-255197D01*
X106612Y-255490D01*
X104535Y-256351D01*
X102751Y-257720D01*
X101382Y-259504D01*
X100521Y-261581D01*
X100228Y-263811D01*
X100521Y-266040D01*
X101382Y-268118D01*
X102194Y-269176D01*
X101568Y-270446D01*
X96115D01*
X95489Y-269176D01*
X96301Y-268118D01*
X97162Y-266040D01*
X97455Y-263811D01*
X97162Y-261581D01*
X96301Y-259504D01*
X94932Y-257720D01*
X93148Y-256351D01*
X92726Y-256176D01*
Y-228759D01*
X92431Y-227272D01*
X91589Y-226012D01*
X89231Y-223654D01*
X89686Y-222313D01*
X91071Y-222131D01*
X93148Y-221270D01*
X94932Y-219902D01*
X96301Y-218118D01*
X97162Y-216040D01*
X97455Y-213811D01*
X97162Y-211581D01*
X96301Y-209504D01*
X94932Y-207720D01*
X93148Y-206351D01*
X91071Y-205490D01*
X88842Y-205197D01*
X86612Y-205490D01*
X86190Y-205665D01*
X78306Y-197782D01*
Y-144535D01*
X80787Y-142055D01*
X81960Y-142541D01*
Y-145992D01*
X81918Y-146311D01*
X81960Y-146629D01*
Y-155851D01*
X91181D01*
X91500Y-155893D01*
X91819Y-155851D01*
X101040D01*
Y-146629D01*
X101082Y-146311D01*
X101040Y-145992D01*
Y-137474D01*
X110258D01*
X110689Y-138744D01*
X109696Y-139507D01*
X108167Y-141500D01*
X107205Y-143820D01*
X106878Y-146311D01*
X107205Y-148801D01*
X108167Y-151122D01*
X109696Y-153115D01*
X111689Y-154644D01*
X114010Y-155605D01*
X116500Y-155933D01*
X118990Y-155605D01*
X121311Y-154644D01*
X123304Y-153115D01*
X124833Y-151122D01*
X125794Y-148801D01*
X126122Y-146311D01*
X125794Y-143820D01*
X124833Y-141500D01*
X123304Y-139507D01*
X122311Y-138744D01*
X122742Y-137474D01*
X135258D01*
X135689Y-138744D01*
X134696Y-139507D01*
X133167Y-141500D01*
X132205Y-143820D01*
X131878Y-146311D01*
X132205Y-148801D01*
X133167Y-151122D01*
X134696Y-153115D01*
X136689Y-154644D01*
X139010Y-155605D01*
X141500Y-155933D01*
X143990Y-155605D01*
X146311Y-154644D01*
X148304Y-153115D01*
X149833Y-151122D01*
X150794Y-148801D01*
X151122Y-146311D01*
X150794Y-143820D01*
X149833Y-141500D01*
X148304Y-139507D01*
X147311Y-138744D01*
X147742Y-137474D01*
X175318D01*
X178201Y-140358D01*
D02*
G37*
G36*
X78203Y-90137D02*
X78418Y-90459D01*
X78663Y-90623D01*
X78794Y-90761D01*
X78760Y-92215D01*
X77326Y-93173D01*
X76901Y-93809D01*
X53336D01*
X51849Y-94104D01*
X50589Y-94947D01*
X27503Y-118033D01*
X26661Y-119293D01*
X26365Y-120779D01*
Y-171141D01*
X22626Y-174880D01*
X21455Y-174255D01*
X21841Y-172315D01*
X21626Y-171236D01*
X21747Y-171116D01*
X22589Y-169855D01*
X22885Y-168369D01*
Y-161040D01*
X24540D01*
Y-147960D01*
X16059D01*
X15674Y-146690D01*
X16367Y-146226D01*
X21747Y-140847D01*
X22589Y-139587D01*
X22885Y-138100D01*
Y-136040D01*
X24540D01*
Y-122960D01*
X18597D01*
X18111Y-121787D01*
X50075Y-89823D01*
X77905D01*
X78203Y-90137D01*
D02*
G37*
G36*
X65457Y-163681D02*
Y-209259D01*
X65753Y-210746D01*
X66595Y-212006D01*
X84957Y-230368D01*
Y-256176D01*
X84535Y-256351D01*
X83244Y-257341D01*
X81974Y-256718D01*
Y-242500D01*
X81482Y-240022D01*
X80078Y-237922D01*
X70578Y-228422D01*
X68478Y-227018D01*
X66000Y-226526D01*
X65030D01*
X64040Y-225851D01*
Y-209771D01*
X52213D01*
X51900Y-209708D01*
X37448D01*
X34970Y-210201D01*
X32870Y-211605D01*
X32442Y-212244D01*
X31172Y-211859D01*
Y-191071D01*
X38379Y-183865D01*
X39549Y-184491D01*
X39478Y-184848D01*
X39971Y-187325D01*
X41374Y-189426D01*
X43475Y-190829D01*
X45952Y-191322D01*
X50635D01*
X53113Y-190829D01*
X55213Y-189426D01*
X60781Y-183859D01*
X62184Y-181758D01*
X62677Y-179281D01*
Y-170351D01*
X64040D01*
Y-163384D01*
X64187Y-163212D01*
X65457Y-163681D01*
D02*
G37*
G36*
X-329674Y-176811D02*
X-329181Y-179289D01*
X-327778Y-181389D01*
X-305020Y-204147D01*
X-302919Y-205551D01*
X-300441Y-206044D01*
X-286003D01*
X-285935Y-206450D01*
X-287041Y-207526D01*
X-334401D01*
X-334832Y-206256D01*
X-333651Y-205349D01*
X-332449Y-203782D01*
X-331693Y-201958D01*
X-331435Y-200000D01*
X-331693Y-198042D01*
X-332449Y-196218D01*
X-333651Y-194651D01*
X-335014Y-193605D01*
Y-186518D01*
X-333805Y-185590D01*
X-332683Y-184128D01*
X-331978Y-182425D01*
X-331737Y-180598D01*
X-331978Y-178771D01*
X-332683Y-177068D01*
X-333805Y-175605D01*
X-335267Y-174483D01*
X-336970Y-173778D01*
X-338798Y-173537D01*
X-340625Y-173778D01*
X-342328Y-174483D01*
X-343790Y-175605D01*
X-344912Y-177068D01*
X-345617Y-178771D01*
X-345858Y-180598D01*
X-345617Y-182425D01*
X-344912Y-184128D01*
X-343790Y-185590D01*
X-342783Y-186363D01*
Y-193450D01*
X-344349Y-194651D01*
X-345551Y-196218D01*
X-346307Y-198042D01*
X-346565Y-200000D01*
X-346307Y-201958D01*
X-345551Y-203782D01*
X-344349Y-205349D01*
X-343168Y-206256D01*
X-343599Y-207526D01*
X-351374D01*
X-358526Y-200374D01*
Y-164051D01*
X-337460D01*
Y-157085D01*
X-329674D01*
Y-176811D01*
D02*
G37*
G36*
X234615Y-167862D02*
Y-206176D01*
X234193Y-206351D01*
X232409Y-207720D01*
X231040Y-209504D01*
X230180Y-211581D01*
X230115Y-212073D01*
X228760Y-212634D01*
X228235Y-212231D01*
Y-163141D01*
X229408Y-162655D01*
X234615Y-167862D01*
D02*
G37*
G36*
X380682Y-195256D02*
X380714Y-195712D01*
X372683Y-203743D01*
X371841Y-205003D01*
X371545Y-206490D01*
Y-218189D01*
X371685Y-218892D01*
X370515Y-219517D01*
X368707Y-217710D01*
X366607Y-216306D01*
X364129Y-215813D01*
X362242D01*
Y-212558D01*
X344162D01*
Y-228638D01*
X355267D01*
X355892Y-228762D01*
X361447D01*
X361922Y-229237D01*
X363043Y-229986D01*
X362658Y-231256D01*
X340269D01*
X337792Y-231749D01*
X335691Y-233153D01*
X327922Y-240922D01*
X326518Y-243022D01*
X326026Y-245500D01*
Y-254475D01*
X325354Y-255146D01*
X320690D01*
X320064Y-255271D01*
X318753D01*
X318500Y-255237D01*
X318247Y-255271D01*
X309960D01*
Y-263195D01*
X302708Y-270446D01*
X285774D01*
X285147Y-269176D01*
X285960Y-268118D01*
X286820Y-266040D01*
X287114Y-263811D01*
X286820Y-261581D01*
X285960Y-259504D01*
X284591Y-257720D01*
X282807Y-256351D01*
X280729Y-255490D01*
X278500Y-255197D01*
X276271Y-255490D01*
X274193Y-256351D01*
X272409Y-257720D01*
X271040Y-259504D01*
X270180Y-261581D01*
X269886Y-263811D01*
X270180Y-266040D01*
X271040Y-268118D01*
X271853Y-269176D01*
X271226Y-270446D01*
X265774D01*
X265147Y-269176D01*
X265960Y-268118D01*
X266820Y-266040D01*
X267114Y-263811D01*
X266820Y-261581D01*
X265960Y-259504D01*
X264591Y-257720D01*
X262807Y-256351D01*
X260729Y-255490D01*
X258500Y-255197D01*
X256271Y-255490D01*
X254193Y-256351D01*
X252409Y-257720D01*
X251040Y-259504D01*
X250180Y-261581D01*
X249886Y-263811D01*
X250180Y-266040D01*
X251040Y-268118D01*
X251853Y-269176D01*
X251226Y-270446D01*
X245774D01*
X245147Y-269176D01*
X245960Y-268118D01*
X246820Y-266040D01*
X247114Y-263811D01*
X246820Y-261581D01*
X245960Y-259504D01*
X244591Y-257720D01*
X242807Y-256351D01*
X242385Y-256176D01*
Y-240781D01*
X243655Y-240103D01*
X244687Y-240792D01*
X247165Y-241285D01*
X301206D01*
X303683Y-240792D01*
X305784Y-239389D01*
X311128Y-234045D01*
X326795D01*
X329273Y-233552D01*
X331373Y-232149D01*
X336188Y-227334D01*
X337592Y-225233D01*
X338084Y-222756D01*
Y-194400D01*
X380231D01*
X380682Y-195256D01*
D02*
G37*
G36*
X-354055Y-220474D02*
X-288860D01*
Y-222886D01*
X-298350D01*
X-300828Y-223379D01*
X-302928Y-224783D01*
X-307116Y-228971D01*
X-319040D01*
Y-236036D01*
X-337460D01*
Y-228971D01*
X-349384D01*
X-356232Y-222123D01*
X-356395Y-221304D01*
X-355978Y-220647D01*
X-355532Y-220181D01*
X-354055Y-220474D01*
D02*
G37*
G36*
X-288860Y-238651D02*
X-288860D01*
Y-239571D01*
X-288860D01*
Y-256648D01*
X-296938D01*
X-297960Y-256051D01*
Y-238127D01*
X-295668Y-235835D01*
X-288860D01*
Y-238651D01*
D02*
G37*
G36*
X382957Y-231210D02*
Y-256176D01*
X382535Y-256351D01*
X381476Y-257163D01*
X380206Y-256537D01*
Y-245121D01*
X379713Y-242643D01*
X378310Y-240543D01*
X370920Y-233153D01*
X369070Y-231917D01*
X369009Y-231077D01*
X369017Y-230969D01*
X369125Y-230542D01*
X371078Y-229237D01*
X372482Y-227136D01*
X372974Y-224659D01*
X372568Y-222617D01*
X373739Y-221991D01*
X382957Y-231210D01*
D02*
G37*
G36*
X32870Y-220761D02*
X34970Y-222164D01*
X37448Y-222657D01*
X45960D01*
Y-225851D01*
X45048Y-226715D01*
X43522Y-227018D01*
X41422Y-228422D01*
X31422Y-238422D01*
X30018Y-240522D01*
X29526Y-243000D01*
Y-252394D01*
Y-263318D01*
X20318Y-272526D01*
X-8089D01*
X-8341Y-271256D01*
X-6741Y-270593D01*
X-4748Y-269064D01*
X-3219Y-267071D01*
X-2258Y-264750D01*
X-1930Y-262260D01*
X-2258Y-259769D01*
X-2642Y-258843D01*
X30034Y-226166D01*
X30877Y-224906D01*
X31172Y-223420D01*
Y-220507D01*
X32442Y-220121D01*
X32870Y-220761D01*
D02*
G37*
%LPC*%
G36*
X-8000Y95518D02*
X-10341Y95052D01*
X-12326Y93726D01*
X-13652Y91741D01*
X-14072Y89628D01*
X-14172Y89486D01*
X-14805Y89261D01*
X-15967Y89825D01*
X-16348Y91741D01*
X-17674Y93726D01*
X-19659Y95052D01*
X-22000Y95518D01*
X-24341Y95052D01*
X-26326Y93726D01*
X-27652Y91741D01*
X-28072Y89628D01*
X-28503Y89015D01*
X-29000Y88518D01*
X-31341Y88052D01*
X-33326Y86726D01*
X-34652Y84741D01*
X-35117Y82400D01*
X-34652Y80059D01*
X-33326Y78074D01*
X-31341Y76748D01*
X-29228Y76328D01*
X-29101Y76238D01*
X-28890Y75808D01*
X-28804Y74928D01*
X-28820Y74844D01*
X-29024Y74513D01*
X-31341Y74052D01*
X-33326Y72726D01*
X-34652Y70741D01*
X-35117Y68400D01*
X-34652Y66059D01*
X-33326Y64074D01*
X-31341Y62748D01*
X-29228Y62328D01*
X-28615Y61897D01*
X-28117Y61400D01*
X-27652Y59059D01*
X-26326Y57074D01*
X-24341Y55748D01*
X-22000Y55283D01*
X-19659Y55748D01*
X-17674Y57074D01*
X-16348Y59059D01*
X-15896Y61331D01*
X-15588Y61532D01*
X-14130Y61412D01*
X-14117Y61400D01*
X-13652Y59059D01*
X-12326Y57074D01*
X-10341Y55748D01*
X-8000Y55283D01*
X-5659Y55748D01*
X-3674Y57074D01*
X-2348Y59059D01*
X-1883Y61400D01*
X-1000Y62283D01*
X1341Y62748D01*
X3326Y64074D01*
X4652Y66059D01*
X5117Y68400D01*
X4652Y70741D01*
X3326Y72726D01*
X1341Y74052D01*
X-1000Y74518D01*
X-1012Y74530D01*
X-1132Y75988D01*
X-931Y76296D01*
X1341Y76748D01*
X3326Y78074D01*
X4652Y80059D01*
X5117Y82400D01*
X4652Y84741D01*
X3326Y86726D01*
X1341Y88052D01*
X-1000Y88518D01*
X-1497Y89015D01*
X-1928Y89628D01*
X-2348Y91741D01*
X-3674Y93726D01*
X-5659Y95052D01*
X-8000Y95518D01*
D02*
G37*
G36*
X436000Y393D02*
X433554Y-94D01*
X431480Y-1480D01*
X431055Y-2115D01*
X415945D01*
X415520Y-1480D01*
X413446Y-94D01*
X411000Y393D01*
X408554Y-94D01*
X406480Y-1480D01*
X406055Y-2115D01*
X389945D01*
X389520Y-1480D01*
X387446Y-94D01*
X385000Y393D01*
X382554Y-94D01*
X380480Y-1480D01*
X379094Y-3554D01*
X378607Y-6000D01*
X379094Y-8446D01*
X380480Y-10520D01*
X382554Y-11906D01*
X385000Y-12393D01*
X387446Y-11906D01*
X389520Y-10520D01*
X389945Y-9885D01*
X406055D01*
X406480Y-10520D01*
X408554Y-11906D01*
X411000Y-12393D01*
X413446Y-11906D01*
X415520Y-10520D01*
X415945Y-9885D01*
X431055D01*
X431480Y-10520D01*
X433554Y-11906D01*
X436000Y-12393D01*
X438446Y-11906D01*
X440520Y-10520D01*
X441906Y-8446D01*
X442393Y-6000D01*
X441906Y-3554D01*
X440520Y-1480D01*
X438446Y-94D01*
X436000Y393D01*
D02*
G37*
G36*
X291000Y-136688D02*
X288510Y-137016D01*
X286189Y-137978D01*
X284196Y-139507D01*
X282667Y-141500D01*
X281705Y-143820D01*
X281378Y-146311D01*
X281705Y-148801D01*
X282667Y-151122D01*
X284196Y-153115D01*
X286189Y-154644D01*
X288510Y-155605D01*
X291000Y-155933D01*
X293490Y-155605D01*
X295811Y-154644D01*
X297804Y-153115D01*
X299333Y-151122D01*
X300294Y-148801D01*
X300622Y-146311D01*
X300294Y-143820D01*
X299333Y-141500D01*
X297804Y-139507D01*
X295811Y-137978D01*
X293490Y-137016D01*
X291000Y-136688D01*
D02*
G37*
G36*
X266000D02*
X263510Y-137016D01*
X261189Y-137978D01*
X259196Y-139507D01*
X257667Y-141500D01*
X256705Y-143820D01*
X256378Y-146311D01*
X256705Y-148801D01*
X257667Y-151122D01*
X259196Y-153115D01*
X261189Y-154644D01*
X263510Y-155605D01*
X266000Y-155933D01*
X268490Y-155605D01*
X270811Y-154644D01*
X272804Y-153115D01*
X274333Y-151122D01*
X275294Y-148801D01*
X275622Y-146311D01*
X275294Y-143820D01*
X274333Y-141500D01*
X272804Y-139507D01*
X270811Y-137978D01*
X268490Y-137016D01*
X266000Y-136688D01*
D02*
G37*
G36*
X278500Y-205197D02*
X276271Y-205490D01*
X274193Y-206351D01*
X272409Y-207720D01*
X271040Y-209504D01*
X270180Y-211581D01*
X269886Y-213811D01*
X270180Y-216040D01*
X271040Y-218118D01*
X272409Y-219902D01*
X274193Y-221270D01*
X276271Y-222131D01*
X278500Y-222424D01*
X280729Y-222131D01*
X282807Y-221270D01*
X284591Y-219902D01*
X285960Y-218118D01*
X286820Y-216040D01*
X287114Y-213811D01*
X286820Y-211581D01*
X285960Y-209504D01*
X284591Y-207720D01*
X282807Y-206351D01*
X280729Y-205490D01*
X278500Y-205197D01*
D02*
G37*
G36*
X258500D02*
X256271Y-205490D01*
X254193Y-206351D01*
X252409Y-207720D01*
X251040Y-209504D01*
X250180Y-211581D01*
X249886Y-213811D01*
X250180Y-216040D01*
X251040Y-218118D01*
X252409Y-219902D01*
X254193Y-221270D01*
X256271Y-222131D01*
X258500Y-222424D01*
X260729Y-222131D01*
X262807Y-221270D01*
X264591Y-219902D01*
X265960Y-218118D01*
X266820Y-216040D01*
X267114Y-213811D01*
X266820Y-211581D01*
X265960Y-209504D01*
X264591Y-207720D01*
X262807Y-206351D01*
X260729Y-205490D01*
X258500Y-205197D01*
D02*
G37*
G36*
X195909Y-82265D02*
X193256Y-82614D01*
X190785Y-83638D01*
X188663Y-85267D01*
X187034Y-87389D01*
X186010Y-89860D01*
X185661Y-92513D01*
X186010Y-95165D01*
X187034Y-97637D01*
X188663Y-99759D01*
X190785Y-101388D01*
X193256Y-102411D01*
X195909Y-102760D01*
X198561Y-102411D01*
X201033Y-101388D01*
X203155Y-99759D01*
X204784Y-97637D01*
X205807Y-95165D01*
X206157Y-92513D01*
X205807Y-89860D01*
X204784Y-87389D01*
X203155Y-85267D01*
X201033Y-83638D01*
X198561Y-82614D01*
X195909Y-82265D01*
D02*
G37*
G36*
X-547750Y-32677D02*
X-548003Y-32710D01*
X-556290D01*
Y-40997D01*
X-556323Y-41250D01*
X-556290Y-41503D01*
Y-49790D01*
X-548003D01*
X-547750Y-49823D01*
X-547497Y-49790D01*
X-539210D01*
Y-41503D01*
X-539177Y-41250D01*
X-539210Y-40997D01*
Y-32710D01*
X-547497D01*
X-547750Y-32677D01*
D02*
G37*
G36*
X-486819Y-81487D02*
X-489471Y-81836D01*
X-491942Y-82860D01*
X-494065Y-84488D01*
X-495693Y-86610D01*
X-496717Y-89082D01*
X-497066Y-91734D01*
X-496717Y-94387D01*
X-495693Y-96858D01*
X-494065Y-98981D01*
X-491942Y-100609D01*
X-489471Y-101633D01*
X-486819Y-101982D01*
X-484166Y-101633D01*
X-481695Y-100609D01*
X-479572Y-98981D01*
X-477944Y-96858D01*
X-476920Y-94387D01*
X-476571Y-91734D01*
X-476920Y-89082D01*
X-477944Y-86610D01*
X-479572Y-84488D01*
X-481695Y-82860D01*
X-484166Y-81836D01*
X-486819Y-81487D01*
D02*
G37*
G36*
X-119680Y-81865D02*
X-122332Y-82214D01*
X-124804Y-83238D01*
X-126926Y-84867D01*
X-128555Y-86989D01*
X-129578Y-89460D01*
X-129928Y-92113D01*
X-129578Y-94765D01*
X-128555Y-97237D01*
X-126926Y-99359D01*
X-124804Y-100988D01*
X-122332Y-102011D01*
X-119680Y-102360D01*
X-117028Y-102011D01*
X-114556Y-100988D01*
X-112434Y-99359D01*
X-110805Y-97237D01*
X-109781Y-94765D01*
X-109432Y-92113D01*
X-109781Y-89460D01*
X-110805Y-86989D01*
X-112434Y-84867D01*
X-114556Y-83238D01*
X-117028Y-82214D01*
X-119680Y-81865D01*
D02*
G37*
G36*
X-145080D02*
X-147732Y-82214D01*
X-150204Y-83238D01*
X-152326Y-84867D01*
X-153955Y-86989D01*
X-154978Y-89460D01*
X-155328Y-92113D01*
X-154978Y-94765D01*
X-153955Y-97237D01*
X-152326Y-99359D01*
X-150204Y-100988D01*
X-147732Y-102011D01*
X-145080Y-102360D01*
X-142428Y-102011D01*
X-139956Y-100988D01*
X-137834Y-99359D01*
X-136205Y-97237D01*
X-135181Y-94765D01*
X-134832Y-92113D01*
X-135181Y-89460D01*
X-136205Y-86989D01*
X-137834Y-84867D01*
X-139956Y-83238D01*
X-142428Y-82214D01*
X-145080Y-81865D01*
D02*
G37*
G36*
X-170480D02*
X-173132Y-82214D01*
X-175604Y-83238D01*
X-177726Y-84867D01*
X-179355Y-86989D01*
X-180378Y-89460D01*
X-180728Y-92113D01*
X-180378Y-94765D01*
X-179355Y-97237D01*
X-177726Y-99359D01*
X-175604Y-100988D01*
X-173132Y-102011D01*
X-170480Y-102360D01*
X-167828Y-102011D01*
X-165356Y-100988D01*
X-163234Y-99359D01*
X-161605Y-97237D01*
X-160581Y-94765D01*
X-160232Y-92113D01*
X-160581Y-89460D01*
X-161605Y-86989D01*
X-163234Y-84867D01*
X-165356Y-83238D01*
X-167828Y-82214D01*
X-170480Y-81865D01*
D02*
G37*
G36*
X-195880D02*
X-198532Y-82214D01*
X-201004Y-83238D01*
X-203126Y-84867D01*
X-204755Y-86989D01*
X-205778Y-89460D01*
X-206128Y-92113D01*
X-205778Y-94765D01*
X-204755Y-97237D01*
X-203126Y-99359D01*
X-201004Y-100988D01*
X-198532Y-102011D01*
X-195880Y-102360D01*
X-193228Y-102011D01*
X-190756Y-100988D01*
X-188634Y-99359D01*
X-187005Y-97237D01*
X-185981Y-94765D01*
X-185632Y-92113D01*
X-185981Y-89460D01*
X-187005Y-86989D01*
X-188634Y-84867D01*
X-190756Y-83238D01*
X-193228Y-82214D01*
X-195880Y-81865D01*
D02*
G37*
G36*
X-221280D02*
X-223932Y-82214D01*
X-226404Y-83238D01*
X-228526Y-84867D01*
X-230155Y-86989D01*
X-231178Y-89460D01*
X-231528Y-92113D01*
X-231178Y-94765D01*
X-230155Y-97237D01*
X-228526Y-99359D01*
X-226404Y-100988D01*
X-223932Y-102011D01*
X-221280Y-102360D01*
X-218628Y-102011D01*
X-216156Y-100988D01*
X-214034Y-99359D01*
X-212405Y-97237D01*
X-211381Y-94765D01*
X-211032Y-92113D01*
X-211381Y-89460D01*
X-212405Y-86989D01*
X-214034Y-84867D01*
X-216156Y-83238D01*
X-218628Y-82214D01*
X-221280Y-81865D01*
D02*
G37*
G36*
X-246680D02*
X-249332Y-82214D01*
X-251804Y-83238D01*
X-253926Y-84867D01*
X-255555Y-86989D01*
X-256578Y-89460D01*
X-256928Y-92113D01*
X-256578Y-94765D01*
X-255555Y-97237D01*
X-253926Y-99359D01*
X-251804Y-100988D01*
X-249332Y-102011D01*
X-246680Y-102360D01*
X-244028Y-102011D01*
X-241556Y-100988D01*
X-239434Y-99359D01*
X-237805Y-97237D01*
X-236781Y-94765D01*
X-236432Y-92113D01*
X-236781Y-89460D01*
X-237805Y-86989D01*
X-239434Y-84867D01*
X-241556Y-83238D01*
X-244028Y-82214D01*
X-246680Y-81865D01*
D02*
G37*
G36*
X-272080D02*
X-274732Y-82214D01*
X-277204Y-83238D01*
X-279326Y-84867D01*
X-280955Y-86989D01*
X-281978Y-89460D01*
X-282328Y-92113D01*
X-281978Y-94765D01*
X-280955Y-97237D01*
X-279326Y-99359D01*
X-277204Y-100988D01*
X-274732Y-102011D01*
X-272080Y-102360D01*
X-269428Y-102011D01*
X-266956Y-100988D01*
X-264834Y-99359D01*
X-263205Y-97237D01*
X-262181Y-94765D01*
X-261832Y-92113D01*
X-262181Y-89460D01*
X-263205Y-86989D01*
X-264834Y-84867D01*
X-266956Y-83238D01*
X-269428Y-82214D01*
X-272080Y-81865D01*
D02*
G37*
G36*
X-422798Y-122123D02*
X-425275Y-122616D01*
X-427376Y-124020D01*
X-427638Y-124282D01*
X-429041Y-126383D01*
X-429534Y-128860D01*
Y-137010D01*
X-437790D01*
Y-164090D01*
X-416710D01*
Y-146986D01*
X-416586Y-146360D01*
Y-129917D01*
X-416323Y-128598D01*
X-416816Y-126120D01*
X-418219Y-124020D01*
X-420320Y-122616D01*
X-422798Y-122123D01*
D02*
G37*
G36*
X-539500Y-150838D02*
X-541978Y-151331D01*
X-544078Y-152735D01*
X-545481Y-154835D01*
X-545974Y-157313D01*
X-545481Y-159790D01*
X-544078Y-161891D01*
X-535391Y-170578D01*
X-533290Y-171982D01*
X-530813Y-172474D01*
X-482844D01*
Y-175918D01*
X-463764D01*
Y-155838D01*
X-482844D01*
Y-159526D01*
X-528131D01*
X-534922Y-152735D01*
X-537022Y-151331D01*
X-539500Y-150838D01*
D02*
G37*
G36*
X-248171Y-170021D02*
X-265251D01*
Y-172074D01*
X-266130Y-172980D01*
X-285292D01*
Y-188125D01*
X-266130D01*
Y-188007D01*
X-265251Y-187101D01*
X-248171D01*
Y-170021D01*
D02*
G37*
G36*
X-147798Y-161123D02*
X-150275Y-161616D01*
X-152376Y-163020D01*
X-153779Y-165120D01*
X-154272Y-167598D01*
Y-173058D01*
X-156838D01*
Y-189138D01*
X-138758D01*
Y-173058D01*
X-141323D01*
Y-167598D01*
X-141816Y-165120D01*
X-143219Y-163020D01*
X-145320Y-161616D01*
X-147798Y-161123D01*
D02*
G37*
G36*
X-112052Y-187428D02*
X-112371Y-187470D01*
X-121592D01*
Y-196691D01*
X-121634Y-197010D01*
X-121592Y-197328D01*
Y-206550D01*
X-112371D01*
X-112052Y-206592D01*
X-111734Y-206550D01*
X-102512D01*
Y-197328D01*
X-102470Y-197010D01*
X-102512Y-196691D01*
Y-187470D01*
X-111734D01*
X-112052Y-187428D01*
D02*
G37*
G36*
X-62052Y-187387D02*
X-64543Y-187715D01*
X-66863Y-188676D01*
X-68856Y-190206D01*
X-70385Y-192199D01*
X-71347Y-194519D01*
X-71675Y-197010D01*
X-71347Y-199500D01*
X-70385Y-201821D01*
X-68856Y-203814D01*
X-66863Y-205343D01*
X-64543Y-206304D01*
X-62052Y-206632D01*
X-59562Y-206304D01*
X-57241Y-205343D01*
X-55248Y-203814D01*
X-53719Y-201821D01*
X-52758Y-199500D01*
X-52430Y-197010D01*
X-52758Y-194519D01*
X-53719Y-192199D01*
X-55248Y-190206D01*
X-57241Y-188676D01*
X-59562Y-187715D01*
X-62052Y-187387D01*
D02*
G37*
G36*
X-87052D02*
X-89543Y-187715D01*
X-91863Y-188676D01*
X-93856Y-190206D01*
X-95386Y-192199D01*
X-96347Y-194519D01*
X-96675Y-197010D01*
X-96347Y-199500D01*
X-95386Y-201821D01*
X-93856Y-203814D01*
X-91863Y-205343D01*
X-89543Y-206304D01*
X-87052Y-206632D01*
X-84562Y-206304D01*
X-82241Y-205343D01*
X-80248Y-203814D01*
X-78719Y-201821D01*
X-77758Y-199500D01*
X-77430Y-197010D01*
X-77758Y-194519D01*
X-78719Y-192199D01*
X-80248Y-190206D01*
X-82241Y-188676D01*
X-84562Y-187715D01*
X-87052Y-187387D01*
D02*
G37*
G36*
X-147798Y-225743D02*
X-150275Y-226236D01*
X-152376Y-227640D01*
X-153779Y-229740D01*
X-154272Y-232218D01*
Y-237058D01*
X-156838D01*
Y-253138D01*
X-138758D01*
Y-237058D01*
X-141323D01*
Y-232218D01*
X-141816Y-229740D01*
X-143219Y-227640D01*
X-145320Y-226236D01*
X-147798Y-225743D01*
D02*
G37*
G36*
X168842Y-205237D02*
X168588Y-205271D01*
X160302D01*
Y-213557D01*
X160268Y-213811D01*
X160302Y-214064D01*
Y-222351D01*
X168588D01*
X168842Y-222384D01*
X169095Y-222351D01*
X177382D01*
Y-214064D01*
X177415Y-213811D01*
X177382Y-213557D01*
Y-205271D01*
X169095D01*
X168842Y-205237D01*
D02*
G37*
G36*
X128842Y-205197D02*
X126612Y-205490D01*
X124535Y-206351D01*
X122751Y-207720D01*
X121382Y-209504D01*
X120521Y-211581D01*
X120228Y-213811D01*
X120521Y-216040D01*
X121382Y-218118D01*
X122751Y-219902D01*
X124535Y-221270D01*
X126612Y-222131D01*
X128842Y-222424D01*
X131071Y-222131D01*
X133149Y-221270D01*
X134932Y-219902D01*
X136301Y-218118D01*
X137162Y-216040D01*
X137455Y-213811D01*
X137162Y-211581D01*
X136301Y-209504D01*
X134932Y-207720D01*
X133149Y-206351D01*
X131071Y-205490D01*
X128842Y-205197D01*
D02*
G37*
G36*
X108842D02*
X106612Y-205490D01*
X104535Y-206351D01*
X102751Y-207720D01*
X101382Y-209504D01*
X100521Y-211581D01*
X100228Y-213811D01*
X100521Y-216040D01*
X101382Y-218118D01*
X102751Y-219902D01*
X104535Y-221270D01*
X106612Y-222131D01*
X108842Y-222424D01*
X111071Y-222131D01*
X113148Y-221270D01*
X114932Y-219902D01*
X116301Y-218118D01*
X117162Y-216040D01*
X117455Y-213811D01*
X117162Y-211581D01*
X116301Y-209504D01*
X114932Y-207720D01*
X113148Y-206351D01*
X111071Y-205490D01*
X108842Y-205197D01*
D02*
G37*
%LPD*%
D14*
X259000Y-100663D02*
Y-79000D01*
X-59043Y-216187D02*
X-39865Y-197010D01*
X-129187Y-216187D02*
X-59043D01*
X-75132Y-225263D02*
X-61552Y-238843D01*
X-129939Y-225263D02*
X-75132D01*
X127000Y-31000D02*
X145132Y-49132D01*
X163998D01*
X179726Y-64860D01*
X254899Y-31082D02*
Y29113D01*
Y-31082D02*
X255000Y-31183D01*
X182280Y-59780D02*
X334780D01*
X133000Y-24000D02*
X146500D01*
X182280Y-59780D01*
X375430Y-218189D02*
Y-206490D01*
Y-218189D02*
X386842Y-229601D01*
X-39865Y-197010D02*
X-37052D01*
X-12052D02*
X2049Y-182908D01*
X20092D02*
X30250Y-172750D01*
X53336Y-97694D02*
X81847D01*
X30250Y-120779D02*
X53336Y-97694D01*
X30250Y-172750D02*
Y-120779D01*
X2049Y-182908D02*
X20092D01*
X308298Y31287D02*
X360585Y-21000D01*
X436609Y-92513D02*
Y-22488D01*
X360585Y-21000D02*
X435121D01*
X436609Y-22488D01*
X385000Y-6000D02*
X411000D01*
X194000Y49000D02*
X335000D01*
X411000Y-6000D02*
X436000D01*
X579500Y78250D02*
X587262Y70488D01*
X233500Y78250D02*
X579500D01*
X224990Y86760D02*
X233500Y78250D01*
X332275Y92500D02*
X336394Y88380D01*
X591120D01*
X607262Y72238D01*
X224990Y103990D02*
X227250Y106250D01*
X224990Y86760D02*
Y103990D01*
X376930Y-155839D02*
X396500Y-175409D01*
X386000Y-212938D02*
X396500Y-202438D01*
Y-175409D01*
X388623Y-193297D02*
Y-180079D01*
X369772Y-161228D02*
X388623Y-180079D01*
X369772Y-161228D02*
Y-140946D01*
X376930Y-155839D02*
Y-135585D01*
X320737Y-108871D02*
X350215D01*
X348000Y-99471D02*
X353231Y-104703D01*
X350215Y-108871D02*
X376930Y-135585D01*
X348000Y-99471D02*
Y-73000D01*
X353231Y-104703D02*
X449819D01*
X462009Y-92513D01*
X314224Y-118951D02*
X347777D01*
X369772Y-140946D01*
X310000Y-114726D02*
X314224Y-118951D01*
X424249Y49000D02*
X499599Y-26350D01*
X346270Y49000D02*
X424249D01*
X345991Y49279D02*
X346270Y49000D01*
X254798Y29214D02*
X254899Y29113D01*
X27288Y-223420D02*
Y-189462D01*
X-11552Y-262260D02*
X27288Y-223420D01*
Y-189462D02*
X43433Y-173317D01*
Y-131967D01*
X48466Y-85938D02*
X82938D01*
X8584Y-125820D02*
X48466Y-85938D01*
X43433Y-131967D02*
X69481Y-105920D01*
X81000D01*
X238500Y92500D02*
X332275D01*
X607262Y-92000D02*
Y72238D01*
X587262Y-92000D02*
Y70488D01*
X338663Y59000D02*
X345991Y51673D01*
X194753Y59000D02*
X338663D01*
X-273101Y104240D02*
X-233240D01*
X-220460Y91460D01*
Y13460D02*
Y91460D01*
X-241637Y84750D02*
X-228000D01*
X15448Y-171920D02*
X19000Y-168369D01*
Y-154500D01*
X15448Y-172315D02*
Y-171920D01*
X100237Y-117111D02*
X102552D01*
X74422Y-142926D02*
X100237Y-117111D01*
X102552D02*
X102832Y-116832D01*
X74422Y-199391D02*
Y-142926D01*
X69342Y-209259D02*
Y-139658D01*
X102000Y-107000D01*
X160460Y21250D02*
X160480Y21270D01*
X166270D01*
X194000Y49000D01*
X160529Y33279D02*
X165656D01*
X191376Y59000D01*
X160250Y33000D02*
X160529Y33279D01*
X191376Y59000D02*
X194753D01*
X264371Y-117490D02*
X284299Y-97562D01*
X475219Y-109592D02*
Y-16035D01*
X345778Y29222D02*
X429962D01*
X475219Y-16035D01*
X413500Y-146311D02*
X425070Y-157881D01*
X483614D01*
X499599Y-141896D01*
Y-26350D01*
X438500Y-146311D02*
X475219Y-109592D01*
X345991Y49279D02*
Y51673D01*
X335000Y40000D02*
X345778Y29222D01*
X335000Y40000D02*
Y49000D01*
X238500Y-213652D02*
Y-166253D01*
X229430Y-157183D02*
Y-137418D01*
Y-157183D02*
X238500Y-166253D01*
X224350Y-135314D02*
X259000Y-100663D01*
X224350Y-214609D02*
Y-135314D01*
Y-214609D02*
X238500Y-228759D01*
X249358Y-117490D02*
X264371D01*
X229430Y-137418D02*
X249358Y-117490D01*
X238342Y-213811D02*
X238500D01*
X179726Y-64860D02*
X239257D01*
X246709Y-72311D01*
X221154Y-72400D02*
X221232Y-72477D01*
Y-92436D02*
Y-72477D01*
Y-92436D02*
X221309Y-92513D01*
X334780Y-59780D02*
X348000Y-73000D01*
X246709Y-92513D02*
Y-72311D01*
X375430Y-206490D02*
X388623Y-193297D01*
X386842Y-263811D02*
Y-229601D01*
X386842Y-263811D02*
X386842Y-263811D01*
X386000Y-213811D02*
Y-212938D01*
X101480Y113287D02*
X114798D01*
X244060Y117060D02*
X285940D01*
X286000Y117000D01*
X244000Y117120D02*
X244060Y117060D01*
X238342Y-263811D02*
X238500Y-263652D01*
Y-228759D01*
X238342Y-213811D02*
X238500Y-213652D01*
X310000Y-114726D02*
Y-108871D01*
X284299Y-97562D02*
Y-79861D01*
X74422Y-199391D02*
X88842Y-213811D01*
Y-263811D02*
Y-228759D01*
X69342Y-209259D02*
X88842Y-228759D01*
X-116250Y26000D02*
X-91750D01*
X-116250Y12800D02*
X-91250D01*
X-220460Y13460D02*
X-220253Y13253D01*
X-116250Y39000D02*
X-92050D01*
X-91250Y38200D01*
X-55000Y-114000D02*
X-42000D01*
X-30180Y-125820D01*
X8584D01*
X19000Y-28950D02*
Y9000D01*
X-61552Y-262260D02*
Y-238843D01*
X13621Y-143479D02*
X19000Y-138100D01*
Y-129500D01*
X-6416Y-143479D02*
X13621D01*
X101480Y11287D02*
X114798D01*
X101480Y24287D02*
X114798D01*
X101480Y62310D02*
X114798D01*
X101480Y75287D02*
X114798D01*
X101480Y87287D02*
X114798D01*
X101480Y-713D02*
X114798D01*
X-338899Y-199899D02*
Y-180699D01*
X-339000Y-200000D02*
X-338899Y-199899D01*
Y-180699D02*
X-338798Y-180598D01*
X-36607Y-262205D02*
X-36552Y-262260D01*
X19000Y-28950D02*
X19050Y-29000D01*
X101480Y62287D02*
Y62310D01*
X-116250Y89000D02*
X-91250D01*
X-116250Y89000D02*
X-116250Y89000D01*
X-244858Y81530D02*
X-241637Y84750D01*
X91500Y200D02*
X101480Y-713D01*
X91500Y12900D02*
X101480Y11287D01*
X91500Y25600D02*
X101480Y24287D01*
X91500Y63700D02*
X101480Y62287D01*
X91500Y76400D02*
X101480Y75287D01*
X91500Y89100D02*
X101480Y87287D01*
X91500Y101800D02*
X101480Y100287D01*
X114798D01*
X91500Y114500D02*
X101480Y113287D01*
X-91750Y26000D02*
X-91250Y25500D01*
X-91350Y51000D02*
X-91250Y50900D01*
X-116250Y51000D02*
X-91350D01*
X-116250Y76000D02*
X-91550D01*
X-91250Y76300D01*
X-116250Y63000D02*
X-91850D01*
X-91250Y63600D01*
D20*
X533111Y-126075D02*
D03*
X512111D02*
D03*
X564024Y-34159D02*
D03*
X543024D02*
D03*
D21*
X-275711Y-199569D02*
D03*
Y-180552D02*
D03*
X-275483Y-137589D02*
D03*
Y-156606D02*
D03*
D22*
X-147798Y-266098D02*
D03*
Y-245098D02*
D03*
X664737Y116090D02*
D03*
Y137090D02*
D03*
X-610860Y-199494D02*
D03*
Y-178494D02*
D03*
X-666398Y113170D02*
D03*
Y134170D02*
D03*
X203904Y-141311D02*
D03*
Y-162311D02*
D03*
X55000Y-141311D02*
D03*
Y-162311D02*
D03*
X353202Y-141348D02*
D03*
Y-162348D02*
D03*
X601000Y-173518D02*
D03*
Y-194518D02*
D03*
X55000Y-217811D02*
D03*
Y-196811D02*
D03*
X353202Y-220598D02*
D03*
Y-199598D02*
D03*
X203904Y-222811D02*
D03*
Y-201811D02*
D03*
X204658Y-272811D02*
D03*
Y-251811D02*
D03*
X353202Y-271348D02*
D03*
Y-250348D02*
D03*
X-147798Y-202098D02*
D03*
Y-181098D02*
D03*
X55000Y-251811D02*
D03*
Y-272811D02*
D03*
D23*
X563976Y67801D02*
D03*
X542976D02*
D03*
X563976Y43801D02*
D03*
X542976D02*
D03*
X564976Y19801D02*
D03*
X543976D02*
D03*
X564976Y-3199D02*
D03*
X543976D02*
D03*
X168842Y-263811D02*
D03*
X318500Y-213811D02*
D03*
X168842D02*
D03*
X318500Y-263811D02*
D03*
X466842D02*
D03*
X466000Y-213811D02*
D03*
X-547750Y80000D02*
D03*
Y39378D02*
D03*
Y-622D02*
D03*
Y-41250D02*
D03*
D24*
X-387500Y-150550D02*
D03*
X-348000Y-242511D02*
D03*
X-308500D02*
D03*
X-427250Y-150550D02*
D03*
D25*
X-387500Y-242450D02*
D03*
X-348000Y-150611D02*
D03*
X-308500D02*
D03*
X-427250Y-242450D02*
D03*
D26*
X-256711Y-199561D02*
D03*
Y-178561D02*
D03*
X-256483Y-158598D02*
D03*
Y-137598D02*
D03*
X-256860Y-228733D02*
D03*
Y-249733D02*
D03*
X-76000Y246000D02*
D03*
Y267000D02*
D03*
D27*
X-278570Y-248861D02*
D03*
Y-229361D02*
D03*
D28*
X-327998Y81530D02*
D03*
Y53110D02*
D03*
X-355711Y81530D02*
D03*
Y53110D02*
D03*
X-383425Y81530D02*
D03*
Y53110D02*
D03*
X-411138Y81530D02*
D03*
Y53110D02*
D03*
X-466565Y81530D02*
D03*
Y53110D02*
D03*
X-494279Y81530D02*
D03*
Y53110D02*
D03*
X-438852Y81530D02*
D03*
Y53110D02*
D03*
X-272571Y81530D02*
D03*
Y53110D02*
D03*
X-300284Y81530D02*
D03*
Y53110D02*
D03*
X-244858Y81530D02*
D03*
Y53110D02*
D03*
D29*
X19000Y-154500D02*
D03*
Y-129500D02*
D03*
D30*
X635202Y57963D02*
D03*
Y20963D02*
D03*
Y-12037D02*
D03*
D31*
X-1000Y89400D02*
D03*
X-15000D02*
D03*
X-29000D02*
D03*
X-1000Y61400D02*
D03*
X-15000D02*
D03*
X-29000D02*
D03*
X-1000Y75400D02*
D03*
X-29000D02*
D03*
X-15000D02*
D03*
D32*
X69850Y-29000D02*
D03*
X57150D02*
D03*
X44450D02*
D03*
X31750D02*
D03*
X19050D02*
D03*
X6350D02*
D03*
X-6350D02*
D03*
X-19050D02*
D03*
X-31750D02*
D03*
X-44450D02*
D03*
X-57150D02*
D03*
X-69850D02*
D03*
D33*
X91500Y152600D02*
D03*
Y-12500D02*
D03*
Y200D02*
D03*
Y12900D02*
D03*
Y25600D02*
D03*
Y38300D02*
D03*
Y51000D02*
D03*
Y63700D02*
D03*
Y76400D02*
D03*
Y89100D02*
D03*
Y101800D02*
D03*
Y114500D02*
D03*
Y127200D02*
D03*
Y139900D02*
D03*
X-91250Y114400D02*
D03*
Y101700D02*
D03*
Y89000D02*
D03*
Y76300D02*
D03*
Y63600D02*
D03*
Y50900D02*
D03*
Y38200D02*
D03*
Y25500D02*
D03*
Y12800D02*
D03*
Y100D02*
D03*
Y-12600D02*
D03*
Y127100D02*
D03*
Y139800D02*
D03*
Y152500D02*
D03*
D34*
X-473304Y-230878D02*
D03*
Y-165878D02*
D03*
D35*
X-98000Y263500D02*
D03*
Y245000D02*
D03*
D53*
X12948Y-197010D02*
D03*
X-12052D02*
D03*
X-37052D02*
D03*
X-62052D02*
D03*
X-87052D02*
D03*
X266000Y-146311D02*
D03*
X291000D02*
D03*
X316000D02*
D03*
X-86552Y-262260D02*
D03*
X-61552D02*
D03*
X-36552D02*
D03*
X-11552D02*
D03*
X13448D02*
D03*
X166500Y-146311D02*
D03*
X141500D02*
D03*
X116500D02*
D03*
X463500D02*
D03*
X438500D02*
D03*
X413500D02*
D03*
D54*
X-112052Y-197010D02*
D03*
X241000Y-146311D02*
D03*
X-111552Y-262260D02*
D03*
X91500Y-146311D02*
D03*
X388500D02*
D03*
D57*
X88842Y-263811D02*
D03*
X108842D02*
D03*
X128842D02*
D03*
X148842D02*
D03*
X-577750Y-41250D02*
D03*
Y39378D02*
D03*
Y80000D02*
D03*
Y-622D02*
D03*
X-562750Y80000D02*
D03*
Y39378D02*
D03*
Y-622D02*
D03*
Y-41250D02*
D03*
X238500Y-213811D02*
D03*
X258500D02*
D03*
X278500D02*
D03*
X298500D02*
D03*
X148842D02*
D03*
X128842D02*
D03*
X108842D02*
D03*
X88842D02*
D03*
X298500Y-263811D02*
D03*
X278500D02*
D03*
X258500D02*
D03*
X238500D02*
D03*
X446842D02*
D03*
X426842D02*
D03*
X406842D02*
D03*
X386842D02*
D03*
X446000Y-213811D02*
D03*
X426000D02*
D03*
X406000D02*
D03*
X386000D02*
D03*
D65*
X-51416Y-143479D02*
D03*
X-36416D02*
D03*
X-21416D02*
D03*
D66*
X-6416D02*
D03*
D71*
X418890Y213509D02*
X443446Y197152D01*
X458856Y186887D01*
X418890Y213509D02*
X443358Y196730D01*
X441390Y186422D02*
X458390D01*
X24804Y214069D02*
X24876Y214140D01*
Y214142D01*
X25020Y214287D01*
X24731Y213998D02*
X24876Y214142D01*
X-336750Y214000D02*
X-163283D01*
X-163281Y213998D01*
X24731D01*
X297588Y213748D02*
X418890Y213509D01*
X241170Y213860D02*
X297588Y213748D01*
X224927Y213892D02*
X241170Y213860D01*
X25020Y214287D02*
X224927Y213892D01*
D72*
X458390Y186422D02*
X458856Y186887D01*
X646000Y-155000D02*
X660000Y-141000D01*
X651000Y82000D02*
X660000Y73000D01*
X621919Y82000D02*
X651000D01*
X660000Y-141000D02*
Y73000D01*
X512111Y-126075D02*
X513801Y-127765D01*
Y-142801D02*
Y-127765D01*
Y-142801D02*
X515000Y-144000D01*
X91500Y127200D02*
X313800D01*
X345000Y96000D01*
X607919D01*
X621919Y82000D01*
X570418Y-155000D02*
X646000D01*
X557918Y-167500D02*
X570418Y-155000D01*
X557561Y-167500D02*
X557918D01*
X602500Y-213750D02*
Y-194518D01*
X601000D02*
X602500D01*
X458856Y186887D02*
X462009D01*
X664737Y116090D02*
X665066Y115761D01*
Y99100D02*
Y115761D01*
X195652Y-237000D02*
X216000D01*
X168842Y-263811D02*
X195652Y-237000D01*
X371752Y-41263D02*
X385809Y-55320D01*
X202529Y-41263D02*
X371752D01*
X148000Y13266D02*
X202529Y-41263D01*
X131840Y1436D02*
X185436Y-52160D01*
X344160D01*
X131840Y1436D02*
Y32817D01*
X355892Y-222288D02*
X364129D01*
X354263Y-220659D02*
X355892Y-222288D01*
X364129D02*
X366500Y-224659D01*
X350512Y-164038D02*
X351512D01*
X341690Y-177765D02*
Y-172860D01*
X350512Y-164038D01*
X351512D02*
X353202Y-162348D01*
X-568180Y26268D02*
X-444982D01*
X-576912Y34999D02*
Y38540D01*
Y34999D02*
X-568180Y26268D01*
X-564560Y16108D02*
X-396817D01*
X-576912Y3756D02*
X-564560Y16108D01*
X-576912Y216D02*
Y3756D01*
X-577750Y-622D02*
X-576912Y216D01*
X-514128Y5320D02*
X-346430D01*
X-540698Y-21250D02*
X-514128Y5320D01*
X-622147Y-79253D02*
X-621150Y-80250D01*
X-346430Y5320D02*
X-327998Y23752D01*
X-396817Y16108D02*
X-383425Y29500D01*
X-622147Y-79253D02*
Y-76993D01*
X-621150Y-75996D01*
X-477290Y-5000D02*
X-311432D01*
X-539290Y-67000D02*
X-477290Y-5000D01*
X-311432D02*
X-272571Y33860D01*
X-87052Y-197010D02*
X-86802Y-197260D01*
X479000Y21000D02*
Y70630D01*
X553910Y121160D02*
X554000Y121250D01*
X438458Y121160D02*
X553910D01*
X586781Y111000D02*
X621377Y145596D01*
X405350Y139900D02*
X434250Y111000D01*
X404618Y155000D02*
X438458Y121160D01*
X434250Y111000D02*
X586781D01*
X453000Y132080D02*
Y182363D01*
X91500Y139900D02*
X405350D01*
X286042Y155000D02*
X404618D01*
X148000Y13266D02*
Y36000D01*
X133000Y51000D02*
X148000Y36000D01*
X-444982Y26268D02*
X-439000Y32250D01*
X-561290Y-21250D02*
X-540698D01*
X-75840Y-90769D02*
X-57626D01*
X-19050Y-52193D01*
X-71071Y-100929D02*
X-51929D01*
X-6350Y-55350D01*
X-348000Y-261000D02*
X-345877Y-263123D01*
X-348000Y-261000D02*
Y-242511D01*
X-216250Y-250933D02*
Y-180050D01*
X-196798Y-160598D01*
X-228440Y-263123D02*
X-216250Y-250933D01*
X-301119Y-122083D02*
X-134323D01*
X-308500Y-129464D02*
X-301119Y-122083D01*
X-328759Y104240D02*
X-273101D01*
X-272571Y103710D01*
Y81530D02*
Y103710D01*
X-530813Y-166000D02*
X-473425D01*
X-473304Y-165878D01*
X-539500Y-157313D02*
X-530813Y-166000D01*
X-169798Y-276000D02*
X-158112D01*
X-441500D02*
X-169798D01*
Y-159598D01*
X-447500Y-270000D02*
X-441500Y-276000D01*
X-382762Y104240D02*
X-328759D01*
X-328339Y103820D01*
Y81871D02*
Y103820D01*
X-439113Y104240D02*
X-382762D01*
X-382882Y104120D02*
X-382762Y104240D01*
X-494583D02*
X-439113D01*
X-438852Y103979D01*
X-591097Y104240D02*
X-494583D01*
X-494279Y103936D01*
X-609430Y85907D02*
X-591097Y104240D01*
X-606038Y105407D02*
X-597045Y114400D01*
X-91250D01*
X-644634Y85907D02*
X-609430D01*
X-623038Y105407D02*
X-606038D01*
X340269Y-237731D02*
X366342D01*
X332500Y-245500D02*
X340269Y-237731D01*
X332500Y-257157D02*
Y-245500D01*
X318500Y-263811D02*
X320690Y-261621D01*
X328036D01*
X332500Y-257157D01*
X140645Y-71500D02*
X145109Y-75964D01*
Y-92513D02*
Y-75964D01*
X161340Y-61340D02*
X170509Y-70509D01*
X87340Y-61340D02*
X161340D01*
X70540Y-44540D02*
X87340Y-61340D01*
X57150Y-46005D02*
X82646Y-71500D01*
X140645D01*
X57150Y-46005D02*
Y-29000D01*
X70540Y-44540D02*
Y-29690D01*
X69850Y-29000D02*
X70540Y-29690D01*
X-470114Y-227249D02*
X-464864D01*
X-461213Y-223598D01*
X-362413Y-225098D02*
X-348000Y-239511D01*
X-461213Y-223598D02*
X-362413D01*
X-427250Y-150550D02*
X-423060Y-146360D01*
Y-128860D01*
X-422798Y-128598D01*
X-473304Y-230439D02*
X-470114Y-227249D01*
X-362413Y-225098D02*
Y-223598D01*
X-481407Y-228000D02*
X-476182D01*
X-473304Y-230878D01*
X-521907Y-187500D02*
X-481407Y-228000D01*
X-567500Y-187500D02*
X-521907D01*
X-348000Y-242511D02*
Y-239511D01*
X-387500Y-150550D02*
X-387439Y-150611D01*
X-386000D01*
X-174000Y15162D02*
Y23000D01*
X-226760Y-37598D02*
X-174000Y15162D01*
X-302324Y-37598D02*
X-226760D01*
X-317000Y-52274D02*
X-302324Y-37598D01*
X-317000Y-101000D02*
Y-52274D01*
X-333561Y-117561D02*
X-317000Y-101000D01*
X-377500Y-117561D02*
X-333561D01*
X-384500Y-124561D02*
X-377500Y-117561D01*
X-384500Y-149111D02*
Y-124561D01*
X-386000Y-150611D02*
X-384500Y-149111D01*
X-348000Y-242511D02*
X-308500D01*
X-348000Y-150611D02*
X-325379D01*
X-323200Y-152790D01*
X-567500Y-167500D02*
Y-148500D01*
X-528139Y-109139D01*
X53310Y-274501D02*
X55000Y-272811D01*
X44306Y-274501D02*
X53310D01*
X38948Y-279859D02*
X44306Y-274501D01*
X635000Y21165D02*
Y35687D01*
X638000Y38687D01*
X635000Y21165D02*
X635202Y20963D01*
X634240Y57000D02*
X635202Y57963D01*
X617000Y57000D02*
X634240D01*
X564024Y-34159D02*
X578841D01*
X579000Y-34000D01*
X344160Y-52160D02*
X360409Y-68409D01*
X401000Y-168000D02*
X458000D01*
X477000Y-187000D02*
X557062D01*
X458000Y-168000D02*
X477000Y-187000D01*
X557062D02*
X557561Y-187500D01*
X331610Y-187925D02*
Y-183091D01*
Y-222756D02*
Y-187925D01*
X381000Y-188000D02*
X381003D01*
X331610Y-187925D02*
X380925D01*
X381000Y-188000D01*
X366342Y-237731D02*
X373732Y-245121D01*
X326795Y-227571D02*
X331610Y-222756D01*
X324000Y-132000D02*
X331530Y-139530D01*
Y-183011D02*
X331610Y-183091D01*
X331530Y-183011D02*
Y-139530D01*
X122000Y155000D02*
X286042D01*
X110169Y166831D02*
X122000Y155000D01*
X-127169Y166831D02*
X110169D01*
X-623038Y125407D02*
X-168593D01*
X-127169Y166831D01*
X-25880Y-158040D02*
X-22158Y-154318D01*
X-101410Y-132590D02*
X-75960Y-158040D01*
X-22158Y-154318D02*
Y-144222D01*
X-75960Y-158040D02*
X-25880D01*
X-147798Y-181098D02*
Y-167598D01*
X308446Y-227571D02*
X326795D01*
X301206Y-234811D02*
X308446Y-227571D01*
X247165Y-234811D02*
X301206D01*
X174000Y-187000D02*
X179577Y-192577D01*
X225298Y-230811D02*
X225838D01*
X216684Y-222197D02*
X225298Y-230811D01*
X197241Y-188258D02*
X212221D01*
X216684Y-192721D01*
Y-222197D02*
Y-192721D01*
X216000Y-237000D02*
X224000Y-245000D01*
Y-269146D02*
Y-245000D01*
X192921Y-192577D02*
X197241Y-188258D01*
X179577Y-192577D02*
X192921D01*
X189342Y-221048D02*
X189415Y-221121D01*
X202214D01*
X174000Y-187000D02*
Y-169000D01*
X184676Y-158324D01*
Y-137676D01*
X186590Y-180311D02*
Y-178624D01*
X202904Y-162311D01*
X178000Y-131000D02*
X184676Y-137676D01*
X202904Y-162311D02*
X203904D01*
X101000Y-131000D02*
X178000D01*
X-31750Y-29000D02*
Y1250D01*
X-31548Y1452D01*
X238342Y-263811D02*
X238500D01*
X170509Y-92513D02*
Y-70509D01*
X-44450Y-29000D02*
Y-8698D01*
X-44412Y-8660D01*
X32000Y-11000D02*
X76580D01*
X77390Y-11810D01*
X37448Y-216183D02*
X51900D01*
X-155112Y-279000D02*
X23000D01*
X-158112Y-276000D02*
X-155112Y-279000D01*
X23000D02*
X36000Y-266000D01*
X373732Y-269241D02*
Y-245121D01*
Y-269241D02*
X381411Y-276921D01*
X453732D01*
X466842Y-263811D01*
X224000Y-269146D02*
X231774Y-276921D01*
X305390D01*
X318500Y-263811D01*
X36000Y-252394D02*
Y-243000D01*
Y-266000D02*
Y-252394D01*
X75500Y-269009D02*
X83411Y-276921D01*
X155732D01*
X168842Y-263811D01*
X75500Y-269009D02*
Y-242500D01*
X46000Y-233000D02*
X66000D01*
X75500Y-242500D01*
X36000Y-243000D02*
X46000Y-233000D01*
X-147798Y-245098D02*
Y-232218D01*
X-65388Y-125612D02*
X-44783D01*
X-37158Y-133237D01*
Y-142737D02*
Y-133237D01*
X-91250Y-99750D02*
X-65388Y-125612D01*
X44000Y-61300D02*
Y-29450D01*
X31250Y-49750D02*
Y-29500D01*
X31750Y-29000D01*
X44000Y-29450D02*
X44450Y-29000D01*
X-308362Y-111923D02*
X-134000D01*
X-323200Y-126760D02*
X-308362Y-111923D01*
X-308500Y-153511D02*
Y-129464D01*
X-644634Y-139366D02*
Y85907D01*
X-635000Y-149000D02*
X-604544D01*
X-644634Y-139366D02*
X-635000Y-149000D01*
X-588000Y-180826D02*
X-585497Y-183330D01*
X-582356Y-186471D01*
X-588000Y-180826D02*
Y-165544D01*
X-582356Y-186471D02*
X-568529D01*
X-567500Y-187500D01*
X-604544Y-149000D02*
X-588000Y-165544D01*
X-190659Y101700D02*
X-91250D01*
X-207883Y84476D02*
X-190659Y101700D01*
X-207883Y11367D02*
Y84476D01*
X-234090Y-14840D02*
X-207883Y11367D01*
X-302840Y-14840D02*
X-234090D01*
X-351490Y-63490D02*
X-302840Y-14840D01*
X-512490Y-63490D02*
X-351490D01*
X-528139Y-79139D02*
X-512490Y-63490D01*
X-528139Y-109139D02*
Y-79139D01*
X-466565Y68330D02*
X-300284D01*
X-536670D02*
X-466565D01*
Y81530D01*
X-537000Y68000D02*
X-536670Y68330D01*
X90810Y-11810D02*
X91500Y-12500D01*
X77390Y-11810D02*
X90810D01*
X-365000Y-203055D02*
X-354055Y-214000D01*
X-259050Y-226543D02*
X-256860Y-228733D01*
X-263514Y-214000D02*
X-259050Y-218464D01*
Y-226543D02*
Y-218464D01*
X-354055Y-214000D02*
X-263514D01*
X-300284Y68330D02*
X-260391D01*
X-300284D02*
Y81530D01*
X-256671Y72417D02*
X-247558Y81530D01*
X-260391Y68330D02*
X-256671Y72050D01*
X-247558Y81530D02*
X-244858D01*
X-256671Y72050D02*
Y72417D01*
X-302984Y81530D02*
X-300284D01*
X-306024Y78490D02*
X-302984Y81530D01*
X-466565D02*
X-463865D01*
X352150Y-269658D02*
X354452Y-271960D01*
X335422Y-269658D02*
X352150D01*
X335282Y-269518D02*
X335422Y-269658D01*
X202214Y-221121D02*
X203904Y-222811D01*
X128635Y36022D02*
X131840Y32817D01*
X91500Y38300D02*
X126356D01*
X91500Y51000D02*
X133000D01*
X-345877Y-263123D02*
X-228440D01*
X-610860Y-163679D02*
X-610750Y-163569D01*
X186728Y-272124D02*
X203971D01*
X204658Y-272811D01*
X185202Y-270598D02*
X186728Y-272124D01*
X-112839Y100D02*
X-91250D01*
X-119468Y-6529D02*
X-112839Y100D01*
X-119468Y-47216D02*
Y-6529D01*
X-91250Y-99750D02*
Y-12600D01*
X-119468Y-47216D02*
X-101410Y-65274D01*
Y-132590D02*
Y-65274D01*
X-365000Y-203055D02*
Y-153241D01*
X-323200Y-176811D02*
X-300441Y-199569D01*
X-323200Y-176811D02*
Y-152790D01*
Y-126760D01*
X-374549Y-106464D02*
X-359819Y-91734D01*
X-453464Y-106464D02*
X-374549D01*
X-464000Y-117000D02*
X-453464Y-106464D01*
X-612597Y-67000D02*
X-539290D01*
X-19050Y-52193D02*
Y-29000D01*
X-276706Y-155384D02*
X-275483Y-156606D01*
X-306627Y-155384D02*
X-276706D01*
X-308500Y-153511D02*
X-306627Y-155384D01*
X-300441Y-199569D02*
X-275711D01*
X-6350Y-55350D02*
Y-29000D01*
X-37158Y-142737D02*
X-36416Y-143479D01*
X-22158Y-144222D02*
X-21416Y-143479D01*
X-278134Y-249297D02*
X-257296D01*
X-278570Y-248861D02*
X-278134Y-249297D01*
X-257296D02*
X-256860Y-249733D01*
X-308500Y-239511D02*
X-298350Y-229361D01*
X-278570D01*
X-308500Y-242511D02*
Y-239511D01*
X563976Y67801D02*
X577476D01*
X-275479Y-137593D02*
X-256488D01*
X-275483Y-137589D02*
X-275479Y-137593D01*
X-256488D02*
X-256483Y-137598D01*
X-274716Y-179556D02*
X-257707D01*
X-275711Y-180552D02*
X-274716Y-179556D01*
X-257707D02*
X-256711Y-178561D01*
X565476Y-3199D02*
X578976D01*
X564976Y19801D02*
X578476D01*
X563976Y43801D02*
X577476D01*
X360409Y-92513D02*
Y-68409D01*
X126356Y38300D02*
X128635Y36022D01*
X385809Y-92513D02*
Y-55320D01*
X-621150Y-75553D02*
X-612597Y-67000D01*
X-621150Y-75996D02*
Y-75553D01*
X-328339Y81871D02*
X-327998Y81530D01*
X-438852D02*
Y103979D01*
X-383425Y81530D02*
X-382882Y82073D01*
Y104120D01*
X-494279Y81530D02*
Y103936D01*
X-92500Y267000D02*
X-76000D01*
X-98000Y263500D02*
X-96000D01*
X-92500Y267000D01*
X-105000Y250000D02*
X-100000Y245000D01*
X-125000Y250000D02*
X-105000D01*
X-100000Y245000D02*
X-98000D01*
X-576912Y-36872D02*
X-561290Y-21250D01*
X-439000Y32250D02*
Y52962D01*
X-644634Y119914D02*
X-640170Y124378D01*
X-644634Y85907D02*
Y119914D01*
X-640170Y124378D02*
X-624067D01*
X-623038Y125407D01*
X-355711Y69250D02*
Y81530D01*
X-411138Y69250D02*
Y81530D01*
X-576912Y-40412D02*
Y-36872D01*
X-577750Y-41250D02*
X-576912Y-40412D01*
X-383425Y29500D02*
Y53110D01*
X-272571D02*
X-244858D01*
X-272571Y33860D02*
Y53110D01*
X-327998Y23752D02*
Y53110D01*
X-300284D01*
X-383425D02*
X-355711D01*
X-438852D02*
X-411138D01*
X-439000Y52962D02*
X-438852Y53110D01*
X-577750Y39378D02*
X-576912Y38540D01*
X-494279Y53110D02*
X-466565D01*
X-554400D02*
X-494279D01*
X-576912Y75622D02*
Y79162D01*
X-577750Y80000D02*
X-576912Y79162D01*
Y75622D02*
X-554400Y53110D01*
X-610860Y-178494D02*
Y-163679D01*
X-666726Y135242D02*
Y151904D01*
Y135242D02*
X-666398Y134914D01*
X45952Y-184848D02*
X50635D01*
X56202Y-179281D02*
Y-162348D01*
X50635Y-184848D02*
X56202Y-179281D01*
X-86802Y-262010D02*
X-86552Y-262260D01*
X385657Y-263811D02*
X386842D01*
X56280Y-162311D02*
X58024Y-160567D01*
X-94000Y126000D02*
X-93500Y126500D01*
X-112750Y126000D02*
X-94000D01*
X-112550Y139200D02*
X-93000D01*
X-112750Y139000D02*
X-112550Y139200D01*
D73*
X-24980Y264787D02*
D03*
X25020D02*
D03*
X-574980Y149788D02*
D03*
Y199788D02*
D03*
X-250000Y262500D02*
D03*
X-200000D02*
D03*
X250000D02*
D03*
X200000D02*
D03*
X575000Y200000D02*
D03*
Y150000D02*
D03*
D74*
X-436019Y187666D02*
D03*
X-461419Y187466D02*
D03*
X-486819Y187666D02*
D03*
X-512219D02*
D03*
X-272080Y187287D02*
D03*
X-297480D02*
D03*
X-221280D02*
D03*
X-246680Y187087D02*
D03*
X195909Y186887D02*
D03*
X170509Y186687D02*
D03*
X145109Y186887D02*
D03*
X119709D02*
D03*
X411209D02*
D03*
X385809Y186687D02*
D03*
X360409Y186887D02*
D03*
X335009D02*
D03*
X-334419Y-91734D02*
D03*
X-359819D02*
D03*
X-385219D02*
D03*
X-410619D02*
D03*
X-436019D02*
D03*
X-461419D02*
D03*
X-486819D02*
D03*
X-512219D02*
D03*
X-410619Y187666D02*
D03*
X-359819D02*
D03*
X-334419D02*
D03*
X-385219D02*
D03*
X-119680Y-92113D02*
D03*
X-145080D02*
D03*
X-170480D02*
D03*
X-195880D02*
D03*
X-221280D02*
D03*
X-246680D02*
D03*
X-272080D02*
D03*
X-297480D02*
D03*
X-195880Y187287D02*
D03*
X-145080D02*
D03*
X-119680D02*
D03*
X-170480D02*
D03*
X297509Y-92513D02*
D03*
X272109D02*
D03*
X246709D02*
D03*
X221309D02*
D03*
X195909D02*
D03*
X170509D02*
D03*
X145109D02*
D03*
X119709D02*
D03*
X221309Y186887D02*
D03*
X272109D02*
D03*
X297509D02*
D03*
X246709D02*
D03*
X512809Y-92513D02*
D03*
X487409D02*
D03*
X462009D02*
D03*
X436609D02*
D03*
X411209D02*
D03*
X385809D02*
D03*
X360409D02*
D03*
X335009D02*
D03*
X436609Y186887D02*
D03*
X487409D02*
D03*
X512809D02*
D03*
X462009D02*
D03*
D75*
X0Y-94000D02*
D03*
X475742Y269877D02*
D03*
X-655066Y-209421D02*
D03*
X655066D02*
D03*
Y210949D02*
D03*
X-475742Y269877D02*
D03*
X-655066Y210949D02*
D03*
D76*
X558462Y-126913D02*
D03*
X583862D02*
D03*
X609262D02*
D03*
X566762Y-93913D02*
D03*
X606762D02*
D03*
X586762D02*
D03*
X-125000Y275400D02*
D03*
D77*
X634662Y-126913D02*
D03*
X626762Y-93913D02*
D03*
D78*
X-623000Y-81000D02*
D03*
X-608000D02*
D03*
X-593000D02*
D03*
X-578000D02*
D03*
X-563000D02*
D03*
X-548000D02*
D03*
D79*
X621377Y145596D02*
D03*
Y125596D02*
D03*
X-567500Y-187500D02*
D03*
Y-167500D02*
D03*
X-623038Y105407D02*
D03*
Y125407D02*
D03*
X557561Y-167500D02*
D03*
Y-187500D02*
D03*
D80*
X621377Y105596D02*
D03*
X-567500Y-207500D02*
D03*
X-623038Y145407D02*
D03*
X557561Y-207500D02*
D03*
D81*
X-8000Y61400D02*
D03*
X-22000D02*
D03*
X-8000Y75400D02*
D03*
X-22000D02*
D03*
X-8000Y89400D02*
D03*
X-22000D02*
D03*
X-1000Y68400D02*
D03*
X-15000D02*
D03*
X-29000D02*
D03*
X-1000Y82400D02*
D03*
X-29000D02*
D03*
X-15000D02*
D03*
X-129187Y-216187D02*
D03*
X-129939Y-225263D02*
D03*
X665066Y99100D02*
D03*
X255000Y-31183D02*
D03*
X385000Y-6000D02*
D03*
X479000Y70630D02*
D03*
X554000Y121250D02*
D03*
X453000Y132080D02*
D03*
X227250Y106250D02*
D03*
X238500Y92500D02*
D03*
X-75840Y-90769D02*
D03*
X-71071Y-100929D02*
D03*
X-216250Y-240000D02*
D03*
X-134323Y-122083D02*
D03*
X-228000Y84750D02*
D03*
X15448Y-172315D02*
D03*
X-447500Y-270000D02*
D03*
X102832Y-116832D02*
D03*
X160460Y21250D02*
D03*
X160250Y33000D02*
D03*
X-422798Y-128598D02*
D03*
X-539500Y-157313D02*
D03*
X38948Y-279859D02*
D03*
X346270Y49000D02*
D03*
X194753Y59000D02*
D03*
X335000Y49000D02*
D03*
X194000D02*
D03*
X638000Y38687D02*
D03*
X617000Y57000D02*
D03*
X579000Y-34000D02*
D03*
X436000Y-6000D02*
D03*
X308298Y31287D02*
D03*
X479000Y21000D02*
D03*
X254798Y29214D02*
D03*
X221154Y-72400D02*
D03*
X401000Y-168000D02*
D03*
X381003Y-188000D02*
D03*
X341690Y-177765D02*
D03*
X366500Y-224659D02*
D03*
X286042Y155000D02*
D03*
X286000Y117000D02*
D03*
X244000Y117120D02*
D03*
X-169798Y-159598D02*
D03*
X-147798Y-167598D02*
D03*
X324000Y-132000D02*
D03*
X247165Y-234811D02*
D03*
X225838Y-230811D02*
D03*
X189342Y-221048D02*
D03*
X186590Y-180311D02*
D03*
X81847Y-97694D02*
D03*
X81000Y-105920D02*
D03*
X178000Y-131000D02*
D03*
X101000D02*
D03*
X320737Y-108871D02*
D03*
X310000D02*
D03*
X-31548Y1452D02*
D03*
X127000Y-31000D02*
D03*
X133000Y-24000D02*
D03*
X102000Y-107000D02*
D03*
X82938Y-85938D02*
D03*
X-44412Y-8660D02*
D03*
X-220253Y13253D02*
D03*
X32000Y-11000D02*
D03*
X-55000Y-114000D02*
D03*
X19000Y9000D02*
D03*
X37448Y-216183D02*
D03*
X36000Y-252394D02*
D03*
X-147798Y-232218D02*
D03*
X44000Y-61300D02*
D03*
X31250Y-49750D02*
D03*
X-537000Y68000D02*
D03*
X335282Y-269518D02*
D03*
X-134000Y-111923D02*
D03*
X-346000Y-263000D02*
D03*
X-610750Y-163569D02*
D03*
X-174000Y23000D02*
D03*
X-464000Y-117000D02*
D03*
X-196798Y-160598D02*
D03*
X185202Y-270598D02*
D03*
X-169798Y-256473D02*
D03*
X-365000Y-153241D02*
D03*
X577476Y67801D02*
D03*
X578976Y-3199D02*
D03*
X578476Y19801D02*
D03*
X577476Y43801D02*
D03*
X411000Y-6000D02*
D03*
X-666726Y151904D02*
D03*
X45952Y-184848D02*
D03*
D82*
X-125000Y250000D02*
D03*
D83*
X515000Y-144000D02*
D03*
X602500Y-213750D02*
D03*
X114798Y-713D02*
D03*
Y75287D02*
D03*
Y113287D02*
D03*
X-116250Y26000D02*
D03*
Y39000D02*
D03*
Y13000D02*
D03*
X114798Y11287D02*
D03*
Y24287D02*
D03*
Y62310D02*
D03*
Y87287D02*
D03*
X-339000Y-200000D02*
D03*
X-116250Y89000D02*
D03*
X114798Y100287D02*
D03*
X-112750Y126000D02*
D03*
Y139000D02*
D03*
X-116250Y51000D02*
D03*
Y63000D02*
D03*
Y76000D02*
D03*
D84*
X259000Y-79000D02*
D03*
X137250Y115250D02*
D03*
X-128000Y-181750D02*
D03*
X-190000Y-140000D02*
D03*
X-309750Y-171250D02*
D03*
X118250Y-13750D02*
D03*
X-407500Y-264500D02*
D03*
X-64750Y21750D02*
D03*
X46500Y250D02*
D03*
X-163000Y57000D02*
D03*
X284000Y-77000D02*
D03*
X-338798Y-180598D02*
D03*
D85*
X24804Y214069D02*
D03*
X-163281Y213998D02*
D03*
X297588Y213748D02*
D03*
X-336750Y214000D02*
D03*
M02*
