%FSTAX23Y23*%
%MOIN*%
%SFA1B1*%

%IPPOS*%
%ADD15C,0.005000*%
%ADD122C,0.006665*%
%ADD123C,0.004000*%
%LNbrushed_pcb_drawing_1-1*%
%LPD*%
G54D15*
X-00118Y01042D02*
X-00098Y01062D01*
X-00078Y01042*
X-00098Y01022*
X-00118Y01042*
X00078D02*
X00098Y01062D01*
X00118Y01042*
X00098Y01022*
X00078Y01042*
X-01736Y00718D02*
X-01726D01*
X-01716Y00728*
X-01706Y00718*
X-01696*
Y00728*
X-01706Y00738*
X-01696Y00748*
Y00758*
X-01706*
X-01716Y00748*
X-01726Y00758*
X-01736*
Y00748*
X-01726Y00738*
X-01736Y00728*
Y00718*
X-01836Y00718D02*
X-01826D01*
X-01816Y00728*
X-01806Y00718*
X-01796*
Y00728*
X-01806Y00738*
X-01796Y00748*
Y00758*
X-01806*
X-01816Y00748*
X-01826Y00758*
X-01836*
Y00748*
X-01826Y00738*
X-01836Y00728*
Y00718*
X-02283Y00589D02*
X-02263Y00609D01*
X-02243Y00589*
X-02263Y00569*
X-02283Y00589*
X-01936Y00718D02*
X-01926D01*
X-01916Y00728*
X-01906Y00718*
X-01896*
Y00728*
X-01906Y00738*
X-01896Y00748*
Y00758*
X-01906*
X-01916Y00748*
X-01926Y00758*
X-01936*
Y00748*
X-01926Y00738*
X-01936Y00728*
Y00718*
X-02036D02*
X-02026D01*
X-02016Y00728*
X-02006Y00718*
X-01996*
Y00728*
X-02006Y00738*
X-01996Y00748*
Y00758*
X-02006*
X-02016Y00748*
X-02026Y00758*
X-02036*
Y00748*
X-02026Y00738*
X-02036Y00728*
Y00718*
X-02283Y00786D02*
X-02263Y00806D01*
X-02243Y00786*
X-02263Y00766*
X-02283Y00786*
X-01091Y00717D02*
X-01081D01*
X-01071Y00727*
X-01061Y00717*
X-01051*
Y00727*
X-01061Y00737*
X-01051Y00747*
Y00757*
X-01061*
X-01071Y00747*
X-01081Y00757*
X-01091*
Y00747*
X-01081Y00737*
X-01091Y00727*
Y00717*
X-01191D02*
X-01181D01*
X-01171Y00727*
X-01161Y00717*
X-01151*
Y00727*
X-01161Y00737*
X-01151Y00747*
Y00757*
X-01161*
X-01171Y00747*
X-01181Y00757*
X-01191*
Y00747*
X-01181Y00737*
X-01191Y00727*
Y00717*
X-01094Y01034D02*
X-01074Y01054D01*
X-01054Y01034*
X-01074Y01014*
X-01094Y01034*
X-00891Y00717D02*
X-00881D01*
X-00871Y00727*
X-00861Y00717*
X-00851*
Y00727*
X-00861Y00737*
X-00851Y00747*
Y00757*
X-00861*
X-00871Y00747*
X-00881Y00757*
X-00891*
Y00747*
X-00881Y00737*
X-00891Y00727*
Y00717*
X-00991Y00716D02*
X-00981D01*
X-00971Y00726*
X-00961Y00716*
X-00951*
Y00726*
X-00961Y00736*
X-00951Y00746*
Y00756*
X-00961*
X-00971Y00746*
X-00981Y00756*
X-00991*
Y00746*
X-00981Y00736*
X-00991Y00726*
Y00716*
X-00897Y01034D02*
X-00877Y01054D01*
X-00857Y01034*
X-00877Y01014*
X-00897Y01034*
X01054Y01033D02*
X01074Y01053D01*
X01094Y01033*
X01074Y01013*
X01054Y01033*
X00751Y00715D02*
X00761D01*
X00771Y00725*
X00781Y00715*
X00791*
Y00725*
X00781Y00735*
X00791Y00745*
Y00755*
X00781*
X00771Y00745*
X00761Y00755*
X00751*
Y00745*
X00761Y00735*
X00751Y00725*
Y00715*
X00651Y00714D02*
X00661D01*
X00671Y00724*
X00681Y00714*
X00691*
Y00724*
X00681Y00734*
X00691Y00744*
Y00754*
X00681*
X00671Y00744*
X00661Y00754*
X00651*
Y00744*
X00661Y00734*
X00651Y00724*
Y00714*
X00857Y01033D02*
X00877Y01053D01*
X00897Y01033*
X00877Y01013*
X00857Y01033*
X00551Y00715D02*
X00561D01*
X00571Y00725*
X00581Y00715*
X00591*
Y00725*
X00581Y00735*
X00591Y00745*
Y00755*
X00581*
X00571Y00745*
X00561Y00755*
X00551*
Y00745*
X00561Y00735*
X00551Y00725*
Y00715*
X00451D02*
X00461D01*
X00471Y00725*
X00481Y00715*
X00491*
Y00725*
X00481Y00735*
X00491Y00745*
Y00755*
X00481*
X00471Y00745*
X00461Y00755*
X00451*
Y00745*
X00461Y00735*
X00451Y00725*
Y00715*
X02243Y00787D02*
X02263Y00807D01*
X02283Y00787*
X02263Y00767*
X02243Y00787*
X01598Y00715D02*
X01608D01*
X01618Y00725*
X01628Y00715*
X01638*
Y00725*
X01628Y00735*
X01638Y00745*
Y00755*
X01628*
X01618Y00745*
X01608Y00755*
X01598*
Y00745*
X01608Y00735*
X01598Y00725*
Y00715*
X01498Y00714D02*
X01508D01*
X01518Y00724*
X01528Y00714*
X01538*
Y00724*
X01528Y00734*
X01538Y00744*
Y00754*
X01528*
X01518Y00744*
X01508Y00754*
X01498*
Y00744*
X01508Y00734*
X01498Y00724*
Y00714*
X02243Y0059D02*
X02263Y0061D01*
X02283Y0059*
X02263Y0057*
X02243Y0059*
X01398Y00715D02*
X01408D01*
X01418Y00725*
X01428Y00715*
X01438*
Y00725*
X01428Y00735*
X01438Y00745*
Y00755*
X01428*
X01418Y00745*
X01408Y00755*
X01398*
Y00745*
X01408Y00735*
X01398Y00725*
Y00715*
X01298D02*
X01308D01*
X01318Y00725*
X01328Y00715*
X01338*
Y00725*
X01328Y00735*
X01338Y00745*
Y00755*
X01328*
X01318Y00745*
X01308Y00755*
X01298*
Y00745*
X01308Y00735*
X01298Y00725*
Y00715*
X00349Y-01058D02*
X00359Y-01048D01*
X00369*
X00359Y-01038*
X00369Y-01028*
X00359*
X00349Y-01018*
X00339Y-01028*
X00329*
X00339Y-01038*
X00329Y-01048*
X00339*
X00349Y-01058*
X00428D02*
X00438Y-01048D01*
X00448*
X00438Y-01038*
X00448Y-01028*
X00438*
X00428Y-01018*
X00418Y-01028*
X00408*
X00418Y-01038*
X00408Y-01048*
X00418*
X00428Y-01058*
X00507D02*
X00517Y-01048D01*
X00527*
X00517Y-01038*
X00527Y-01028*
X00517*
X00507Y-01018*
X00497Y-01028*
X00487*
X00497Y-01038*
X00487Y-01048*
X00497*
X00507Y-01058*
X00585D02*
X00595Y-01048D01*
X00605*
X00595Y-01038*
X00605Y-01028*
X00595*
X00585Y-01018*
X00575Y-01028*
X00565*
X00575Y-01038*
X00565Y-01048*
X00575*
X00585Y-01058*
X00664D02*
X00674Y-01048D01*
X00684*
X00674Y-01038*
X00684Y-01028*
X00674*
X00664Y-01018*
X00654Y-01028*
X00644*
X00654Y-01038*
X00644Y-01048*
X00654*
X00664Y-01058*
X0Y-0039D02*
X-0002Y-0035D01*
X0002*
X0Y-0039*
Y-00382D02*
X-00012Y-00358D01*
X00012*
X0Y-00382*
X02211Y-00389D02*
Y-00349D01*
X02251*
Y-00389*
X02211*
X02447D02*
Y-00349D01*
X02487*
Y-00389*
X02447*
X02368D02*
Y-00349D01*
X02408*
Y-00389*
X02368*
X0229D02*
Y-00349D01*
X0233*
Y-00389*
X0229*
X-02452Y-00338D02*
X-02442Y-00328D01*
X-02432*
X-02442Y-00318*
X-02432Y-00308*
X-02442*
X-02452Y-00298*
X-02462Y-00308*
X-02472*
X-02462Y-00318*
X-02472Y-00328*
X-02462*
X-02452Y-00338*
X-02393D02*
X-02383Y-00328D01*
X-02373*
X-02383Y-00318*
X-02373Y-00308*
X-02383*
X-02393Y-00298*
X-02403Y-00308*
X-02413*
X-02403Y-00318*
X-02413Y-00328*
X-02403*
X-02393Y-00338*
X-02334D02*
X-02324Y-00328D01*
X-02314*
X-02324Y-00318*
X-02314Y-00308*
X-02324*
X-02334Y-00298*
X-02344Y-00308*
X-02354*
X-02344Y-00318*
X-02354Y-00328*
X-02344*
X-02334Y-00338*
X-02275D02*
X-02265Y-00328D01*
X-02255*
X-02265Y-00318*
X-02255Y-00308*
X-02265*
X-02275Y-00298*
X-02285Y-00308*
X-02295*
X-02285Y-00318*
X-02295Y-00328*
X-02285*
X-02275Y-00338*
X-02216D02*
X-02206Y-00328D01*
X-02196*
X-02206Y-00318*
X-02196Y-00308*
X-02206*
X-02216Y-00298*
X-02226Y-00308*
X-02236*
X-02226Y-00318*
X-02236Y-00328*
X-02226*
X-02216Y-00338*
X-02157D02*
X-02147Y-00328D01*
X-02137*
X-02147Y-00318*
X-02137Y-00308*
X-02147*
X-02157Y-00298*
X-02167Y-00308*
X-02177*
X-02167Y-00318*
X-02177Y-00328*
X-02167*
X-02157Y-00338*
X01873Y01042D02*
X01853Y01082D01*
X01893*
X01873Y01042*
Y0105D02*
X01861Y01074D01*
X01885*
X01873Y0105*
X02446Y00553D02*
X02426Y00593D01*
X02466*
X02446Y00553*
Y00474D02*
X02426Y00514D01*
X02466*
X02446Y00474*
Y00395D02*
X02426Y00435D01*
X02466*
X02446Y00395*
X-01336Y-00381D02*
X-01326D01*
X-01316Y-00371*
X-01306Y-00381*
X-01296*
Y-00371*
X-01306Y-00361*
X-01296Y-00351*
Y-00341*
X-01306*
X-01316Y-00351*
X-01326Y-00341*
X-01336*
Y-00351*
X-01326Y-00361*
X-01336Y-00371*
Y-00381*
X-01436D02*
X-01426D01*
X-01416Y-00371*
X-01406Y-00381*
X-01396*
Y-00371*
X-01406Y-00361*
X-01396Y-00351*
Y-00341*
X-01406*
X-01416Y-00351*
X-01426Y-00341*
X-01436*
Y-00351*
X-01426Y-00361*
X-01436Y-00371*
Y-00381*
X-01536D02*
X-01526D01*
X-01516Y-00371*
X-01506Y-00381*
X-01496*
Y-00371*
X-01506Y-00361*
X-01496Y-00351*
Y-00341*
X-01506*
X-01516Y-00351*
X-01526Y-00341*
X-01536*
Y-00351*
X-01526Y-00361*
X-01536Y-00371*
Y-00381*
X-01636D02*
X-01626D01*
X-01616Y-00371*
X-01606Y-00381*
X-01596*
Y-00371*
X-01606Y-00361*
X-01596Y-00351*
Y-00341*
X-01606*
X-01616Y-00351*
X-01626Y-00341*
X-01636*
Y-00351*
X-01626Y-00361*
X-01636Y-00371*
Y-00381*
X-01736D02*
X-01726D01*
X-01716Y-00371*
X-01706Y-00381*
X-01696*
Y-00371*
X-01706Y-00361*
X-01696Y-00351*
Y-00341*
X-01706*
X-01716Y-00351*
X-01726Y-00341*
X-01736*
Y-00351*
X-01726Y-00361*
X-01736Y-00371*
Y-00381*
X-01836D02*
X-01826D01*
X-01816Y-00371*
X-01806Y-00381*
X-01796*
Y-00371*
X-01806Y-00361*
X-01796Y-00351*
Y-00341*
X-01806*
X-01816Y-00351*
X-01826Y-00341*
X-01836*
Y-00351*
X-01826Y-00361*
X-01836Y-00371*
Y-00381*
X-01936D02*
X-01926D01*
X-01916Y-00371*
X-01906Y-00381*
X-01896*
Y-00371*
X-01906Y-00361*
X-01896Y-00351*
Y-00341*
X-01906*
X-01916Y-00351*
X-01926Y-00341*
X-01936*
Y-00351*
X-01926Y-00361*
X-01936Y-00371*
Y-00381*
X-02036D02*
X-02026D01*
X-02016Y-00371*
X-02006Y-00381*
X-01996*
Y-00371*
X-02006Y-00361*
X-01996Y-00351*
Y-00341*
X-02006*
X-02016Y-00351*
X-02026Y-00341*
X-02036*
Y-00351*
X-02026Y-00361*
X-02036Y-00371*
Y-00381*
X-01636Y00718D02*
X-01626D01*
X-01616Y00728*
X-01606Y00718*
X-01596*
Y00728*
X-01606Y00738*
X-01596Y00748*
Y00758*
X-01606*
X-01616Y00748*
X-01626Y00758*
X-01636*
Y00748*
X-01626Y00738*
X-01636Y00728*
Y00718*
X-01436D02*
X-01426D01*
X-01416Y00728*
X-01406Y00718*
X-01396*
Y00728*
X-01406Y00738*
X-01396Y00748*
Y00758*
X-01406*
X-01416Y00748*
X-01426Y00758*
X-01436*
Y00748*
X-01426Y00738*
X-01436Y00728*
Y00718*
X-01336D02*
X-01326D01*
X-01316Y00728*
X-01306Y00718*
X-01296*
Y00728*
X-01306Y00738*
X-01296Y00748*
Y00758*
X-01306*
X-01316Y00748*
X-01326Y00758*
X-01336*
Y00748*
X-01326Y00738*
X-01336Y00728*
Y00718*
X-01536D02*
X-01526D01*
X-01516Y00728*
X-01506Y00718*
X-01496*
Y00728*
X-01506Y00738*
X-01496Y00748*
Y00758*
X-01506*
X-01516Y00748*
X-01526Y00758*
X-01536*
Y00748*
X-01526Y00738*
X-01536Y00728*
Y00718*
X-00491Y-00382D02*
X-00481D01*
X-00471Y-00372*
X-00461Y-00382*
X-00451*
Y-00372*
X-00461Y-00362*
X-00451Y-00352*
Y-00342*
X-00461*
X-00471Y-00352*
X-00481Y-00342*
X-00491*
Y-00352*
X-00481Y-00362*
X-00491Y-00372*
Y-00382*
X-00591D02*
X-00581D01*
X-00571Y-00372*
X-00561Y-00382*
X-00551*
Y-00372*
X-00561Y-00362*
X-00551Y-00352*
Y-00342*
X-00561*
X-00571Y-00352*
X-00581Y-00342*
X-00591*
Y-00352*
X-00581Y-00362*
X-00591Y-00372*
Y-00382*
X-00691D02*
X-00681D01*
X-00671Y-00372*
X-00661Y-00382*
X-00651*
Y-00372*
X-00661Y-00362*
X-00651Y-00352*
Y-00342*
X-00661*
X-00671Y-00352*
X-00681Y-00342*
X-00691*
Y-00352*
X-00681Y-00362*
X-00691Y-00372*
Y-00382*
X-00791D02*
X-00781D01*
X-00771Y-00372*
X-00761Y-00382*
X-00751*
Y-00372*
X-00761Y-00362*
X-00751Y-00352*
Y-00342*
X-00761*
X-00771Y-00352*
X-00781Y-00342*
X-00791*
Y-00352*
X-00781Y-00362*
X-00791Y-00372*
Y-00382*
X-00891D02*
X-00881D01*
X-00871Y-00372*
X-00861Y-00382*
X-00851*
Y-00372*
X-00861Y-00362*
X-00851Y-00352*
Y-00342*
X-00861*
X-00871Y-00352*
X-00881Y-00342*
X-00891*
Y-00352*
X-00881Y-00362*
X-00891Y-00372*
Y-00382*
X-00991D02*
X-00981D01*
X-00971Y-00372*
X-00961Y-00382*
X-00951*
Y-00372*
X-00961Y-00362*
X-00951Y-00352*
Y-00342*
X-00961*
X-00971Y-00352*
X-00981Y-00342*
X-00991*
Y-00352*
X-00981Y-00362*
X-00991Y-00372*
Y-00382*
X-01091D02*
X-01081D01*
X-01071Y-00372*
X-01061Y-00382*
X-01051*
Y-00372*
X-01061Y-00362*
X-01051Y-00352*
Y-00342*
X-01061*
X-01071Y-00352*
X-01081Y-00342*
X-01091*
Y-00352*
X-01081Y-00362*
X-01091Y-00372*
Y-00382*
X-01191D02*
X-01181D01*
X-01171Y-00372*
X-01161Y-00382*
X-01151*
Y-00372*
X-01161Y-00362*
X-01151Y-00352*
Y-00342*
X-01161*
X-01171Y-00352*
X-01181Y-00342*
X-01191*
Y-00352*
X-01181Y-00362*
X-01191Y-00372*
Y-00382*
X-00791Y00717D02*
X-00781D01*
X-00771Y00727*
X-00761Y00717*
X-00751*
Y00727*
X-00761Y00737*
X-00751Y00747*
Y00757*
X-00761*
X-00771Y00747*
X-00781Y00757*
X-00791*
Y00747*
X-00781Y00737*
X-00791Y00727*
Y00717*
X-00591D02*
X-00581D01*
X-00571Y00727*
X-00561Y00717*
X-00551*
Y00727*
X-00561Y00737*
X-00551Y00747*
Y00757*
X-00561*
X-00571Y00747*
X-00581Y00757*
X-00591*
Y00747*
X-00581Y00737*
X-00591Y00727*
Y00717*
X-00491D02*
X-00481D01*
X-00471Y00727*
X-00461Y00717*
X-00451*
Y00727*
X-00461Y00737*
X-00451Y00747*
Y00757*
X-00461*
X-00471Y00747*
X-00481Y00757*
X-00491*
Y00747*
X-00481Y00737*
X-00491Y00727*
Y00717*
X-00691D02*
X-00681D01*
X-00671Y00727*
X-00661Y00717*
X-00651*
Y00727*
X-00661Y00737*
X-00651Y00747*
Y00757*
X-00661*
X-00671Y00747*
X-00681Y00757*
X-00691*
Y00747*
X-00681Y00737*
X-00691Y00727*
Y00717*
X01151Y-00384D02*
X01161D01*
X01171Y-00374*
X01181Y-00384*
X01191*
Y-00374*
X01181Y-00364*
X01191Y-00354*
Y-00344*
X01181*
X01171Y-00354*
X01161Y-00344*
X01151*
Y-00354*
X01161Y-00364*
X01151Y-00374*
Y-00384*
X01051D02*
X01061D01*
X01071Y-00374*
X01081Y-00384*
X01091*
Y-00374*
X01081Y-00364*
X01091Y-00354*
Y-00344*
X01081*
X01071Y-00354*
X01061Y-00344*
X01051*
Y-00354*
X01061Y-00364*
X01051Y-00374*
Y-00384*
X00951D02*
X00961D01*
X00971Y-00374*
X00981Y-00384*
X00991*
Y-00374*
X00981Y-00364*
X00991Y-00354*
Y-00344*
X00981*
X00971Y-00354*
X00961Y-00344*
X00951*
Y-00354*
X00961Y-00364*
X00951Y-00374*
Y-00384*
X00851D02*
X00861D01*
X00871Y-00374*
X00881Y-00384*
X00891*
Y-00374*
X00881Y-00364*
X00891Y-00354*
Y-00344*
X00881*
X00871Y-00354*
X00861Y-00344*
X00851*
Y-00354*
X00861Y-00364*
X00851Y-00374*
Y-00384*
X00751D02*
X00761D01*
X00771Y-00374*
X00781Y-00384*
X00791*
Y-00374*
X00781Y-00364*
X00791Y-00354*
Y-00344*
X00781*
X00771Y-00354*
X00761Y-00344*
X00751*
Y-00354*
X00761Y-00364*
X00751Y-00374*
Y-00384*
X00651D02*
X00661D01*
X00671Y-00374*
X00681Y-00384*
X00691*
Y-00374*
X00681Y-00364*
X00691Y-00354*
Y-00344*
X00681*
X00671Y-00354*
X00661Y-00344*
X00651*
Y-00354*
X00661Y-00364*
X00651Y-00374*
Y-00384*
X00551D02*
X00561D01*
X00571Y-00374*
X00581Y-00384*
X00591*
Y-00374*
X00581Y-00364*
X00591Y-00354*
Y-00344*
X00581*
X00571Y-00354*
X00561Y-00344*
X00551*
Y-00354*
X00561Y-00364*
X00551Y-00374*
Y-00384*
X00451D02*
X00461D01*
X00471Y-00374*
X00481Y-00384*
X00491*
Y-00374*
X00481Y-00364*
X00491Y-00354*
Y-00344*
X00481*
X00471Y-00354*
X00461Y-00344*
X00451*
Y-00354*
X00461Y-00364*
X00451Y-00374*
Y-00384*
X00851Y00715D02*
X00861D01*
X00871Y00725*
X00881Y00715*
X00891*
Y00725*
X00881Y00735*
X00891Y00745*
Y00755*
X00881*
X00871Y00745*
X00861Y00755*
X00851*
Y00745*
X00861Y00735*
X00851Y00725*
Y00715*
X01051D02*
X01061D01*
X01071Y00725*
X01081Y00715*
X01091*
Y00725*
X01081Y00735*
X01091Y00745*
Y00755*
X01081*
X01071Y00745*
X01061Y00755*
X01051*
Y00745*
X01061Y00735*
X01051Y00725*
Y00715*
X01151D02*
X01161D01*
X01171Y00725*
X01181Y00715*
X01191*
Y00725*
X01181Y00735*
X01191Y00745*
Y00755*
X01181*
X01171Y00745*
X01161Y00755*
X01151*
Y00745*
X01161Y00735*
X01151Y00725*
Y00715*
X00951D02*
X00961D01*
X00971Y00725*
X00981Y00715*
X00991*
Y00725*
X00981Y00735*
X00991Y00745*
Y00755*
X00981*
X00971Y00745*
X00961Y00755*
X00951*
Y00745*
X00961Y00735*
X00951Y00725*
Y00715*
X01998Y-00384D02*
X02008D01*
X02018Y-00374*
X02028Y-00384*
X02038*
Y-00374*
X02028Y-00364*
X02038Y-00354*
Y-00344*
X02028*
X02018Y-00354*
X02008Y-00344*
X01998*
Y-00354*
X02008Y-00364*
X01998Y-00374*
Y-00384*
X01898D02*
X01908D01*
X01918Y-00374*
X01928Y-00384*
X01938*
Y-00374*
X01928Y-00364*
X01938Y-00354*
Y-00344*
X01928*
X01918Y-00354*
X01908Y-00344*
X01898*
Y-00354*
X01908Y-00364*
X01898Y-00374*
Y-00384*
X01798D02*
X01808D01*
X01818Y-00374*
X01828Y-00384*
X01838*
Y-00374*
X01828Y-00364*
X01838Y-00354*
Y-00344*
X01828*
X01818Y-00354*
X01808Y-00344*
X01798*
Y-00354*
X01808Y-00364*
X01798Y-00374*
Y-00384*
X01698D02*
X01708D01*
X01718Y-00374*
X01728Y-00384*
X01738*
Y-00374*
X01728Y-00364*
X01738Y-00354*
Y-00344*
X01728*
X01718Y-00354*
X01708Y-00344*
X01698*
Y-00354*
X01708Y-00364*
X01698Y-00374*
Y-00384*
X01598D02*
X01608D01*
X01618Y-00374*
X01628Y-00384*
X01638*
Y-00374*
X01628Y-00364*
X01638Y-00354*
Y-00344*
X01628*
X01618Y-00354*
X01608Y-00344*
X01598*
Y-00354*
X01608Y-00364*
X01598Y-00374*
Y-00384*
X01498D02*
X01508D01*
X01518Y-00374*
X01528Y-00384*
X01538*
Y-00374*
X01528Y-00364*
X01538Y-00354*
Y-00344*
X01528*
X01518Y-00354*
X01508Y-00344*
X01498*
Y-00354*
X01508Y-00364*
X01498Y-00374*
Y-00384*
X01398D02*
X01408D01*
X01418Y-00374*
X01428Y-00384*
X01438*
Y-00374*
X01428Y-00364*
X01438Y-00354*
Y-00344*
X01428*
X01418Y-00354*
X01408Y-00344*
X01398*
Y-00354*
X01408Y-00364*
X01398Y-00374*
Y-00384*
X01298D02*
X01308D01*
X01318Y-00374*
X01328Y-00384*
X01338*
Y-00374*
X01328Y-00364*
X01338Y-00354*
Y-00344*
X01328*
X01318Y-00354*
X01308Y-00344*
X01298*
Y-00354*
X01308Y-00364*
X01298Y-00374*
Y-00384*
X01698Y00715D02*
X01708D01*
X01718Y00725*
X01728Y00715*
X01738*
Y00725*
X01728Y00735*
X01738Y00745*
Y00755*
X01728*
X01718Y00745*
X01708Y00755*
X01698*
Y00745*
X01708Y00735*
X01698Y00725*
Y00715*
X01898D02*
X01908D01*
X01918Y00725*
X01928Y00715*
X01938*
Y00725*
X01928Y00735*
X01938Y00745*
Y00755*
X01928*
X01918Y00745*
X01908Y00755*
X01898*
Y00745*
X01908Y00735*
X01898Y00725*
Y00715*
X01998D02*
X02008D01*
X02018Y00725*
X02028Y00715*
X02038*
Y00725*
X02028Y00735*
X02038Y00745*
Y00755*
X02028*
X02018Y00745*
X02008Y00755*
X01998*
Y00745*
X02008Y00735*
X01998Y00725*
Y00715*
X01798D02*
X01808D01*
X01818Y00725*
X01828Y00715*
X01838*
Y00725*
X01828Y00735*
X01838Y00745*
Y00755*
X01828*
X01818Y00745*
X01808Y00755*
X01798*
Y00745*
X01808Y00735*
X01798Y00725*
Y00715*
X-02234Y-00836D02*
X-02254Y-00796D01*
X-02214*
X-02234Y-00836*
Y-00758D02*
X-02254Y-00718D01*
X-02214*
X-02234Y-00758*
Y-00679D02*
X-02254Y-00639D01*
X-02214*
X-02234Y-00679*
X-02452Y00394D02*
X-02472Y00434D01*
X-02432*
X-02452Y00394*
Y00473D02*
X-02472Y00513D01*
X-02432*
X-02452Y00473*
Y00552D02*
X-02472Y00592D01*
X-02432*
X-02452Y00552*
X01253Y-00861D02*
X01263Y-00851D01*
X01273*
X01263Y-00841*
X01273Y-00831*
X01263*
X01253Y-00821*
X01243Y-00831*
X01233*
X01243Y-00841*
X01233Y-00851*
X01243*
X01253Y-00861*
X00664D02*
X00674Y-00851D01*
X00684*
X00674Y-00841*
X00684Y-00831*
X00674*
X00664Y-00821*
X00654Y-00831*
X00644*
X00654Y-00841*
X00644Y-00851*
X00654*
X00664Y-00861*
X01253Y-01058D02*
X01263Y-01048D01*
X01273*
X01263Y-01038*
X01273Y-01028*
X01263*
X01253Y-01018*
X01243Y-01028*
X01233*
X01243Y-01038*
X01233Y-01048*
X01243*
X01253Y-01058*
X01837D02*
X01847Y-01048D01*
X01857*
X01847Y-01038*
X01857Y-01028*
X01847*
X01837Y-01018*
X01827Y-01028*
X01817*
X01827Y-01038*
X01817Y-01048*
X01827*
X01837Y-01058*
X01834Y-00861D02*
X01844Y-00851D01*
X01854*
X01844Y-00841*
X01854Y-00831*
X01844*
X01834Y-00821*
X01824Y-00831*
X01814*
X01824Y-00841*
X01814Y-00851*
X01824*
X01834Y-00861*
X-02274Y-00182D02*
X-02264Y-00172D01*
X-02254*
X-02264Y-00162*
X-02254Y-00152*
X-02264*
X-02274Y-00142*
X-02284Y-00152*
X-02294*
X-02284Y-00162*
X-02294Y-00172*
X-02284*
X-02274Y-00182*
Y00135D02*
X-02264Y00145D01*
X-02254*
X-02264Y00155*
X-02254Y00165*
X-02264*
X-02274Y00175*
X-02284Y00165*
X-02294*
X-02284Y00155*
X-02294Y00145*
X-02284*
X-02274Y00135*
Y00294D02*
X-02264Y00304D01*
X-02254*
X-02264Y00314*
X-02254Y00324*
X-02264*
X-02274Y00334*
X-02284Y00324*
X-02294*
X-02284Y00314*
X-02294Y00304*
X-02284*
X-02274Y00294*
Y-00022D02*
X-02264Y-00012D01*
X-02254*
X-02264Y-00002*
X-02254Y00007*
X-02264*
X-02274Y00017*
X-02284Y00007*
X-02294*
X-02284Y-00002*
X-02294Y-00012*
X-02284*
X-02274Y-00022*
X-02156Y00294D02*
X-02146Y00304D01*
X-02136*
X-02146Y00314*
X-02136Y00324*
X-02146*
X-02156Y00334*
X-02166Y00324*
X-02176*
X-02166Y00314*
X-02176Y00304*
X-02166*
X-02156Y00294*
X-02215D02*
X-02205Y00304D01*
X-02195*
X-02205Y00314*
X-02195Y00324*
X-02205*
X-02215Y00334*
X-02225Y00324*
X-02235*
X-02225Y00314*
X-02235Y00304*
X-02225*
X-02215Y00294*
Y00135D02*
X-02205Y00145D01*
X-02195*
X-02205Y00155*
X-02195Y00165*
X-02205*
X-02215Y00175*
X-02225Y00165*
X-02235*
X-02225Y00155*
X-02235Y00145*
X-02225*
X-02215Y00135*
X-02156D02*
X-02146Y00145D01*
X-02136*
X-02146Y00155*
X-02136Y00165*
X-02146*
X-02156Y00175*
X-02166Y00165*
X-02176*
X-02166Y00155*
X-02176Y00145*
X-02166*
X-02156Y00135*
X-02215Y-00022D02*
X-02205Y-00012D01*
X-02195*
X-02205Y-00002*
X-02195Y00007*
X-02205*
X-02215Y00017*
X-02225Y00007*
X-02235*
X-02225Y-00002*
X-02235Y-00012*
X-02225*
X-02215Y-00022*
X-02156D02*
X-02146Y-00012D01*
X-02136*
X-02146Y-00002*
X-02136Y00007*
X-02146*
X-02156Y00017*
X-02166Y00007*
X-02176*
X-02166Y-00002*
X-02176Y-00012*
X-02166*
X-02156Y-00022*
X-02215Y-00182D02*
X-02205Y-00172D01*
X-02195*
X-02205Y-00162*
X-02195Y-00152*
X-02205*
X-02215Y-00142*
X-02225Y-00152*
X-02235*
X-02225Y-00162*
X-02235Y-00172*
X-02225*
X-02215Y-00182*
X-02156D02*
X-02146Y-00172D01*
X-02136*
X-02146Y-00162*
X-02136Y-00152*
X-02146*
X-02156Y-00142*
X-02166Y-00152*
X-02176*
X-02166Y-00162*
X-02176Y-00172*
X-02166*
X-02156Y-00182*
X-00051Y00221D02*
X-00041Y00241D01*
X-00051Y00261*
X-00031Y00251*
X-00011Y00261*
X-00021Y00241*
X-00011Y00221*
X-00031Y00231*
X-00051Y00221*
X-00106D02*
X-00096Y00241D01*
X-00106Y00261*
X-00086Y00251*
X-00066Y00261*
X-00076Y00241*
X-00066Y00221*
X-00086Y00231*
X-00106Y00221*
X-00051Y00276D02*
X-00041Y00296D01*
X-00051Y00316*
X-00031Y00306*
X-00011Y00316*
X-00021Y00296*
X-00011Y00276*
X-00031Y00286*
X-00051Y00276*
X-00106D02*
X-00096Y00296D01*
X-00106Y00316*
X-00086Y00306*
X-00066Y00316*
X-00076Y00296*
X-00066Y00276*
X-00086Y00286*
X-00106Y00276*
X-00051Y00331D02*
X-00041Y00351D01*
X-00051Y00371*
X-00031Y00361*
X-00011Y00371*
X-00021Y00351*
X-00011Y00331*
X-00031Y00341*
X-00051Y00331*
X-00106D02*
X-00096Y00351D01*
X-00106Y00371*
X-00086Y00361*
X-00066Y00371*
X-00076Y00351*
X-00066Y00331*
X-00086Y00341*
X-00106Y00331*
X-00023Y00249D02*
X-00013Y00269D01*
X-00023Y00289*
X-00003Y00279*
X00016Y00289*
X00006Y00269*
X00016Y00249*
X-00003Y00259*
X-00023Y00249*
X-00079D02*
X-00069Y00269D01*
X-00079Y00289*
X-00059Y00279*
X-00039Y00289*
X-00049Y00269*
X-00039Y00249*
X-00059Y00259*
X-00079Y00249*
X-00134D02*
X-00124Y00269D01*
X-00134Y00289*
X-00114Y00279*
X-00094Y00289*
X-00104Y00269*
X-00094Y00249*
X-00114Y00259*
X-00134Y00249*
X-00023Y00304D02*
X-00013Y00324D01*
X-00023Y00344*
X-00003Y00334*
X00016Y00344*
X00006Y00324*
X00016Y00304*
X-00003Y00314*
X-00023Y00304*
X-00134D02*
X-00124Y00324D01*
X-00134Y00344*
X-00114Y00334*
X-00094Y00344*
X-00104Y00324*
X-00094Y00304*
X-00114Y00314*
X-00134Y00304*
X-00079D02*
X-00069Y00324D01*
X-00079Y00344*
X-00059Y00334*
X-00039Y00344*
X-00049Y00324*
X-00039Y00304*
X-00059Y00314*
X-00079Y00304*
X00938Y-00861D02*
X00948Y-00851D01*
X00958*
X00948Y-00841*
X00958Y-00831*
X00948*
X00938Y-00821*
X00928Y-00831*
X00918*
X00928Y-00841*
X00918Y-00851*
X00928*
X00938Y-00861*
X01017D02*
X01027Y-00851D01*
X01037*
X01027Y-00841*
X01037Y-00831*
X01027*
X01017Y-00821*
X01007Y-00831*
X00997*
X01007Y-00841*
X00997Y-00851*
X01007*
X01017Y-00861*
X01096D02*
X01106Y-00851D01*
X01116*
X01106Y-00841*
X01116Y-00831*
X01106*
X01096Y-00821*
X01086Y-00831*
X01076*
X01086Y-00841*
X01076Y-00851*
X01086*
X01096Y-00861*
X01175D02*
X01185Y-00851D01*
X01195*
X01185Y-00841*
X01195Y-00831*
X01185*
X01175Y-00821*
X01165Y-00831*
X01155*
X01165Y-00841*
X01155Y-00851*
X01165*
X01175Y-00861*
X-02579Y-00844D02*
X-02599Y-00804D01*
X-02559*
X-02579Y-00844*
Y-00836D02*
X-02591Y-00812D01*
X-02567*
X-02579Y-00836*
X02579Y-00844D02*
X02559Y-00804D01*
X02599*
X02579Y-00844*
Y-00836D02*
X02567Y-00812D01*
X02591*
X02579Y-00836*
Y0081D02*
X02559Y0085D01*
X02599*
X02579Y0081*
Y00818D02*
X02567Y00842D01*
X02591*
X02579Y00818*
X-01873Y01042D02*
X-01893Y01082D01*
X-01853*
X-01873Y01042*
Y0105D02*
X-01885Y01074D01*
X-01861*
X-01873Y0105*
X-02579Y0081D02*
X-02599Y0085D01*
X-02559*
X-02579Y0081*
Y00818D02*
X-02591Y00842D01*
X-02567*
X-02579Y00818*
X-00212Y-00574D02*
Y-00584D01*
X-00192*
Y-00574*
X-00182*
Y-00554*
X-00192*
Y-00544*
X-00212*
Y-00554*
X-00222*
Y-00574*
X-00212*
X-00153D02*
Y-00584D01*
X-00133*
Y-00574*
X-00123*
Y-00554*
X-00133*
Y-00544*
X-00153*
Y-00554*
X-00163*
Y-00574*
X-00153*
X-00094D02*
Y-00584D01*
X-00074*
Y-00574*
X-00064*
Y-00554*
X-00074*
Y-00544*
X-00094*
Y-00554*
X-00104*
Y-00574*
X-00094*
X-00035D02*
Y-00584D01*
X-00015*
Y-00574*
X-00005*
Y-00554*
X-00015*
Y-00544*
X-00035*
Y-00554*
X-00045*
Y-00574*
X-00035*
X00585Y-00861D02*
X00595Y-00851D01*
X00605*
X00595Y-00841*
X00605Y-00831*
X00595*
X00585Y-00821*
X00575Y-00831*
X00565*
X00575Y-00841*
X00565Y-00851*
X00575*
X00585Y-00861*
X00507D02*
X00517Y-00851D01*
X00527*
X00517Y-00841*
X00527Y-00831*
X00517*
X00507Y-00821*
X00497Y-00831*
X00487*
X00497Y-00841*
X00487Y-00851*
X00497*
X00507Y-00861*
X00428D02*
X00438Y-00851D01*
X00448*
X00438Y-00841*
X00448Y-00831*
X00438*
X00428Y-00821*
X00418Y-00831*
X00408*
X00418Y-00841*
X00408Y-00851*
X00418*
X00428Y-00861*
X00349D02*
X00359Y-00851D01*
X00369*
X00359Y-00841*
X00369Y-00831*
X00359*
X00349Y-00821*
X00339Y-00831*
X00329*
X00339Y-00841*
X00329Y-00851*
X00339*
X00349Y-00861*
X01175Y-01058D02*
X01185Y-01048D01*
X01195*
X01185Y-01038*
X01195Y-01028*
X01185*
X01175Y-01018*
X01165Y-01028*
X01155*
X01165Y-01038*
X01155Y-01048*
X01165*
X01175Y-01058*
X01096D02*
X01106Y-01048D01*
X01116*
X01106Y-01038*
X01116Y-01028*
X01106*
X01096Y-01018*
X01086Y-01028*
X01076*
X01086Y-01038*
X01076Y-01048*
X01086*
X01096Y-01058*
X01017D02*
X01027Y-01048D01*
X01037*
X01027Y-01038*
X01037Y-01028*
X01027*
X01017Y-01018*
X01007Y-01028*
X00997*
X01007Y-01038*
X00997Y-01048*
X01007*
X01017Y-01058*
X00938D02*
X00948Y-01048D01*
X00958*
X00948Y-01038*
X00958Y-01028*
X00948*
X00938Y-01018*
X00928Y-01028*
X00918*
X00928Y-01038*
X00918Y-01048*
X00928*
X00938Y-01058*
X01759D02*
X01769Y-01048D01*
X01779*
X01769Y-01038*
X01779Y-01028*
X01769*
X01759Y-01018*
X01749Y-01028*
X01739*
X01749Y-01038*
X01739Y-01048*
X01749*
X01759Y-01058*
X0168D02*
X0169Y-01048D01*
X017*
X0169Y-01038*
X017Y-01028*
X0169*
X0168Y-01018*
X0167Y-01028*
X0166*
X0167Y-01038*
X0166Y-01048*
X0167*
X0168Y-01058*
X01601D02*
X01611Y-01048D01*
X01621*
X01611Y-01038*
X01621Y-01028*
X01611*
X01601Y-01018*
X01591Y-01028*
X01581*
X01591Y-01038*
X01581Y-01048*
X01591*
X01601Y-01058*
X01523D02*
X01533Y-01048D01*
X01543*
X01533Y-01038*
X01543Y-01028*
X01533*
X01523Y-01018*
X01513Y-01028*
X01503*
X01513Y-01038*
X01503Y-01048*
X01513*
X01523Y-01058*
X01755Y-00861D02*
X01765Y-00851D01*
X01775*
X01765Y-00841*
X01775Y-00831*
X01765*
X01755Y-00821*
X01745Y-00831*
X01735*
X01745Y-00841*
X01735Y-00851*
X01745*
X01755Y-00861*
X01677D02*
X01687Y-00851D01*
X01697*
X01687Y-00841*
X01697Y-00831*
X01687*
X01677Y-00821*
X01667Y-00831*
X01657*
X01667Y-00841*
X01657Y-00851*
X01667*
X01677Y-00861*
X01598D02*
X01608Y-00851D01*
X01618*
X01608Y-00841*
X01618Y-00831*
X01608*
X01598Y-00821*
X01588Y-00831*
X01578*
X01588Y-00841*
X01578Y-00851*
X01588*
X01598Y-00861*
X01519D02*
X01529Y-00851D01*
X01539*
X01529Y-00841*
X01539Y-00831*
X01529*
X01519Y-00821*
X01509Y-00831*
X01499*
X01509Y-00841*
X01499Y-00851*
X01509*
X01519Y-00861*
X02195Y-00679D02*
X02175Y-00639D01*
X02215*
X02195Y-00679*
Y-00758D02*
X02175Y-00718D01*
X02215*
X02195Y-00758*
Y-00836D02*
X02175Y-00796D01*
X02215*
X02195Y-00836*
X01885Y00258D02*
X01895Y00268D01*
X01905*
X01895Y00278*
X01905Y00288*
X01895*
X01885Y00298*
X01875Y00288*
X01865*
X01875Y00278*
X01865Y00268*
X01875*
X01885Y00258*
Y00266D02*
X01891Y00272D01*
X01897*
X01891Y00278*
X01897Y00284*
X01891*
X01885Y0029*
X01879Y00284*
X01873*
X01879Y00278*
X01873Y00272*
X01879*
X01885Y00266*
X01003Y-00145D02*
X01013Y-00135D01*
X01023*
X01013Y-00125*
X01023Y-00115*
X01013*
X01003Y-00105*
X00993Y-00115*
X00983*
X00993Y-00125*
X00983Y-00135*
X00993*
X01003Y-00145*
Y-00137D02*
X01009Y-00131D01*
X01015*
X01009Y-00125*
X01015Y-00119*
X01009*
X01003Y-00113*
X00997Y-00119*
X00991*
X00997Y-00125*
X00991Y-00131*
X00997*
X01003Y-00137*
X02181Y00457D02*
X02191Y00467D01*
X02201*
X02191Y00477*
X02201Y00487*
X02191*
X02181Y00497*
X02171Y00487*
X02161*
X02171Y00477*
X02161Y00467*
X02171*
X02181Y00457*
Y00465D02*
X02187Y00471D01*
X02193*
X02187Y00477*
X02193Y00483*
X02187*
X02181Y00489*
X02175Y00483*
X02169*
X02175Y00477*
X02169Y00471*
X02175*
X02181Y00465*
X01783Y005D02*
X01793Y0051D01*
X01803*
X01793Y0052*
X01803Y0053*
X01793*
X01783Y0054*
X01773Y0053*
X01763*
X01773Y0052*
X01763Y0051*
X01773*
X01783Y005*
Y00508D02*
X01789Y00514D01*
X01795*
X01789Y0052*
X01795Y00526*
X01789*
X01783Y00532*
X01777Y00526*
X01771*
X01777Y0052*
X01771Y00514*
X01777*
X01783Y00508*
X00894Y00398D02*
X00904Y00408D01*
X00914*
X00904Y00418*
X00914Y00428*
X00904*
X00894Y00438*
X00884Y00428*
X00874*
X00884Y00418*
X00874Y00408*
X00884*
X00894Y00398*
Y00406D02*
X009Y00412D01*
X00906*
X009Y00418*
X00906Y00424*
X009*
X00894Y0043*
X00888Y00424*
X00882*
X00888Y00418*
X00882Y00412*
X00888*
X00894Y00406*
X00938Y00344D02*
X00948Y00354D01*
X00958*
X00948Y00364*
X00958Y00374*
X00948*
X00938Y00384*
X00928Y00374*
X00918*
X00928Y00364*
X00918Y00354*
X00928*
X00938Y00344*
Y00352D02*
X00944Y00358D01*
X0095*
X00944Y00364*
X0095Y0037*
X00944*
X00938Y00376*
X00932Y0037*
X00926*
X00932Y00364*
X00926Y00358*
X00932*
X00938Y00352*
X-00298Y-00377D02*
X-00288Y-00367D01*
X-00278*
X-00288Y-00357*
X-00278Y-00347*
X-00288*
X-00298Y-00337*
X-00308Y-00347*
X-00318*
X-00308Y-00357*
X-00318Y-00367*
X-00308*
X-00298Y-00377*
Y-00369D02*
X-00292Y-00363D01*
X-00286*
X-00292Y-00357*
X-00286Y-00351*
X-00292*
X-00298Y-00345*
X-00304Y-00351*
X-0031*
X-00304Y-00357*
X-0031Y-00363*
X-00304*
X-00298Y-00369*
X-00279Y-00417D02*
X-00269Y-00407D01*
X-00259*
X-00269Y-00397*
X-00259Y-00387*
X-00269*
X-00279Y-00377*
X-00289Y-00387*
X-00299*
X-00289Y-00397*
X-00299Y-00407*
X-00289*
X-00279Y-00417*
Y-00409D02*
X-00273Y-00403D01*
X-00267*
X-00273Y-00397*
X-00267Y-00391*
X-00273*
X-00279Y-00385*
X-00285Y-00391*
X-00291*
X-00285Y-00397*
X-00291Y-00403*
X-00285*
X-00279Y-00409*
X-00851Y-00964D02*
X-00841Y-00954D01*
X-00831*
X-00841Y-00944*
X-00831Y-00934*
X-00841*
X-00851Y-00924*
X-00861Y-00934*
X-00871*
X-00861Y-00944*
X-00871Y-00954*
X-00861*
X-00851Y-00964*
Y-00956D02*
X-00845Y-0095D01*
X-00839*
X-00845Y-00944*
X-00839Y-00938*
X-00845*
X-00851Y-00932*
X-00857Y-00938*
X-00863*
X-00857Y-00944*
X-00863Y-0095*
X-00857*
X-00851Y-00956*
X-00528Y-005D02*
X-00518Y-0049D01*
X-00508*
X-00518Y-0048*
X-00508Y-0047*
X-00518*
X-00528Y-0046*
X-00538Y-0047*
X-00548*
X-00538Y-0048*
X-00548Y-0049*
X-00538*
X-00528Y-005*
Y-00492D02*
X-00522Y-00486D01*
X-00516*
X-00522Y-0048*
X-00516Y-00474*
X-00522*
X-00528Y-00468*
X-00534Y-00474*
X-0054*
X-00534Y-0048*
X-0054Y-00486*
X-00534*
X-00528Y-00492*
X-00897Y00313D02*
X-00887Y00323D01*
X-00877*
X-00887Y00333*
X-00877Y00343*
X-00887*
X-00897Y00353*
X-00907Y00343*
X-00917*
X-00907Y00333*
X-00917Y00323*
X-00907*
X-00897Y00313*
Y00321D02*
X-00891Y00327D01*
X-00885*
X-00891Y00333*
X-00885Y00339*
X-00891*
X-00897Y00345*
X-00903Y00339*
X-00909*
X-00903Y00333*
X-00909Y00327*
X-00903*
X-00897Y00321*
X00431Y-00022D02*
Y00017D01*
X00471*
Y-00022*
X00431*
X00439Y-00014D02*
Y00009D01*
X00463*
Y-00014*
X00439*
X00431Y00276D02*
Y00316D01*
X00471*
Y00276*
X00431*
X00439Y00284D02*
Y00308D01*
X00463*
Y00284*
X00439*
X0006Y-00698D02*
X0007Y-00688D01*
X0008*
X0007Y-00678*
X0008Y-00668*
X0007*
X0006Y-00658*
X0005Y-00668*
X0004*
X0005Y-00678*
X0004Y-00688*
X0005*
X0006Y-00698*
Y-0069D02*
X00066Y-00684D01*
X00072*
X00066Y-00678*
X00072Y-00672*
X00066*
X0006Y-00666*
X00054Y-00672*
X00048*
X00054Y-00678*
X00048Y-00684*
X00054*
X0006Y-0069*
X-01761Y-01082D02*
X-01751Y-01072D01*
X-01741*
X-01751Y-01062*
X-01741Y-01052*
X-01751*
X-01761Y-01042*
X-01771Y-01052*
X-01781*
X-01771Y-01062*
X-01781Y-01072*
X-01771*
X-01761Y-01082*
Y-01074D02*
X-01755Y-01068D01*
X-01749*
X-01755Y-01062*
X-01749Y-01056*
X-01755*
X-01761Y-0105*
X-01767Y-01056*
X-01773*
X-01767Y-01062*
X-01773Y-01068*
X-01767*
X-01761Y-01074*
X00404Y-00479D02*
X00414Y-00469D01*
X00424*
X00414Y-00459*
X00424Y-00449*
X00414*
X00404Y-00439*
X00394Y-00449*
X00384*
X00394Y-00459*
X00384Y-00469*
X00394*
X00404Y-00479*
Y-00471D02*
X0041Y-00465D01*
X00416*
X0041Y-00459*
X00416Y-00453*
X0041*
X00404Y-00447*
X00398Y-00453*
X00392*
X00398Y-00459*
X00392Y-00465*
X00398*
X00404Y-00471*
X00631Y00063D02*
X00641Y00073D01*
X00651*
X00641Y00083*
X00651Y00093*
X00641*
X00631Y00103*
X00621Y00093*
X00611*
X00621Y00083*
X00611Y00073*
X00621*
X00631Y00063*
Y00071D02*
X00637Y00077D01*
X00643*
X00637Y00083*
X00643Y00089*
X00637*
X00631Y00095*
X00625Y00089*
X00619*
X00625Y00083*
X00619Y00077*
X00625*
X00631Y00071*
X0063Y00109D02*
X0064Y00119D01*
X0065*
X0064Y00129*
X0065Y00139*
X0064*
X0063Y00149*
X0062Y00139*
X0061*
X0062Y00129*
X0061Y00119*
X0062*
X0063Y00109*
Y00117D02*
X00636Y00123D01*
X00642*
X00636Y00129*
X00642Y00135*
X00636*
X0063Y00141*
X00624Y00135*
X00618*
X00624Y00129*
X00618Y00123*
X00624*
X0063Y00117*
X-01664Y-00526D02*
X-01654Y-00516D01*
X-01644*
X-01654Y-00506*
X-01644Y-00496*
X-01654*
X-01664Y-00486*
X-01674Y-00496*
X-01684*
X-01674Y-00506*
X-01684Y-00516*
X-01674*
X-01664Y-00526*
Y-00518D02*
X-01658Y-00512D01*
X-01652*
X-01658Y-00506*
X-01652Y-005*
X-01658*
X-01664Y-00494*
X-0167Y-005*
X-01676*
X-0167Y-00506*
X-01676Y-00512*
X-0167*
X-01664Y-00518*
X-02124Y-00639D02*
X-02114Y-00629D01*
X-02104*
X-02114Y-00619*
X-02104Y-00609*
X-02114*
X-02124Y-00599*
X-02134Y-00609*
X-02144*
X-02134Y-00619*
X-02144Y-00629*
X-02134*
X-02124Y-00639*
Y-00631D02*
X-02118Y-00625D01*
X-02112*
X-02118Y-00619*
X-02112Y-00613*
X-02118*
X-02124Y-00607*
X-0213Y-00613*
X-02136*
X-0213Y-00619*
X-02136Y-00625*
X-0213*
X-02124Y-00631*
X00153Y-01121D02*
X00163Y-01111D01*
X00173*
X00163Y-01101*
X00173Y-01091*
X00163*
X00153Y-01081*
X00143Y-01091*
X00133*
X00143Y-01101*
X00133Y-01111*
X00143*
X00153Y-01121*
Y-01113D02*
X00159Y-01107D01*
X00165*
X00159Y-01101*
X00165Y-01095*
X00159*
X00153Y-01089*
X00147Y-01095*
X00141*
X00147Y-01101*
X00141Y-01107*
X00147*
X00153Y-01113*
X01363Y00172D02*
X01373Y00182D01*
X01383*
X01373Y00192*
X01383Y00202*
X01373*
X01363Y00212*
X01353Y00202*
X01343*
X01353Y00192*
X01343Y00182*
X01353*
X01363Y00172*
Y0018D02*
X01369Y00186D01*
X01375*
X01369Y00192*
X01375Y00198*
X01369*
X01363Y00204*
X01357Y00198*
X01351*
X01357Y00192*
X01351Y00186*
X01357*
X01363Y0018*
X00766Y00212D02*
X00776Y00222D01*
X00786*
X00776Y00232*
X00786Y00242*
X00776*
X00766Y00252*
X00756Y00242*
X00746*
X00756Y00232*
X00746Y00222*
X00756*
X00766Y00212*
Y0022D02*
X00772Y00226D01*
X00778*
X00772Y00232*
X00778Y00238*
X00772*
X00766Y00244*
X0076Y00238*
X00754*
X0076Y00232*
X00754Y00226*
X0076*
X00766Y0022*
X01318Y00172D02*
X01328Y00182D01*
X01338*
X01328Y00192*
X01338Y00202*
X01328*
X01318Y00212*
X01308Y00202*
X01298*
X01308Y00192*
X01298Y00182*
X01308*
X01318Y00172*
Y0018D02*
X01324Y00186D01*
X0133*
X01324Y00192*
X0133Y00198*
X01324*
X01318Y00204*
X01312Y00198*
X01306*
X01312Y00192*
X01306Y00186*
X01312*
X01318Y0018*
X00763Y00172D02*
X00773Y00182D01*
X00783*
X00773Y00192*
X00783Y00202*
X00773*
X00763Y00212*
X00753Y00202*
X00743*
X00753Y00192*
X00743Y00182*
X00753*
X00763Y00172*
Y0018D02*
X00769Y00186D01*
X00775*
X00769Y00192*
X00775Y00198*
X00769*
X00763Y00204*
X00757Y00198*
X00751*
X00757Y00192*
X00751Y00186*
X00757*
X00763Y0018*
X02511Y00132D02*
X02521Y00142D01*
X02531*
X02521Y00152*
X02531Y00162*
X02521*
X02511Y00172*
X02501Y00162*
X02491*
X02501Y00152*
X02491Y00142*
X02501*
X02511Y00132*
Y0014D02*
X02517Y00146D01*
X02523*
X02517Y00152*
X02523Y00158*
X02517*
X02511Y00164*
X02505Y00158*
X02499*
X02505Y00152*
X02499Y00146*
X02505*
X02511Y0014*
X02429Y00204D02*
X02439Y00214D01*
X02449*
X02439Y00224*
X02449Y00234*
X02439*
X02429Y00244*
X02419Y00234*
X02409*
X02419Y00224*
X02409Y00214*
X02419*
X02429Y00204*
Y00212D02*
X02435Y00218D01*
X02441*
X02435Y00224*
X02441Y0023*
X02435*
X02429Y00236*
X02423Y0023*
X02417*
X02423Y00224*
X02417Y00218*
X02423*
X02429Y00212*
X02518Y-00158D02*
X02528Y-00148D01*
X02538*
X02528Y-00138*
X02538Y-00128*
X02528*
X02518Y-00118*
X02508Y-00128*
X02498*
X02508Y-00138*
X02498Y-00148*
X02508*
X02518Y-00158*
Y-0015D02*
X02524Y-00144D01*
X0253*
X02524Y-00138*
X0253Y-00132*
X02524*
X02518Y-00126*
X02512Y-00132*
X02506*
X02512Y-00138*
X02506Y-00144*
X02512*
X02518Y-0015*
X02279Y-00153D02*
X02289Y-00143D01*
X02299*
X02289Y-00133*
X02299Y-00123*
X02289*
X02279Y-00113*
X02269Y-00123*
X02259*
X02269Y-00133*
X02259Y-00143*
X02269*
X02279Y-00153*
Y-00145D02*
X02285Y-00139D01*
X02291*
X02285Y-00133*
X02291Y-00127*
X02285*
X02279Y-00121*
X02273Y-00127*
X02267*
X02273Y-00133*
X02267Y-00139*
X02273*
X02279Y-00145*
X01716Y-00043D02*
X01726Y-00033D01*
X01736*
X01726Y-00023*
X01736Y-00013*
X01726*
X01716Y-00003*
X01706Y-00013*
X01696*
X01706Y-00023*
X01696Y-00033*
X01706*
X01716Y-00043*
Y-00035D02*
X01722Y-00029D01*
X01728*
X01722Y-00023*
X01728Y-00017*
X01722*
X01716Y-00011*
X0171Y-00017*
X01704*
X0171Y-00023*
X01704Y-00029*
X0171*
X01716Y-00035*
X01213Y00103D02*
X01223Y00113D01*
X01233*
X01223Y00123*
X01233Y00133*
X01223*
X01213Y00143*
X01203Y00133*
X01193*
X01203Y00123*
X01193Y00113*
X01203*
X01213Y00103*
Y00111D02*
X01219Y00117D01*
X01225*
X01219Y00123*
X01225Y00129*
X01219*
X01213Y00135*
X01207Y00129*
X01201*
X01207Y00123*
X01201Y00117*
X01207*
X01213Y00111*
X01885Y00062D02*
X01895Y00072D01*
X01905*
X01895Y00082*
X01905Y00092*
X01895*
X01885Y00102*
X01875Y00092*
X01865*
X01875Y00082*
X01865Y00072*
X01875*
X01885Y00062*
Y0007D02*
X01891Y00076D01*
X01897*
X01891Y00082*
X01897Y00088*
X01891*
X01885Y00094*
X01879Y00088*
X01873*
X01879Y00082*
X01873Y00076*
X01879*
X01885Y0007*
X01003Y00095D02*
X01013Y00105D01*
X01023*
X01013Y00115*
X01023Y00125*
X01013*
X01003Y00135*
X00993Y00125*
X00983*
X00993Y00115*
X00983Y00105*
X00993*
X01003Y00095*
Y00103D02*
X01009Y00109D01*
X01015*
X01009Y00115*
X01015Y00121*
X01009*
X01003Y00127*
X00997Y00121*
X00991*
X00997Y00115*
X00991Y00109*
X00997*
X01003Y00103*
X0087Y-00305D02*
X0088Y-00295D01*
X0089*
X0088Y-00285*
X0089Y-00275*
X0088*
X0087Y-00265*
X0086Y-00275*
X0085*
X0086Y-00285*
X0085Y-00295*
X0086*
X0087Y-00305*
Y-00297D02*
X00876Y-00291D01*
X00882*
X00876Y-00285*
X00882Y-00279*
X00876*
X0087Y-00273*
X00864Y-00279*
X00858*
X00864Y-00285*
X00858Y-00291*
X00864*
X0087Y-00297*
X01578Y-00681D02*
X01588Y-00671D01*
X01598*
X01588Y-00661*
X01598Y-00651*
X01588*
X01578Y-00641*
X01568Y-00651*
X01558*
X01568Y-00661*
X01558Y-00671*
X01568*
X01578Y-00681*
Y-00673D02*
X01584Y-00667D01*
X0159*
X01584Y-00661*
X0159Y-00655*
X01584*
X01578Y-00649*
X01572Y-00655*
X01566*
X01572Y-00661*
X01566Y-00667*
X01572*
X01578Y-00673*
X015Y-0076D02*
X0151Y-0075D01*
X0152*
X0151Y-0074*
X0152Y-0073*
X0151*
X015Y-0072*
X0149Y-0073*
X0148*
X0149Y-0074*
X0148Y-0075*
X0149*
X015Y-0076*
Y-00752D02*
X01506Y-00746D01*
X01512*
X01506Y-0074*
X01512Y-00734*
X01506*
X015Y-00728*
X01494Y-00734*
X01488*
X01494Y-0074*
X01488Y-00746*
X01494*
X015Y-00752*
X01345Y-00719D02*
X01355Y-00709D01*
X01365*
X01355Y-00699*
X01365Y-00689*
X01355*
X01345Y-00679*
X01335Y-00689*
X01325*
X01335Y-00699*
X01325Y-00709*
X01335*
X01345Y-00719*
Y-00711D02*
X01351Y-00705D01*
X01357*
X01351Y-00699*
X01357Y-00693*
X01351*
X01345Y-00687*
X01339Y-00693*
X01333*
X01339Y-00699*
X01333Y-00705*
X01339*
X01345Y-00711*
X01442Y-00904D02*
X01452Y-00894D01*
X01462*
X01452Y-00884*
X01462Y-00874*
X01452*
X01442Y-00864*
X01432Y-00874*
X01422*
X01432Y-00884*
X01422Y-00894*
X01432*
X01442Y-00904*
Y-00896D02*
X01448Y-0089D01*
X01454*
X01448Y-00884*
X01454Y-00878*
X01448*
X01442Y-00872*
X01436Y-00878*
X0143*
X01436Y-00884*
X0143Y-0089*
X01436*
X01442Y-00896*
X00431Y00426D02*
Y00466D01*
X00471*
Y00426*
X00431*
X00439Y00434D02*
Y00458D01*
X00463*
Y00434*
X00439*
X01126Y0059D02*
X01136Y006D01*
X01146*
X01136Y0061*
X01146Y0062*
X01136*
X01126Y0063*
X01116Y0062*
X01106*
X01116Y0061*
X01106Y006*
X01116*
X01126Y0059*
Y00598D02*
X01132Y00604D01*
X01138*
X01132Y0061*
X01138Y00616*
X01132*
X01126Y00622*
X0112Y00616*
X01114*
X0112Y0061*
X01114Y00604*
X0112*
X01126Y00598*
X01125Y0044D02*
X01135Y0045D01*
X01145*
X01135Y0046*
X01145Y0047*
X01135*
X01125Y0048*
X01115Y0047*
X01105*
X01115Y0046*
X01105Y0045*
X01115*
X01125Y0044*
Y00448D02*
X01131Y00454D01*
X01137*
X01131Y0046*
X01137Y00466*
X01131*
X01125Y00472*
X01119Y00466*
X01113*
X01119Y0046*
X01113Y00454*
X01119*
X01125Y00448*
X0096Y00441D02*
X0097Y00451D01*
X0098*
X0097Y00461*
X0098Y00471*
X0097*
X0096Y00481*
X0095Y00471*
X0094*
X0095Y00461*
X0094Y00451*
X0095*
X0096Y00441*
Y00449D02*
X00966Y00455D01*
X00972*
X00966Y00461*
X00972Y00467*
X00966*
X0096Y00473*
X00954Y00467*
X00948*
X00954Y00461*
X00948Y00455*
X00954*
X0096Y00449*
X-00668Y-00648D02*
X-00658Y-00638D01*
X-00648*
X-00658Y-00628*
X-00648Y-00618*
X-00658*
X-00668Y-00608*
X-00678Y-00618*
X-00688*
X-00678Y-00628*
X-00688Y-00638*
X-00678*
X-00668Y-00648*
Y-0064D02*
X-00662Y-00634D01*
X-00656*
X-00662Y-00628*
X-00656Y-00622*
X-00662*
X-00668Y-00616*
X-00674Y-00622*
X-0068*
X-00674Y-00628*
X-0068Y-00634*
X-00674*
X-00668Y-0064*
X-00581Y-00679D02*
X-00571Y-00669D01*
X-00561*
X-00571Y-00659*
X-00561Y-00649*
X-00571*
X-00581Y-00639*
X-00591Y-00649*
X-00601*
X-00591Y-00659*
X-00601Y-00669*
X-00591*
X-00581Y-00679*
Y-00671D02*
X-00575Y-00665D01*
X-00569*
X-00575Y-00659*
X-00569Y-00653*
X-00575*
X-00581Y-00647*
X-00587Y-00653*
X-00593*
X-00587Y-00659*
X-00593Y-00665*
X-00587*
X-00581Y-00671*
X01275Y-00539D02*
X01285Y-00529D01*
X01295*
X01285Y-00519*
X01295Y-00509*
X01285*
X01275Y-00499*
X01265Y-00509*
X01255*
X01265Y-00519*
X01255Y-00529*
X01265*
X01275Y-00539*
Y-00531D02*
X01281Y-00525D01*
X01287*
X01281Y-00519*
X01287Y-00513*
X01281*
X01275Y-00507*
X01269Y-00513*
X01263*
X01269Y-00519*
X01263Y-00525*
X01269*
X01275Y-00531*
X00973Y-00944D02*
X00983Y-00934D01*
X00993*
X00983Y-00924*
X00993Y-00914*
X00983*
X00973Y-00904*
X00963Y-00914*
X00953*
X00963Y-00924*
X00953Y-00934*
X00963*
X00973Y-00944*
Y-00936D02*
X00979Y-0093D01*
X00985*
X00979Y-00924*
X00985Y-00918*
X00979*
X00973Y-00912*
X00967Y-00918*
X00961*
X00967Y-00924*
X00961Y-0093*
X00967*
X00973Y-00936*
X00889Y-00928D02*
X00899Y-00918D01*
X00909*
X00899Y-00908*
X00909Y-00898*
X00899*
X00889Y-00888*
X00879Y-00898*
X00869*
X00879Y-00908*
X00869Y-00918*
X00879*
X00889Y-00928*
Y-0092D02*
X00895Y-00914D01*
X00901*
X00895Y-00908*
X00901Y-00902*
X00895*
X00889Y-00896*
X00883Y-00902*
X00877*
X00883Y-00908*
X00877Y-00914*
X00883*
X00889Y-0092*
X00745Y-0089D02*
X00755Y-0088D01*
X00765*
X00755Y-0087*
X00765Y-0086*
X00755*
X00745Y-0085*
X00735Y-0086*
X00725*
X00735Y-0087*
X00725Y-0088*
X00735*
X00745Y-0089*
Y-00882D02*
X00751Y-00876D01*
X00757*
X00751Y-0087*
X00757Y-00864*
X00751*
X00745Y-00858*
X00739Y-00864*
X00733*
X00739Y-0087*
X00733Y-00876*
X00739*
X00745Y-00882*
X00734Y-00729D02*
X00744Y-00719D01*
X00754*
X00744Y-00709*
X00754Y-00699*
X00744*
X00734Y-00689*
X00724Y-00699*
X00714*
X00724Y-00709*
X00714Y-00719*
X00724*
X00734Y-00729*
Y-00721D02*
X0074Y-00715D01*
X00746*
X0074Y-00709*
X00746Y-00703*
X0074*
X00734Y-00697*
X00728Y-00703*
X00722*
X00728Y-00709*
X00722Y-00715*
X00728*
X00734Y-00721*
X00322Y-00404D02*
X00332Y-00394D01*
X00342*
X00332Y-00384*
X00342Y-00374*
X00332*
X00322Y-00364*
X00312Y-00374*
X00302*
X00312Y-00384*
X00302Y-00394*
X00312*
X00322Y-00404*
Y-00396D02*
X00328Y-0039D01*
X00334*
X00328Y-00384*
X00334Y-00378*
X00328*
X00322Y-00372*
X00316Y-00378*
X0031*
X00316Y-00384*
X0031Y-0039*
X00316*
X00322Y-00396*
X00318Y-00437D02*
X00328Y-00427D01*
X00338*
X00328Y-00417*
X00338Y-00407*
X00328*
X00318Y-00397*
X00308Y-00407*
X00298*
X00308Y-00417*
X00298Y-00427*
X00308*
X00318Y-00437*
Y-00429D02*
X00324Y-00423D01*
X0033*
X00324Y-00417*
X0033Y-00411*
X00324*
X00318Y-00405*
X00312Y-00411*
X00306*
X00312Y-00417*
X00306Y-00423*
X00312*
X00318Y-00429*
X007Y-00535D02*
X0071Y-00525D01*
X0072*
X0071Y-00515*
X0072Y-00505*
X0071*
X007Y-00495*
X0069Y-00505*
X0068*
X0069Y-00515*
X0068Y-00525*
X0069*
X007Y-00535*
Y-00527D02*
X00706Y-00521D01*
X00712*
X00706Y-00515*
X00712Y-00509*
X00706*
X007Y-00503*
X00694Y-00509*
X00688*
X00694Y-00515*
X00688Y-00521*
X00694*
X007Y-00527*
X00397Y-00535D02*
X00407Y-00525D01*
X00417*
X00407Y-00515*
X00417Y-00505*
X00407*
X00397Y-00495*
X00387Y-00505*
X00377*
X00387Y-00515*
X00377Y-00525*
X00387*
X00397Y-00535*
Y-00527D02*
X00403Y-00521D01*
X00409*
X00403Y-00515*
X00409Y-00509*
X00403*
X00397Y-00503*
X00391Y-00509*
X00385*
X00391Y-00515*
X00385Y-00521*
X00391*
X00397Y-00527*
X01262Y-00448D02*
X01272Y-00438D01*
X01282*
X01272Y-00428*
X01282Y-00418*
X01272*
X01262Y-00408*
X01252Y-00418*
X01242*
X01252Y-00428*
X01242Y-00438*
X01252*
X01262Y-00448*
Y-0044D02*
X01268Y-00434D01*
X01274*
X01268Y-00428*
X01274Y-00422*
X01268*
X01262Y-00416*
X01256Y-00422*
X0125*
X01256Y-00428*
X0125Y-00434*
X01256*
X01262Y-0044*
X0122Y-00448D02*
X0123Y-00438D01*
X0124*
X0123Y-00428*
X0124Y-00418*
X0123*
X0122Y-00408*
X0121Y-00418*
X012*
X0121Y-00428*
X012Y-00438*
X0121*
X0122Y-00448*
Y-0044D02*
X01226Y-00434D01*
X01232*
X01226Y-00428*
X01232Y-00422*
X01226*
X0122Y-00416*
X01214Y-00422*
X01208*
X01214Y-00428*
X01208Y-00434*
X01214*
X0122Y-0044*
X-00124Y-00014D02*
X-00114Y-00004D01*
X-00104*
X-00114Y00005*
X-00104Y00015*
X-00114*
X-00124Y00025*
X-00134Y00015*
X-00144*
X-00134Y00005*
X-00144Y-00004*
X-00134*
X-00124Y-00014*
Y-00006D02*
X-00118Y0D01*
X-00112*
X-00118Y00005*
X-00112Y00011*
X-00118*
X-00124Y00017*
X-0013Y00011*
X-00136*
X-0013Y00005*
X-00136Y0*
X-0013*
X-00124Y-00006*
X005Y-00142D02*
X0051Y-00132D01*
X0052*
X0051Y-00122*
X0052Y-00112*
X0051*
X005Y-00102*
X0049Y-00112*
X0048*
X0049Y-00122*
X0048Y-00132*
X0049*
X005Y-00142*
Y-00134D02*
X00506Y-00128D01*
X00512*
X00506Y-00122*
X00512Y-00116*
X00506*
X005Y-0011*
X00494Y-00116*
X00488*
X00494Y-00122*
X00488Y-00128*
X00494*
X005Y-00134*
X00523Y-00114D02*
X00533Y-00104D01*
X00543*
X00533Y-00094*
X00543Y-00084*
X00533*
X00523Y-00074*
X00513Y-00084*
X00503*
X00513Y-00094*
X00503Y-00104*
X00513*
X00523Y-00114*
Y-00106D02*
X00529Y-001D01*
X00535*
X00529Y-00094*
X00535Y-00088*
X00529*
X00523Y-00082*
X00517Y-00088*
X00511*
X00517Y-00094*
X00511Y-001*
X00517*
X00523Y-00106*
X00401Y-00441D02*
X00411Y-00431D01*
X00421*
X00411Y-00421*
X00421Y-00411*
X00411*
X00401Y-00401*
X00391Y-00411*
X00381*
X00391Y-00421*
X00381Y-00431*
X00391*
X00401Y-00441*
Y-00433D02*
X00407Y-00427D01*
X00413*
X00407Y-00421*
X00413Y-00415*
X00407*
X00401Y-00409*
X00395Y-00415*
X00389*
X00395Y-00421*
X00389Y-00427*
X00395*
X00401Y-00433*
X00326Y-00358D02*
X00336Y-00348D01*
X00346*
X00336Y-00338*
X00346Y-00328*
X00336*
X00326Y-00318*
X00316Y-00328*
X00306*
X00316Y-00338*
X00306Y-00348*
X00316*
X00326Y-00358*
Y-0035D02*
X00332Y-00344D01*
X00338*
X00332Y-00338*
X00338Y-00332*
X00332*
X00326Y-00326*
X0032Y-00332*
X00314*
X0032Y-00338*
X00314Y-00344*
X0032*
X00326Y-0035*
X-00477Y00082D02*
Y00122D01*
X-00437*
Y00082*
X-00477*
X-00469Y0009D02*
Y00114D01*
X-00445*
Y0009*
X-00469*
X-00477Y00133D02*
Y00173D01*
X-00437*
Y00133*
X-00477*
X-00469Y00141D02*
Y00165D01*
X-00445*
Y00141*
X-00469*
X-00174Y-00054D02*
X-00164Y-00044D01*
X-00154*
X-00164Y-00034*
X-00154Y-00024*
X-00164*
X-00174Y-00014*
X-00184Y-00024*
X-00194*
X-00184Y-00034*
X-00194Y-00044*
X-00184*
X-00174Y-00054*
Y-00046D02*
X-00168Y-0004D01*
X-00162*
X-00168Y-00034*
X-00162Y-00028*
X-00168*
X-00174Y-00022*
X-0018Y-00028*
X-00186*
X-0018Y-00034*
X-00186Y-0004*
X-0018*
X-00174Y-00046*
X-00477Y00031D02*
Y00071D01*
X-00437*
Y00031*
X-00477*
X-00469Y00039D02*
Y00063D01*
X-00445*
Y00039*
X-00469*
X-00867Y00032D02*
X-00857Y00042D01*
X-00847*
X-00857Y00052*
X-00847Y00062*
X-00857*
X-00867Y00072*
X-00877Y00062*
X-00887*
X-00877Y00052*
X-00887Y00042*
X-00877*
X-00867Y00032*
Y0004D02*
X-00861Y00046D01*
X-00855*
X-00861Y00052*
X-00855Y00058*
X-00861*
X-00867Y00064*
X-00873Y00058*
X-00879*
X-00873Y00052*
X-00879Y00046*
X-00873*
X-00867Y0004*
X00125Y-00063D02*
X00135Y-00053D01*
X00145*
X00135Y-00043*
X00145Y-00033*
X00135*
X00125Y-00023*
X00115Y-00033*
X00105*
X00115Y-00043*
X00105Y-00053*
X00115*
X00125Y-00063*
Y-00055D02*
X00131Y-00049D01*
X00137*
X00131Y-00043*
X00137Y-00037*
X00131*
X00125Y-00031*
X00119Y-00037*
X00113*
X00119Y-00043*
X00113Y-00049*
X00119*
X00125Y-00055*
X-00216Y-00468D02*
X-00206Y-00458D01*
X-00196*
X-00206Y-00448*
X-00196Y-00438*
X-00206*
X-00216Y-00428*
X-00226Y-00438*
X-00236*
X-00226Y-00448*
X-00236Y-00458*
X-00226*
X-00216Y-00468*
Y-0046D02*
X-0021Y-00454D01*
X-00204*
X-0021Y-00448*
X-00204Y-00442*
X-0021*
X-00216Y-00436*
X-00222Y-00442*
X-00228*
X-00222Y-00448*
X-00228Y-00454*
X-00222*
X-00216Y-0046*
X00074Y00015D02*
X00084Y00025D01*
X00094*
X00084Y00035*
X00094Y00045*
X00084*
X00074Y00055*
X00064Y00045*
X00054*
X00064Y00035*
X00054Y00025*
X00064*
X00074Y00015*
Y00023D02*
X0008Y00029D01*
X00086*
X0008Y00035*
X00086Y00041*
X0008*
X00074Y00047*
X00068Y00041*
X00062*
X00068Y00035*
X00062Y00029*
X00068*
X00074Y00023*
X00147Y-00871D02*
X00157Y-00861D01*
X00167*
X00157Y-00851*
X00167Y-00841*
X00157*
X00147Y-00831*
X00137Y-00841*
X00127*
X00137Y-00851*
X00127Y-00861*
X00137*
X00147Y-00871*
Y-00863D02*
X00153Y-00857D01*
X00159*
X00153Y-00851*
X00159Y-00845*
X00153*
X00147Y-00839*
X00141Y-00845*
X00135*
X00141Y-00851*
X00135Y-00857*
X00141*
X00147Y-00863*
X00141Y-01013D02*
X00151Y-01003D01*
X00161*
X00151Y-00993*
X00161Y-00983*
X00151*
X00141Y-00973*
X00131Y-00983*
X00121*
X00131Y-00993*
X00121Y-01003*
X00131*
X00141Y-01013*
Y-01005D02*
X00147Y-00999D01*
X00153*
X00147Y-00993*
X00153Y-00987*
X00147*
X00141Y-00981*
X00135Y-00987*
X00129*
X00135Y-00993*
X00129Y-00999*
X00135*
X00141Y-01005*
X-00581Y-00934D02*
X-00571Y-00924D01*
X-00561*
X-00571Y-00914*
X-00561Y-00904*
X-00571*
X-00581Y-00894*
X-00591Y-00904*
X-00601*
X-00591Y-00914*
X-00601Y-00924*
X-00591*
X-00581Y-00934*
Y-00926D02*
X-00575Y-0092D01*
X-00569*
X-00575Y-00914*
X-00569Y-00908*
X-00575*
X-00581Y-00902*
X-00587Y-00908*
X-00593*
X-00587Y-00914*
X-00593Y-0092*
X-00587*
X-00581Y-00926*
X00173Y-00261D02*
X00183Y-00251D01*
X00193*
X00183Y-00241*
X00193Y-00231*
X00183*
X00173Y-00221*
X00163Y-00231*
X00153*
X00163Y-00241*
X00153Y-00251*
X00163*
X00173Y-00261*
Y-00253D02*
X00179Y-00247D01*
X00185*
X00179Y-00241*
X00185Y-00235*
X00179*
X00173Y-00229*
X00167Y-00235*
X00161*
X00167Y-00241*
X00161Y-00247*
X00167*
X00173Y-00253*
X00123Y-00215D02*
X00133Y-00205D01*
X00143*
X00133Y-00195*
X00143Y-00185*
X00133*
X00123Y-00175*
X00113Y-00185*
X00103*
X00113Y-00195*
X00103Y-00205*
X00113*
X00123Y-00215*
Y-00207D02*
X00129Y-00201D01*
X00135*
X00129Y-00195*
X00135Y-00189*
X00129*
X00123Y-00183*
X00117Y-00189*
X00111*
X00117Y-00195*
X00111Y-00201*
X00117*
X00123Y-00207*
X-02114Y00247D02*
X-02104Y00257D01*
X-02094*
X-02104Y00267*
X-02094Y00277*
X-02104*
X-02114Y00287*
X-02124Y00277*
X-02134*
X-02124Y00267*
X-02134Y00257*
X-02124*
X-02114Y00247*
Y00255D02*
X-02108Y00261D01*
X-02102*
X-02108Y00267*
X-02102Y00273*
X-02108*
X-02114Y00279*
X-0212Y00273*
X-02126*
X-0212Y00267*
X-02126Y00261*
X-0212*
X-02114Y00255*
X0132Y-01081D02*
X0133Y-01071D01*
X0134*
X0133Y-01061*
X0134Y-01051*
X0133*
X0132Y-01041*
X0131Y-01051*
X013*
X0131Y-01061*
X013Y-01071*
X0131*
X0132Y-01081*
Y-01073D02*
X01326Y-01067D01*
X01332*
X01326Y-01061*
X01332Y-01055*
X01326*
X0132Y-01049*
X01314Y-01055*
X01308*
X01314Y-01061*
X01308Y-01067*
X01314*
X0132Y-01073*
X-00527Y-0046D02*
X-00517Y-0045D01*
X-00507*
X-00517Y-0044*
X-00507Y-0043*
X-00517*
X-00527Y-0042*
X-00537Y-0043*
X-00547*
X-00537Y-0044*
X-00547Y-0045*
X-00537*
X-00527Y-0046*
Y-00452D02*
X-00521Y-00446D01*
X-00515*
X-00521Y-0044*
X-00515Y-00434*
X-00521*
X-00527Y-00428*
X-00533Y-00434*
X-00539*
X-00533Y-0044*
X-00539Y-00446*
X-00533*
X-00527Y-00452*
X00431Y00024D02*
Y00064D01*
X00471*
Y00024*
X00431*
X00439Y00032D02*
Y00056D01*
X00463*
Y00032*
X00439*
X00431Y00075D02*
Y00115D01*
X00471*
Y00075*
X00431*
X00439Y00083D02*
Y00107D01*
X00463*
Y00083*
X00439*
X00431Y00225D02*
Y00265D01*
X00471*
Y00225*
X00431*
X00439Y00233D02*
Y00257D01*
X00463*
Y00233*
X00439*
X00431Y00323D02*
Y00363D01*
X00471*
Y00323*
X00431*
X00439Y00331D02*
Y00355D01*
X00463*
Y00331*
X00439*
X-01362Y-01055D02*
X-01352Y-01045D01*
X-01342*
X-01352Y-01035*
X-01342Y-01025*
X-01352*
X-01362Y-01015*
X-01372Y-01025*
X-01382*
X-01372Y-01035*
X-01382Y-01045*
X-01372*
X-01362Y-01055*
Y-01047D02*
X-01356Y-01041D01*
X-0135*
X-01356Y-01035*
X-0135Y-01029*
X-01356*
X-01362Y-01023*
X-01368Y-01029*
X-01374*
X-01368Y-01035*
X-01374Y-01041*
X-01368*
X-01362Y-01047*
X-02404Y-00663D02*
X-02394Y-00653D01*
X-02384*
X-02394Y-00643*
X-02384Y-00633*
X-02394*
X-02404Y-00623*
X-02414Y-00633*
X-02424*
X-02414Y-00643*
X-02424Y-00653*
X-02414*
X-02404Y-00663*
Y-00655D02*
X-02398Y-00649D01*
X-02392*
X-02398Y-00643*
X-02392Y-00637*
X-02398*
X-02404Y-00631*
X-0241Y-00637*
X-02416*
X-0241Y-00643*
X-02416Y-00649*
X-0241*
X-02404Y-00655*
X-00685Y0007D02*
X-00675Y0008D01*
X-00665*
X-00675Y0009*
X-00665Y001*
X-00675*
X-00685Y0011*
X-00695Y001*
X-00705*
X-00695Y0009*
X-00705Y0008*
X-00695*
X-00685Y0007*
Y00078D02*
X-00679Y00084D01*
X-00673*
X-00679Y0009*
X-00673Y00096*
X-00679*
X-00685Y00102*
X-00691Y00096*
X-00697*
X-00691Y0009*
X-00697Y00084*
X-00691*
X-00685Y00078*
X-01354Y-00807D02*
Y-00767D01*
X-01314*
Y-00807*
X-01354*
X-01346Y-00799D02*
Y-00775D01*
X-01322*
Y-00799*
X-01346*
X-01826Y-0048D02*
X-01816Y-0047D01*
X-01806*
X-01816Y-0046*
X-01806Y-0045*
X-01816*
X-01826Y-0044*
X-01836Y-0045*
X-01846*
X-01836Y-0046*
X-01846Y-0047*
X-01836*
X-01826Y-0048*
Y-00472D02*
X-0182Y-00466D01*
X-01814*
X-0182Y-0046*
X-01814Y-00454*
X-0182*
X-01826Y-00448*
X-01832Y-00454*
X-01838*
X-01832Y-0046*
X-01838Y-00466*
X-01832*
X-01826Y-00472*
X-00774Y-00652D02*
X-00764Y-00642D01*
X-00754*
X-00764Y-00632*
X-00754Y-00622*
X-00764*
X-00774Y-00612*
X-00784Y-00622*
X-00794*
X-00784Y-00632*
X-00794Y-00642*
X-00784*
X-00774Y-00652*
Y-00644D02*
X-00768Y-00638D01*
X-00762*
X-00768Y-00632*
X-00762Y-00626*
X-00768*
X-00774Y-0062*
X-0078Y-00626*
X-00786*
X-0078Y-00632*
X-00786Y-00638*
X-0078*
X-00774Y-00644*
X00729Y-01085D02*
X00739Y-01075D01*
X00749*
X00739Y-01065*
X00749Y-01055*
X00739*
X00729Y-01045*
X00719Y-01055*
X00709*
X00719Y-01065*
X00709Y-01075*
X00719*
X00729Y-01085*
Y-01077D02*
X00735Y-01071D01*
X00741*
X00735Y-01065*
X00741Y-01059*
X00735*
X00729Y-01053*
X00723Y-01059*
X00717*
X00723Y-01065*
X00717Y-01071*
X00723*
X00729Y-01077*
X-00668Y-01029D02*
X-00658Y-01019D01*
X-00648*
X-00658Y-01009*
X-00648Y-00999*
X-00658*
X-00668Y-00989*
X-00678Y-00999*
X-00688*
X-00678Y-01009*
X-00688Y-01019*
X-00678*
X-00668Y-01029*
Y-01021D02*
X-00662Y-01015D01*
X-00656*
X-00662Y-01009*
X-00656Y-01003*
X-00662*
X-00668Y-00997*
X-00674Y-01003*
X-0068*
X-00674Y-01009*
X-0068Y-01015*
X-00674*
X-00668Y-01021*
X-01437Y-00623D02*
X-01427Y-00613D01*
X-01417*
X-01427Y-00603*
X-01417Y-00593*
X-01427*
X-01437Y-00583*
X-01447Y-00593*
X-01457*
X-01447Y-00603*
X-01457Y-00613*
X-01447*
X-01437Y-00623*
Y-00615D02*
X-01431Y-00609D01*
X-01425*
X-01431Y-00603*
X-01425Y-00597*
X-01431*
X-01437Y-00591*
X-01443Y-00597*
X-01449*
X-01443Y-00603*
X-01449Y-00609*
X-01443*
X-01437Y-00615*
X-00428Y-00864D02*
X-00418Y-00854D01*
X-00408*
X-00418Y-00844*
X-00408Y-00834*
X-00418*
X-00428Y-00824*
X-00438Y-00834*
X-00448*
X-00438Y-00844*
X-00448Y-00854*
X-00438*
X-00428Y-00864*
Y-00856D02*
X-00422Y-0085D01*
X-00416*
X-00422Y-00844*
X-00416Y-00838*
X-00422*
X-00428Y-00832*
X-00434Y-00838*
X-0044*
X-00434Y-00844*
X-0044Y-0085*
X-00434*
X-00428Y-00856*
Y-00908D02*
X-00418Y-00898D01*
X-00408*
X-00418Y-00888*
X-00408Y-00878*
X-00418*
X-00428Y-00868*
X-00438Y-00878*
X-00448*
X-00438Y-00888*
X-00448Y-00898*
X-00438*
X-00428Y-00908*
Y-009D02*
X-00422Y-00894D01*
X-00416*
X-00422Y-00888*
X-00416Y-00882*
X-00422*
X-00428Y-00876*
X-00434Y-00882*
X-0044*
X-00434Y-00888*
X-0044Y-00894*
X-00434*
X-00428Y-009*
X02273Y00246D02*
X02283Y00256D01*
X02293*
X02283Y00266*
X02293Y00276*
X02283*
X02273Y00286*
X02263Y00276*
X02253*
X02263Y00266*
X02253Y00256*
X02263*
X02273Y00246*
Y00254D02*
X02279Y0026D01*
X02285*
X02279Y00266*
X02285Y00272*
X02279*
X02273Y00278*
X02267Y00272*
X02261*
X02267Y00266*
X02261Y0026*
X02267*
X02273Y00254*
X02279Y-00032D02*
X02289Y-00022D01*
X02299*
X02289Y-00012*
X02299Y-00002*
X02289*
X02279Y00007*
X02269Y-00002*
X02259*
X02269Y-00012*
X02259Y-00022*
X02269*
X02279Y-00032*
Y-00024D02*
X02285Y-00018D01*
X02291*
X02285Y-00012*
X02291Y-00006*
X02285*
X02279Y0*
X02273Y-00006*
X02267*
X02273Y-00012*
X02267Y-00018*
X02273*
X02279Y-00024*
X02277Y00057D02*
X02287Y00067D01*
X02297*
X02287Y00077*
X02297Y00087*
X02287*
X02277Y00097*
X02267Y00087*
X02257*
X02267Y00077*
X02257Y00067*
X02267*
X02277Y00057*
Y00065D02*
X02283Y00071D01*
X02289*
X02283Y00077*
X02289Y00083*
X02283*
X02277Y00089*
X02271Y00083*
X02265*
X02271Y00077*
X02265Y00071*
X02271*
X02277Y00065*
X02273Y00152D02*
X02283Y00162D01*
X02293*
X02283Y00172*
X02293Y00182*
X02283*
X02273Y00192*
X02263Y00182*
X02253*
X02263Y00172*
X02253Y00162*
X02263*
X02273Y00152*
Y0016D02*
X02279Y00166D01*
X02285*
X02279Y00172*
X02285Y00178*
X02279*
X02273Y00184*
X02267Y00178*
X02261*
X02267Y00172*
X02261Y00166*
X02267*
X02273Y0016*
X01618Y-00043D02*
X01628Y-00033D01*
X01638*
X01628Y-00023*
X01638Y-00013*
X01628*
X01618Y-00003*
X01608Y-00013*
X01598*
X01608Y-00023*
X01598Y-00033*
X01608*
X01618Y-00043*
Y-00035D02*
X01624Y-00029D01*
X0163*
X01624Y-00023*
X0163Y-00017*
X01624*
X01618Y-00011*
X01612Y-00017*
X01606*
X01612Y-00023*
X01606Y-00029*
X01612*
X01618Y-00035*
X01515Y-00043D02*
X01525Y-00033D01*
X01535*
X01525Y-00023*
X01535Y-00013*
X01525*
X01515Y-00003*
X01505Y-00013*
X01495*
X01505Y-00023*
X01495Y-00033*
X01505*
X01515Y-00043*
Y-00035D02*
X01521Y-00029D01*
X01527*
X01521Y-00023*
X01527Y-00017*
X01521*
X01515Y-00011*
X01509Y-00017*
X01503*
X01509Y-00023*
X01503Y-00029*
X01509*
X01515Y-00035*
X-00477Y0033D02*
Y0037D01*
X-00437*
Y0033*
X-00477*
X-00469Y00338D02*
Y00362D01*
X-00445*
Y00338*
X-00469*
X-02624Y00578D02*
X-02614Y00588D01*
X-02604*
X-02614Y00598*
X-02604Y00608*
X-02614*
X-02624Y00618*
X-02634Y00608*
X-02644*
X-02634Y00598*
X-02644Y00588*
X-02634*
X-02624Y00578*
Y00586D02*
X-02618Y00592D01*
X-02612*
X-02618Y00598*
X-02612Y00604*
X-02618*
X-02624Y0061*
X-0263Y00604*
X-02636*
X-0263Y00598*
X-02636Y00592*
X-0263*
X-02624Y00586*
X02618Y0037D02*
X02628Y0038D01*
X02638*
X02628Y0039*
X02638Y004*
X02628*
X02618Y0041*
X02608Y004*
X02598*
X02608Y0039*
X02598Y0038*
X02608*
X02618Y0037*
Y00378D02*
X02624Y00384D01*
X0263*
X02624Y0039*
X0263Y00396*
X02624*
X02618Y00402*
X02612Y00396*
X02606*
X02612Y0039*
X02606Y00384*
X02612*
X02618Y00378*
X02367Y-00852D02*
X02377Y-00842D01*
X02387*
X02377Y-00832*
X02387Y-00822*
X02377*
X02367Y-00812*
X02357Y-00822*
X02347*
X02357Y-00832*
X02347Y-00842*
X02357*
X02367Y-00852*
Y-00844D02*
X02373Y-00838D01*
X02379*
X02373Y-00832*
X02379Y-00826*
X02373*
X02367Y-0082*
X02361Y-00826*
X02355*
X02361Y-00832*
X02355Y-00838*
X02361*
X02367Y-00844*
X00431Y00374D02*
Y00414D01*
X00471*
Y00374*
X00431*
X00439Y00382D02*
Y00406D01*
X00463*
Y00382*
X00439*
X0018Y-00747D02*
X0019Y-00737D01*
X002*
X0019Y-00727*
X002Y-00717*
X0019*
X0018Y-00707*
X0017Y-00717*
X0016*
X0017Y-00727*
X0016Y-00737*
X0017*
X0018Y-00747*
Y-00739D02*
X00186Y-00733D01*
X00192*
X00186Y-00727*
X00192Y-00721*
X00186*
X0018Y-00715*
X00174Y-00721*
X00168*
X00174Y-00727*
X00168Y-00733*
X00174*
X0018Y-00739*
X-00463Y00476D02*
Y00516D01*
X-00423*
Y00476*
X-00463*
X-00455Y00484D02*
Y00508D01*
X-00431*
Y00484*
X-00455*
X-00463Y00527D02*
Y00567D01*
X-00423*
Y00527*
X-00463*
X-00455Y00535D02*
Y00559D01*
X-00431*
Y00535*
X-00455*
X-00477Y0018D02*
Y0022D01*
X-00437*
Y0018*
X-00477*
X-00469Y00188D02*
Y00212D01*
X-00445*
Y00188*
X-00469*
X-00477Y00228D02*
Y00268D01*
X-00437*
Y00228*
X-00477*
X-00469Y00236D02*
Y0026D01*
X-00445*
Y00236*
X-00469*
X-00477Y00279D02*
Y00319D01*
X-00437*
Y00279*
X-00477*
X-00469Y00287D02*
Y00311D01*
X-00445*
Y00287*
X-00469*
G54D122*
X-00421Y-00775D02*
D01*
X-00421Y-00774*
X-00421Y-00772*
X-00421Y-00771*
X-00421Y-0077*
X-00422Y-00768*
X-00422Y-00767*
X-00423Y-00766*
X-00424Y-00765*
X-00424Y-00763*
X-00425Y-00762*
X-00426Y-00761*
X-00427Y-0076*
X-00428Y-00759*
X-00429Y-00759*
X-00431Y-00758*
X-00432Y-00757*
X-00433Y-00757*
X-00434Y-00756*
X-00436Y-00756*
X-00437Y-00755*
X-00439Y-00755*
X-0044Y-00755*
X-00441*
X-00443Y-00755*
X-00444Y-00755*
X-00445Y-00756*
X-00447Y-00756*
X-00448Y-00757*
X-00449Y-00757*
X-00451Y-00758*
X-00452Y-00759*
X-00453Y-00759*
X-00454Y-0076*
X-00455Y-00761*
X-00456Y-00762*
X-00457Y-00763*
X-00458Y-00765*
X-00458Y-00766*
X-00459Y-00767*
X-00459Y-00768*
X-0046Y-0077*
X-0046Y-00771*
X-0046Y-00772*
X-00461Y-00774*
X-00461Y-00775*
X-00461Y-00777*
X-0046Y-00778*
X-0046Y-00779*
X-0046Y-00781*
X-00459Y-00782*
X-00459Y-00783*
X-00458Y-00785*
X-00458Y-00786*
X-00457Y-00787*
X-00456Y-00788*
X-00455Y-00789*
X-00454Y-0079*
X-00453Y-00791*
X-00452Y-00792*
X-00451Y-00792*
X-00449Y-00793*
X-00448Y-00794*
X-00447Y-00794*
X-00445Y-00795*
X-00444Y-00795*
X-00443Y-00795*
X-00441Y-00795*
X-0044*
X-00439Y-00795*
X-00437Y-00795*
X-00436Y-00795*
X-00434Y-00794*
X-00433Y-00794*
X-00432Y-00793*
X-00431Y-00792*
X-00429Y-00792*
X-00428Y-00791*
X-00427Y-0079*
X-00426Y-00789*
X-00425Y-00788*
X-00424Y-00787*
X-00424Y-00786*
X-00423Y-00785*
X-00422Y-00783*
X-00422Y-00782*
X-00421Y-00781*
X-00421Y-00779*
X-00421Y-00778*
X-00421Y-00777*
X-00421Y-00775*
X-00322D02*
D01*
X-00322Y-00774*
X-00322Y-00772*
X-00323Y-00771*
X-00323Y-0077*
X-00323Y-00768*
X-00324Y-00767*
X-00325Y-00766*
X-00325Y-00765*
X-00326Y-00763*
X-00327Y-00762*
X-00328Y-00761*
X-00329Y-0076*
X-0033Y-00759*
X-00331Y-00759*
X-00332Y-00758*
X-00333Y-00757*
X-00335Y-00757*
X-00336Y-00756*
X-00337Y-00756*
X-00339Y-00755*
X-0034Y-00755*
X-00342Y-00755*
X-00343*
X-00344Y-00755*
X-00346Y-00755*
X-00347Y-00756*
X-00348Y-00756*
X-0035Y-00757*
X-00351Y-00757*
X-00352Y-00758*
X-00353Y-00759*
X-00355Y-00759*
X-00356Y-0076*
X-00357Y-00761*
X-00358Y-00762*
X-00358Y-00763*
X-00359Y-00765*
X-0036Y-00766*
X-0036Y-00767*
X-00361Y-00768*
X-00361Y-0077*
X-00362Y-00771*
X-00362Y-00772*
X-00362Y-00774*
X-00362Y-00775*
X-00362Y-00777*
X-00362Y-00778*
X-00362Y-00779*
X-00361Y-00781*
X-00361Y-00782*
X-0036Y-00783*
X-0036Y-00785*
X-00359Y-00786*
X-00358Y-00787*
X-00358Y-00788*
X-00357Y-00789*
X-00356Y-0079*
X-00355Y-00791*
X-00353Y-00792*
X-00352Y-00792*
X-00351Y-00793*
X-0035Y-00794*
X-00348Y-00794*
X-00347Y-00795*
X-00346Y-00795*
X-00344Y-00795*
X-00343Y-00795*
X-00342*
X-0034Y-00795*
X-00339Y-00795*
X-00337Y-00795*
X-00336Y-00794*
X-00335Y-00794*
X-00333Y-00793*
X-00332Y-00792*
X-00331Y-00792*
X-0033Y-00791*
X-00329Y-0079*
X-00328Y-00789*
X-00327Y-00788*
X-00326Y-00787*
X-00325Y-00786*
X-00325Y-00785*
X-00324Y-00783*
X-00323Y-00782*
X-00323Y-00781*
X-00323Y-00779*
X-00322Y-00778*
X-00322Y-00777*
X-00322Y-00775*
X-00224D02*
D01*
X-00224Y-00774*
X-00224Y-00772*
X-00224Y-00771*
X-00225Y-0077*
X-00225Y-00768*
X-00226Y-00767*
X-00226Y-00766*
X-00227Y-00765*
X-00228Y-00763*
X-00228Y-00762*
X-00229Y-00761*
X-0023Y-0076*
X-00231Y-00759*
X-00233Y-00759*
X-00234Y-00758*
X-00235Y-00757*
X-00236Y-00757*
X-00238Y-00756*
X-00239Y-00756*
X-0024Y-00755*
X-00242Y-00755*
X-00243Y-00755*
X-00244*
X-00246Y-00755*
X-00247Y-00755*
X-00249Y-00756*
X-0025Y-00756*
X-00251Y-00757*
X-00253Y-00757*
X-00254Y-00758*
X-00255Y-00759*
X-00256Y-00759*
X-00257Y-0076*
X-00258Y-00761*
X-00259Y-00762*
X-0026Y-00763*
X-00261Y-00765*
X-00261Y-00766*
X-00262Y-00767*
X-00263Y-00768*
X-00263Y-0077*
X-00263Y-00771*
X-00264Y-00772*
X-00264Y-00774*
X-00264Y-00775*
X-00264Y-00777*
X-00264Y-00778*
X-00263Y-00779*
X-00263Y-00781*
X-00263Y-00782*
X-00262Y-00783*
X-00261Y-00785*
X-00261Y-00786*
X-0026Y-00787*
X-00259Y-00788*
X-00258Y-00789*
X-00257Y-0079*
X-00256Y-00791*
X-00255Y-00792*
X-00254Y-00792*
X-00253Y-00793*
X-00251Y-00794*
X-0025Y-00794*
X-00249Y-00795*
X-00247Y-00795*
X-00246Y-00795*
X-00244Y-00795*
X-00243*
X-00242Y-00795*
X-0024Y-00795*
X-00239Y-00795*
X-00238Y-00794*
X-00236Y-00794*
X-00235Y-00793*
X-00234Y-00792*
X-00233Y-00792*
X-00231Y-00791*
X-0023Y-0079*
X-00229Y-00789*
X-00228Y-00788*
X-00228Y-00787*
X-00227Y-00786*
X-00226Y-00785*
X-00226Y-00783*
X-00225Y-00782*
X-00225Y-00781*
X-00224Y-00779*
X-00224Y-00778*
X-00224Y-00777*
X-00224Y-00775*
X-00125D02*
D01*
X-00125Y-00774*
X-00126Y-00772*
X-00126Y-00771*
X-00126Y-0077*
X-00127Y-00768*
X-00127Y-00767*
X-00128Y-00766*
X-00128Y-00765*
X-00129Y-00763*
X-0013Y-00762*
X-00131Y-00761*
X-00132Y-0076*
X-00133Y-00759*
X-00134Y-00759*
X-00135Y-00758*
X-00137Y-00757*
X-00138Y-00757*
X-00139Y-00756*
X-00141Y-00756*
X-00142Y-00755*
X-00143Y-00755*
X-00145Y-00755*
X-00146*
X-00147Y-00755*
X-00149Y-00755*
X-0015Y-00756*
X-00152Y-00756*
X-00153Y-00757*
X-00154Y-00757*
X-00155Y-00758*
X-00157Y-00759*
X-00158Y-00759*
X-00159Y-0076*
X-0016Y-00761*
X-00161Y-00762*
X-00162Y-00763*
X-00162Y-00765*
X-00163Y-00766*
X-00164Y-00767*
X-00164Y-00768*
X-00165Y-0077*
X-00165Y-00771*
X-00165Y-00772*
X-00165Y-00774*
X-00165Y-00775*
X-00165Y-00777*
X-00165Y-00778*
X-00165Y-00779*
X-00165Y-00781*
X-00164Y-00782*
X-00164Y-00783*
X-00163Y-00785*
X-00162Y-00786*
X-00162Y-00787*
X-00161Y-00788*
X-0016Y-00789*
X-00159Y-0079*
X-00158Y-00791*
X-00157Y-00792*
X-00155Y-00792*
X-00154Y-00793*
X-00153Y-00794*
X-00152Y-00794*
X-0015Y-00795*
X-00149Y-00795*
X-00147Y-00795*
X-00146Y-00795*
X-00145*
X-00143Y-00795*
X-00142Y-00795*
X-00141Y-00795*
X-00139Y-00794*
X-00138Y-00794*
X-00137Y-00793*
X-00135Y-00792*
X-00134Y-00792*
X-00133Y-00791*
X-00132Y-0079*
X-00131Y-00789*
X-0013Y-00788*
X-00129Y-00787*
X-00128Y-00786*
X-00128Y-00785*
X-00127Y-00783*
X-00127Y-00782*
X-00126Y-00781*
X-00126Y-00779*
X-00126Y-00778*
X-00125Y-00777*
X-00125Y-00775*
X-00027D02*
D01*
X-00027Y-00774*
X-00027Y-00772*
X-00027Y-00771*
X-00028Y-0077*
X-00028Y-00768*
X-00029Y-00767*
X-00029Y-00766*
X-0003Y-00765*
X-00031Y-00763*
X-00032Y-00762*
X-00033Y-00761*
X-00034Y-0076*
X-00035Y-00759*
X-00036Y-00759*
X-00037Y-00758*
X-00038Y-00757*
X-00039Y-00757*
X-00041Y-00756*
X-00042Y-00756*
X-00043Y-00755*
X-00045Y-00755*
X-00046Y-00755*
X-00048*
X-00049Y-00755*
X-0005Y-00755*
X-00052Y-00756*
X-00053Y-00756*
X-00054Y-00757*
X-00056Y-00757*
X-00057Y-00758*
X-00058Y-00759*
X-00059Y-00759*
X-0006Y-0076*
X-00061Y-00761*
X-00062Y-00762*
X-00063Y-00763*
X-00064Y-00765*
X-00065Y-00766*
X-00065Y-00767*
X-00066Y-00768*
X-00066Y-0077*
X-00067Y-00771*
X-00067Y-00772*
X-00067Y-00774*
X-00067Y-00775*
X-00067Y-00777*
X-00067Y-00778*
X-00067Y-00779*
X-00066Y-00781*
X-00066Y-00782*
X-00065Y-00783*
X-00065Y-00785*
X-00064Y-00786*
X-00063Y-00787*
X-00062Y-00788*
X-00061Y-00789*
X-0006Y-0079*
X-00059Y-00791*
X-00058Y-00792*
X-00057Y-00792*
X-00056Y-00793*
X-00054Y-00794*
X-00053Y-00794*
X-00052Y-00795*
X-0005Y-00795*
X-00049Y-00795*
X-00048Y-00795*
X-00046*
X-00045Y-00795*
X-00043Y-00795*
X-00042Y-00795*
X-00041Y-00794*
X-00039Y-00794*
X-00038Y-00793*
X-00037Y-00792*
X-00036Y-00792*
X-00035Y-00791*
X-00034Y-0079*
X-00033Y-00789*
X-00032Y-00788*
X-00031Y-00787*
X-0003Y-00786*
X-00029Y-00785*
X-00029Y-00783*
X-00028Y-00782*
X-00028Y-00781*
X-00027Y-00779*
X-00027Y-00778*
X-00027Y-00777*
X-00027Y-00775*
X0007D02*
D01*
X0007Y-00774*
X0007Y-00772*
X0007Y-00771*
X0007Y-0077*
X00069Y-00768*
X00069Y-00767*
X00068Y-00766*
X00067Y-00765*
X00067Y-00763*
X00066Y-00762*
X00065Y-00761*
X00064Y-0076*
X00063Y-00759*
X00062Y-00759*
X0006Y-00758*
X00059Y-00757*
X00058Y-00757*
X00057Y-00756*
X00055Y-00756*
X00054Y-00755*
X00053Y-00755*
X00051Y-00755*
X0005*
X00048Y-00755*
X00047Y-00755*
X00046Y-00756*
X00044Y-00756*
X00043Y-00757*
X00042Y-00757*
X0004Y-00758*
X00039Y-00759*
X00038Y-00759*
X00037Y-0076*
X00036Y-00761*
X00035Y-00762*
X00034Y-00763*
X00034Y-00765*
X00033Y-00766*
X00032Y-00767*
X00032Y-00768*
X00031Y-0077*
X00031Y-00771*
X00031Y-00772*
X00031Y-00774*
X0003Y-00775*
X00031Y-00777*
X00031Y-00778*
X00031Y-00779*
X00031Y-00781*
X00032Y-00782*
X00032Y-00783*
X00033Y-00785*
X00034Y-00786*
X00034Y-00787*
X00035Y-00788*
X00036Y-00789*
X00037Y-0079*
X00038Y-00791*
X00039Y-00792*
X0004Y-00792*
X00042Y-00793*
X00043Y-00794*
X00044Y-00794*
X00046Y-00795*
X00047Y-00795*
X00048Y-00795*
X0005Y-00795*
X00051*
X00053Y-00795*
X00054Y-00795*
X00055Y-00795*
X00057Y-00794*
X00058Y-00794*
X00059Y-00793*
X0006Y-00792*
X00062Y-00792*
X00063Y-00791*
X00064Y-0079*
X00065Y-00789*
X00066Y-00788*
X00067Y-00787*
X00067Y-00786*
X00068Y-00785*
X00069Y-00783*
X00069Y-00782*
X0007Y-00781*
X0007Y-00779*
X0007Y-00778*
X0007Y-00777*
X0007Y-00775*
X00968Y-00576D02*
D01*
X00968Y-00574*
X00968Y-00573*
X00968Y-00571*
X00968Y-0057*
X00967Y-00569*
X00967Y-00567*
X00966Y-00566*
X00965Y-00565*
X00964Y-00564*
X00964Y-00563*
X00963Y-00562*
X00962Y-00561*
X00961Y-0056*
X0096Y-00559*
X00958Y-00558*
X00957Y-00558*
X00956Y-00557*
X00954Y-00557*
X00953Y-00556*
X00952Y-00556*
X0095Y-00556*
X00949Y-00556*
X00948*
X00946Y-00556*
X00945Y-00556*
X00943Y-00556*
X00942Y-00557*
X00941Y-00557*
X0094Y-00558*
X00938Y-00558*
X00937Y-00559*
X00936Y-0056*
X00935Y-00561*
X00934Y-00562*
X00933Y-00563*
X00932Y-00564*
X00931Y-00565*
X00931Y-00566*
X0093Y-00567*
X0093Y-00569*
X00929Y-0057*
X00929Y-00571*
X00929Y-00573*
X00928Y-00574*
X00928Y-00576*
X00928Y-00577*
X00929Y-00578*
X00929Y-0058*
X00929Y-00581*
X0093Y-00582*
X0093Y-00584*
X00931Y-00585*
X00931Y-00586*
X00932Y-00587*
X00933Y-00588*
X00934Y-00589*
X00935Y-0059*
X00936Y-00591*
X00937Y-00592*
X00938Y-00593*
X0094Y-00594*
X00941Y-00594*
X00942Y-00595*
X00943Y-00595*
X00945Y-00595*
X00946Y-00595*
X00948Y-00596*
X00949*
X0095Y-00595*
X00952Y-00595*
X00953Y-00595*
X00954Y-00595*
X00956Y-00594*
X00957Y-00594*
X00958Y-00593*
X0096Y-00592*
X00961Y-00591*
X00962Y-0059*
X00963Y-00589*
X00964Y-00588*
X00964Y-00587*
X00965Y-00586*
X00966Y-00585*
X00967Y-00584*
X00967Y-00582*
X00968Y-00581*
X00968Y-0058*
X00968Y-00578*
X00968Y-00577*
X00968Y-00576*
X01067D02*
D01*
X01067Y-00574*
X01067Y-00573*
X01066Y-00571*
X01066Y-0057*
X01066Y-00569*
X01065Y-00567*
X01064Y-00566*
X01064Y-00565*
X01063Y-00564*
X01062Y-00563*
X01061Y-00562*
X0106Y-00561*
X01059Y-0056*
X01058Y-00559*
X01057Y-00558*
X01056Y-00558*
X01054Y-00557*
X01053Y-00557*
X01052Y-00556*
X0105Y-00556*
X01049Y-00556*
X01047Y-00556*
X01046*
X01045Y-00556*
X01043Y-00556*
X01042Y-00556*
X01041Y-00557*
X01039Y-00557*
X01038Y-00558*
X01037Y-00558*
X01036Y-00559*
X01034Y-0056*
X01033Y-00561*
X01032Y-00562*
X01031Y-00563*
X01031Y-00564*
X0103Y-00565*
X01029Y-00566*
X01028Y-00567*
X01028Y-00569*
X01028Y-0057*
X01027Y-00571*
X01027Y-00573*
X01027Y-00574*
X01027Y-00576*
X01027Y-00577*
X01027Y-00578*
X01027Y-0058*
X01028Y-00581*
X01028Y-00582*
X01028Y-00584*
X01029Y-00585*
X0103Y-00586*
X01031Y-00587*
X01031Y-00588*
X01032Y-00589*
X01033Y-0059*
X01034Y-00591*
X01036Y-00592*
X01037Y-00593*
X01038Y-00594*
X01039Y-00594*
X01041Y-00595*
X01042Y-00595*
X01043Y-00595*
X01045Y-00595*
X01046Y-00596*
X01047*
X01049Y-00595*
X0105Y-00595*
X01052Y-00595*
X01053Y-00595*
X01054Y-00594*
X01056Y-00594*
X01057Y-00593*
X01058Y-00592*
X01059Y-00591*
X0106Y-0059*
X01061Y-00589*
X01062Y-00588*
X01063Y-00587*
X01064Y-00586*
X01064Y-00585*
X01065Y-00584*
X01066Y-00582*
X01066Y-00581*
X01066Y-0058*
X01067Y-00578*
X01067Y-00577*
X01067Y-00576*
X01165D02*
D01*
X01165Y-00574*
X01165Y-00573*
X01165Y-00571*
X01164Y-0057*
X01164Y-00569*
X01163Y-00567*
X01163Y-00566*
X01162Y-00565*
X01161Y-00564*
X0116Y-00563*
X0116Y-00562*
X01159Y-00561*
X01157Y-0056*
X01156Y-00559*
X01155Y-00558*
X01154Y-00558*
X01153Y-00557*
X01151Y-00557*
X0115Y-00556*
X01149Y-00556*
X01147Y-00556*
X01146Y-00556*
X01144*
X01143Y-00556*
X01142Y-00556*
X0114Y-00556*
X01139Y-00557*
X01138Y-00557*
X01136Y-00558*
X01135Y-00558*
X01134Y-00559*
X01133Y-0056*
X01132Y-00561*
X01131Y-00562*
X0113Y-00563*
X01129Y-00564*
X01128Y-00565*
X01128Y-00566*
X01127Y-00567*
X01126Y-00569*
X01126Y-0057*
X01126Y-00571*
X01125Y-00573*
X01125Y-00574*
X01125Y-00576*
X01125Y-00577*
X01125Y-00578*
X01126Y-0058*
X01126Y-00581*
X01126Y-00582*
X01127Y-00584*
X01128Y-00585*
X01128Y-00586*
X01129Y-00587*
X0113Y-00588*
X01131Y-00589*
X01132Y-0059*
X01133Y-00591*
X01134Y-00592*
X01135Y-00593*
X01136Y-00594*
X01138Y-00594*
X01139Y-00595*
X0114Y-00595*
X01142Y-00595*
X01143Y-00595*
X01144Y-00596*
X01146*
X01147Y-00595*
X01149Y-00595*
X0115Y-00595*
X01151Y-00595*
X01153Y-00594*
X01154Y-00594*
X01155Y-00593*
X01156Y-00592*
X01157Y-00591*
X01159Y-0059*
X0116Y-00589*
X0116Y-00588*
X01161Y-00587*
X01162Y-00586*
X01163Y-00585*
X01163Y-00584*
X01164Y-00582*
X01164Y-00581*
X01165Y-0058*
X01165Y-00578*
X01165Y-00577*
X01165Y-00576*
X01264D02*
D01*
X01264Y-00574*
X01263Y-00573*
X01263Y-00571*
X01263Y-0057*
X01262Y-00569*
X01262Y-00567*
X01261Y-00566*
X01261Y-00565*
X0126Y-00564*
X01259Y-00563*
X01258Y-00562*
X01257Y-00561*
X01256Y-0056*
X01255Y-00559*
X01254Y-00558*
X01252Y-00558*
X01251Y-00557*
X0125Y-00557*
X01248Y-00556*
X01247Y-00556*
X01246Y-00556*
X01244Y-00556*
X01243*
X01242Y-00556*
X0124Y-00556*
X01239Y-00556*
X01237Y-00557*
X01236Y-00557*
X01235Y-00558*
X01234Y-00558*
X01232Y-00559*
X01231Y-0056*
X0123Y-00561*
X01229Y-00562*
X01228Y-00563*
X01227Y-00564*
X01227Y-00565*
X01226Y-00566*
X01225Y-00567*
X01225Y-00569*
X01224Y-0057*
X01224Y-00571*
X01224Y-00573*
X01224Y-00574*
X01224Y-00576*
X01224Y-00577*
X01224Y-00578*
X01224Y-0058*
X01224Y-00581*
X01225Y-00582*
X01225Y-00584*
X01226Y-00585*
X01227Y-00586*
X01227Y-00587*
X01228Y-00588*
X01229Y-00589*
X0123Y-0059*
X01231Y-00591*
X01232Y-00592*
X01234Y-00593*
X01235Y-00594*
X01236Y-00594*
X01237Y-00595*
X01239Y-00595*
X0124Y-00595*
X01242Y-00595*
X01243Y-00596*
X01244*
X01246Y-00595*
X01247Y-00595*
X01248Y-00595*
X0125Y-00595*
X01251Y-00594*
X01252Y-00594*
X01254Y-00593*
X01255Y-00592*
X01256Y-00591*
X01257Y-0059*
X01258Y-00589*
X01259Y-00588*
X0126Y-00587*
X01261Y-00586*
X01261Y-00585*
X01262Y-00584*
X01262Y-00582*
X01263Y-00581*
X01263Y-0058*
X01263Y-00578*
X01264Y-00577*
X01264Y-00576*
X02218Y-00499D02*
D01*
X02218Y-00498*
X02218Y-00496*
X02218Y-00495*
X02217Y-00494*
X02217Y-00492*
X02216Y-00491*
X02216Y-0049*
X02215Y-00489*
X02214Y-00487*
X02213Y-00486*
X02213Y-00485*
X02212Y-00484*
X0221Y-00483*
X02209Y-00483*
X02208Y-00482*
X02207Y-00481*
X02206Y-00481*
X02204Y-0048*
X02203Y-0048*
X02202Y-00479*
X022Y-00479*
X02199Y-00479*
X02197*
X02196Y-00479*
X02195Y-00479*
X02193Y-0048*
X02192Y-0048*
X02191Y-00481*
X02189Y-00481*
X02188Y-00482*
X02187Y-00483*
X02186Y-00483*
X02185Y-00484*
X02184Y-00485*
X02183Y-00486*
X02182Y-00487*
X02181Y-00489*
X02181Y-0049*
X0218Y-00491*
X02179Y-00492*
X02179Y-00494*
X02179Y-00495*
X02178Y-00496*
X02178Y-00498*
X02178Y-00499*
X02178Y-00501*
X02178Y-00502*
X02179Y-00503*
X02179Y-00505*
X02179Y-00506*
X0218Y-00507*
X02181Y-00509*
X02181Y-0051*
X02182Y-00511*
X02183Y-00512*
X02184Y-00513*
X02185Y-00514*
X02186Y-00515*
X02187Y-00516*
X02188Y-00516*
X02189Y-00517*
X02191Y-00518*
X02192Y-00518*
X02193Y-00519*
X02195Y-00519*
X02196Y-00519*
X02197Y-00519*
X02199*
X022Y-00519*
X02202Y-00519*
X02203Y-00519*
X02204Y-00518*
X02206Y-00518*
X02207Y-00517*
X02208Y-00516*
X02209Y-00516*
X0221Y-00515*
X02212Y-00514*
X02213Y-00513*
X02213Y-00512*
X02214Y-00511*
X02215Y-0051*
X02216Y-00509*
X02216Y-00507*
X02217Y-00506*
X02217Y-00505*
X02218Y-00503*
X02218Y-00502*
X02218Y-00501*
X02218Y-00499*
X02318D02*
D01*
X02318Y-00498*
X02318Y-00496*
X02318Y-00495*
X02317Y-00494*
X02317Y-00492*
X02316Y-00491*
X02316Y-0049*
X02315Y-00489*
X02314Y-00487*
X02313Y-00486*
X02313Y-00485*
X02312Y-00484*
X0231Y-00483*
X02309Y-00483*
X02308Y-00482*
X02307Y-00481*
X02306Y-00481*
X02304Y-0048*
X02303Y-0048*
X02302Y-00479*
X023Y-00479*
X02299Y-00479*
X02297*
X02296Y-00479*
X02295Y-00479*
X02293Y-0048*
X02292Y-0048*
X02291Y-00481*
X02289Y-00481*
X02288Y-00482*
X02287Y-00483*
X02286Y-00483*
X02285Y-00484*
X02284Y-00485*
X02283Y-00486*
X02282Y-00487*
X02281Y-00489*
X02281Y-0049*
X0228Y-00491*
X02279Y-00492*
X02279Y-00494*
X02279Y-00495*
X02278Y-00496*
X02278Y-00498*
X02278Y-00499*
X02278Y-00501*
X02278Y-00502*
X02279Y-00503*
X02279Y-00505*
X02279Y-00506*
X0228Y-00507*
X02281Y-00509*
X02281Y-0051*
X02282Y-00511*
X02283Y-00512*
X02284Y-00513*
X02285Y-00514*
X02286Y-00515*
X02287Y-00516*
X02288Y-00516*
X02289Y-00517*
X02291Y-00518*
X02292Y-00518*
X02293Y-00519*
X02295Y-00519*
X02296Y-00519*
X02297Y-00519*
X02299*
X023Y-00519*
X02302Y-00519*
X02303Y-00519*
X02304Y-00518*
X02306Y-00518*
X02307Y-00517*
X02308Y-00516*
X02309Y-00516*
X0231Y-00515*
X02312Y-00514*
X02313Y-00513*
X02313Y-00512*
X02314Y-00511*
X02315Y-0051*
X02316Y-00509*
X02316Y-00507*
X02317Y-00506*
X02317Y-00505*
X02318Y-00503*
X02318Y-00502*
X02318Y-00501*
X02318Y-00499*
X02418D02*
D01*
X02418Y-00498*
X02418Y-00496*
X02418Y-00495*
X02417Y-00494*
X02417Y-00492*
X02416Y-00491*
X02416Y-0049*
X02415Y-00489*
X02414Y-00487*
X02413Y-00486*
X02413Y-00485*
X02412Y-00484*
X0241Y-00483*
X02409Y-00483*
X02408Y-00482*
X02407Y-00481*
X02406Y-00481*
X02404Y-0048*
X02403Y-0048*
X02402Y-00479*
X024Y-00479*
X02399Y-00479*
X02397*
X02396Y-00479*
X02395Y-00479*
X02393Y-0048*
X02392Y-0048*
X02391Y-00481*
X02389Y-00481*
X02388Y-00482*
X02387Y-00483*
X02386Y-00483*
X02385Y-00484*
X02384Y-00485*
X02383Y-00486*
X02382Y-00487*
X02381Y-00489*
X02381Y-0049*
X0238Y-00491*
X02379Y-00492*
X02379Y-00494*
X02379Y-00495*
X02378Y-00496*
X02378Y-00498*
X02378Y-00499*
X02378Y-00501*
X02378Y-00502*
X02379Y-00503*
X02379Y-00505*
X02379Y-00506*
X0238Y-00507*
X02381Y-00509*
X02381Y-0051*
X02382Y-00511*
X02383Y-00512*
X02384Y-00513*
X02385Y-00514*
X02386Y-00515*
X02387Y-00516*
X02388Y-00516*
X02389Y-00517*
X02391Y-00518*
X02392Y-00518*
X02393Y-00519*
X02395Y-00519*
X02396Y-00519*
X02397Y-00519*
X02399*
X024Y-00519*
X02402Y-00519*
X02403Y-00519*
X02404Y-00518*
X02406Y-00518*
X02407Y-00517*
X02408Y-00516*
X02409Y-00516*
X0241Y-00515*
X02412Y-00514*
X02413Y-00513*
X02413Y-00512*
X02414Y-00511*
X02415Y-0051*
X02416Y-00509*
X02416Y-00507*
X02417Y-00506*
X02417Y-00505*
X02418Y-00503*
X02418Y-00502*
X02418Y-00501*
X02418Y-00499*
X02518D02*
D01*
X02518Y-00498*
X02518Y-00496*
X02518Y-00495*
X02517Y-00494*
X02517Y-00492*
X02516Y-00491*
X02516Y-0049*
X02515Y-00489*
X02514Y-00487*
X02513Y-00486*
X02513Y-00485*
X02512Y-00484*
X0251Y-00483*
X02509Y-00483*
X02508Y-00482*
X02507Y-00481*
X02506Y-00481*
X02504Y-0048*
X02503Y-0048*
X02502Y-00479*
X025Y-00479*
X02499Y-00479*
X02497*
X02496Y-00479*
X02495Y-00479*
X02493Y-0048*
X02492Y-0048*
X02491Y-00481*
X02489Y-00481*
X02488Y-00482*
X02487Y-00483*
X02486Y-00483*
X02485Y-00484*
X02484Y-00485*
X02483Y-00486*
X02482Y-00487*
X02481Y-00489*
X02481Y-0049*
X0248Y-00491*
X02479Y-00492*
X02479Y-00494*
X02479Y-00495*
X02478Y-00496*
X02478Y-00498*
X02478Y-00499*
X02478Y-00501*
X02478Y-00502*
X02479Y-00503*
X02479Y-00505*
X02479Y-00506*
X0248Y-00507*
X02481Y-00509*
X02481Y-0051*
X02482Y-00511*
X02483Y-00512*
X02484Y-00513*
X02485Y-00514*
X02486Y-00515*
X02487Y-00516*
X02488Y-00516*
X02489Y-00517*
X02491Y-00518*
X02492Y-00518*
X02493Y-00519*
X02495Y-00519*
X02496Y-00519*
X02497Y-00519*
X02499*
X025Y-00519*
X02502Y-00519*
X02503Y-00519*
X02504Y-00518*
X02506Y-00518*
X02507Y-00517*
X02508Y-00516*
X02509Y-00516*
X0251Y-00515*
X02512Y-00514*
X02513Y-00513*
X02513Y-00512*
X02514Y-00511*
X02515Y-0051*
X02516Y-00509*
X02516Y-00507*
X02517Y-00506*
X02517Y-00505*
X02518Y-00503*
X02518Y-00502*
X02518Y-00501*
X02518Y-00499*
X-00472Y01084D02*
D01*
X-00472Y01085*
X-00472Y01087*
X-00472Y01088*
X-00472Y01089*
X-00473Y01091*
X-00473Y01092*
X-00474Y01093*
X-00475Y01094*
X-00475Y01096*
X-00476Y01097*
X-00477Y01098*
X-00478Y01099*
X-00479Y011*
X-0048Y011*
X-00482Y01101*
X-00483Y01102*
X-00484Y01102*
X-00485Y01103*
X-00487Y01103*
X-00488Y01103*
X-0049Y01104*
X-00491Y01104*
X-00492*
X-00494Y01104*
X-00495Y01103*
X-00496Y01103*
X-00498Y01103*
X-00499Y01102*
X-005Y01102*
X-00502Y01101*
X-00503Y011*
X-00504Y011*
X-00505Y01099*
X-00506Y01098*
X-00507Y01097*
X-00508Y01096*
X-00509Y01094*
X-00509Y01093*
X-0051Y01092*
X-0051Y01091*
X-00511Y01089*
X-00511Y01088*
X-00511Y01087*
X-00512Y01085*
X-00512Y01084*
X-00512Y01082*
X-00511Y01081*
X-00511Y0108*
X-00511Y01078*
X-0051Y01077*
X-0051Y01076*
X-00509Y01074*
X-00509Y01073*
X-00508Y01072*
X-00507Y01071*
X-00506Y0107*
X-00505Y01069*
X-00504Y01068*
X-00503Y01067*
X-00502Y01066*
X-005Y01066*
X-00499Y01065*
X-00498Y01065*
X-00496Y01064*
X-00495Y01064*
X-00494Y01064*
X-00492Y01064*
X-00491*
X-0049Y01064*
X-00488Y01064*
X-00487Y01064*
X-00485Y01065*
X-00484Y01065*
X-00483Y01066*
X-00482Y01066*
X-0048Y01067*
X-00479Y01068*
X-00478Y01069*
X-00477Y0107*
X-00476Y01071*
X-00475Y01072*
X-00475Y01073*
X-00474Y01074*
X-00473Y01076*
X-00473Y01077*
X-00472Y01078*
X-00472Y0108*
X-00472Y01081*
X-00472Y01082*
X-00472Y01084*
Y00984D02*
D01*
X-00472Y00985*
X-00472Y00987*
X-00472Y00988*
X-00472Y00989*
X-00473Y00991*
X-00473Y00992*
X-00474Y00993*
X-00475Y00994*
X-00475Y00996*
X-00476Y00997*
X-00477Y00998*
X-00478Y00999*
X-00479Y01*
X-0048Y01*
X-00482Y01001*
X-00483Y01002*
X-00484Y01002*
X-00485Y01003*
X-00487Y01003*
X-00488Y01003*
X-0049Y01004*
X-00491Y01004*
X-00492*
X-00494Y01004*
X-00495Y01003*
X-00496Y01003*
X-00498Y01003*
X-00499Y01002*
X-005Y01002*
X-00502Y01001*
X-00503Y01*
X-00504Y01*
X-00505Y00999*
X-00506Y00998*
X-00507Y00997*
X-00508Y00996*
X-00509Y00994*
X-00509Y00993*
X-0051Y00992*
X-0051Y00991*
X-00511Y00989*
X-00511Y00988*
X-00511Y00987*
X-00512Y00985*
X-00512Y00984*
X-00512Y00982*
X-00511Y00981*
X-00511Y0098*
X-00511Y00978*
X-0051Y00977*
X-0051Y00976*
X-00509Y00974*
X-00509Y00973*
X-00508Y00972*
X-00507Y00971*
X-00506Y0097*
X-00505Y00969*
X-00504Y00968*
X-00503Y00967*
X-00502Y00966*
X-005Y00966*
X-00499Y00965*
X-00498Y00965*
X-00496Y00964*
X-00495Y00964*
X-00494Y00964*
X-00492Y00964*
X-00491*
X-0049Y00964*
X-00488Y00964*
X-00487Y00964*
X-00485Y00965*
X-00484Y00965*
X-00483Y00966*
X-00482Y00966*
X-0048Y00967*
X-00479Y00968*
X-00478Y00969*
X-00477Y0097*
X-00476Y00971*
X-00475Y00972*
X-00475Y00973*
X-00474Y00974*
X-00473Y00976*
X-00473Y00977*
X-00472Y00978*
X-00472Y0098*
X-00472Y00981*
X-00472Y00982*
X-00472Y00984*
X-00419Y-01032D02*
D01*
X-00419Y-01031*
X-00419Y-01029*
X-00419Y-01028*
X-00419Y-01027*
X-0042Y-01025*
X-0042Y-01024*
X-00421Y-01023*
X-00422Y-01021*
X-00423Y-0102*
X-00423Y-01019*
X-00424Y-01018*
X-00425Y-01017*
X-00426Y-01016*
X-00427Y-01015*
X-00429Y-01015*
X-0043Y-01014*
X-00431Y-01013*
X-00433Y-01013*
X-00434Y-01013*
X-00435Y-01012*
X-00437Y-01012*
X-00438Y-01012*
X-00439*
X-00441Y-01012*
X-00442Y-01012*
X-00444Y-01013*
X-00445Y-01013*
X-00446Y-01013*
X-00447Y-01014*
X-00449Y-01015*
X-0045Y-01015*
X-00451Y-01016*
X-00452Y-01017*
X-00453Y-01018*
X-00454Y-01019*
X-00455Y-0102*
X-00456Y-01021*
X-00456Y-01023*
X-00457Y-01024*
X-00457Y-01025*
X-00458Y-01027*
X-00458Y-01028*
X-00458Y-01029*
X-00459Y-01031*
X-00459Y-01032*
X-00459Y-01033*
X-00458Y-01035*
X-00458Y-01036*
X-00458Y-01038*
X-00457Y-01039*
X-00457Y-0104*
X-00456Y-01041*
X-00456Y-01043*
X-00455Y-01044*
X-00454Y-01045*
X-00453Y-01046*
X-00452Y-01047*
X-00451Y-01048*
X-0045Y-01049*
X-00449Y-01049*
X-00447Y-0105*
X-00446Y-01051*
X-00445Y-01051*
X-00444Y-01051*
X-00442Y-01052*
X-00441Y-01052*
X-00439Y-01052*
X-00438*
X-00437Y-01052*
X-00435Y-01052*
X-00434Y-01051*
X-00433Y-01051*
X-00431Y-01051*
X-0043Y-0105*
X-00429Y-01049*
X-00427Y-01049*
X-00426Y-01048*
X-00425Y-01047*
X-00424Y-01046*
X-00423Y-01045*
X-00423Y-01044*
X-00422Y-01043*
X-00421Y-01041*
X-0042Y-0104*
X-0042Y-01039*
X-00419Y-01038*
X-00419Y-01036*
X-00419Y-01035*
X-00419Y-01033*
X-00419Y-01032*
X-0032D02*
D01*
X-0032Y-01031*
X-0032Y-01029*
X-00321Y-01028*
X-00321Y-01027*
X-00321Y-01025*
X-00322Y-01024*
X-00323Y-01023*
X-00323Y-01021*
X-00324Y-0102*
X-00325Y-01019*
X-00326Y-01018*
X-00327Y-01017*
X-00328Y-01016*
X-00329Y-01015*
X-0033Y-01015*
X-00331Y-01014*
X-00333Y-01013*
X-00334Y-01013*
X-00335Y-01013*
X-00337Y-01012*
X-00338Y-01012*
X-0034Y-01012*
X-00341*
X-00342Y-01012*
X-00344Y-01012*
X-00345Y-01013*
X-00346Y-01013*
X-00348Y-01013*
X-00349Y-01014*
X-0035Y-01015*
X-00351Y-01015*
X-00353Y-01016*
X-00354Y-01017*
X-00355Y-01018*
X-00356Y-01019*
X-00356Y-0102*
X-00357Y-01021*
X-00358Y-01023*
X-00359Y-01024*
X-00359Y-01025*
X-00359Y-01027*
X-0036Y-01028*
X-0036Y-01029*
X-0036Y-01031*
X-0036Y-01032*
X-0036Y-01033*
X-0036Y-01035*
X-0036Y-01036*
X-00359Y-01038*
X-00359Y-01039*
X-00359Y-0104*
X-00358Y-01041*
X-00357Y-01043*
X-00356Y-01044*
X-00356Y-01045*
X-00355Y-01046*
X-00354Y-01047*
X-00353Y-01048*
X-00351Y-01049*
X-0035Y-01049*
X-00349Y-0105*
X-00348Y-01051*
X-00346Y-01051*
X-00345Y-01051*
X-00344Y-01052*
X-00342Y-01052*
X-00341Y-01052*
X-0034*
X-00338Y-01052*
X-00337Y-01052*
X-00335Y-01051*
X-00334Y-01051*
X-00333Y-01051*
X-00331Y-0105*
X-0033Y-01049*
X-00329Y-01049*
X-00328Y-01048*
X-00327Y-01047*
X-00326Y-01046*
X-00325Y-01045*
X-00324Y-01044*
X-00323Y-01043*
X-00323Y-01041*
X-00322Y-0104*
X-00321Y-01039*
X-00321Y-01038*
X-00321Y-01036*
X-0032Y-01035*
X-0032Y-01033*
X-0032Y-01032*
X-00222D02*
D01*
X-00222Y-01031*
X-00222Y-01029*
X-00222Y-01028*
X-00223Y-01027*
X-00223Y-01025*
X-00224Y-01024*
X-00224Y-01023*
X-00225Y-01021*
X-00226Y-0102*
X-00227Y-01019*
X-00227Y-01018*
X-00228Y-01017*
X-0023Y-01016*
X-00231Y-01015*
X-00232Y-01015*
X-00233Y-01014*
X-00234Y-01013*
X-00236Y-01013*
X-00237Y-01013*
X-00238Y-01012*
X-0024Y-01012*
X-00241Y-01012*
X-00243*
X-00244Y-01012*
X-00245Y-01012*
X-00247Y-01013*
X-00248Y-01013*
X-00249Y-01013*
X-00251Y-01014*
X-00252Y-01015*
X-00253Y-01015*
X-00254Y-01016*
X-00255Y-01017*
X-00256Y-01018*
X-00257Y-01019*
X-00258Y-0102*
X-00259Y-01021*
X-00259Y-01023*
X-0026Y-01024*
X-00261Y-01025*
X-00261Y-01027*
X-00261Y-01028*
X-00262Y-01029*
X-00262Y-01031*
X-00262Y-01032*
X-00262Y-01033*
X-00262Y-01035*
X-00261Y-01036*
X-00261Y-01038*
X-00261Y-01039*
X-0026Y-0104*
X-00259Y-01041*
X-00259Y-01043*
X-00258Y-01044*
X-00257Y-01045*
X-00256Y-01046*
X-00255Y-01047*
X-00254Y-01048*
X-00253Y-01049*
X-00252Y-01049*
X-00251Y-0105*
X-00249Y-01051*
X-00248Y-01051*
X-00247Y-01051*
X-00245Y-01052*
X-00244Y-01052*
X-00243Y-01052*
X-00241*
X-0024Y-01052*
X-00238Y-01052*
X-00237Y-01051*
X-00236Y-01051*
X-00234Y-01051*
X-00233Y-0105*
X-00232Y-01049*
X-00231Y-01049*
X-0023Y-01048*
X-00228Y-01047*
X-00227Y-01046*
X-00227Y-01045*
X-00226Y-01044*
X-00225Y-01043*
X-00224Y-01041*
X-00224Y-0104*
X-00223Y-01039*
X-00223Y-01038*
X-00222Y-01036*
X-00222Y-01035*
X-00222Y-01033*
X-00222Y-01032*
X-00123D02*
D01*
X-00123Y-01031*
X-00124Y-01029*
X-00124Y-01028*
X-00124Y-01027*
X-00125Y-01025*
X-00125Y-01024*
X-00126Y-01023*
X-00126Y-01021*
X-00127Y-0102*
X-00128Y-01019*
X-00129Y-01018*
X-0013Y-01017*
X-00131Y-01016*
X-00132Y-01015*
X-00133Y-01015*
X-00135Y-01014*
X-00136Y-01013*
X-00137Y-01013*
X-00139Y-01013*
X-0014Y-01012*
X-00141Y-01012*
X-00143Y-01012*
X-00144*
X-00145Y-01012*
X-00147Y-01012*
X-00148Y-01013*
X-0015Y-01013*
X-00151Y-01013*
X-00152Y-01014*
X-00153Y-01015*
X-00155Y-01015*
X-00156Y-01016*
X-00157Y-01017*
X-00158Y-01018*
X-00159Y-01019*
X-0016Y-0102*
X-0016Y-01021*
X-00161Y-01023*
X-00162Y-01024*
X-00162Y-01025*
X-00163Y-01027*
X-00163Y-01028*
X-00163Y-01029*
X-00163Y-01031*
X-00163Y-01032*
X-00163Y-01033*
X-00163Y-01035*
X-00163Y-01036*
X-00163Y-01038*
X-00162Y-01039*
X-00162Y-0104*
X-00161Y-01041*
X-0016Y-01043*
X-0016Y-01044*
X-00159Y-01045*
X-00158Y-01046*
X-00157Y-01047*
X-00156Y-01048*
X-00155Y-01049*
X-00153Y-01049*
X-00152Y-0105*
X-00151Y-01051*
X-0015Y-01051*
X-00148Y-01051*
X-00147Y-01052*
X-00145Y-01052*
X-00144Y-01052*
X-00143*
X-00141Y-01052*
X-0014Y-01052*
X-00139Y-01051*
X-00137Y-01051*
X-00136Y-01051*
X-00135Y-0105*
X-00133Y-01049*
X-00132Y-01049*
X-00131Y-01048*
X-0013Y-01047*
X-00129Y-01046*
X-00128Y-01045*
X-00127Y-01044*
X-00126Y-01043*
X-00126Y-01041*
X-00125Y-0104*
X-00125Y-01039*
X-00124Y-01038*
X-00124Y-01036*
X-00124Y-01035*
X-00123Y-01033*
X-00123Y-01032*
X-00025D02*
D01*
X-00025Y-01031*
X-00025Y-01029*
X-00025Y-01028*
X-00026Y-01027*
X-00026Y-01025*
X-00027Y-01024*
X-00027Y-01023*
X-00028Y-01021*
X-00029Y-0102*
X-0003Y-01019*
X-00031Y-01018*
X-00032Y-01017*
X-00033Y-01016*
X-00034Y-01015*
X-00035Y-01015*
X-00036Y-01014*
X-00037Y-01013*
X-00039Y-01013*
X-0004Y-01013*
X-00042Y-01012*
X-00043Y-01012*
X-00044Y-01012*
X-00046*
X-00047Y-01012*
X-00048Y-01012*
X-0005Y-01013*
X-00051Y-01013*
X-00052Y-01013*
X-00054Y-01014*
X-00055Y-01015*
X-00056Y-01015*
X-00057Y-01016*
X-00058Y-01017*
X-00059Y-01018*
X-0006Y-01019*
X-00061Y-0102*
X-00062Y-01021*
X-00063Y-01023*
X-00063Y-01024*
X-00064Y-01025*
X-00064Y-01027*
X-00065Y-01028*
X-00065Y-01029*
X-00065Y-01031*
X-00065Y-01032*
X-00065Y-01033*
X-00065Y-01035*
X-00065Y-01036*
X-00064Y-01038*
X-00064Y-01039*
X-00063Y-0104*
X-00063Y-01041*
X-00062Y-01043*
X-00061Y-01044*
X-0006Y-01045*
X-00059Y-01046*
X-00058Y-01047*
X-00057Y-01048*
X-00056Y-01049*
X-00055Y-01049*
X-00054Y-0105*
X-00052Y-01051*
X-00051Y-01051*
X-0005Y-01051*
X-00048Y-01052*
X-00047Y-01052*
X-00046Y-01052*
X-00044*
X-00043Y-01052*
X-00042Y-01052*
X-0004Y-01051*
X-00039Y-01051*
X-00037Y-01051*
X-00036Y-0105*
X-00035Y-01049*
X-00034Y-01049*
X-00033Y-01048*
X-00032Y-01047*
X-00031Y-01046*
X-0003Y-01045*
X-00029Y-01044*
X-00028Y-01043*
X-00027Y-01041*
X-00027Y-0104*
X-00026Y-01039*
X-00026Y-01038*
X-00025Y-01036*
X-00025Y-01035*
X-00025Y-01033*
X-00025Y-01032*
X00072D02*
D01*
X00072Y-01031*
X00072Y-01029*
X00072Y-01028*
X00072Y-01027*
X00071Y-01025*
X00071Y-01024*
X0007Y-01023*
X00069Y-01021*
X00069Y-0102*
X00068Y-01019*
X00067Y-01018*
X00066Y-01017*
X00065Y-01016*
X00064Y-01015*
X00062Y-01015*
X00061Y-01014*
X0006Y-01013*
X00059Y-01013*
X00057Y-01013*
X00056Y-01012*
X00055Y-01012*
X00053Y-01012*
X00052*
X0005Y-01012*
X00049Y-01012*
X00048Y-01013*
X00046Y-01013*
X00045Y-01013*
X00044Y-01014*
X00042Y-01015*
X00041Y-01015*
X0004Y-01016*
X00039Y-01017*
X00038Y-01018*
X00037Y-01019*
X00036Y-0102*
X00035Y-01021*
X00035Y-01023*
X00034Y-01024*
X00034Y-01025*
X00033Y-01027*
X00033Y-01028*
X00033Y-01029*
X00032Y-01031*
X00032Y-01032*
X00032Y-01033*
X00033Y-01035*
X00033Y-01036*
X00033Y-01038*
X00034Y-01039*
X00034Y-0104*
X00035Y-01041*
X00035Y-01043*
X00036Y-01044*
X00037Y-01045*
X00038Y-01046*
X00039Y-01047*
X0004Y-01048*
X00041Y-01049*
X00042Y-01049*
X00044Y-0105*
X00045Y-01051*
X00046Y-01051*
X00048Y-01051*
X00049Y-01052*
X0005Y-01052*
X00052Y-01052*
X00053*
X00055Y-01052*
X00056Y-01052*
X00057Y-01051*
X00059Y-01051*
X0006Y-01051*
X00061Y-0105*
X00062Y-01049*
X00064Y-01049*
X00065Y-01048*
X00066Y-01047*
X00067Y-01046*
X00068Y-01045*
X00069Y-01044*
X00069Y-01043*
X0007Y-01041*
X00071Y-0104*
X00071Y-01039*
X00072Y-01038*
X00072Y-01036*
X00072Y-01035*
X00072Y-01033*
X00072Y-01032*
X00675Y-00576D02*
D01*
X00675Y-00574*
X00675Y-00573*
X00675Y-00571*
X00674Y-0057*
X00674Y-00569*
X00673Y-00567*
X00673Y-00566*
X00672Y-00565*
X00671Y-00564*
X0067Y-00563*
X00669Y-00562*
X00668Y-00561*
X00667Y-0056*
X00666Y-00559*
X00665Y-00558*
X00664Y-00558*
X00663Y-00557*
X00661Y-00557*
X0066Y-00556*
X00658Y-00556*
X00657Y-00556*
X00656Y-00556*
X00654*
X00653Y-00556*
X00652Y-00556*
X0065Y-00556*
X00649Y-00557*
X00648Y-00557*
X00646Y-00558*
X00645Y-00558*
X00644Y-00559*
X00643Y-0056*
X00642Y-00561*
X00641Y-00562*
X0064Y-00563*
X00639Y-00564*
X00638Y-00565*
X00637Y-00566*
X00637Y-00567*
X00636Y-00569*
X00636Y-0057*
X00635Y-00571*
X00635Y-00573*
X00635Y-00574*
X00635Y-00576*
X00635Y-00577*
X00635Y-00578*
X00635Y-0058*
X00636Y-00581*
X00636Y-00582*
X00637Y-00584*
X00637Y-00585*
X00638Y-00586*
X00639Y-00587*
X0064Y-00588*
X00641Y-00589*
X00642Y-0059*
X00643Y-00591*
X00644Y-00592*
X00645Y-00593*
X00646Y-00594*
X00648Y-00594*
X00649Y-00595*
X0065Y-00595*
X00652Y-00595*
X00653Y-00595*
X00654Y-00596*
X00656*
X00657Y-00595*
X00658Y-00595*
X0066Y-00595*
X00661Y-00595*
X00663Y-00594*
X00664Y-00594*
X00665Y-00593*
X00666Y-00592*
X00667Y-00591*
X00668Y-0059*
X00669Y-00589*
X0067Y-00588*
X00671Y-00587*
X00672Y-00586*
X00673Y-00585*
X00673Y-00584*
X00674Y-00582*
X00674Y-00581*
X00675Y-0058*
X00675Y-00578*
X00675Y-00577*
X00675Y-00576*
X00577D02*
D01*
X00577Y-00574*
X00576Y-00573*
X00576Y-00571*
X00576Y-0057*
X00575Y-00569*
X00575Y-00567*
X00574Y-00566*
X00574Y-00565*
X00573Y-00564*
X00572Y-00563*
X00571Y-00562*
X0057Y-00561*
X00569Y-0056*
X00568Y-00559*
X00567Y-00558*
X00565Y-00558*
X00564Y-00557*
X00563Y-00557*
X00561Y-00556*
X0056Y-00556*
X00559Y-00556*
X00557Y-00556*
X00556*
X00554Y-00556*
X00553Y-00556*
X00552Y-00556*
X0055Y-00557*
X00549Y-00557*
X00548Y-00558*
X00547Y-00558*
X00545Y-00559*
X00544Y-0056*
X00543Y-00561*
X00542Y-00562*
X00541Y-00563*
X0054Y-00564*
X0054Y-00565*
X00539Y-00566*
X00538Y-00567*
X00538Y-00569*
X00537Y-0057*
X00537Y-00571*
X00537Y-00573*
X00537Y-00574*
X00537Y-00576*
X00537Y-00577*
X00537Y-00578*
X00537Y-0058*
X00537Y-00581*
X00538Y-00582*
X00538Y-00584*
X00539Y-00585*
X0054Y-00586*
X0054Y-00587*
X00541Y-00588*
X00542Y-00589*
X00543Y-0059*
X00544Y-00591*
X00545Y-00592*
X00547Y-00593*
X00548Y-00594*
X00549Y-00594*
X0055Y-00595*
X00552Y-00595*
X00553Y-00595*
X00554Y-00595*
X00556Y-00596*
X00557*
X00559Y-00595*
X0056Y-00595*
X00561Y-00595*
X00563Y-00595*
X00564Y-00594*
X00565Y-00594*
X00567Y-00593*
X00568Y-00592*
X00569Y-00591*
X0057Y-0059*
X00571Y-00589*
X00572Y-00588*
X00573Y-00587*
X00574Y-00586*
X00574Y-00585*
X00575Y-00584*
X00575Y-00582*
X00576Y-00581*
X00576Y-0058*
X00576Y-00578*
X00577Y-00577*
X00577Y-00576*
X00478D02*
D01*
X00478Y-00574*
X00478Y-00573*
X00478Y-00571*
X00477Y-0057*
X00477Y-00569*
X00476Y-00567*
X00476Y-00566*
X00475Y-00565*
X00474Y-00564*
X00473Y-00563*
X00473Y-00562*
X00472Y-00561*
X0047Y-0056*
X00469Y-00559*
X00468Y-00558*
X00467Y-00558*
X00466Y-00557*
X00464Y-00557*
X00463Y-00556*
X00462Y-00556*
X0046Y-00556*
X00459Y-00556*
X00457*
X00456Y-00556*
X00455Y-00556*
X00453Y-00556*
X00452Y-00557*
X00451Y-00557*
X00449Y-00558*
X00448Y-00558*
X00447Y-00559*
X00446Y-0056*
X00445Y-00561*
X00444Y-00562*
X00443Y-00563*
X00442Y-00564*
X00441Y-00565*
X00441Y-00566*
X0044Y-00567*
X00439Y-00569*
X00439Y-0057*
X00439Y-00571*
X00438Y-00573*
X00438Y-00574*
X00438Y-00576*
X00438Y-00577*
X00438Y-00578*
X00439Y-0058*
X00439Y-00581*
X00439Y-00582*
X0044Y-00584*
X00441Y-00585*
X00441Y-00586*
X00442Y-00587*
X00443Y-00588*
X00444Y-00589*
X00445Y-0059*
X00446Y-00591*
X00447Y-00592*
X00448Y-00593*
X00449Y-00594*
X00451Y-00594*
X00452Y-00595*
X00453Y-00595*
X00455Y-00595*
X00456Y-00595*
X00457Y-00596*
X00459*
X0046Y-00595*
X00462Y-00595*
X00463Y-00595*
X00464Y-00595*
X00466Y-00594*
X00467Y-00594*
X00468Y-00593*
X00469Y-00592*
X0047Y-00591*
X00472Y-0059*
X00473Y-00589*
X00473Y-00588*
X00474Y-00587*
X00475Y-00586*
X00476Y-00585*
X00476Y-00584*
X00477Y-00582*
X00477Y-00581*
X00478Y-0058*
X00478Y-00578*
X00478Y-00577*
X00478Y-00576*
X0038D02*
D01*
X0038Y-00574*
X0038Y-00573*
X00379Y-00571*
X00379Y-0057*
X00379Y-00569*
X00378Y-00567*
X00377Y-00566*
X00377Y-00565*
X00376Y-00564*
X00375Y-00563*
X00374Y-00562*
X00373Y-00561*
X00372Y-0056*
X00371Y-00559*
X0037Y-00558*
X00369Y-00558*
X00367Y-00557*
X00366Y-00557*
X00365Y-00556*
X00363Y-00556*
X00362Y-00556*
X0036Y-00556*
X00359*
X00358Y-00556*
X00356Y-00556*
X00355Y-00556*
X00354Y-00557*
X00352Y-00557*
X00351Y-00558*
X0035Y-00558*
X00349Y-00559*
X00347Y-0056*
X00346Y-00561*
X00345Y-00562*
X00344Y-00563*
X00344Y-00564*
X00343Y-00565*
X00342Y-00566*
X00341Y-00567*
X00341Y-00569*
X00341Y-0057*
X0034Y-00571*
X0034Y-00573*
X0034Y-00574*
X0034Y-00576*
X0034Y-00577*
X0034Y-00578*
X0034Y-0058*
X00341Y-00581*
X00341Y-00582*
X00341Y-00584*
X00342Y-00585*
X00343Y-00586*
X00344Y-00587*
X00344Y-00588*
X00345Y-00589*
X00346Y-0059*
X00347Y-00591*
X00349Y-00592*
X0035Y-00593*
X00351Y-00594*
X00352Y-00594*
X00354Y-00595*
X00355Y-00595*
X00356Y-00595*
X00358Y-00595*
X00359Y-00596*
X0036*
X00362Y-00595*
X00363Y-00595*
X00365Y-00595*
X00366Y-00595*
X00367Y-00594*
X00369Y-00594*
X0037Y-00593*
X00371Y-00592*
X00372Y-00591*
X00373Y-0059*
X00374Y-00589*
X00375Y-00588*
X00376Y-00587*
X00377Y-00586*
X00377Y-00585*
X00378Y-00584*
X00379Y-00582*
X00379Y-00581*
X00379Y-0058*
X0038Y-00578*
X0038Y-00577*
X0038Y-00576*
X01844D02*
D01*
X01844Y-00574*
X01844Y-00573*
X01844Y-00571*
X01844Y-0057*
X01843Y-00569*
X01843Y-00567*
X01842Y-00566*
X01841Y-00565*
X0184Y-00564*
X0184Y-00563*
X01839Y-00562*
X01838Y-00561*
X01837Y-0056*
X01835Y-00559*
X01834Y-00558*
X01833Y-00558*
X01832Y-00557*
X0183Y-00557*
X01829Y-00556*
X01828Y-00556*
X01826Y-00556*
X01825Y-00556*
X01824*
X01822Y-00556*
X01821Y-00556*
X01819Y-00556*
X01818Y-00557*
X01817Y-00557*
X01816Y-00558*
X01814Y-00558*
X01813Y-00559*
X01812Y-0056*
X01811Y-00561*
X0181Y-00562*
X01809Y-00563*
X01808Y-00564*
X01807Y-00565*
X01807Y-00566*
X01806Y-00567*
X01806Y-00569*
X01805Y-0057*
X01805Y-00571*
X01804Y-00573*
X01804Y-00574*
X01804Y-00576*
X01804Y-00577*
X01804Y-00578*
X01805Y-0058*
X01805Y-00581*
X01806Y-00582*
X01806Y-00584*
X01807Y-00585*
X01807Y-00586*
X01808Y-00587*
X01809Y-00588*
X0181Y-00589*
X01811Y-0059*
X01812Y-00591*
X01813Y-00592*
X01814Y-00593*
X01816Y-00594*
X01817Y-00594*
X01818Y-00595*
X01819Y-00595*
X01821Y-00595*
X01822Y-00595*
X01824Y-00596*
X01825*
X01826Y-00595*
X01828Y-00595*
X01829Y-00595*
X0183Y-00595*
X01832Y-00594*
X01833Y-00594*
X01834Y-00593*
X01835Y-00592*
X01837Y-00591*
X01838Y-0059*
X01839Y-00589*
X0184Y-00588*
X0184Y-00587*
X01841Y-00586*
X01842Y-00585*
X01843Y-00584*
X01843Y-00582*
X01844Y-00581*
X01844Y-0058*
X01844Y-00578*
X01844Y-00577*
X01844Y-00576*
X01746D02*
D01*
X01746Y-00574*
X01746Y-00573*
X01745Y-00571*
X01745Y-0057*
X01745Y-00569*
X01744Y-00567*
X01744Y-00566*
X01743Y-00565*
X01742Y-00564*
X01741Y-00563*
X0174Y-00562*
X01739Y-00561*
X01738Y-0056*
X01737Y-00559*
X01736Y-00558*
X01735Y-00558*
X01733Y-00557*
X01732Y-00557*
X01731Y-00556*
X01729Y-00556*
X01728Y-00556*
X01727Y-00556*
X01725*
X01724Y-00556*
X01722Y-00556*
X01721Y-00556*
X0172Y-00557*
X01718Y-00557*
X01717Y-00558*
X01716Y-00558*
X01715Y-00559*
X01714Y-0056*
X01712Y-00561*
X01711Y-00562*
X01711Y-00563*
X0171Y-00564*
X01709Y-00565*
X01708Y-00566*
X01708Y-00567*
X01707Y-00569*
X01707Y-0057*
X01706Y-00571*
X01706Y-00573*
X01706Y-00574*
X01706Y-00576*
X01706Y-00577*
X01706Y-00578*
X01706Y-0058*
X01707Y-00581*
X01707Y-00582*
X01708Y-00584*
X01708Y-00585*
X01709Y-00586*
X0171Y-00587*
X01711Y-00588*
X01711Y-00589*
X01712Y-0059*
X01714Y-00591*
X01715Y-00592*
X01716Y-00593*
X01717Y-00594*
X01718Y-00594*
X0172Y-00595*
X01721Y-00595*
X01722Y-00595*
X01724Y-00595*
X01725Y-00596*
X01727*
X01728Y-00595*
X01729Y-00595*
X01731Y-00595*
X01732Y-00595*
X01733Y-00594*
X01735Y-00594*
X01736Y-00593*
X01737Y-00592*
X01738Y-00591*
X01739Y-0059*
X0174Y-00589*
X01741Y-00588*
X01742Y-00587*
X01743Y-00586*
X01744Y-00585*
X01744Y-00584*
X01745Y-00582*
X01745Y-00581*
X01745Y-0058*
X01746Y-00578*
X01746Y-00577*
X01746Y-00576*
X01647D02*
D01*
X01647Y-00574*
X01647Y-00573*
X01647Y-00571*
X01647Y-0057*
X01646Y-00569*
X01646Y-00567*
X01645Y-00566*
X01644Y-00565*
X01644Y-00564*
X01643Y-00563*
X01642Y-00562*
X01641Y-00561*
X0164Y-0056*
X01639Y-00559*
X01637Y-00558*
X01636Y-00558*
X01635Y-00557*
X01634Y-00557*
X01632Y-00556*
X01631Y-00556*
X0163Y-00556*
X01628Y-00556*
X01627*
X01625Y-00556*
X01624Y-00556*
X01623Y-00556*
X01621Y-00557*
X0162Y-00557*
X01619Y-00558*
X01617Y-00558*
X01616Y-00559*
X01615Y-0056*
X01614Y-00561*
X01613Y-00562*
X01612Y-00563*
X01611Y-00564*
X0161Y-00565*
X0161Y-00566*
X01609Y-00567*
X01609Y-00569*
X01608Y-0057*
X01608Y-00571*
X01608Y-00573*
X01608Y-00574*
X01607Y-00576*
X01608Y-00577*
X01608Y-00578*
X01608Y-0058*
X01608Y-00581*
X01609Y-00582*
X01609Y-00584*
X0161Y-00585*
X0161Y-00586*
X01611Y-00587*
X01612Y-00588*
X01613Y-00589*
X01614Y-0059*
X01615Y-00591*
X01616Y-00592*
X01617Y-00593*
X01619Y-00594*
X0162Y-00594*
X01621Y-00595*
X01623Y-00595*
X01624Y-00595*
X01625Y-00595*
X01627Y-00596*
X01628*
X0163Y-00595*
X01631Y-00595*
X01632Y-00595*
X01634Y-00595*
X01635Y-00594*
X01636Y-00594*
X01637Y-00593*
X01639Y-00592*
X0164Y-00591*
X01641Y-0059*
X01642Y-00589*
X01643Y-00588*
X01644Y-00587*
X01644Y-00586*
X01645Y-00585*
X01646Y-00584*
X01646Y-00582*
X01647Y-00581*
X01647Y-0058*
X01647Y-00578*
X01647Y-00577*
X01647Y-00576*
X01549D02*
D01*
X01549Y-00574*
X01549Y-00573*
X01549Y-00571*
X01548Y-0057*
X01548Y-00569*
X01547Y-00567*
X01547Y-00566*
X01546Y-00565*
X01545Y-00564*
X01544Y-00563*
X01543Y-00562*
X01542Y-00561*
X01541Y-0056*
X0154Y-00559*
X01539Y-00558*
X01538Y-00558*
X01537Y-00557*
X01535Y-00557*
X01534Y-00556*
X01533Y-00556*
X01531Y-00556*
X0153Y-00556*
X01528*
X01527Y-00556*
X01526Y-00556*
X01524Y-00556*
X01523Y-00557*
X01522Y-00557*
X0152Y-00558*
X01519Y-00558*
X01518Y-00559*
X01517Y-0056*
X01516Y-00561*
X01515Y-00562*
X01514Y-00563*
X01513Y-00564*
X01512Y-00565*
X01511Y-00566*
X01511Y-00567*
X0151Y-00569*
X0151Y-0057*
X01509Y-00571*
X01509Y-00573*
X01509Y-00574*
X01509Y-00576*
X01509Y-00577*
X01509Y-00578*
X01509Y-0058*
X0151Y-00581*
X0151Y-00582*
X01511Y-00584*
X01511Y-00585*
X01512Y-00586*
X01513Y-00587*
X01514Y-00588*
X01515Y-00589*
X01516Y-0059*
X01517Y-00591*
X01518Y-00592*
X01519Y-00593*
X0152Y-00594*
X01522Y-00594*
X01523Y-00595*
X01524Y-00595*
X01526Y-00595*
X01527Y-00595*
X01528Y-00596*
X0153*
X01531Y-00595*
X01533Y-00595*
X01534Y-00595*
X01535Y-00595*
X01537Y-00594*
X01538Y-00594*
X01539Y-00593*
X0154Y-00592*
X01541Y-00591*
X01542Y-0059*
X01543Y-00589*
X01544Y-00588*
X01545Y-00587*
X01546Y-00586*
X01547Y-00585*
X01547Y-00584*
X01548Y-00582*
X01548Y-00581*
X01549Y-0058*
X01549Y-00578*
X01549Y-00577*
X01549Y-00576*
X0056Y00453D02*
D01*
X0056Y00455*
X0056Y00456*
X00559Y00457*
X00559Y00459*
X00559Y0046*
X00558Y00461*
X00558Y00463*
X00557Y00464*
X00556Y00465*
X00555Y00466*
X00554Y00467*
X00553Y00468*
X00552Y00469*
X00551Y0047*
X0055Y00471*
X00549Y00471*
X00547Y00472*
X00546Y00472*
X00545Y00473*
X00543Y00473*
X00542Y00473*
X00541Y00473*
X00539*
X00538Y00473*
X00536Y00473*
X00535Y00473*
X00534Y00472*
X00532Y00472*
X00531Y00471*
X0053Y00471*
X00529Y0047*
X00528Y00469*
X00526Y00468*
X00525Y00467*
X00525Y00466*
X00524Y00465*
X00523Y00464*
X00522Y00463*
X00522Y00461*
X00521Y0046*
X00521Y00459*
X0052Y00457*
X0052Y00456*
X0052Y00455*
X0052Y00453*
X0052Y00452*
X0052Y0045*
X0052Y00449*
X00521Y00448*
X00521Y00446*
X00522Y00445*
X00522Y00444*
X00523Y00443*
X00524Y00441*
X00525Y0044*
X00525Y00439*
X00526Y00438*
X00528Y00437*
X00529Y00437*
X0053Y00436*
X00531Y00435*
X00532Y00435*
X00534Y00434*
X00535Y00434*
X00536Y00434*
X00538Y00433*
X00539Y00433*
X00541*
X00542Y00433*
X00543Y00434*
X00545Y00434*
X00546Y00434*
X00547Y00435*
X00549Y00435*
X0055Y00436*
X00551Y00437*
X00552Y00437*
X00553Y00438*
X00554Y00439*
X00555Y0044*
X00556Y00441*
X00557Y00443*
X00558Y00444*
X00558Y00445*
X00559Y00446*
X00559Y00448*
X00559Y00449*
X0056Y0045*
X0056Y00452*
X0056Y00453*
X-00483Y-00715D02*
D01*
X-00483Y-00714*
X-00484Y-00712*
X-00484Y-00711*
X-00484Y-0071*
X-00485Y-00708*
X-00485Y-00707*
X-00486Y-00706*
X-00486Y-00704*
X-00487Y-00703*
X-00488Y-00702*
X-00489Y-00701*
X-0049Y-007*
X-00491Y-00699*
X-00492Y-00698*
X-00493Y-00698*
X-00495Y-00697*
X-00496Y-00697*
X-00497Y-00696*
X-00499Y-00696*
X-005Y-00695*
X-00501Y-00695*
X-00503Y-00695*
X-00504*
X-00506Y-00695*
X-00507Y-00695*
X-00508Y-00696*
X-0051Y-00696*
X-00511Y-00697*
X-00512Y-00697*
X-00513Y-00698*
X-00515Y-00698*
X-00516Y-00699*
X-00517Y-007*
X-00518Y-00701*
X-00519Y-00702*
X-0052Y-00703*
X-0052Y-00704*
X-00521Y-00706*
X-00522Y-00707*
X-00522Y-00708*
X-00523Y-0071*
X-00523Y-00711*
X-00523Y-00712*
X-00523Y-00714*
X-00523Y-00715*
X-00523Y-00716*
X-00523Y-00718*
X-00523Y-00719*
X-00523Y-00721*
X-00522Y-00722*
X-00522Y-00723*
X-00521Y-00724*
X-0052Y-00726*
X-0052Y-00727*
X-00519Y-00728*
X-00518Y-00729*
X-00517Y-0073*
X-00516Y-00731*
X-00515Y-00732*
X-00513Y-00732*
X-00512Y-00733*
X-00511Y-00734*
X-0051Y-00734*
X-00508Y-00734*
X-00507Y-00735*
X-00506Y-00735*
X-00504Y-00735*
X-00503*
X-00501Y-00735*
X-005Y-00735*
X-00499Y-00734*
X-00497Y-00734*
X-00496Y-00734*
X-00495Y-00733*
X-00493Y-00732*
X-00492Y-00732*
X-00491Y-00731*
X-0049Y-0073*
X-00489Y-00729*
X-00488Y-00728*
X-00487Y-00727*
X-00486Y-00726*
X-00486Y-00724*
X-00485Y-00723*
X-00485Y-00722*
X-00484Y-00721*
X-00484Y-00719*
X-00484Y-00718*
X-00483Y-00716*
X-00483Y-00715*
X-00728Y-00551D02*
D01*
X-00728Y-00549*
X-00728Y-00548*
X-00728Y-00547*
X-00728Y-00545*
X-00729Y-00544*
X-00729Y-00543*
X-0073Y-00541*
X-00731Y-0054*
X-00731Y-00539*
X-00732Y-00538*
X-00733Y-00537*
X-00734Y-00536*
X-00735Y-00535*
X-00736Y-00534*
X-00738Y-00533*
X-00739Y-00533*
X-0074Y-00532*
X-00741Y-00532*
X-00743Y-00531*
X-00744Y-00531*
X-00745Y-00531*
X-00747Y-00531*
X-00748*
X-0075Y-00531*
X-00751Y-00531*
X-00752Y-00531*
X-00754Y-00532*
X-00755Y-00532*
X-00756Y-00533*
X-00758Y-00533*
X-00759Y-00534*
X-0076Y-00535*
X-00761Y-00536*
X-00762Y-00537*
X-00763Y-00538*
X-00764Y-00539*
X-00764Y-0054*
X-00765Y-00541*
X-00766Y-00543*
X-00766Y-00544*
X-00767Y-00545*
X-00767Y-00547*
X-00767Y-00548*
X-00767Y-00549*
X-00768Y-00551*
X-00767Y-00552*
X-00767Y-00553*
X-00767Y-00555*
X-00767Y-00556*
X-00766Y-00558*
X-00766Y-00559*
X-00765Y-0056*
X-00764Y-00561*
X-00764Y-00562*
X-00763Y-00564*
X-00762Y-00565*
X-00761Y-00566*
X-0076Y-00566*
X-00759Y-00567*
X-00758Y-00568*
X-00756Y-00569*
X-00755Y-00569*
X-00754Y-0057*
X-00752Y-0057*
X-00751Y-0057*
X-0075Y-00571*
X-00748Y-00571*
X-00747*
X-00745Y-00571*
X-00744Y-0057*
X-00743Y-0057*
X-00741Y-0057*
X-0074Y-00569*
X-00739Y-00569*
X-00738Y-00568*
X-00736Y-00567*
X-00735Y-00566*
X-00734Y-00566*
X-00733Y-00565*
X-00732Y-00564*
X-00731Y-00562*
X-00731Y-00561*
X-0073Y-0056*
X-00729Y-00559*
X-00729Y-00558*
X-00728Y-00556*
X-00728Y-00555*
X-00728Y-00553*
X-00728Y-00552*
X-00728Y-00551*
X-01199Y-00674D02*
D01*
X-01199Y-00672*
X-01199Y-00671*
X-01199Y-0067*
X-012Y-00668*
X-012Y-00667*
X-01201Y-00666*
X-01201Y-00664*
X-01202Y-00663*
X-01203Y-00662*
X-01204Y-00661*
X-01205Y-0066*
X-01206Y-00659*
X-01207Y-00658*
X-01208Y-00657*
X-01209Y-00656*
X-0121Y-00656*
X-01211Y-00655*
X-01213Y-00655*
X-01214Y-00654*
X-01216Y-00654*
X-01217Y-00654*
X-01218Y-00654*
X-0122*
X-01221Y-00654*
X-01222Y-00654*
X-01224Y-00654*
X-01225Y-00655*
X-01226Y-00655*
X-01228Y-00656*
X-01229Y-00656*
X-0123Y-00657*
X-01231Y-00658*
X-01232Y-00659*
X-01233Y-0066*
X-01234Y-00661*
X-01235Y-00662*
X-01236Y-00663*
X-01237Y-00664*
X-01237Y-00666*
X-01238Y-00667*
X-01238Y-00668*
X-01239Y-0067*
X-01239Y-00671*
X-01239Y-00672*
X-01239Y-00674*
X-01239Y-00675*
X-01239Y-00676*
X-01239Y-00678*
X-01238Y-00679*
X-01238Y-00681*
X-01237Y-00682*
X-01237Y-00683*
X-01236Y-00684*
X-01235Y-00685*
X-01234Y-00687*
X-01233Y-00688*
X-01232Y-00689*
X-01231Y-00689*
X-0123Y-0069*
X-01229Y-00691*
X-01228Y-00692*
X-01226Y-00692*
X-01225Y-00693*
X-01224Y-00693*
X-01222Y-00693*
X-01221Y-00694*
X-0122Y-00694*
X-01218*
X-01217Y-00694*
X-01216Y-00693*
X-01214Y-00693*
X-01213Y-00693*
X-01211Y-00692*
X-0121Y-00692*
X-01209Y-00691*
X-01208Y-0069*
X-01207Y-00689*
X-01206Y-00689*
X-01205Y-00688*
X-01204Y-00687*
X-01203Y-00685*
X-01202Y-00684*
X-01201Y-00683*
X-01201Y-00682*
X-012Y-00681*
X-012Y-00679*
X-01199Y-00678*
X-01199Y-00676*
X-01199Y-00675*
X-01199Y-00674*
X00485Y-00054D02*
D01*
X00485Y-00052*
X00485Y-00051*
X00485Y-00049*
X00484Y-00048*
X00484Y-00047*
X00483Y-00045*
X00483Y-00044*
X00482Y-00043*
X00481Y-00042*
X0048Y-00041*
X00479Y-0004*
X00478Y-00039*
X00477Y-00038*
X00476Y-00037*
X00475Y-00036*
X00474Y-00036*
X00473Y-00035*
X00471Y-00035*
X0047Y-00034*
X00469Y-00034*
X00467Y-00034*
X00466Y-00034*
X00464*
X00463Y-00034*
X00462Y-00034*
X0046Y-00034*
X00459Y-00035*
X00458Y-00035*
X00456Y-00036*
X00455Y-00036*
X00454Y-00037*
X00453Y-00038*
X00452Y-00039*
X00451Y-0004*
X0045Y-00041*
X00449Y-00042*
X00448Y-00043*
X00447Y-00044*
X00447Y-00045*
X00446Y-00047*
X00446Y-00048*
X00445Y-00049*
X00445Y-00051*
X00445Y-00052*
X00445Y-00054*
X00445Y-00055*
X00445Y-00056*
X00445Y-00058*
X00446Y-00059*
X00446Y-0006*
X00447Y-00062*
X00447Y-00063*
X00448Y-00064*
X00449Y-00065*
X0045Y-00066*
X00451Y-00068*
X00452Y-00068*
X00453Y-00069*
X00454Y-0007*
X00455Y-00071*
X00456Y-00072*
X00458Y-00072*
X00459Y-00073*
X0046Y-00073*
X00462Y-00073*
X00463Y-00074*
X00464Y-00074*
X00466*
X00467Y-00074*
X00469Y-00073*
X0047Y-00073*
X00471Y-00073*
X00473Y-00072*
X00474Y-00072*
X00475Y-00071*
X00476Y-0007*
X00477Y-00069*
X00478Y-00068*
X00479Y-00068*
X0048Y-00066*
X00481Y-00065*
X00482Y-00064*
X00483Y-00063*
X00483Y-00062*
X00484Y-0006*
X00484Y-00059*
X00485Y-00058*
X00485Y-00056*
X00485Y-00055*
X00485Y-00054*
X-01584Y-01041D02*
D01*
X-01584Y-01039*
X-01584Y-01038*
X-01584Y-01037*
X-01585Y-01035*
X-01585Y-01034*
X-01586Y-01033*
X-01586Y-01031*
X-01587Y-0103*
X-01588Y-01029*
X-01589Y-01028*
X-01589Y-01027*
X-0159Y-01026*
X-01592Y-01025*
X-01593Y-01024*
X-01594Y-01024*
X-01595Y-01023*
X-01596Y-01022*
X-01598Y-01022*
X-01599Y-01021*
X-016Y-01021*
X-01602Y-01021*
X-01603Y-01021*
X-01605*
X-01606Y-01021*
X-01607Y-01021*
X-01609Y-01021*
X-0161Y-01022*
X-01611Y-01022*
X-01613Y-01023*
X-01614Y-01024*
X-01615Y-01024*
X-01616Y-01025*
X-01617Y-01026*
X-01618Y-01027*
X-01619Y-01028*
X-0162Y-01029*
X-01621Y-0103*
X-01621Y-01031*
X-01622Y-01033*
X-01623Y-01034*
X-01623Y-01035*
X-01623Y-01037*
X-01624Y-01038*
X-01624Y-01039*
X-01624Y-01041*
X-01624Y-01042*
X-01624Y-01044*
X-01623Y-01045*
X-01623Y-01046*
X-01623Y-01048*
X-01622Y-01049*
X-01621Y-0105*
X-01621Y-01051*
X-0162Y-01053*
X-01619Y-01054*
X-01618Y-01055*
X-01617Y-01056*
X-01616Y-01057*
X-01615Y-01057*
X-01614Y-01058*
X-01613Y-01059*
X-01611Y-01059*
X-0161Y-0106*
X-01609Y-0106*
X-01607Y-01061*
X-01606Y-01061*
X-01605Y-01061*
X-01603*
X-01602Y-01061*
X-016Y-01061*
X-01599Y-0106*
X-01598Y-0106*
X-01596Y-01059*
X-01595Y-01059*
X-01594Y-01058*
X-01593Y-01057*
X-01592Y-01057*
X-0159Y-01056*
X-01589Y-01055*
X-01589Y-01054*
X-01588Y-01053*
X-01587Y-01051*
X-01586Y-0105*
X-01586Y-01049*
X-01585Y-01048*
X-01585Y-01046*
X-01584Y-01045*
X-01584Y-01044*
X-01584Y-01042*
X-01584Y-01041*
X-00234Y00085D02*
D01*
X-00234Y00087*
X-00235Y00088*
X-00235Y00089*
X-00235Y00091*
X-00236Y00092*
X-00236Y00093*
X-00237Y00095*
X-00237Y00096*
X-00238Y00097*
X-00239Y00098*
X-0024Y00099*
X-00241Y001*
X-00242Y00101*
X-00243Y00102*
X-00244Y00102*
X-00246Y00103*
X-00247Y00104*
X-00248Y00104*
X-0025Y00105*
X-00251Y00105*
X-00252Y00105*
X-00254Y00105*
X-00255*
X-00257Y00105*
X-00258Y00105*
X-00259Y00105*
X-00261Y00104*
X-00262Y00104*
X-00263Y00103*
X-00264Y00102*
X-00266Y00102*
X-00267Y00101*
X-00268Y001*
X-00269Y00099*
X-0027Y00098*
X-00271Y00097*
X-00271Y00096*
X-00272Y00095*
X-00273Y00093*
X-00273Y00092*
X-00274Y00091*
X-00274Y00089*
X-00274Y00088*
X-00274Y00087*
X-00274Y00085*
X-00274Y00084*
X-00274Y00082*
X-00274Y00081*
X-00274Y0008*
X-00273Y00078*
X-00273Y00077*
X-00272Y00076*
X-00271Y00075*
X-00271Y00073*
X-0027Y00072*
X-00269Y00071*
X-00268Y0007*
X-00267Y00069*
X-00266Y00069*
X-00264Y00068*
X-00263Y00067*
X-00262Y00067*
X-00261Y00066*
X-00259Y00066*
X-00258Y00065*
X-00257Y00065*
X-00255Y00065*
X-00254*
X-00252Y00065*
X-00251Y00065*
X-0025Y00066*
X-00248Y00066*
X-00247Y00067*
X-00246Y00067*
X-00244Y00068*
X-00243Y00069*
X-00242Y00069*
X-00241Y0007*
X-0024Y00071*
X-00239Y00072*
X-00238Y00073*
X-00237Y00075*
X-00237Y00076*
X-00236Y00077*
X-00236Y00078*
X-00235Y0008*
X-00235Y00081*
X-00235Y00082*
X-00234Y00084*
X-00234Y00085*
X00203Y0D02*
D01*
X00203Y00002*
X00202Y00003*
X00202Y00005*
X00202Y00006*
X00201Y00007*
X00201Y00009*
X002Y0001*
X002Y00011*
X00199Y00012*
X00198Y00013*
X00197Y00014*
X00196Y00015*
X00195Y00016*
X00194Y00017*
X00193Y00018*
X00191Y00018*
X0019Y00019*
X00189Y0002*
X00187Y0002*
X00186Y0002*
X00185Y0002*
X00183Y0002*
X00182*
X0018Y0002*
X00179Y0002*
X00178Y0002*
X00176Y0002*
X00175Y00019*
X00174Y00018*
X00173Y00018*
X00171Y00017*
X0017Y00016*
X00169Y00015*
X00168Y00014*
X00167Y00013*
X00166Y00012*
X00166Y00011*
X00165Y0001*
X00164Y00009*
X00164Y00007*
X00163Y00006*
X00163Y00005*
X00163Y00003*
X00163Y00002*
X00163Y0*
X00163Y0*
X00163Y-00001*
X00163Y-00003*
X00163Y-00004*
X00164Y-00005*
X00164Y-00007*
X00165Y-00008*
X00166Y-00009*
X00166Y-0001*
X00167Y-00011*
X00168Y-00012*
X00169Y-00013*
X0017Y-00014*
X00171Y-00015*
X00173Y-00016*
X00174Y-00016*
X00175Y-00017*
X00176Y-00018*
X00178Y-00018*
X00179Y-00018*
X0018Y-00018*
X00182Y-00019*
X00183*
X00185Y-00018*
X00186Y-00018*
X00187Y-00018*
X00189Y-00018*
X0019Y-00017*
X00191Y-00016*
X00193Y-00016*
X00194Y-00015*
X00195Y-00014*
X00196Y-00013*
X00197Y-00012*
X00198Y-00011*
X00199Y-0001*
X002Y-00009*
X002Y-00008*
X00201Y-00007*
X00201Y-00005*
X00202Y-00004*
X00202Y-00003*
X00202Y-00001*
X00203Y0*
X00203Y0*
X-00621Y00224D02*
D01*
X-00621Y00225*
X-00621Y00227*
X-00622Y00228*
X-00622Y00229*
X-00622Y00231*
X-00623Y00232*
X-00624Y00233*
X-00624Y00235*
X-00625Y00236*
X-00626Y00237*
X-00627Y00238*
X-00628Y00239*
X-00629Y0024*
X-0063Y0024*
X-00631Y00241*
X-00632Y00242*
X-00634Y00242*
X-00635Y00243*
X-00636Y00243*
X-00638Y00244*
X-00639Y00244*
X-00641Y00244*
X-00642*
X-00643Y00244*
X-00645Y00244*
X-00646Y00243*
X-00647Y00243*
X-00649Y00242*
X-0065Y00242*
X-00651Y00241*
X-00652Y0024*
X-00654Y0024*
X-00655Y00239*
X-00656Y00238*
X-00657Y00237*
X-00657Y00236*
X-00658Y00235*
X-00659Y00233*
X-0066Y00232*
X-0066Y00231*
X-0066Y00229*
X-00661Y00228*
X-00661Y00227*
X-00661Y00225*
X-00661Y00224*
X-00661Y00223*
X-00661Y00221*
X-00661Y0022*
X-0066Y00218*
X-0066Y00217*
X-0066Y00216*
X-00659Y00215*
X-00658Y00213*
X-00657Y00212*
X-00657Y00211*
X-00656Y0021*
X-00655Y00209*
X-00654Y00208*
X-00652Y00207*
X-00651Y00207*
X-0065Y00206*
X-00649Y00205*
X-00647Y00205*
X-00646Y00205*
X-00645Y00204*
X-00643Y00204*
X-00642Y00204*
X-00641*
X-00639Y00204*
X-00638Y00204*
X-00636Y00205*
X-00635Y00205*
X-00634Y00205*
X-00632Y00206*
X-00631Y00207*
X-0063Y00207*
X-00629Y00208*
X-00628Y00209*
X-00627Y0021*
X-00626Y00211*
X-00625Y00212*
X-00624Y00213*
X-00624Y00215*
X-00623Y00216*
X-00622Y00217*
X-00622Y00218*
X-00622Y0022*
X-00621Y00221*
X-00621Y00223*
X-00621Y00224*
X01039Y-00311D02*
D01*
X01039Y-00309*
X01039Y-00308*
X01039Y-00306*
X01038Y-00305*
X01038Y-00304*
X01037Y-00302*
X01037Y-00301*
X01036Y-003*
X01035Y-00299*
X01035Y-00298*
X01034Y-00297*
X01033Y-00296*
X01031Y-00295*
X0103Y-00294*
X01029Y-00293*
X01028Y-00293*
X01027Y-00292*
X01025Y-00292*
X01024Y-00291*
X01023Y-00291*
X01021Y-00291*
X0102Y-00291*
X01018*
X01017Y-00291*
X01016Y-00291*
X01014Y-00291*
X01013Y-00292*
X01012Y-00292*
X0101Y-00293*
X01009Y-00293*
X01008Y-00294*
X01007Y-00295*
X01006Y-00296*
X01005Y-00297*
X01004Y-00298*
X01003Y-00299*
X01002Y-003*
X01002Y-00301*
X01001Y-00302*
X01Y-00304*
X01Y-00305*
X01Y-00306*
X00999Y-00308*
X00999Y-00309*
X00999Y-00311*
X00999Y-00312*
X00999Y-00313*
X01Y-00315*
X01Y-00316*
X01Y-00317*
X01001Y-00319*
X01002Y-0032*
X01002Y-00321*
X01003Y-00322*
X01004Y-00323*
X01005Y-00324*
X01006Y-00325*
X01007Y-00326*
X01008Y-00327*
X01009Y-00328*
X0101Y-00328*
X01012Y-00329*
X01013Y-0033*
X01014Y-0033*
X01016Y-0033*
X01017Y-0033*
X01018Y-00331*
X0102*
X01021Y-0033*
X01023Y-0033*
X01024Y-0033*
X01025Y-0033*
X01027Y-00329*
X01028Y-00328*
X01029Y-00328*
X0103Y-00327*
X01031Y-00326*
X01033Y-00325*
X01034Y-00324*
X01035Y-00323*
X01035Y-00322*
X01036Y-00321*
X01037Y-0032*
X01037Y-00319*
X01038Y-00317*
X01038Y-00316*
X01039Y-00315*
X01039Y-00313*
X01039Y-00312*
X01039Y-00311*
X01138Y-00303D02*
D01*
X01138Y-00301*
X01137Y-003*
X01137Y-00298*
X01137Y-00297*
X01136Y-00296*
X01136Y-00295*
X01135Y-00293*
X01135Y-00292*
X01134Y-00291*
X01133Y-0029*
X01132Y-00289*
X01131Y-00288*
X0113Y-00287*
X01129Y-00286*
X01128Y-00285*
X01126Y-00285*
X01125Y-00284*
X01124Y-00284*
X01122Y-00283*
X01121Y-00283*
X0112Y-00283*
X01118Y-00283*
X01117*
X01116Y-00283*
X01114Y-00283*
X01113Y-00283*
X01111Y-00284*
X0111Y-00284*
X01109Y-00285*
X01108Y-00285*
X01106Y-00286*
X01105Y-00287*
X01104Y-00288*
X01103Y-00289*
X01102Y-0029*
X01101Y-00291*
X01101Y-00292*
X011Y-00293*
X01099Y-00295*
X01099Y-00296*
X01098Y-00297*
X01098Y-00298*
X01098Y-003*
X01098Y-00301*
X01098Y-00303*
X01098Y-00304*
X01098Y-00305*
X01098Y-00307*
X01098Y-00308*
X01099Y-00309*
X01099Y-00311*
X011Y-00312*
X01101Y-00313*
X01101Y-00314*
X01102Y-00316*
X01103Y-00317*
X01104Y-00318*
X01105Y-00318*
X01106Y-00319*
X01108Y-0032*
X01109Y-00321*
X0111Y-00321*
X01111Y-00322*
X01113Y-00322*
X01114Y-00322*
X01116Y-00323*
X01117Y-00323*
X01118*
X0112Y-00323*
X01121Y-00322*
X01122Y-00322*
X01124Y-00322*
X01125Y-00321*
X01126Y-00321*
X01128Y-0032*
X01129Y-00319*
X0113Y-00318*
X01131Y-00318*
X01132Y-00317*
X01133Y-00316*
X01134Y-00314*
X01135Y-00313*
X01135Y-00312*
X01136Y-00311*
X01136Y-00309*
X01137Y-00308*
X01137Y-00307*
X01137Y-00305*
X01138Y-00304*
X01138Y-00303*
X-01313Y-00711D02*
D01*
X-01313Y-00709*
X-01314Y-00708*
X-01314Y-00706*
X-01314Y-00705*
X-01315Y-00704*
X-01315Y-00702*
X-01316Y-00701*
X-01316Y-007*
X-01317Y-00699*
X-01318Y-00698*
X-01319Y-00697*
X-0132Y-00696*
X-01321Y-00695*
X-01322Y-00694*
X-01323Y-00693*
X-01325Y-00693*
X-01326Y-00692*
X-01327Y-00691*
X-01329Y-00691*
X-0133Y-00691*
X-01331Y-00691*
X-01333Y-00691*
X-01334*
X-01335Y-00691*
X-01337Y-00691*
X-01338Y-00691*
X-0134Y-00691*
X-01341Y-00692*
X-01342Y-00693*
X-01343Y-00693*
X-01345Y-00694*
X-01346Y-00695*
X-01347Y-00696*
X-01348Y-00697*
X-01349Y-00698*
X-0135Y-00699*
X-0135Y-007*
X-01351Y-00701*
X-01352Y-00702*
X-01352Y-00704*
X-01353Y-00705*
X-01353Y-00706*
X-01353Y-00708*
X-01353Y-00709*
X-01353Y-00711*
X-01353Y-00712*
X-01353Y-00713*
X-01353Y-00715*
X-01353Y-00716*
X-01352Y-00717*
X-01352Y-00719*
X-01351Y-0072*
X-0135Y-00721*
X-0135Y-00722*
X-01349Y-00723*
X-01348Y-00724*
X-01347Y-00725*
X-01346Y-00726*
X-01345Y-00727*
X-01343Y-00728*
X-01342Y-00728*
X-01341Y-00729*
X-0134Y-0073*
X-01338Y-0073*
X-01337Y-0073*
X-01335Y-0073*
X-01334Y-00731*
X-01333*
X-01331Y-0073*
X-0133Y-0073*
X-01329Y-0073*
X-01327Y-0073*
X-01326Y-00729*
X-01325Y-00728*
X-01323Y-00728*
X-01322Y-00727*
X-01321Y-00726*
X-0132Y-00725*
X-01319Y-00724*
X-01318Y-00723*
X-01317Y-00722*
X-01316Y-00721*
X-01316Y-0072*
X-01315Y-00719*
X-01315Y-00717*
X-01314Y-00716*
X-01314Y-00715*
X-01314Y-00713*
X-01313Y-00712*
X-01313Y-00711*
G54D123*
X00552Y00453D02*
D01*
X00552Y00454*
X00552Y00455*
X00552Y00456*
X00551Y00457*
X00551Y00457*
X00551Y00458*
X0055Y00459*
X0055Y0046*
X0055Y0046*
X00549Y00461*
X00548Y00462*
X00548Y00462*
X00547Y00463*
X00547Y00463*
X00546Y00464*
X00545Y00464*
X00544Y00464*
X00544Y00465*
X00543Y00465*
X00542Y00465*
X00541Y00465*
X0054Y00465*
X00539*
X00539Y00465*
X00538Y00465*
X00537Y00465*
X00536Y00465*
X00535Y00464*
X00535Y00464*
X00534Y00464*
X00533Y00463*
X00532Y00463*
X00532Y00462*
X00531Y00462*
X00531Y00461*
X0053Y0046*
X0053Y0046*
X00529Y00459*
X00529Y00458*
X00529Y00457*
X00528Y00457*
X00528Y00456*
X00528Y00455*
X00528Y00454*
X00528Y00453*
X00528Y00452*
X00528Y00452*
X00528Y00451*
X00528Y0045*
X00529Y00449*
X00529Y00448*
X00529Y00448*
X0053Y00447*
X0053Y00446*
X00531Y00446*
X00531Y00445*
X00532Y00444*
X00532Y00444*
X00533Y00443*
X00534Y00443*
X00535Y00442*
X00535Y00442*
X00536Y00442*
X00537Y00442*
X00538Y00441*
X00539Y00441*
X00539Y00441*
X0054*
X00541Y00441*
X00542Y00441*
X00543Y00442*
X00544Y00442*
X00544Y00442*
X00545Y00442*
X00546Y00443*
X00547Y00443*
X00547Y00444*
X00548Y00444*
X00548Y00445*
X00549Y00446*
X0055Y00446*
X0055Y00447*
X0055Y00448*
X00551Y00448*
X00551Y00449*
X00551Y0045*
X00552Y00451*
X00552Y00452*
X00552Y00452*
X00552Y00453*
X-00491Y-00715D02*
D01*
X-00491Y-00714*
X-00492Y-00713*
X-00492Y-00713*
X-00492Y-00712*
X-00492Y-00711*
X-00492Y-0071*
X-00493Y-00709*
X-00493Y-00709*
X-00494Y-00708*
X-00494Y-00707*
X-00495Y-00707*
X-00495Y-00706*
X-00496Y-00706*
X-00497Y-00705*
X-00497Y-00705*
X-00498Y-00704*
X-00499Y-00704*
X-005Y-00704*
X-00501Y-00703*
X-00501Y-00703*
X-00502Y-00703*
X-00503Y-00703*
X-00504*
X-00505Y-00703*
X-00506Y-00703*
X-00506Y-00703*
X-00507Y-00704*
X-00508Y-00704*
X-00509Y-00704*
X-00509Y-00705*
X-0051Y-00705*
X-00511Y-00706*
X-00511Y-00706*
X-00512Y-00707*
X-00513Y-00707*
X-00513Y-00708*
X-00514Y-00709*
X-00514Y-00709*
X-00514Y-0071*
X-00515Y-00711*
X-00515Y-00712*
X-00515Y-00713*
X-00515Y-00713*
X-00515Y-00714*
X-00515Y-00715*
X-00515Y-00716*
X-00515Y-00717*
X-00515Y-00718*
X-00515Y-00718*
X-00515Y-00719*
X-00514Y-0072*
X-00514Y-00721*
X-00514Y-00721*
X-00513Y-00722*
X-00513Y-00723*
X-00512Y-00723*
X-00511Y-00724*
X-00511Y-00725*
X-0051Y-00725*
X-00509Y-00725*
X-00509Y-00726*
X-00508Y-00726*
X-00507Y-00726*
X-00506Y-00727*
X-00506Y-00727*
X-00505Y-00727*
X-00504Y-00727*
X-00503*
X-00502Y-00727*
X-00501Y-00727*
X-00501Y-00727*
X-005Y-00726*
X-00499Y-00726*
X-00498Y-00726*
X-00497Y-00725*
X-00497Y-00725*
X-00496Y-00725*
X-00495Y-00724*
X-00495Y-00723*
X-00494Y-00723*
X-00494Y-00722*
X-00493Y-00721*
X-00493Y-00721*
X-00492Y-0072*
X-00492Y-00719*
X-00492Y-00718*
X-00492Y-00718*
X-00492Y-00717*
X-00491Y-00716*
X-00491Y-00715*
X-00736Y-00551D02*
D01*
X-00736Y-0055*
X-00736Y-00549*
X-00736Y-00548*
X-00736Y-00547*
X-00736Y-00547*
X-00737Y-00546*
X-00737Y-00545*
X-00737Y-00544*
X-00738Y-00544*
X-00738Y-00543*
X-00739Y-00542*
X-0074Y-00542*
X-0074Y-00541*
X-00741Y-00541*
X-00742Y-0054*
X-00742Y-0054*
X-00743Y-0054*
X-00744Y-00539*
X-00745Y-00539*
X-00745Y-00539*
X-00746Y-00539*
X-00747Y-00539*
X-00748*
X-00749Y-00539*
X-0075Y-00539*
X-0075Y-00539*
X-00751Y-00539*
X-00752Y-0054*
X-00753Y-0054*
X-00754Y-0054*
X-00754Y-00541*
X-00755Y-00541*
X-00756Y-00542*
X-00756Y-00542*
X-00757Y-00543*
X-00757Y-00544*
X-00758Y-00544*
X-00758Y-00545*
X-00758Y-00546*
X-00759Y-00547*
X-00759Y-00547*
X-00759Y-00548*
X-00759Y-00549*
X-0076Y-0055*
X-0076Y-00551*
X-0076Y-00552*
X-00759Y-00552*
X-00759Y-00553*
X-00759Y-00554*
X-00759Y-00555*
X-00758Y-00556*
X-00758Y-00556*
X-00758Y-00557*
X-00757Y-00558*
X-00757Y-00558*
X-00756Y-00559*
X-00756Y-0056*
X-00755Y-0056*
X-00754Y-00561*
X-00754Y-00561*
X-00753Y-00561*
X-00752Y-00562*
X-00751Y-00562*
X-0075Y-00562*
X-0075Y-00562*
X-00749Y-00563*
X-00748Y-00563*
X-00747*
X-00746Y-00563*
X-00745Y-00562*
X-00745Y-00562*
X-00744Y-00562*
X-00743Y-00562*
X-00742Y-00561*
X-00742Y-00561*
X-00741Y-00561*
X-0074Y-0056*
X-0074Y-0056*
X-00739Y-00559*
X-00738Y-00558*
X-00738Y-00558*
X-00737Y-00557*
X-00737Y-00556*
X-00737Y-00556*
X-00736Y-00555*
X-00736Y-00554*
X-00736Y-00553*
X-00736Y-00552*
X-00736Y-00552*
X-00736Y-00551*
X-01207Y-00674D02*
D01*
X-01207Y-00673*
X-01207Y-00672*
X-01207Y-00671*
X-01207Y-0067*
X-01208Y-0067*
X-01208Y-00669*
X-01208Y-00668*
X-01209Y-00667*
X-01209Y-00667*
X-0121Y-00666*
X-0121Y-00665*
X-01211Y-00665*
X-01212Y-00664*
X-01212Y-00664*
X-01213Y-00663*
X-01214Y-00663*
X-01214Y-00663*
X-01215Y-00662*
X-01216Y-00662*
X-01217Y-00662*
X-01218Y-00662*
X-01219Y-00662*
X-01219*
X-0122Y-00662*
X-01221Y-00662*
X-01222Y-00662*
X-01223Y-00662*
X-01223Y-00663*
X-01224Y-00663*
X-01225Y-00663*
X-01226Y-00664*
X-01226Y-00664*
X-01227Y-00665*
X-01228Y-00665*
X-01228Y-00666*
X-01229Y-00667*
X-01229Y-00667*
X-0123Y-00668*
X-0123Y-00669*
X-0123Y-0067*
X-01231Y-0067*
X-01231Y-00671*
X-01231Y-00672*
X-01231Y-00673*
X-01231Y-00674*
X-01231Y-00675*
X-01231Y-00675*
X-01231Y-00676*
X-01231Y-00677*
X-0123Y-00678*
X-0123Y-00679*
X-0123Y-00679*
X-01229Y-0068*
X-01229Y-00681*
X-01228Y-00681*
X-01228Y-00682*
X-01227Y-00683*
X-01226Y-00683*
X-01226Y-00684*
X-01225Y-00684*
X-01224Y-00684*
X-01223Y-00685*
X-01223Y-00685*
X-01222Y-00685*
X-01221Y-00686*
X-0122Y-00686*
X-01219Y-00686*
X-01219*
X-01218Y-00686*
X-01217Y-00686*
X-01216Y-00685*
X-01215Y-00685*
X-01214Y-00685*
X-01214Y-00684*
X-01213Y-00684*
X-01212Y-00684*
X-01212Y-00683*
X-01211Y-00683*
X-0121Y-00682*
X-0121Y-00681*
X-01209Y-00681*
X-01209Y-0068*
X-01208Y-00679*
X-01208Y-00679*
X-01208Y-00678*
X-01207Y-00677*
X-01207Y-00676*
X-01207Y-00675*
X-01207Y-00675*
X-01207Y-00674*
X00477Y-00054D02*
D01*
X00477Y-00053*
X00477Y-00052*
X00477Y-00051*
X00477Y-0005*
X00476Y-0005*
X00476Y-00049*
X00476Y-00048*
X00475Y-00047*
X00475Y-00047*
X00474Y-00046*
X00474Y-00045*
X00473Y-00045*
X00472Y-00044*
X00472Y-00044*
X00471Y-00043*
X0047Y-00043*
X0047Y-00043*
X00469Y-00042*
X00468Y-00042*
X00467Y-00042*
X00466Y-00042*
X00465Y-00042*
X00465*
X00464Y-00042*
X00463Y-00042*
X00462Y-00042*
X00461Y-00042*
X00461Y-00043*
X0046Y-00043*
X00459Y-00043*
X00458Y-00044*
X00458Y-00044*
X00457Y-00045*
X00456Y-00045*
X00456Y-00046*
X00455Y-00047*
X00455Y-00047*
X00454Y-00048*
X00454Y-00049*
X00454Y-0005*
X00454Y-0005*
X00453Y-00051*
X00453Y-00052*
X00453Y-00053*
X00453Y-00054*
X00453Y-00054*
X00453Y-00055*
X00453Y-00056*
X00454Y-00057*
X00454Y-00058*
X00454Y-00059*
X00454Y-00059*
X00455Y-0006*
X00455Y-00061*
X00456Y-00061*
X00456Y-00062*
X00457Y-00063*
X00458Y-00063*
X00458Y-00064*
X00459Y-00064*
X0046Y-00064*
X00461Y-00065*
X00461Y-00065*
X00462Y-00065*
X00463Y-00065*
X00464Y-00066*
X00465Y-00066*
X00465*
X00466Y-00066*
X00467Y-00065*
X00468Y-00065*
X00469Y-00065*
X0047Y-00065*
X0047Y-00064*
X00471Y-00064*
X00472Y-00064*
X00472Y-00063*
X00473Y-00063*
X00474Y-00062*
X00474Y-00061*
X00475Y-00061*
X00475Y-0006*
X00476Y-00059*
X00476Y-00059*
X00476Y-00058*
X00477Y-00057*
X00477Y-00056*
X00477Y-00055*
X00477Y-00054*
X00477Y-00054*
X-01592Y-01041D02*
D01*
X-01592Y-0104*
X-01592Y-01039*
X-01592Y-01038*
X-01592Y-01038*
X-01593Y-01037*
X-01593Y-01036*
X-01593Y-01035*
X-01594Y-01034*
X-01594Y-01034*
X-01595Y-01033*
X-01595Y-01033*
X-01596Y-01032*
X-01596Y-01031*
X-01597Y-01031*
X-01598Y-0103*
X-01599Y-0103*
X-01599Y-0103*
X-016Y-01029*
X-01601Y-01029*
X-01602Y-01029*
X-01603Y-01029*
X-01603Y-01029*
X-01604*
X-01605Y-01029*
X-01606Y-01029*
X-01607Y-01029*
X-01608Y-01029*
X-01608Y-0103*
X-01609Y-0103*
X-0161Y-0103*
X-01611Y-01031*
X-01611Y-01031*
X-01612Y-01032*
X-01612Y-01033*
X-01613Y-01033*
X-01614Y-01034*
X-01614Y-01034*
X-01614Y-01035*
X-01615Y-01036*
X-01615Y-01037*
X-01615Y-01038*
X-01616Y-01038*
X-01616Y-01039*
X-01616Y-0104*
X-01616Y-01041*
X-01616Y-01042*
X-01616Y-01043*
X-01616Y-01043*
X-01615Y-01044*
X-01615Y-01045*
X-01615Y-01046*
X-01614Y-01046*
X-01614Y-01047*
X-01614Y-01048*
X-01613Y-01049*
X-01612Y-01049*
X-01612Y-0105*
X-01611Y-0105*
X-01611Y-01051*
X-0161Y-01051*
X-01609Y-01052*
X-01608Y-01052*
X-01608Y-01052*
X-01607Y-01052*
X-01606Y-01053*
X-01605Y-01053*
X-01604Y-01053*
X-01603*
X-01603Y-01053*
X-01602Y-01053*
X-01601Y-01052*
X-016Y-01052*
X-01599Y-01052*
X-01599Y-01052*
X-01598Y-01051*
X-01597Y-01051*
X-01596Y-0105*
X-01596Y-0105*
X-01595Y-01049*
X-01595Y-01049*
X-01594Y-01048*
X-01594Y-01047*
X-01593Y-01046*
X-01593Y-01046*
X-01593Y-01045*
X-01592Y-01044*
X-01592Y-01043*
X-01592Y-01043*
X-01592Y-01042*
X-01592Y-01041*
X-00242Y00085D02*
D01*
X-00242Y00086*
X-00243Y00087*
X-00243Y00088*
X-00243Y00088*
X-00243Y00089*
X-00243Y0009*
X-00244Y00091*
X-00244Y00091*
X-00245Y00092*
X-00245Y00093*
X-00246Y00093*
X-00246Y00094*
X-00247Y00095*
X-00248Y00095*
X-00248Y00096*
X-00249Y00096*
X-0025Y00096*
X-00251Y00097*
X-00252Y00097*
X-00252Y00097*
X-00253Y00097*
X-00254Y00097*
X-00255*
X-00256Y00097*
X-00257Y00097*
X-00257Y00097*
X-00258Y00097*
X-00259Y00096*
X-0026Y00096*
X-0026Y00096*
X-00261Y00095*
X-00262Y00095*
X-00262Y00094*
X-00263Y00093*
X-00264Y00093*
X-00264Y00092*
X-00265Y00091*
X-00265Y00091*
X-00265Y0009*
X-00266Y00089*
X-00266Y00088*
X-00266Y00088*
X-00266Y00087*
X-00266Y00086*
X-00266Y00085*
X-00266Y00084*
X-00266Y00083*
X-00266Y00083*
X-00266Y00082*
X-00266Y00081*
X-00265Y0008*
X-00265Y00079*
X-00265Y00079*
X-00264Y00078*
X-00264Y00077*
X-00263Y00077*
X-00262Y00076*
X-00262Y00076*
X-00261Y00075*
X-0026Y00075*
X-0026Y00074*
X-00259Y00074*
X-00258Y00074*
X-00257Y00073*
X-00257Y00073*
X-00256Y00073*
X-00255Y00073*
X-00254*
X-00253Y00073*
X-00252Y00073*
X-00252Y00073*
X-00251Y00074*
X-0025Y00074*
X-00249Y00074*
X-00248Y00075*
X-00248Y00075*
X-00247Y00076*
X-00246Y00076*
X-00246Y00077*
X-00245Y00077*
X-00245Y00078*
X-00244Y00079*
X-00244Y00079*
X-00243Y0008*
X-00243Y00081*
X-00243Y00082*
X-00243Y00083*
X-00243Y00083*
X-00242Y00084*
X-00242Y00085*
X00195Y0D02*
D01*
X00195Y00001*
X00194Y00002*
X00194Y00003*
X00194Y00004*
X00194Y00005*
X00194Y00005*
X00193Y00006*
X00193Y00007*
X00192Y00008*
X00192Y00008*
X00191Y00009*
X00191Y00009*
X0019Y0001*
X00189Y0001*
X00189Y00011*
X00188Y00011*
X00187Y00012*
X00186Y00012*
X00185Y00012*
X00185Y00012*
X00184Y00012*
X00183Y00012*
X00182*
X00181Y00012*
X0018Y00012*
X0018Y00012*
X00179Y00012*
X00178Y00012*
X00177Y00011*
X00177Y00011*
X00176Y0001*
X00175Y0001*
X00175Y00009*
X00174Y00009*
X00173Y00008*
X00173Y00008*
X00172Y00007*
X00172Y00006*
X00172Y00005*
X00171Y00005*
X00171Y00004*
X00171Y00003*
X00171Y00002*
X00171Y00001*
X00171Y0*
X00171Y0*
X00171Y0*
X00171Y-00001*
X00171Y-00002*
X00171Y-00003*
X00172Y-00003*
X00172Y-00004*
X00172Y-00005*
X00173Y-00006*
X00173Y-00006*
X00174Y-00007*
X00175Y-00007*
X00175Y-00008*
X00176Y-00008*
X00177Y-00009*
X00177Y-00009*
X00178Y-0001*
X00179Y-0001*
X0018Y-0001*
X0018Y-0001*
X00181Y-0001*
X00182Y-00011*
X00183*
X00184Y-0001*
X00185Y-0001*
X00185Y-0001*
X00186Y-0001*
X00187Y-0001*
X00188Y-00009*
X00189Y-00009*
X00189Y-00008*
X0019Y-00008*
X00191Y-00007*
X00191Y-00007*
X00192Y-00006*
X00192Y-00006*
X00193Y-00005*
X00193Y-00004*
X00194Y-00003*
X00194Y-00003*
X00194Y-00002*
X00194Y-00001*
X00194Y0*
X00195Y0*
X00195Y0*
X-00629Y00224D02*
D01*
X-00629Y00225*
X-00629Y00226*
X-00629Y00226*
X-0063Y00227*
X-0063Y00228*
X-0063Y00229*
X-00631Y0023*
X-00631Y0023*
X-00632Y00231*
X-00632Y00232*
X-00633Y00232*
X-00633Y00233*
X-00634Y00233*
X-00635Y00234*
X-00635Y00234*
X-00636Y00235*
X-00637Y00235*
X-00638Y00235*
X-00638Y00236*
X-00639Y00236*
X-0064Y00236*
X-00641Y00236*
X-00642*
X-00642Y00236*
X-00643Y00236*
X-00644Y00236*
X-00645Y00235*
X-00646Y00235*
X-00646Y00235*
X-00647Y00234*
X-00648Y00234*
X-00649Y00233*
X-00649Y00233*
X-0065Y00232*
X-0065Y00232*
X-00651Y00231*
X-00651Y0023*
X-00652Y0023*
X-00652Y00229*
X-00653Y00228*
X-00653Y00227*
X-00653Y00226*
X-00653Y00226*
X-00653Y00225*
X-00653Y00224*
X-00653Y00223*
X-00653Y00222*
X-00653Y00221*
X-00653Y00221*
X-00653Y0022*
X-00652Y00219*
X-00652Y00218*
X-00651Y00218*
X-00651Y00217*
X-0065Y00216*
X-0065Y00216*
X-00649Y00215*
X-00649Y00214*
X-00648Y00214*
X-00647Y00214*
X-00646Y00213*
X-00646Y00213*
X-00645Y00212*
X-00644Y00212*
X-00643Y00212*
X-00642Y00212*
X-00642Y00212*
X-00641*
X-0064Y00212*
X-00639Y00212*
X-00638Y00212*
X-00638Y00212*
X-00637Y00213*
X-00636Y00213*
X-00635Y00214*
X-00635Y00214*
X-00634Y00214*
X-00633Y00215*
X-00633Y00216*
X-00632Y00216*
X-00632Y00217*
X-00631Y00218*
X-00631Y00218*
X-0063Y00219*
X-0063Y0022*
X-0063Y00221*
X-00629Y00221*
X-00629Y00222*
X-00629Y00223*
X-00629Y00224*
X01031Y-00311D02*
D01*
X01031Y-0031*
X01031Y-00309*
X01031Y-00308*
X01031Y-00307*
X0103Y-00306*
X0103Y-00306*
X0103Y-00305*
X01029Y-00304*
X01029Y-00303*
X01028Y-00303*
X01028Y-00302*
X01027Y-00302*
X01027Y-00301*
X01026Y-00301*
X01025Y-003*
X01024Y-003*
X01024Y-00299*
X01023Y-00299*
X01022Y-00299*
X01021Y-00299*
X0102Y-00299*
X0102Y-00299*
X01019*
X01018Y-00299*
X01017Y-00299*
X01016Y-00299*
X01015Y-00299*
X01015Y-00299*
X01014Y-003*
X01013Y-003*
X01012Y-00301*
X01012Y-00301*
X01011Y-00302*
X01011Y-00302*
X0101Y-00303*
X01009Y-00303*
X01009Y-00304*
X01009Y-00305*
X01008Y-00306*
X01008Y-00306*
X01008Y-00307*
X01007Y-00308*
X01007Y-00309*
X01007Y-0031*
X01007Y-00311*
X01007Y-00311*
X01007Y-00312*
X01007Y-00313*
X01008Y-00314*
X01008Y-00315*
X01008Y-00315*
X01009Y-00316*
X01009Y-00317*
X01009Y-00318*
X0101Y-00318*
X01011Y-00319*
X01011Y-00319*
X01012Y-0032*
X01012Y-0032*
X01013Y-00321*
X01014Y-00321*
X01015Y-00322*
X01015Y-00322*
X01016Y-00322*
X01017Y-00322*
X01018Y-00322*
X01019Y-00323*
X0102*
X0102Y-00322*
X01021Y-00322*
X01022Y-00322*
X01023Y-00322*
X01024Y-00322*
X01024Y-00321*
X01025Y-00321*
X01026Y-0032*
X01027Y-0032*
X01027Y-00319*
X01028Y-00319*
X01028Y-00318*
X01029Y-00318*
X01029Y-00317*
X0103Y-00316*
X0103Y-00315*
X0103Y-00315*
X01031Y-00314*
X01031Y-00313*
X01031Y-00312*
X01031Y-00311*
X01031Y-00311*
X0113Y-00303D02*
D01*
X0113Y-00302*
X01129Y-00301*
X01129Y-003*
X01129Y-00299*
X01129Y-00299*
X01129Y-00298*
X01128Y-00297*
X01128Y-00296*
X01127Y-00296*
X01127Y-00295*
X01126Y-00294*
X01126Y-00294*
X01125Y-00293*
X01124Y-00293*
X01124Y-00292*
X01123Y-00292*
X01122Y-00292*
X01121Y-00291*
X01121Y-00291*
X0112Y-00291*
X01119Y-00291*
X01118Y-00291*
X01117*
X01116Y-00291*
X01116Y-00291*
X01115Y-00291*
X01114Y-00291*
X01113Y-00292*
X01112Y-00292*
X01112Y-00292*
X01111Y-00293*
X0111Y-00293*
X0111Y-00294*
X01109Y-00294*
X01108Y-00295*
X01108Y-00296*
X01107Y-00296*
X01107Y-00297*
X01107Y-00298*
X01106Y-00299*
X01106Y-00299*
X01106Y-003*
X01106Y-00301*
X01106Y-00302*
X01106Y-00303*
X01106Y-00303*
X01106Y-00304*
X01106Y-00305*
X01106Y-00306*
X01106Y-00307*
X01107Y-00308*
X01107Y-00308*
X01107Y-00309*
X01108Y-0031*
X01108Y-0031*
X01109Y-00311*
X0111Y-00312*
X0111Y-00312*
X01111Y-00313*
X01112Y-00313*
X01112Y-00313*
X01113Y-00314*
X01114Y-00314*
X01115Y-00314*
X01116Y-00314*
X01116Y-00315*
X01117Y-00315*
X01118*
X01119Y-00315*
X0112Y-00314*
X01121Y-00314*
X01121Y-00314*
X01122Y-00314*
X01123Y-00313*
X01124Y-00313*
X01124Y-00313*
X01125Y-00312*
X01126Y-00312*
X01126Y-00311*
X01127Y-0031*
X01127Y-0031*
X01128Y-00309*
X01128Y-00308*
X01129Y-00308*
X01129Y-00307*
X01129Y-00306*
X01129Y-00305*
X01129Y-00304*
X0113Y-00303*
X0113Y-00303*
X-01321Y-00711D02*
D01*
X-01321Y-0071*
X-01321Y-00709*
X-01322Y-00708*
X-01322Y-00707*
X-01322Y-00706*
X-01322Y-00706*
X-01323Y-00705*
X-01323Y-00704*
X-01324Y-00703*
X-01324Y-00703*
X-01325Y-00702*
X-01325Y-00702*
X-01326Y-00701*
X-01327Y-00701*
X-01327Y-007*
X-01328Y-007*
X-01329Y-00699*
X-0133Y-00699*
X-0133Y-00699*
X-01331Y-00699*
X-01332Y-00699*
X-01333Y-00699*
X-01334*
X-01335Y-00699*
X-01335Y-00699*
X-01336Y-00699*
X-01337Y-00699*
X-01338Y-00699*
X-01339Y-007*
X-01339Y-007*
X-0134Y-00701*
X-01341Y-00701*
X-01341Y-00702*
X-01342Y-00702*
X-01343Y-00703*
X-01343Y-00703*
X-01344Y-00704*
X-01344Y-00705*
X-01344Y-00706*
X-01345Y-00706*
X-01345Y-00707*
X-01345Y-00708*
X-01345Y-00709*
X-01345Y-0071*
X-01345Y-00711*
X-01345Y-00711*
X-01345Y-00712*
X-01345Y-00713*
X-01345Y-00714*
X-01345Y-00715*
X-01344Y-00715*
X-01344Y-00716*
X-01344Y-00717*
X-01343Y-00718*
X-01343Y-00718*
X-01342Y-00719*
X-01341Y-00719*
X-01341Y-0072*
X-0134Y-0072*
X-01339Y-00721*
X-01339Y-00721*
X-01338Y-00722*
X-01337Y-00722*
X-01336Y-00722*
X-01335Y-00722*
X-01335Y-00722*
X-01334Y-00723*
X-01333*
X-01332Y-00722*
X-01331Y-00722*
X-0133Y-00722*
X-0133Y-00722*
X-01329Y-00722*
X-01328Y-00721*
X-01327Y-00721*
X-01327Y-0072*
X-01326Y-0072*
X-01325Y-00719*
X-01325Y-00719*
X-01324Y-00718*
X-01324Y-00718*
X-01323Y-00717*
X-01323Y-00716*
X-01322Y-00715*
X-01322Y-00715*
X-01322Y-00714*
X-01322Y-00713*
X-01321Y-00712*
X-01321Y-00711*
X-01321Y-00711*
M02*