%FSTAX23Y23*%
%MOIN*%
%SFA1B1*%

%IPPOS*%
%ADD12C,0.007874*%
%LNbrushed_pcb_bottom_courtyard-1*%
%LPD*%
G54D12*
X-01139Y-00748D02*
Y-00531D01*
X-00832*
Y-00748D02*
Y-00531D01*
X-01139Y-00748D02*
X-00832D01*
X02094Y-00085D02*
X02264D01*
X02094Y-00183D02*
Y-00085D01*
Y-00183D02*
X02264D01*
Y-00085*
X02541Y-00231D02*
Y-0017D01*
X02434Y-00231D02*
X02541D01*
X02434D02*
Y-0017D01*
X02541*
X0057Y00441D02*
X00861D01*
X0057Y00161D02*
Y00441D01*
Y00161D02*
X00861D01*
Y00441*
X00777Y00042D02*
X00947D01*
X00777Y-00055D02*
Y00042D01*
Y-00055D02*
X00947D01*
Y00042*
X00777Y00159D02*
X00947D01*
X00777Y0006D02*
Y00159D01*
Y0006D02*
X00947D01*
Y00159*
X0145Y-00309D02*
X0162D01*
Y-0021*
X0145D02*
X0162D01*
X0145Y-00309D02*
Y-0021D01*
Y-00195D02*
X0162D01*
Y-00096*
X0145D02*
X0162D01*
X0145Y-00195D02*
Y-00096D01*
X-00612Y-00827D02*
Y-00681D01*
Y-00827D02*
X-00551D01*
Y-00681*
X-00612D02*
X-00551D01*
X-00612Y-00933D02*
X-00551D01*
Y-01079D02*
Y-00933D01*
X-00612Y-01079D02*
X-00551D01*
X-00612D02*
Y-00933D01*
X02246Y00229D02*
Y00304D01*
X02111Y00229D02*
X02246D01*
X02111D02*
Y00304D01*
X02246*
Y00134D02*
Y0021D01*
X02111Y00134D02*
X02246D01*
X02111D02*
Y0021D01*
X02246*
X02244Y00041D02*
Y00116D01*
X02109Y00041D02*
X02244D01*
X02109D02*
Y00116D01*
X02244*
Y-00051D02*
Y00023D01*
X02109Y-00051D02*
X02244D01*
X02109D02*
Y00023D01*
X02244*
X02665Y00413D02*
Y00583D01*
X02568D02*
X02665D01*
X02568Y00413D02*
Y00583D01*
Y00413D02*
X02665D01*
X-02453Y-00826D02*
Y-00657D01*
Y-00826D02*
X-02356D01*
Y-00657*
X-02453D02*
X-02356D01*
X-02672Y00571D02*
X-02575D01*
Y00402D02*
Y00571D01*
X-02672Y00402D02*
X-02575D01*
X-02672D02*
Y00571D01*
X02414Y-00809D02*
Y-00639D01*
X02317D02*
X02414D01*
X02317Y-00809D02*
Y-00639D01*
Y-00809D02*
X02414D01*
X00788Y-0076D02*
X00894D01*
Y-00699*
X00788D02*
X00894D01*
X00788Y-0076D02*
Y-00699D01*
X00201Y-00756D02*
X00308D01*
Y-00695*
X00201D02*
X00308D01*
X00201Y-00756D02*
Y-00695D01*
X01372Y-00756D02*
X01479D01*
Y-00695*
X01372D02*
X01479D01*
X01372Y-00756D02*
Y-00695D01*
X00187Y-00869D02*
X00249D01*
X00187D02*
Y-00762D01*
X00249*
Y-00869D02*
Y-00762D01*
X00247Y-01085D02*
Y-00979D01*
X00186D02*
X00247D01*
X00186Y-01085D02*
Y-00979D01*
Y-01085D02*
X00247D01*
X00775D02*
X00836D01*
X00775D02*
Y-00979D01*
X00836*
Y-01085D02*
Y-00979D01*
X00775Y-00889D02*
X00836D01*
X00775D02*
Y-00782D01*
X00836*
Y-00889D02*
Y-00782D01*
X01425Y-0088D02*
Y-00773D01*
X01364D02*
X01425D01*
X01364Y-0088D02*
Y-00773D01*
Y-0088D02*
X01425D01*
Y-0108D02*
Y-00973D01*
X01364D02*
X01425D01*
X01364Y-0108D02*
Y-00973D01*
Y-0108D02*
X01425D01*
X01957Y0032D02*
Y00398D01*
X02123*
Y0032D02*
Y00398D01*
X01957Y0032D02*
X02123D01*
X01956Y00437D02*
Y00515D01*
X02122*
Y00437D02*
Y00515D01*
X01956Y00437D02*
X02122D01*
X01615Y00553D02*
X01936D01*
X01615Y00281D02*
Y00553D01*
Y00281D02*
X01936D01*
Y00553*
X-00576Y0045D02*
X-00478D01*
X-00576D02*
Y00619D01*
X-00478*
Y0045D02*
Y00619D01*
X-00831Y00545D02*
X-00766D01*
Y00419D02*
Y00545D01*
X-00831Y00419D02*
X-00766D01*
X-00831D02*
Y00545D01*
X-00835Y00068D02*
Y00348D01*
X-00544*
Y00068D02*
Y00348D01*
X-00835Y00068D02*
X-00544D01*
M02*