%FSTAX23Y23*%
%MOIN*%
%SFA1B1*%

%IPPOS*%
%AMD83*
4,1,8,0.025100,0.007500,-0.025100,0.007500,-0.032600,0.000000,-0.032600,0.000000,-0.025100,-0.007500,0.025100,-0.007500,0.032600,0.000000,0.032600,0.000000,0.025100,0.007500,0.0*
1,1,0.014992,0.025100,0.000000*
1,1,0.014992,-0.025100,0.000000*
1,1,0.014992,-0.025100,0.000000*
1,1,0.014992,0.025100,0.000000*
%
%ADD23R,0.047244X0.047244*%
%ADD28R,0.075197X0.053937*%
%ADD54R,0.055118X0.055118*%
%ADD55C,0.055118*%
%ADD56C,0.047244*%
%ADD64C,0.045275*%
%ADD65R,0.045275X0.045275*%
%ADD71C,0.106299*%
%ADD72C,0.060000*%
%ADD73C,0.188976*%
%ADD74C,0.059055*%
%ADD75R,0.059055X0.059055*%
%ADD76C,0.047559*%
%ADD77C,0.051181*%
%ADD78R,0.051181X0.051181*%
%ADD79C,0.015748*%
%ADD80R,0.059055X0.059055*%
G04~CAMADD=83~8~0.0~0.0~651.7~149.9~75.0~0.0~15~0.0~0.0~0.0~0.0~0~0.0~0.0~0.0~0.0~0~0.0~0.0~0.0~0.0~651.7~149.9*
%ADD83D83*%
%ADD84R,0.065173X0.014992*%
%ADD85R,0.031496X0.059055*%
%ADD86R,0.051181X0.055118*%
%ADD87R,0.039370X0.037401*%
%ADD88R,0.055118X0.074803*%
%ADD89R,0.047500X0.059378*%
%ADD90O,0.066929X0.011811*%
%ADD91R,0.059055X0.055118*%
%ADD92R,0.037594X0.049689*%
%ADD93R,0.062992X0.011811*%
%ADD94R,0.045275X0.045275*%
%ADD95R,0.039626X0.055441*%
%ADD96R,0.014961X0.015748*%
%ADD97R,0.057563X0.053342*%
%ADD98R,0.053150X0.043307*%
%ADD99R,0.053937X0.075197*%
%ADD100R,0.041339X0.062992*%
%ADD101R,0.084645X0.037401*%
%ADD102O,0.017716X0.070866*%
%ADD103R,0.049689X0.037594*%
%ADD104R,0.084645X0.127952*%
%ADD105R,0.059378X0.047500*%
%ADD106R,0.049212X0.039370*%
%LNbrushed_pcb_pads_bot-1*%
%LPD*%
G54D23*
X00664Y-01038D03*
X01253Y-00841D03*
X00664D03*
X01253Y-01038D03*
X01837D03*
X01834Y-00841D03*
X-02156Y00314D03*
Y00155D03*
Y-00002D03*
Y-00162D03*
G54D28*
X-00667Y-00953D03*
Y-01065D03*
X-00776Y-00953D03*
Y-01065D03*
X-00667Y-00693D03*
Y-00805D03*
X-00776Y-00693D03*
Y-00805D03*
X-01927Y-0057D03*
Y-00458D03*
X-02047Y-00571D03*
Y-00459D03*
G54D54*
X-00441Y-00775D03*
X00948Y-00576D03*
X-00439Y-01032D03*
X0036Y-00576D03*
X01529D03*
G54D55*
X-00342Y-00775D03*
X-00244D03*
X-00145D03*
X-00047D03*
X0005D03*
X01047Y-00576D03*
X01145D03*
X01244D03*
X-0034Y-01032D03*
X-00242D03*
X-00143D03*
X-00045D03*
X00052D03*
X00655Y-00576D03*
X00557D03*
X00458D03*
X01824D03*
X01726D03*
X01627D03*
G54D56*
X00349Y-01038D03*
X00428D03*
X00507D03*
X00585D03*
X-02274Y-00162D03*
Y00155D03*
Y00314D03*
Y-00002D03*
X-02215Y00314D03*
Y00155D03*
Y-00002D03*
Y-00162D03*
X00938Y-00841D03*
X01017D03*
X01096D03*
X01175D03*
X00585D03*
X00507D03*
X00428D03*
X00349D03*
X01175Y-01038D03*
X01096D03*
X01017D03*
X00938D03*
X01759D03*
X0168D03*
X01601D03*
X01523D03*
X01755Y-00841D03*
X01677D03*
X01598D03*
X01519D03*
G54D64*
X-00202Y-00564D03*
X-00143D03*
X-00084D03*
G54D65*
X-00025Y-00564D03*
G54D71*
X-00098Y01042D03*
X00098D03*
X-02263Y00589D03*
Y00786D03*
X-01074Y01034D03*
X-00877D03*
X01074Y01033D03*
X00877D03*
X02263Y00787D03*
Y0059D03*
G54D72*
X-01716Y00738D03*
X-01816Y00738D03*
X-01916Y00738D03*
X-02016D03*
X-01071Y00737D03*
X-01171D03*
X-00871D03*
X-00971Y00736D03*
X00771Y00735D03*
X00671Y00734D03*
X00571Y00735D03*
X00471D03*
X01618D03*
X01518Y00734D03*
X01418Y00735D03*
X01318D03*
X-01316Y-00361D03*
X-01416D03*
X-01516D03*
X-01616D03*
X-01716D03*
X-01816D03*
X-01916D03*
X-02016D03*
X-01616Y00738D03*
X-01416D03*
X-01316D03*
X-01516D03*
X-00471Y-00362D03*
X-00571D03*
X-00671D03*
X-00771D03*
X-00871D03*
X-00971D03*
X-01071D03*
X-01171D03*
X-00771Y00737D03*
X-00571D03*
X-00471D03*
X-00671D03*
X01171Y-00364D03*
X01071D03*
X00971D03*
X00871D03*
X00771D03*
X00671D03*
X00571D03*
X00471D03*
X00871Y00735D03*
X01071D03*
X01171D03*
X00971D03*
X02018Y-00364D03*
X01918D03*
X01818D03*
X01718D03*
X01618D03*
X01518D03*
X01418D03*
X01318D03*
X01718Y00735D03*
X01918D03*
X02018D03*
X01818D03*
G54D73*
X0Y-0037D03*
X01873Y01062D03*
X-02579Y-00824D03*
X02579D03*
Y0083D03*
X-01873Y01062D03*
X-02579Y0083D03*
G54D74*
X02198Y-00499D03*
X02298D03*
X02398D03*
X02231Y-00369D03*
X02388D03*
X0231D03*
X-00492Y01084D03*
G54D75*
X02498Y-00499D03*
X02467Y-00369D03*
G54D76*
X-02452Y-00318D03*
X-02393D03*
X-02334D03*
X-02275D03*
X-02216D03*
X-02157D03*
G54D77*
X02446Y00573D03*
Y00494D03*
X-02234Y-00738D03*
Y-00659D03*
X-02452Y00414D03*
Y00493D03*
X02195Y-00659D03*
Y-00738D03*
G54D78*
X02446Y00415D03*
X-02234Y-00816D03*
X-02452Y00572D03*
X02195Y-00816D03*
G54D79*
X-00031Y00241D03*
X-00086D03*
X-00031Y00296D03*
X-00086D03*
X-00031Y00351D03*
X-00086D03*
X-00003Y00269D03*
X-00059D03*
X-00114D03*
X-00003Y00324D03*
X-00114D03*
X-00059D03*
G54D80*
X-00492Y00984D03*
G54D83*
X-00874Y-00716D03*
Y-00691D03*
Y-00665D03*
Y-0064D03*
Y-00614D03*
Y-00588D03*
Y-00563D03*
X-01097D03*
Y-00588D03*
Y-00614D03*
Y-0064D03*
Y-00665D03*
Y-00691D03*
G54D84*
X-01097Y-00716D03*
G54D85*
X-0122Y-00906D03*
X-01263D03*
X-01306Y-00914D03*
X-0135Y-00906D03*
X-01393Y-00914D03*
X-01436Y-00906D03*
X-01479Y-0089D03*
X-01523Y-00906D03*
G54D86*
X-01251Y-00478D03*
X-01476D03*
G54D87*
X-01306Y-00469D03*
G54D88*
X-01188Y-00996D03*
X-01706Y-01035D03*
G54D89*
X0222Y-00134D03*
X02137D03*
X00903Y-00006D03*
X0082D03*
X00903Y0011D03*
X0082D03*
X01494Y-00259D03*
X01576D03*
X01494Y-00145D03*
X01576D03*
G54D90*
X00395Y-00181D03*
Y-00161D03*
X00234Y-00181D03*
Y-00161D03*
Y-00141D03*
Y-00122D03*
Y-00102D03*
X00395Y-00141D03*
Y-00122D03*
Y-00102D03*
G54D91*
X-01663Y-00791D03*
Y-00716D03*
X-00633Y00509D03*
Y00435D03*
X-00887Y00509D03*
Y00435D03*
G54D92*
X02457Y-002D03*
X02518D03*
X0081Y-00729D03*
X00871D03*
X00224Y-00725D03*
X00285D03*
X01395D03*
X01456D03*
G54D93*
X00825Y00211D03*
Y00237D03*
Y00262D03*
Y00288D03*
Y00314D03*
Y00339D03*
Y00365D03*
Y00416D03*
X00605Y00186D03*
Y00211D03*
Y00237D03*
Y00262D03*
Y00288D03*
Y00314D03*
Y00339D03*
Y00365D03*
Y0039D03*
Y00416D03*
X00825Y0039D03*
Y00186D03*
X-008Y00119D03*
Y00323D03*
X-00579Y00093D03*
Y00119D03*
Y00144D03*
Y0017D03*
Y00195D03*
Y00221D03*
Y00247D03*
Y00272D03*
Y00298D03*
Y00323D03*
X-008Y00093D03*
Y00144D03*
Y0017D03*
Y00195D03*
Y00221D03*
Y00247D03*
Y00272D03*
Y00298D03*
G54D94*
X-00581Y-00708D03*
Y-008D03*
Y-01052D03*
Y-0096D03*
G54D95*
X02141Y00266D03*
X02216D03*
X02141Y00172D03*
X02216D03*
X02139Y00079D03*
X02214D03*
X02139Y-00013D03*
X02214D03*
G54D96*
X01476Y-00024D03*
X01454D03*
X01581D03*
X01559D03*
Y00018D03*
X01581D03*
X01679Y-00024D03*
X01657D03*
Y00018D03*
X01679D03*
X01454Y00019D03*
X01476D03*
G54D97*
X02617Y00459D03*
Y00536D03*
X-02404Y-00703D03*
Y-0078D03*
X-02623Y00448D03*
Y00525D03*
X02366Y-00762D03*
Y-00686D03*
G54D98*
X-00724Y0046D03*
Y00515D03*
G54D99*
X-01038Y-00813D03*
X-00926D03*
X-01038Y-00911D03*
X-00926D03*
Y-01014D03*
X-01038D03*
X-00977Y-00472D03*
X-00865D03*
X01341Y-00635D03*
X00173Y-00636D03*
X0076Y-00635D03*
Y-00528D03*
X00872D03*
X00172D03*
X00284D03*
X01341D03*
X01453D03*
X00872Y-00635D03*
X00285Y-00636D03*
X01453Y-00635D03*
G54D100*
X01982Y00359D03*
X02098D03*
X02097Y00476D03*
X01981D03*
G54D101*
X01889Y00326D03*
Y00507D03*
Y00417D03*
G54D102*
X01252Y00257D03*
X01303Y-0001D03*
X01047Y00257D03*
X01073D03*
X01098D03*
X01124D03*
X01149D03*
X01175D03*
X012D03*
X01226D03*
X01277D03*
X01303D03*
X01328D03*
X01354D03*
X0138D03*
X01047Y-0001D03*
X01073D03*
X01098D03*
X01124D03*
X01149D03*
X01175D03*
X012D03*
X01226D03*
X01252D03*
X01277D03*
X01328D03*
X01354D03*
X0138D03*
G54D103*
X00218Y-00785D03*
Y-00846D03*
X00216Y-01063D03*
Y-01002D03*
X00805D03*
Y-01063D03*
Y-00805D03*
Y-00866D03*
X01395Y-00857D03*
Y-00796D03*
Y-01057D03*
Y-00996D03*
G54D104*
X01661Y00417D03*
G54D105*
X-00527Y00576D03*
Y00493D03*
G54D106*
X-00799Y00442D03*
Y00521D03*
M02*