%FSTAX23Y23*%
%MOIN*%
%SFA1B1*%

%IPPOS*%
%ADD14C,0.010000*%
%ADD20R,0.043307X0.051181*%
%ADD21R,0.055441X0.039626*%
%ADD22R,0.051181X0.043307*%
%ADD23R,0.047244X0.047244*%
%ADD24R,0.062992X0.086614*%
%ADD25R,0.062992X0.085827*%
%ADD26R,0.047244X0.047244*%
%ADD27R,0.061024X0.053150*%
%ADD28R,0.075197X0.053937*%
%ADD29R,0.023622X0.031496*%
%ADD30C,0.078740*%
%ADD31R,0.035433X0.035433*%
%ADD32R,0.035433X0.088582*%
%ADD33R,0.088582X0.035433*%
%ADD34R,0.055118X0.059055*%
%ADD35R,0.057087X0.041339*%
%ADD54R,0.055118X0.055118*%
%ADD55C,0.055118*%
%ADD56C,0.047244*%
%ADD64C,0.045275*%
%ADD65R,0.045275X0.045275*%
%ADD69C,0.030000*%
%ADD70C,0.118110*%
%ADD71C,0.106299*%
%ADD72C,0.060000*%
%ADD73C,0.188976*%
%ADD74C,0.059055*%
%ADD75R,0.059055X0.059055*%
%ADD76C,0.047559*%
%ADD77C,0.051181*%
%ADD78R,0.051181X0.051181*%
%ADD79C,0.015748*%
%ADD80R,0.059055X0.059055*%
%ADD81C,0.029527*%
%ADD82C,0.027559*%
%LNbrushed_pcb_copper_signal_top-1*%
%LPD*%
G36*
X01976Y0093D02*
X02673D01*
Y-00937*
X01976*
Y-01145*
X-01976*
Y-00932*
X-02673*
Y0093*
X-01976*
Y01162*
X01976*
Y0093*
G37*
%LNbrushed_pcb_copper_signal_top-2*%
%LPC*%
G36*
X-00265Y01084D02*
X-00332D01*
Y01076*
X-00364*
X-00373Y01074*
X-00382Y01069*
X-00383Y01068*
X-00424*
Y01009*
X-00452*
Y01023*
X-00531*
Y00944*
X-00452*
Y00958*
X-00424*
Y00933*
X-00347*
Y00995*
X-00388*
X-00394Y01001*
X-00394Y01006*
X-00394Y01006*
X-00347*
Y01025*
X-00332*
Y01017*
X-00265*
Y01084*
G37*
G36*
X-00871Y01097D02*
X-00884D01*
X-00896Y01095*
X-00907Y0109*
X-00918Y01083*
X-00926Y01074*
X-00933Y01064*
X-00938Y01053*
X-00941Y0104*
Y01028*
X-00938Y01016*
X-00933Y01004*
X-00926Y00994*
X-00918Y00985*
X-00907Y00978*
X-00896Y00973*
X-00884Y00971*
X-00871*
X-00859Y00973*
X-00847Y00978*
X-00837Y00985*
X-00828Y00994*
X-00821Y01004*
X-00817Y01016*
X-00814Y01028*
Y0104*
X-00817Y01053*
X-00821Y01064*
X-00828Y01074*
X-00837Y01083*
X-00847Y0109*
X-00859Y01095*
X-00871Y01097*
G37*
G36*
X-01068D02*
X-0108D01*
X-01093Y01095*
X-01104Y0109*
X-01114Y01083*
X-01123Y01074*
X-0113Y01064*
X-01135Y01053*
X-01137Y0104*
Y01028*
X-01135Y01016*
X-0113Y01004*
X-01123Y00994*
X-01114Y00985*
X-01104Y00978*
X-01093Y00973*
X-0108Y00971*
X-01068*
X-01056Y00973*
X-01044Y00978*
X-01034Y00985*
X-01025Y00994*
X-01018Y01004*
X-01014Y01016*
X-01011Y01028*
Y0104*
X-01014Y01053*
X-01018Y01064*
X-01025Y01074*
X-01034Y01083*
X-01044Y0109*
X-01056Y01095*
X-01068Y01097*
G37*
G36*
X01081Y01096D02*
X01068D01*
X01056Y01093*
X01044Y01088*
X01034Y01082*
X01025Y01073*
X01018Y01062*
X01014Y01051*
X01011Y01039*
Y01026*
X01014Y01014*
X01018Y01003*
X01025Y00992*
X01034Y00983*
X01044Y00977*
X01056Y00972*
X01068Y00969*
X01081*
X01093Y00972*
X01104Y00977*
X01115Y00983*
X01123Y00992*
X0113Y01003*
X01135Y01014*
X01137Y01026*
Y01039*
X01135Y01051*
X0113Y01062*
X01123Y01073*
X01115Y01082*
X01104Y01088*
X01093Y01093*
X01081Y01096*
G37*
G36*
X00884D02*
X00871D01*
X00859Y01093*
X00848Y01088*
X00837Y01082*
X00828Y01073*
X00822Y01062*
X00817Y01051*
X00814Y01039*
Y01026*
X00817Y01014*
X00822Y01003*
X00828Y00992*
X00837Y00983*
X00848Y00977*
X00859Y00972*
X00871Y00969*
X00884*
X00896Y00972*
X00907Y00977*
X00918Y00983*
X00927Y00992*
X00933Y01003*
X00938Y01014*
X00941Y01026*
Y01039*
X00938Y01051*
X00933Y01062*
X00927Y01073*
X00918Y01082*
X00907Y01088*
X00896Y01093*
X00884Y01096*
G37*
G36*
X00098Y01111D02*
X00084Y0111D01*
X00071Y01106*
X00059Y011*
X00049Y01091*
X0004Y01081*
X00034Y01069*
X0003Y01056*
X00029Y01042*
Y00913*
X-0069*
X-01446*
X-01448Y00912*
X-0145Y00912*
X-01455Y00912*
X-01459Y00911*
X-0146Y00911*
X-0146Y00911*
X-01462Y00911*
X-01463Y0091*
X-01468Y00909*
X-01472Y00908*
X-01473Y00907*
X-01473Y00907*
X-01475Y00906*
X-01476Y00906*
X-0148Y00903*
X-01484Y00901*
X-01581Y00838*
X-0164Y008*
X-0164Y008*
X-0164Y00799*
X-01645Y00795*
X-0165Y00791*
X-01651Y00791*
X-01651Y00791*
X-01655Y00786*
X-01659Y00781*
X-01659Y00781*
X-0166Y0078*
X-01663Y00775*
X-01666Y00769*
X-01666Y00769*
X-01666Y00768*
X-01668Y00762*
X-0167Y00756*
X-0167Y00756*
X-0167Y00755*
X-01671Y00749*
X-01671Y00745*
X-01671Y00744*
X-01676Y00744*
X-01676Y00745*
X-01679Y00754*
X-01684Y00763*
X-01692Y0077*
X-01701Y00776*
X-01711Y00778*
X-01721*
X-01732Y00776*
X-01741Y0077*
X-01748Y00763*
X-01753Y00754*
X-01756Y00744*
Y00733*
X-01753Y00723*
X-01748Y00714*
X-01741Y00706*
X-01732Y00701*
X-01721Y00698*
X-01711*
X-01701Y00701*
X-01692Y00706*
X-01684Y00714*
X-01679Y00723*
X-01676Y00733*
Y00739*
Y0074*
X-01671Y0074*
X-01671Y00739*
X-01671Y00735*
X-0167Y00729*
X-0167Y00729*
X-0167Y00728*
X-01668Y00722*
X-01666Y00716*
X-01666Y00716*
X-01666Y00715*
X-01663Y0071*
X-0166Y00704*
X-0166Y00704*
X-0166Y00703*
X-01655Y00698*
X-01651Y00693*
X-01651Y00693*
X-01651Y00693*
X-01646Y00689*
X-01641Y00684*
X-01641Y00684*
X-0164Y00684*
X-01635Y00681*
X-01629Y00678*
X-01629Y00678*
X-01628Y00678*
X-01622Y00676*
X-01616Y00674*
X-01616Y00674*
X-01615Y00674*
X-01609Y00673*
X-01603Y00672*
X-01602Y00672*
X-01602Y00672*
X-01535*
X-01534Y00672*
X-01533Y00672*
X-01527Y00673*
X-01521Y00674*
X-01521Y00674*
X-0152Y00674*
X-01514Y00676*
X-01508Y00678*
X-01508Y00678*
X-01507Y00678*
X-01502Y00681*
X-01496Y00684*
X-01496Y00685*
X-01495Y00685*
X-01491Y00689*
X-01486Y00693*
X-01485Y00693*
X-01485Y00694*
X-01481Y00699*
X-01477Y00703*
X-01477Y00704*
X-01476Y00704*
X-01444Y00756*
X-01441Y00761*
X-01436Y00764*
X-01423Y00774*
X-01196*
X-01195Y0077*
X-01195Y00769*
X-01203Y00761*
X-01208Y00752*
X-01211Y00742*
Y00732*
X-01208Y00721*
X-01203Y00712*
X-01195Y00705*
X-01186Y007*
X-01176Y00697*
X-01165*
X-01155Y007*
X-01146Y00705*
X-01139Y00712*
X-01133Y00721*
X-01131Y00732*
Y00742*
X-01133Y00752*
X-01139Y00761*
X-01146Y00769*
X-01146Y0077*
X-01145Y00774*
X-01096*
X-01095Y0077*
X-01095Y00769*
X-01103Y00761*
X-01108Y00752*
X-01111Y00742*
Y00732*
X-01108Y00721*
X-01103Y00712*
X-01095Y00705*
X-01086Y007*
X-01076Y00697*
X-01065*
X-01055Y007*
X-01046Y00705*
X-01039Y00712*
X-01033Y00721*
X-01031Y00732*
Y00742*
X-01033Y00752*
X-01039Y00761*
X-01046Y00769*
X-01046Y0077*
X-01045Y00774*
X-00995*
X-00994Y00769*
X-00995Y00768*
X-01003Y00761*
X-01008Y00752*
X-01011Y00741*
Y00731*
X-01008Y00721*
X-01003Y00712*
X-00995Y00704*
X-00986Y00699*
X-00976Y00696*
X-00965*
X-00955Y00699*
X-00946Y00704*
X-00939Y00712*
X-00933Y00721*
X-00931Y00731*
Y00741*
X-00933Y00752*
X-00939Y00761*
X-00946Y00768*
X-00947Y00769*
X-00946Y00774*
X-00896*
X-00895Y0077*
X-00895Y00769*
X-00903Y00761*
X-00908Y00752*
X-00911Y00742*
Y00732*
X-00908Y00721*
X-00903Y00712*
X-00895Y00705*
X-00886Y007*
X-00876Y00697*
X-00865*
X-00855Y007*
X-00846Y00705*
X-00839Y00712*
X-00833Y00721*
X-00831Y00732*
Y00737*
Y00739*
X-00826Y00739*
X-00826Y00737*
X-00824Y00727*
X-00821Y00714*
X-00814Y00702*
X-00806Y00691*
X-00795Y00683*
X-00783Y00676*
X-0077Y00672*
X-00756Y00671*
X-0069*
X-00689Y00671*
X-00687Y00671*
X-00682Y00672*
X-00676Y00672*
X-00675Y00672*
X-00674Y00673*
X-00669Y00674*
X-00663Y00676*
X-00662Y00677*
X-00661Y00677*
X-00656Y0068*
X-00651Y00683*
X-0065Y00683*
X-00649Y00684*
X-00645Y00688*
X-0064Y00691*
X-0064Y00692*
X-00639Y00693*
X-00635Y00697*
X-00632Y00702*
X-00631Y00703*
X-00631Y00703*
X-00628Y00709*
X-00625Y00714*
X-00625Y00715*
X-00625Y00716*
X-00623Y00721*
X-00621Y00727*
X-00621Y00728*
X-00621Y00729*
X-00621Y00734*
X-0062Y0074*
X-0062Y00741*
X-0062Y00742*
X-00621Y0077*
X-00617Y00774*
X00098*
X00446Y00773*
X00448Y00768*
X00446Y00767*
X00439Y0076*
X00434Y00751*
X00431Y00741*
Y0073*
X00434Y0072*
X00439Y00711*
X00446Y00703*
X00455Y00698*
X00466Y00695*
X00476*
X00486Y00698*
X00495Y00703*
X00503Y00711*
X00508Y0072*
X00511Y0073*
Y00741*
X00508Y00751*
X00503Y0076*
X00495Y00767*
X00494Y00768*
X00495Y00773*
X00546Y00773*
X00547Y00768*
X00546Y00767*
X00539Y0076*
X00534Y00751*
X00531Y00741*
Y0073*
X00534Y0072*
X00539Y00711*
X00546Y00703*
X00555Y00698*
X00566Y00695*
X00576*
X00586Y00698*
X00595Y00703*
X00603Y00711*
X00608Y0072*
X00611Y0073*
Y00741*
X00608Y00751*
X00603Y0076*
X00595Y00767*
X00594Y00768*
X00596Y00773*
X00647Y00773*
X00648Y00768*
X00646Y00766*
X00639Y00759*
X00634Y0075*
X00631Y0074*
Y00729*
X00634Y00719*
X00639Y0071*
X00646Y00702*
X00655Y00697*
X00666Y00694*
X00676*
X00686Y00697*
X00695Y00702*
X00703Y0071*
X00708Y00719*
X00711Y00729*
Y0074*
X00708Y0075*
X00703Y00759*
X00695Y00766*
X00693Y00768*
X00695Y00773*
X00746Y00772*
X00747Y00768*
X00746Y00767*
X00739Y0076*
X00734Y00751*
X00731Y00741*
Y0073*
X00734Y0072*
X00739Y00711*
X00746Y00703*
X00755Y00698*
X00766Y00695*
X00776*
X00786Y00698*
X00795Y00703*
X00803Y00711*
X00808Y0072*
X00811Y0073*
Y00736*
Y00737*
X00816Y00737*
X00816Y00736*
X00817Y00725*
X00821Y00712*
X00827Y007*
X00836Y0069*
X00846Y00681*
X00858Y00675*
X00872Y00671*
X00885Y00669*
X00952*
X00953Y00669*
X00954Y00669*
X0096Y0067*
X00966Y00671*
X00966Y00671*
X00967Y00671*
X00973Y00673*
X00979Y00675*
X00979Y00675*
X0098Y00675*
X00985Y00678*
X00991Y00681*
X00991Y00682*
X00992Y00682*
X00997Y00686*
X01001Y0069*
X01002Y0069*
X01002Y00691*
X01006Y00696*
X0101Y007*
X0101Y00701*
X01011Y00702*
X01013Y00707*
X01016Y00712*
X01016Y00713*
X01017Y00714*
X01018Y0072*
X0102Y00725*
X0102Y00726*
X0102Y00727*
X01021Y00733*
X01021Y00739*
X01021Y0074*
X01021Y00741*
X01021Y00768*
X01024Y00772*
X01292Y00771*
X01293Y00766*
X01286Y0076*
X01281Y00751*
X01278Y00741*
Y0073*
X01281Y0072*
X01286Y00711*
X01294Y00703*
X01303Y00698*
X01313Y00695*
X01324*
X01334Y00698*
X01343Y00703*
X0135Y00711*
X01356Y0072*
X01358Y0073*
Y00741*
X01356Y00751*
X0135Y0076*
X01344Y00766*
X01345Y00771*
X01391Y00771*
X01393Y00766*
X01386Y0076*
X01381Y00751*
X01378Y00741*
Y0073*
X01381Y0072*
X01386Y00711*
X01394Y00703*
X01403Y00698*
X01413Y00695*
X01424*
X01434Y00698*
X01443Y00703*
X0145Y00711*
X01456Y0072*
X01458Y0073*
Y00741*
X01456Y00751*
X0145Y0076*
X01444Y00766*
X01446Y00771*
X01493Y00771*
X01493Y00771*
X01493Y00766*
X01486Y00759*
X01481Y0075*
X01478Y0074*
Y00729*
X01481Y00719*
X01486Y0071*
X01494Y00702*
X01503Y00697*
X01513Y00694*
X01524*
X01534Y00697*
X01543Y00702*
X0155Y0071*
X01556Y00719*
X01558Y00729*
Y0074*
X01556Y0075*
X0155Y00759*
X01544Y00766*
X01544Y00771*
X0159Y00771*
X01592Y00766*
X01586Y0076*
X01581Y00751*
X01578Y00741*
Y0073*
X01581Y0072*
X01586Y00711*
X01594Y00703*
X01603Y00698*
X01613Y00695*
X01624*
X01634Y00698*
X01643Y00703*
X0165Y00711*
X01656Y0072*
X01657Y00726*
X01663Y00727*
X01666Y00722*
X01669Y00712*
X01675Y007*
X01684Y0069*
X01694Y00681*
X01706Y00675*
X01719Y00671*
X01733Y00669*
X01757*
Y0052*
X01758Y00515*
Y00515*
X01759Y00514*
X01759Y0051*
X01761Y00507*
X01761Y00504*
X0176Y00503*
X01758Y00502*
X01736*
X01611Y00628*
X01602Y00633*
X01592Y00635*
X0049*
X00451Y00674*
X00443Y0068*
X00433Y00682*
X-005*
X-0051Y0068*
X-00518Y00674*
X-00674Y00519*
X-02428*
X-02431Y00522*
X-02439Y00526*
X-02448Y00529*
X-02457*
X-02466Y00526*
X-02474Y00522*
X-02481Y00515*
X-02481Y00515*
X-0252*
X-0253Y00513*
X-02538Y00507*
X-02555Y0049*
X-02561Y00481*
X-02563Y00472*
Y00338*
Y-00548*
X-02561Y-00558*
X-02555Y-00566*
X-02518Y-00604*
X-02509Y-0061*
X-025Y-00612*
X-0239*
X-0234Y-00662*
Y-00711*
X-02338Y-00721*
X-02332Y-00729*
X-0231Y-00752*
X-02302Y-00757*
X-02292Y-00759*
X-02262*
X-02262Y-0076*
X-02256Y-00766*
X-02247Y-00771*
X-02238Y-00773*
X-02229*
X-0222Y-00771*
X-02212Y-00766*
X-02209Y-00763*
X-02065*
X-01913Y-00915*
X-01905Y-00921*
X-019Y-00922*
Y-00948*
X-01825*
Y-00919*
X-0182Y-00918*
X-01812Y-00912*
X-01805Y-00905*
X-01443*
X-01411Y-00937*
Y-01008*
X-01395*
Y-01027*
X-01393Y-01037*
X-01388Y-01045*
X-01379Y-01053*
X-01376Y-01056*
X-01376Y-01056*
X-01376Y-01057*
X-01377Y-01061*
X-01727*
X-01743Y-01044*
X-01747Y-01042*
X-01747Y-01042*
X-01748Y-01041*
X-01752Y-01039*
X-01756Y-01038*
X-01756Y-01038*
X-01757*
X-01761Y-01037*
X-01765Y-01038*
X-01766*
X-01767Y-01038*
X-01771Y-01039*
X-01774Y-01041*
X-01775Y-01042*
X-01776Y-01042*
X-01779Y-01044*
X-01782Y-01048*
X-01782Y-01049*
X-01783Y-01049*
X-01785Y-01053*
X-01786Y-01057*
X-01786Y-01058*
Y-01058*
X-01787Y-01062*
X-01786Y-01067*
Y-01067*
X-01786Y-01068*
X-01785Y-01072*
X-01783Y-01076*
X-01782Y-01076*
X-01782Y-01077*
X-01779Y-01081*
X-01756Y-01104*
X-01747Y-0111*
X-01738Y-01112*
X-00633*
X-00628Y-01116*
X-0062Y-01121*
X-0061Y-01123*
X0009*
X001Y-01121*
X00108Y-01116*
X00123Y-01101*
X00128Y-01103*
X00128Y-01105*
Y-01106*
X00128Y-01107*
X00129Y-01111*
X00132Y-01114*
X00132Y-01115*
X00133Y-01116*
X00135Y-01119*
X00138Y-01122*
X00139Y-01122*
X0014Y-01123*
X00143Y-01125*
X00147Y-01126*
X00148Y-01126*
X00149*
X00153Y-01127*
X00157Y-01126*
X00158*
X00159Y-01126*
X00163Y-01125*
X00166Y-01123*
X00167Y-01122*
X00167Y-01122*
X00171Y-01119*
X00184Y-01106*
X00209*
X00212Y-01105*
X00252*
Y-01042*
X0018*
Y-01055*
X00174*
X0017Y-01055*
X00166Y-01051*
X00167Y-01047*
Y-00993*
Y-00967*
X00191Y-00942*
X00249*
X00271Y-00965*
Y-01059*
X00273Y-01068*
X00279Y-01077*
X0031Y-01108*
X00318Y-01113*
X00328Y-01115*
X00613*
X00622Y-01113*
X00631Y-01108*
X00667Y-01072*
X00698*
Y-01005*
X0069*
Y-0098*
X00712Y-00958*
X00839*
X00856Y-00975*
Y-01059*
X00858Y-01069*
X00863Y-01077*
X00894Y-01108*
X00902Y-01113*
X00912Y-01115*
X01202*
X01212Y-01113*
X0122Y-01108*
X01256Y-01072*
X01287*
Y-01059*
X0129Y-01057*
X01294Y-0106*
X01294Y-01061*
X01295Y-01065*
Y-01066*
X01295Y-01066*
X01296Y-0107*
X01298Y-01074*
X01299Y-01075*
X01299Y-01075*
X01301Y-01079*
X01302Y-01079*
X01305Y-01081*
X01306Y-01082*
X01306Y-01082*
X0131Y-01085*
X0132Y-01087*
X01354*
Y-01099*
X01426*
Y-01036*
X01388*
X01386Y-01036*
X01328*
X01326Y-01031*
X01327Y-0103*
X01332Y-01022*
X01334Y-01012*
Y-00977*
X0135Y-00961*
X01431*
X01445Y-00975*
Y-0106*
X01447Y-01069*
X01453Y-01078*
X01483Y-01108*
X01491Y-01113*
X01501Y-01115*
X01786*
X01796Y-01113*
X01804Y-01108*
X0184Y-01072*
X01871*
Y-01005*
X01804*
Y-01036*
X01775Y-01064*
X01708*
X01706Y-0106*
X01707Y-01059*
X01711Y-01051*
X01714Y-01043*
Y-01034*
X01711Y-01025*
X01707Y-01017*
X01701Y-01011*
X01693Y-01007*
X01684Y-01005*
X01676*
X01667Y-01007*
X01659Y-01011*
X01653Y-01017*
X01649Y-01025*
X01646Y-01034*
Y-01043*
X01649Y-01051*
X01653Y-01059*
X01654Y-0106*
X01652Y-01064*
X01629*
X01627Y-0106*
X01628Y-01059*
X01633Y-01051*
X01635Y-01043*
Y-01034*
X01633Y-01025*
X01628Y-01017*
X01622Y-01011*
X01614Y-01007*
X01606Y-01005*
X01597*
X01588Y-01007*
X01581Y-01011*
X01574Y-01017*
X0157Y-01025*
X01568Y-01034*
Y-01043*
X0157Y-01051*
X01574Y-01059*
X01575Y-0106*
X01573Y-01064*
X0155*
X01549Y-0106*
X01549Y-01059*
X01554Y-01051*
X01556Y-01043*
Y-01034*
X01554Y-01025*
X01549Y-01017*
X01543Y-01011*
X01538Y-01008*
Y-00903*
X01537Y-00898*
X01533Y-00893*
X0152Y-0088*
X01522Y-00875*
X01524*
X01532Y-00873*
X0154Y-00868*
X01546Y-00862*
X01551Y-00854*
X01553Y-00846*
Y-00837*
X01551Y-00828*
X0155Y-00828*
X01571Y-00807*
X01575Y-00802*
X01576Y-00797*
Y-00691*
X01577Y-00689*
X0158Y-00686*
X01792*
X01859Y-00754*
X01868Y-00759*
X01877Y-00761*
X02168*
X02173Y-00766*
X02181Y-00771*
X0219Y-00773*
X02199*
X02208Y-00771*
X02216Y-00766*
X02223Y-0076*
X02228Y-00751*
X0223Y-00742*
Y-00733*
X02228Y-00724*
X02223Y-00716*
X02216Y-00709*
X02208Y-00705*
X02199Y-00702*
X0219*
X02181Y-00705*
X02173Y-00709*
X02172Y-0071*
X01888*
X01821Y-00643*
X01818Y-00641*
X0182Y-00636*
X01903*
X01909Y-00635*
X01914Y-00632*
X01977Y-00569*
X01981Y-00564*
X01982Y-00558*
Y-0039*
X01985Y-00389*
X01987Y-00389*
X01994Y-00396*
X02003Y-00401*
X02013Y-00404*
X02024*
X02034Y-00401*
X02043Y-00396*
X0205Y-00388*
X02056Y-00379*
X02058Y-00369*
Y-00358*
X02056Y-00348*
X0205Y-00339*
X02043Y-00332*
X02034Y-00326*
X02024Y-00324*
X02013*
X02003Y-00326*
X01994Y-00332*
X01987Y-00339*
X01985Y-00339*
X01982Y-00338*
Y-00103*
X01981Y-00097*
X01977Y-00092*
X01681Y00203*
X01676Y00207*
X0167Y00208*
X01382*
X01377Y00213*
X0137Y00216*
X01344Y00243*
X01339Y00246*
X01333Y00247*
X00786*
X0078Y00253*
X00771Y00256*
X00761*
X00752Y00253*
X00745Y00246*
X00745Y00244*
X00742Y00243*
X00647Y00148*
X00644Y0015*
X00635Y00154*
X00625*
X00616Y0015*
X00612Y00146*
X00606Y00147*
X00606Y00151*
X006Y00159*
X00541Y00218*
X00533Y00224*
X00523Y00226*
X0048*
X00477Y00231*
X00479Y00233*
X00481Y00241*
Y00249*
X00479Y00256*
X00475Y00263*
X00471Y00267*
X0047Y0027*
X00471Y00274*
X00475Y00278*
X00479Y00285*
X00481Y00292*
Y003*
X00479Y00307*
X00475Y00314*
X0047Y0032*
X00475Y00325*
X00479Y00332*
X00481Y00339*
Y00347*
X00479Y00355*
X00475Y00361*
X00471Y00366*
X0047Y00369*
X00471Y00372*
X00475Y00376*
X00479Y00383*
X00481Y0039*
Y00398*
X00479Y00406*
X00475Y00412*
X00471Y00417*
X0047Y0042*
X00471Y00423*
X00475Y00427*
X00479Y00434*
X00481Y00442*
Y00449*
X00479Y00457*
X00475Y00464*
X0047Y00469*
X00468Y0047*
X0047Y00475*
X00934*
X00937Y0047*
X00935Y00466*
Y00456*
X00939Y00447*
X00946Y0044*
X00955Y00436*
X00965*
X00974Y0044*
X0098Y00445*
X01106*
X01112Y00439*
X01121Y00435*
X0113*
X01139Y00439*
X01146Y00446*
X0115Y00455*
Y00465*
X01148Y0047*
X01152Y00475*
X01224*
X01319Y0038*
X01316Y00376*
X01314Y00378*
X01308Y00379*
X00958*
X00952Y00385*
X00943Y00388*
X00934*
X00924Y00385*
X00918Y00378*
X00914Y00369*
Y00359*
X00918Y0035*
X00924Y00343*
X00934Y00339*
X00943*
X00952Y00343*
X00958Y00348*
X01301*
X01313Y00337*
X01318Y00333*
X01324Y00332*
X0232*
X02375Y00278*
Y-00332*
X02373Y-00332*
X02364Y-00338*
X02357Y-00345*
X02352Y-00354*
X0235Y-00354*
X02347*
X02346Y-00354*
X02341Y-00345*
X02334Y-00338*
X02327Y-00334*
Y00277*
X02326Y00283*
X02322Y00288*
X02292Y00318*
X02287Y00322*
X02281Y00323*
X00925*
X00901Y00347*
Y00394*
X00908Y00397*
X00915Y00404*
X00919Y00413*
Y00423*
X00915Y00432*
X00908Y00439*
X00899Y00442*
X00889*
X0088Y00439*
X00873Y00432*
X0087Y00423*
Y00413*
X0087Y00411*
X0087Y00409*
Y00341*
X00871Y00335*
X00874Y0033*
X00908Y00297*
X00913Y00293*
X00919Y00292*
X01859*
X01862Y00287*
X01861Y00283*
X01861Y00282*
Y00282*
X0186Y00278*
Y00082*
X01861Y00078*
Y00077*
X01861Y00076*
X01862Y00072*
X01864Y00069*
X01864Y00068*
X01865Y00068*
X01867Y00064*
X01871Y00062*
X01871Y00061*
X01872Y00061*
X01876Y00059*
X0188Y00058*
X0188Y00057*
X01881*
X01885Y00057*
X01889Y00057*
X0189*
X01891Y00058*
X01895Y00059*
X01899Y00061*
X01899Y00061*
X019Y00062*
X01903Y00064*
X01906Y00068*
X01906Y00068*
X01907Y00069*
X01909Y00072*
X0191Y00076*
X0191Y00077*
Y00078*
X01911Y00082*
Y00278*
X0191Y00282*
Y00282*
X0191Y00283*
X01909Y00287*
X01912Y00292*
X02186*
Y00233*
X02254*
Y00241*
X02273*
X02277Y00242*
X02278*
X02279Y00242*
X02283Y00243*
X02286Y00245*
X02287Y00246*
X02288Y00246*
X02291Y00248*
X02291Y00249*
X02296Y00247*
Y00191*
X02291Y0019*
X02291Y0019*
X02288Y00192*
X02287Y00193*
X02286Y00193*
X02283Y00195*
X02279Y00196*
X02278Y00197*
X02277*
X02273Y00197*
X02254*
Y00206*
X02186*
Y00138*
X02254*
Y00146*
X02273*
X02277Y00147*
X02278*
X02279Y00148*
X02283Y00148*
X02286Y00151*
X02287Y00151*
X02288Y00152*
X02291Y00154*
X02291Y00154*
X02296Y00153*
Y00101*
X02292Y00098*
X02291Y00098*
X02291Y00098*
X0229Y00099*
X02287Y00101*
X02283Y00102*
X02282Y00102*
X02281*
X02277Y00103*
X02257*
Y00111*
X0219*
Y00044*
X02257*
Y00052*
X02277*
X02281Y00053*
X02282*
X02283Y00053*
X02287Y00054*
X0229Y00056*
X02291Y00057*
X02291Y00057*
X02292Y00057*
X02296Y00054*
Y00011*
X02295Y0001*
X02294Y0001*
X02291Y00009*
X02289Y0001*
X02285Y00011*
X02284Y00012*
X02283*
X02279Y00012*
X02257*
Y00021*
X0219*
Y-00046*
X02257*
Y-00038*
X02279*
X02283Y-00037*
X02284*
X02285Y-00036*
X02289Y-00036*
X02291Y-00034*
X02294Y-00035*
X02295Y-00035*
X02296Y-00037*
Y-00109*
X02295Y-0011*
X02295Y-0011*
X02291Y-00111*
X02289Y-0011*
X02285Y-00109*
X02284Y-00109*
X02283*
X02279Y-00108*
X02276Y-00108*
X02252*
Y-00098*
X02188*
Y-0017*
X02252*
Y-00159*
X02278*
X02288Y-00158*
X02292Y-00155*
X02296Y-00157*
Y-00332*
X02294Y-00332*
X02285Y-00338*
X02278Y-00345*
X02273Y-00354*
X0227Y-00364*
Y-00374*
X02273Y-00384*
X02278Y-00394*
X02285Y-00401*
X02294Y-00406*
X02304Y-00409*
X02315*
X02325Y-00406*
X02334Y-00401*
X02341Y-00394*
X02346Y-00385*
X02347Y-00384*
X0235*
X02352Y-00385*
X02357Y-00394*
X02364Y-00401*
X02373Y-00406*
X02383Y-00409*
X02394*
X02404Y-00406*
X02413Y-00401*
X0242Y-00394*
X02423Y-00389*
X02428Y-0039*
Y-00409*
X02507*
Y-0033*
X02428*
Y-00348*
X02423Y-00349*
X0242Y-00345*
X02413Y-00338*
X02406Y-00334*
Y00204*
X02411Y00206*
X02411Y00206*
X02414Y00204*
X02415Y00203*
X02415Y00203*
X02419Y002*
X02423Y002*
X02424Y00199*
X02425*
X02429Y00198*
X0246*
X02461Y00197*
X0247Y00188*
X02481Y00182*
X02494Y00178*
X02497*
X02499Y00173*
X02498Y00173*
X02497Y00173*
X02497Y00172*
X02493Y0017*
X02481Y00158*
X02476Y0015*
X02474Y0014*
Y00124*
X0247Y00122*
X02461Y00112*
X02454Y00101*
X02451Y00089*
Y00076*
X02454Y00063*
X02461Y00052*
X0247Y00043*
X02481Y00036*
X02494Y00033*
X02507*
X02519Y00036*
X02531Y00043*
X0254Y00052*
X02546Y00063*
X0255Y00076*
Y00089*
X02546Y00101*
X0254Y00112*
X02531Y00122*
X02525Y00125*
Y00129*
X02529Y00134*
X02532Y00137*
X02532Y00138*
X02533Y00139*
X02535Y00142*
X02536Y00146*
X02536Y00147*
Y00148*
X02537Y00152*
X02536Y00156*
Y00157*
X02536Y00158*
X02535Y00162*
X02533Y00165*
X02532Y00166*
X02532Y00166*
X02529Y0017*
X02526Y00172*
X02525Y00173*
X02524Y00173*
X02521Y00175*
X02517Y00176*
X02517Y00181*
X02519Y00182*
X02531Y00188*
X0254Y00197*
X02546Y00209*
X0255Y00221*
Y00234*
X02546Y00247*
X0254Y00258*
X02531Y00267*
X02519Y00274*
X02507Y00277*
X02494*
X02481Y00274*
X0247Y00267*
X02461Y00258*
X02456Y00249*
X02429*
X02425Y00249*
X02424*
X02423Y00248*
X02419Y00247*
X02415Y00245*
X02415Y00245*
X02414Y00244*
X02411Y00242*
X02411Y00242*
X02406Y00243*
Y00284*
X02404Y0029*
X02401Y00295*
X02348Y00347*
X0235Y00352*
X02382*
X0243Y00304*
X02438Y00299*
X02448Y00297*
X02552*
X02572Y00276*
Y-00544*
X02532Y-00584*
X02245*
X02235Y-00586*
X02227Y-00592*
X02196Y-00623*
X0219*
X02181Y-00626*
X02173Y-0063*
X02166Y-00637*
X02161Y-00645*
X02159Y-00654*
Y-00664*
X02161Y-00673*
X02166Y-00681*
X02173Y-00687*
X02181Y-00692*
X0219Y-00695*
X02199*
X02208Y-00692*
X02216Y-00687*
X02223Y-00681*
X02228Y-00673*
X0223Y-00664*
Y-00661*
X02256Y-00635*
X02543*
X02553Y-00633*
X02561Y-00628*
X02616Y-00573*
X02621Y-00564*
X02623Y-00555*
Y00287*
X02621Y00297*
X02616Y00305*
X02581Y0034*
X02572Y00346*
X02562Y00348*
X02459*
X02411Y00395*
X02403Y00401*
X02393Y00403*
X01368*
X01253Y00518*
X01251Y0052*
X01252Y00525*
X01585*
X01691Y00418*
X01699Y00413*
X01709Y00411*
X0231*
X02319Y00413*
X02328Y00418*
X02405Y00496*
X0241Y00494*
Y00489*
X02413Y0048*
X02417Y00472*
X02424Y00465*
X02432Y00461*
X02441Y00458*
X02451*
X0246Y00461*
X02468Y00465*
X02474Y00472*
X02479Y0048*
X02481Y00489*
Y00499*
X02479Y00508*
X02474Y00516*
X02468Y00522*
X0246Y00527*
X02451Y0053*
X02448*
X02446Y00535*
X02448Y00537*
X02451*
X0246Y0054*
X02468Y00544*
X02474Y00551*
X02479Y00559*
X02481Y00568*
Y00577*
X02479Y00586*
X02474Y00595*
X02468Y00601*
X0246Y00606*
X02451Y00608*
X02441*
X02432Y00606*
X02424Y00601*
X02417Y00595*
X02413Y00586*
X0241Y00577*
Y00573*
X02299Y00462*
X02207*
X02204Y00467*
X02204Y00467*
X02205Y00471*
X02205Y00472*
Y00473*
X02206Y00477*
X02205Y00481*
Y00482*
X02205Y00483*
X02204Y00487*
X02202Y0049*
X02202Y00491*
X02201Y00491*
X02199Y00495*
X02195Y00497*
X02195Y00498*
X02194Y00498*
X0219Y005*
X02186Y00501*
X02186Y00502*
X02185*
X02181Y00502*
X02179Y00502*
X01807*
X01806Y00503*
X01805Y00504*
X01805Y00507*
X01807Y0051*
X01807Y00514*
X01808Y00515*
Y00515*
X01808Y0052*
Y0067*
X01811Y0067*
X01818Y00671*
X01818Y00671*
X01818Y00671*
X01825Y00673*
X01831Y00675*
X01831Y00675*
X01831Y00675*
X01837Y00678*
X01843Y00681*
X01843Y00681*
X01843Y00681*
X01848Y00686*
X01853Y0069*
X01854Y0069*
X01854Y0069*
X01858Y00695*
X01862Y007*
X01862Y007*
X01862Y00701*
X01865Y00706*
X01868Y00712*
X01868Y00713*
X01869Y00713*
X0187Y00719*
X01872Y00725*
X01872Y00726*
X01872Y00726*
X01873Y00732*
X01874Y00739*
X01874Y00739*
X01874Y00739*
X01873Y00746*
X01872Y00752*
X01872Y00753*
X01872Y00753*
X0187Y00759*
X01868Y00765*
X01868Y00766*
X01868Y00766*
X01865Y00772*
X01862Y00777*
X01862Y00778*
X01861Y00778*
X01857Y00783*
X01853Y00788*
X01853Y00788*
X01853Y00788*
X01848Y00792*
X01843Y00796*
X01842Y00797*
X01842Y00797*
X01783Y00835*
X01687Y00898*
X01681Y00901*
X01675Y00904*
X01675Y00904*
X01675Y00904*
X01668Y00906*
X01662Y00908*
X01662Y00908*
X01661Y00908*
X01655Y00909*
X01649Y00909*
X00949Y00911*
X00167Y00912*
Y01042*
X00166Y01056*
X00162Y01069*
X00156Y01081*
X00147Y01091*
X00137Y011*
X00125Y01106*
X00112Y0111*
X00098Y01111*
G37*
G36*
X0227Y0085D02*
X02257D01*
X02245Y00848*
X02233Y00843*
X02223Y00836*
X02214Y00827*
X02207Y00817*
X02203Y00805*
X022Y00793*
Y00781*
X02203Y00768*
X02207Y00757*
X02214Y00747*
X02223Y00738*
X02233Y00731*
X02245Y00726*
X02257Y00724*
X0227*
X02282Y00726*
X02293Y00731*
X02304Y00738*
X02312Y00747*
X02319Y00757*
X02324Y00768*
X02326Y00781*
Y00793*
X02324Y00805*
X02319Y00817*
X02312Y00827*
X02304Y00836*
X02293Y00843*
X02282Y00848*
X0227Y0085*
G37*
G36*
X-02257Y00849D02*
X-02269D01*
X-02282Y00847*
X-02293Y00842*
X-02303Y00835*
X-02312Y00826*
X-02319Y00816*
X-02324Y00804*
X-02326Y00792*
Y0078*
X-02324Y00768*
X-02319Y00756*
X-02312Y00746*
X-02303Y00737*
X-02293Y0073*
X-02282Y00725*
X-02269Y00723*
X-02257*
X-02245Y00725*
X-02233Y0073*
X-02223Y00737*
X-02214Y00746*
X-02207Y00756*
X-02202Y00768*
X-022Y0078*
Y00792*
X-02202Y00804*
X-02207Y00816*
X-02214Y00826*
X-02223Y00835*
X-02233Y00842*
X-02245Y00847*
X-02257Y00849*
G37*
G36*
X-01911Y00778D02*
X-01921D01*
X-01932Y00776*
X-01941Y0077*
X-01948Y00763*
X-01953Y00754*
X-01956Y00744*
Y00733*
X-01953Y00723*
X-01948Y00714*
X-01941Y00706*
X-01932Y00701*
X-01921Y00698*
X-01911*
X-01901Y00701*
X-01892Y00706*
X-01884Y00714*
X-01879Y00723*
X-01876Y00733*
Y00744*
X-01879Y00754*
X-01884Y00763*
X-01892Y0077*
X-01901Y00776*
X-01911Y00778*
G37*
G36*
X-02011D02*
X-02021D01*
X-02032Y00776*
X-02041Y0077*
X-02048Y00763*
X-02053Y00754*
X-02056Y00744*
Y00733*
X-02053Y00723*
X-02048Y00714*
X-02041Y00706*
X-02032Y00701*
X-02021Y00698*
X-02011*
X-02001Y00701*
X-01992Y00706*
X-01984Y00714*
X-01979Y00723*
X-01976Y00733*
Y00744*
X-01979Y00754*
X-01984Y00763*
X-01992Y0077*
X-02001Y00776*
X-02011Y00778*
G37*
G36*
X-01811Y00778D02*
X-01821D01*
X-01832Y00775*
X-01841Y0077*
X-01848Y00762*
X-01853Y00753*
X-01856Y00743*
Y00732*
X-01853Y00722*
X-01848Y00713*
X-01841Y00706*
X-01832Y007*
X-01821Y00698*
X-01811*
X-01801Y007*
X-01792Y00706*
X-01784Y00713*
X-01779Y00722*
X-01776Y00732*
Y00743*
X-01779Y00753*
X-01784Y00762*
X-01792Y0077*
X-01801Y00775*
X-01811Y00778*
G37*
G36*
X0227Y00653D02*
X02257D01*
X02245Y00651*
X02233Y00646*
X02223Y00639*
X02214Y0063*
X02207Y0062*
X02203Y00608*
X022Y00596*
Y00584*
X02203Y00572*
X02207Y0056*
X02214Y0055*
X02223Y00541*
X02233Y00534*
X02245Y00529*
X02257Y00527*
X0227*
X02282Y00529*
X02293Y00534*
X02304Y00541*
X02312Y0055*
X02319Y0056*
X02324Y00572*
X02326Y00584*
Y00596*
X02324Y00608*
X02319Y0062*
X02312Y0063*
X02304Y00639*
X02293Y00646*
X02282Y00651*
X0227Y00653*
G37*
G36*
X-02257Y00652D02*
X-02269D01*
X-02282Y0065*
X-02293Y00645*
X-02303Y00638*
X-02312Y00629*
X-02319Y00619*
X-02324Y00608*
X-02326Y00595*
Y00583*
X-02324Y00571*
X-02319Y00559*
X-02312Y00549*
X-02303Y0054*
X-02293Y00533*
X-02282Y00528*
X-02269Y00526*
X-02257*
X-02245Y00528*
X-02233Y00533*
X-02223Y0054*
X-02214Y00549*
X-02207Y00559*
X-02202Y00571*
X-022Y00583*
Y00595*
X-02202Y00608*
X-02207Y00619*
X-02214Y00629*
X-02223Y00638*
X-02233Y00645*
X-02245Y0065*
X-02257Y00652*
G37*
G36*
X-02624Y00623D02*
X-02628Y00622D01*
X-02629*
X-0263Y00622*
X-02634Y00621*
X-02638Y00619*
X-02638Y00618*
X-02639Y00618*
X-02642Y00616*
X-02645Y00612*
X-02645Y00612*
X-02646Y00611*
X-02648Y00607*
X-02649Y00603*
X-02649Y00602*
Y00602*
X-0265Y00598*
Y00559*
X-02659*
Y00496*
X-02588*
Y00559*
X-02599*
Y00598*
X-026Y00602*
Y00602*
X-026Y00603*
X-02601Y00607*
X-02603Y00611*
X-02603Y00612*
X-02604Y00612*
X-02606Y00616*
X-0261Y00618*
X-0261Y00618*
X-02611Y00619*
X-02615Y00621*
X-02619Y00622*
X-02619Y00622*
X-0262*
X-02624Y00623*
G37*
G36*
X02652Y00488D02*
X02581D01*
Y00425*
X02592*
Y0039*
X02593Y00386*
Y00385*
X02594Y00384*
X02594Y0038*
X02597Y00376*
X02597Y00376*
X02598Y00375*
X026Y00372*
X02603Y00369*
X02604Y00369*
X02605Y00368*
X02608Y00366*
X02612Y00365*
X02613Y00365*
X02614*
X02618Y00364*
X02622Y00365*
X02623*
X02624Y00365*
X02628Y00366*
X02631Y00368*
X02632Y00369*
X02632Y00369*
X02636Y00372*
X02638Y00375*
X02639Y00376*
X02639Y00376*
X02641Y0038*
X02642Y00384*
X02643Y00385*
Y00386*
X02643Y0039*
Y00425*
X02652*
Y00488*
G37*
G36*
X02518Y-00113D02*
X02514Y-00114D01*
X02513*
X02513Y-00114*
X02509Y-00115*
X02505Y-00117*
X02504Y-00117*
X02504Y-00118*
X025Y-0012*
X02498Y-00124*
X02497Y-00124*
X02497Y-00125*
X02495Y-00128*
X02494Y-00132*
X02494Y-00133*
Y-00134*
X02493Y-00138*
X02494Y-00142*
Y-00143*
X02494Y-00144*
X02495Y-00148*
X02497Y-00151*
Y-00194*
X02497Y-00196*
Y-00236*
X02561*
Y-00165*
X02548*
Y-00142*
X02546Y-00133*
X0254Y-00124*
X02536Y-0012*
X02533Y-00118*
X02532Y-00117*
X02531Y-00117*
X02528Y-00115*
X02524Y-00114*
X02523Y-00114*
X02522*
X02518Y-00113*
G37*
G36*
X02538Y-0046D02*
X02459D01*
Y-00539*
X02538*
Y-0046*
G37*
G36*
X02403D02*
X02393D01*
X02383Y-00462*
X02374Y-00468*
X02367Y-00475*
X02361Y-00484*
X02359Y-00494*
Y-00504*
X02361Y-00514*
X02367Y-00523*
X02374Y-00531*
X02383Y-00536*
X02393Y-00539*
X02403*
X02413Y-00536*
X02422Y-00531*
X0243Y-00523*
X02435Y-00514*
X02438Y-00504*
Y-00494*
X02435Y-00484*
X0243Y-00475*
X02422Y-00468*
X02413Y-00462*
X02403Y-0046*
G37*
G36*
X02303D02*
X02293D01*
X02283Y-00462*
X02274Y-00468*
X02267Y-00475*
X02261Y-00484*
X02259Y-00494*
Y-00504*
X02261Y-00514*
X02267Y-00523*
X02274Y-00531*
X02283Y-00536*
X02293Y-00539*
X02303*
X02313Y-00536*
X02322Y-00531*
X0233Y-00523*
X02335Y-00514*
X02338Y-00504*
Y-00494*
X02335Y-00484*
X0233Y-00475*
X02322Y-00468*
X02313Y-00462*
X02303Y-0046*
G37*
G36*
X-02404Y-00618D02*
X-02408Y-00619D01*
X-02409*
X-0241Y-00619*
X-02414Y-0062*
X-02417Y-00622*
X-02418Y-00623*
X-02419Y-00623*
X-02422Y-00625*
X-02422Y-00626*
X-02425Y-00629*
X-02425Y-00629*
X-02425Y-0063*
X-02428Y-00634*
X-0243Y-00644*
Y-00671*
X-0244*
Y-00734*
X-02369*
Y-00671*
X-02379*
Y-00646*
X-02379Y-00643*
X-02379Y-00639*
Y-00639*
X-0238Y-00638*
X-0238Y-00634*
X-02383Y-0063*
X-02383Y-00629*
X-02384Y-00629*
X-02386Y-00625*
X-02389Y-00623*
X-0239Y-00623*
X-02391Y-00622*
X-02394Y-0062*
X-02398Y-00619*
X-02399Y-00619*
X-024*
X-02404Y-00618*
G37*
G36*
X02401Y-00734D02*
X0233D01*
Y-00797*
X02341*
Y-00832*
X02342Y-00836*
Y-00837*
X02343Y-00838*
X02343Y-00842*
X02346Y-00845*
X02346Y-00846*
X02347Y-00847*
X02349Y-0085*
X02352Y-00853*
X02353Y-00853*
X02354Y-00853*
X02357Y-00856*
X02361Y-00857*
X02362Y-00857*
X02363*
X02367Y-00858*
X02371Y-00857*
X02372*
X02373Y-00857*
X02377Y-00856*
X0238Y-00853*
X02381Y-00853*
X02382Y-00853*
X02385Y-0085*
X02387Y-00847*
X02388Y-00846*
X02388Y-00845*
X0239Y-00842*
X02391Y-00838*
X02392Y-00837*
Y-00836*
X02392Y-00832*
Y-00797*
X02401*
Y-00734*
G37*
G36*
X01868Y-00808D02*
X01801D01*
Y-00875*
X01868*
Y-00808*
G37*
G36*
X01681D02*
X01672D01*
X01664Y-0081*
X01656Y-00814*
X0165Y-00821*
X01645Y-00828*
X01643Y-00837*
Y-00846*
X01645Y-00854*
X0165Y-00862*
X01656Y-00868*
X01664Y-00873*
X01672Y-00875*
X01681*
X0169Y-00873*
X01697Y-00868*
X01704Y-00862*
X01708Y-00854*
X0171Y-00846*
Y-00837*
X01708Y-00828*
X01704Y-00821*
X01697Y-00814*
X0169Y-0081*
X01681Y-00808*
G37*
G36*
X01602D02*
X01594D01*
X01585Y-0081*
X01577Y-00814*
X01571Y-00821*
X01567Y-00828*
X01564Y-00837*
Y-00846*
X01567Y-00854*
X01571Y-00862*
X01577Y-00868*
X01585Y-00873*
X01594Y-00875*
X01602*
X01611Y-00873*
X01619Y-00868*
X01625Y-00862*
X01629Y-00854*
X01632Y-00846*
Y-00837*
X01629Y-00828*
X01625Y-00821*
X01619Y-00814*
X01611Y-0081*
X01602Y-00808*
G37*
G36*
X00729Y-01039D02*
X00725Y-0104D01*
X00724*
X00723Y-0104*
X00719Y-01041*
X00715Y-01044*
X00715Y-01044*
X00714Y-01045*
X00711Y-01047*
X00708Y-0105*
X00708Y-01051*
X00707Y-01052*
X00705Y-01055*
X00704Y-01059*
X00704Y-0106*
Y-01061*
X00703Y-01065*
X00704Y-01069*
Y-0107*
X00704Y-01071*
X00705Y-01075*
X00707Y-01078*
X00708Y-01079*
X00708Y-01079*
X00711Y-01083*
X00717Y-01089*
X00725Y-01094*
X00735Y-01096*
X0077*
Y-01105*
X00841*
Y-01042*
X0077*
Y-01045*
X00744*
X00743Y-01045*
X00743Y-01044*
X00742Y-01044*
X00738Y-01041*
X00734Y-0104*
X00734Y-0104*
X00733*
X00729Y-01039*
G37*
%LNbrushed_pcb_copper_signal_top-3*%
%LPD*%
G36*
X00462Y00592D02*
X0047Y00586D01*
X0048Y00584*
X01582*
X01586Y0058*
X01584Y00576*
X00414*
Y00578*
X00305*
Y00523*
Y00473*
Y00423*
Y00373*
Y00323*
Y00273*
Y00223*
Y00173*
Y00123*
Y00073*
Y00023*
Y-00014*
X00302Y-00017*
X00301Y-00017*
X00125*
X00121Y-00018*
X00121*
X0012Y-00018*
X00116Y-00019*
X00112Y-00022*
X00112Y-00022*
X00111Y-00022*
X00107Y-00025*
X00105Y-00028*
X00105Y-00029*
X00104Y-0003*
X00102Y-00033*
X00101Y-00037*
X00101Y-00038*
Y-00039*
X001Y-00043*
X00101Y-00047*
Y-00048*
X00101Y-00049*
X00102Y-00053*
X00103Y-00054*
X00101Y-00059*
X00101Y-00059*
X0009*
Y00015*
X00095Y00021*
X00099Y0003*
Y0004*
X00095Y00049*
X00088Y00056*
X00079Y0006*
X00069*
X0006Y00056*
X00053Y00049*
X0005Y0004*
Y0003*
X00053Y00021*
X00059Y00015*
Y-00059*
X-00099*
Y00001*
X-00098Y00005*
X-00099Y00009*
Y0001*
X-00099Y00011*
X-001Y00015*
X-00102Y00018*
X-00103Y00019*
X-00103Y0002*
X-00106Y00023*
X-00109Y00026*
X-0011Y00026*
X-00111Y00026*
X-00114Y00029*
X-00118Y0003*
X-00119Y0003*
X-0012*
X-00124Y00031*
X-00128Y0003*
X-00129*
X-00129Y0003*
X-00133Y00029*
X-00137Y00026*
X-00138Y00026*
X-00138Y00026*
X-00142Y00023*
X-00143Y00022*
X-00148Y00014*
X-0015Y00004*
Y-00016*
X-0015Y-00016*
X-00155Y-00018*
X-00156Y-00016*
X-0016Y-00013*
X-0016Y-00013*
X-00161Y-00012*
X-00165Y-0001*
X-00169Y-00009*
X-00169Y-00009*
X-0017*
X-00174Y-00008*
X-00178Y-00009*
X-00179*
X-0018Y-00009*
X-00184Y-0001*
X-00188Y-00012*
X-00188Y-00013*
X-00189Y-00013*
X-00192Y-00016*
X-00193Y-00016*
X-00195Y-00019*
X-00195Y-0002*
X-00196Y-0002*
X-00198Y-00024*
X-00199Y-00028*
X-00199Y-00029*
Y-00029*
X-002Y-00034*
Y-00059*
X-00202*
Y-00168*
X-001*
Y-00194*
X-00237Y-00331*
X-00298*
X-00302Y-00332*
X-00303*
X-00304Y-00333*
X-00308Y-00333*
X-00311Y-00336*
X-00312Y-00336*
X-00313Y-00337*
X-00316Y-00339*
X-00318Y-00342*
X-00319Y-00343*
X-00319Y-00344*
X-00322Y-00347*
X-00322Y-00351*
X-00323Y-00352*
Y-00353*
X-00324Y-00357*
X-00323Y-00361*
Y-00362*
X-00322Y-00363*
X-00322Y-00367*
X-00319Y-0037*
X-00319Y-00371*
X-00318Y-00371*
X-00316Y-00375*
X-00313Y-00377*
X-00312Y-00378*
X-00311Y-00378*
X-00308Y-0038*
X-00305Y-00381*
X-00305Y-00381*
X-00303Y-00384*
X-00303Y-00385*
X-00302Y-00386*
X-00303Y-00387*
X-00303Y-00387*
X-00304Y-00391*
X-00304Y-00392*
Y-00393*
X-00305Y-00397*
X-00304Y-00401*
Y-00402*
X-00304Y-00403*
X-00303Y-00405*
X-00308Y-00407*
X-00333Y-00382*
Y-00077*
X-00304*
X-00302Y-00081*
Y-00168*
X-00247*
Y-00059*
X-00299*
X-00302*
X-00304Y-00055*
Y-00027*
Y00022*
Y00072*
Y00122*
Y00172*
Y00222*
Y00272*
Y00322*
Y00372*
Y00422*
Y00472*
Y00522*
Y00578*
X-00413*
Y00573*
X-0043*
X-00432Y00574*
X-0044Y00576*
X-00447*
X-00455Y00574*
X-00462Y0057*
X-00467Y00565*
X-00471Y00558*
X-00473Y00551*
Y00543*
X-00471Y00535*
X-00467Y00529*
X-00463Y00524*
X-00462Y00521*
X-00463Y00518*
X-00467Y00514*
X-00471Y00507*
X-00473Y00499*
Y00492*
X-00471Y00484*
X-00469Y0048*
X-00472Y00475*
X-00639*
X-0064Y0048*
X-0049Y00631*
X00423*
X00462Y00592*
G37*
G36*
X-02373Y00463D02*
X-02396Y0044D01*
X-02428*
X-02431Y00443*
X-02439Y00448*
X-02448Y0045*
X-02457*
X-02466Y00448*
X-02474Y00443*
X-02481Y00436*
X-02486Y00428*
X-02488Y00419*
Y0041*
X-02486Y00401*
X-02481Y00393*
X-02474Y00386*
X-02466Y00381*
X-02457Y00379*
X-02448*
X-02439Y00381*
X-02431Y00386*
X-02428Y00389*
X-02391*
X-02389Y00384*
X-02409Y00363*
X-02512*
Y00461*
X-02509Y00464*
X-02472*
X-02466Y0046*
X-02457Y00458*
X-02448*
X-02439Y0046*
X-02431Y00465*
X-02428Y00468*
X-02375*
X-02373Y00463*
G37*
G36*
X-00892Y00363D02*
X-00894Y00358D01*
X-00902*
X-00911Y00354*
X-00911Y00354*
X-00916Y00356*
Y00357*
X-01011*
Y0032*
X-0102Y0031*
X-01025Y00312*
Y00357*
X-01047*
Y00395*
X-00924*
X-00892Y00363*
G37*
G36*
X-01098Y00357D02*
X-0112D01*
Y00294*
X-01134*
Y00357*
X-01229*
Y00311*
X-0123Y00309*
X-01229Y00306*
Y00294*
X-01243*
Y00357*
X-01267*
Y00384*
X-01098*
Y00357*
G37*
G36*
X-01318D02*
X-01338D01*
Y00294*
X-01352*
Y00357*
X-01448*
Y00294*
X-01461*
Y00357*
X-01481*
Y00384*
X-01318*
Y00357*
G37*
G36*
X-01532D02*
X-01557D01*
Y00294*
X-01571*
Y00357*
X-01666*
Y00294*
X-0168*
Y00357*
X-01702*
Y00384*
X-01532*
Y00357*
G37*
G36*
X-01753D02*
X-01775D01*
Y00294*
X-01789*
Y00357*
X-01884*
Y00294*
X-01898*
Y00357*
X-0192*
Y00384*
X-01753*
Y00357*
G37*
G36*
X01303Y00211D02*
X01299Y00208D01*
X00784*
X00782Y00212*
X00786Y00216*
X013*
X01303Y00211*
G37*
G36*
X-00911Y00312D02*
X-00902Y00308D01*
X-00892*
X-00888Y0031*
X-00883Y00307*
Y0007*
X-00888Y00066*
X-00891Y00057*
Y00047*
X-00888Y00038*
X-00881Y00031*
X-00876Y00029*
X-00875Y00023*
X-00932Y-00032*
X-01192*
X-01197Y-00033*
X-01199Y-00029*
X-01055Y00115*
X-01049Y00123*
X-01047Y00133*
Y00172*
X-01025*
Y00183*
X-01011*
Y00172*
X-00916*
Y00246*
X-01005*
X-01007Y0025*
X-01007Y00251*
X-00992Y00265*
X-00989Y00269*
X-00975Y00284*
X-00916*
Y0031*
X-00911Y00312*
X-00911Y00312*
G37*
G36*
X-0112Y00172D02*
X-01098D01*
Y00143*
X-01236Y00005*
X-01336*
X-01338Y0001*
X-01273Y00075*
X-01267Y00083*
X-01265Y00093*
Y00172*
X-01243*
Y00183*
X-01229*
Y00172*
X-01134*
Y00243*
X-0112*
Y00172*
G37*
G36*
X-01338D02*
X-01316D01*
Y00104*
X-01374Y00046*
X-01536*
X-01538Y00051*
X-01491Y00098*
X-01485Y00106*
X-01484Y00116*
Y00172*
X-01461*
Y00183*
X-01448*
Y00172*
X-01352*
Y00243*
X-01338*
Y00172*
G37*
G36*
X-01557D02*
X-01535D01*
Y00126*
X-01572Y00088*
X-01723*
X-01725Y00093*
X-0171Y00108*
X-01704Y00117*
X-01702Y00126*
Y00172*
X-0168*
Y00183*
X-01666*
Y00172*
X-01571*
Y00243*
X-01557*
Y00172*
G37*
G36*
X-01775D02*
X-01753D01*
Y00137*
X-01762Y00128*
X-02122*
Y00183*
X-01993*
Y00172*
X-01898*
Y00183*
X-01884*
Y00172*
X-01789*
Y00243*
X-01775*
Y00172*
G37*
G36*
X-00766Y00419D02*
X-00768Y00418D01*
X-00836Y0035*
X-00841Y00342*
X-00843Y00332*
Y0007*
X-00848Y00068*
X-00852Y00072*
Y0036*
X-00853Y00365*
X-00857Y0037*
X-00906Y00419*
X-00904Y00424*
X-00767*
X-00766Y00419*
G37*
G36*
X00493Y00118D02*
Y00003D01*
X00495Y-00005*
X00501Y-00014*
X00655Y-00168*
X00653Y-00173*
X00624*
X00548Y-00097*
Y-00089*
X00544Y-0008*
X00537Y-00073*
X00528Y-00069*
X00518*
X00509Y-00073*
X00502Y-0008*
X00498Y-00089*
Y-00097*
X00495*
X00486Y-00101*
X00479Y-00108*
X00475Y-00117*
Y-00126*
X00479Y-00136*
X00486Y-00142*
X00495Y-00146*
X00503*
X00567Y-00211*
X00565Y-00216*
X00354*
X00303Y-00164*
Y-00116*
X00302Y-00114*
Y-0008*
X00305Y-00076*
X00414*
Y-00018*
X00426*
X00428Y-0002*
X00433Y-00026*
X0044Y-0003*
X00448Y-00032*
X00455*
X00463Y-0003*
X0047Y-00026*
X00475Y-0002*
X00479Y-00014*
X00481Y-00006*
Y00001*
X00479Y00008*
X00475Y00015*
X0047Y0002*
X00475Y00026*
X00479Y00033*
X00481Y0004*
Y00048*
X00479Y00055*
X00475Y00062*
X00471Y00066*
X0047Y0007*
X00471Y00073*
X00475Y00077*
X00479Y00084*
X00481Y00091*
Y00099*
X00479Y00107*
X00475Y00113*
X0047Y00119*
X00468Y0012*
X00469Y00125*
X00486*
X00493Y00118*
G37*
G36*
X00557Y00131D02*
Y00052D01*
X00559Y00042*
X00564Y00034*
X00774Y-00175*
X00772Y-00179*
X00738*
X00544Y00014*
Y00129*
X00542Y00138*
X00542Y00138*
X00547Y0014*
X00557Y00131*
G37*
G36*
X-00413Y-00077D02*
X-00384D01*
Y-00228*
X-00389Y-0023*
X-00444Y-00175*
Y-00036*
X-00433Y-00025*
X-00413*
Y-00077*
G37*
G36*
X01344Y00176D02*
X01349Y00171D01*
X01358Y00168*
X01368*
X01377Y00171*
X01382Y00177*
X01663*
X01951Y-0011*
Y-00333*
X01946Y-00335*
X01943Y-00332*
X01934Y-00326*
X01924Y-00324*
X01913*
X01903Y-00326*
X01894Y-00332*
X01891Y-00335*
X01886Y-00333*
Y-00063*
X01885Y-00057*
X01881Y-00052*
X01703Y00125*
X01698Y00129*
X01692Y0013*
X01367*
X01334Y00163*
Y00173*
X01337Y00176*
X01341Y00178*
X01344Y00176*
G37*
G36*
X01303Y00173D02*
Y00157D01*
X01304Y00151*
X01308Y00146*
X0135Y00104*
X01355Y001*
X01361Y00099*
X01686*
X01855Y-00069*
Y-00338*
X01852Y-00339*
X0185Y-00339*
X01843Y-00332*
X01834Y-00326*
X01824Y-00324*
X01813*
X01803Y-00326*
X01794Y-00332*
X01786Y-00339*
X01781Y-00348*
X01778Y-00358*
Y-00369*
X01781Y-00379*
X01781Y-00379*
X01764Y-00396*
X01749*
X01747Y-00391*
X0175Y-00388*
X01756Y-00379*
X01758Y-00369*
Y-00358*
X01756Y-00348*
X01752Y-00342*
X01757Y-00338*
X0176Y-00333*
X01761Y-00327*
Y-00001*
X0176Y00004*
X01757Y00009*
X01692Y00073*
X01687Y00077*
X01682Y00078*
X0128*
X01238Y0012*
Y00128*
X01234Y00137*
X01227Y00144*
X01218Y00147*
X01208*
X01199Y00144*
X01192Y00137*
X01189Y00128*
Y00118*
X01192Y00109*
X01199Y00102*
X01208Y00098*
X01216*
X01263Y00052*
X01268Y00048*
X01273Y00047*
X01675*
X01717Y00006*
X01715Y00001*
X01711*
X01702Y-00002*
X01696Y-00008*
X01637*
X01632Y-00002*
X01623Y00001*
X01613*
X01604Y-00002*
X01598Y-00008*
X01535*
X01529Y-00002*
X0152Y00001*
X0151*
X01501Y-00002*
X01494Y-00009*
X01491Y-00018*
Y-00028*
X01494Y-00037*
X01501Y-00044*
X0151Y-00048*
X0152*
X01529Y-00044*
X01535Y-00038*
X01598*
X01604Y-00044*
X01613Y-00048*
X01623*
X01632Y-00044*
X01637Y-00038*
X01696*
X01702Y-00044*
X01711Y-00048*
X01721*
X01725Y-00046*
X0173Y-00049*
Y-00321*
X01727Y-00325*
X01724Y-00324*
X01713*
X01703Y-00326*
X01694Y-00332*
X01686Y-00339*
X01681Y-00348*
X01678Y-00358*
Y-00369*
X01681Y-00379*
X01686Y-00388*
X0169Y-00391*
X01687Y-00396*
X01649*
X01647Y-00391*
X0165Y-00388*
X01656Y-00379*
X01658Y-00369*
Y-00358*
X01656Y-00348*
X0165Y-00339*
X01643Y-00332*
X01634Y-00326*
X01624Y-00324*
X01613*
X01603Y-00326*
X01594Y-00332*
X01586Y-00339*
X01581Y-00348*
X01578Y-00358*
Y-00369*
X01581Y-00379*
X01586Y-00388*
X0159Y-00391*
X01587Y-00396*
X01549*
X01547Y-00391*
X0155Y-00388*
X01556Y-00379*
X01558Y-00369*
Y-00358*
X01556Y-00348*
X0155Y-00339*
X01544Y-00333*
Y-00217*
X01542Y-00208*
X01536Y-00199*
X01484Y-00147*
X01476Y-00141*
X01466Y-00139*
X01029*
X01026Y-00134*
X01028Y-0013*
Y-0012*
X01024Y-00111*
X01018Y-00105*
Y00095*
X01024Y00101*
X01027Y0011*
Y00119*
X01024Y00129*
X01017Y00135*
X01008Y00139*
X00998*
X00989Y00135*
X00982Y00129*
X00978Y00119*
Y0011*
X00982Y00101*
X00988Y00095*
Y-00105*
X00983Y-00111*
X00979Y-0012*
Y-0013*
X00981Y-00134*
X00977Y-00139*
X0081*
X0061Y0006*
X0061Y00062*
X00615Y00064*
X00617Y00062*
X00626Y00058*
X00636*
X00645Y00062*
X00651Y00068*
X00654*
X0066Y00069*
X00665Y00072*
X0076Y00168*
X00768*
X00777Y00171*
X00783Y00177*
X01299*
X01303Y00173*
G37*
G36*
X01493Y-00228D02*
Y-00333D01*
X01486Y-00339*
X01481Y-00348*
X01478Y-00358*
Y-00369*
X01481Y-00379*
X01486Y-00388*
X0149Y-00391*
X01487Y-00396*
X01449*
X01447Y-00391*
X0145Y-00388*
X01456Y-00379*
X01458Y-00369*
Y-00358*
X01456Y-00348*
X0145Y-00339*
X01444Y-00333*
Y-00269*
X01442Y-00259*
X01436Y-00251*
X01381Y-00195*
X01383Y-0019*
X01455*
X01493Y-00228*
G37*
G36*
X01852Y-00389D02*
X01855Y-0039D01*
Y-00425*
X01739Y-0054*
X01731Y-00538*
X01721*
X01711Y-00541*
X01703Y-00545*
X01696Y-00552*
X01691Y-00561*
X01688Y-00571*
Y-0058*
X01691Y-0059*
X01696Y-00599*
X01698Y-00601*
X01696Y-00606*
X01679*
X01663Y-00589*
X01665Y-0058*
Y-00571*
X01662Y-00561*
X01658Y-00552*
X01651Y-00545*
X01642Y-00541*
X01632Y-00538*
X01623*
X01613Y-00541*
X01604Y-00545*
X01597Y-00552*
X01592Y-00561*
X0159Y-00571*
Y-0058*
X01592Y-0059*
X01597Y-00599*
X01604Y-00606*
X01613Y-00611*
X01623Y-00613*
X01632*
X01641Y-00611*
X01661Y-0063*
X01659Y-00635*
X01578*
X01574Y-00636*
X01573*
X01573Y-00637*
X01568Y-00637*
X01565Y-0064*
X01564Y-0064*
X01564Y-00641*
X0156Y-00643*
X01558Y-00646*
X01557Y-00647*
X01557Y-00648*
X01555Y-00651*
X01554Y-00655*
X01553Y-00656*
X01551Y-00656*
X01549Y-00656*
X0151Y-00618*
X01512Y-00613*
X01567*
Y-00538*
X01499*
Y-00533*
X01498Y-00527*
X01494Y-00522*
X01403Y-00432*
X01405Y-00427*
X0177*
X01776Y-00426*
X01781Y-00423*
X01803Y-00401*
X01803Y-00401*
X01813Y-00404*
X01824*
X01834Y-00401*
X01843Y-00396*
X0185Y-00389*
X01852Y-00389*
G37*
G36*
X01354Y-00293D02*
Y-00391D01*
X01355Y-00397*
X01359Y-00402*
X01365Y-00408*
X01363Y-00413*
X01282*
X01276Y-00407*
X01267Y-00403*
X01257*
X01248Y-00407*
X01244Y-00411*
X01241Y-00414*
X01238Y-00411*
X01234Y-00407*
X01225Y-00403*
X01215*
X01206Y-00407*
X01199Y-00414*
X01195Y-00423*
Y-00433*
X01199Y-00442*
X01205Y-00448*
Y-00451*
X01206Y-00457*
X01209Y-00462*
X01226Y-00479*
X01231Y-00482*
X01237Y-00483*
X01362*
X0144Y-00561*
Y-00634*
X01441Y-0064*
X01444Y-00645*
X01511Y-00711*
X0151Y-00712*
X01508Y-00716*
X01499Y-00714*
X01371*
X01368Y-00709*
X01368Y-00709*
X01369Y-00705*
X01369Y-00704*
Y-00703*
X0137Y-00699*
Y-00691*
X01391Y-0067*
X01426*
Y-00607*
X01354*
Y-00634*
X01335Y-00654*
X0133Y-00652*
Y-00549*
X01328Y-00539*
X01323Y-00531*
X01293Y-00501*
X0129Y-00499*
X01289Y-00498*
X01288Y-00498*
X01285Y-00496*
X01281Y-00495*
X0128Y-00495*
X01279*
X01275Y-00494*
X01271Y-00495*
X0127*
X01269Y-00495*
X01265Y-00496*
X01262Y-00498*
X01261Y-00498*
X0126Y-00499*
X01257Y-00501*
X01255Y-00505*
X01254Y-00505*
X01254Y-00506*
X01252Y-00509*
X01251Y-00513*
X0125Y-00514*
Y-00515*
X0125Y-00519*
X0125Y-00523*
Y-00524*
X01251Y-00525*
X01252Y-00529*
X01254Y-00532*
X01254Y-00533*
X01255Y-00534*
X01257Y-00537*
X01279Y-00559*
Y-0072*
X0128Y-00722*
Y-00739*
Y-00808*
X0122*
Y-0087*
X01214*
X01204Y-00872*
X01196Y-00877*
X01175Y-00898*
X00973*
X00969Y-00899*
X00968*
X00967Y-009*
X00963Y-009*
X00959Y-00903*
X00959Y-00903*
X00956Y-00902*
X00954Y-009*
Y-009*
X00953Y-00894*
X00949Y-00889*
X00939Y-0088*
X00941Y-00875*
X00943*
X00951Y-00873*
X00959Y-00868*
X00965Y-00862*
X0097Y-00854*
X00972Y-00846*
Y-00837*
X0097Y-00828*
X00965Y-00821*
X00959Y-00814*
X00954Y-00811*
Y-00654*
X00953Y-00648*
X00949Y-00643*
X00924Y-00618*
X00926Y-00613*
X00986*
Y-00538*
X00933*
X00932Y-00533*
X00988Y-00477*
X0104*
X01046Y-00476*
X01051Y-00473*
X0113Y-00394*
X01133Y-00389*
X01133Y-00388*
X01138Y-00388*
X01139Y-00388*
X01146Y-00396*
X01155Y-00401*
X01166Y-00404*
X01176*
X01186Y-00401*
X01195Y-00396*
X01203Y-00388*
X01208Y-00379*
X01211Y-00369*
Y-00358*
X01208Y-00348*
X01203Y-00339*
X01195Y-00332*
X01186Y-00326*
X01176Y-00324*
X01166*
X01155Y-00326*
X01146Y-00332*
X01139Y-00339*
X01137Y-00339*
X01134Y-00338*
Y-00325*
X01135Y-00325*
X0114Y-0032*
X01143Y-00313*
X01145Y-00306*
Y-00299*
X01143Y-00292*
X0114Y-00286*
X01135Y-00281*
X01128Y-00277*
X01121Y-00275*
X01114*
X01107Y-00277*
X01101Y-00281*
X01096Y-00286*
X01092Y-00292*
X0109Y-00299*
Y-00306*
X01092Y-00313*
X01096Y-0032*
X01101Y-00325*
X01103Y-00326*
Y-00333*
X01098Y-00335*
X01095Y-00332*
X01086Y-00326*
X01076Y-00324*
X01066*
X01055Y-00326*
X01046Y-00332*
X01041Y-00337*
X01036Y-00335*
X01036Y-00333*
X01036Y-00333*
X01041Y-00327*
X01045Y-00321*
X01047Y-00314*
Y-00307*
X01045Y-003*
X01041Y-00294*
X01036Y-00288*
X0103Y-00285*
X01023Y-00283*
X01016*
X01009Y-00285*
X01002Y-00288*
X00997Y-00294*
X00994Y-003*
X00992Y-00307*
Y-00314*
X00994Y-00321*
X00994Y-00323*
X00992Y-00329*
X00991Y-00329*
X00986Y-00326*
X00986Y-00326*
Y-00284*
X00985Y-00278*
X00982Y-00273*
X00963Y-00255*
X00965Y-0025*
X01311*
X01354Y-00293*
G37*
G36*
X00097Y-00195D02*
X00098Y-00199D01*
Y-002*
X00098Y-00201*
X00099Y-00205*
X00101Y-00209*
X00102Y-00209*
X00102Y-0021*
X00105Y-00213*
X00108Y-00216*
X00109Y-00216*
X00109Y-00217*
X00113Y-00219*
X00117Y-0022*
X00118Y-0022*
X00118*
X00123Y-00221*
X00127Y-0022*
X00127*
X00128Y-0022*
X00132Y-00219*
X00136Y-00217*
X00137Y-00216*
X00137Y-00216*
X00141Y-00213*
X00142Y-00211*
X00145Y-00211*
X00147Y-00212*
Y-00241*
X00148Y-00245*
Y-00246*
X00148Y-00247*
X00149Y-00251*
X00151Y-00254*
X00152Y-00255*
X00152Y-00255*
X00155Y-00259*
X00158Y-00261*
X00159Y-00262*
X0016Y-00262*
X00163Y-00264*
X00167Y-00265*
X00168Y-00266*
X00169*
X00173Y-00266*
X00177Y-00266*
X00178*
X00178Y-00265*
X00182Y-00264*
X00186Y-00262*
X00187Y-00262*
X00187Y-00261*
X00191Y-00259*
X00193Y-00255*
X00194Y-00255*
X00194Y-00254*
X00196Y-00251*
X00197Y-00247*
X00197Y-00246*
Y-00245*
X00198Y-00241*
Y-00195*
X00203Y-00194*
X00206Y-00199*
X00307Y-00299*
X00315Y-00305*
X00325Y-00306*
X00543*
X00545Y-00309*
Y-00333*
X00539Y-00339*
X00534Y-00348*
X00531Y-00358*
Y-00369*
X00534Y-00379*
X00539Y-00388*
X00546Y-00396*
X00555Y-00401*
X00566Y-00404*
X00576*
X00586Y-00401*
X00595Y-00396*
X00603Y-00388*
X00608Y-00379*
X00611Y-00369*
Y-00358*
X00608Y-00348*
X00603Y-00339*
X00596Y-00333*
Y-00299*
X00594Y-00289*
X00589Y-00281*
X00579Y-00271*
X00581Y-00266*
X00624*
X00645Y-00288*
Y-00333*
X00639Y-00339*
X00634Y-00348*
X00631Y-00358*
Y-00369*
X00634Y-00379*
X00639Y-00388*
X00646Y-00396*
X00655Y-00401*
X00666Y-00404*
X00676*
X00686Y-00401*
X00695Y-00396*
X00703Y-00388*
X00708Y-00379*
X00711Y-00369*
Y-00358*
X00708Y-00348*
X00703Y-00339*
X00696Y-00333*
Y-00277*
X00695Y-00271*
X007Y-00268*
X00701Y-00269*
X00707Y-0027*
X00844*
X00847Y-00275*
X00846Y-0028*
Y-00289*
X00849Y-00299*
X00855Y-00304*
Y-00327*
X00846Y-00332*
X00839Y-00339*
X00834Y-00348*
X00831Y-00358*
Y-00369*
X00834Y-00379*
X00839Y-00388*
X00846Y-00396*
X00855Y-00401*
X00866Y-00404*
X00876*
X00886Y-00401*
X00895Y-00396*
X00903Y-00388*
X00908Y-00379*
X00911Y-00369*
Y-00358*
X00908Y-00348*
X00903Y-00339*
X00895Y-00332*
X00886Y-00326*
X00886Y-00326*
Y-00304*
X00891Y-00299*
X00895Y-00289*
Y-0028*
X00893Y-00275*
X00896Y-0027*
X00935*
X00956Y-00291*
Y-00326*
X00955Y-00326*
X00946Y-00332*
X00939Y-00339*
X00934Y-00348*
X00931Y-00358*
Y-00369*
X00934Y-00379*
X00939Y-00388*
X00946Y-00396*
X00955Y-00401*
X00966Y-00404*
X00976*
X00985Y-00401*
X00988Y-00406*
X00872Y-00521*
X00869Y-00526*
X00867Y-00532*
Y-00731*
X00863Y-00732*
X00853Y-00723*
X00845Y-00717*
X00835Y-00715*
X00776*
X00766Y-00717*
X00766Y-00717*
X00761Y-00715*
X00761Y-00712*
X00803Y-0067*
X00838*
Y-00607*
X00767*
Y-00634*
X00716Y-00685*
X00715Y-00686*
X0071Y-00685*
Y-00675*
X00745Y-00641*
X0075Y-00633*
X00752Y-00623*
Y-00542*
X0075Y-00532*
X00745Y-00524*
X00718Y-00497*
X00715Y-00495*
X00714Y-00494*
X00713Y-00494*
X0071Y-00492*
X00706Y-00491*
X00705Y-00491*
X00704*
X007Y-0049*
X00397*
X00393Y-00491*
X00393*
X00392Y-00489*
X0039Y-00486*
X00394Y-00482*
X00399Y-00484*
X00409*
X00418Y-0048*
X00425Y-00473*
X00429Y-00464*
Y-00455*
X00425Y-00445*
X00418Y-00439*
X00418Y-00438*
X00422Y-00435*
X00426Y-00426*
Y-00416*
X00422Y-00407*
X00415Y-004*
X00406Y-00396*
X00396*
X00387Y-004*
X0038Y-00407*
X00376Y-00416*
Y-00424*
X00262Y-00539*
X00258Y-00543*
X00257Y-00549*
Y-00619*
X00252Y-00621*
X00252Y-00621*
Y-00607*
X00231*
X00228Y-00606*
X00224Y-00607*
X00186*
Y-00525*
X00279Y-00432*
X00299*
X00304Y-00437*
X00313Y-00441*
X00323*
X00332Y-00437*
X00339Y-0043*
X00343Y-00421*
Y-00412*
X00339Y-00403*
X00339Y-00402*
X00343Y-00398*
X00346Y-00389*
Y-00379*
X00343Y-0037*
X00338Y-00365*
X00339Y-00359*
X0034Y-00359*
X00347Y-00352*
X00351Y-00343*
Y-00333*
X00347Y-00324*
X0034Y-00317*
X00331Y-00313*
X00321*
X00312Y-00317*
X00306Y-00323*
X0019*
X00184Y-00324*
X00179Y-00327*
X00027Y-0048*
X-00112*
X-00154Y-00438*
X-00159Y-00434*
X-00165Y-00433*
X-00196*
X-00202Y-00427*
X-00203Y-00427*
X-00202Y-00422*
X-00194Y-0042*
X-00186Y-00415*
X-00006Y-00235*
X-00001Y-00227*
X0Y-00217*
Y-00168*
X00097*
Y-00195*
G37*
G36*
X00052Y-00504D02*
Y-00535D01*
X00054*
X00056Y-0054*
X00047Y-00549*
X00007*
Y-00532*
X-00057*
Y-00538*
X-00062Y-0054*
X-00064Y-00538*
X-00071Y-00534*
X-0008Y-00532*
X-00088*
X-00096Y-00534*
X-00104Y-00538*
X-0011Y-00544*
X-00111Y-00546*
X-00116*
X-00117Y-00544*
X-0012Y-00541*
Y-00524*
X-00122Y-00514*
X-00119Y-0051*
X-00118Y-0051*
X00033*
X00039Y-00509*
X00044Y-00506*
X00048Y-00502*
X00052Y-00504*
G37*
G36*
X-01971Y00357D02*
X-01993D01*
Y00294*
X-02112*
X-02117Y00293*
X-02122Y00297*
Y00348*
X-0219*
Y00281*
X-02141*
X-02139Y00279*
X-02137Y00276*
X-02138Y00273*
X-02138Y00272*
Y00271*
X-02139Y00267*
X-02138Y00263*
Y00262*
X-02138Y00262*
X-02137Y00257*
X-02135Y00254*
X-02135Y00253*
X-02134Y00253*
X-02132Y00249*
X-02128Y00247*
X-02128Y00246*
X-02127Y00246*
X-02123Y00244*
X-02119Y00243*
X-02119Y00243*
X-02118*
X-02114Y00242*
X-0211Y00243*
X-02109*
X-02108Y00243*
X-02107Y00243*
X-01993*
Y00234*
X-02172*
X-02242Y00304*
X-0224Y0031*
Y00319*
X-02243Y00327*
X-02247Y00335*
X-02253Y00341*
X-02261Y00346*
X-0227Y00348*
X-02279*
X-02287Y00346*
X-02295Y00341*
X-02301Y00335*
X-02305Y00327*
X-02308Y00319*
Y0031*
X-02305Y00301*
X-02301Y00294*
X-02295Y00288*
X-02294Y00287*
X-02289Y00279*
X-022Y00191*
X-02192Y00185*
X-0219Y00185*
Y00128*
X-02226*
X-02242Y00145*
X-0224Y0015*
Y00159*
X-02243Y00168*
X-02247Y00175*
X-02253Y00181*
X-02261Y00186*
X-0227Y00188*
X-02279*
X-02287Y00186*
X-02295Y00181*
X-02301Y00175*
X-02305Y00168*
X-02308Y00159*
Y0015*
X-02305Y00142*
X-02301Y00134*
X-02295Y00128*
X-02294Y00127*
X-02289Y00119*
X-02254Y00085*
X-02248Y0008*
X-02246Y00075*
X-02289Y00032*
X-02294Y00024*
X-02295Y00024*
X-02301Y00018*
X-02305Y0001*
X-02308Y00001*
Y-00006*
X-02305Y-00015*
X-02301Y-00023*
X-02295Y-00029*
X-02287Y-00033*
X-02279Y-00036*
X-0227*
X-02261Y-00033*
X-02253Y-00029*
X-02247Y-00023*
X-02243Y-00015*
X-0224Y-00006*
Y00001*
X-02242Y00007*
X-02212Y00037*
X-02049*
X-02047Y00033*
X-02118Y-00037*
X-02122Y-00034*
Y-00031*
Y00031*
X-0219*
Y-00036*
X-02127*
X-02124*
X-02121Y-0004*
X-02139Y-00058*
X-02209*
X-02219Y-0006*
X-02227Y-00065*
X-02289Y-00127*
X-02294Y-00135*
X-02295Y-00135*
X-02301Y-00141*
X-02305Y-00149*
X-02308Y-00157*
Y-00166*
X-02305Y-00175*
X-02301Y-00183*
X-02295Y-00189*
X-02287Y-00193*
X-02279Y-00196*
X-0227*
X-02261Y-00193*
X-02253Y-00189*
X-02247Y-00183*
X-02243Y-00175*
X-0224Y-00166*
Y-00157*
X-02242Y-00152*
X-02199Y-00109*
X-02128*
X-02118Y-00107*
X-0211Y-00101*
X-02013Y-00004*
X-01906*
X-01904Y-00009*
X-02133Y-00238*
X-02411*
X-02421Y-0024*
X-02429Y-00245*
X-02463Y-00279*
X-02467Y-00284*
X-02467Y-00285*
X-0247Y-0029*
X-02473Y-00291*
X-02479Y-00298*
X-02484Y-00305*
X-02486Y-00314*
Y-00323*
X-02484Y-00331*
X-02479Y-00339*
X-02473Y-00345*
X-02465Y-0035*
X-02457Y-00352*
X-02448*
X-02439Y-0035*
X-02432Y-00345*
X-02426Y-0034*
X-02423Y-00339*
X-0242Y-0034*
X-02414Y-00345*
X-02406Y-0035*
X-02398Y-00352*
X-02389*
X-0238Y-0035*
X-02372Y-00345*
X-02367Y-0034*
X-02364Y-00339*
X-02361Y-0034*
X-02355Y-00345*
X-02347Y-0035*
X-02339Y-00352*
X-0233*
X-02321Y-0035*
X-02313Y-00345*
X-02308Y-0034*
X-02305Y-00339*
X-02302Y-0034*
X-02296Y-00345*
X-02288Y-0035*
X-0228Y-00352*
X-02271*
X-02262Y-0035*
X-02254Y-00345*
X-02249Y-0034*
X-02246Y-00339*
X-02243Y-0034*
X-02237Y-00345*
X-02229Y-0035*
X-0222Y-00352*
X-02212*
X-02203Y-0035*
X-02195Y-00345*
X-02189Y-00339*
X-02185Y-00331*
X-02182Y-00323*
Y-00314*
X-02185Y-00305*
X-02189Y-00298*
X-02193Y-00294*
X-02191Y-00289*
X-02123*
X-02113Y-00287*
X-02105Y-00281*
X-01868Y-00045*
X-01226*
X-01221Y-00044*
X-01218Y-00048*
X-01394Y-00224*
X-02017*
X-02027Y-00226*
X-02035Y-00231*
X-02097Y-00293*
X-02102Y-00301*
X-02104Y-00311*
Y-00419*
X-02252Y-00566*
X-02257Y-00574*
X-02259Y-00584*
Y-00634*
X-02262Y-00637*
X-02267Y-00645*
X-02269Y-00654*
Y-00664*
X-02267Y-00673*
X-02262Y-00681*
X-02256Y-00687*
X-02247Y-00692*
X-02238Y-00695*
X-02229*
X-0222Y-00692*
X-02212Y-00687*
X-02205Y-00681*
X-02201Y-00673*
X-02198Y-00664*
Y-00654*
X-02201Y-00645*
X-02205Y-00637*
X-02208Y-00634*
Y-00595*
X-02061Y-00447*
X-02055Y-00439*
X-02053Y-00429*
Y-00322*
X-02007Y-00275*
X-01383*
X-01374Y-00273*
X-01365Y-00267*
X-01181Y-00083*
X-00921*
X-00911Y-00081*
X-00903Y-00076*
X-008Y00026*
X-00794Y00034*
X-00792Y00044*
Y00322*
X-0074Y00374*
X-00481*
X-00479Y00369*
X-00481Y00368*
X-00485Y00361*
X-00487Y00354*
Y00346*
X-00485Y00338*
X-00481Y00332*
X-00476Y00327*
X-00476Y00324*
X-00476Y00321*
X-00481Y00317*
X-00485Y0031*
X-00487Y00303*
Y00295*
X-00485Y00287*
X-00481Y00281*
X-00476Y00276*
X-00476Y00273*
X-00476Y0027*
X-00481Y00266*
X-00485Y00259*
X-00487Y00251*
Y00244*
X-00485Y00236*
X-00481Y00229*
X-00475Y00224*
X-00481Y00218*
X-00485Y00212*
X-00487Y00204*
Y00196*
X-00485Y00189*
X-00481Y00182*
X-00475Y00177*
X-00481Y00171*
X-00485Y00164*
X-00487Y00157*
Y00149*
X-00485Y00142*
X-00481Y00135*
X-00476Y00131*
X-00476Y00127*
X-00476Y00124*
X-00481Y0012*
X-00485Y00113*
X-00487Y00106*
Y00098*
X-00485Y0009*
X-00481Y00084*
X-00476Y00079*
X-00476Y00076*
X-00476Y00073*
X-00481Y00069*
X-00485Y00062*
X-00487Y00055*
Y00047*
X-00485Y00039*
X-00481Y00033*
X-00475Y00027*
X-00469Y00023*
X-00465Y00022*
X-00464Y00021*
X-00463Y00017*
X-00488Y-00007*
X-00493Y-00015*
X-00495Y-00025*
Y-00185*
X-00493Y-00195*
X-00488Y-00203*
X-00424Y-00267*
Y-00522*
X-00422Y-00531*
X-00417Y-0054*
X-00317Y-0064*
X-00308Y-00645*
X-00299Y-00647*
X-00101*
X-00092Y-00645*
X-00083Y-0064*
X-00069Y-00625*
X-00063Y-00617*
X-00061Y-00607*
Y-006*
X-00057Y-00597*
X00007*
Y-0058*
X00048*
X00052Y-00582*
Y-00585*
Y-00634*
X00059*
Y-00653*
X00055*
X00046Y-00657*
X00039Y-00664*
X00036Y-00673*
Y-00683*
X00039Y-00692*
X00046Y-00699*
X00048Y-00699*
X00047Y-00704*
X00008*
X00002Y-00705*
X-00002Y-00709*
X-00033Y-0074*
X-00042Y-00738*
X-00052*
X-00061Y-0074*
X-0007Y-00745*
X-00077Y-00752*
X-00082Y-00761*
X-00085Y-0077*
Y-0078*
X-00082Y-0079*
X-00077Y-00798*
X-0007Y-00805*
X-00061Y-0081*
X-00052Y-00813*
X-00042*
X-00032Y-0081*
X-00024Y-00805*
X-00017Y-00798*
X-00012Y-0079*
X-00009Y-0078*
Y-0077*
X-00012Y-00762*
X00014Y-00735*
X00079*
X00084Y-00734*
X00089Y-0073*
X00129Y-0069*
X00133Y-00685*
X00134Y-0068*
Y-00481*
X00216Y-00399*
X00263*
X00264Y-00404*
X00262Y-00406*
X0016Y-00508*
X00156Y-00513*
X00155Y-00519*
Y-00676*
X00096Y-00735*
X00093Y-0074*
X00092Y-00745*
Y-00873*
X-00031Y-00997*
X-0004Y-00994*
X-0005*
X-00059Y-00997*
X-00068Y-01002*
X-00075Y-01009*
X-0008Y-01018*
X-00083Y-01027*
Y-01037*
X-0008Y-01047*
X-00075Y-01055*
X-00068Y-01062*
X-00059Y-01067*
X-00058Y-01067*
X-00059Y-01072*
X-0013*
X-0013Y-01067*
X-00129Y-01067*
X-0012Y-01062*
X-00113Y-01055*
X-00108Y-01047*
X-00106Y-01037*
Y-01027*
X-00108Y-01018*
X-00113Y-01009*
X-0012Y-01002*
X-00129Y-00997*
X-00138Y-00994*
X-00148*
X-00158Y-00997*
X-00166Y-01002*
X-00173Y-01009*
X-00178Y-01018*
X-00181Y-01027*
Y-01037*
X-00178Y-01047*
X-00173Y-01055*
X-00166Y-01062*
X-00158Y-01067*
X-00156Y-01067*
X-00157Y-01072*
X-00228*
X-00229Y-01067*
X-00227Y-01067*
X-00219Y-01062*
X-00212Y-01055*
X-00207Y-01047*
X-00204Y-01037*
Y-01027*
X-00207Y-01018*
X-00212Y-01009*
X-00219Y-01002*
X-00227Y-00997*
Y-0094*
X-00228Y-00934*
X-00231Y-00929*
X-00283Y-00877*
X-00288Y-00874*
X-00294Y-00872*
X-00408*
X-00411Y-00869*
X-00413Y-00866*
X-00411Y-00863*
X-00408Y-0086*
X-00226*
X-0022Y-00859*
X-00215Y-00855*
X-00166Y-00806*
X-0016Y-0081*
X-0015Y-00813*
X-0014*
X-00131Y-0081*
X-00122Y-00805*
X-00115Y-00798*
X-0011Y-0079*
X-00108Y-0078*
Y-0077*
X-0011Y-00761*
X-00115Y-00752*
X-00122Y-00745*
X-00131Y-0074*
X-0014Y-00738*
X-0015*
X-0016Y-0074*
X-00168Y-00745*
X-00175Y-00752*
X-0018Y-00761*
X-00183Y-0077*
Y-0078*
X-00232Y-00829*
X-00408*
X-00414Y-00823*
X-00423Y-0082*
X-00433*
X-00442Y-00823*
X-00449Y-0083*
X-00453Y-00839*
Y-00849*
X-00449Y-00858*
X-00444Y-00863*
X-00442Y-00866*
X-00444Y-00869*
X-00449Y-00874*
X-00453Y-00883*
Y-00893*
X-00449Y-00902*
X-00442Y-00909*
X-00433Y-00912*
X-00423*
X-00414Y-00909*
X-00408Y-00903*
X-003*
X-00257Y-00946*
Y-00997*
X-00265Y-01002*
X-00272Y-01009*
X-00277Y-01018*
X-00279Y-01027*
Y-01037*
X-00277Y-01047*
X-00272Y-01055*
X-00265Y-01062*
X-00256Y-01067*
X-00255Y-01067*
X-00255Y-01072*
X-00327*
X-00327Y-01067*
X-00326Y-01067*
X-00317Y-01062*
X-0031Y-01055*
X-00305Y-01047*
X-00303Y-01037*
Y-01027*
X-00305Y-01018*
X-0031Y-01009*
X-00317Y-01002*
X-00326Y-00997*
X-00335Y-00994*
X-00345*
X-00355Y-00997*
X-00363Y-01002*
X-0037Y-01009*
X-00375Y-01018*
X-00378Y-01027*
Y-01037*
X-00375Y-01047*
X-0037Y-01055*
X-00363Y-01062*
X-00355Y-01067*
X-00353Y-01067*
X-00354Y-01072*
X-00397*
X-00401Y-0107*
Y-01067*
Y-00994*
X-00476*
Y-01067*
Y-0107*
X-0048Y-01072*
X-006*
X-00604Y-01068*
X-00612Y-01063*
X-00622Y-01061*
X-00643*
Y-00628*
X-00643Y-00624*
Y-00623*
X-00644Y-00622*
X-00644Y-00618*
X-00647Y-00615*
X-00647Y-00614*
X-00648Y-00613*
X-0065Y-0061*
X-00653Y-00608*
X-00654Y-00607*
X-00655Y-00607*
X-00658Y-00604*
X-00662Y-00603*
X-00663Y-00603*
X-00664*
X-00668Y-00602*
X-00672Y-00603*
X-00673*
X-00674Y-00603*
X-00678Y-00604*
X-00681Y-00607*
X-00682Y-00607*
X-00683Y-00608*
X-00686Y-0061*
X-00688Y-00613*
X-00689Y-00614*
X-00689Y-00615*
X-00692Y-00618*
X-00692Y-00622*
X-00693Y-00623*
Y-00624*
X-00693Y-00628*
Y-01061*
X-00883*
X-00884Y-01056*
X-00881Y-01053*
X-00833Y-01005*
X-00827Y-00997*
X-00825Y-00987*
Y-00719*
X-00756Y-0065*
X-00754Y-00646*
X-00753Y-00646*
X-00753Y-00645*
X-00751Y-00642*
X-0075Y-00637*
X-0075Y-00637*
Y-00636*
X-00749Y-00632*
X-0075Y-00628*
Y-00627*
X-0075Y-00626*
X-00751Y-00622*
X-00753Y-00619*
X-00753Y-00618*
X-00754Y-00617*
X-00756Y-00614*
X-0076Y-00611*
X-0076Y-00611*
X-00761Y-00611*
X-00765Y-00608*
X-00769Y-00607*
X-00769Y-00607*
X-0077*
X-00774Y-00606*
X-00778Y-00607*
X-00779*
X-0078Y-00607*
X-00784Y-00608*
X-00787Y-00611*
X-00788Y-00611*
X-00789Y-00611*
X-00792Y-00614*
X-00869Y-0069*
X-00874Y-00699*
X-00876Y-00708*
Y-00977*
X-00909Y-0101*
X-00977*
Y-00949*
X-01044*
Y-00955*
X-01056*
Y-00943*
Y-00939*
Y-00868*
X-01048*
X-01045Y-0087*
Y-00891*
X-01044Y-00894*
Y-00934*
X-00977*
Y-00866*
X-00994*
Y-0086*
X-00996Y-0085*
X-01001Y-00842*
X-01019Y-00824*
X-01027Y-00818*
X-01037Y-00817*
X-01043*
X-01047Y-00815*
Y-00755*
X-01123*
Y-0076*
X-01172*
X-01246Y-00685*
Y-00645*
X-01173*
Y-00637*
X-01122*
Y-00646*
X-01046*
Y-00586*
X-01086*
X-01089Y-00586*
X-01173*
Y-0054*
X-01189*
Y-0052*
X-01174Y-00506*
X-01048*
X-01047Y-00506*
X-01047Y-00507*
X-01051Y-00511*
X-01122*
Y-00571*
X-01046*
X-01043Y-00575*
Y-00575*
X-00976*
Y-00511*
Y-00508*
X-00971Y-00506*
X-00528*
X-00524Y-00505*
X-00523*
X-00523Y-00504*
X-00519Y-00504*
X-00515Y-00501*
X-00514Y-00501*
X-00514Y-005*
X-0051Y-00498*
X-00508Y-00495*
X-00507Y-00494*
X-00507Y-00493*
X-00505Y-0049*
X-00504Y-00486*
X-00504Y-00485*
Y-00484*
X-00503Y-0048*
X-00504Y-00476*
Y-00475*
X-00504Y-00474*
X-00505Y-0047*
X-00507Y-00467*
X-00507Y-00466*
X-00508Y-00466*
X-0051Y-00462*
X-00508Y-00457*
X-00507Y-00455*
X-00506Y-00454*
X-00506Y-00453*
X-00504Y-0045*
X-00503Y-00446*
X-00502Y-00445*
Y-00444*
X-00502Y-0044*
X-00502Y-00436*
Y-00435*
X-00503Y-00434*
X-00504Y-0043*
X-00506Y-00427*
X-00506Y-00426*
X-00507Y-00426*
X-00509Y-00422*
X-00512Y-0042*
X-00513Y-00419*
X-00514Y-00419*
X-00517Y-00417*
X-00521Y-00416*
X-00522Y-00415*
X-00523*
X-00527Y-00415*
X-01214*
X-01223Y-00417*
X-01226Y-00418*
X-0123Y-00415*
X-01224Y-00407*
X-01222Y-00397*
Y-00216*
X-01179Y-00173*
X-00892*
X-00883Y-00171*
X-00874Y-00166*
X-00667Y00041*
X-00661Y00049*
X-00659Y00059*
Y0009*
X-0066Y00094*
Y00095*
X-0066Y00096*
X-00661Y001*
X-00663Y00103*
X-00664Y00104*
X-00664Y00105*
X-00667Y00108*
X-0067Y0011*
X-00671Y00111*
X-00671Y00111*
X-00675Y00114*
X-00679Y00114*
X-0068Y00115*
X-0068*
X-00685Y00116*
X-00689Y00115*
X-00689*
X-0069Y00114*
X-00694Y00114*
X-00698Y00111*
X-00699Y00111*
X-00699Y0011*
X-00703Y00108*
X-00705Y00105*
X-00705Y00104*
X-00706Y00103*
X-00708Y001*
X-00709Y00096*
X-00709Y00095*
Y00094*
X-0071Y0009*
Y0007*
X-00903Y-00122*
X-0119*
X-012Y-00124*
X-01208Y-0013*
X-01266Y-00187*
X-01271Y-00196*
X-01273Y-00205*
Y-00348*
X-01278Y-00348*
X-01279Y-00345*
X-01284Y-00336*
X-01292Y-00329*
X-01301Y-00323*
X-01311Y-00321*
X-01321*
X-01332Y-00323*
X-01341Y-00329*
X-01348Y-00336*
X-01353Y-00345*
X-01356Y-00355*
Y-00366*
X-01353Y-00376*
X-01348Y-00385*
X-01341Y-00393*
X-01332Y-00398*
X-01321Y-00401*
X-01311*
X-01301Y-00398*
X-01292Y-00393*
X-01284Y-00385*
X-01279Y-00376*
X-01278Y-00373*
X-01273Y-00374*
Y-00387*
X-01323Y-00437*
X-01449*
X-01451Y-00432*
X-0142Y-00401*
X-01411*
X-01401Y-00398*
X-01392Y-00393*
X-01384Y-00385*
X-01379Y-00376*
X-01376Y-00366*
Y-00355*
X-01379Y-00345*
X-01384Y-00336*
X-01392Y-00329*
X-01401Y-00323*
X-01411Y-00321*
X-01421*
X-01432Y-00323*
X-01441Y-00329*
X-01448Y-00336*
X-01453Y-00345*
X-01456Y-00355*
Y-00365*
X-01481Y-0039*
X-01481Y-0039*
X-01482Y-00388*
X-01483Y-00384*
X-01479Y-00376*
X-01476Y-00366*
Y-00355*
X-01479Y-00345*
X-01484Y-00336*
X-01492Y-00329*
X-01501Y-00323*
X-01511Y-00321*
X-01521*
X-01532Y-00323*
X-01541Y-00329*
X-01548Y-00336*
X-01553Y-00345*
X-01556Y-00355*
Y-00366*
X-01553Y-00376*
X-01548Y-00385*
X-01545Y-00388*
X-01547Y-00393*
X-01585*
X-01587Y-00388*
X-01584Y-00385*
X-01579Y-00376*
X-01576Y-00366*
Y-00355*
X-01579Y-00345*
X-01584Y-00336*
X-01592Y-00329*
X-01601Y-00323*
X-01611Y-00321*
X-01621*
X-01632Y-00323*
X-01641Y-00329*
X-01648Y-00336*
X-01653Y-00345*
X-01656Y-00355*
Y-00366*
X-01653Y-00376*
X-01648Y-00385*
X-01645Y-00388*
X-01647Y-00393*
X-01685*
X-01687Y-00388*
X-01684Y-00385*
X-01679Y-00376*
X-01676Y-00366*
Y-00355*
X-01679Y-00345*
X-01684Y-00336*
X-01692Y-00329*
X-01701Y-00323*
X-01711Y-00321*
X-01721*
X-01732Y-00323*
X-01741Y-00329*
X-01748Y-00336*
X-01753Y-00345*
X-01756Y-00355*
Y-00366*
X-01753Y-00376*
X-01748Y-00385*
X-01745Y-00388*
X-01747Y-00393*
X-01785*
X-01785Y-00393*
X-01787Y-00389*
X-01784Y-00385*
X-01779Y-00376*
X-01776Y-00366*
Y-00355*
X-01779Y-00345*
X-01784Y-00336*
X-01792Y-00329*
X-01801Y-00323*
X-01811Y-00321*
X-01821*
X-01832Y-00323*
X-01841Y-00329*
X-01848Y-00336*
X-01853Y-00345*
X-01856Y-00355*
Y-00366*
X-01853Y-00376*
X-01848Y-00385*
X-01841Y-00393*
X-01832Y-00398*
X-01821Y-00401*
X-01811*
X-0181Y-004*
X-01807Y-00405*
X-01844Y-00442*
X-01847Y-00446*
X-01847Y-00446*
X-01848Y-00447*
X-0185Y-0045*
X-01851Y-00454*
X-01851Y-00455*
Y-00456*
X-01852Y-0046*
X-01851Y-00464*
Y-00465*
X-01851Y-00466*
X-0185Y-0047*
X-01848Y-00473*
X-01847Y-00474*
X-01847Y-00475*
X-01844Y-00478*
X-01841Y-0048*
X-0184Y-00481*
X-01839Y-00481*
X-01836Y-00484*
X-01832Y-00484*
X-01831Y-00485*
X-0183*
X-01826Y-00486*
X-01822Y-00485*
X-01821*
X-01821Y-00484*
X-01817Y-00484*
X-01813Y-00481*
X-01812Y-00481*
X-01812Y-0048*
X-01808Y-00478*
X-01774Y-00444*
X-01511*
X-01509Y-00449*
X-01531Y-00472*
X-01537Y-0048*
X-01539Y-0049*
Y-00539*
X-01567*
Y-00646*
X-01484*
Y-00539*
X-01488*
Y-005*
X-01475Y-00488*
X-01313*
X-01303Y-00486*
X-01297Y-00482*
X-01293Y-00485*
X-01295Y-00489*
X-01297Y-00499*
Y-00567*
X-01328*
Y-0054*
X-01411*
Y-00587*
X-01414Y-00588*
X-01416Y-00588*
X-01416Y-00588*
X-01418Y-00585*
X-01422Y-00582*
X-01423Y-00582*
X-01423Y-00582*
X-01427Y-00579*
X-01431Y-00578*
X-01432Y-00578*
X-01432*
X-01437Y-00577*
X-01441Y-00578*
X-01441*
X-01442Y-00578*
X-01446Y-00579*
X-0145Y-00582*
X-0145Y-00582*
X-01451Y-00582*
X-01455Y-00585*
X-01457Y-00588*
X-01457Y-00589*
X-01458Y-0059*
X-0146Y-00593*
X-01461Y-00597*
X-01461Y-00598*
Y-00599*
X-01462Y-00603*
Y-00799*
X-0146Y-00809*
X-01455Y-00817*
X-01421Y-0085*
X-01424Y-00855*
X-01426Y-00854*
X-01815*
X-01825Y-00856*
X-01833Y-00862*
X-0184Y-00869*
X-0185*
X-01852Y-00869*
X-01887*
X-02036Y-0072*
X-02044Y-00714*
X-02054Y-00712*
X-02209*
X-02212Y-00709*
X-0222Y-00705*
X-02229Y-00702*
X-02238*
X-02247Y-00705*
X-02254Y-00708*
X-02282*
X-02289Y-00701*
Y-00651*
X-02291Y-00641*
X-02296Y-00633*
X-02362Y-00568*
X-0237Y-00563*
X-0238Y-00561*
X-02489*
X-02512Y-00538*
Y00312*
X-02399*
X-02389Y00314*
X-02381Y0032*
X-02316Y00384*
X-01971*
Y00357*
G37*
G36*
X-00275Y-00512D02*
X-00267Y-00518D01*
X-00257Y-0052*
X-00186*
X-00171Y-00535*
Y-00548*
X-00173Y-00552*
X-00176Y-0056*
Y-00569*
X-00173Y-00577*
X-00169Y-00584*
X-00163Y-0059*
X-00162Y-00591*
X-00163Y-00596*
X-00288*
X-00373Y-00511*
Y-0042*
X-00369Y-00418*
X-00275Y-00512*
G37*
G36*
X01894Y-00396D02*
X01903Y-00401D01*
X01913Y-00404*
X01924*
X01934Y-00401*
X01943Y-00396*
X01946Y-00393*
X01951Y-00395*
Y-00552*
X01897Y-00606*
X01756*
X01754Y-00601*
X01756Y-00599*
X01761Y-0059*
X01763Y-0058*
Y-00571*
X01761Y-00562*
X01881Y-00442*
X01885Y-00437*
X01886Y-00431*
Y-00395*
X01891Y-00393*
X01894Y-00396*
G37*
G36*
X00701Y-00552D02*
Y-00612D01*
X00667Y-00647*
X00661Y-00655*
X00659Y-00665*
Y-00736*
X00661Y-00745*
X00667Y-00754*
X00688Y-00776*
X00697Y-00781*
X00706Y-00783*
X00759*
X00769Y-00781*
X00777Y-00776*
X00787Y-00766*
X00824*
X00827Y-00769*
Y-00845*
X00798*
X00796Y-00845*
X00746*
X00745Y-00844*
X00741Y-00845*
X0074*
X00739Y-00845*
X00735Y-00846*
X00732Y-00849*
X00731Y-00849*
X0073Y-00849*
X00727Y-00852*
X00725Y-00855*
X00724Y-00856*
X00724Y-00857*
X00721Y-0086*
X00721Y-00864*
X0072Y-00865*
Y-00866*
X00719Y-0087*
X0072Y-00874*
Y-00875*
X00721Y-00875*
X00721Y-0088*
X00724Y-00883*
X00724Y-00884*
X00725Y-00884*
X00727Y-00888*
X00727Y-00888*
X00731Y-0089*
X00731Y-00891*
X00731Y-00891*
X00735Y-00894*
X00745Y-00896*
X00767*
Y-00907*
X00701*
X00691Y-00909*
X00683Y-00915*
X00646Y-00951*
X00641Y-0096*
X00639Y-00969*
Y-01005*
X00631*
Y-01036*
X00602Y-01064*
X00535*
X00533Y-0106*
X00534Y-01059*
X00538Y-01051*
X0054Y-01043*
Y-01034*
X00538Y-01025*
X00534Y-01017*
X00527Y-01011*
X0052Y-01007*
X00511Y-01005*
X00502*
X00494Y-01007*
X00486Y-01011*
X0048Y-01017*
X00475Y-01025*
X00473Y-01034*
Y-01043*
X00475Y-01051*
X0048Y-01059*
X00481Y-0106*
X00479Y-01064*
X00456*
X00454Y-0106*
X00455Y-01059*
X00459Y-01051*
X00462Y-01043*
Y-01034*
X00459Y-01025*
X00455Y-01017*
X00449Y-01011*
X00441Y-01007*
X00432Y-01005*
X00424*
X00415Y-01007*
X00407Y-01011*
X00401Y-01017*
X00397Y-01025*
X00394Y-01034*
Y-01043*
X00397Y-01051*
X00401Y-01059*
X00402Y-0106*
X004Y-01064*
X00377*
X00375Y-0106*
X00376Y-01059*
X00381Y-01051*
X00383Y-01043*
Y-01034*
X00381Y-01025*
X00376Y-01017*
X0037Y-01011*
X00365Y-01008*
Y-009*
X00363Y-00894*
X0036Y-00889*
X0035Y-0088*
X00352Y-00875*
X00354*
X00362Y-00873*
X0037Y-00868*
X00376Y-00862*
X00381Y-00854*
X00383Y-00846*
Y-00837*
X00381Y-00828*
X00376Y-00821*
X0037Y-00814*
X00362Y-0081*
X00354Y-00808*
X00345*
X00339Y-00809*
X00308Y-00778*
Y-00569*
X00318Y-00559*
X00322Y-00561*
Y-00613*
X00397*
Y-00541*
X00434*
X00435Y-00544*
X00435Y-00546*
X00428Y-00552*
X00423Y-00561*
X00421Y-00571*
Y-0058*
X00423Y-0059*
X00428Y-00599*
X00435Y-00606*
X00444Y-00611*
X00453Y-00613*
X00463*
X00473Y-00611*
X00481Y-00606*
X00488Y-00599*
X00493Y-0059*
X00496Y-0058*
Y-00571*
X00493Y-00561*
X00488Y-00552*
X00481Y-00546*
X00482Y-00544*
X00482Y-00541*
X00532*
X00533Y-00544*
X00533Y-00546*
X00527Y-00552*
X00522Y-00561*
X00519Y-00571*
Y-0058*
X00522Y-0059*
X00527Y-00599*
X00534Y-00606*
X00542Y-00611*
X00552Y-00613*
X00562*
X00571Y-00611*
X0058Y-00606*
X00587Y-00599*
X00592Y-0059*
X00594Y-0058*
Y-00571*
X00592Y-00561*
X00587Y-00552*
X0058Y-00546*
X0058Y-00544*
X00581Y-00541*
X0069*
X00701Y-00552*
G37*
G36*
X0031Y-00357D02*
X00309Y-00363D01*
X00308Y-00363*
X00302Y-00369*
X00209*
X00204Y-0037*
X00199Y-00373*
X00108Y-00464*
X00104Y-00469*
X00103Y-00475*
Y-00673*
X00088Y-00689*
X00084Y-00686*
X00085Y-00683*
Y-00673*
X00085Y-00673*
X00088Y-00668*
X0009Y-00662*
Y-00634*
X00096*
Y-00582*
X00063*
X00061Y-00577*
X00064Y-00575*
X00085Y-00554*
X00088Y-00549*
X0009Y-00543*
Y-00535*
X00096*
Y-00484*
X00073*
X00071Y-00479*
X00197Y-00353*
X00306*
X0031Y-00357*
G37*
G36*
X00257Y-00644D02*
Y-00823D01*
X00258Y-00829*
X00262Y-00834*
X00334Y-00906*
Y-01008*
X00329Y-01011*
X00327Y-01013*
X00322Y-01011*
Y-00954*
X0032Y-00944*
X00315Y-00936*
X00277Y-00899*
X00269Y-00893*
X00259Y-00891*
X00256*
X00252Y-00889*
Y-00825*
X00205*
X00204Y-00825*
X00147*
X00143Y-00826*
X00142*
X00141Y-00826*
X00137Y-00827*
X00134Y-00829*
X00133Y-0083*
X00132Y-0083*
X00129Y-00833*
X00127Y-00835*
X00124Y-00835*
X00122Y-00834*
Y-00752*
X00151Y-00723*
X00155Y-00726*
X00155Y-00727*
X00156Y-00731*
Y-00732*
X00156Y-00733*
X00157Y-00737*
X00159Y-0074*
X00159Y-00741*
X0016Y-00742*
X00162Y-00745*
X00166Y-00748*
X00166Y-00748*
X00167Y-00749*
X00171Y-00751*
X00175Y-00752*
X00176Y-00752*
X00176*
X0018Y-00753*
X00199*
X00209Y-00751*
X00217Y-00745*
X00239Y-00723*
X00244Y-00715*
X00246Y-00705*
Y-0067*
X00252*
Y-00643*
X00252Y-00642*
X00257Y-00644*
G37*
G36*
X-01297Y-00696D02*
X-01295Y-00705D01*
X-0129Y-00714*
X-012Y-00803*
X-01192Y-00809*
X-01182Y-00811*
X-01125*
X-01125Y-00812*
X-0113Y-00817*
X-01316*
X-01318Y-00812*
X-01316Y-00811*
X-01311Y-00805*
X-01307Y-00798*
X-01305Y-00791*
Y-00783*
X-01307Y-00776*
X-01311Y-00769*
X-01316Y-00763*
X-01318Y-00762*
Y-00734*
X-01316Y-00733*
X-01311Y-00727*
X-01308Y-00721*
X-01306Y-00714*
Y-00707*
X-01308Y-007*
X-01311Y-00694*
X-01316Y-00688*
X-01323Y-00685*
X-0133Y-00683*
X-01337*
X-01344Y-00685*
X-0135Y-00688*
X-01355Y-00694*
X-01359Y-007*
X-01361Y-00707*
Y-00714*
X-01359Y-00721*
X-01355Y-00727*
X-0135Y-00733*
X-01349Y-00733*
Y-00761*
X-01352Y-00763*
X-01358Y-00769*
X-01362Y-00776*
X-01364Y-00783*
Y-00791*
X-01362Y-00798*
X-01358Y-00805*
X-01352Y-00811*
X-01351Y-00812*
X-01352Y-00817*
X-01383*
X-01411Y-00788*
Y-00645*
X-01328*
Y-00618*
X-01297*
Y-00696*
G37*
G36*
X00923Y-0066D02*
Y-00811D01*
X00918Y-00814*
X00912Y-00821*
X00907Y-00828*
X00905Y-00835*
X00901Y-00837*
X009Y-00837*
X00898Y-00836*
Y-00642*
X00903Y-0064*
X00923Y-0066*
G37*
G36*
X01498Y-00768D02*
X01498Y-0077D01*
X01467Y-00802*
X01463Y-00807*
X01462Y-00812*
Y-00859*
X01463Y-00861*
X01458Y-00864*
X01451Y-00857*
X01443Y-00851*
X01433Y-00849*
X01426*
Y-00836*
X01354*
Y-009*
X01398*
X01401Y-009*
X01423*
X01424Y-00902*
X01428Y-00904*
X01428Y-00905*
X01429Y-00905*
X01427Y-0091*
X01339*
X01329Y-00912*
X01321Y-00917*
X01291Y-00948*
X01285Y-00956*
X01283Y-00966*
Y-01001*
X0128Y-01004*
X01262*
X0126Y-01005*
X0122*
Y-01036*
X01191Y-01064*
X01124*
X01122Y-0106*
X01123Y-01059*
X01127Y-01051*
X0113Y-01043*
Y-01034*
X01127Y-01025*
X01123Y-01017*
X01117Y-01011*
X01109Y-01007*
X011Y-01005*
X01092*
X01083Y-01007*
X01075Y-01011*
X01069Y-01017*
X01065Y-01025*
X01062Y-01034*
Y-01043*
X01065Y-01051*
X01069Y-01059*
X0107Y-0106*
X01068Y-01064*
X01045*
X01043Y-0106*
X01044Y-01059*
X01049Y-01051*
X01051Y-01043*
Y-01034*
X01049Y-01025*
X01044Y-01017*
X01038Y-01011*
X0103Y-01007*
X01022Y-01005*
X01013*
X01004Y-01007*
X00997Y-01011*
X0099Y-01017*
X00986Y-01025*
X00984Y-01034*
Y-01043*
X00986Y-01051*
X0099Y-01059*
X00991Y-0106*
X00989Y-01064*
X00966*
X00965Y-0106*
X00965Y-01059*
X0097Y-01051*
X00972Y-01043*
Y-01034*
X0097Y-01025*
X00965Y-01017*
X00959Y-01011*
X00954Y-01008*
Y-00947*
X00956Y-00945*
X00959Y-00945*
X00959Y-00945*
X00963Y-00948*
X00967Y-00948*
X00968Y-00949*
X00969*
X00973Y-00949*
X01185*
X01195Y-00948*
X01203Y-00942*
X01224Y-00921*
X01286*
X01296Y-00919*
X01304Y-00913*
X01323Y-00895*
X01329Y-00886*
X01331Y-00876*
Y-00765*
X01496*
X01498Y-00768*
G37*
G36*
X-01393Y-00868D02*
X-01137D01*
Y-00877*
X-01174*
X-01184Y-00879*
X-01192Y-00884*
X-01209Y-00901*
X-01256*
Y-00929*
X-01328*
Y-00901*
X-01375*
X-01402Y-00874*
X-01403Y-00871*
X-01401Y-00868*
X-01399Y-00866*
X-01393Y-00868*
G37*
G36*
X-01137Y-00939D02*
D01*
Y-00943*
Y-0101*
X-01169*
X-01173Y-01008*
Y-00937*
X-01164Y-00928*
X-01137*
Y-00939*
G37*
G36*
X01507Y-0091D02*
Y-01008D01*
X01502Y-01011*
X01501Y-01012*
X01496Y-0101*
Y-00965*
X01494Y-00955*
X01489Y-00947*
X0146Y-00917*
X01453Y-00913*
X01452Y-00909*
X01452Y-00909*
X01453Y-00907*
X01456Y-00905*
X01456Y-00905*
X01457Y-00904*
X0146Y-00902*
X01463Y-00899*
X01463Y-00898*
X01464Y-00897*
X01466Y-00894*
X01467Y-0089*
X01467Y-00889*
Y-00888*
X01468Y-00884*
X01467Y-0088*
Y-00879*
X01467Y-00878*
X01466Y-00876*
X01471Y-00873*
X01507Y-0091*
G37*
G36*
X00129Y-00869D02*
X00132Y-00871D01*
X00133Y-00872*
X00134Y-00872*
X00137Y-00874*
X00141Y-00875*
X00142Y-00875*
X00143*
X00147Y-00876*
X0018*
Y-00889*
X00177Y-00892*
X00171Y-00893*
X00163Y-00899*
X00123Y-00938*
X00118Y-00946*
X00116Y-00956*
Y-00993*
Y-01036*
X00079Y-01072*
X-00031*
X-00032Y-01067*
X-0003Y-01067*
X-00022Y-01062*
X-00015Y-01055*
X-0001Y-01047*
X-00007Y-01037*
Y-01027*
X-0001Y-01018*
X00118Y-0089*
X00121Y-00885*
X00122Y-00879*
Y-00868*
X00124Y-00867*
X00127Y-00866*
X00129Y-00869*
G37*
%LNbrushed_pcb_copper_signal_top-4*%
%LPC*%
G36*
X-00026Y00375D02*
X-00036D01*
X-00044Y00371*
X-00051Y00365*
X-00055Y00356*
Y00348*
X-00062*
Y00356*
X-00066Y00365*
X-00073Y00371*
X-00081Y00375*
X-00091*
X-00099Y00371*
X-00106Y00365*
X-0011Y00356*
Y00348*
X-00118*
X-00127Y00344*
X-00134Y00337*
X-00137Y00329*
Y00319*
X-00134Y00311*
X-00127Y00304*
X-00118Y003*
X-0011*
Y00292*
X-00118*
X-00127Y00289*
X-00134Y00282*
X-00137Y00273*
Y00264*
X-00134Y00255*
X-00127Y00249*
X-00118Y00245*
X-0011*
Y00237*
X-00106Y00228*
X-00099Y00221*
X-00091Y00218*
X-00081*
X-00073Y00221*
X-00066Y00228*
X-00062Y00237*
Y00245*
X-00055*
Y00237*
X-00051Y00228*
X-00044Y00221*
X-00036Y00218*
X-00026*
X-00018Y00221*
X-00011Y00228*
X-00007Y00237*
Y00245*
X0*
X00009Y00249*
X00016Y00255*
X00019Y00264*
Y00273*
X00016Y00282*
X00009Y00289*
X0Y00292*
X-00007*
Y003*
X0*
X00009Y00304*
X00016Y00311*
X00019Y00319*
Y00329*
X00016Y00337*
X00009Y00344*
X0Y00348*
X-00007*
Y00356*
X-00011Y00365*
X-00018Y00371*
X-00026Y00375*
G37*
G36*
X0115Y-00538D02*
X0114D01*
X01131Y-00541*
X01122Y-00545*
X01115Y-00552*
X0111Y-00561*
X01108Y-00571*
Y-0058*
X0111Y-0059*
X01115Y-00599*
X01122Y-00606*
X01131Y-00611*
X0114Y-00613*
X0115*
X0116Y-00611*
X01168Y-00606*
X01175Y-00599*
X0118Y-0059*
X01183Y-0058*
Y-00571*
X0118Y-00561*
X01175Y-00552*
X01168Y-00545*
X0116Y-00541*
X0115Y-00538*
G37*
G36*
X01052D02*
X01042D01*
X01032Y-00541*
X01024Y-00545*
X01017Y-00552*
X01012Y-00561*
X01009Y-00571*
Y-0058*
X01012Y-0059*
X01017Y-00599*
X01024Y-00606*
X01032Y-00611*
X01042Y-00613*
X01052*
X01061Y-00611*
X0107Y-00606*
X01077Y-00599*
X01082Y-0059*
X01084Y-0058*
Y-00571*
X01082Y-00561*
X01077Y-00552*
X0107Y-00545*
X01061Y-00541*
X01052Y-00538*
G37*
G36*
X011Y-00808D02*
X01092D01*
X01083Y-0081*
X01075Y-00814*
X01069Y-00821*
X01065Y-00828*
X01062Y-00837*
Y-00846*
X01065Y-00854*
X01069Y-00862*
X01075Y-00868*
X01083Y-00873*
X01092Y-00875*
X011*
X01109Y-00873*
X01117Y-00868*
X01123Y-00862*
X01127Y-00854*
X0113Y-00846*
Y-00837*
X01127Y-00828*
X01123Y-00821*
X01117Y-00814*
X01109Y-0081*
X011Y-00808*
G37*
G36*
X01022D02*
X01013D01*
X01004Y-0081*
X00997Y-00814*
X0099Y-00821*
X00986Y-00828*
X00984Y-00837*
Y-00846*
X00986Y-00854*
X0099Y-00862*
X00997Y-00868*
X01004Y-00873*
X01013Y-00875*
X01022*
X0103Y-00873*
X01038Y-00868*
X01044Y-00862*
X01049Y-00854*
X01051Y-00846*
Y-00837*
X01049Y-00828*
X01044Y-00821*
X01038Y-00814*
X0103Y-0081*
X01022Y-00808*
G37*
G36*
X00776Y-00324D02*
X00766D01*
X00755Y-00326*
X00746Y-00332*
X00739Y-00339*
X00734Y-00348*
X00731Y-00358*
Y-00369*
X00734Y-00379*
X00739Y-00388*
X00746Y-00396*
X00755Y-00401*
X00766Y-00404*
X00776*
X00786Y-00401*
X00795Y-00396*
X00803Y-00388*
X00808Y-00379*
X00811Y-00369*
Y-00358*
X00808Y-00348*
X00803Y-00339*
X00795Y-00332*
X00786Y-00326*
X00776Y-00324*
G37*
G36*
X-02122Y-00128D02*
X-0219D01*
Y-00196*
X-02122*
Y-00128*
G37*
G36*
X-01911Y-00321D02*
X-01921D01*
X-01932Y-00323*
X-01941Y-00329*
X-01948Y-00336*
X-01953Y-00345*
X-01956Y-00355*
Y-00366*
X-01953Y-00376*
X-01948Y-00385*
X-01941Y-00393*
X-01932Y-00398*
X-01921Y-00401*
X-01911*
X-01901Y-00398*
X-01892Y-00393*
X-01884Y-00385*
X-01879Y-00376*
X-01876Y-00366*
Y-00355*
X-01879Y-00345*
X-01884Y-00336*
X-01892Y-00329*
X-01901Y-00323*
X-01911Y-00321*
G37*
G36*
X-00465Y-00322D02*
X-00476D01*
X-00486Y-00325*
X-00495Y-0033*
X-00503Y-00338*
X-00508Y-00347*
X-00511Y-00357*
Y-00367*
X-00508Y-00378*
X-00503Y-00387*
X-00495Y-00394*
X-00486Y-00399*
X-00476Y-00402*
X-00465*
X-00455Y-00399*
X-00446Y-00394*
X-00439Y-00387*
X-00433Y-00378*
X-00431Y-00367*
Y-00357*
X-00433Y-00347*
X-00439Y-00338*
X-00446Y-0033*
X-00455Y-00325*
X-00465Y-00322*
G37*
G36*
X-00565D02*
X-00576D01*
X-00586Y-00325*
X-00595Y-0033*
X-00603Y-00338*
X-00608Y-00347*
X-00611Y-00357*
Y-00367*
X-00608Y-00378*
X-00603Y-00387*
X-00595Y-00394*
X-00586Y-00399*
X-00576Y-00402*
X-00565*
X-00555Y-00399*
X-00546Y-00394*
X-00539Y-00387*
X-00533Y-00378*
X-00531Y-00367*
Y-00357*
X-00533Y-00347*
X-00539Y-00338*
X-00546Y-0033*
X-00555Y-00325*
X-00565Y-00322*
G37*
G36*
X-00665D02*
X-00676D01*
X-00686Y-00325*
X-00695Y-0033*
X-00703Y-00338*
X-00708Y-00347*
X-00711Y-00357*
Y-00367*
X-00708Y-00378*
X-00703Y-00387*
X-00695Y-00394*
X-00686Y-00399*
X-00676Y-00402*
X-00665*
X-00655Y-00399*
X-00646Y-00394*
X-00639Y-00387*
X-00633Y-00378*
X-00631Y-00367*
Y-00357*
X-00633Y-00347*
X-00639Y-00338*
X-00646Y-0033*
X-00655Y-00325*
X-00665Y-00322*
G37*
G36*
X-00765D02*
X-00776D01*
X-00786Y-00325*
X-00795Y-0033*
X-00803Y-00338*
X-00808Y-00347*
X-00811Y-00357*
Y-00367*
X-00808Y-00378*
X-00803Y-00387*
X-00795Y-00394*
X-00786Y-00399*
X-00776Y-00402*
X-00765*
X-00755Y-00399*
X-00746Y-00394*
X-00739Y-00387*
X-00733Y-00378*
X-00731Y-00367*
Y-00357*
X-00733Y-00347*
X-00739Y-00338*
X-00746Y-0033*
X-00755Y-00325*
X-00765Y-00322*
G37*
G36*
X-00865D02*
X-00876D01*
X-00886Y-00325*
X-00895Y-0033*
X-00903Y-00338*
X-00908Y-00347*
X-00911Y-00357*
Y-00367*
X-00908Y-00378*
X-00903Y-00387*
X-00895Y-00394*
X-00886Y-00399*
X-00876Y-00402*
X-00865*
X-00855Y-00399*
X-00846Y-00394*
X-00839Y-00387*
X-00833Y-00378*
X-00831Y-00367*
Y-00357*
X-00833Y-00347*
X-00839Y-00338*
X-00846Y-0033*
X-00855Y-00325*
X-00865Y-00322*
G37*
G36*
X-00965D02*
X-00976D01*
X-00986Y-00325*
X-00995Y-0033*
X-01003Y-00338*
X-01008Y-00347*
X-01011Y-00357*
Y-00367*
X-01008Y-00378*
X-01003Y-00387*
X-00995Y-00394*
X-00986Y-00399*
X-00976Y-00402*
X-00965*
X-00955Y-00399*
X-00946Y-00394*
X-00939Y-00387*
X-00933Y-00378*
X-00931Y-00367*
Y-00357*
X-00933Y-00347*
X-00939Y-00338*
X-00946Y-0033*
X-00955Y-00325*
X-00965Y-00322*
G37*
G36*
X-01065D02*
X-01076D01*
X-01086Y-00325*
X-01095Y-0033*
X-01103Y-00338*
X-01108Y-00347*
X-01111Y-00357*
Y-00367*
X-01108Y-00378*
X-01103Y-00387*
X-01095Y-00394*
X-01086Y-00399*
X-01076Y-00402*
X-01065*
X-01055Y-00399*
X-01046Y-00394*
X-01039Y-00387*
X-01033Y-00378*
X-01031Y-00367*
Y-00357*
X-01033Y-00347*
X-01039Y-00338*
X-01046Y-0033*
X-01055Y-00325*
X-01065Y-00322*
G37*
G36*
X-01664Y-0048D02*
X-01668Y-00481D01*
X-01669*
X-0167Y-00481*
X-01674Y-00482*
X-01677Y-00485*
X-01678Y-00485*
X-01679Y-00485*
X-01682Y-00488*
X-01683Y-00489*
X-01689Y-00497*
X-01691Y-00507*
Y-00539*
X-01723*
Y-00646*
X-0164*
Y-00578*
X-0164Y-00576*
Y-00511*
X-01639Y-00511*
Y-0051*
X-01639Y-00506*
X-01639Y-00502*
Y-00501*
X-0164Y-005*
X-01641Y-00496*
X-01643Y-00493*
X-01643Y-00492*
X-01644Y-00491*
X-01646Y-00488*
X-01649Y-00485*
X-0165Y-00485*
X-01651Y-00485*
X-01654Y-00482*
X-01658Y-00481*
X-01659Y-00481*
X-0166*
X-01664Y-0048*
G37*
G36*
X-02124Y-00593D02*
X-02128Y-00594D01*
X-02128*
X-02129Y-00594*
X-02133Y-00595*
X-02137Y-00598*
X-02138Y-00598*
X-02138Y-00599*
X-02142Y-00601*
X-02144Y-00604*
X-02144Y-00605*
X-02145Y-00606*
X-02147Y-00609*
X-02148Y-00613*
X-02148Y-00614*
Y-00615*
X-02149Y-00619*
X-02148Y-00623*
Y-00624*
X-02148Y-00625*
X-02147Y-00629*
X-02145Y-00632*
X-02144Y-00633*
X-02144Y-00633*
X-02142Y-00637*
X-02107Y-00671*
X-02099Y-00677*
X-02089Y-00679*
X-019*
Y-00692*
X-01825*
Y-00613*
X-019*
Y-00628*
X-02079*
X-02105Y-00601*
X-02109Y-00599*
X-0211Y-00598*
X-0211Y-00598*
X-02114Y-00595*
X-02118Y-00594*
X-02119Y-00594*
X-02119*
X-02124Y-00593*
G37*
G36*
X-00977Y-00669D02*
X-01044D01*
Y-00677*
X-01047Y-00681*
X-01123*
Y-0074*
X-01047*
Y-0074*
X-01044Y-00736*
X-00977*
Y-00669*
G37*
G36*
X-00581Y-00634D02*
X-00585Y-00635D01*
X-00586*
X-00587Y-00635*
X-00591Y-00636*
X-00595Y-00638*
X-00595Y-00638*
X-00596Y-00639*
X-00599Y-00641*
X-00602Y-00645*
X-00602Y-00645*
X-00603Y-00646*
X-00605Y-0065*
X-00606Y-00654*
X-00606Y-00654*
Y-00655*
X-00607Y-00659*
Y-00681*
X-00617*
Y-00744*
X-00546*
Y-00681*
X-00556*
Y-00659*
X-00557Y-00655*
Y-00654*
X-00557Y-00654*
X-00558Y-0065*
X-0056Y-00646*
X-0056Y-00645*
X-00561Y-00645*
X-00563Y-00641*
X-00567Y-00639*
X-00567Y-00638*
X-00568Y-00638*
X-00572Y-00636*
X-00576Y-00635*
X-00576Y-00635*
X-00577*
X-00581Y-00634*
G37*
G36*
X-00239Y-00738D02*
X-00249D01*
X-00258Y-0074*
X-00267Y-00745*
X-00274Y-00752*
X-00279Y-00761*
X-00281Y-0077*
Y-0078*
X-00279Y-0079*
X-00274Y-00798*
X-00267Y-00805*
X-00258Y-0081*
X-00249Y-00813*
X-00239*
X-00229Y-0081*
X-00221Y-00805*
X-00214Y-00798*
X-00209Y-0079*
X-00206Y-0078*
Y-0077*
X-00209Y-00761*
X-00214Y-00752*
X-00221Y-00745*
X-00229Y-0074*
X-00239Y-00738*
G37*
G36*
X-00337D02*
X-00347D01*
X-00357Y-0074*
X-00365Y-00745*
X-00372Y-00752*
X-00377Y-00761*
X-0038Y-0077*
Y-0078*
X-00377Y-0079*
X-00372Y-00798*
X-00365Y-00805*
X-00357Y-0081*
X-00347Y-00813*
X-00337*
X-00328Y-0081*
X-00319Y-00805*
X-00312Y-00798*
X-00307Y-0079*
X-00305Y-0078*
Y-0077*
X-00307Y-00761*
X-00312Y-00752*
X-00319Y-00745*
X-00328Y-0074*
X-00337Y-00738*
G37*
G36*
X-00403D02*
X-00478D01*
Y-00813*
X-00403*
Y-00738*
G37*
G36*
X-00581Y-00888D02*
X-00585Y-00889D01*
X-00586*
X-00587Y-00889*
X-00591Y-0089*
X-00595Y-00892*
X-00595Y-00893*
X-00596Y-00893*
X-00599Y-00896*
X-00602Y-00899*
X-00602Y-009*
X-00603Y-00901*
X-00605Y-00904*
X-00606Y-00908*
X-00606Y-00909*
Y-0091*
X-00607Y-00914*
Y-00933*
X-00617*
Y-00996*
X-00546*
Y-00933*
X-00556*
Y-00914*
X-00557Y-0091*
Y-00909*
X-00557Y-00908*
X-00558Y-00904*
X-0056Y-00901*
X-0056Y-009*
X-00561Y-00899*
X-00563Y-00896*
X-00567Y-00893*
X-00567Y-00893*
X-00568Y-00892*
X-00572Y-0089*
X-00576Y-00889*
X-00576Y-00889*
X-00577*
X-00581Y-00888*
G37*
G36*
X00698Y-00808D02*
X00631D01*
Y-00875*
X00698*
Y-00808*
G37*
G36*
X00511D02*
X00502D01*
X00494Y-0081*
X00486Y-00814*
X0048Y-00821*
X00475Y-00828*
X00473Y-00837*
Y-00846*
X00475Y-00854*
X0048Y-00862*
X00486Y-00868*
X00494Y-00873*
X00502Y-00875*
X00511*
X0052Y-00873*
X00527Y-00868*
X00534Y-00862*
X00538Y-00854*
X0054Y-00846*
Y-00837*
X00538Y-00828*
X00534Y-00821*
X00527Y-00814*
X0052Y-0081*
X00511Y-00808*
G37*
G36*
X00432D02*
X00424D01*
X00415Y-0081*
X00407Y-00814*
X00401Y-00821*
X00397Y-00828*
X00394Y-00837*
Y-00846*
X00397Y-00854*
X00401Y-00862*
X00407Y-00868*
X00415Y-00873*
X00424Y-00875*
X00432*
X00441Y-00873*
X00449Y-00868*
X00455Y-00862*
X00459Y-00854*
X00462Y-00846*
Y-00837*
X00459Y-00828*
X00455Y-00821*
X00449Y-00814*
X00441Y-0081*
X00432Y-00808*
G37*
%LNbrushed_pcb_copper_signal_top-5*%
%LPD*%
G54D14*
X-00226Y-00844D02*
X-00156Y-00775D01*
X-00428Y-00844D02*
X-00226D01*
X-00156Y-00775D02*
X-00145D01*
X02281Y00308D02*
X02312Y00277D01*
X00919Y00308D02*
X02281D01*
X00885Y00341D02*
X00919Y00308D01*
X01003Y-00124D02*
Y00114D01*
Y-00124D02*
X01003Y-00125D01*
X01308Y00364D02*
X01324Y00347D01*
X02327*
X0239Y00284*
X00885Y00409D02*
X00894Y00418D01*
X00885Y00341D02*
Y00409D01*
X01483Y-00613D02*
X01561Y-0069D01*
X01519Y-00838D02*
X01561Y-00797D01*
Y-0069*
X0153Y-00761D02*
Y-00708D01*
X01455Y-00634D02*
X0153Y-00708D01*
X01455Y-00634D02*
Y-00554D01*
X01483Y-00613D02*
Y-00533D01*
X01262Y-00428D02*
X01378D01*
X0137Y-00391D02*
X0139Y-00412D01*
X01378Y-00428D02*
X01483Y-00533D01*
X0137Y-00391D02*
Y-00287D01*
X0139Y-00412D02*
X0177D01*
X01818Y-00364*
X01237Y-00468D02*
X01369D01*
X01455Y-00554*
X0122Y-00451D02*
X01237Y-00468D01*
X0167Y00192D02*
X01966Y-00103D01*
X01363Y00192D02*
X0167D01*
X01362Y00194D02*
X01363Y00192D01*
X01003Y00115D02*
X01003Y00114D01*
X00107Y-00879D02*
Y-00745D01*
X-00045Y-01032D02*
X00107Y-00879D01*
Y-00745D02*
X0017Y-00682D01*
Y-00519*
X00079Y-0072D02*
X00119Y-0068D01*
Y-00475D02*
X00209Y-00384D01*
X00119Y-0068D02*
Y-00475D01*
X00209Y-00384D02*
X00322D01*
X0019Y-00338D02*
X00326D01*
X00033Y-00495D02*
X0019Y-00338D01*
X0017Y-00519D02*
X00273Y-00417D01*
X00318*
X01746Y-00327D02*
Y-00001D01*
X01273Y00062D02*
X01682D01*
X01746Y-00001*
X00938Y00364D02*
X01308D01*
X0239Y-00362D02*
Y00284D01*
X02312Y-00362D02*
Y00277D01*
X01333Y00232D02*
X01362Y00203D01*
X00766Y00232D02*
X01333D01*
X-01075Y0041D02*
X-00918D01*
X-00867Y0036*
Y00052D02*
Y0036D01*
X-00951Y00333D02*
X-00897D01*
X0006Y-00676D02*
X00074Y-00662D01*
Y-00608*
X0006Y-00678D02*
Y-00676D01*
X00394Y-00461D02*
X00403D01*
X00293Y-00562D02*
X00394Y-00461D01*
X00403D02*
X00404Y-00459D01*
X00293Y-00785D02*
Y-00562D01*
X00273Y-00823D02*
Y-00549D01*
X00401Y-00421*
X00631Y00083D02*
X00631Y00083D01*
X00654*
X00763Y00192*
X00632Y00131D02*
X00652D01*
X00753Y00232*
X0063Y00129D02*
X00632Y00131D01*
X00753Y00232D02*
X00766D01*
X00586Y-00208D02*
X0066D01*
X005Y-00122D02*
X00586Y-00208D01*
X0104Y-00462D02*
X01119Y-00384D01*
X0187Y-00431D02*
Y-00063D01*
X01361Y00115D02*
X01692D01*
X0187Y-00063*
X01627Y-00576D02*
X01673Y-00621D01*
X01903*
X01966Y-00558*
Y-00103*
X01726Y-00576D02*
X0187Y-00431D01*
X01362Y00194D02*
Y00203D01*
X01318Y00157D02*
X01361Y00115D01*
X01318Y00157D02*
Y00192D01*
X00763D02*
X01318D01*
X01213Y00123D02*
X01273Y00062D01*
X01718Y-00364D02*
Y-00355D01*
X01746Y-00327*
X01515Y-00023D02*
X01618D01*
X01716*
X00938Y-00841D02*
Y-00654D01*
X00903Y-00618D02*
Y-00541D01*
Y-00618D02*
X00938Y-00654D01*
X01019Y-00396D02*
Y-00311D01*
X00883Y-00532D02*
X01019Y-00396D01*
X00883Y-00844D02*
Y-00532D01*
Y-00844D02*
X00938Y-009D01*
X00981Y-00462D02*
X0104D01*
X00903Y-00541D02*
X00981Y-00462D01*
X00938Y-00841D02*
X00938D01*
X00669Y-00188D02*
X00715Y-00235D01*
X00707Y-00255D02*
X00941D01*
X00971Y-00284*
X0087Y-00285D02*
X0087Y-00285D01*
Y-00363D02*
Y-00285D01*
Y-00363D02*
X00871Y-00364D01*
X0066Y-00208D02*
X00707Y-00255D01*
X00715Y-00235D02*
X01318D01*
X0137Y-00287*
X00971Y-00364D02*
Y-00284D01*
X01478Y-00812D02*
X0153Y-00761D01*
X01478Y-00859D02*
Y-00812D01*
X01523Y-01038D02*
Y-00903D01*
Y-01038D02*
D01*
X01478Y-00859D02*
X01523Y-00903D01*
X01519Y-00841D02*
Y-00838D01*
X00399Y00446D02*
X00451D01*
X0096Y0046D02*
X01125D01*
X01125Y0046*
X0096Y00461D02*
X0096Y0046D01*
X00938Y-01038D02*
X00938Y-01038D01*
Y-009*
X00938Y-00841D02*
X00938Y-00841D01*
X-00047Y-00775D02*
X00008Y-0072D01*
X00079*
X0122Y-00451D02*
Y-00428D01*
X00617Y-00188D02*
X00669D01*
X00523Y-00094D02*
X00617Y-00188D01*
X01119Y-00384D02*
Y-00314D01*
X00293Y-00785D02*
X00349Y-00841D01*
Y-01038D02*
Y-009D01*
X00273Y-00823D02*
X00349Y-009D01*
X-00457Y00102D02*
X-00361D01*
X-00457Y0005D02*
X-00359D01*
X-00867Y00052D02*
X-00867Y00052D01*
X-00457Y00153D02*
X-00362D01*
X-00359Y0015*
X-00216Y-00448D02*
X-00165D01*
X-00118Y-00495*
X00033*
X00074Y-00113D02*
Y00035D01*
X-00294Y-00888D02*
X-00242Y-0094D01*
Y-01032D02*
Y-0094D01*
X-00428Y-00888D02*
X-00294D01*
X00053Y-00564D02*
X00074Y-00543D01*
Y-00509*
X-00025Y-00564D02*
X00053D01*
X00399Y00044D02*
X00451D01*
X00399Y00095D02*
X00451D01*
X00399Y00245D02*
X00451D01*
X00399Y00296D02*
X00451D01*
X00399Y00343D02*
X00451D01*
X00399Y-00002D02*
X00451D01*
X-01334Y-00787D02*
Y-00711D01*
X-01334Y-00787D02*
X-01334Y-00787D01*
Y-00711D02*
X-01333Y-00711D01*
X-00144Y-01032D02*
X-00143Y-01032D01*
X00074Y-00113D02*
X00075Y-00114D01*
X00399Y00245D02*
Y00245D01*
X-00457Y0035D02*
X-00359D01*
X-00457D02*
D01*
X-00964Y0032D02*
X-00951Y00333D01*
X0036Y0D02*
X00399Y-00002D01*
X0036Y0005D02*
X00399Y00044D01*
X0036Y001D02*
X00399Y00095D01*
X0036Y0025D02*
X00399Y00245D01*
X0036Y003D02*
X00399Y00296D01*
X0036Y0035D02*
X00399Y00343D01*
X0036Y004D02*
X00399Y00394D01*
X00451*
X0036Y0045D02*
X00399Y00446D01*
X-00361Y00102D02*
X-00359Y001D01*
X-00359Y002D02*
X-00359Y002D01*
X-00457Y002D02*
X-00359D01*
X-00457Y00299D02*
X-0036D01*
X-00359Y003*
X-00457Y00248D02*
X-00361D01*
X-00359Y0025*
G54D20*
X0222Y-00134D03*
X02137D03*
X02529Y-002D03*
X02446D03*
G54D21*
X-01085Y-00785D03*
Y-0071D03*
X-01084Y-00541D03*
Y-00616D03*
G54D22*
X-00581Y-01047D03*
Y-00964D03*
X02617Y00457D03*
Y00539D03*
X-02404Y-00785D03*
Y-00702D03*
X-02623Y00445D03*
Y00528D03*
X00802Y-00556D03*
Y-00639D03*
X00216Y-00556D03*
Y-00639D03*
X0139Y-00556D03*
Y-00639D03*
X02366Y-00683D03*
Y-00765D03*
X00216Y-00857D03*
Y-00774D03*
X0139Y-00868D03*
Y-00785D03*
X00802Y-00877D03*
Y-00794D03*
X00805Y-01074D03*
Y-00991D03*
X0139Y-01068D03*
Y-00985D03*
X-00581Y-00795D03*
Y-00712D03*
X00216Y-00991D03*
Y-01074D03*
G54D23*
X0222Y00266D03*
X02137D03*
X0222Y00172D03*
X02137D03*
X02224Y00077D03*
X02141D03*
X02224Y-00012D03*
X02141D03*
X00664Y-01038D03*
X01253Y-00841D03*
X00664D03*
X01253Y-01038D03*
X01837D03*
X01834Y-00841D03*
X-02156Y00314D03*
Y00155D03*
Y-00002D03*
Y-00162D03*
G54D24*
X-01525Y-00592D03*
X-0137Y-00954D03*
X-01214D03*
X-01682Y-00592D03*
G54D25*
X-01525Y-00954D03*
X-0137Y-00592D03*
X-01214D03*
X-01682Y-00954D03*
G54D26*
X-0101Y-00785D03*
Y-00702D03*
X-01009Y-00624D03*
Y-00541D03*
X-01011Y-009D03*
Y-00983D03*
X-00299Y00968D03*
Y01051D03*
G54D27*
X-01096Y-00979D03*
Y-00902D03*
G54D28*
X-01291Y0032D03*
Y00209D03*
X-014Y0032D03*
Y00209D03*
X-01509Y0032D03*
Y00209D03*
X-01618Y0032D03*
Y00209D03*
X-01836Y0032D03*
Y00209D03*
X-01945Y0032D03*
Y00209D03*
X-01727Y0032D03*
Y00209D03*
X-01073Y0032D03*
Y00209D03*
X-01182Y0032D03*
Y00209D03*
X-00964Y0032D03*
Y00209D03*
G54D29*
X00074Y-00608D03*
Y-00509D03*
G54D30*
X025Y00228D03*
Y00082D03*
Y-00047D03*
G54D31*
X-00003Y00351D03*
X-00059D03*
X-00114D03*
X-00003Y00241D03*
X-00059D03*
X-00114D03*
X-00003Y00296D03*
X-00114D03*
X-00059D03*
G54D32*
X00275Y-00114D03*
X00225D03*
X00175D03*
X00125D03*
X00075D03*
X00025D03*
X-00025D03*
X-00075D03*
X-00125D03*
X-00175D03*
X-00225D03*
X-00275D03*
G54D33*
X0036Y006D03*
Y-00049D03*
Y0D03*
Y0005D03*
Y001D03*
Y0015D03*
Y002D03*
Y0025D03*
Y003D03*
Y0035D03*
Y004D03*
Y0045D03*
Y005D03*
Y0055D03*
X-00359Y0045D03*
Y004D03*
Y0035D03*
Y003D03*
Y0025D03*
Y002D03*
Y0015D03*
Y001D03*
Y0005D03*
Y0D03*
Y-00049D03*
Y005D03*
Y0055D03*
Y006D03*
G54D34*
X-01863Y-00908D03*
Y-00653D03*
G54D35*
X-00385Y01037D03*
Y00964D03*
G54D54*
X-00441Y-00775D03*
X00948Y-00576D03*
X-00439Y-01032D03*
X0036Y-00576D03*
X01529D03*
G54D55*
X-00342Y-00775D03*
X-00244D03*
X-00145D03*
X-00047D03*
X0005D03*
X01047Y-00576D03*
X01145D03*
X01244D03*
X-0034Y-01032D03*
X-00242D03*
X-00143D03*
X-00045D03*
X00052D03*
X00655Y-00576D03*
X00557D03*
X00458D03*
X01824D03*
X01726D03*
X01627D03*
G54D56*
X00349Y-01038D03*
X00428D03*
X00507D03*
X00585D03*
X-02274Y-00162D03*
Y00155D03*
Y00314D03*
Y-00002D03*
X-02215Y00314D03*
Y00155D03*
Y-00002D03*
Y-00162D03*
X00938Y-00841D03*
X01017D03*
X01096D03*
X01175D03*
X00585D03*
X00507D03*
X00428D03*
X00349D03*
X01175Y-01038D03*
X01096D03*
X01017D03*
X00938D03*
X01759D03*
X0168D03*
X01601D03*
X01523D03*
X01755Y-00841D03*
X01677D03*
X01598D03*
X01519D03*
G54D64*
X-00202Y-00564D03*
X-00143D03*
X-00084D03*
G54D65*
X-00025Y-00564D03*
G54D69*
X01885Y00082D02*
Y00278D01*
X0218Y00477D02*
X02181Y00477D01*
X01726Y00477D02*
X0218D01*
X0231Y00437D02*
X02446Y00573D01*
X01595Y0055D02*
X01709Y00437D01*
X01592Y0061D02*
X01726Y00477D01*
X01709Y00437D02*
X0231D01*
X01783Y0052D02*
Y00717D01*
X01235Y005D02*
X01358Y00377D01*
X02393D02*
X02448Y00322D01*
X01358Y00377D02*
X02393D01*
X0036Y0055D02*
X01595D01*
X01126Y0061D02*
X01592D01*
X00582Y00052D02*
X008Y-00165D01*
X00582Y00052D02*
Y00141D01*
X00523Y002D02*
X00582Y00141D01*
X008Y-00165D02*
X01466D01*
X01518Y-00217*
X-01226Y-00019D02*
X-01073Y00133D01*
X-01879Y-00019D02*
X-01226D01*
X-02123Y-00263D02*
X-01879Y-00019D01*
X-02024Y0002D02*
X-01363D01*
X-01291Y00093*
X-02128Y-00083D02*
X-02024Y0002D01*
X-01751Y00103D02*
X-01728Y00126D01*
X-02222Y00063D02*
X-01562D01*
X-02236Y00103D02*
X-01751D01*
X-01562Y00063D02*
X-01509Y00116D01*
X-02209Y-00083D02*
X-02128D01*
X-00298Y-00357D02*
X-00226D01*
X-00075Y-00205*
X-00279Y-00397D02*
X-00204D01*
X-00025Y-00217*
X-0137Y-01027D02*
X-01361Y-01035D01*
X-0137Y-01027D02*
Y-00954D01*
X-00851Y-00987D02*
Y-00708D01*
X-00774Y-00632*
X-00899Y-01035D02*
X-00851Y-00987D01*
X-01185Y-0048D02*
X-00528D01*
X-01214Y-00509D02*
X-01185Y-0048D01*
X-01294Y0041D02*
X-01075D01*
X-01073Y00408*
Y0032D02*
Y00408D01*
X-02089Y-00653D02*
X-01863D01*
X-01863Y-00653*
X-02124Y-00619D02*
X-02089Y-00653D01*
X-00668Y-01086D02*
X-00622D01*
X-01738D02*
X-00668D01*
Y-00628*
X-01761Y-01062D02*
X-01738Y-01086D01*
X-01506Y0041D02*
X-01294D01*
X-01292Y00408*
Y00322D02*
Y00408D01*
X-01728Y0041D02*
X-01506D01*
X-01507Y00409D02*
X-01506Y0041D01*
X-01947D02*
X-01728D01*
X-01727Y00409*
X-02327Y0041D02*
X-01947D01*
X-01945Y00409*
X-02399Y00338D02*
X-02327Y0041D01*
X-02385Y00414D02*
X-0235Y0045D01*
X-00359*
X-02537Y00338D02*
X-02399D01*
X-02452Y00414D02*
X-02385D01*
X01339Y-00935D02*
X01442D01*
X01309Y-00966D02*
X01339Y-00935D01*
X01309Y-01012D02*
Y-00966D01*
X01253Y-01038D02*
X01262Y-0103D01*
X01291*
X01309Y-01012*
X00553Y-00281D02*
X00571Y-00299D01*
Y-00364D02*
Y-00299D01*
X00635Y-00241D02*
X00671Y-00277D01*
X00343Y-00241D02*
X00635D01*
X00277Y-00175D02*
X00343Y-00241D01*
X00225Y-00181D02*
X00325Y-00281D01*
X00553*
X00225Y-00181D02*
Y-00114D01*
X00277Y-00175D02*
Y-00116D01*
X00275Y-00114D02*
X00277Y-00116D01*
X-0185Y-00894D02*
X-0183D01*
X-01815Y-0088*
X-01426Y-00886D02*
X-0137Y-00942D01*
X-01815Y-0088D02*
X-01426D01*
X-01682Y-00592D02*
X-01665Y-00576D01*
Y-00507*
X-01664Y-00506*
X-01863Y-00907D02*
X-0185Y-00894D01*
X-01426Y-00886D02*
Y-0088D01*
X-01895Y-00897D02*
X-01874D01*
X-01863Y-00908*
X-02054Y-00738D02*
X-01895Y-00897D01*
X-02234Y-00738D02*
X-02054D01*
X-0137Y-00954D02*
Y-00942D01*
X-01525Y-00592D02*
X-01525Y-00592D01*
X-01519*
X-00685Y00059D02*
Y0009D01*
X-00892Y-00148D02*
X-00685Y00059D01*
X-0119Y-00148D02*
X-00892D01*
X-01248Y-00205D02*
X-0119Y-00148D01*
X-01248Y-00397D02*
Y-00205D01*
X-01313Y-00462D02*
X-01248Y-00397D01*
X-01486Y-00462D02*
X-01313D01*
X-01513Y-0049D02*
X-01486Y-00462D01*
X-01513Y-00587D02*
Y-0049D01*
X-01519Y-00592D02*
X-01513Y-00587D01*
X-0137Y-00954D02*
X-01214D01*
X-0137Y-00592D02*
X-01281D01*
X-01272Y-00601*
X-02234Y-00659D02*
Y-00584D01*
X-02079Y-00429*
X00209Y-0108D02*
X00216Y-01074D01*
X00174Y-0108D02*
X00209D01*
X00153Y-01101D02*
X00174Y-0108D01*
X025Y00083D02*
Y0014D01*
X02511Y00152*
X025Y00083D02*
X025Y00082D01*
X02497Y00224D02*
X025Y00228D01*
X02429Y00224D02*
X02497D01*
X02522Y-00194D02*
Y-00142D01*
Y-00194D02*
X02529Y-002D01*
X02518Y-00138D02*
X02522Y-00142D01*
X0222Y-00134D02*
X02278D01*
X02279Y-00133*
X00519Y00003D02*
X00728Y-00205D01*
X01354D02*
X01418Y-00269D01*
X00728Y-00205D02*
X01354D01*
X01578Y-00661D02*
X01803D01*
X01877Y-00736D02*
X02193D01*
X01803Y-00661D02*
X01877Y-00736D01*
X02193D02*
X02195Y-00738D01*
X01305Y-00739D02*
Y-0072D01*
Y-00876D02*
Y-00739D01*
X015Y-0074D02*
X015D01*
X01305Y-00739D02*
X01499D01*
X015Y-0074*
X01345Y-00699D02*
Y-0068D01*
X01379Y-00645*
X01433Y-00875D02*
X01442Y-00884D01*
X01401Y-00875D02*
X01433D01*
X01394Y-00868D02*
X01401Y-00875D01*
X01442Y-00935D02*
X01471Y-00965D01*
X01286Y-00895D02*
X01305Y-00876D01*
X01379Y-00645D02*
X01383D01*
X01275Y-00519D02*
X01305Y-00549D01*
Y-0072D02*
X01305Y-0072D01*
X01383Y-00645D02*
X0139Y-00639D01*
X01305Y-0072D02*
Y-00549D01*
X0048Y0061D02*
X01126D01*
X0036Y005D02*
X01235D01*
X00433Y00656D02*
X0048Y0061D01*
X-005Y00656D02*
X00433D01*
X-02452Y00493D02*
X-00663D01*
X-005Y00656*
X-00101Y-00622D02*
X-00087Y-00607D01*
X-00399Y-00522D02*
X-00299Y-00622D01*
X-00087Y-00607D02*
Y-00567D01*
X-00299Y-00622D02*
X-00101D01*
X-00581Y-00712D02*
Y-00659D01*
X01214Y-00895D02*
X01286D01*
X01185Y-00924D02*
X01214Y-00895D01*
X00973Y-00924D02*
X01185D01*
X00685Y-00736D02*
X00706Y-00758D01*
X00887Y-00908D02*
X00889D01*
X00853Y-00874D02*
X00887Y-00908D01*
X00776Y-00741D02*
X00835D01*
X00853Y-00758*
Y-00874D02*
Y-00758D01*
X00701Y-00933D02*
X0085D01*
X00881Y-00964*
Y-01059D02*
Y-00964D01*
X00759Y-00758D02*
X00776Y-00741D01*
X00706Y-00758D02*
X00759D01*
X00664Y-00969D02*
X00701Y-00933D01*
X00664Y-01038D02*
Y-00969D01*
X00745Y-0087D02*
X00745Y-0087D01*
X00796*
X00685Y-00736D02*
Y-00665D01*
X00727Y-00623*
Y-00542*
X00734Y-00709D02*
Y-00703D01*
X00798Y-00639*
X007Y-00515D02*
X00727Y-00542D01*
X00798Y-00639D02*
X00802D01*
X00397Y-00515D02*
X007D01*
X-00125Y-00114D02*
Y00004D01*
X-00124Y00005*
X00938Y-01038D02*
X00938D01*
X00671Y-00364D02*
Y-00277D01*
X00519Y00003D02*
Y00129D01*
X-00175Y-00114D02*
Y-00034D01*
X-00174Y-00034*
X00125Y-00043D02*
X00301D01*
X00304Y-00046*
X00147Y-00851D02*
X00204D01*
X-0061Y-01098D02*
X0009D01*
X-00622Y-01086D02*
X-0061Y-01098D01*
X0009D02*
X00141Y-01047D01*
X01471Y-0106D02*
Y-00965D01*
Y-0106D02*
X01501Y-0109D01*
X01786*
X01837Y-01038*
X00881Y-01059D02*
X00912Y-0109D01*
X01202*
X01253Y-01038*
X00141Y-00993D02*
Y-00956D01*
Y-01047D02*
Y-00993D01*
X00297Y-01059D02*
X00328Y-0109D01*
X00613*
X00664Y-01038*
X00297Y-01059D02*
Y-00954D01*
X00181Y-00917D02*
X00259D01*
X00297Y-00954*
X00141Y-00956D02*
X00181Y-00917D01*
X-00581Y-00964D02*
Y-00914D01*
X-00257Y-00494D02*
X-00176D01*
X-00146Y-00524*
Y-00561D02*
Y-00524D01*
X-00359Y-00392D02*
X-00257Y-00494D01*
X00173Y-00241D02*
Y-00115D01*
X00123Y-00195D02*
Y-00116D01*
X00125Y-00114*
X00173Y-00115D02*
X00175Y-00114D01*
X-01214Y-0044D02*
X-00527D01*
X-01272Y-00499D02*
X-01214Y-0044D01*
X-01214Y-00604D02*
Y-00509D01*
X-02537Y-00548D02*
Y00338D01*
X-025Y-00586D02*
X-0238D01*
X-02537Y-00548D02*
X-025Y-00586D01*
X-02314Y-00711D02*
X-02305Y-00721D01*
X-02292Y-00734*
X-02314Y-00711D02*
Y-00651D01*
X-02292Y-00734D02*
X-02238D01*
X-02234Y-00738*
X-0238Y-00586D02*
X-02314Y-00651D01*
X-0075Y004D02*
X-00359D01*
X-00818Y00332D02*
X-0075Y004D01*
X-00818Y00044D02*
Y00332D01*
X-00921Y-00058D02*
X-00818Y00044D01*
X-01192Y-00058D02*
X-00921D01*
X-01383Y-00249D02*
X-01192Y-00058D01*
X-02017Y-00249D02*
X-01383D01*
X-02079Y-00311D02*
X-02017Y-00249D01*
X-02079Y-00429D02*
Y-00311D01*
X-01836Y00269D02*
X-01182D01*
X-02112D02*
X-01836D01*
Y0032*
X-02114Y00267D02*
X-02112Y00269D01*
X00357Y-00046D02*
X0036Y-00049D01*
X00304Y-00046D02*
X00357D01*
X-01437Y-00799D02*
X-01393Y-00842D01*
X-01019Y-00891D02*
X-01011Y-009D01*
X-01037Y-00842D02*
X-01019Y-0086D01*
Y-00891D02*
Y-0086D01*
X-01393Y-00842D02*
X-01037D01*
X-01182Y00269D02*
X-01025D01*
X-01182D02*
Y0032D01*
X-0101Y00285D02*
X-00974Y0032D01*
X-01025Y00269D02*
X-0101Y00283D01*
X-00974Y0032D02*
X-00964D01*
X-0101Y00283D02*
Y00285D01*
X-01192Y0032D02*
X-01182D01*
X-01204Y00309D02*
X-01192Y0032D01*
X-01836D02*
X-01826D01*
X01783Y00717D02*
X01804Y00739D01*
X01386Y-01061D02*
X01395Y-0107D01*
X0132Y-01061D02*
X01386D01*
X0132Y-01061D02*
X0132Y-01061D01*
X00796Y-0087D02*
X00802Y-00877D01*
X-00342Y-00775D02*
X-00341Y-00776D01*
X00506Y00141D02*
X00519Y00129D01*
X0036Y0015D02*
X00497D01*
X0036Y002D02*
X00523D01*
X-01361Y-01035D02*
X-00899D01*
X-02404Y-00644D02*
X-02404Y-00643D01*
X00735Y-01071D02*
X00803D01*
X00805Y-01074*
X00729Y-01065D02*
X00735Y-01071D01*
X-00444Y0D02*
X-00359D01*
X-0047Y-00025D02*
X-00444Y0D01*
X-0047Y-00185D02*
Y-00025D01*
X-00359Y-00392D02*
Y-00049D01*
X-0047Y-00185D02*
X-00399Y-00256D01*
Y-00522D02*
Y-00256D01*
X-01437Y-00799D02*
Y-00603D01*
X-01272Y-00696D02*
X-01182Y-00785D01*
X-01272Y-00696D02*
Y-00601D01*
Y-00499*
X-01474Y-00419D02*
X-01416Y-00361D01*
X-01785Y-00419D02*
X-01474D01*
X-01826Y-0046D02*
X-01785Y-00419D01*
X-02411Y-00263D02*
X-02123D01*
X-02449Y-00312D02*
Y-00303D01*
X-02445Y-00299*
X-02449Y-00312D02*
X-02445Y-00315D01*
X-00075Y-00205D02*
Y-00114D01*
X-01089Y-00611D02*
X-01084Y-00616D01*
X-01207Y-00611D02*
X-01089D01*
X-01214Y-00604D02*
X-01207Y-00611D01*
X-01182Y-00785D02*
X-01085D01*
X-00025Y-00217D02*
Y-00114D01*
X-00146Y-00561D02*
X-00143Y-00564D01*
X-00087Y-00567D02*
X-00084Y-00564D01*
X-01095Y-00981D02*
X-01012D01*
X-01096Y-00979D02*
X-01095Y-00981D01*
X-01012D02*
X-01011Y-00983D01*
X-01214Y-00942D02*
X-01174Y-00902D01*
X-01096*
X-01214Y-00954D02*
Y-00942D01*
X0222Y00266D02*
X02273D01*
X-01084Y-00541D02*
X-01009D01*
X-01084Y-00541D02*
X-01084Y-00541D01*
X-01009D02*
X-01009Y-00541D01*
X-01081Y-00706D02*
X-01014D01*
X-01085Y-0071D02*
X-01081Y-00706D01*
X-01014D02*
X-0101Y-00702D01*
X02226Y-00012D02*
X02279D01*
X02224Y00077D02*
X02277D01*
X0222Y00172D02*
X02273D01*
X02448Y00322D02*
X02562D01*
X02598Y00287*
Y-00555D02*
Y00287D01*
X02543Y-0061D02*
X02598Y-00555D01*
X02196Y-00659D02*
X02245Y-0061D01*
X02543*
X02195Y-00659D02*
X02196D01*
X01418Y-00364D02*
Y-00269D01*
X00497Y0015D02*
X00506Y00141D01*
X01518Y-00364D02*
Y-00217D01*
X-02445Y-00297D02*
X-02411Y-00263D01*
X-02445Y-00299D02*
Y-00297D01*
X-01292Y00322D02*
X-01291Y0032D01*
X-01727D02*
Y00409D01*
X-01509Y0032D02*
X-01507Y00323D01*
Y00409*
X-01945Y0032D02*
Y00409D01*
X-00364Y01051D02*
X-00299D01*
X-00385Y01037D02*
X-00377D01*
X-00364Y01051*
X-00413Y00984D02*
X-00393Y00964D01*
X-00492Y00984D02*
X-00413D01*
X-00393Y00964D02*
X-00385D01*
X02617Y00457D02*
X02618Y00455D01*
X-02271Y-00145D02*
X-02209Y-00083D01*
X-01728Y00126D02*
Y00208D01*
X-02537Y00472D02*
X-0252Y00489D01*
X-02537Y00338D02*
Y00472D01*
X-0252Y00489D02*
X-02456D01*
X-02452Y00493*
X-014Y00272D02*
Y0032D01*
X-01618Y00272D02*
Y0032D01*
X-02271Y-00159D02*
Y-00145D01*
X-02274Y-00162D02*
X-02271Y-00159D01*
Y0D02*
Y00014D01*
X-02222Y00063*
X-02274Y-00002D02*
X-02271Y0D01*
X-01509Y00116D02*
Y00209D01*
X-01073D02*
X-00964D01*
X-01073Y00133D02*
Y00209D01*
X-01291Y00093D02*
Y00209D01*
X-01182*
X-01509D02*
X-014D01*
X-01727D02*
X-01618D01*
X-01728Y00208D02*
X-01727Y00209D01*
X-02271Y00137D02*
X-02236Y00103D01*
X-02271Y00137D02*
Y00151D01*
X-02274Y00155D02*
X-02271Y00151D01*
X-01945Y00209D02*
X-01836D01*
X-02182D02*
X-01945D01*
X-02271Y00297D02*
Y00311D01*
X-02274Y00314D02*
X-02271Y00311D01*
Y00297D02*
X-02182Y00209D01*
X-02404Y-00702D02*
Y-00644D01*
X-02624Y00532D02*
Y00598D01*
Y00532D02*
X-02623Y00531D01*
X02618Y0039D02*
Y00455D01*
X02367Y-00832D02*
Y-00767D01*
X02366Y-00765D02*
X02367Y-00767D01*
X0018Y-00727D02*
X00199D01*
X00221Y-00705D02*
Y-00639D01*
X00199Y-00727D02*
X00221Y-00705D01*
X-00341Y-01031D02*
X-0034Y-01032D01*
X01518Y-01038D02*
X01523D01*
X00221Y-00639D02*
X00228Y-00632D01*
X-0037Y00496D02*
X-00368Y00498D01*
X-00443Y00496D02*
X-0037D01*
X-00443Y00548D02*
X-00366D01*
X-00443Y00547D02*
X-00443Y00548D01*
G54D70*
X01746Y00777D02*
X01804Y00739D01*
X00098Y00843D02*
Y01042D01*
Y00843D02*
X00949Y00841D01*
X01705Y0079D02*
X01733Y00745D01*
X01649Y0084D02*
X01746Y00777D01*
X-01543Y0078D02*
X-01446Y00843D01*
X-01602Y00742D02*
X-01543Y0078D01*
X00885Y00739D02*
X00952D01*
X-01531Y00748D02*
X-01502Y00793D01*
X-01535Y00742D02*
X-01531Y00748D01*
X-01477Y0082D02*
X-01446Y00843D01*
X-00692D02*
X-0069Y0074D01*
X-01446Y00843D02*
X-00692D01*
X-0069*
X00098*
X-00756Y0074D02*
X-0069D01*
X-00756D02*
Y00843D01*
X00885Y00739D02*
Y00842D01*
X00949Y00841D02*
X01649Y0084D01*
X00949Y00841D02*
X00952Y00739D01*
X01733D02*
X01804D01*
X-01602Y00742D02*
X-01535D01*
G54D71*
X-00098Y01042D03*
X00098D03*
X-02263Y00589D03*
Y00786D03*
X-01074Y01034D03*
X-00877D03*
X01074Y01033D03*
X00877D03*
X02263Y00787D03*
Y0059D03*
G54D72*
X-01716Y00738D03*
X-01816Y00738D03*
X-01916Y00738D03*
X-02016D03*
X-01071Y00737D03*
X-01171D03*
X-00871D03*
X-00971Y00736D03*
X00771Y00735D03*
X00671Y00734D03*
X00571Y00735D03*
X00471D03*
X01618D03*
X01518Y00734D03*
X01418Y00735D03*
X01318D03*
X-01316Y-00361D03*
X-01416D03*
X-01516D03*
X-01616D03*
X-01716D03*
X-01816D03*
X-01916D03*
X-02016D03*
X-01616Y00738D03*
X-01416D03*
X-01316D03*
X-01516D03*
X-00471Y-00362D03*
X-00571D03*
X-00671D03*
X-00771D03*
X-00871D03*
X-00971D03*
X-01071D03*
X-01171D03*
X-00771Y00737D03*
X-00571D03*
X-00471D03*
X-00671D03*
X01171Y-00364D03*
X01071D03*
X00971D03*
X00871D03*
X00771D03*
X00671D03*
X00571D03*
X00471D03*
X00871Y00735D03*
X01071D03*
X01171D03*
X00971D03*
X02018Y-00364D03*
X01918D03*
X01818D03*
X01718D03*
X01618D03*
X01518D03*
X01418D03*
X01318D03*
X01718Y00735D03*
X01918D03*
X02018D03*
X01818D03*
G54D73*
X0Y-0037D03*
X01873Y01062D03*
X-02579Y-00824D03*
X02579D03*
Y0083D03*
X-01873Y01062D03*
X-02579Y0083D03*
G54D74*
X02198Y-00499D03*
X02298D03*
X02398D03*
X02231Y-00369D03*
X02388D03*
X0231D03*
X-00492Y01084D03*
G54D75*
X02498Y-00499D03*
X02467Y-00369D03*
G54D76*
X-02452Y-00318D03*
X-02393D03*
X-02334D03*
X-02275D03*
X-02216D03*
X-02157D03*
G54D77*
X02446Y00573D03*
Y00494D03*
X-02234Y-00738D03*
Y-00659D03*
X-02452Y00414D03*
Y00493D03*
X02195Y-00659D03*
Y-00738D03*
G54D78*
X02446Y00415D03*
X-02234Y-00816D03*
X-02452Y00572D03*
X02195Y-00816D03*
G54D79*
X-00031Y00241D03*
X-00086D03*
X-00031Y00296D03*
X-00086D03*
X-00031Y00351D03*
X-00086D03*
X-00003Y00269D03*
X-00059D03*
X-00114D03*
X-00003Y00324D03*
X-00114D03*
X-00059D03*
X01885Y00278D03*
X01003Y-00125D03*
X02181Y00477D03*
X01783Y0052D03*
X00894Y00418D03*
X00938Y00364D03*
X-00298Y-00357D03*
X-00279Y-00397D03*
X-00851Y-00944D03*
X-00528Y-0048D03*
X-00897Y00333D03*
X0006Y-00678D03*
X-01761Y-01062D03*
X00404Y-00459D03*
X00631Y00083D03*
X0063Y00129D03*
X-01664Y-00506D03*
X-02124Y-00619D03*
X00153Y-01101D03*
X01363Y00192D03*
X00766Y00232D03*
X01318Y00192D03*
X00763D03*
X02511Y00152D03*
X02429Y00224D03*
X02518Y-00138D03*
X02279Y-00133D03*
X01716Y-00023D03*
X01213Y00123D03*
X01885Y00082D03*
X01003Y00115D03*
X0087Y-00285D03*
X01578Y-00661D03*
X015Y-0074D03*
X01345Y-00699D03*
X01442Y-00884D03*
X01126Y0061D03*
X01125Y0046D03*
X0096Y00461D03*
X-00668Y-00628D03*
X-00581Y-00659D03*
X01275Y-00519D03*
X00973Y-00924D03*
X00889Y-00908D03*
X00745Y-0087D03*
X00734Y-00709D03*
X00322Y-00384D03*
X00318Y-00417D03*
X007Y-00515D03*
X00397D03*
X01262Y-00428D03*
X0122D03*
X-00124Y00005D03*
X005Y-00122D03*
X00523Y-00094D03*
X00401Y-00421D03*
X00326Y-00338D03*
X-00174Y-00034D03*
X-00867Y00052D03*
X00125Y-00043D03*
X-00216Y-00448D03*
X00074Y00035D03*
X00147Y-00851D03*
X00141Y-00993D03*
X-00581Y-00914D03*
X00173Y-00241D03*
X00123Y-00195D03*
X-02114Y00267D03*
X0132Y-01061D03*
X-00527Y-0044D03*
X-01362Y-01035D03*
X-02404Y-00643D03*
X-00685Y0009D03*
X-01826Y-0046D03*
X-00774Y-00632D03*
X00729Y-01065D03*
X-00668Y-01009D03*
X-01437Y-00603D03*
X-00428Y-00844D03*
Y-00888D03*
X02273Y00266D03*
X02279Y-00012D03*
X02277Y00077D03*
X02273Y00172D03*
X01618Y-00023D03*
X01515D03*
X-02624Y00598D03*
X02618Y0039D03*
X02367Y-00832D03*
X0018Y-00727D03*
G54D80*
X-00492Y00984D03*
G54D81*
X00451Y-00002D03*
Y00296D03*
Y00446D03*
X-00457Y00102D03*
Y00153D03*
Y00051D03*
X00451Y00044D03*
Y00095D03*
Y00245D03*
Y00343D03*
X-01334Y-00787D03*
X-00457Y0035D03*
X00451Y00394D03*
X-00443Y00496D03*
Y00547D03*
X-00457Y002D03*
Y00248D03*
Y00299D03*
G54D82*
X0054Y00453D03*
X-00503Y-00715D03*
X-00748Y-00551D03*
X-01219Y-00674D03*
X00465Y-00054D03*
X-01604Y-01041D03*
X-00254Y00085D03*
X00183Y0D03*
X-00641Y00224D03*
X01019Y-00311D03*
X01118Y-00303D03*
X-01333Y-00711D03*
M02*