%FSTAX23Y23*%
%MOIN*%
%SFA1B1*%

%IPPOS*%
%ADD12C,0.007874*%
%ADD14C,0.010000*%
%LNbrushed_pcb-1*%
%LPD*%
G36*
X-00181Y-00746D02*
Y-00746D01*
Y-00746*
Y-00746*
Y-00747*
X-00181Y-00747*
Y-00747*
X-00181Y-00748*
X-00181Y-00749*
X-00181Y-00749*
X-00181Y-0075*
X-00181Y-00751*
X-00181Y-00751*
X-00182Y-00751*
X-00182Y-00752*
X-00182Y-00752*
X-00182Y-00752*
X-00183Y-00753*
X-00183Y-00753*
X-00184Y-00754*
X-00184Y-00754*
X-00184Y-00754*
X-00185Y-00754*
X-00185Y-00754*
X-00186Y-00754*
X-00186Y-00754*
X-00187Y-00754*
X-00188Y-00754*
X-00188*
X-00188Y-00754*
X-00189Y-00754*
X-00189Y-00754*
X-0019Y-00754*
X-00191Y-00754*
X-00191Y-00754*
X-00192Y-00753*
X-00192Y-00753*
X-00193Y-00753*
X-00193Y-00753*
Y-00753*
X-00193Y-00753*
X-00193Y-00752*
X-00193Y-00752*
X-00193Y-00752*
X-00193Y-00752*
X-00194Y-00751*
X-00194Y-00751*
X-00194Y-00751*
X-00194Y-0075*
X-00194Y-0075*
X-00194Y-00749*
X-00194Y-00749*
X-00195Y-00748*
X-00195Y-00748*
Y-00747*
X-00192Y-00746*
Y-00747*
Y-00747*
Y-00747*
X-00192Y-00747*
Y-00747*
X-00192Y-00747*
X-00191Y-00748*
X-00191Y-00749*
X-00191Y-00749*
X-00191Y-0075*
X-00191Y-0075*
X-00191Y-0075*
X-0019Y-00751*
X-0019Y-00751*
X-0019Y-00751*
X-0019Y-00751*
X-00189Y-00751*
X-00189Y-00751*
X-00188Y-00751*
X-00188Y-00752*
X-00188*
X-00187Y-00751*
X-00187Y-00751*
X-00187Y-00751*
X-00186Y-00751*
X-00186Y-00751*
X-00186Y-00751*
X-00186Y-00751*
X-00186Y-00751*
X-00185Y-00751*
X-00185Y-00751*
X-00185Y-0075*
X-00185Y-0075*
X-00185Y-0075*
X-00184Y-00749*
Y-00749*
X-00184Y-00749*
X-00184Y-00749*
X-00184Y-00749*
X-00184Y-00748*
X-00184Y-00748*
X-00184Y-00747*
Y-00746*
Y-00729*
X-00181*
Y-00746*
G37*
G36*
X-00148Y-00729D02*
X-00148Y-00729D01*
X-00147Y-00729*
X-00147Y-00729*
X-00147Y-00729*
X-00146Y-00729*
X-00145Y-0073*
X-00144Y-0073*
X-00144Y-0073*
X-00143Y-0073*
X-00143Y-00731*
X-00143Y-00731*
X-00143Y-00731*
X-00143Y-00731*
X-00142Y-00731*
X-00142Y-00731*
X-00142Y-00732*
X-00142Y-00732*
X-00141Y-00733*
X-00141Y-00734*
X-00141Y-00735*
X-00141Y-00735*
X-00141Y-00736*
Y-00736*
Y-00736*
X-00141Y-00736*
X-00141Y-00737*
X-00141Y-00737*
X-00141Y-00738*
X-00141Y-00738*
X-00141Y-00739*
X-00141Y-00739*
X-00141Y-00739*
X-00142Y-00739*
X-00142Y-0074*
X-00142Y-0074*
X-00142Y-00741*
X-00143Y-00741*
X-00143Y-00742*
X-00143Y-00742*
X-00144Y-00742*
X-00144Y-00742*
X-00144Y-00743*
X-00145Y-00743*
X-00145Y-00743*
X-00145Y-00744*
X-00146Y-00744*
X-00146Y-00744*
X-00146Y-00745*
X-00147Y-00745*
X-00148Y-00746*
X-00148Y-00746*
X-00148Y-00746*
X-00148Y-00746*
X-00148Y-00746*
X-00149Y-00747*
X-00149Y-00747*
X-0015Y-00748*
X-0015Y-00748*
X-00151Y-00749*
X-00151Y-00749*
X-00152Y-00749*
X-00152Y-00749*
X-00152Y-00749*
X-00152Y-0075*
X-00152Y-0075*
X-00152Y-0075*
X-00153Y-0075*
X-00153Y-00751*
X-00141*
Y-00754*
X-00157*
Y-00754*
Y-00754*
Y-00754*
X-00157Y-00753*
X-00157Y-00753*
X-00157Y-00753*
X-00157Y-00752*
X-00157Y-00752*
Y-00752*
X-00157Y-00752*
X-00157Y-00752*
X-00157Y-00751*
X-00156Y-00751*
X-00156Y-0075*
X-00156Y-0075*
X-00155Y-00749*
X-00155Y-00749*
Y-00749*
X-00155Y-00749*
X-00155Y-00748*
X-00154Y-00748*
X-00154Y-00747*
X-00153Y-00747*
X-00153Y-00746*
X-00152Y-00746*
X-00151Y-00745*
X-00151Y-00745*
X-00151Y-00745*
X-00151Y-00744*
X-0015Y-00744*
X-0015Y-00744*
X-0015Y-00744*
X-00149Y-00743*
X-00148Y-00742*
X-00147Y-00741*
X-00146Y-00741*
X-00146Y-0074*
X-00146Y-0074*
X-00145Y-00739*
Y-00739*
X-00145Y-00739*
X-00145Y-00739*
X-00145Y-00739*
X-00145Y-00739*
X-00145Y-00738*
X-00144Y-00738*
X-00144Y-00737*
X-00144Y-00736*
X-00144Y-00736*
Y-00736*
Y-00736*
X-00144Y-00735*
X-00144Y-00735*
X-00144Y-00735*
X-00144Y-00734*
X-00144Y-00734*
X-00145Y-00733*
X-00145Y-00733*
X-00145Y-00732*
X-00145Y-00732*
X-00146Y-00732*
X-00146Y-00732*
X-00147Y-00732*
X-00147Y-00731*
X-00148Y-00731*
X-00149Y-00731*
X-00149*
X-00149Y-00731*
X-00149Y-00731*
X-0015Y-00731*
X-00151Y-00732*
X-00151Y-00732*
X-00152Y-00732*
X-00152Y-00733*
X-00152Y-00733*
X-00152Y-00733*
X-00153Y-00733*
X-00153Y-00734*
X-00153Y-00734*
X-00153Y-00735*
X-00154Y-00735*
X-00154Y-00736*
X-00157Y-00736*
Y-00736*
Y-00736*
X-00157Y-00736*
X-00157Y-00735*
X-00157Y-00735*
X-00157Y-00735*
X-00156Y-00734*
X-00156Y-00733*
X-00156Y-00732*
X-00155Y-00731*
X-00155Y-00731*
X-00154Y-00731*
X-00154Y-00731*
X-00154Y-00731*
X-00154Y-0073*
X-00154Y-0073*
X-00154Y-0073*
X-00153Y-0073*
X-00153Y-0073*
X-00153Y-0073*
X-00152Y-00729*
X-00152Y-00729*
X-00152Y-00729*
X-00151Y-00729*
X-0015Y-00729*
X-00149Y-00729*
X-00149Y-00729*
X-00148*
X-00148Y-00729*
G37*
G36*
X-00165Y-00754D02*
X-00168D01*
Y-00734*
X-00168Y-00734*
X-00168Y-00734*
X-00168Y-00735*
X-00169Y-00735*
X-00169Y-00735*
X-0017Y-00736*
X-0017Y-00736*
X-00171Y-00736*
X-00171*
X-00171Y-00736*
X-00171Y-00737*
X-00172Y-00737*
X-00172Y-00737*
X-00172Y-00737*
X-00173Y-00738*
X-00174Y-00738*
X-00174Y-00738*
Y-00735*
X-00174*
X-00174Y-00735*
X-00174Y-00735*
X-00174Y-00735*
X-00173Y-00735*
X-00173Y-00735*
X-00173Y-00734*
X-00172Y-00734*
X-00171Y-00733*
X-0017Y-00733*
X-0017Y-00732*
X-0017Y-00732*
X-0017Y-00732*
X-00169Y-00732*
X-00169Y-00731*
X-00169Y-00731*
X-00168Y-00731*
X-00168Y-0073*
X-00167Y-00729*
X-00167Y-00729*
X-00165*
Y-00754*
G37*
G36*
X00501Y-01017D02*
X00501Y-01017D01*
X00501Y-01017*
X00502Y-01017*
X00503Y-01017*
X00504Y-01017*
X00504Y-01017*
X00504Y-01018*
X00505Y-01018*
X00505Y-01018*
Y-01018*
X00505Y-01018*
X00505Y-01019*
X00505Y-01019*
X00505Y-01019*
X00506Y-01019*
X00506Y-01019*
X00506Y-0102*
X00506Y-0102*
X00506Y-01021*
X00506Y-01021*
X00507Y-01022*
X00507Y-01022*
X00507Y-01023*
X00507Y-01023*
Y-01024*
X00504Y-01024*
Y-01024*
Y-01024*
Y-01024*
X00504Y-01024*
Y-01024*
X00504Y-01024*
X00504Y-01023*
X00503Y-01022*
X00503Y-01022*
X00503Y-01021*
X00503Y-01021*
X00503Y-0102*
X00503Y-0102*
X00502Y-0102*
X00502Y-0102*
X00502Y-0102*
X00502Y-0102*
X00501Y-0102*
X00501Y-01019*
X005Y-01019*
X005*
X005Y-01019*
X00499Y-0102*
X00499Y-0102*
X00499Y-0102*
X00498Y-0102*
X00498Y-0102*
X00498Y-0102*
X00498Y-0102*
X00498Y-0102*
X00497Y-0102*
X00497Y-01021*
X00497Y-01021*
X00497Y-01021*
X00497Y-01022*
Y-01022*
X00497Y-01022*
X00496Y-01022*
X00496Y-01022*
X00496Y-01023*
X00496Y-01023*
X00496Y-01024*
Y-01025*
Y-01042*
X00493*
Y-01025*
Y-01025*
Y-01025*
Y-01025*
Y-01024*
X00493Y-01024*
Y-01024*
X00493Y-01023*
X00493Y-01022*
X00493Y-01022*
X00493Y-01021*
X00494Y-0102*
X00494Y-0102*
X00494Y-0102*
X00494Y-01019*
X00494Y-01019*
X00495Y-01019*
X00495Y-01018*
X00496Y-01018*
X00496Y-01017*
X00496Y-01017*
X00496Y-01017*
X00497Y-01017*
X00497Y-01017*
X00498Y-01017*
X00498Y-01017*
X00499Y-01017*
X005Y-01016*
X005*
X00501Y-01017*
G37*
G36*
X0048Y-01037D02*
X0048Y-01037D01*
X0048Y-01036*
X00481Y-01036*
X00481Y-01036*
X00481Y-01036*
X00482Y-01035*
X00482Y-01035*
X00483Y-01034*
X00483*
X00483Y-01034*
X00483Y-01034*
X00484Y-01034*
X00484Y-01034*
X00485Y-01034*
X00485Y-01033*
X00486Y-01033*
X00486Y-01033*
Y-01036*
X00486*
X00486Y-01036*
X00486Y-01036*
X00486Y-01036*
X00486Y-01036*
X00485Y-01036*
X00485Y-01037*
X00484Y-01037*
X00483Y-01038*
X00483Y-01038*
X00482Y-01039*
X00482Y-01039*
X00482Y-01039*
X00481Y-01039*
X00481Y-01039*
X00481Y-0104*
X0048Y-0104*
X0048Y-01041*
X00479Y-01042*
X00479Y-01042*
X00477*
Y-01017*
X0048*
Y-01037*
G37*
G36*
X00461Y-01017D02*
X00462Y-01017D01*
X00462Y-01017*
X00463Y-01017*
X00463Y-01017*
X00464Y-01017*
X00464Y-01017*
X00465Y-01018*
X00465Y-01018*
X00466Y-01018*
X00466Y-01019*
X00467Y-01019*
X00467Y-01019*
X00467Y-01019*
X00467Y-01019*
X00467Y-0102*
X00467Y-0102*
X00467Y-0102*
X00468Y-01021*
X00468Y-01022*
X00468Y-01022*
X00468Y-01023*
X00469Y-01024*
X00469Y-01025*
X00469Y-01026*
X00469Y-01027*
X00469Y-01028*
X00469Y-01029*
Y-01029*
Y-0103*
Y-0103*
Y-0103*
X00469Y-0103*
Y-01031*
X00469Y-01031*
X00469Y-01032*
X00469Y-01033*
X00469Y-01034*
X00469Y-01035*
X00468Y-01036*
X00468Y-01037*
Y-01037*
X00468Y-01037*
X00468Y-01037*
X00468Y-01037*
X00468Y-01037*
X00468Y-01037*
X00468Y-01038*
X00467Y-01039*
X00467Y-01039*
X00466Y-0104*
X00465Y-01041*
X00465*
X00465Y-01041*
X00465Y-01041*
X00465Y-01041*
X00465Y-01041*
X00464Y-01042*
X00464Y-01042*
X00463Y-01042*
X00462Y-01042*
X00461Y-01042*
X00461*
X0046Y-01042*
X0046Y-01042*
X00459Y-01042*
X00459Y-01042*
X00458Y-01042*
X00457Y-01041*
X00457Y-01041*
X00457Y-01041*
X00457Y-01041*
X00456Y-01041*
X00456Y-0104*
X00456Y-0104*
X00455Y-0104*
X00455Y-01039*
X00455Y-01039*
X00455Y-01039*
X00454Y-01038*
X00454Y-01038*
X00454Y-01037*
X00454Y-01037*
X00453Y-01036*
X00453Y-01035*
Y-01035*
X00453Y-01035*
Y-01035*
X00453Y-01035*
X00453Y-01035*
X00453Y-01034*
X00453Y-01034*
X00453Y-01034*
X00453Y-01033*
X00453Y-01033*
X00453Y-01032*
X00453Y-01032*
X00453Y-01031*
Y-01031*
X00453Y-01029*
Y-01029*
Y-01029*
Y-01029*
Y-01029*
X00453Y-01028*
Y-01028*
X00453Y-01027*
X00453Y-01027*
X00453Y-01026*
X00453Y-01024*
X00453Y-01023*
X00453Y-01023*
X00454Y-01022*
Y-01022*
X00454Y-01022*
X00454Y-01022*
X00454Y-01022*
X00454Y-01021*
X00454Y-01021*
X00454Y-01021*
X00455Y-0102*
X00455Y-01019*
X00456Y-01019*
X00456Y-01018*
X00456*
X00456Y-01018*
X00456Y-01018*
X00457Y-01018*
X00457Y-01017*
X00458Y-01017*
X00458Y-01017*
X00459Y-01017*
X0046Y-01017*
X00461Y-01016*
X00461*
X00461Y-01017*
G37*
G36*
X0109Y-00596D02*
X0109Y-00596D01*
X0109Y-00596*
X01091Y-00596*
X01092Y-00597*
X01093Y-00597*
X01093Y-00597*
X01094Y-00597*
X01094Y-00598*
X01094Y-00598*
Y-00598*
X01094Y-00598*
X01094Y-00598*
X01095Y-00598*
X01095Y-00599*
X01095Y-00599*
X01095Y-00599*
X01095Y-00599*
X01095Y-006*
X01095Y-006*
X01096Y-00601*
X01096Y-00601*
X01096Y-00602*
X01096Y-00602*
X01096Y-00603*
Y-00604*
X01093Y-00604*
Y-00604*
Y-00604*
Y-00604*
X01093Y-00604*
Y-00603*
X01093Y-00603*
X01093Y-00603*
X01093Y-00602*
X01092Y-00601*
X01092Y-00601*
X01092Y-006*
X01092Y-006*
X01092Y-006*
X01092Y-006*
X01092Y-006*
X01091Y-006*
X01091Y-00599*
X0109Y-00599*
X0109Y-00599*
X01089Y-00599*
X01089*
X01089Y-00599*
X01088Y-00599*
X01088Y-00599*
X01088Y-00599*
X01087Y-006*
X01087Y-006*
X01087Y-006*
X01087Y-006*
X01087Y-006*
X01087Y-006*
X01086Y-006*
X01086Y-00601*
X01086Y-00601*
X01086Y-00601*
Y-00601*
X01086Y-00601*
X01086Y-00602*
X01086Y-00602*
X01086Y-00602*
X01085Y-00603*
X01085Y-00604*
Y-00604*
Y-00622*
X01082*
Y-00605*
Y-00605*
Y-00604*
Y-00604*
Y-00604*
X01082Y-00604*
Y-00604*
X01082Y-00603*
X01082Y-00602*
X01082Y-00601*
X01083Y-006*
X01083Y-006*
X01083Y-006*
X01083Y-00599*
X01083Y-00599*
X01083Y-00599*
X01084Y-00598*
X01084Y-00598*
X01085Y-00597*
X01085Y-00597*
X01085Y-00597*
X01086Y-00597*
X01086Y-00597*
X01086Y-00597*
X01087Y-00596*
X01088Y-00596*
X01088Y-00596*
X01089Y-00596*
X0109*
X0109Y-00596*
G37*
G36*
X01078Y-00597D02*
Y-00597D01*
Y-00597*
X01078Y-00597*
X01078Y-00598*
X01078Y-00598*
X01078Y-00598*
X01078Y-00599*
Y-00599*
X01078Y-00599*
X01078Y-00599*
X01078Y-00599*
X01077Y-006*
X01077Y-006*
X01077Y-00601*
X01076Y-00601*
X01076Y-00602*
Y-00602*
X01076Y-00602*
X01076Y-00602*
X01075Y-00603*
X01075Y-00603*
X01074Y-00604*
X01074Y-00604*
X01073Y-00605*
X01072Y-00606*
X01072Y-00606*
X01072Y-00606*
X01071Y-00606*
X01071Y-00606*
X01071Y-00607*
X0107Y-00607*
X0107Y-00608*
X01069Y-00609*
X01068Y-0061*
X01067Y-0061*
X01067Y-0061*
X01067Y-00611*
X01066Y-00611*
Y-00611*
X01066Y-00611*
X01066Y-00611*
X01066Y-00612*
X01066Y-00612*
X01066Y-00612*
X01065Y-00613*
X01065Y-00614*
X01065Y-00614*
X01065Y-00615*
Y-00615*
Y-00615*
X01065Y-00615*
X01065Y-00616*
X01065Y-00616*
X01065Y-00617*
X01065Y-00617*
X01066Y-00618*
X01066Y-00618*
X01066Y-00618*
X01066Y-00618*
X01067Y-00619*
X01067Y-00619*
X01068Y-00619*
X01068Y-00619*
X01069Y-00619*
X0107Y-00619*
X0107*
X0107Y-00619*
X0107Y-00619*
X01071Y-00619*
X01071Y-00619*
X01072Y-00619*
X01073Y-00618*
X01073Y-00618*
X01073Y-00618*
X01073Y-00618*
X01074Y-00617*
X01074Y-00617*
X01074Y-00617*
X01074Y-00616*
X01074Y-00615*
X01075Y-00614*
X01078Y-00615*
Y-00615*
Y-00615*
X01078Y-00615*
X01078Y-00615*
X01078Y-00616*
X01078Y-00616*
X01077Y-00617*
X01077Y-00618*
X01077Y-00618*
X01076Y-00619*
X01076Y-0062*
X01075Y-0062*
X01075Y-0062*
X01075Y-0062*
X01075Y-0062*
X01075Y-0062*
X01075Y-00621*
X01074Y-00621*
X01074Y-00621*
X01074Y-00621*
X01073Y-00621*
X01073Y-00621*
X01072Y-00622*
X01072Y-00622*
X01071Y-00622*
X0107Y-00622*
X0107Y-00622*
X01069*
X01069Y-00622*
X01069Y-00622*
X01068Y-00622*
X01068Y-00622*
X01067Y-00622*
X01067Y-00621*
X01066Y-00621*
X01065Y-00621*
X01065Y-00621*
X01064Y-0062*
X01064Y-0062*
X01064Y-0062*
X01064Y-0062*
X01064Y-0062*
X01063Y-0062*
X01063Y-00619*
X01063Y-00619*
X01063Y-00619*
X01062Y-00618*
X01062Y-00617*
X01062Y-00616*
X01062Y-00615*
X01062Y-00615*
Y-00615*
Y-00615*
X01062Y-00614*
X01062Y-00614*
X01062Y-00614*
X01062Y-00613*
X01062Y-00612*
X01062Y-00612*
X01062Y-00612*
X01062Y-00612*
X01063Y-00611*
X01063Y-00611*
X01063Y-00611*
X01063Y-0061*
X01064Y-00609*
X01064Y-00609*
X01064Y-00609*
X01065Y-00609*
X01065Y-00608*
X01065Y-00608*
X01065Y-00608*
X01066Y-00607*
X01066Y-00607*
X01067Y-00607*
X01067Y-00606*
X01067Y-00606*
X01068Y-00605*
X01069Y-00605*
X01069Y-00604*
X01069Y-00604*
X01069Y-00604*
X01069Y-00604*
X0107Y-00604*
X0107Y-00604*
X01071Y-00603*
X01071Y-00603*
X01072Y-00602*
X01072Y-00602*
X01072Y-00601*
X01073Y-00601*
X01073Y-00601*
X01073Y-00601*
X01073Y-00601*
X01073Y-00601*
X01074Y-006*
X01074Y-006*
X01062*
Y-00597*
X01078*
Y-00597*
G37*
G36*
X-0106Y-00759D02*
X-0106Y-0076D01*
Y-0076*
X-0106Y-00761*
X-0106Y-00762*
X-0106Y-00763*
X-0106Y-00763*
X-0106Y-00764*
X-0106Y-00764*
Y-00764*
X-0106Y-00764*
X-01061Y-00764*
X-01061Y-00765*
X-01061Y-00765*
X-01061Y-00766*
X-01062Y-00766*
X-01062Y-00766*
X-01063Y-00767*
X-01063Y-00767*
X-01063Y-00767*
X-01064Y-00767*
X-01064Y-00767*
X-01065Y-00768*
X-01065Y-00768*
X-01066Y-00768*
X-01067Y-00768*
X-01067*
X-01067*
X-01067*
X-01067Y-00768*
X-01067*
X-01068Y-00768*
X-01068Y-00768*
X-01069Y-00768*
X-0107Y-00767*
X-0107Y-00767*
X-01071Y-00766*
X-01071Y-00766*
X-01071Y-00766*
X-01071Y-00766*
X-01072Y-00766*
X-01072Y-00766*
X-01072Y-00765*
X-01072Y-00765*
X-01072Y-00765*
X-01072Y-00765*
X-01073Y-00764*
X-01073Y-00764*
X-01073Y-00763*
X-01073Y-00763*
X-01073Y-00762*
X-01073Y-00761*
X-01073Y-00761*
X-01074Y-00761*
X-01074Y-00761*
X-01074Y-00761*
X-01074Y-00762*
X-01074Y-00762*
X-01075Y-00763*
X-01075Y-00763*
X-01075Y-00763*
X-01075Y-00763*
X-01075Y-00763*
X-01076Y-00764*
X-01076Y-00764*
X-01077Y-00765*
X-01077Y-00765*
X-01078Y-00766*
X-01085Y-0077*
Y-00766*
X-0108Y-00762*
X-0108*
X-0108Y-00762*
X-0108Y-00762*
X-01079Y-00762*
X-01079Y-00762*
X-01078Y-00762*
X-01078Y-00761*
X-01077Y-00761*
X-01077Y-0076*
X-01076Y-0076*
X-01076Y-0076*
X-01076Y-0076*
X-01076Y-0076*
X-01076Y-00759*
X-01075Y-00759*
X-01075Y-00759*
X-01075Y-00758*
X-01075Y-00758*
X-01075Y-00758*
X-01074Y-00758*
X-01074Y-00758*
X-01074Y-00757*
X-01074Y-00757*
Y-00757*
X-01074Y-00757*
Y-00757*
X-01074Y-00756*
X-01074Y-00756*
Y-00756*
X-01074Y-00755*
Y-00751*
X-01085*
Y-00748*
X-0106*
Y-00759*
G37*
G36*
X-01066Y-00774D02*
X-01066Y-00774D01*
X-01066Y-00775*
X-01066Y-00775*
X-01066Y-00775*
X-01066Y-00775*
X-01065Y-00776*
X-01065Y-00776*
X-01064Y-00777*
X-01064Y-00778*
X-01063Y-00779*
X-01063Y-00779*
X-01063Y-00779*
X-01063Y-00779*
X-01062Y-00779*
X-01062Y-0078*
X-01061Y-0078*
X-01061Y-00781*
X-0106Y-00781*
X-0106Y-00782*
Y-00784*
X-01085*
Y-0078*
X-01065*
X-01065Y-0078*
X-01065Y-0078*
X-01066Y-0078*
X-01066Y-0078*
X-01066Y-00779*
X-01067Y-00779*
X-01067Y-00778*
X-01067Y-00777*
Y-00777*
X-01067Y-00777*
X-01068Y-00777*
X-01068Y-00777*
X-01068Y-00776*
X-01068Y-00776*
X-01069Y-00775*
X-01069Y-00775*
X-01069Y-00774*
X-01066*
Y-00774*
G37*
G36*
Y-00794D02*
X-01066Y-00794D01*
X-01066Y-00794*
X-01066Y-00794*
X-01066Y-00795*
X-01066Y-00795*
X-01065Y-00795*
X-01065Y-00796*
X-01064Y-00797*
X-01064Y-00798*
X-01063Y-00798*
X-01063Y-00798*
X-01063Y-00798*
X-01063Y-00799*
X-01062Y-00799*
X-01062Y-00799*
X-01061Y-008*
X-01061Y-008*
X-0106Y-00801*
X-0106Y-00801*
Y-00803*
X-01085*
Y-008*
X-01065*
X-01065Y-008*
X-01065Y-008*
X-01066Y-008*
X-01066Y-00799*
X-01066Y-00799*
X-01067Y-00798*
X-01067Y-00798*
X-01067Y-00797*
Y-00797*
X-01067Y-00797*
X-01068Y-00797*
X-01068Y-00796*
X-01068Y-00796*
X-01068Y-00796*
X-01069Y-00795*
X-01069Y-00794*
X-01069Y-00794*
X-01066*
Y-00794*
G37*
G36*
X-01059Y-0059D02*
X-01059Y-00591D01*
Y-00591*
X-01059Y-00592*
X-01059Y-00593*
X-01059Y-00593*
X-01059Y-00594*
X-01059Y-00595*
X-0106Y-00595*
Y-00595*
X-0106Y-00595*
X-0106Y-00595*
X-0106Y-00596*
X-0106Y-00596*
X-0106Y-00596*
X-01061Y-00597*
X-01061Y-00597*
X-01062Y-00598*
X-01062Y-00598*
X-01062Y-00598*
X-01063Y-00598*
X-01063Y-00598*
X-01064Y-00598*
X-01064Y-00599*
X-01065Y-00599*
X-01066Y-00599*
X-01066*
X-01066*
X-01066*
X-01066Y-00599*
X-01066*
X-01067Y-00599*
X-01067Y-00599*
X-01068Y-00598*
X-01069Y-00598*
X-0107Y-00598*
X-0107Y-00597*
X-0107Y-00597*
X-0107Y-00597*
X-0107Y-00597*
X-01071Y-00597*
X-01071Y-00597*
X-01071Y-00596*
X-01071Y-00596*
X-01071Y-00596*
X-01071Y-00595*
X-01072Y-00595*
X-01072Y-00595*
X-01072Y-00594*
X-01072Y-00594*
X-01072Y-00593*
X-01072Y-00592*
X-01073Y-00592*
X-01073Y-00592*
X-01073Y-00592*
X-01073Y-00592*
X-01073Y-00592*
X-01073Y-00593*
X-01074Y-00593*
X-01074Y-00594*
X-01074Y-00594*
X-01074Y-00594*
X-01074Y-00594*
X-01075Y-00595*
X-01075Y-00595*
X-01076Y-00595*
X-01077Y-00596*
X-01077Y-00596*
X-01084Y-00601*
Y-00597*
X-01079Y-00593*
X-01079*
X-01079Y-00593*
X-01079Y-00593*
X-01078Y-00593*
X-01078Y-00593*
X-01078Y-00592*
X-01077Y-00592*
X-01076Y-00592*
X-01076Y-00591*
X-01075Y-00591*
X-01075Y-00591*
X-01075Y-00591*
X-01075Y-00591*
X-01075Y-0059*
X-01074Y-0059*
X-01074Y-00589*
X-01074Y-00589*
X-01074Y-00589*
X-01074Y-00589*
X-01074Y-00589*
X-01073Y-00589*
X-01073Y-00588*
X-01073Y-00588*
Y-00588*
X-01073Y-00588*
Y-00587*
X-01073Y-00587*
X-01073Y-00587*
Y-00587*
X-01073Y-00586*
Y-00582*
X-01084*
Y-00579*
X-01059*
Y-0059*
G37*
G36*
X-01065Y-00605D02*
X-01065Y-00605D01*
X-01065Y-00605*
X-01065Y-00606*
X-01065Y-00606*
X-01065Y-00606*
X-01064Y-00607*
X-01064Y-00607*
X-01063Y-00608*
X-01063Y-00609*
X-01062Y-0061*
X-01062Y-0061*
X-01062Y-0061*
X-01062Y-0061*
X-01062Y-0061*
X-01061Y-00611*
X-01061Y-00611*
X-0106Y-00612*
X-01059Y-00612*
X-01059Y-00612*
Y-00614*
X-01084*
Y-00611*
X-01064*
X-01064Y-00611*
X-01065Y-00611*
X-01065Y-00611*
X-01065Y-0061*
X-01065Y-0061*
X-01066Y-0061*
X-01066Y-00609*
X-01066Y-00608*
Y-00608*
X-01067Y-00608*
X-01067Y-00608*
X-01067Y-00608*
X-01067Y-00607*
X-01067Y-00607*
X-01068Y-00606*
X-01068Y-00606*
X-01068Y-00605*
X-01065*
Y-00605*
G37*
G36*
X-01083Y-00622D02*
X-01083Y-00622D01*
X-01083Y-00622*
X-01082Y-00622*
X-01082Y-00622*
X-01082*
X-01082Y-00622*
X-01082Y-00622*
X-01081Y-00623*
X-01081Y-00623*
X-0108Y-00623*
X-0108Y-00623*
X-01079Y-00624*
X-01079Y-00624*
X-01079*
X-01079Y-00624*
X-01078Y-00625*
X-01078Y-00625*
X-01078Y-00625*
X-01077Y-00626*
X-01076Y-00627*
X-01076Y-00627*
X-01075Y-00628*
X-01075Y-00628*
X-01075Y-00629*
X-01074Y-00629*
X-01074Y-00629*
X-01074Y-00629*
X-01074Y-0063*
X-01073Y-00631*
X-01072Y-00632*
X-01071Y-00632*
X-01071Y-00633*
X-0107Y-00633*
X-0107Y-00634*
X-01069Y-00634*
X-01069*
X-01069Y-00634*
X-01069Y-00634*
X-01069Y-00634*
X-01069Y-00634*
X-01068Y-00635*
X-01068Y-00635*
X-01067Y-00635*
X-01066Y-00635*
X-01066Y-00635*
X-01066*
X-01066*
X-01065Y-00635*
X-01065Y-00635*
X-01065Y-00635*
X-01064Y-00635*
X-01064Y-00635*
X-01063Y-00634*
X-01063Y-00634*
X-01063Y-00634*
X-01062Y-00634*
X-01062Y-00634*
X-01062Y-00633*
X-01062Y-00633*
X-01062Y-00632*
X-01061Y-00631*
X-01061Y-00631*
Y-0063*
X-01061Y-0063*
X-01061Y-0063*
X-01061Y-00629*
X-01062Y-00629*
X-01062Y-00628*
X-01062Y-00628*
X-01063Y-00627*
X-01063Y-00627*
X-01063Y-00627*
X-01063Y-00627*
X-01064Y-00626*
X-01064Y-00626*
X-01065Y-00626*
X-01066Y-00626*
X-01066Y-00626*
X-01066Y-00622*
X-01066*
X-01066*
X-01066Y-00623*
X-01065Y-00623*
X-01065Y-00623*
X-01065Y-00623*
X-01064Y-00623*
X-01063Y-00623*
X-01062Y-00624*
X-01061Y-00624*
X-01061Y-00625*
X-01061Y-00625*
X-01061Y-00625*
X-01061Y-00625*
X-0106Y-00625*
X-0106Y-00625*
X-0106Y-00626*
X-0106Y-00626*
X-0106Y-00626*
X-0106Y-00626*
X-0106Y-00627*
X-01059Y-00627*
X-01059Y-00628*
X-01059Y-00628*
X-01059Y-00629*
X-01059Y-0063*
X-01059Y-00631*
Y-00631*
X-01059Y-00631*
X-01059Y-00632*
X-01059Y-00632*
X-01059Y-00632*
X-01059Y-00633*
X-01059Y-00634*
X-0106Y-00635*
X-0106Y-00635*
X-0106Y-00636*
X-0106Y-00636*
X-01061Y-00636*
X-01061Y-00636*
X-01061Y-00636*
X-01061Y-00637*
X-01061Y-00637*
X-01061Y-00637*
X-01062Y-00637*
X-01062Y-00637*
X-01063Y-00638*
X-01064Y-00638*
X-01065Y-00638*
X-01065Y-00639*
X-01066Y-00639*
X-01066*
X-01066*
X-01066Y-00639*
X-01067Y-00638*
X-01067Y-00638*
X-01068Y-00638*
X-01068Y-00638*
X-01069Y-00638*
X-01069Y-00638*
X-01069Y-00638*
X-01069Y-00638*
X-0107Y-00637*
X-0107Y-00637*
X-01071Y-00637*
X-01071Y-00636*
X-01072Y-00636*
X-01072Y-00636*
X-01072Y-00636*
X-01072Y-00635*
X-01073Y-00635*
X-01073Y-00635*
X-01073Y-00634*
X-01074Y-00634*
X-01074Y-00634*
X-01074Y-00633*
X-01075Y-00633*
X-01075Y-00632*
X-01076Y-00632*
X-01076Y-00631*
X-01076Y-00631*
X-01076Y-00631*
X-01077Y-00631*
X-01077Y-00631*
X-01077Y-0063*
X-01078Y-0063*
X-01078Y-00629*
X-01079Y-00628*
X-01079Y-00628*
X-01079Y-00628*
X-01079Y-00628*
X-0108Y-00627*
X-0108Y-00627*
X-0108Y-00627*
X-0108Y-00627*
X-01081Y-00627*
X-01081Y-00626*
Y-00639*
X-01084*
Y-00622*
X-01084*
X-01084*
X-01084*
X-01083Y-00622*
G37*
G36*
X-00993Y-00951D02*
X-00993Y-00952D01*
X-00993Y-00952*
X-00993Y-00953*
X-00993Y-00954*
X-00993Y-00954*
Y-00955*
X-00993Y-00955*
Y-00955*
X-00993Y-00955*
X-00994Y-00955*
X-00994Y-00956*
X-00994Y-00956*
X-00994Y-00957*
X-00995Y-00958*
X-00995Y-00958*
Y-00958*
X-00995Y-00958*
X-00995Y-00959*
X-00996Y-00959*
X-00996Y-00959*
X-00997Y-0096*
X-00998Y-0096*
X-00999Y-00961*
X-00999Y-00961*
X-01*
X-01Y-00961*
X-01Y-00961*
X-01Y-00961*
X-01Y-00961*
X-01Y-00961*
X-01001Y-00962*
X-01001Y-00962*
X-01002Y-00962*
X-01002Y-00962*
X-01003Y-00962*
X-01004Y-00962*
X-01005Y-00962*
X-01005*
X-01006*
X-01006*
X-01006*
X-01006Y-00962*
X-01006*
X-01007Y-00962*
X-01008Y-00962*
X-01009Y-00962*
X-0101Y-00962*
X-01011Y-00961*
X-01011*
X-01011Y-00961*
X-01011Y-00961*
X-01011Y-00961*
X-01011Y-00961*
X-01012Y-00961*
X-01012Y-00961*
X-01013Y-0096*
X-01014Y-0096*
X-01014Y-0096*
X-01014Y-0096*
X-01014Y-0096*
X-01015Y-00959*
X-01015Y-00959*
X-01015Y-00959*
X-01016Y-00958*
X-01016Y-00958*
X-01017Y-00957*
X-01017Y-00957*
X-01017Y-00957*
X-01017Y-00957*
X-01017Y-00957*
X-01017Y-00956*
X-01017Y-00956*
X-01018Y-00955*
X-01018Y-00954*
Y-00954*
X-01018Y-00954*
X-01018Y-00954*
X-01018Y-00953*
X-01018Y-00953*
X-01018Y-00952*
X-01018Y-00951*
X-01018Y-0095*
Y-00941*
X-00993*
Y-00951*
G37*
G36*
X-00999Y-00968D02*
X-00999Y-00968D01*
X-00999Y-00968*
X-00999Y-00968*
X-00999Y-00969*
X-00999Y-00969*
X-00998Y-00969*
X-00998Y-0097*
X-00997Y-00971*
X-00997Y-00972*
X-00996Y-00972*
X-00996Y-00972*
X-00996Y-00972*
X-00996Y-00973*
X-00996Y-00973*
X-00995Y-00973*
X-00995Y-00974*
X-00994Y-00974*
X-00993Y-00975*
X-00993Y-00975*
Y-00977*
X-01018*
Y-00974*
X-00998*
X-00998Y-00974*
X-00999Y-00974*
X-00999Y-00974*
X-00999Y-00973*
X-00999Y-00973*
X-01Y-00972*
X-01Y-00972*
X-01001Y-00971*
Y-00971*
X-01001Y-00971*
X-01001Y-00971*
X-01001Y-0097*
X-01001Y-0097*
X-01001Y-0097*
X-01002Y-00969*
X-01002Y-00968*
X-01002Y-00968*
X-00999*
Y-00968*
G37*
G36*
X-01017Y-00985D02*
X-01017Y-00985D01*
X-01017Y-00985*
X-01016Y-00985*
X-01016Y-00985*
X-01016*
X-01016Y-00985*
X-01016Y-00985*
X-01015Y-00985*
X-01015Y-00986*
X-01014Y-00986*
X-01014Y-00986*
X-01013Y-00987*
X-01013Y-00987*
X-01013*
X-01013Y-00987*
X-01012Y-00987*
X-01012Y-00988*
X-01012Y-00988*
X-01011Y-00989*
X-0101Y-00989*
X-0101Y-0099*
X-01009Y-00991*
X-01009Y-00991*
X-01009Y-00991*
X-01009Y-00992*
X-01008Y-00992*
X-01008Y-00992*
X-01008Y-00993*
X-01007Y-00993*
X-01006Y-00994*
X-01005Y-00995*
X-01005Y-00996*
X-01004Y-00996*
X-01004Y-00996*
X-01004Y-00997*
X-01004*
X-01003Y-00997*
X-01003Y-00997*
X-01003Y-00997*
X-01003Y-00997*
X-01002Y-00997*
X-01002Y-00998*
X-01001Y-00998*
X-01Y-00998*
X-01Y-00998*
X-01*
X-01*
X-00999Y-00998*
X-00999Y-00998*
X-00999Y-00998*
X-00998Y-00998*
X-00998Y-00998*
X-00997Y-00997*
X-00997Y-00997*
X-00997Y-00997*
X-00996Y-00997*
X-00996Y-00996*
X-00996Y-00996*
X-00996Y-00995*
X-00996Y-00995*
X-00995Y-00994*
X-00995Y-00993*
Y-00993*
X-00995Y-00993*
X-00995Y-00993*
X-00996Y-00992*
X-00996Y-00992*
X-00996Y-00991*
X-00996Y-0099*
X-00997Y-0099*
X-00997Y-0099*
X-00997Y-0099*
X-00997Y-00989*
X-00998Y-00989*
X-00998Y-00989*
X-00999Y-00989*
X-01Y-00989*
X-01Y-00988*
X-01Y-00985*
X-01*
X-01*
X-01Y-00985*
X-01Y-00985*
X-00999Y-00985*
X-00999Y-00985*
X-00998Y-00986*
X-00997Y-00986*
X-00996Y-00986*
X-00995Y-00987*
X-00995Y-00987*
X-00995Y-00988*
X-00995Y-00988*
X-00995Y-00988*
X-00995Y-00988*
X-00994Y-00988*
X-00994Y-00988*
X-00994Y-00989*
X-00994Y-00989*
X-00994Y-00989*
X-00994Y-0099*
X-00993Y-0099*
X-00993Y-00991*
X-00993Y-00991*
X-00993Y-00992*
X-00993Y-00993*
X-00993Y-00993*
Y-00994*
X-00993Y-00994*
X-00993Y-00994*
X-00993Y-00995*
X-00993Y-00995*
X-00993Y-00996*
X-00993Y-00996*
X-00994Y-00997*
X-00994Y-00998*
X-00994Y-00998*
X-00995Y-00999*
X-00995Y-00999*
X-00995Y-00999*
X-00995Y-00999*
X-00995Y-00999*
X-00995Y-01*
X-00995Y-01*
X-00996Y-01*
X-00996Y-01*
X-00997Y-01001*
X-00998Y-01001*
X-00999Y-01001*
X-00999Y-01001*
X-01Y-01001*
X-01*
X-01*
X-01Y-01001*
X-01001Y-01001*
X-01001Y-01001*
X-01002Y-01001*
X-01002Y-01001*
X-01003Y-01001*
X-01003Y-01001*
X-01003Y-01001*
X-01003Y-01*
X-01004Y-01*
X-01004Y-01*
X-01005Y-01*
X-01005Y-00999*
X-01006Y-00999*
X-01006Y-00999*
X-01006Y-00998*
X-01007Y-00998*
X-01007Y-00998*
X-01007Y-00998*
X-01007Y-00997*
X-01008Y-00997*
X-01008Y-00996*
X-01008Y-00996*
X-01009Y-00996*
X-01009Y-00995*
X-0101Y-00994*
X-0101Y-00994*
X-0101Y-00994*
X-0101Y-00994*
X-01011Y-00994*
X-01011Y-00993*
X-01011Y-00993*
X-01012Y-00992*
X-01012Y-00992*
X-01013Y-00991*
X-01013Y-00991*
X-01013Y-0099*
X-01014Y-0099*
X-01014Y-0099*
X-01014Y-0099*
X-01014Y-0099*
X-01014Y-0099*
X-01015Y-00989*
X-01015Y-00989*
Y-01001*
X-01018*
Y-00985*
X-01018*
X-01018*
X-01018*
X-01017Y-00985*
G37*
G36*
X-02201Y00333D02*
Y00333D01*
Y00333*
Y00333*
Y00333*
X-02201Y00332*
Y00332*
X-02201Y00331*
X-02201Y00331*
X-02201Y0033*
X-02202Y00329*
X-02202Y00328*
X-02202Y00328*
X-02202Y00328*
X-02202Y00328*
X-02202Y00327*
X-02203Y00327*
X-02203Y00326*
X-02204Y00326*
X-02204Y00326*
X-02204Y00326*
X-02205Y00325*
X-02205Y00325*
X-02205Y00325*
X-02206Y00325*
X-02207Y00325*
X-02207Y00325*
X-02208Y00325*
X-02209*
X-02209Y00325*
X-02209Y00325*
X-02209Y00325*
X-0221Y00325*
X-02211Y00325*
X-02212Y00326*
X-02212Y00326*
X-02213Y00326*
X-02213Y00326*
X-02213Y00327*
Y00327*
X-02213Y00327*
X-02214Y00327*
X-02214Y00327*
X-02214Y00327*
X-02214Y00327*
X-02214Y00328*
X-02214Y00328*
X-02214Y00328*
X-02215Y00329*
X-02215Y00329*
X-02215Y0033*
X-02215Y0033*
X-02215Y00331*
X-02215Y00332*
Y00332*
X-02212Y00333*
Y00333*
Y00333*
Y00332*
X-02212Y00332*
Y00332*
X-02212Y00332*
X-02212Y00331*
X-02212Y0033*
X-02212Y0033*
X-02211Y00329*
X-02211Y00329*
X-02211Y00329*
X-02211Y00329*
X-02211Y00329*
X-02211Y00328*
X-0221Y00328*
X-0221Y00328*
X-02209Y00328*
X-02209Y00328*
X-02208Y00328*
X-02208*
X-02208Y00328*
X-02208Y00328*
X-02207Y00328*
X-02207Y00328*
X-02206Y00328*
X-02206Y00328*
X-02206Y00328*
X-02206Y00328*
X-02206Y00329*
X-02206Y00329*
X-02205Y00329*
X-02205Y00329*
X-02205Y00329*
X-02205Y0033*
Y0033*
X-02205Y0033*
X-02205Y0033*
X-02205Y00331*
X-02205Y00331*
X-02205Y00332*
X-02204Y00332*
Y00333*
Y0035*
X-02201*
Y00333*
G37*
G36*
X-02185Y00325D02*
X-02188D01*
Y00345*
X-02188Y00345*
X-02189Y00345*
X-02189Y00345*
X-02189Y00344*
X-0219Y00344*
X-0219Y00344*
X-02191Y00343*
X-02191Y00343*
X-02191*
X-02191Y00343*
X-02192Y00343*
X-02192Y00342*
X-02192Y00342*
X-02193Y00342*
X-02193Y00342*
X-02194Y00341*
X-02195Y00341*
Y00344*
X-02195*
X-02194Y00344*
X-02194Y00344*
X-02194Y00344*
X-02194Y00345*
X-02194Y00345*
X-02193Y00345*
X-02192Y00345*
X-02192Y00346*
X-02191Y00347*
X-0219Y00347*
X-0219Y00347*
X-0219Y00347*
X-0219Y00347*
X-02189Y00348*
X-02189Y00348*
X-02189Y00349*
X-02188Y00349*
X-02188Y0035*
X-02187Y00351*
X-02185*
Y00325*
G37*
G36*
X-02169Y0035D02*
X-02168D01*
X-02168Y0035*
X-02167Y0035*
X-02166Y0035*
X-02166Y0035*
X-02165Y00349*
X-02165Y00349*
X-02164Y00349*
X-02164Y00349*
X-02164Y00349*
X-02164Y00349*
X-02164Y00348*
X-02164Y00348*
X-02163Y00348*
X-02163Y00348*
X-02163Y00347*
X-02162Y00347*
X-02162Y00346*
X-02162Y00345*
X-02162Y00344*
X-02162Y00344*
Y00344*
Y00344*
X-02162Y00343*
X-02162Y00343*
X-02162Y00342*
X-02162Y00342*
X-02162Y00341*
X-02163Y00341*
X-02163Y00341*
X-02163Y00341*
X-02163Y0034*
X-02163Y0034*
X-02164Y0034*
X-02164Y0034*
X-02165Y00339*
X-02166Y00339*
X-02166*
X-02165Y00339*
X-02165Y00339*
X-02165Y00339*
X-02165Y00339*
X-02164Y00338*
X-02164Y00338*
X-02163Y00338*
X-02163Y00337*
X-02162Y00336*
X-02162Y00336*
X-02162Y00336*
X-02162Y00336*
X-02161Y00335*
X-02161Y00335*
X-02161Y00334*
X-02161Y00333*
X-02161Y00332*
Y00332*
Y00332*
Y00332*
X-02161Y00332*
X-02161Y00332*
X-02161Y00331*
X-02161Y0033*
X-02161Y0033*
X-02162Y00329*
X-02162Y00329*
X-02162Y00328*
X-02162Y00328*
X-02163Y00327*
X-02163Y00327*
X-02163Y00327*
X-02163Y00327*
X-02163Y00327*
X-02164Y00327*
X-02164Y00326*
X-02164Y00326*
X-02164Y00326*
X-02165Y00326*
X-02165Y00326*
X-02166Y00325*
X-02166Y00325*
X-02167Y00325*
X-02167Y00325*
X-02168Y00325*
X-02168Y00325*
X-02169Y00325*
X-02169*
X-0217Y00325*
X-0217Y00325*
X-0217Y00325*
X-02171Y00325*
X-02171Y00325*
X-02172Y00325*
X-02173Y00325*
X-02173Y00326*
X-02174Y00326*
X-02174Y00326*
X-02175Y00327*
X-02175Y00327*
X-02175Y00327*
X-02175Y00327*
X-02175Y00327*
X-02176Y00327*
X-02176Y00328*
X-02176Y00328*
X-02176Y00328*
X-02176Y00328*
X-02176Y00329*
X-02177Y00329*
X-02177Y0033*
X-02177Y00331*
X-02177Y00331*
X-02177Y00332*
X-02177Y00332*
Y00333*
Y00333*
Y00333*
X-02177Y00333*
Y00333*
X-02177Y00333*
X-02177Y00334*
X-02177Y00335*
X-02177Y00335*
X-02177Y00336*
X-02176Y00337*
Y00337*
X-02176Y00337*
X-02176Y00337*
X-02176Y00337*
X-02175Y00338*
X-02175Y00338*
X-02174Y00338*
X-02173Y00339*
X-02173Y00339*
X-02173*
X-02173Y00339*
X-02173Y00339*
X-02173Y00339*
X-02174Y00339*
X-02174Y0034*
X-02175Y0034*
X-02175Y0034*
X-02176Y00341*
X-02176Y00341*
X-02176Y00341*
X-02176Y00341*
X-02176Y00342*
X-02176Y00342*
X-02176Y00343*
X-02176Y00343*
X-02176Y00344*
Y00344*
Y00344*
Y00344*
X-02176Y00344*
X-02176Y00345*
X-02176Y00345*
X-02176Y00346*
X-02176Y00346*
X-02176Y00347*
X-02175Y00348*
X-02175Y00348*
X-02175Y00348*
X-02174Y00349*
X-02174Y00349*
X-02174Y00349*
X-02174Y00349*
X-02174Y00349*
X-02174Y00349*
X-02174Y00349*
X-02173Y00349*
X-02173Y0035*
X-02172Y0035*
X-02171Y0035*
X-0217Y0035*
X-0217Y0035*
X-02169Y00351*
X-02169*
X-02169Y0035*
G37*
G36*
X-02201Y00173D02*
Y00173D01*
Y00173*
Y00173*
Y00173*
X-02201Y00172*
Y00172*
X-02201Y00171*
X-02201Y00171*
X-02201Y0017*
X-02202Y00169*
X-02202Y00168*
X-02202Y00168*
X-02202Y00168*
X-02202Y00168*
X-02202Y00167*
X-02203Y00167*
X-02203Y00167*
X-02204Y00166*
X-02204Y00166*
X-02204Y00166*
X-02205Y00166*
X-02205Y00165*
X-02205Y00165*
X-02206Y00165*
X-02207Y00165*
X-02207Y00165*
X-02208Y00165*
X-02209*
X-02209Y00165*
X-02209Y00165*
X-02209Y00165*
X-0221Y00165*
X-02211Y00165*
X-02212Y00166*
X-02212Y00166*
X-02213Y00166*
X-02213Y00166*
X-02213Y00167*
Y00167*
X-02213Y00167*
X-02214Y00167*
X-02214Y00167*
X-02214Y00167*
X-02214Y00168*
X-02214Y00168*
X-02214Y00168*
X-02214Y00169*
X-02215Y00169*
X-02215Y00169*
X-02215Y0017*
X-02215Y0017*
X-02215Y00171*
X-02215Y00172*
Y00172*
X-02212Y00173*
Y00173*
Y00173*
Y00173*
X-02212Y00172*
Y00172*
X-02212Y00172*
X-02212Y00171*
X-02212Y00171*
X-02212Y0017*
X-02211Y00169*
X-02211Y00169*
X-02211Y00169*
X-02211Y00169*
X-02211Y00169*
X-02211Y00168*
X-0221Y00168*
X-0221Y00168*
X-02209Y00168*
X-02209Y00168*
X-02208Y00168*
X-02208*
X-02208Y00168*
X-02208Y00168*
X-02207Y00168*
X-02207Y00168*
X-02206Y00168*
X-02206Y00168*
X-02206Y00168*
X-02206Y00168*
X-02206Y00169*
X-02206Y00169*
X-02205Y00169*
X-02205Y00169*
X-02205Y0017*
X-02205Y0017*
Y0017*
X-02205Y0017*
X-02205Y0017*
X-02205Y00171*
X-02205Y00171*
X-02205Y00172*
X-02204Y00172*
Y00173*
Y0019*
X-02201*
Y00173*
G37*
G36*
X-02168Y00191D02*
X-02168Y00191D01*
X-02168Y0019*
X-02167Y0019*
X-02167Y0019*
X-02166Y0019*
X-02165Y0019*
X-02165Y0019*
X-02164Y00189*
X-02164Y00189*
X-02163Y00189*
X-02163Y00189*
X-02163Y00188*
X-02163Y00188*
X-02163Y00188*
X-02163Y00188*
X-02163Y00188*
X-02162Y00187*
X-02162Y00186*
X-02161Y00186*
X-02161Y00185*
X-02161Y00184*
X-02161Y00184*
Y00183*
Y00183*
X-02161Y00183*
X-02161Y00183*
X-02161Y00182*
X-02161Y00182*
X-02162Y00181*
X-02162Y00181*
X-02162Y00181*
X-02162Y0018*
X-02162Y0018*
X-02162Y0018*
X-02163Y00179*
X-02163Y00179*
X-02163Y00178*
X-02164Y00178*
X-02164Y00177*
X-02164Y00177*
X-02164Y00177*
X-02165Y00177*
X-02165Y00176*
X-02165Y00176*
X-02166Y00176*
X-02166Y00175*
X-02166Y00175*
X-02167Y00175*
X-02167Y00174*
X-02168Y00174*
X-02169Y00173*
X-02169Y00173*
X-02169Y00173*
X-02169Y00173*
X-02169Y00173*
X-0217Y00172*
X-0217Y00172*
X-02171Y00171*
X-02171Y00171*
X-02172Y0017*
X-02172Y0017*
X-02172Y0017*
X-02172Y0017*
X-02172Y0017*
X-02172Y0017*
X-02173Y00169*
X-02173Y00169*
X-02174Y00168*
X-02161*
Y00165*
X-02178*
Y00165*
Y00165*
Y00166*
X-02178Y00166*
X-02178Y00166*
X-02178Y00167*
X-02178Y00167*
X-02177Y00167*
Y00167*
X-02177Y00167*
X-02177Y00168*
X-02177Y00168*
X-02177Y00168*
X-02177Y00169*
X-02176Y0017*
X-02176Y0017*
X-02175Y00171*
Y00171*
X-02175Y00171*
X-02175Y00171*
X-02175Y00171*
X-02174Y00172*
X-02174Y00172*
X-02173Y00173*
X-02172Y00174*
X-02171Y00175*
X-02171Y00175*
X-02171Y00175*
X-02171Y00175*
X-02171Y00175*
X-0217Y00175*
X-0217Y00176*
X-02169Y00176*
X-02168Y00177*
X-02167Y00178*
X-02167Y00179*
X-02166Y00179*
X-02166Y0018*
X-02166Y0018*
Y0018*
X-02166Y0018*
X-02166Y0018*
X-02166Y0018*
X-02165Y00181*
X-02165Y00181*
X-02165Y00182*
X-02165Y00182*
X-02164Y00183*
X-02164Y00184*
Y00184*
Y00184*
X-02164Y00184*
X-02164Y00184*
X-02164Y00185*
X-02165Y00185*
X-02165Y00186*
X-02165Y00186*
X-02166Y00187*
X-02166Y00187*
X-02166Y00187*
X-02166Y00187*
X-02167Y00187*
X-02167Y00188*
X-02168Y00188*
X-02168Y00188*
X-02169Y00188*
X-02169*
X-0217Y00188*
X-0217Y00188*
X-0217Y00188*
X-02171Y00188*
X-02172Y00187*
X-02172Y00187*
X-02173Y00187*
X-02173Y00187*
X-02173Y00186*
X-02173Y00186*
X-02173Y00186*
X-02174Y00185*
X-02174Y00185*
X-02174Y00184*
X-02174Y00183*
X-02177Y00183*
Y00183*
Y00183*
X-02177Y00184*
X-02177Y00184*
X-02177Y00184*
X-02177Y00185*
X-02177Y00185*
X-02176Y00186*
X-02176Y00187*
X-02176Y00188*
X-02175Y00188*
X-02175Y00189*
X-02175Y00189*
X-02175Y00189*
X-02175Y00189*
X-02174Y00189*
X-02174Y00189*
X-02174Y00189*
X-02174Y00189*
X-02173Y0019*
X-02173Y0019*
X-02172Y0019*
X-02172Y0019*
X-02171Y0019*
X-0217Y00191*
X-0217Y00191*
X-02169Y00191*
X-02169*
X-02168Y00191*
G37*
G36*
X-02188D02*
X-02188Y00191D01*
X-02187Y0019*
X-02187Y0019*
X-02187Y0019*
X-02186Y0019*
X-02185Y0019*
X-02184Y0019*
X-02184Y00189*
X-02183Y00189*
X-02183Y00189*
X-02183Y00189*
X-02183Y00188*
X-02183Y00188*
X-02183Y00188*
X-02182Y00188*
X-02182Y00188*
X-02182Y00187*
X-02181Y00186*
X-02181Y00186*
X-02181Y00185*
X-02181Y00184*
X-02181Y00184*
Y00183*
Y00183*
X-02181Y00183*
X-02181Y00183*
X-02181Y00182*
X-02181Y00182*
X-02181Y00181*
X-02181Y00181*
X-02181Y00181*
X-02181Y0018*
X-02182Y0018*
X-02182Y0018*
X-02182Y00179*
X-02182Y00179*
X-02183Y00178*
X-02183Y00178*
X-02184Y00177*
X-02184Y00177*
X-02184Y00177*
X-02184Y00177*
X-02185Y00176*
X-02185Y00176*
X-02185Y00176*
X-02186Y00175*
X-02186Y00175*
X-02187Y00175*
X-02187Y00174*
X-02188Y00174*
X-02188Y00173*
X-02188Y00173*
X-02188Y00173*
X-02188Y00173*
X-02189Y00173*
X-02189Y00172*
X-0219Y00172*
X-0219Y00171*
X-02191Y00171*
X-02191Y0017*
X-02192Y0017*
X-02192Y0017*
X-02192Y0017*
X-02192Y0017*
X-02192Y0017*
X-02192Y00169*
X-02193Y00169*
X-02193Y00168*
X-02181*
Y00165*
X-02197*
Y00165*
Y00165*
Y00166*
X-02197Y00166*
X-02197Y00166*
X-02197Y00167*
X-02197Y00167*
X-02197Y00167*
Y00167*
X-02197Y00167*
X-02197Y00168*
X-02197Y00168*
X-02197Y00168*
X-02196Y00169*
X-02196Y0017*
X-02196Y0017*
X-02195Y00171*
Y00171*
X-02195Y00171*
X-02195Y00171*
X-02194Y00171*
X-02194Y00172*
X-02193Y00172*
X-02193Y00173*
X-02192Y00174*
X-02191Y00175*
X-02191Y00175*
X-02191Y00175*
X-02191Y00175*
X-0219Y00175*
X-0219Y00175*
X-0219Y00176*
X-02189Y00176*
X-02188Y00177*
X-02187Y00178*
X-02186Y00179*
X-02186Y00179*
X-02186Y0018*
X-02185Y0018*
Y0018*
X-02185Y0018*
X-02185Y0018*
X-02185Y0018*
X-02185Y00181*
X-02185Y00181*
X-02184Y00182*
X-02184Y00182*
X-02184Y00183*
X-02184Y00184*
Y00184*
Y00184*
X-02184Y00184*
X-02184Y00184*
X-02184Y00185*
X-02184Y00185*
X-02184Y00186*
X-02185Y00186*
X-02185Y00187*
X-02185Y00187*
X-02185Y00187*
X-02186Y00187*
X-02186Y00187*
X-02187Y00188*
X-02187Y00188*
X-02188Y00188*
X-02189Y00188*
X-02189*
X-02189Y00188*
X-02189Y00188*
X-0219Y00188*
X-02191Y00188*
X-02191Y00187*
X-02192Y00187*
X-02192Y00187*
X-02192Y00187*
X-02192Y00186*
X-02193Y00186*
X-02193Y00186*
X-02193Y00185*
X-02193Y00185*
X-02194Y00184*
X-02194Y00183*
X-02197Y00183*
Y00183*
Y00183*
X-02197Y00184*
X-02197Y00184*
X-02197Y00184*
X-02197Y00185*
X-02196Y00185*
X-02196Y00186*
X-02196Y00187*
X-02195Y00188*
X-02195Y00188*
X-02194Y00189*
X-02194Y00189*
X-02194Y00189*
X-02194Y00189*
X-02194Y00189*
X-02194Y00189*
X-02194Y00189*
X-02193Y00189*
X-02193Y0019*
X-02192Y0019*
X-02192Y0019*
X-02192Y0019*
X-02191Y0019*
X-0219Y00191*
X-02189Y00191*
X-02189Y00191*
X-02188*
X-02188Y00191*
G37*
G36*
X-02169Y00033D02*
X-02168Y00033D01*
X-02168Y00033*
X-02167Y00033*
X-02166Y00033*
X-02166Y00032*
X-02166*
X-02166Y00032*
X-02165Y00032*
X-02165Y00032*
X-02165Y00032*
X-02164Y00031*
X-02164Y00031*
X-02163Y0003*
X-02163Y0003*
X-02163Y0003*
X-02163Y0003*
X-02163Y00029*
X-02163Y00029*
X-02162Y00028*
X-02162Y00028*
X-02162Y00027*
X-02162Y00027*
Y00026*
Y00026*
X-02162Y00026*
X-02162Y00026*
X-02162Y00025*
X-02162Y00025*
X-02163Y00024*
X-02163Y00024*
X-02163Y00024*
X-02163Y00023*
X-02163Y00023*
X-02164Y00023*
X-02164Y00022*
X-02164Y00022*
X-02165Y00022*
X-02166Y00021*
X-02166*
X-02165Y00021*
X-02165*
X-02165Y00021*
X-02165Y00021*
X-02164Y00021*
X-02164Y00021*
X-02163Y0002*
X-02163Y0002*
X-02162Y00019*
X-02162Y00019*
X-02162Y00019*
X-02162Y00019*
X-02161Y00018*
X-02161Y00018*
X-02161Y00017*
X-02161Y00016*
X-02161Y00015*
Y00015*
Y00015*
Y00015*
X-02161Y00015*
X-02161Y00014*
X-02161Y00014*
X-02161Y00014*
X-02161Y00013*
X-02161Y00012*
X-02162Y00012*
X-02162Y00011*
X-02162Y00011*
X-02162Y00011*
X-02163Y0001*
X-02163Y0001*
X-02163Y0001*
X-02163Y0001*
X-02164Y00009*
X-02164Y00009*
X-02164Y00009*
X-02164Y00009*
X-02165Y00009*
X-02165Y00009*
X-02165Y00008*
X-02166Y00008*
X-02166Y00008*
X-02167Y00008*
X-02167Y00008*
X-02168Y00007*
X-02169Y00007*
X-02169Y00007*
X-0217*
X-0217Y00007*
X-0217Y00007*
X-02171Y00007*
X-02171Y00008*
X-02171Y00008*
X-02172Y00008*
X-02173Y00008*
X-02174Y00008*
X-02174Y00009*
X-02174Y00009*
X-02175Y00009*
X-02175Y00009*
X-02175Y00009*
X-02175Y0001*
X-02175Y0001*
X-02175Y0001*
X-02176Y0001*
X-02176Y0001*
X-02176Y00011*
X-02176Y00011*
X-02177Y00012*
X-02177Y00013*
X-02177Y00014*
X-02177Y00014*
X-02174Y00015*
Y00015*
X-02174Y00015*
Y00015*
X-02174Y00014*
X-02174Y00014*
X-02174Y00013*
X-02174Y00013*
X-02173Y00012*
X-02173Y00012*
X-02172Y00011*
X-02172Y00011*
X-02172Y00011*
X-02172Y00011*
X-02172Y00011*
X-02171Y0001*
X-02171Y0001*
X-0217Y0001*
X-02169Y0001*
X-02169*
X-02169Y0001*
X-02169Y0001*
X-02168Y0001*
X-02167Y0001*
X-02167Y00011*
X-02166Y00011*
X-02166Y00011*
X-02166Y00012*
X-02165Y00012*
X-02165Y00012*
X-02165Y00012*
X-02165Y00013*
X-02164Y00014*
X-02164Y00014*
X-02164Y00015*
Y00015*
Y00015*
Y00015*
X-02164Y00016*
X-02164Y00016*
X-02164Y00016*
X-02165Y00017*
X-02165Y00018*
X-02165Y00018*
X-02166Y00019*
X-02166Y00019*
X-02166Y00019*
X-02166Y00019*
X-02167Y00019*
X-02167Y0002*
X-02168Y0002*
X-02168Y0002*
X-02169Y0002*
X-02169*
X-0217Y0002*
X-0217Y0002*
X-0217Y0002*
X-02171Y0002*
X-02171Y0002*
X-02171Y00022*
X-02171*
X-02171Y00022*
X-0217*
X-0217Y00022*
X-02169Y00023*
X-02169Y00023*
X-02168Y00023*
X-02168Y00023*
X-02167Y00023*
X-02167Y00023*
X-02167Y00024*
X-02166Y00024*
X-02166Y00024*
X-02166Y00025*
X-02166Y00025*
X-02165Y00026*
X-02165Y00027*
Y00027*
Y00027*
Y00027*
X-02165Y00027*
X-02165Y00028*
X-02166Y00028*
X-02166Y00029*
X-02166Y00029*
X-02166Y00029*
X-02166Y00029*
X-02167Y0003*
X-02167Y0003*
X-02167Y0003*
X-02168Y0003*
X-02168Y0003*
X-02169Y00031*
X-02169Y00031*
X-0217*
X-0217Y00031*
X-0217Y0003*
X-02171Y0003*
X-02171Y0003*
X-02172Y0003*
X-02172Y00029*
X-02172Y00029*
X-02173Y00029*
X-02173Y00029*
X-02173Y00029*
X-02173Y00028*
X-02174Y00028*
X-02174Y00027*
X-02174Y00026*
X-02177Y00027*
Y00027*
X-02177Y00027*
X-02177Y00027*
X-02177Y00027*
X-02177Y00027*
X-02177Y00028*
X-02176Y00028*
X-02176Y00029*
X-02176Y0003*
X-02175Y00031*
X-02175Y00031*
X-02174Y00031*
X-02174Y00031*
X-02174Y00032*
X-02174Y00032*
X-02174Y00032*
X-02174Y00032*
X-02173Y00032*
X-02172Y00033*
X-02172Y00033*
X-02171Y00033*
X-0217Y00033*
X-02169*
X-02169Y00033*
G37*
G36*
X-02201Y00016D02*
Y00016D01*
Y00016*
Y00015*
Y00015*
X-02201Y00015*
Y00015*
X-02201Y00014*
X-02201Y00013*
X-02201Y00012*
X-02202Y00012*
X-02202Y00011*
X-02202Y00011*
X-02202Y00011*
X-02202Y0001*
X-02202Y0001*
X-02203Y00009*
X-02203Y00009*
X-02204Y00009*
X-02204Y00008*
X-02204Y00008*
X-02205Y00008*
X-02205Y00008*
X-02205Y00008*
X-02206Y00008*
X-02207Y00008*
X-02207Y00007*
X-02208Y00007*
X-02209*
X-02209Y00007*
X-02209Y00007*
X-02209Y00007*
X-0221Y00008*
X-02211Y00008*
X-02212Y00008*
X-02212Y00008*
X-02213Y00009*
X-02213Y00009*
X-02213Y00009*
Y00009*
X-02213Y00009*
X-02214Y00009*
X-02214Y0001*
X-02214Y0001*
X-02214Y0001*
X-02214Y0001*
X-02214Y00011*
X-02214Y00011*
X-02215Y00011*
X-02215Y00012*
X-02215Y00012*
X-02215Y00013*
X-02215Y00014*
X-02215Y00014*
Y00015*
X-02212Y00015*
Y00015*
Y00015*
Y00015*
X-02212Y00015*
Y00015*
X-02212Y00014*
X-02212Y00014*
X-02212Y00013*
X-02212Y00012*
X-02211Y00012*
X-02211Y00012*
X-02211Y00011*
X-02211Y00011*
X-02211Y00011*
X-02211Y00011*
X-0221Y00011*
X-0221Y00011*
X-02209Y0001*
X-02209Y0001*
X-02208Y0001*
X-02208*
X-02208Y0001*
X-02208Y0001*
X-02207Y0001*
X-02207Y00011*
X-02206Y00011*
X-02206Y00011*
X-02206Y00011*
X-02206Y00011*
X-02206Y00011*
X-02206Y00011*
X-02205Y00012*
X-02205Y00012*
X-02205Y00012*
X-02205Y00012*
Y00012*
X-02205Y00013*
X-02205Y00013*
X-02205Y00013*
X-02205Y00014*
X-02205Y00014*
X-02204Y00015*
Y00016*
Y00033*
X-02201*
Y00016*
G37*
G36*
X-02188Y00033D02*
X-02188Y00033D01*
X-02187Y00033*
X-02187Y00033*
X-02187Y00033*
X-02186Y00033*
X-02185Y00032*
X-02184Y00032*
X-02184Y00032*
X-02183Y00031*
X-02183Y00031*
X-02183Y00031*
X-02183Y00031*
X-02183Y00031*
X-02183Y00031*
X-02182Y00031*
X-02182Y0003*
X-02182Y0003*
X-02181Y00029*
X-02181Y00028*
X-02181Y00027*
X-02181Y00027*
X-02181Y00026*
Y00026*
Y00026*
X-02181Y00026*
X-02181Y00025*
X-02181Y00025*
X-02181Y00024*
X-02181Y00024*
X-02181Y00023*
X-02181Y00023*
X-02181Y00023*
X-02182Y00023*
X-02182Y00022*
X-02182Y00022*
X-02182Y00021*
X-02183Y00021*
X-02183Y0002*
X-02184Y0002*
X-02184Y0002*
X-02184Y00019*
X-02184Y00019*
X-02185Y00019*
X-02185Y00019*
X-02185Y00018*
X-02186Y00018*
X-02186Y00017*
X-02187Y00017*
X-02187Y00017*
X-02188Y00016*
X-02188Y00016*
X-02188Y00016*
X-02188Y00015*
X-02188Y00015*
X-02189Y00015*
X-02189Y00015*
X-0219Y00014*
X-0219Y00014*
X-02191Y00013*
X-02191Y00013*
X-02192Y00013*
X-02192Y00012*
X-02192Y00012*
X-02192Y00012*
X-02192Y00012*
X-02192Y00012*
X-02193Y00011*
X-02193Y00011*
X-02181*
Y00008*
X-02197*
Y00008*
Y00008*
Y00008*
X-02197Y00008*
X-02197Y00009*
X-02197Y00009*
X-02197Y0001*
X-02197Y0001*
Y0001*
X-02197Y0001*
X-02197Y0001*
X-02197Y00011*
X-02197Y00011*
X-02196Y00011*
X-02196Y00012*
X-02196Y00013*
X-02195Y00013*
Y00013*
X-02195Y00013*
X-02195Y00014*
X-02194Y00014*
X-02194Y00014*
X-02193Y00015*
X-02193Y00016*
X-02192Y00016*
X-02191Y00017*
X-02191Y00017*
X-02191Y00017*
X-02191Y00017*
X-0219Y00018*
X-0219Y00018*
X-0219Y00018*
X-02189Y00019*
X-02188Y0002*
X-02187Y00021*
X-02186Y00021*
X-02186Y00022*
X-02186Y00022*
X-02185Y00022*
Y00022*
X-02185Y00022*
X-02185Y00023*
X-02185Y00023*
X-02185Y00023*
X-02185Y00024*
X-02184Y00024*
X-02184Y00025*
X-02184Y00026*
X-02184Y00026*
Y00026*
Y00026*
X-02184Y00026*
X-02184Y00027*
X-02184Y00027*
X-02184Y00028*
X-02184Y00028*
X-02185Y00029*
X-02185Y00029*
X-02185Y00029*
X-02185Y00029*
X-02186Y0003*
X-02186Y0003*
X-02187Y0003*
X-02187Y0003*
X-02188Y00031*
X-02189Y00031*
X-02189*
X-02189Y00031*
X-02189Y0003*
X-0219Y0003*
X-02191Y0003*
X-02191Y0003*
X-02192Y0003*
X-02192Y00029*
X-02192Y00029*
X-02192Y00029*
X-02193Y00029*
X-02193Y00028*
X-02193Y00028*
X-02193Y00027*
X-02194Y00026*
X-02194Y00025*
X-02197Y00026*
Y00026*
Y00026*
X-02197Y00026*
X-02197Y00026*
X-02197Y00027*
X-02197Y00027*
X-02196Y00028*
X-02196Y00029*
X-02196Y0003*
X-02195Y0003*
X-02195Y00031*
X-02194Y00031*
X-02194Y00031*
X-02194Y00031*
X-02194Y00031*
X-02194Y00032*
X-02194Y00032*
X-02194Y00032*
X-02193Y00032*
X-02193Y00032*
X-02192Y00032*
X-02192Y00033*
X-02192Y00033*
X-02191Y00033*
X-0219Y00033*
X-02189Y00033*
X-02189Y00033*
X-02188*
X-02188Y00033*
G37*
G36*
X-02201Y-00143D02*
Y-00143D01*
Y-00143*
Y-00143*
Y-00144*
X-02201Y-00144*
Y-00144*
X-02201Y-00145*
X-02201Y-00146*
X-02201Y-00147*
X-02202Y-00147*
X-02202Y-00148*
X-02202Y-00148*
X-02202Y-00148*
X-02202Y-00149*
X-02202Y-00149*
X-02203Y-00149*
X-02203Y-0015*
X-02204Y-0015*
X-02204Y-00151*
X-02204Y-00151*
X-02205Y-00151*
X-02205Y-00151*
X-02205Y-00151*
X-02206Y-00151*
X-02207Y-00151*
X-02207Y-00152*
X-02208Y-00152*
X-02209*
X-02209Y-00152*
X-02209Y-00152*
X-02209Y-00151*
X-0221Y-00151*
X-02211Y-00151*
X-02212Y-00151*
X-02212Y-00151*
X-02213Y-0015*
X-02213Y-0015*
X-02213Y-0015*
Y-0015*
X-02213Y-0015*
X-02214Y-0015*
X-02214Y-00149*
X-02214Y-00149*
X-02214Y-00149*
X-02214Y-00149*
X-02214Y-00148*
X-02214Y-00148*
X-02215Y-00147*
X-02215Y-00147*
X-02215Y-00146*
X-02215Y-00146*
X-02215Y-00145*
X-02215Y-00145*
Y-00144*
X-02212Y-00144*
Y-00144*
Y-00144*
Y-00144*
X-02212Y-00144*
Y-00144*
X-02212Y-00145*
X-02212Y-00145*
X-02212Y-00146*
X-02212Y-00147*
X-02211Y-00147*
X-02211Y-00147*
X-02211Y-00148*
X-02211Y-00148*
X-02211Y-00148*
X-02211Y-00148*
X-0221Y-00148*
X-0221Y-00148*
X-02209Y-00148*
X-02209Y-00149*
X-02208Y-00149*
X-02208*
X-02208Y-00149*
X-02208Y-00149*
X-02207Y-00148*
X-02207Y-00148*
X-02206Y-00148*
X-02206Y-00148*
X-02206Y-00148*
X-02206Y-00148*
X-02206Y-00148*
X-02206Y-00148*
X-02205Y-00147*
X-02205Y-00147*
X-02205Y-00147*
X-02205Y-00147*
Y-00146*
X-02205Y-00146*
X-02205Y-00146*
X-02205Y-00146*
X-02205Y-00145*
X-02205Y-00145*
X-02204Y-00144*
Y-00143*
Y-00126*
X-02201*
Y-00143*
G37*
G36*
X-02164Y-00142D02*
X-02161D01*
Y-00145*
X-02164*
Y-00151*
X-02167*
Y-00145*
X-02178*
Y-00142*
X-02167Y-00126*
X-02164*
Y-00142*
G37*
G36*
X-02188Y-00126D02*
X-02188Y-00126D01*
X-02187Y-00126*
X-02187Y-00126*
X-02187Y-00126*
X-02186Y-00126*
X-02185Y-00127*
X-02184Y-00127*
X-02184Y-00127*
X-02183Y-00128*
X-02183Y-00128*
X-02183Y-00128*
X-02183Y-00128*
X-02183Y-00128*
X-02183Y-00128*
X-02182Y-00128*
X-02182Y-00129*
X-02182Y-00129*
X-02181Y-0013*
X-02181Y-00131*
X-02181Y-00132*
X-02181Y-00132*
X-02181Y-00133*
Y-00133*
Y-00133*
X-02181Y-00133*
X-02181Y-00134*
X-02181Y-00134*
X-02181Y-00135*
X-02181Y-00135*
X-02181Y-00136*
X-02181Y-00136*
X-02181Y-00136*
X-02182Y-00136*
X-02182Y-00137*
X-02182Y-00137*
X-02182Y-00138*
X-02183Y-00138*
X-02183Y-00139*
X-02184Y-00139*
X-02184Y-00139*
X-02184Y-0014*
X-02184Y-0014*
X-02185Y-0014*
X-02185Y-0014*
X-02185Y-00141*
X-02186Y-00141*
X-02186Y-00141*
X-02187Y-00142*
X-02187Y-00142*
X-02188Y-00143*
X-02188Y-00143*
X-02188Y-00143*
X-02188Y-00143*
X-02188Y-00144*
X-02189Y-00144*
X-02189Y-00144*
X-0219Y-00145*
X-0219Y-00145*
X-02191Y-00146*
X-02191Y-00146*
X-02192Y-00146*
X-02192Y-00147*
X-02192Y-00147*
X-02192Y-00147*
X-02192Y-00147*
X-02192Y-00147*
X-02193Y-00148*
X-02193Y-00148*
X-02181*
Y-00151*
X-02197*
Y-00151*
Y-00151*
Y-00151*
X-02197Y-0015*
X-02197Y-0015*
X-02197Y-0015*
X-02197Y-00149*
X-02197Y-00149*
Y-00149*
X-02197Y-00149*
X-02197Y-00149*
X-02197Y-00148*
X-02197Y-00148*
X-02196Y-00147*
X-02196Y-00147*
X-02196Y-00146*
X-02195Y-00146*
Y-00146*
X-02195Y-00146*
X-02195Y-00145*
X-02194Y-00145*
X-02194Y-00145*
X-02193Y-00144*
X-02193Y-00143*
X-02192Y-00143*
X-02191Y-00142*
X-02191Y-00142*
X-02191Y-00142*
X-02191Y-00142*
X-0219Y-00141*
X-0219Y-00141*
X-0219Y-00141*
X-02189Y-0014*
X-02188Y-00139*
X-02187Y-00138*
X-02186Y-00138*
X-02186Y-00137*
X-02186Y-00137*
X-02185Y-00137*
Y-00137*
X-02185Y-00136*
X-02185Y-00136*
X-02185Y-00136*
X-02185Y-00136*
X-02185Y-00135*
X-02184Y-00135*
X-02184Y-00134*
X-02184Y-00133*
X-02184Y-00133*
Y-00133*
Y-00133*
X-02184Y-00132*
X-02184Y-00132*
X-02184Y-00132*
X-02184Y-00131*
X-02184Y-00131*
X-02185Y-0013*
X-02185Y-0013*
X-02185Y-0013*
X-02185Y-00129*
X-02186Y-00129*
X-02186Y-00129*
X-02187Y-00129*
X-02187Y-00129*
X-02188Y-00128*
X-02189Y-00128*
X-02189*
X-02189Y-00128*
X-02189Y-00128*
X-0219Y-00129*
X-02191Y-00129*
X-02191Y-00129*
X-02192Y-00129*
X-02192Y-0013*
X-02192Y-0013*
X-02192Y-0013*
X-02193Y-0013*
X-02193Y-00131*
X-02193Y-00131*
X-02193Y-00132*
X-02194Y-00133*
X-02194Y-00133*
X-02197Y-00133*
Y-00133*
Y-00133*
X-02197Y-00133*
X-02197Y-00133*
X-02197Y-00132*
X-02197Y-00132*
X-02196Y-00131*
X-02196Y-0013*
X-02196Y-00129*
X-02195Y-00128*
X-02195Y-00128*
X-02194Y-00128*
X-02194Y-00128*
X-02194Y-00128*
X-02194Y-00128*
X-02194Y-00127*
X-02194Y-00127*
X-02194Y-00127*
X-02193Y-00127*
X-02193Y-00127*
X-02192Y-00127*
X-02192Y-00126*
X-02192Y-00126*
X-02191Y-00126*
X-0219Y-00126*
X-02189Y-00126*
X-02189Y-00126*
X-02188*
X-02188Y-00126*
G37*
G36*
X-00291Y01033D02*
X-00291D01*
X-00291*
X-00292*
X-00292Y01033*
X-00292Y01033*
X-00293Y01033*
X-00293Y01033*
X-00293Y01033*
X-00293*
X-00293Y01033*
X-00294Y01034*
X-00294Y01034*
X-00294Y01034*
X-00295Y01034*
X-00296Y01035*
X-00296Y01035*
X-00297Y01035*
X-00297*
X-00297Y01036*
X-00297Y01036*
X-00297Y01036*
X-00298Y01036*
X-00298Y01037*
X-00299Y01038*
X-003Y01039*
X-00301Y0104*
X-00301Y0104*
X-00301Y0104*
X-00301Y0104*
X-00301Y0104*
X-00301Y01041*
X-00302Y01041*
X-00303Y01042*
X-00303Y01043*
X-00304Y01044*
X-00305Y01044*
X-00305Y01044*
X-00306Y01045*
X-00306Y01045*
X-00306*
X-00306Y01045*
X-00306Y01045*
X-00306Y01045*
X-00307Y01046*
X-00307Y01046*
X-00308Y01046*
X-00308Y01046*
X-00309Y01046*
X-0031Y01047*
X-0031*
X-0031*
X-0031Y01047*
X-0031Y01046*
X-00311Y01046*
X-00311Y01046*
X-00312Y01046*
X-00312Y01046*
X-00313Y01045*
X-00313Y01045*
X-00313Y01045*
X-00313Y01045*
X-00313Y01044*
X-00314Y01044*
X-00314Y01043*
X-00314Y01043*
X-00314Y01042*
Y01042*
X-00314Y01041*
X-00314Y01041*
X-00314Y0104*
X-00314Y0104*
X-00313Y01039*
X-00313Y01039*
X-00313Y01038*
X-00313Y01038*
X-00312Y01038*
X-00312Y01038*
X-00312Y01038*
X-00311Y01037*
X-00311Y01037*
X-0031Y01037*
X-00309Y01037*
X-00309Y01034*
X-00309*
X-0031*
X-0031Y01034*
X-0031Y01034*
X-0031Y01034*
X-00311Y01034*
X-00311Y01034*
X-00312Y01034*
X-00313Y01035*
X-00314Y01035*
X-00314Y01036*
X-00315Y01036*
X-00315Y01036*
X-00315Y01036*
X-00315Y01036*
X-00315Y01036*
X-00315Y01037*
X-00315Y01037*
X-00316Y01037*
X-00316Y01038*
X-00316Y01038*
X-00316Y01038*
X-00316Y01039*
X-00316Y01039*
X-00317Y01041*
X-00317Y01041*
X-00317Y01042*
Y01042*
X-00317Y01042*
X-00317Y01043*
X-00317Y01043*
X-00316Y01043*
X-00316Y01044*
X-00316Y01045*
X-00316Y01046*
X-00316Y01046*
X-00315Y01047*
X-00315Y01047*
X-00315Y01048*
X-00315Y01048*
X-00315Y01048*
X-00314Y01048*
X-00314Y01048*
X-00314Y01048*
X-00314Y01048*
X-00313Y01049*
X-00313Y01049*
X-00312Y01049*
X-00311Y0105*
X-0031Y0105*
X-0031Y0105*
X-0031*
X-00309*
X-00309Y0105*
X-00309Y0105*
X-00308Y0105*
X-00308Y01049*
X-00307Y01049*
X-00307Y01049*
X-00307Y01049*
X-00306Y01049*
X-00306Y01049*
X-00306Y01049*
X-00305Y01048*
X-00305Y01048*
X-00304Y01048*
X-00304Y01047*
X-00303Y01047*
X-00303Y01047*
X-00303Y01046*
X-00303Y01046*
X-00302Y01046*
X-00302Y01046*
X-00302Y01045*
X-00301Y01045*
X-00301Y01044*
X-00301Y01044*
X-003Y01043*
X-003Y01043*
X-00299Y01042*
X-00299Y01042*
X-00299Y01042*
X-00299Y01042*
X-00299Y01042*
X-00298Y01041*
X-00298Y01041*
X-00297Y0104*
X-00297Y0104*
X-00296Y01039*
X-00296Y01039*
X-00296Y01039*
X-00296Y01039*
X-00296Y01039*
X-00296Y01038*
X-00295Y01038*
X-00295Y01038*
X-00294Y01037*
Y0105*
X-00291*
Y01033*
G37*
G36*
X-00303Y0103D02*
X-00303D01*
X-00302Y0103*
X-00302Y0103*
X-00301Y0103*
X-003Y0103*
X-00299Y01029*
X-00299*
X-00299Y01029*
X-00299Y01029*
X-00299Y01029*
X-00298Y01029*
X-00298Y01029*
X-00297Y01029*
X-00296Y01028*
X-00296Y01028*
X-00295Y01028*
X-00295Y01028*
X-00295Y01028*
X-00295Y01027*
X-00294Y01027*
X-00294Y01027*
X-00294Y01026*
X-00293Y01026*
X-00293Y01025*
X-00293Y01025*
X-00293Y01025*
X-00293Y01025*
X-00292Y01025*
X-00292Y01024*
X-00292Y01024*
X-00292Y01023*
X-00292Y01022*
Y01022*
X-00292Y01022*
X-00292Y01022*
X-00292Y01021*
X-00291Y01021*
X-00291Y0102*
X-00291Y01019*
X-00291Y01018*
Y01009*
X-00317*
Y01019*
X-00316Y0102*
X-00316Y0102*
X-00316Y01021*
X-00316Y01022*
X-00316Y01022*
Y01023*
X-00316Y01023*
Y01023*
X-00316Y01023*
X-00316Y01023*
X-00316Y01024*
X-00315Y01024*
X-00315Y01025*
X-00315Y01026*
X-00314Y01026*
Y01026*
X-00314Y01026*
X-00314Y01027*
X-00314Y01027*
X-00313Y01027*
X-00313Y01028*
X-00312Y01028*
X-00311Y01029*
X-0031Y01029*
X-0031*
X-0031Y01029*
X-0031Y01029*
X-0031Y01029*
X-00309Y01029*
X-00309Y01029*
X-00309Y0103*
X-00308Y0103*
X-00308Y0103*
X-00307Y0103*
X-00306Y0103*
X-00305Y0103*
X-00304Y0103*
X-00304*
X-00304*
X-00304*
X-00304*
X-00303Y0103*
G37*
G36*
X-00179Y-01003D02*
Y-01003D01*
Y-01003*
Y-01003*
Y-01003*
X-00179Y-01004*
Y-01004*
X-00179Y-01005*
X-00179Y-01006*
X-00179Y-01006*
X-00179Y-01007*
X-00179Y-01008*
X-0018Y-01008*
X-0018Y-01008*
X-0018Y-01008*
X-0018Y-01009*
X-0018Y-01009*
X-00181Y-0101*
X-00181Y-0101*
X-00182Y-0101*
X-00182Y-01011*
X-00182Y-01011*
X-00183Y-01011*
X-00183Y-01011*
X-00184Y-01011*
X-00184Y-01011*
X-00185Y-01011*
X-00186Y-01011*
X-00186*
X-00186Y-01011*
X-00187Y-01011*
X-00187Y-01011*
X-00188Y-01011*
X-00189Y-01011*
X-00189Y-01011*
X-0019Y-0101*
X-0019Y-0101*
X-00191Y-0101*
X-00191Y-01009*
Y-01009*
X-00191Y-01009*
X-00191Y-01009*
X-00191Y-01009*
X-00191Y-01009*
X-00191Y-01009*
X-00192Y-01008*
X-00192Y-01008*
X-00192Y-01008*
X-00192Y-01007*
X-00192Y-01007*
X-00192Y-01006*
X-00193Y-01006*
X-00193Y-01005*
X-00193Y-01004*
Y-01004*
X-0019Y-01003*
Y-01003*
Y-01003*
Y-01004*
X-0019Y-01004*
Y-01004*
X-0019Y-01004*
X-00189Y-01005*
X-00189Y-01006*
X-00189Y-01006*
X-00189Y-01007*
X-00189Y-01007*
X-00189Y-01007*
X-00189Y-01007*
X-00188Y-01008*
X-00188Y-01008*
X-00188Y-01008*
X-00187Y-01008*
X-00187Y-01008*
X-00186Y-01008*
X-00186Y-01008*
X-00186*
X-00185Y-01008*
X-00185Y-01008*
X-00185Y-01008*
X-00184Y-01008*
X-00184Y-01008*
X-00184Y-01008*
X-00184Y-01008*
X-00184Y-01008*
X-00183Y-01008*
X-00183Y-01007*
X-00183Y-01007*
X-00183Y-01007*
X-00183Y-01007*
X-00182Y-01006*
Y-01006*
X-00182Y-01006*
X-00182Y-01006*
X-00182Y-01006*
X-00182Y-01005*
X-00182Y-01005*
X-00182Y-01004*
Y-01003*
Y-00986*
X-00179*
Y-01003*
G37*
G36*
X-00143Y-01011D02*
X-00146D01*
Y-00991*
X-00146Y-00991*
X-00147Y-00991*
X-00147Y-00992*
X-00147Y-00992*
X-00148Y-00992*
X-00148Y-00993*
X-00149Y-00993*
X-00149Y-00993*
X-00149*
X-00149Y-00993*
X-0015Y-00994*
X-0015Y-00994*
X-0015Y-00994*
X-00151Y-00994*
X-00151Y-00994*
X-00152Y-00995*
X-00153Y-00995*
Y-00992*
X-00153*
X-00152Y-00992*
X-00152Y-00992*
X-00152Y-00992*
X-00152Y-00992*
X-00152Y-00991*
X-00151Y-00991*
X-0015Y-00991*
X-0015Y-0099*
X-00149Y-0099*
X-00148Y-00989*
X-00148Y-00989*
X-00148Y-00989*
X-00148Y-00989*
X-00147Y-00988*
X-00147Y-00988*
X-00147Y-00987*
X-00146Y-00987*
X-00146Y-00986*
X-00145Y-00986*
X-00143*
Y-01011*
G37*
G36*
X-00163D02*
X-00166D01*
Y-00991*
X-00166Y-00991*
X-00166Y-00991*
X-00166Y-00992*
X-00167Y-00992*
X-00167Y-00992*
X-00168Y-00993*
X-00168Y-00993*
X-00169Y-00993*
X-00169*
X-00169Y-00993*
X-00169Y-00994*
X-0017Y-00994*
X-0017Y-00994*
X-00171Y-00994*
X-00171Y-00994*
X-00172Y-00995*
X-00172Y-00995*
Y-00992*
X-00172*
X-00172Y-00992*
X-00172Y-00992*
X-00172Y-00992*
X-00172Y-00992*
X-00171Y-00991*
X-00171Y-00991*
X-0017Y-00991*
X-00169Y-0099*
X-00168Y-0099*
X-00168Y-00989*
X-00168Y-00989*
X-00168Y-00989*
X-00167Y-00989*
X-00167Y-00988*
X-00167Y-00988*
X-00166Y-00987*
X-00166Y-00987*
X-00165Y-00986*
X-00165Y-00986*
X-00163*
Y-01011*
G37*
G36*
X0109Y-0082D02*
X0109Y-0082D01*
X0109Y-0082*
X01091Y-0082*
X01092Y-0082*
X01093Y-0082*
X01093Y-00821*
X01094Y-00821*
X01094Y-00821*
X01094Y-00822*
Y-00822*
X01094Y-00822*
X01094Y-00822*
X01095Y-00822*
X01095Y-00822*
X01095Y-00822*
X01095Y-00823*
X01095Y-00823*
X01095Y-00823*
X01095Y-00824*
X01096Y-00824*
X01096Y-00825*
X01096Y-00825*
X01096Y-00826*
X01096Y-00826*
Y-00827*
X01093Y-00828*
Y-00828*
Y-00827*
Y-00827*
X01093Y-00827*
Y-00827*
X01093Y-00827*
X01093Y-00826*
X01093Y-00825*
X01092Y-00825*
X01092Y-00824*
X01092Y-00824*
X01092Y-00824*
X01092Y-00824*
X01092Y-00823*
X01092Y-00823*
X01091Y-00823*
X01091Y-00823*
X0109Y-00823*
X0109Y-00823*
X01089Y-00823*
X01089*
X01089Y-00823*
X01088Y-00823*
X01088Y-00823*
X01088Y-00823*
X01087Y-00823*
X01087Y-00823*
X01087Y-00823*
X01087Y-00823*
X01087Y-00823*
X01087Y-00824*
X01086Y-00824*
X01086Y-00824*
X01086Y-00824*
X01086Y-00825*
Y-00825*
X01086Y-00825*
X01086Y-00825*
X01086Y-00825*
X01086Y-00826*
X01085Y-00826*
X01085Y-00827*
Y-00828*
Y-00845*
X01082*
Y-00828*
Y-00828*
Y-00828*
Y-00828*
Y-00828*
X01082Y-00827*
Y-00827*
X01082Y-00826*
X01082Y-00825*
X01082Y-00825*
X01083Y-00824*
X01083Y-00823*
X01083Y-00823*
X01083Y-00823*
X01083Y-00823*
X01083Y-00822*
X01084Y-00822*
X01084Y-00821*
X01085Y-00821*
X01085Y-00821*
X01085Y-0082*
X01086Y-0082*
X01086Y-0082*
X01086Y-0082*
X01087Y-0082*
X01088Y-0082*
X01088Y-0082*
X01089Y-0082*
X0109*
X0109Y-0082*
G37*
G36*
X0107D02*
X0107D01*
X0107Y-0082*
X01071Y-0082*
X01071Y-0082*
X01071Y-0082*
X01072Y-0082*
X01073Y-0082*
X01073Y-00821*
X01074Y-00821*
X01074Y-00821*
X01075Y-00822*
X01075Y-00822*
X01076Y-00822*
X01076Y-00823*
X01076Y-00823*
X01076Y-00823*
X01076Y-00823*
X01076Y-00823*
X01076Y-00824*
X01077Y-00824*
X01077Y-00825*
X01077Y-00825*
X01077Y-00826*
X01077Y-00827*
X01078Y-00828*
X01078Y-00829*
X01078Y-0083*
X01078Y-00831*
X01078Y-00832*
Y-00832*
Y-00832*
Y-00832*
Y-00832*
Y-00833*
X01078Y-00833*
X01078Y-00834*
X01078Y-00834*
X01078Y-00835*
X01078Y-00836*
X01078Y-00837*
X01077Y-00838*
X01077Y-00839*
X01077Y-00839*
X01077Y-0084*
X01076Y-00841*
X01076Y-00842*
X01075Y-00842*
X01075Y-00843*
X01075Y-00843*
X01075Y-00843*
X01075Y-00843*
X01075Y-00843*
X01074Y-00843*
X01074Y-00844*
X01074Y-00844*
X01073Y-00844*
X01073Y-00844*
X01072Y-00845*
X01072Y-00845*
X01071Y-00845*
X0107Y-00845*
X0107Y-00845*
X01069Y-00845*
X01069*
X01068Y-00845*
X01068*
X01068Y-00845*
X01067Y-00845*
X01066Y-00845*
X01066Y-00845*
X01065Y-00844*
X01064Y-00844*
X01064Y-00844*
X01064*
X01064Y-00844*
X01064Y-00843*
X01063Y-00843*
X01063Y-00843*
X01063Y-00842*
X01062Y-00841*
X01062Y-0084*
X01062Y-00839*
X01065Y-00839*
Y-00839*
Y-00839*
X01065Y-00839*
X01065Y-0084*
X01065Y-0084*
X01066Y-00841*
X01066Y-00841*
X01066Y-00842*
X01066Y-00842*
X01066Y-00842*
X01067Y-00842*
X01067Y-00842*
X01067Y-00842*
X01068Y-00843*
X01069Y-00843*
X01069Y-00843*
X01069*
X0107Y-00843*
X0107Y-00843*
X0107Y-00843*
X01071Y-00843*
X01071Y-00842*
X01072Y-00842*
X01072Y-00842*
X01072Y-00842*
X01072Y-00842*
X01073Y-00841*
X01073Y-00841*
X01073Y-0084*
X01074Y-0084*
X01074Y-00839*
Y-00839*
X01074Y-00839*
X01074Y-00839*
X01074Y-00838*
X01074Y-00838*
X01074Y-00838*
X01074Y-00838*
X01075Y-00837*
X01075Y-00837*
X01075Y-00837*
X01075Y-00836*
X01075Y-00836*
X01075Y-00835*
X01075Y-00834*
X01075Y-00834*
Y-00833*
X01075Y-00833*
X01075Y-00833*
X01075Y-00834*
X01074Y-00834*
X01074Y-00834*
X01073Y-00835*
X01073Y-00835*
X01072Y-00836*
X01072Y-00836*
X01072Y-00836*
X01072Y-00836*
X01071Y-00836*
X01071Y-00836*
X0107Y-00836*
X0107Y-00836*
X01069Y-00836*
X01069*
X01068Y-00836*
X01068Y-00836*
X01068Y-00836*
X01067Y-00836*
X01066Y-00836*
X01066Y-00836*
X01065Y-00835*
X01065Y-00835*
X01064Y-00835*
X01064Y-00835*
X01064Y-00834*
X01064Y-00834*
X01063Y-00834*
X01063Y-00834*
X01063Y-00834*
X01063Y-00833*
X01063Y-00833*
X01063Y-00833*
X01062Y-00833*
X01062Y-00832*
X01062Y-00832*
X01062Y-00831*
X01062Y-00831*
X01062Y-0083*
X01061Y-0083*
X01061Y-00829*
X01061Y-00828*
Y-00828*
Y-00828*
Y-00828*
Y-00828*
X01061Y-00828*
Y-00827*
X01061Y-00827*
X01062Y-00826*
X01062Y-00825*
X01062Y-00825*
X01062Y-00824*
Y-00824*
X01062Y-00824*
X01063Y-00824*
X01063Y-00823*
X01063Y-00823*
X01063Y-00823*
X01064Y-00822*
X01064Y-00822*
X01065Y-00821*
X01065Y-00821*
X01065Y-00821*
X01066Y-00821*
X01066Y-0082*
X01066Y-0082*
X01067Y-0082*
X01068Y-0082*
X01068Y-0082*
X01069Y-0082*
X01069*
X0107Y-0082*
G37*
G36*
X00482Y-00596D02*
X00482Y-00596D01*
X00482Y-00596*
X00483Y-00596*
X00483Y-00596*
X00484Y-00597*
X00485Y-00597*
X00485Y-00597*
X00486Y-00598*
X00486Y-00598*
X00487Y-00598*
X00487Y-00598*
X00487Y-00598*
X00487Y-00598*
X00487Y-00599*
X00487Y-00599*
X00487Y-00599*
X00488Y-00599*
X00488Y-006*
X00488Y-006*
X00489Y-00601*
X00489Y-00602*
X00489Y-00603*
X00489Y-00603*
X00486Y-00604*
Y-00604*
X00486Y-00604*
Y-00603*
X00486Y-00603*
X00486Y-00603*
X00486Y-00602*
X00485Y-00602*
X00485Y-00601*
X00485Y-006*
X00484Y-006*
X00484Y-006*
X00484Y-006*
X00484Y-006*
X00483Y-00599*
X00483Y-00599*
X00483Y-00599*
X00482Y-00599*
X00481Y-00599*
X00481*
X00481Y-00599*
X0048Y-00599*
X0048Y-00599*
X00479Y-00599*
X00479Y-00599*
X00478Y-006*
X00478Y-006*
X00478Y-006*
X00477Y-00601*
X00477Y-00601*
X00477Y-00601*
X00477Y-00602*
X00476Y-00602*
X00476Y-00603*
X00476Y-00604*
Y-00604*
Y-00604*
Y-00604*
X00476Y-00604*
X00476Y-00605*
X00476Y-00605*
X00476Y-00606*
X00477Y-00606*
X00477Y-00607*
X00478Y-00608*
X00478Y-00608*
X00478Y-00608*
X00478Y-00608*
X00478Y-00608*
X00479Y-00608*
X0048Y-00609*
X0048Y-00609*
X00481Y-00609*
X00481*
X00482Y-00609*
X00482Y-00609*
X00482Y-00609*
X00483Y-00609*
X00483Y-00609*
X00483Y-00611*
X00483*
X00482Y-00611*
X00482*
X00482Y-00611*
X00481Y-00611*
X00481Y-00612*
X0048Y-00612*
X00479Y-00612*
X00479Y-00612*
X00479Y-00612*
X00479Y-00612*
X00478Y-00613*
X00478Y-00613*
X00478Y-00614*
X00477Y-00614*
X00477Y-00615*
X00477Y-00615*
Y-00616*
Y-00616*
Y-00616*
X00477Y-00616*
X00477Y-00616*
X00477Y-00617*
X00478Y-00617*
X00478Y-00618*
X00478Y-00618*
X00478Y-00618*
X00479Y-00618*
X00479Y-00619*
X00479Y-00619*
X0048Y-00619*
X0048Y-00619*
X00481Y-00619*
X00481Y-00619*
X00482*
X00482Y-00619*
X00482Y-00619*
X00483Y-00619*
X00483Y-00619*
X00484Y-00619*
X00484Y-00618*
X00484Y-00618*
X00485Y-00618*
X00485Y-00618*
X00485Y-00617*
X00485Y-00617*
X00485Y-00616*
X00486Y-00616*
X00486Y-00615*
X00489Y-00615*
Y-00615*
X00489Y-00616*
X00489Y-00616*
X00489Y-00616*
X00489Y-00616*
X00489Y-00617*
X00488Y-00617*
X00488Y-00618*
X00488Y-00619*
X00487Y-0062*
X00486Y-0062*
X00486Y-0062*
X00486Y-0062*
X00486Y-0062*
X00486Y-00621*
X00486Y-00621*
X00486Y-00621*
X00485Y-00621*
X00484Y-00621*
X00483Y-00622*
X00482Y-00622*
X00482Y-00622*
X00481*
X00481Y-00622*
X0048Y-00622*
X0048Y-00622*
X00479Y-00622*
X00478Y-00621*
X00478Y-00621*
X00478*
X00478Y-00621*
X00477Y-00621*
X00477Y-00621*
X00477Y-0062*
X00476Y-0062*
X00476Y-0062*
X00475Y-00619*
X00475Y-00619*
X00475Y-00619*
X00475Y-00618*
X00475Y-00618*
X00474Y-00618*
X00474Y-00617*
X00474Y-00617*
X00474Y-00616*
X00474Y-00615*
Y-00615*
Y-00615*
X00474Y-00615*
X00474Y-00614*
X00474Y-00614*
X00474Y-00613*
X00475Y-00613*
X00475Y-00612*
X00475Y-00612*
X00475Y-00612*
X00475Y-00612*
X00476Y-00612*
X00476Y-00611*
X00476Y-00611*
X00477Y-00611*
X00478Y-0061*
X00477*
X00477Y-0061*
X00477*
X00477Y-0061*
X00477Y-0061*
X00476Y-0061*
X00476Y-0061*
X00475Y-00609*
X00475Y-00609*
X00474Y-00608*
X00474Y-00608*
X00474Y-00608*
X00474Y-00607*
X00473Y-00607*
X00473Y-00606*
X00473Y-00606*
X00473Y-00605*
X00473Y-00604*
Y-00604*
Y-00604*
Y-00604*
X00473Y-00604*
X00473Y-00603*
X00473Y-00603*
X00473Y-00603*
X00473Y-00602*
X00473Y-00601*
X00474Y-00601*
X00474Y-006*
X00474Y-006*
X00474Y-00599*
X00475Y-00599*
X00475Y-00598*
X00475Y-00598*
X00475Y-00598*
X00475Y-00598*
X00476Y-00598*
X00476Y-00598*
X00476Y-00598*
X00477Y-00598*
X00477Y-00597*
X00477Y-00597*
X00478Y-00597*
X00478Y-00597*
X00479Y-00597*
X00479Y-00596*
X0048Y-00596*
X00481Y-00596*
X00481Y-00596*
X00482*
X00482Y-00596*
G37*
G36*
X00501D02*
X00501Y-00596D01*
X00502Y-00596*
X00502Y-00596*
X00503Y-00597*
X00504Y-00597*
X00505Y-00597*
X00505Y-00597*
X00505Y-00598*
X00506Y-00598*
Y-00598*
X00506Y-00598*
X00506Y-00598*
X00506Y-00598*
X00506Y-00599*
X00506Y-00599*
X00506Y-00599*
X00507Y-00599*
X00507Y-006*
X00507Y-006*
X00507Y-00601*
X00507Y-00601*
X00507Y-00602*
X00507Y-00602*
X00507Y-00603*
Y-00604*
X00504Y-00604*
Y-00604*
Y-00604*
Y-00604*
X00504Y-00604*
Y-00603*
X00504Y-00603*
X00504Y-00603*
X00504Y-00602*
X00504Y-00601*
X00504Y-00601*
X00503Y-006*
X00503Y-006*
X00503Y-006*
X00503Y-006*
X00503Y-006*
X00503Y-006*
X00502Y-00599*
X00502Y-00599*
X00501Y-00599*
X00501Y-00599*
X005*
X005Y-00599*
X005Y-00599*
X005Y-00599*
X00499Y-00599*
X00499Y-006*
X00498Y-006*
X00498Y-006*
X00498Y-006*
X00498Y-006*
X00498Y-006*
X00498Y-006*
X00498Y-00601*
X00497Y-00601*
X00497Y-00601*
Y-00601*
X00497Y-00601*
X00497Y-00602*
X00497Y-00602*
X00497Y-00602*
X00497Y-00603*
X00497Y-00604*
Y-00604*
Y-00622*
X00493*
Y-00605*
Y-00605*
Y-00604*
Y-00604*
Y-00604*
X00494Y-00604*
Y-00604*
X00494Y-00603*
X00494Y-00602*
X00494Y-00601*
X00494Y-006*
X00494Y-006*
X00494Y-006*
X00494Y-00599*
X00495Y-00599*
X00495Y-00599*
X00495Y-00598*
X00496Y-00598*
X00496Y-00597*
X00497Y-00597*
X00497Y-00597*
X00497Y-00597*
X00497Y-00597*
X00498Y-00597*
X00498Y-00596*
X00499Y-00596*
X005Y-00596*
X00501Y-00596*
X00501*
X00501Y-00596*
G37*
G36*
X0167D02*
X01671Y-00596D01*
X01671Y-00596*
X01672Y-00596*
X01673Y-00597*
X01673Y-00597*
X01674Y-00597*
X01674Y-00597*
X01675Y-00598*
X01675Y-00598*
Y-00598*
X01675Y-00598*
X01675Y-00598*
X01675Y-00598*
X01675Y-00599*
X01676Y-00599*
X01676Y-00599*
X01676Y-00599*
X01676Y-006*
X01676Y-006*
X01676Y-00601*
X01676Y-00601*
X01677Y-00602*
X01677Y-00602*
X01677Y-00603*
Y-00604*
X01674Y-00604*
Y-00604*
Y-00604*
Y-00604*
X01674Y-00604*
Y-00603*
X01674Y-00603*
X01673Y-00603*
X01673Y-00602*
X01673Y-00601*
X01673Y-00601*
X01673Y-006*
X01673Y-006*
X01673Y-006*
X01672Y-006*
X01672Y-006*
X01672Y-006*
X01672Y-00599*
X01671Y-00599*
X01671Y-00599*
X0167Y-00599*
X0167*
X01669Y-00599*
X01669Y-00599*
X01669Y-00599*
X01668Y-00599*
X01668Y-006*
X01668Y-006*
X01668Y-006*
X01668Y-006*
X01667Y-006*
X01667Y-006*
X01667Y-006*
X01667Y-00601*
X01667Y-00601*
X01666Y-00601*
Y-00601*
X01666Y-00601*
X01666Y-00602*
X01666Y-00602*
X01666Y-00602*
X01666Y-00603*
X01666Y-00604*
Y-00604*
Y-00622*
X01663*
Y-00605*
Y-00605*
Y-00604*
Y-00604*
Y-00604*
X01663Y-00604*
Y-00604*
X01663Y-00603*
X01663Y-00602*
X01663Y-00601*
X01663Y-006*
X01664Y-006*
X01664Y-006*
X01664Y-00599*
X01664Y-00599*
X01664Y-00599*
X01664Y-00598*
X01665Y-00598*
X01665Y-00597*
X01666Y-00597*
X01666Y-00597*
X01666Y-00597*
X01667Y-00597*
X01667Y-00597*
X01668Y-00596*
X01668Y-00596*
X01669Y-00596*
X0167Y-00596*
X0167*
X0167Y-00596*
G37*
G36*
X01649Y-00603D02*
X0166D01*
Y-00605*
X01648Y-00622*
X01646*
Y-00605*
X01642*
Y-00603*
X01646*
Y-00597*
X01649*
Y-00603*
G37*
G36*
X-00099Y-00538D02*
Y-00538D01*
Y-00538*
Y-00539*
Y-00539*
X-00099Y-00539*
Y-00539*
X-001Y-0054*
X-001Y-00541*
X-001Y-00542*
X-001Y-00542*
X-001Y-00543*
X-001Y-00543*
X-001Y-00543*
X-00101Y-00544*
X-00101Y-00544*
X-00101Y-00545*
X-00102Y-00545*
X-00102Y-00545*
X-00103Y-00546*
X-00103Y-00546*
X-00103Y-00546*
X-00103Y-00546*
X-00104Y-00546*
X-00104Y-00546*
X-00105Y-00547*
X-00106Y-00547*
X-00107Y-00547*
X-00107*
X-00107Y-00547*
X-00107Y-00547*
X-00108Y-00547*
X-00108Y-00546*
X-00109Y-00546*
X-0011Y-00546*
X-00111Y-00546*
X-00111Y-00545*
X-00111Y-00545*
X-00112Y-00545*
Y-00545*
X-00112Y-00545*
X-00112Y-00545*
X-00112Y-00544*
X-00112Y-00544*
X-00112Y-00544*
X-00112Y-00544*
X-00113Y-00543*
X-00113Y-00543*
X-00113Y-00543*
X-00113Y-00542*
X-00113Y-00542*
X-00113Y-00541*
X-00113Y-0054*
X-00113Y-0054*
Y-00539*
X-0011Y-00539*
Y-00539*
Y-00539*
Y-00539*
X-0011Y-00539*
Y-00539*
X-0011Y-0054*
X-0011Y-0054*
X-0011Y-00541*
X-0011Y-00542*
X-0011Y-00542*
X-00109Y-00542*
X-00109Y-00543*
X-00109Y-00543*
X-00109Y-00543*
X-00109Y-00543*
X-00109Y-00543*
X-00108Y-00543*
X-00108Y-00544*
X-00107Y-00544*
X-00107Y-00544*
X-00106*
X-00106Y-00544*
X-00106Y-00544*
X-00106Y-00544*
X-00105Y-00543*
X-00105Y-00543*
X-00104Y-00543*
X-00104Y-00543*
X-00104Y-00543*
X-00104Y-00543*
X-00104Y-00543*
X-00104Y-00543*
X-00104Y-00542*
X-00103Y-00542*
X-00103Y-00542*
Y-00542*
X-00103Y-00541*
X-00103Y-00541*
X-00103Y-00541*
X-00103Y-0054*
X-00103Y-0054*
X-00103Y-00539*
Y-00538*
Y-00521*
X-00099*
Y-00538*
G37*
G36*
X-00084Y-00546D02*
X-00087D01*
Y-00527*
X-00087Y-00527*
X-00087Y-00527*
X-00087Y-00527*
X-00088Y-00527*
X-00088Y-00528*
X-00088Y-00528*
X-00089Y-00528*
X-0009Y-00529*
X-0009*
X-0009Y-00529*
X-0009Y-00529*
X-0009Y-00529*
X-00091Y-00529*
X-00091Y-0053*
X-00092Y-0053*
X-00092Y-0053*
X-00093Y-0053*
Y-00527*
X-00093*
X-00093Y-00527*
X-00093Y-00527*
X-00092Y-00527*
X-00092Y-00527*
X-00092Y-00527*
X-00091Y-00526*
X-00091Y-00526*
X-0009Y-00526*
X-00089Y-00525*
X-00088Y-00524*
X-00088Y-00524*
X-00088Y-00524*
X-00088Y-00524*
X-00088Y-00524*
X-00087Y-00523*
X-00087Y-00523*
X-00086Y-00522*
X-00086Y-00522*
X-00086Y-00521*
X-00084*
Y-00546*
G37*
G36*
X00482Y-0082D02*
X00482D01*
X00482Y-0082*
X00483Y-0082*
X00484Y-0082*
X00484Y-0082*
X00485Y-00821*
X00486Y-00821*
X00486Y-00821*
X00486Y-00821*
X00486Y-00822*
X00487Y-00822*
X00487Y-00822*
X00487Y-00823*
X00488Y-00824*
X00488Y-00825*
X00488Y-00826*
X00485Y-00826*
Y-00826*
Y-00826*
X00485Y-00826*
X00485Y-00826*
X00485Y-00825*
X00485Y-00825*
X00485Y-00824*
X00485Y-00824*
X00484Y-00823*
X00484Y-00823*
X00484Y-00823*
X00484Y-00823*
X00483Y-00823*
X00483Y-00823*
X00483Y-00822*
X00482Y-00822*
X00482Y-00822*
X00481Y-00822*
X00481*
X00481Y-00822*
X0048Y-00822*
X0048Y-00822*
X00479Y-00822*
X00479Y-00823*
X00479Y-00823*
X00479Y-00823*
X00478Y-00823*
X00478Y-00823*
X00478Y-00823*
X00478Y-00824*
X00477Y-00824*
X00477Y-00824*
X00477Y-00825*
X00477Y-00825*
X00477Y-00825*
X00477Y-00825*
X00476Y-00825*
X00476Y-00826*
X00476Y-00826*
X00476Y-00827*
X00476Y-00827*
Y-00828*
X00476Y-00828*
Y-00828*
X00476Y-00828*
X00475Y-00828*
X00475Y-00829*
X00475Y-00829*
X00475Y-0083*
X00475Y-00831*
Y-00831*
Y-00831*
Y-00831*
Y-00832*
Y-00832*
X00475Y-00832*
X00475Y-00832*
X00476Y-00831*
X00476Y-00831*
X00476Y-00831*
X00477Y-0083*
X00477Y-0083*
X00478Y-00829*
X00478Y-00829*
X00478Y-00829*
X00478Y-00829*
X00479Y-00829*
X00479Y-00829*
X0048Y-00829*
X00481Y-00829*
X00481Y-00829*
X00482*
X00482Y-00829*
X00482Y-00829*
X00482Y-00829*
X00483Y-00829*
X00484Y-00829*
X00484Y-00829*
X00485Y-0083*
X00485Y-0083*
X00486Y-0083*
X00486Y-0083*
X00487Y-00831*
X00487Y-00831*
X00487Y-00831*
X00487Y-00831*
X00487Y-00831*
X00487Y-00832*
X00487Y-00832*
X00487Y-00832*
X00488Y-00832*
X00488Y-00833*
X00488Y-00833*
X00488Y-00834*
X00488Y-00834*
X00488Y-00835*
X00489Y-00836*
X00489Y-00836*
X00489Y-00837*
Y-00837*
Y-00837*
Y-00837*
X00489Y-00838*
X00489Y-00838*
X00489Y-00838*
X00488Y-00839*
X00488Y-00839*
X00488Y-0084*
X00488Y-00841*
X00488Y-00841*
X00487Y-00842*
X00487Y-00842*
X00487Y-00843*
X00486Y-00843*
X00486Y-00843*
X00486Y-00843*
X00486Y-00843*
X00486Y-00843*
X00486Y-00844*
X00486Y-00844*
X00485Y-00844*
X00485Y-00844*
X00484Y-00844*
X00484Y-00845*
X00483Y-00845*
X00483Y-00845*
X00482Y-00845*
X00481Y-00845*
X00481Y-00845*
X00481*
X0048Y-00845*
X0048*
X0048Y-00845*
X00479Y-00845*
X00479Y-00845*
X00478Y-00845*
X00477Y-00845*
X00476Y-00844*
X00476*
X00476Y-00844*
X00476Y-00844*
X00476Y-00844*
X00476Y-00844*
X00475Y-00843*
X00475Y-00843*
X00474Y-00842*
X00474Y-00841*
X00473Y-0084*
Y-0084*
X00473Y-0084*
X00473Y-0084*
X00473Y-0084*
X00473Y-0084*
X00473Y-00839*
X00473Y-00839*
X00473Y-00838*
X00473Y-00838*
X00472Y-00837*
X00472Y-00837*
X00472Y-00836*
X00472Y-00836*
X00472Y-00835*
X00472Y-00834*
Y-00833*
Y-00833*
Y-00833*
Y-00833*
Y-00832*
X00472Y-00832*
Y-00831*
X00472Y-00831*
X00472Y-0083*
X00472Y-00829*
X00473Y-00828*
X00473Y-00827*
X00473Y-00826*
X00473Y-00825*
Y-00825*
X00473Y-00825*
X00473Y-00825*
X00473Y-00825*
X00473Y-00825*
X00474Y-00824*
X00474Y-00824*
X00474Y-00823*
X00475Y-00822*
X00476Y-00822*
X00476Y-00821*
X00476*
X00476Y-00821*
X00476Y-00821*
X00477Y-00821*
X00477Y-00821*
X00477Y-00821*
X00478Y-0082*
X00478Y-0082*
X00479Y-0082*
X0048Y-0082*
X00481Y-0082*
X00481*
X00482Y-0082*
G37*
G36*
X00501D02*
X00501Y-0082D01*
X00501Y-0082*
X00502Y-0082*
X00503Y-0082*
X00504Y-0082*
X00504Y-00821*
X00504Y-00821*
X00505Y-00821*
X00505Y-00822*
Y-00822*
X00505Y-00822*
X00505Y-00822*
X00505Y-00822*
X00505Y-00822*
X00506Y-00822*
X00506Y-00823*
X00506Y-00823*
X00506Y-00823*
X00506Y-00824*
X00506Y-00824*
X00507Y-00825*
X00507Y-00825*
X00507Y-00826*
X00507Y-00826*
Y-00827*
X00504Y-00828*
Y-00828*
Y-00827*
Y-00827*
X00504Y-00827*
Y-00827*
X00504Y-00827*
X00504Y-00826*
X00503Y-00825*
X00503Y-00825*
X00503Y-00824*
X00503Y-00824*
X00503Y-00824*
X00503Y-00824*
X00502Y-00823*
X00502Y-00823*
X00502Y-00823*
X00502Y-00823*
X00501Y-00823*
X00501Y-00823*
X005Y-00823*
X005*
X005Y-00823*
X00499Y-00823*
X00499Y-00823*
X00499Y-00823*
X00498Y-00823*
X00498Y-00823*
X00498Y-00823*
X00498Y-00823*
X00498Y-00823*
X00497Y-00824*
X00497Y-00824*
X00497Y-00824*
X00497Y-00824*
X00497Y-00825*
Y-00825*
X00497Y-00825*
X00496Y-00825*
X00496Y-00825*
X00496Y-00826*
X00496Y-00826*
X00496Y-00827*
Y-00828*
Y-00845*
X00493*
Y-00828*
Y-00828*
Y-00828*
Y-00828*
Y-00828*
X00493Y-00827*
Y-00827*
X00493Y-00826*
X00493Y-00825*
X00493Y-00825*
X00493Y-00824*
X00494Y-00823*
X00494Y-00823*
X00494Y-00823*
X00494Y-00823*
X00494Y-00822*
X00495Y-00822*
X00495Y-00821*
X00496Y-00821*
X00496Y-00821*
X00496Y-0082*
X00496Y-0082*
X00497Y-0082*
X00497Y-0082*
X00498Y-0082*
X00498Y-0082*
X00499Y-0082*
X005Y-0082*
X005*
X00501Y-0082*
G37*
G36*
X0109Y-01017D02*
X0109Y-01017D01*
X0109Y-01017*
X01091Y-01017*
X01092Y-01017*
X01093Y-01017*
X01093Y-01017*
X01094Y-01018*
X01094Y-01018*
X01094Y-01018*
Y-01018*
X01094Y-01018*
X01094Y-01019*
X01095Y-01019*
X01095Y-01019*
X01095Y-01019*
X01095Y-01019*
X01095Y-0102*
X01095Y-0102*
X01095Y-01021*
X01096Y-01021*
X01096Y-01022*
X01096Y-01022*
X01096Y-01023*
X01096Y-01023*
Y-01024*
X01093Y-01024*
Y-01024*
Y-01024*
Y-01024*
X01093Y-01024*
Y-01024*
X01093Y-01024*
X01093Y-01023*
X01093Y-01022*
X01092Y-01022*
X01092Y-01021*
X01092Y-01021*
X01092Y-0102*
X01092Y-0102*
X01092Y-0102*
X01092Y-0102*
X01091Y-0102*
X01091Y-0102*
X0109Y-0102*
X0109Y-01019*
X01089Y-01019*
X01089*
X01089Y-01019*
X01088Y-0102*
X01088Y-0102*
X01088Y-0102*
X01087Y-0102*
X01087Y-0102*
X01087Y-0102*
X01087Y-0102*
X01087Y-0102*
X01087Y-0102*
X01086Y-01021*
X01086Y-01021*
X01086Y-01021*
X01086Y-01022*
Y-01022*
X01086Y-01022*
X01086Y-01022*
X01086Y-01022*
X01086Y-01023*
X01085Y-01023*
X01085Y-01024*
Y-01025*
Y-01042*
X01082*
Y-01025*
Y-01025*
Y-01025*
Y-01025*
Y-01024*
X01082Y-01024*
Y-01024*
X01082Y-01023*
X01082Y-01022*
X01082Y-01022*
X01083Y-01021*
X01083Y-0102*
X01083Y-0102*
X01083Y-0102*
X01083Y-01019*
X01083Y-01019*
X01084Y-01019*
X01084Y-01018*
X01085Y-01018*
X01085Y-01017*
X01085Y-01017*
X01086Y-01017*
X01086Y-01017*
X01086Y-01017*
X01087Y-01017*
X01088Y-01017*
X01088Y-01017*
X01089Y-01016*
X0109*
X0109Y-01017*
G37*
G36*
X01074Y-01017D02*
Y-01017D01*
Y-01017*
X01074Y-01017*
Y-01018*
X01074Y-01018*
X01074Y-01018*
X01074Y-01019*
X01074Y-01019*
X01074Y-0102*
X01074Y-01021*
X01074Y-01021*
X01074Y-01022*
X01073Y-01023*
X01073Y-01024*
Y-01024*
X01073Y-01024*
X01073Y-01024*
X01073Y-01025*
X01073Y-01025*
X01073Y-01026*
X01072Y-01026*
X01072Y-01027*
X01072Y-01027*
X01072Y-01028*
X01071Y-01029*
X01071Y-01031*
X0107Y-01032*
X0107Y-01032*
X0107Y-01032*
X0107Y-01033*
X01069Y-01033*
X01069Y-01033*
X01069Y-01034*
X01069Y-01034*
X01068Y-01035*
X01068Y-01036*
X01067Y-01037*
X01066Y-01038*
X01065Y-01039*
X01078*
Y-01042*
X01061*
Y-01039*
X01061Y-01039*
X01061Y-01039*
X01062Y-01039*
X01062Y-01039*
X01062Y-01039*
X01062Y-01038*
X01063Y-01038*
X01063Y-01038*
X01063Y-01037*
X01064Y-01037*
X01064Y-01036*
X01064Y-01035*
X01065Y-01035*
X01065Y-01034*
X01066Y-01033*
X01066Y-01033*
X01066Y-01033*
X01066Y-01032*
X01066Y-01032*
X01067Y-01032*
X01067Y-01031*
X01067Y-01031*
X01067Y-0103*
X01068Y-0103*
X01068Y-01029*
X01068Y-01029*
X01068Y-01028*
X01069Y-01027*
X01069Y-01025*
X0107Y-01024*
Y-01024*
X0107Y-01024*
X0107Y-01024*
X0107Y-01023*
X0107Y-01023*
X0107Y-01023*
X0107Y-01022*
X0107Y-01022*
X0107Y-01021*
X0107Y-01021*
X01071Y-0102*
X01071Y-01018*
X01071Y-01017*
X01074*
Y-01017*
G37*
G36*
X01674Y-01017D02*
X01674Y-01017D01*
X01674Y-01017*
X01675Y-01017*
X01676Y-01017*
X01677Y-01017*
X01677Y-01017*
X01678Y-01018*
X01678Y-01018*
X01678Y-01018*
Y-01018*
X01678Y-01018*
X01678Y-01019*
X01679Y-01019*
X01679Y-01019*
X01679Y-01019*
X01679Y-01019*
X01679Y-0102*
X01679Y-0102*
X01679Y-01021*
X0168Y-01021*
X0168Y-01022*
X0168Y-01022*
X0168Y-01023*
X0168Y-01023*
Y-01024*
X01677Y-01024*
Y-01024*
Y-01024*
Y-01024*
X01677Y-01024*
Y-01024*
X01677Y-01024*
X01677Y-01023*
X01677Y-01022*
X01676Y-01022*
X01676Y-01021*
X01676Y-01021*
X01676Y-0102*
X01676Y-0102*
X01676Y-0102*
X01676Y-0102*
X01675Y-0102*
X01675Y-0102*
X01674Y-0102*
X01674Y-01019*
X01673Y-01019*
X01673*
X01673Y-01019*
X01672Y-0102*
X01672Y-0102*
X01672Y-0102*
X01671Y-0102*
X01671Y-0102*
X01671Y-0102*
X01671Y-0102*
X01671Y-0102*
X01671Y-0102*
X0167Y-01021*
X0167Y-01021*
X0167Y-01021*
X0167Y-01022*
Y-01022*
X0167Y-01022*
X0167Y-01022*
X0167Y-01022*
X0167Y-01023*
X01669Y-01023*
X01669Y-01024*
Y-01025*
Y-01042*
X01666*
Y-01025*
Y-01025*
Y-01025*
Y-01025*
Y-01024*
X01666Y-01024*
Y-01024*
X01666Y-01023*
X01666Y-01022*
X01666Y-01022*
X01667Y-01021*
X01667Y-0102*
X01667Y-0102*
X01667Y-0102*
X01667Y-01019*
X01667Y-01019*
X01668Y-01019*
X01668Y-01018*
X01669Y-01018*
X01669Y-01017*
X01669Y-01017*
X0167Y-01017*
X0167Y-01017*
X0167Y-01017*
X01671Y-01017*
X01672Y-01017*
X01672Y-01017*
X01673Y-01016*
X01674*
X01674Y-01017*
G37*
G36*
X01654D02*
X01655Y-01017D01*
X01655Y-01017*
X01655Y-01017*
X01656Y-01017*
X01657Y-01017*
X01657Y-01017*
X01658Y-01017*
X01658Y-01018*
X01659Y-01018*
X01659Y-01018*
X0166Y-01019*
X0166Y-01019*
X0166Y-01019*
X0166Y-01019*
X0166Y-01019*
X0166Y-01019*
X0166Y-0102*
X01661Y-0102*
X01661Y-0102*
X01661Y-01021*
X01661Y-01021*
X01662Y-01022*
X01662Y-01022*
X01662Y-01023*
X01662Y-01024*
X01662Y-01024*
Y-01024*
Y-01024*
Y-01024*
X01662Y-01025*
Y-01025*
X01662Y-01025*
X01662Y-01026*
X01662Y-01026*
X01661Y-01027*
X01661Y-01028*
X01661Y-01028*
Y-01028*
X01661Y-01028*
X0166Y-01029*
X0166Y-01029*
X0166Y-01029*
X01659Y-0103*
X01659Y-0103*
X01658Y-0103*
X01657Y-01031*
X01657*
X01657Y-01031*
X01657Y-01031*
X01658Y-01031*
X01658Y-01031*
X01659Y-01031*
X01659Y-01032*
X0166Y-01032*
X0166Y-01033*
X0166Y-01033*
X0166Y-01033*
X0166Y-01033*
X0166Y-01033*
X01661Y-01034*
X01661Y-01034*
X01661Y-01035*
X01661Y-01036*
Y-01036*
Y-01036*
Y-01036*
X01661Y-01036*
X01661Y-01036*
X01661Y-01037*
X01661Y-01037*
X0166Y-01038*
X0166Y-01039*
X0166Y-01039*
X0166Y-0104*
X01659Y-0104*
X01659Y-0104*
X01659Y-0104*
X01659Y-0104*
X01659Y-01041*
X01659Y-01041*
X01658Y-01041*
X01658Y-01041*
X01658Y-01041*
X01658Y-01041*
X01657Y-01042*
X01656Y-01042*
X01655Y-01042*
X01654Y-01042*
X01654Y-01042*
X01653*
X01653Y-01042*
X01653*
X01653Y-01042*
X01652Y-01042*
X01651Y-01042*
X0165Y-01041*
X0165Y-01041*
X01649Y-01041*
X01649Y-01041*
X01648Y-0104*
X01648Y-0104*
X01648Y-0104*
X01648Y-0104*
X01648Y-0104*
X01648Y-0104*
X01648Y-0104*
X01647Y-01039*
X01647Y-01038*
X01647Y-01038*
X01646Y-01037*
X01646Y-01036*
X01646Y-01036*
Y-01036*
Y-01035*
X01646Y-01035*
X01646Y-01035*
X01647Y-01034*
X01647Y-01034*
X01647Y-01033*
X01647Y-01033*
X01647Y-01033*
X01647Y-01032*
X01648Y-01032*
X01648Y-01032*
X01648Y-01032*
X01649Y-01031*
X01649Y-01031*
X0165Y-01031*
X0165*
X0165Y-01031*
X0165Y-01031*
X0165Y-0103*
X01649Y-0103*
X01649Y-0103*
X01648Y-0103*
X01648Y-01029*
X01647Y-01029*
X01647Y-01028*
X01646Y-01028*
X01646Y-01028*
X01646Y-01027*
X01646Y-01027*
X01646Y-01026*
X01645Y-01026*
X01645Y-01025*
X01645Y-01024*
Y-01024*
Y-01024*
Y-01024*
X01645Y-01024*
X01645Y-01023*
X01645Y-01023*
X01646Y-01022*
X01646Y-01021*
X01646Y-01021*
X01646Y-0102*
X01647Y-0102*
X01647Y-0102*
X01647Y-01019*
X01648Y-01019*
X01648Y-01019*
X01648Y-01019*
X01648Y-01018*
X01648Y-01018*
X01648Y-01018*
X01649Y-01018*
X01649Y-01018*
X01649Y-01018*
X0165Y-01017*
X0165Y-01017*
X01651Y-01017*
X01651Y-01017*
X01652Y-01017*
X01652Y-01017*
X01653Y-01017*
X01654Y-01016*
X01654*
X01654Y-01017*
G37*
G36*
X01651Y-0082D02*
X01651Y-0082D01*
X01652Y-0082*
X01652Y-0082*
X01653Y-0082*
X01653Y-0082*
X01654Y-0082*
X01655Y-00821*
X01655Y-00821*
X01656Y-00821*
X01656Y-00822*
X01656Y-00822*
X01656Y-00822*
X01656Y-00822*
X01656Y-00822*
X01657Y-00822*
X01657Y-00822*
X01657Y-00823*
X01657Y-00823*
X01658Y-00824*
X01658Y-00824*
X01658Y-00825*
X01659Y-00826*
X01659Y-00827*
X01655Y-00827*
Y-00827*
Y-00827*
X01655Y-00827*
X01655Y-00826*
X01655Y-00826*
X01655Y-00826*
X01655Y-00825*
X01654Y-00824*
X01654Y-00824*
X01654Y-00823*
X01654Y-00823*
X01653Y-00823*
X01653Y-00823*
X01653Y-00823*
X01652Y-00823*
X01652Y-00822*
X01651Y-00822*
X01651Y-00822*
X0165*
X0165Y-00822*
X0165Y-00822*
X01649Y-00822*
X01649Y-00823*
X01648Y-00823*
X01647Y-00823*
X01647Y-00824*
X01647Y-00824*
Y-00824*
X01647Y-00824*
X01646Y-00824*
X01646Y-00824*
X01646Y-00825*
X01646Y-00826*
X01645Y-00826*
X01645Y-00827*
X01645Y-00828*
Y-00828*
Y-00828*
Y-00829*
X01645Y-00829*
Y-00829*
X01645Y-00829*
X01645Y-0083*
X01646Y-0083*
X01646Y-00831*
X01646Y-00832*
X01647Y-00832*
X01647Y-00833*
X01647Y-00833*
X01647Y-00833*
X01648Y-00833*
X01648Y-00834*
X01649Y-00834*
X0165Y-00834*
X01651Y-00834*
X01651*
X01651Y-00834*
X01651Y-00834*
X01652Y-00834*
X01652Y-00834*
X01653Y-00834*
X01653Y-00833*
X01653Y-00833*
X01653Y-00833*
X01654Y-00833*
X01654Y-00833*
X01654Y-00833*
X01655Y-00832*
X01655Y-00832*
X01655Y-00832*
X01658Y-00832*
X01656Y-00845*
X01643*
Y-00842*
X01653*
X01655Y-00835*
X01654Y-00835*
X01654Y-00835*
X01654Y-00835*
X01654Y-00835*
X01654Y-00836*
X01654Y-00836*
X01653Y-00836*
X01652Y-00836*
X01652Y-00836*
X01651Y-00837*
X0165Y-00837*
X01649*
X01649Y-00837*
X01649Y-00837*
X01649Y-00837*
X01648Y-00837*
X01648Y-00836*
X01647Y-00836*
X01646Y-00836*
X01646Y-00836*
X01646Y-00836*
X01645Y-00835*
X01645Y-00835*
X01644Y-00834*
X01644Y-00834*
X01644Y-00834*
X01644Y-00834*
X01644Y-00834*
X01644Y-00834*
X01643Y-00834*
X01643Y-00833*
X01643Y-00833*
X01643Y-00832*
X01643Y-00832*
X01642Y-00832*
X01642Y-00831*
X01642Y-0083*
X01642Y-0083*
X01642Y-00829*
X01642Y-00829*
Y-00829*
Y-00828*
Y-00828*
X01642Y-00828*
X01642Y-00828*
X01642Y-00827*
X01642Y-00827*
X01642Y-00827*
X01642Y-00826*
X01643Y-00825*
X01643Y-00824*
X01643Y-00824*
X01644Y-00823*
X01644Y-00823*
X01644Y-00823*
X01644Y-00823*
X01644Y-00822*
X01644Y-00822*
X01645Y-00822*
X01645Y-00822*
X01645Y-00821*
X01646Y-00821*
X01646Y-00821*
X01647Y-00821*
X01647Y-0082*
X01648Y-0082*
X01648Y-0082*
X01649Y-0082*
X0165Y-0082*
X01651Y-0082*
X01651*
X01651Y-0082*
G37*
G36*
X0167D02*
X01671Y-0082D01*
X01671Y-0082*
X01672Y-0082*
X01673Y-0082*
X01673Y-0082*
X01674Y-00821*
X01674Y-00821*
X01675Y-00821*
X01675Y-00822*
Y-00822*
X01675Y-00822*
X01675Y-00822*
X01675Y-00822*
X01675Y-00822*
X01676Y-00822*
X01676Y-00823*
X01676Y-00823*
X01676Y-00823*
X01676Y-00824*
X01676Y-00824*
X01676Y-00825*
X01677Y-00825*
X01677Y-00826*
X01677Y-00826*
Y-00827*
X01674Y-00828*
Y-00828*
Y-00827*
Y-00827*
X01674Y-00827*
Y-00827*
X01674Y-00827*
X01673Y-00826*
X01673Y-00825*
X01673Y-00825*
X01673Y-00824*
X01673Y-00824*
X01673Y-00824*
X01673Y-00824*
X01672Y-00823*
X01672Y-00823*
X01672Y-00823*
X01672Y-00823*
X01671Y-00823*
X01671Y-00823*
X0167Y-00823*
X0167*
X01669Y-00823*
X01669Y-00823*
X01669Y-00823*
X01668Y-00823*
X01668Y-00823*
X01668Y-00823*
X01668Y-00823*
X01668Y-00823*
X01667Y-00823*
X01667Y-00824*
X01667Y-00824*
X01667Y-00824*
X01667Y-00824*
X01666Y-00825*
Y-00825*
X01666Y-00825*
X01666Y-00825*
X01666Y-00825*
X01666Y-00826*
X01666Y-00826*
X01666Y-00827*
Y-00828*
Y-00845*
X01663*
Y-00828*
Y-00828*
Y-00828*
Y-00828*
Y-00828*
X01663Y-00827*
Y-00827*
X01663Y-00826*
X01663Y-00825*
X01663Y-00825*
X01663Y-00824*
X01664Y-00823*
X01664Y-00823*
X01664Y-00823*
X01664Y-00823*
X01664Y-00822*
X01664Y-00822*
X01665Y-00821*
X01665Y-00821*
X01666Y-00821*
X01666Y-0082*
X01666Y-0082*
X01667Y-0082*
X01667Y-0082*
X01668Y-0082*
X01668Y-0082*
X01669Y-0082*
X0167Y-0082*
X0167*
X0167Y-0082*
G37*
%LNbrushed_pcb-2*%
%LPC*%
G36*
X00461Y-01019D02*
X00461D01*
X00461Y-01019*
X0046Y-01019*
X0046Y-01019*
X00459Y-0102*
X00458Y-0102*
X00458Y-0102*
X00458Y-0102*
X00458Y-01021*
X00457Y-01021*
Y-01021*
X00457Y-01021*
X00457Y-01021*
X00457Y-01021*
X00457Y-01022*
X00457Y-01022*
X00457Y-01022*
X00457Y-01023*
X00456Y-01023*
X00456Y-01024*
X00456Y-01025*
X00456Y-01025*
X00456Y-01026*
X00456Y-01027*
X00456Y-01028*
Y-01029*
Y-01029*
Y-0103*
Y-0103*
X00456Y-0103*
Y-01031*
X00456Y-01031*
X00456Y-01032*
X00456Y-01033*
X00456Y-01034*
X00456Y-01035*
X00457Y-01036*
X00457Y-01037*
X00457Y-01037*
X00457Y-01038*
Y-01038*
X00457Y-01038*
X00458Y-01038*
X00458Y-01038*
X00458Y-01039*
X00459Y-01039*
X00459Y-01039*
X0046Y-0104*
X00461Y-0104*
X00461Y-0104*
X00461*
X00461Y-0104*
X00462Y-0104*
X00462Y-01039*
X00463Y-01039*
X00463Y-01039*
X00464Y-01038*
X00464Y-01038*
X00464Y-01038*
Y-01038*
X00464Y-01038*
X00464Y-01038*
X00465Y-01037*
X00465Y-01037*
X00465Y-01037*
X00465Y-01036*
X00465Y-01036*
X00465Y-01035*
X00465Y-01035*
X00466Y-01034*
X00466Y-01033*
X00466Y-01032*
X00466Y-01031*
X00466Y-0103*
Y-01029*
Y-01029*
Y-01029*
Y-01029*
X00466Y-01028*
Y-01028*
X00466Y-01027*
X00466Y-01027*
X00466Y-01026*
X00466Y-01025*
X00465Y-01023*
X00465Y-01023*
X00465Y-01022*
X00465Y-01021*
X00464Y-01021*
Y-01021*
X00464Y-01021*
X00464Y-01021*
X00464Y-0102*
X00463Y-0102*
X00463Y-0102*
X00462Y-01019*
X00462Y-01019*
X00461Y-01019*
X00461Y-01019*
G37*
G36*
X-01063Y-00751D02*
X-01071D01*
Y-00759*
X-01071Y-00759*
X-01071Y-0076*
X-01071Y-0076*
X-01071Y-00761*
X-01071Y-00761*
X-0107Y-00762*
X-0107Y-00762*
X-0107Y-00762*
X-0107Y-00762*
X-0107Y-00763*
X-0107Y-00763*
X-0107Y-00763*
X-01069Y-00764*
X-01069Y-00764*
X-01069Y-00764*
X-01069Y-00764*
X-01069Y-00764*
X-01068Y-00764*
X-01068Y-00764*
X-01068Y-00764*
X-01067Y-00764*
X-01067Y-00764*
X-01067*
X-01067*
X-01066*
X-01066Y-00764*
X-01066Y-00764*
X-01065Y-00764*
X-01065Y-00764*
X-01064Y-00764*
X-01064Y-00763*
X-01064Y-00763*
X-01064Y-00763*
X-01063Y-00763*
X-01063Y-00762*
X-01063Y-00762*
X-01063Y-00761*
X-01063Y-0076*
X-01063Y-00759*
Y-00751*
G37*
G36*
X-01062Y-00582D02*
X-0107D01*
Y-00589*
X-0107Y-0059*
X-0107Y-0059*
X-0107Y-00591*
X-0107Y-00592*
X-0107Y-00592*
X-0107Y-00593*
X-01069Y-00593*
X-01069Y-00593*
X-01069Y-00593*
X-01069Y-00593*
X-01069Y-00594*
X-01069Y-00594*
X-01068Y-00594*
X-01068Y-00595*
X-01068Y-00595*
X-01068Y-00595*
X-01068Y-00595*
X-01067Y-00595*
X-01067Y-00595*
X-01067Y-00595*
X-01066Y-00595*
X-01066Y-00595*
X-01066*
X-01066*
X-01065*
X-01065Y-00595*
X-01065Y-00595*
X-01064Y-00595*
X-01064Y-00595*
X-01063Y-00594*
X-01063Y-00594*
X-01063Y-00594*
X-01063Y-00594*
X-01062Y-00593*
X-01062Y-00593*
X-01062Y-00592*
X-01062Y-00592*
X-01062Y-00591*
X-01062Y-0059*
Y-00582*
G37*
G36*
X-00996Y-00945D02*
X-01015D01*
Y-0095*
X-01015Y-00951*
X-01015Y-00951*
X-01015Y-00952*
X-01015Y-00953*
X-01015Y-00953*
X-01015Y-00954*
X-01015Y-00954*
X-01015Y-00954*
X-01015Y-00954*
X-01014Y-00955*
X-01014Y-00955*
X-01014Y-00955*
X-01014Y-00956*
X-01013Y-00956*
X-01013Y-00956*
X-01013Y-00956*
X-01013Y-00957*
X-01013Y-00957*
X-01012Y-00957*
X-01012Y-00957*
X-01011Y-00958*
X-0101Y-00958*
X-0101*
X-0101Y-00958*
X-0101Y-00958*
X-0101Y-00958*
X-0101Y-00958*
X-01009Y-00958*
X-01009Y-00958*
X-01008Y-00958*
X-01007Y-00959*
X-01006Y-00959*
X-01005Y-00959*
X-01005*
X-01005*
X-01005*
X-01005*
X-01004Y-00959*
X-01004Y-00959*
X-01004Y-00959*
X-01003Y-00959*
X-01002Y-00958*
X-01001Y-00958*
X-01Y-00958*
X-01Y-00958*
X-00999Y-00957*
X-00999*
X-00999Y-00957*
X-00999Y-00957*
X-00999Y-00957*
X-00999Y-00957*
X-00998Y-00957*
X-00998Y-00956*
X-00997Y-00956*
X-00997Y-00955*
X-00996Y-00954*
X-00996Y-00954*
X-00996Y-00954*
X-00996Y-00954*
X-00996Y-00953*
X-00996Y-00953*
X-00996Y-00952*
X-00996Y-00951*
X-00996Y-0095*
Y-00945*
G37*
G36*
X-02169Y00348D02*
X-02169D01*
X-0217Y00348*
X-0217Y00348*
X-02171Y00348*
X-02171Y00348*
X-02172Y00347*
X-02172Y00347*
X-02172Y00347*
X-02172Y00347*
X-02172Y00346*
X-02173Y00346*
X-02173Y00346*
X-02173Y00345*
X-02173Y00345*
X-02173Y00344*
Y00344*
Y00344*
X-02173Y00344*
X-02173Y00343*
X-02173Y00343*
X-02173Y00342*
X-02173Y00342*
X-02172Y00341*
X-02172Y00341*
X-02172Y00341*
X-02172Y00341*
X-02171Y00341*
X-02171Y0034*
X-0217Y0034*
X-0217Y0034*
X-02169Y0034*
X-02169*
X-02169Y0034*
X-02168Y0034*
X-02168Y0034*
X-02167Y00341*
X-02167Y00341*
X-02166Y00341*
X-02166Y00341*
X-02166Y00341*
X-02166Y00342*
X-02166Y00342*
X-02165Y00342*
X-02165Y00343*
X-02165Y00343*
X-02165Y00344*
Y00344*
Y00344*
Y00344*
X-02165Y00345*
X-02165Y00345*
X-02165Y00345*
X-02166Y00346*
X-02166Y00346*
X-02166Y00347*
X-02166Y00347*
X-02166Y00347*
X-02167Y00347*
X-02167Y00347*
X-02167Y00348*
X-02168Y00348*
X-02168Y00348*
X-02169Y00348*
G37*
G36*
X-02169Y00338D02*
X-02169D01*
X-0217Y00338*
X-0217Y00337*
X-0217Y00337*
X-02171Y00337*
X-02172Y00337*
X-02172Y00337*
X-02173Y00336*
X-02173Y00336*
X-02173Y00336*
X-02173Y00336*
X-02174Y00335*
X-02174Y00335*
X-02174Y00334*
X-02174Y00333*
X-02174Y00332*
Y00332*
Y00332*
X-02174Y00332*
X-02174Y00332*
X-02174Y00331*
X-02174Y00331*
X-02174Y0033*
X-02174Y0033*
X-02174Y0033*
X-02174Y0033*
X-02173Y00329*
X-02173Y00329*
X-02173Y00329*
X-02173Y00329*
X-02172Y00328*
X-02172Y00328*
X-02172Y00328*
X-02172Y00328*
X-02171Y00328*
X-02171Y00328*
X-02171Y00327*
X-0217Y00327*
X-0217Y00327*
X-02169Y00327*
X-02169*
X-02169Y00327*
X-02168Y00327*
X-02168Y00327*
X-02167Y00328*
X-02167Y00328*
X-02166Y00328*
X-02165Y00329*
X-02165Y00329*
X-02165Y00329*
X-02165Y00329*
X-02165Y0033*
X-02164Y0033*
X-02164Y00331*
X-02164Y00332*
X-02164Y00332*
Y00332*
Y00332*
Y00333*
X-02164Y00333*
X-02164Y00333*
X-02164Y00334*
X-02164Y00334*
X-02165Y00335*
X-02165Y00335*
X-02165Y00336*
X-02166Y00336*
X-02166Y00336*
X-02166Y00337*
X-02166Y00337*
X-02167Y00337*
X-02168Y00337*
X-02168Y00337*
X-02169Y00338*
G37*
G36*
X-02167Y-00131D02*
X-02175Y-00142D01*
X-02167*
Y-00131*
G37*
G36*
X-00304Y01027D02*
X-00304D01*
X-00304*
X-00304*
X-00305*
X-00305Y01027*
X-00305Y01027*
X-00306Y01027*
X-00306Y01027*
X-00307Y01026*
X-00308Y01026*
X-00309Y01026*
X-0031Y01026*
X-0031Y01025*
X-0031*
X-0031Y01025*
X-0031Y01025*
X-00311Y01025*
X-00311Y01025*
X-00311Y01025*
X-00312Y01024*
X-00312Y01024*
X-00313Y01023*
X-00313Y01022*
X-00313Y01022*
X-00313Y01022*
X-00313Y01022*
X-00313Y01021*
X-00313Y01021*
X-00313Y0102*
X-00314Y01019*
X-00314Y01018*
Y01013*
X-00294*
Y01018*
X-00294Y01019*
X-00294Y01019*
X-00294Y0102*
X-00294Y01021*
X-00295Y01021*
X-00295Y01022*
X-00295Y01022*
X-00295Y01022*
X-00295Y01022*
X-00295Y01023*
X-00295Y01023*
X-00295Y01023*
X-00296Y01024*
X-00296Y01024*
X-00296Y01024*
X-00296Y01024*
X-00297Y01025*
X-00297Y01025*
X-00297Y01025*
X-00298Y01025*
X-00299Y01026*
X-00299Y01026*
X-00299*
X-00299Y01026*
X-00299Y01026*
X-003Y01026*
X-003Y01026*
X-003Y01026*
X-00301Y01026*
X-00301Y01026*
X-00302Y01027*
X-00303Y01027*
X-00304Y01027*
G37*
G36*
X01069Y-00822D02*
X01069D01*
X01069Y-00822*
X01069Y-00822*
X01068Y-00822*
X01068Y-00823*
X01067Y-00823*
X01067Y-00823*
X01066Y-00824*
X01066Y-00824*
X01066Y-00824*
X01066Y-00824*
X01065Y-00825*
X01065Y-00825*
X01065Y-00826*
X01065Y-00827*
X01065Y-00828*
Y-00828*
Y-00828*
Y-00828*
X01065Y-00828*
Y-00829*
X01065Y-00829*
X01065Y-0083*
X01065Y-0083*
X01065Y-00831*
X01065Y-00832*
X01066Y-00832*
X01066Y-00832*
X01066Y-00832*
X01066Y-00833*
X01067Y-00833*
X01067Y-00833*
X01068Y-00833*
X01069Y-00834*
X01069Y-00834*
X0107*
X0107Y-00834*
X0107Y-00834*
X01071Y-00833*
X01071Y-00833*
X01072Y-00833*
X01072Y-00833*
X01073Y-00832*
X01073Y-00832*
X01073Y-00832*
X01073Y-00832*
X01074Y-00831*
X01074Y-00831*
X01074Y-0083*
X01074Y-00829*
X01074Y-00828*
Y-00828*
Y-00828*
X01074Y-00828*
X01074Y-00827*
X01074Y-00827*
X01074Y-00826*
X01074Y-00826*
X01074Y-00825*
X01074Y-00825*
X01074Y-00825*
X01074Y-00825*
X01073Y-00824*
X01073Y-00824*
X01073Y-00824*
X01072Y-00823*
X01072Y-00823*
X01072Y-00823*
X01072Y-00823*
X01071Y-00823*
X01071Y-00823*
X01071Y-00822*
X0107Y-00822*
X0107Y-00822*
X01069Y-00822*
G37*
G36*
X01657Y-00605D02*
X01649D01*
Y-00617*
X01657Y-00605*
G37*
G36*
X0048Y-00831D02*
X0048D01*
X0048Y-00831*
X0048Y-00831*
X00479Y-00832*
X00479Y-00832*
X00478Y-00832*
X00477Y-00832*
X00477Y-00833*
X00477Y-00833*
X00477Y-00833*
X00476Y-00833*
X00476Y-00834*
X00476Y-00835*
X00476Y-00835*
X00476Y-00836*
X00476Y-00837*
Y-00837*
Y-00837*
Y-00837*
X00476Y-00837*
Y-00838*
X00476Y-00838*
X00476Y-00839*
X00476Y-00839*
X00476Y-0084*
X00476Y-00841*
X00477Y-00841*
X00477Y-00841*
X00477Y-00841*
X00477Y-00842*
X00478Y-00842*
X00478Y-00842*
X00479Y-00843*
X0048Y-00843*
X0048Y-00843*
X00481*
X00481Y-00843*
X00481Y-00843*
X00482Y-00843*
X00482Y-00842*
X00483Y-00842*
X00483Y-00842*
X00484Y-00841*
X00484Y-00841*
X00484Y-00841*
X00484Y-00841*
X00484Y-0084*
X00485Y-0084*
X00485Y-00839*
X00485Y-00839*
X00485Y-00838*
X00485Y-00837*
Y-00837*
Y-00837*
Y-00837*
X00485Y-00836*
X00485Y-00836*
X00485Y-00835*
X00485Y-00835*
X00485Y-00834*
X00485Y-00833*
X00484Y-00833*
X00484Y-00833*
X00484Y-00833*
X00483Y-00832*
X00483Y-00832*
X00483Y-00832*
X00482Y-00832*
X00481Y-00831*
X0048Y-00831*
G37*
G36*
X01654Y-01019D02*
X01653D01*
X01653Y-01019*
X01653Y-01019*
X01652Y-01019*
X01652Y-01019*
X01651Y-0102*
X01651Y-0102*
X0165Y-0102*
X0165Y-01021*
X0165Y-01021*
X01649Y-01021*
X01649Y-01021*
X01649Y-01022*
X01649Y-01023*
X01649Y-01023*
X01648Y-01024*
Y-01024*
Y-01024*
Y-01024*
X01649Y-01024*
X01649Y-01025*
X01649Y-01025*
X01649Y-01026*
X01649Y-01027*
X01649Y-01027*
X0165Y-01028*
X0165Y-01028*
X0165Y-01028*
X01651Y-01028*
X01651Y-01029*
X01652Y-01029*
X01652Y-01029*
X01653Y-01029*
X01654Y-01029*
X01654*
X01654Y-01029*
X01654Y-01029*
X01655Y-01029*
X01656Y-01029*
X01656Y-01029*
X01657Y-01028*
X01657Y-01028*
X01657Y-01028*
X01658Y-01028*
X01658Y-01027*
X01658Y-01027*
X01658Y-01026*
X01659Y-01026*
X01659Y-01025*
X01659Y-01024*
Y-01024*
Y-01024*
X01659Y-01024*
X01659Y-01023*
X01659Y-01023*
X01658Y-01023*
X01658Y-01022*
X01658Y-01022*
X01658Y-01022*
X01658Y-01021*
X01658Y-01021*
X01658Y-01021*
X01657Y-01021*
X01657Y-0102*
X01657Y-0102*
X01656Y-0102*
X01656Y-0102*
X01656Y-0102*
X01656Y-01019*
X01655Y-01019*
X01655Y-01019*
X01655Y-01019*
X01654Y-01019*
X01654Y-01019*
G37*
G36*
X01654Y-01032D02*
X01653D01*
X01653Y-01032*
X01653Y-01032*
X01652Y-01032*
X01652Y-01032*
X01651Y-01033*
X01651Y-01033*
X01651Y-01033*
X0165Y-01033*
X0165Y-01033*
X0165Y-01034*
X0165Y-01034*
X0165Y-01035*
X0165Y-01035*
X0165Y-01036*
Y-01036*
Y-01036*
Y-01036*
X0165Y-01036*
X0165Y-01037*
X0165Y-01037*
X0165Y-01038*
X0165Y-01038*
X01651Y-01039*
X01651Y-01039*
X01651Y-01039*
X01651Y-01039*
X01652Y-01039*
X01652Y-01039*
X01652Y-0104*
X01653Y-0104*
X01654Y-0104*
X01654*
X01654Y-0104*
X01655Y-0104*
X01655Y-01039*
X01656Y-01039*
X01656Y-01039*
X01657Y-01039*
X01657Y-01039*
X01657Y-01038*
X01657Y-01038*
X01657Y-01038*
X01657Y-01037*
X01658Y-01037*
X01658Y-01036*
X01658Y-01036*
Y-01036*
Y-01036*
X01658Y-01035*
X01658Y-01035*
X01657Y-01034*
X01657Y-01034*
X01657Y-01033*
X01657Y-01033*
X01657Y-01033*
X01656Y-01033*
X01656Y-01033*
X01656Y-01032*
X01655Y-01032*
X01655Y-01032*
X01654Y-01032*
X01654Y-01032*
G37*
%LNbrushed_pcb-3*%
%LPD*%
G54D12*
X-00541Y-00872D02*
Y-00637D01*
Y-00872D02*
X00151D01*
Y-00637*
X-00541D02*
X00151D01*
X00745Y-01109D02*
Y-00924D01*
X00269D02*
X00745D01*
X00269Y-01109D02*
Y-00924D01*
Y-01109D02*
X00745D01*
X01344Y-00713D02*
Y-00479D01*
X00848D02*
X01344D01*
X00848Y-00713D02*
Y-00479D01*
Y-00713D02*
X01344D01*
X-01123Y-00681D02*
X-01047D01*
X-01123Y-00815D02*
Y-00681D01*
Y-00815D02*
X-01047D01*
Y-00681*
X-01047Y-00646D02*
Y-00512D01*
X-01122Y-00646D02*
X-01047D01*
X-01122D02*
Y-00512D01*
X-01047*
X-0098Y-0101D02*
Y-00872D01*
X-01041Y-0101D02*
X-0098D01*
X-01041D02*
Y-00872D01*
X-0098*
X-02337Y00405D02*
X-02093D01*
Y00259D02*
Y00405D01*
X-02337Y00259D02*
X-02093D01*
X-02337D02*
Y00405D01*
Y00099D02*
Y00245D01*
Y00099D02*
X-02093D01*
Y00245*
X-02337D02*
X-02093D01*
X-02337Y-00057D02*
Y00088D01*
Y-00057D02*
X-02093D01*
Y00088*
X-02337D02*
X-02093D01*
X-02337Y-00217D02*
Y-00071D01*
Y-00217D02*
X-02093D01*
Y-00071*
X-02337D02*
X-02093D01*
X-00329Y0094D02*
Y01078D01*
X-00268*
Y0094D02*
Y01078D01*
X-00329Y0094D02*
X-00268D01*
X-00539Y-00894D02*
X00153D01*
Y-01128D02*
Y-00894D01*
X-00539Y-01128D02*
X00153D01*
X-00539D02*
Y-00894D01*
X01334Y-00912D02*
Y-00727D01*
X00858D02*
X01334D01*
X00858Y-00912D02*
Y-00727D01*
Y-00912D02*
X01334D01*
X00259Y-00713D02*
X00755D01*
X00259D02*
Y-00479D01*
X00755*
Y-00713D02*
Y-00479D01*
X01429Y-00713D02*
X01925D01*
X01429D02*
Y-00479D01*
X01925*
Y-00713D02*
Y-00479D01*
X-00265Y-00619D02*
Y-00474D01*
Y-00619D02*
X00037D01*
Y-00474*
X-00265D02*
X00037D01*
X00269Y-00912D02*
X00745D01*
X00269D02*
Y-00727D01*
X00745*
Y-00912D02*
Y-00727D01*
X00858Y-01109D02*
X01334D01*
X00858D02*
Y-00924D01*
X01334*
Y-01109D02*
Y-00924D01*
X01442Y-01109D02*
X01918D01*
X01442D02*
Y-00924D01*
X01918*
Y-01109D02*
Y-00924D01*
X01438Y-00912D02*
X01915D01*
X01438D02*
Y-00727D01*
X01915*
Y-00912D02*
Y-00727D01*
G54D14*
X00492Y00668D02*
X00556Y00604D01*
X-00553D02*
Y00843D01*
X00001*
X00492Y00668D02*
Y00843D01*
X00001D02*
X00492D01*
M02*