%FSTAX23Y23*%
%MOIN*%
%SFA1B1*%

%IPPOS*%
%ADD12C,0.007874*%
%ADD13C,0.003937*%
%ADD14C,0.010000*%
%ADD15C,0.005000*%
%LNbrushed_pcb-1*%
%LPD*%
G54D12*
X-00429Y006D02*
D01*
X-00429Y006*
X-00429Y006*
X-00429Y00601*
X-00429Y00601*
X-00429Y00601*
X-00429Y00601*
X-00429Y00602*
X-00429Y00602*
X-00429Y00602*
X-0043Y00602*
X-0043Y00603*
X-0043Y00603*
X-0043Y00603*
X-0043Y00603*
X-00431Y00603*
X-00431Y00603*
X-00431Y00604*
X-00431Y00604*
X-00432Y00604*
X-00432Y00604*
X-00432Y00604*
X-00432Y00604*
X-00433*
X-00433Y00604*
X-00433Y00604*
X-00434Y00604*
X-00434Y00604*
X-00434Y00604*
X-00434Y00603*
X-00435Y00603*
X-00435Y00603*
X-00435Y00603*
X-00435Y00603*
X-00435Y00603*
X-00436Y00602*
X-00436Y00602*
X-00436Y00602*
X-00436Y00602*
X-00436Y00601*
X-00436Y00601*
X-00436Y00601*
X-00436Y00601*
X-00436Y006*
X-00436Y006*
X-00437Y006*
X-00436Y006*
X-00436Y00599*
X-00436Y00599*
X-00436Y00599*
X-00436Y00599*
X-00436Y00598*
X-00436Y00598*
X-00436Y00598*
X-00436Y00598*
X-00436Y00597*
X-00435Y00597*
X-00435Y00597*
X-00435Y00597*
X-00435Y00597*
X-00435Y00596*
X-00434Y00596*
X-00434Y00596*
X-00434Y00596*
X-00434Y00596*
X-00433Y00596*
X-00433Y00596*
X-00433Y00596*
X-00432*
X-00432Y00596*
X-00432Y00596*
X-00432Y00596*
X-00431Y00596*
X-00431Y00596*
X-00431Y00596*
X-00431Y00596*
X-0043Y00597*
X-0043Y00597*
X-0043Y00597*
X-0043Y00597*
X-0043Y00597*
X-00429Y00598*
X-00429Y00598*
X-00429Y00598*
X-00429Y00598*
X-00429Y00599*
X-00429Y00599*
X-00429Y00599*
X-00429Y00599*
X-00429Y006*
X-00429Y006*
X-01811Y-00595D02*
D01*
X-01811Y-00594*
X-01811Y-00594*
X-01811Y-00594*
X-01811Y-00594*
X-01812Y-00593*
X-01812Y-00593*
X-01812Y-00593*
X-01812Y-00593*
X-01812Y-00592*
X-01812Y-00592*
X-01812Y-00592*
X-01813Y-00592*
X-01813Y-00592*
X-01813Y-00591*
X-01813Y-00591*
X-01814Y-00591*
X-01814Y-00591*
X-01814Y-00591*
X-01814Y-00591*
X-01815Y-00591*
X-01815Y-00591*
X-01815Y-00591*
X-01815*
X-01816Y-00591*
X-01816Y-00591*
X-01816Y-00591*
X-01816Y-00591*
X-01817Y-00591*
X-01817Y-00591*
X-01817Y-00591*
X-01817Y-00591*
X-01818Y-00592*
X-01818Y-00592*
X-01818Y-00592*
X-01818Y-00592*
X-01818Y-00592*
X-01819Y-00593*
X-01819Y-00593*
X-01819Y-00593*
X-01819Y-00593*
X-01819Y-00594*
X-01819Y-00594*
X-01819Y-00594*
X-01819Y-00594*
X-01819Y-00595*
X-01819Y-00595*
X-01819Y-00595*
X-01819Y-00596*
X-01819Y-00596*
X-01819Y-00596*
X-01819Y-00596*
X-01819Y-00597*
X-01819Y-00597*
X-01818Y-00597*
X-01818Y-00597*
X-01818Y-00597*
X-01818Y-00598*
X-01818Y-00598*
X-01817Y-00598*
X-01817Y-00598*
X-01817Y-00598*
X-01817Y-00598*
X-01816Y-00598*
X-01816Y-00599*
X-01816Y-00599*
X-01816Y-00599*
X-01815Y-00599*
X-01815*
X-01815Y-00599*
X-01815Y-00599*
X-01814Y-00599*
X-01814Y-00598*
X-01814Y-00598*
X-01814Y-00598*
X-01813Y-00598*
X-01813Y-00598*
X-01813Y-00598*
X-01813Y-00598*
X-01812Y-00597*
X-01812Y-00597*
X-01812Y-00597*
X-01812Y-00597*
X-01812Y-00597*
X-01812Y-00596*
X-01812Y-00596*
X-01811Y-00596*
X-01811Y-00596*
X-01811Y-00595*
X-01811Y-00595*
X-01811Y-00595*
G54D13*
X01062Y00197D02*
D01*
X01062Y00199*
X01062Y002*
X01061Y00202*
X01061Y00203*
X01061Y00204*
X0106Y00205*
X01059Y00207*
X01059Y00208*
X01058Y00209*
X01057Y0021*
X01056Y00211*
X01055Y00212*
X01054Y00213*
X01053Y00214*
X01052Y00215*
X01051Y00215*
X01049Y00216*
X01048Y00216*
X01047Y00217*
X01045Y00217*
X01044Y00217*
X01043Y00217*
X01041*
X0104Y00217*
X01039Y00217*
X01037Y00217*
X01036Y00216*
X01035Y00216*
X01033Y00215*
X01032Y00215*
X01031Y00214*
X0103Y00213*
X01029Y00212*
X01028Y00211*
X01027Y0021*
X01026Y00209*
X01025Y00208*
X01025Y00207*
X01024Y00205*
X01024Y00204*
X01023Y00203*
X01023Y00202*
X01023Y002*
X01022Y00199*
X01022Y00197*
X01022Y00196*
X01023Y00195*
X01023Y00193*
X01023Y00192*
X01024Y00191*
X01024Y00189*
X01025Y00188*
X01025Y00187*
X01026Y00186*
X01027Y00185*
X01028Y00184*
X01029Y00183*
X0103Y00182*
X01031Y00181*
X01032Y0018*
X01033Y0018*
X01035Y00179*
X01036Y00179*
X01037Y00178*
X01039Y00178*
X0104Y00178*
X01041Y00178*
X01043*
X01044Y00178*
X01045Y00178*
X01047Y00178*
X01048Y00179*
X01049Y00179*
X01051Y0018*
X01052Y0018*
X01053Y00181*
X01054Y00182*
X01055Y00183*
X01056Y00184*
X01057Y00185*
X01058Y00186*
X01059Y00187*
X01059Y00188*
X0106Y00189*
X01061Y00191*
X01061Y00192*
X01061Y00193*
X01062Y00195*
X01062Y00196*
X01062Y00197*
X00309Y-00167D02*
D01*
X00309Y-00165*
X00308Y-00164*
X00308Y-00163*
X00308Y-00161*
X00307Y-0016*
X00307Y-00159*
X00306Y-00158*
X00306Y-00156*
X00305Y-00155*
X00304Y-00154*
X00303Y-00153*
X00302Y-00152*
X00301Y-00151*
X003Y-00151*
X00299Y-0015*
X00297Y-00149*
X00296Y-00149*
X00295Y-00148*
X00294Y-00148*
X00292Y-00147*
X00291Y-00147*
X0029Y-00147*
X00288*
X00287Y-00147*
X00285Y-00147*
X00284Y-00148*
X00283Y-00148*
X00281Y-00149*
X0028Y-00149*
X00279Y-0015*
X00278Y-00151*
X00277Y-00151*
X00276Y-00152*
X00275Y-00153*
X00274Y-00154*
X00273Y-00155*
X00272Y-00156*
X00271Y-00158*
X00271Y-00159*
X0027Y-0016*
X0027Y-00161*
X0027Y-00163*
X00269Y-00164*
X00269Y-00165*
X00269Y-00167*
X00269Y-00168*
X00269Y-0017*
X0027Y-00171*
X0027Y-00172*
X0027Y-00174*
X00271Y-00175*
X00271Y-00176*
X00272Y-00177*
X00273Y-00178*
X00274Y-00179*
X00275Y-0018*
X00276Y-00181*
X00277Y-00182*
X00278Y-00183*
X00279Y-00184*
X0028Y-00185*
X00281Y-00185*
X00283Y-00186*
X00284Y-00186*
X00285Y-00186*
X00287Y-00186*
X00288Y-00186*
X0029*
X00291Y-00186*
X00292Y-00186*
X00294Y-00186*
X00295Y-00186*
X00296Y-00185*
X00297Y-00185*
X00299Y-00184*
X003Y-00183*
X00301Y-00182*
X00302Y-00181*
X00303Y-0018*
X00304Y-00179*
X00305Y-00178*
X00306Y-00177*
X00306Y-00176*
X00307Y-00175*
X00307Y-00174*
X00308Y-00172*
X00308Y-00171*
X00308Y-0017*
X00309Y-00168*
X00309Y-00167*
X-01722Y-00462D02*
X-01171D01*
Y-01061D02*
Y-00462D01*
X-01722Y-01061D02*
X-01171D01*
X-01722D02*
Y-00462D01*
X-01689Y-00795D02*
X-01636D01*
X-01689Y-00712D02*
X-01636D01*
Y-00795D02*
Y-00712D01*
X-01689Y-00795D02*
Y-00712D01*
X02139Y00242D02*
X02218D01*
X02188D02*
X02218D01*
Y00291*
X02139D02*
X02218D01*
X02139Y00242D02*
Y00291D01*
Y00147D02*
X02218D01*
X02188D02*
X02218D01*
Y00197*
X02139D02*
X02218D01*
X02139Y00147D02*
Y00197D01*
X02143Y00053D02*
X02222D01*
X02192D02*
X02222D01*
Y00102*
X02143D02*
X02222D01*
X02143Y00053D02*
Y00102D01*
Y-00037D02*
X02222D01*
X02192D02*
X02222D01*
Y00012*
X02143D02*
X02222D01*
X02143Y-00037D02*
Y00012D01*
X02154Y-00436D02*
X02544D01*
X02154D02*
Y-00259D01*
X02544Y-00436D02*
Y-00259D01*
X02154D02*
X02544D01*
X02379Y00338D02*
Y00649D01*
X02556D01*
Y00338D02*
Y00649D01*
X02379Y00338D02*
X02556D01*
X0254Y00364D02*
Y00624D01*
X02379Y00462D02*
X02403D01*
X02468Y00338D02*
Y00364D01*
X02403Y00624D02*
X0254D01*
X02436D02*
Y00649D01*
X02468Y00624D02*
Y00649D01*
X02436Y00338D02*
Y00364D01*
X02403D02*
X0254D01*
X02379Y00525D02*
X02403D01*
Y00624*
Y00364D02*
Y00462D01*
X-0066Y00431D02*
Y00513D01*
X-00607Y00431D02*
Y00513D01*
X-0066D02*
X-00607D01*
X-0066Y00431D02*
X-00607D01*
X-00753Y00444D02*
X-00696D01*
X-00753Y00531D02*
X-00696D01*
Y00444D02*
Y00531D01*
X-00753Y00444D02*
Y00531D01*
X-01594Y-00655D02*
X-01456D01*
X-01594Y-00891D02*
X-01456D01*
Y-00655*
X-01594Y-00891D02*
Y-00655D01*
X-01438Y-00891D02*
X-01301D01*
X-01438Y-00655D02*
X-01301D01*
X-01438Y-00891D02*
Y-00655D01*
X-01301Y-00891D02*
Y-00655D01*
X-01283Y-00891D02*
X-01145D01*
X-01283Y-00655D02*
X-01145D01*
X-01283Y-00891D02*
Y-00655D01*
X-01145Y-00891D02*
Y-00655D01*
X-0175Y-00655D02*
X-01613D01*
X-0175Y-00891D02*
X-01613D01*
Y-00655*
X-0175Y-00891D02*
Y-00655D01*
X-01035Y-00783D02*
X-00986D01*
X-01035D02*
Y-00704D01*
X-00986*
Y-00734D02*
Y-00704D01*
Y-00783D02*
Y-00704D01*
X-01034Y-00622D02*
X-00985D01*
X-01034D02*
Y-00543D01*
X-00985*
Y-00573D02*
Y-00543D01*
Y-00622D02*
Y-00543D01*
X-01125Y-00984D02*
X-01068D01*
X-01125Y-00898D02*
X-01068D01*
X-01125Y-00984D02*
Y-00898D01*
X-01068Y-00984D02*
Y-00898D01*
X-02277Y-00868D02*
Y-00769D01*
Y-00706D02*
Y-00608D01*
X-02301Y-00706D02*
X-02277D01*
Y-00868D02*
X-02139D01*
X-02244Y-00893D02*
Y-00868D01*
X-02212Y-00608D02*
Y-00582D01*
X-02244Y-00608D02*
Y-00582D01*
X-02277Y-00608D02*
X-02139D01*
X-02212Y-00893D02*
Y-00868D01*
X-02301Y-00769D02*
X-02277D01*
X-02139Y-00868D02*
Y-00608D01*
X-02301Y-00893D02*
X-02124D01*
Y-00582D01*
X-02301D02*
X-02124D01*
X-02301Y-00893D02*
Y-00582D01*
X-02385Y00338D02*
Y00649D01*
X-02563Y00338D02*
X-02385D01*
X-02563D02*
Y00649D01*
X-02385D01*
X-02547Y00363D02*
Y00623D01*
X-02409Y00525D02*
X-02385D01*
X-02474Y00623D02*
Y00649D01*
X-02547Y00363D02*
X-02409D01*
X-02443Y00338D02*
Y00363D01*
X-02474Y00338D02*
Y00363D01*
X-02443Y00623D02*
Y00649D01*
X-02547Y00623D02*
X-02409D01*
Y00462D02*
X-02385D01*
X-02409Y00363D02*
Y00462D01*
Y00525D02*
Y00623D01*
X0005Y-00592D02*
X00099D01*
X0005D02*
Y-00525D01*
X00099*
Y-00592D02*
Y-00525D01*
X-00914Y00513D02*
X-00861D01*
X-00914Y00431D02*
X-00861D01*
X-00914D02*
Y00513D01*
X-00861Y00431D02*
Y00513D01*
X-00414Y01044D02*
X-00357D01*
X-00414Y00957D02*
X-00357D01*
Y01044*
X-00414Y00957D02*
Y01044D01*
X01007Y00233D02*
X0142D01*
X01007Y00012D02*
X0142D01*
X01007D02*
Y00233D01*
X0142Y00012D02*
Y00233D01*
X00253Y-00202D02*
Y-0008D01*
X00375Y-00202D02*
Y-0008D01*
X00253Y-00202D02*
X00375D01*
X00253Y-0008D02*
X00375D01*
X02128Y-00893D02*
Y-00582D01*
X02305D01*
X02305Y-00893D02*
Y-00582D01*
X02128Y-00893D02*
X02305D01*
X02289Y-00868D02*
Y-00608D01*
X02128Y-00769D02*
X02151D01*
X02216Y-00893D02*
Y-00868D01*
X02151Y-00608D02*
X02289D01*
X02185D02*
Y-00582D01*
X02216Y-00608D02*
Y-00582D01*
X02185Y-00893D02*
Y-00868D01*
X02151D02*
X02289D01*
X02128Y-00706D02*
X02151D01*
Y-00608*
Y-00868D02*
Y-00769D01*
G54D14*
X-00177Y00767D02*
Y00801D01*
X-0016Y00817*
X-00143Y00801*
Y00767*
Y00792*
X-00177*
X-00127Y00767D02*
Y00817D01*
X-00093Y00767*
Y00817*
X-00077D02*
X-00043D01*
X-0006*
Y00767*
X00006Y00817D02*
X-00027D01*
Y00767*
X00006*
X-00027Y00792D02*
X-0001D01*
X00022Y00767D02*
Y00817D01*
X00056Y00767*
Y00817*
X00072Y00767D02*
Y00817D01*
X00106Y00767*
Y00817*
X00122Y00767D02*
Y00801D01*
X00139Y00817*
X00156Y00801*
Y00767*
Y00792*
X00122*
G54D15*
X-00705Y-01078D02*
X-0063D01*
X-00705Y-0094D02*
X-0063D01*
Y-01078D02*
Y-0094D01*
X-00705Y-01078D02*
Y-0094D01*
X-00813Y-01078D02*
X-00739D01*
X-00813Y-0094D02*
X-00739D01*
Y-01078D02*
Y-0094D01*
X-00813Y-01078D02*
Y-0094D01*
X01453Y-00031D02*
Y-00018D01*
X01478Y-00031D02*
Y-00018D01*
X01453Y-00031D02*
X01478D01*
X01453Y-00018D02*
X01478D01*
X01558Y-00031D02*
Y-00018D01*
X01583Y-00031D02*
Y-00018D01*
X01558Y-00031D02*
X01583D01*
X01558Y-00018D02*
X01583D01*
Y00012D02*
Y00024D01*
X01558Y00012D02*
Y00024D01*
X01583*
X01558Y00012D02*
X01583D01*
X01655Y-00031D02*
Y-00018D01*
X01681Y-00031D02*
Y-00018D01*
X01655D02*
X01681D01*
X01655Y-00031D02*
X01681D01*
Y00012D02*
Y00024D01*
X01655Y00012D02*
Y00024D01*
Y00012D02*
X01681D01*
X01655Y00024D02*
X01681D01*
X01478Y00013D02*
Y00025D01*
X01453Y00013D02*
Y00025D01*
X01478*
X01453Y00013D02*
X01478D01*
X-01051Y-00775D02*
X-00913D01*
X-01051Y-0085D02*
X-00913D01*
Y-00775*
X-01051Y-0085D02*
Y-00775D01*
Y-00874D02*
X-00913D01*
X-01051Y-00949D02*
X-00913D01*
Y-00874*
X-01051Y-00949D02*
Y-00874D01*
Y-01051D02*
X-00913D01*
X-01051Y-00976D02*
X-00913D01*
X-01051Y-01051D02*
Y-00976D01*
X-00913Y-01051D02*
Y-00976D01*
X-0099Y-00435D02*
X-00852D01*
X-0099Y-00509D02*
X-00852D01*
Y-00435*
X-0099Y-00509D02*
Y-00435D01*
X-01328Y00196D02*
X-01253D01*
X-01328Y00333D02*
X-01253D01*
Y00196D02*
Y00333D01*
X-01328Y00196D02*
Y00333D01*
X-01437Y00196D02*
X-01363D01*
X-01437Y00333D02*
X-01363D01*
Y00196D02*
Y00333D01*
X-01437Y00196D02*
Y00333D01*
X-01546Y00196D02*
X-01472D01*
X-01546Y00333D02*
X-01472D01*
Y00196D02*
Y00333D01*
X-01546Y00196D02*
Y00333D01*
X-01656Y00196D02*
X-01581D01*
X-01656Y00333D02*
X-01581D01*
Y00196D02*
Y00333D01*
X-01656Y00196D02*
Y00333D01*
X-01874Y00196D02*
X-01799D01*
X-01874Y00333D02*
X-01799D01*
Y00196D02*
Y00333D01*
X-01874Y00196D02*
Y00333D01*
X-01983Y00196D02*
X-01908D01*
X-01983Y00333D02*
X-01908D01*
Y00196D02*
Y00333D01*
X-01983Y00196D02*
Y00333D01*
X-01765Y00196D02*
X-0169D01*
X-01765Y00333D02*
X-0169D01*
Y00196D02*
Y00333D01*
X-01765Y00196D02*
Y00333D01*
X-0111Y00196D02*
X-01035D01*
X-0111Y00333D02*
X-01035D01*
Y00196D02*
Y00333D01*
X-0111Y00196D02*
Y00333D01*
X-01219Y00196D02*
X-01144D01*
X-01219Y00333D02*
X-01144D01*
Y00196D02*
Y00333D01*
X-01219Y00196D02*
Y00333D01*
X-01001Y00196D02*
X-00926D01*
X-01001Y00333D02*
X-00926D01*
Y00196D02*
Y00333D01*
X-01001Y00196D02*
Y00333D01*
X-00354Y-00108D02*
Y00659D01*
Y-00108D02*
X00354D01*
Y00659D02*
Y00895D01*
X-00354D02*
X00354D01*
Y-00108D02*
Y00659D01*
X-00354D02*
Y00895D01*
Y00659D02*
X00354D01*
X-01788Y-00899D02*
Y-00662D01*
X-01938Y-00899D02*
X-01788D01*
X-01938D02*
Y-00662D01*
X-01788*
X00885Y-00566D02*
Y-00491D01*
X00747Y-00566D02*
Y-00491D01*
X00885*
X00747Y-00566D02*
X00885D01*
X00297D02*
Y-00491D01*
X00159Y-00566D02*
Y-00491D01*
X00297*
X00159Y-00566D02*
X00297D01*
X01466D02*
Y-00491D01*
X01328Y-00566D02*
Y-00491D01*
X01466*
X01328Y-00566D02*
X01466D01*
X00885Y-00672D02*
Y-00597D01*
X00747Y-00672D02*
Y-00597D01*
X00885*
X00747Y-00672D02*
X00885D01*
X00298Y-00673D02*
Y-00599D01*
X0016Y-00673D02*
Y-00599D01*
X00298*
X0016Y-00673D02*
X00298D01*
X01466Y-00672D02*
Y-00597D01*
X01328Y-00672D02*
Y-00597D01*
X01466*
X01328Y-00672D02*
X01466D01*
X-00705Y-00818D02*
X-0063D01*
X-00705Y-0068D02*
X-0063D01*
Y-00818D02*
Y-0068D01*
X-00705Y-00818D02*
Y-0068D01*
X-00813Y-00818D02*
X-00739D01*
X-00813Y-0068D02*
X-00739D01*
Y-00818D02*
Y-0068D01*
X-00813Y-00818D02*
Y-0068D01*
X-01965Y-00445D02*
X-0189D01*
X-01965Y-00583D02*
X-0189D01*
X-01965D02*
Y-00445D01*
X-0189Y-00583D02*
Y-00445D01*
X-02084Y-00446D02*
X-02009D01*
X-02084Y-00584D02*
X-02009D01*
X-02084D02*
Y-00446D01*
X-02009Y-00584D02*
Y-00446D01*
M02*