%FSTAX23Y23*%
%MOIN*%
%SFA1B1*%

%IPPOS*%
%AMD88*
4,1,8,0.025100,0.007500,-0.025100,0.007500,-0.032600,0.000000,-0.032600,0.000000,-0.025100,-0.007500,0.025100,-0.007500,0.032600,0.000000,0.032600,0.000000,0.025100,0.007500,0.0*
1,1,0.014992,0.025100,0.000000*
1,1,0.014992,-0.025100,0.000000*
1,1,0.014992,-0.025100,0.000000*
1,1,0.014992,0.025100,0.000000*
%
%ADD14C,0.010000*%
%ADD23R,0.047244X0.047244*%
%ADD28R,0.075197X0.053937*%
%ADD53C,0.055118*%
%ADD54R,0.055118X0.055118*%
%ADD57C,0.047244*%
%ADD65C,0.045275*%
%ADD66R,0.045275X0.045275*%
%ADD71C,0.118110*%
%ADD72C,0.030000*%
%ADD73C,0.106299*%
%ADD74C,0.060000*%
%ADD75C,0.188976*%
%ADD76C,0.059055*%
%ADD77R,0.059055X0.059055*%
%ADD78C,0.047559*%
%ADD79C,0.051181*%
%ADD80R,0.051181X0.051181*%
%ADD81C,0.015748*%
%ADD82R,0.059055X0.059055*%
%ADD83C,0.029527*%
%ADD84C,0.027559*%
%ADD85C,0.118110*%
%ADD86R,0.037594X0.049689*%
%ADD87R,0.057563X0.053342*%
G04~CAMADD=88~8~0.0~0.0~651.7~149.9~75.0~0.0~15~0.0~0.0~0.0~0.0~0~0.0~0.0~0.0~0.0~0~0.0~0.0~0.0~0.0~651.7~149.9*
%ADD88D88*%
%ADD89R,0.065173X0.014992*%
%ADD90R,0.031496X0.059055*%
%ADD91R,0.051181X0.055118*%
%ADD92R,0.039370X0.037401*%
%ADD93R,0.055118X0.074803*%
%ADD94R,0.047500X0.059378*%
%ADD95O,0.066929X0.011811*%
%ADD96R,0.059055X0.055118*%
%ADD97R,0.062992X0.011811*%
%ADD98R,0.045275X0.045275*%
%ADD99R,0.039626X0.055441*%
%ADD100R,0.014961X0.015748*%
%ADD101R,0.053150X0.043307*%
%ADD102R,0.053937X0.075197*%
%ADD103R,0.041339X0.062992*%
%ADD104R,0.084645X0.037401*%
%ADD105O,0.017716X0.070866*%
%ADD106R,0.049689X0.037594*%
%ADD107R,0.084645X0.127952*%
%ADD108R,0.059378X0.047500*%
%ADD109R,0.049212X0.039370*%
%LNbrushed_pcb-1*%
%LPD*%
G36*
X01976Y00938D02*
X02673D01*
Y-00929*
X01976*
Y-01137*
X-01976*
Y-00925*
X-02673*
Y00938*
X-01976*
Y0117*
X01976*
Y00938*
G37*
%LNbrushed_pcb-2*%
%LPC*%
G36*
X-00987Y01102D02*
X-00988Y01102D01*
X-00988Y01102*
X-00994Y01101*
X-01Y011*
X-01001Y011*
X-01002Y011*
X-01007Y01098*
X-01013Y01096*
X-01014Y01095*
X-01014Y01095*
X-0102Y01092*
X-01025Y01089*
X-01025Y01088*
X-01026Y01088*
X-0103Y01084*
X-01035Y0108*
X-01035Y01079*
X-01036Y01079*
X-01039Y01074*
X-01043Y01069*
X-01043Y01068*
X-01044Y01068*
X-01194Y00808*
X-01217Y00769*
X-01218Y00765*
X-01221Y00761*
X-01221Y00759*
X-01222Y00757*
X-01223Y00752*
X-01224Y00748*
X-01225Y00746*
X-01225Y00743*
X-01225Y00739*
X-01226Y00734*
X-01226Y00732*
X-01226Y0073*
X-01225Y00725*
X-01224Y00721*
X-01224Y00719*
X-01223Y00716*
X-01222Y00712*
X-01221Y00708*
X-01219Y00706*
X-01219Y00704*
X-01216Y007*
X-01214Y00696*
X-01213Y00694*
X-01212Y00692*
X-01208Y00689*
X-01206Y00685*
X-01204Y00684*
X-01202Y00682*
X-01199Y00679*
X-01195Y00677*
X-01193Y00675*
X-01191Y00674*
X-01187Y00672*
X-01183Y0067*
X-01181Y00669*
X-01179Y00669*
X-01174Y00667*
X-0117Y00666*
X-01168Y00666*
X-01166Y00665*
X-01161Y00665*
X-01156Y00665*
X-0109*
X-01086Y00665*
X-01082Y00665*
X-01079Y00666*
X-01076Y00666*
X-01072Y00667*
X-01068Y00668*
X-01066Y00669*
X-01063Y0067*
X-0106Y00672*
X-01056Y00674*
X-01054Y00675*
X-01051Y00677*
X-01048Y00679*
X-01045Y00681*
X-01043Y00683*
X-0104Y00685*
X-01038Y00688*
X-01035Y00691*
X-01034Y00693*
X-01032Y00696*
X-0103Y00699*
X-01028Y00702*
X-01027Y00705*
X-01026Y00707*
X-01023Y00707*
X-01022Y00707*
X-0102Y00707*
X-01019Y00705*
X-01018Y00702*
X-01016Y00699*
X-01014Y00695*
X-01012Y00693*
X-01011Y00691*
X-01008Y00688*
X-01006Y00684*
X-01004Y00683*
X-01002Y00681*
X-00998Y00678*
X-00995Y00676*
X-00993Y00675*
X-00991Y00673*
X-00987Y00671*
X-00983Y00669*
X-00981Y00669*
X-00978Y00668*
X-00974Y00667*
X-0097Y00665*
X-00967Y00665*
X-00965Y00665*
X-00961Y00664*
X-00956Y00664*
X-0089*
X-00884Y00665*
X-00879Y00665*
X-00878Y00665*
X-00878Y00665*
X-00877Y00665*
X-00876Y00665*
X-00871Y00667*
X-00866Y00668*
X-00865Y00668*
X-00865Y00669*
X-00864Y00669*
X-00863Y00669*
X-00858Y00672*
X-00853Y00674*
X-00853Y00674*
X-00853Y00675*
X-00852Y00675*
X-00851Y00676*
X-00847Y00679*
X-00842Y00682*
X-00842Y00683*
X-00842Y00683*
X-00841Y00684*
X-0084Y00684*
X-00837Y00689*
X-00833Y00693*
X-00833Y00693*
X-00833Y00693*
X-00832Y00694*
X-00832Y00695*
X-00829Y007*
X-00827Y00704*
X-00826Y00705*
X-00826Y00705*
X-00826Y00706*
X-00825Y00707*
X-00824Y0071*
X-00819Y00711*
X-00819Y00711*
X-00818Y00709*
X-00816Y00705*
X-00815Y00703*
X-00814Y00702*
X-00811Y00698*
X-00808Y00694*
X-00807Y00693*
X-00806Y00691*
X-00802Y00688*
X-00798Y00685*
X-00797Y00684*
X-00795Y00683*
X-00791Y0068*
X-00787Y00678*
X-00785Y00677*
X-00783Y00676*
X-00778Y00675*
X-00774Y00673*
X-00772Y00673*
X-0077Y00672*
X-00765Y00672*
X-0076Y00671*
X-00758Y00671*
X-00756Y00671*
X-0069*
X-00684Y00671*
X-00679Y00672*
X-00677Y00672*
X-00676Y00672*
X-00671Y00674*
X-00666Y00675*
X-00664Y00676*
X-00663Y00676*
X-00658Y00679*
X-00653Y00681*
X-00652Y00682*
X-00651Y00683*
X-00647Y00686*
X-00643Y00689*
X-00642Y0069*
X-0064Y00691*
X-00637Y00695*
X-00633Y00699*
X-00633Y00701*
X-00632Y00702*
X-00629Y00706*
X-00627Y00711*
X-00625Y00715*
X-00579Y00813*
X-00579Y00814*
X-00578Y00815*
X-00577Y0082*
X-00575Y00825*
X-00575Y00825*
X-00575Y00826*
X-00575Y00827*
X-00574Y00828*
X-00574Y00833*
X-00573Y00838*
X-00573Y00839*
X-00573Y00839*
X-00573Y00841*
X-00573Y00842*
X-00573Y00847*
X-00574Y00852*
X-00574Y00852*
X-00574Y00853*
X-00574Y00854*
X-00574Y00856*
X-00576Y0086*
X-00577Y00865*
X-00577Y00865*
X-00577Y00866*
X-00578Y00867*
X-00578Y00869*
X-00581Y00873*
X-00583Y00877*
X-00583Y00878*
X-00583Y00878*
X-00584Y00879*
X-00585Y00881*
X-00588Y00884*
X-00591Y00888*
X-00591Y00889*
X-00591Y00889*
X-00592Y0089*
X-00593Y00891*
X-00597Y00894*
X-00601Y00897*
X-00601Y00898*
X-00601Y00898*
X-00603Y00899*
X-00604Y009*
X-00608Y00902*
X-00612Y00904*
X-00613Y00905*
X-00613Y00905*
X-00615Y00905*
X-00616Y00906*
X-0062Y00908*
X-00625Y00909*
X-00625Y00909*
X-00626Y00909*
X-00627Y0091*
X-00629Y0091*
X-00634Y00911*
X-00638Y00911*
X-00639Y00911*
X-00639Y00911*
X-00641Y00911*
X-00642Y00911*
X-00647Y00911*
X-00652Y00911*
X-00653Y00911*
X-00653Y00911*
X-00654Y0091*
X-00656Y0091*
X-0066Y00909*
X-00665Y00908*
X-00666Y00907*
X-00666Y00907*
X-00668Y00907*
X-00669Y00906*
X-00673Y00904*
X-00678Y00902*
X-00678Y00901*
X-00678Y00901*
X-0068Y009*
X-00681Y009*
X-00685Y00897*
X-00689Y00894*
X-00757Y00833*
X-00791Y00802*
X-00796Y00805*
X-00722Y01009*
X-00721Y0101*
X-00721Y01011*
X-0072Y01017*
X-00718Y01023*
X-00718Y01024*
X-00718Y01024*
X-00718Y0103*
X-00718Y01036*
X-00718Y01037*
X-00718Y01038*
X-00719Y01044*
X-0072Y0105*
X-0072Y01051*
X-0072Y01051*
X-00722Y01057*
X-00724Y01062*
X-00725Y01063*
X-00725Y01064*
X-00728Y01069*
X-00731Y01074*
X-00732Y01075*
X-00732Y01076*
X-00736Y0108*
X-0074Y01084*
X-00741Y01085*
X-00742Y01086*
X-00746Y01089*
X-00751Y01092*
X-00752Y01093*
X-00753Y01093*
X-00758Y01096*
X-00763Y01098*
X-00764Y01098*
X-00765Y01099*
X-00771Y011*
X-00777Y01102*
X-00777Y01102*
X-00778Y01102*
X-00784Y01102*
X-0079Y01102*
X-00791Y01102*
X-00792Y01102*
X-00798Y01101*
X-00804Y011*
X-00804Y011*
X-00805Y011*
X-00811Y01098*
X-00816Y01096*
X-00817Y01095*
X-00818Y01095*
X-00823Y01092*
X-00828Y01089*
X-00829Y01088*
X-0083Y01088*
X-00834Y01084*
X-00838Y0108*
X-00839Y01079*
X-00839Y01078*
X-00843Y01073*
X-00846Y01069*
X-00847Y01068*
X-00847Y01067*
X-00973Y00845*
X-00978Y00847*
X-00919Y01009*
X-00918Y0101*
X-00918Y01011*
X-00917Y01017*
X-00915Y01022*
X-00915Y01023*
X-00915Y01024*
X-00915Y0103*
X-00914Y01036*
X-00915Y01037*
X-00915Y01037*
X-00915Y01043*
X-00916Y01049*
X-00917Y0105*
X-00917Y01051*
X-00919Y01057*
X-00921Y01062*
X-00921Y01063*
X-00922Y01064*
X-00925Y01069*
X-00928Y01074*
X-00928Y01075*
X-00929Y01075*
X-00933Y0108*
X-00937Y01084*
X-00937Y01085*
X-00938Y01085*
X-00943Y01089*
X-00948Y01092*
X-00948Y01093*
X-00949Y01093*
X-00955Y01096*
X-0096Y01098*
X-00961Y01098*
X-00961Y01099*
X-00967Y011*
X-00973Y01102*
X-00974Y01102*
X-00975Y01102*
X-00981Y01102*
X-00987Y01102*
G37*
G36*
X00984Y01102D02*
X0097Y01101D01*
X00957Y01097*
X00945Y01091*
X00935Y01082*
X00854Y01001*
X0085Y01004*
X00851Y01006*
X00855Y01019*
X00856Y01033*
X00855Y01046*
X00851Y01059*
X00845Y01071*
X00836Y01082*
X00826Y01091*
X00814Y01097*
X00801Y01101*
X00787Y01102*
X00774Y01101*
X00761Y01097*
X00749Y01091*
X00738Y01082*
X00616Y00961*
Y00961*
X00481Y00826*
X00481*
X00436Y00782*
X00436Y00782*
X00436Y00782*
X00432Y00777*
X00427Y00771*
X00427Y00771*
X00427Y00771*
X00424Y00765*
X00421Y00759*
X00421Y00759*
X00421Y00759*
X00419Y00753*
X00417Y00746*
X00417Y00746*
X00417Y00746*
X00416Y0074*
X00416Y00733*
X00416Y00733*
X00416Y00733*
X00416Y00726*
X00417Y00719*
X00417Y00719*
X00417Y00719*
X00419Y00713*
X00421Y00706*
X00421Y00706*
X00421Y00706*
X00424Y007*
X00427Y00694*
X00427Y00694*
X00427Y00694*
X00432Y00689*
X00436Y00684*
X00436Y00684*
X00436Y00684*
X00441Y00679*
X00446Y00675*
X00446Y00675*
X00446Y00675*
X00452Y00672*
X00458Y00669*
X00458Y00669*
X00458Y00669*
X00465Y00667*
X00471Y00665*
X00471Y00665*
X00472Y00665*
X00478Y00664*
X00485Y00663*
X00485Y00663*
X00485Y00663*
X00552*
X00556Y00664*
X00561Y00664*
X00563Y00664*
X00566Y00665*
X0057Y00666*
X00574Y00667*
X00576Y00668*
X00579Y00669*
X00582Y00671*
X00586Y00672*
X00588Y00674*
X00591Y00675*
X00594Y00678*
X00597Y0068*
X00599Y00682*
X00601Y00684*
X00604Y00687*
X00607Y0069*
X00608Y00692*
X0061Y00694*
X00612Y00698*
X00614Y00702*
X00615Y00704*
X00616Y00706*
X00617Y00706*
X00619Y00707*
X00621Y00706*
X00624Y00701*
X00627Y00695*
X00627Y00695*
X00627Y00695*
X00632Y0069*
X00636Y00684*
X00636Y00684*
X00636Y00684*
X00641Y0068*
X00646Y00676*
X00647Y00676*
X00647Y00676*
X00653Y00673*
X00658Y00669*
X00659Y00669*
X00659Y00669*
X00665Y00667*
X00672Y00665*
X00672Y00665*
X00672Y00665*
X00678Y00665*
X00685Y00664*
X00752*
X00756Y00664*
X0076Y00665*
X00763Y00665*
X00766Y00665*
X00769Y00667*
X00773Y00667*
X00776Y00669*
X00779Y00669*
X00782Y00671*
X00786Y00673*
X00788Y00674*
X00791Y00676*
X00794Y00678*
X00797Y00681*
X00799Y00683*
X00801Y00684*
X00804Y00688*
X00807Y00691*
X00808Y00693*
X0081Y00695*
X00812Y00699*
X00814Y00702*
X00815Y00705*
X00816Y00706*
X00818Y00707*
X00819*
X00821Y00706*
X00824Y00701*
X00827Y00695*
X00827Y00695*
X00827Y00695*
X00832Y0069*
X00836Y00684*
X00836Y00684*
X00836Y00684*
X00841Y0068*
X00846Y00676*
X00847Y00676*
X00847Y00676*
X00853Y00673*
X00858Y00669*
X00859Y00669*
X00859Y00669*
X00865Y00667*
X00872Y00665*
X00872Y00665*
X00872Y00665*
X00878Y00665*
X00885Y00664*
X00952*
X00954Y00664*
X00957Y00664*
X00961Y00665*
X00966Y00665*
X00968Y00666*
X0097Y00666*
X00974Y00668*
X00979Y00669*
X00981Y0067*
X00983Y00671*
X00987Y00674*
X00991Y00676*
X00992Y00677*
X00994Y00678*
X00998Y00682*
X01001Y00684*
X01003Y00686*
X01004Y00688*
X01007Y00691*
X0101Y00695*
X01011Y00697*
X01012Y00699*
X01042Y00752*
X01045Y00757*
X0106Y00768*
X01174Y00772*
X01179Y00772*
X01185Y00773*
X01186Y00773*
X01187Y00774*
X01192Y00775*
X01198Y00777*
X01199Y00778*
X012Y00778*
X01205Y00781*
X0121Y00783*
X01211Y00784*
X01212Y00785*
X01216Y00788*
X0122Y00792*
X01221Y00793*
X01222Y00794*
X01225Y00798*
X01229Y00802*
X01229Y00804*
X0123Y00805*
X01233Y0081*
X01235Y00814*
X01236Y00816*
X01236Y00817*
X01238Y00822*
X01239Y00827*
X01239Y00829*
X0124Y0083*
X0124Y00836*
X0124Y00841*
X0124Y00842*
X0124Y00844*
X0124Y00849*
X01239Y00855*
X01239Y00856*
X01239Y00857*
X01237Y00862*
X01235Y00868*
X01235Y00869*
X01234Y0087*
X01231Y00875*
X01229Y0088*
X01228Y00881*
X01227Y00882*
X01224Y00886*
X0122Y0089*
X01219Y00891*
X01218Y00892*
X01214Y00895*
X0121Y00899*
X01209Y00899*
X01208Y009*
X01203Y00903*
X01198Y00905*
X01196Y00906*
X01195Y00906*
X0119Y00907*
X01185Y00909*
X01183Y00909*
X01182Y0091*
X01177Y0091*
X01171Y0091*
X0117Y0091*
X01169Y0091*
X01036Y00906*
X0103Y00905*
X01024Y00904*
X01023Y00904*
X01022Y00904*
X01017Y00902*
X01011Y009*
X0101Y009*
X01009Y00899*
X01004Y00896*
X00999Y00894*
X00975Y00878*
X0094Y00854*
X0094*
X00938Y00853*
X00906Y00831*
X00892Y00822*
X00892*
X0088Y00813*
X00876Y00817*
X00914Y00865*
X01033Y00984*
X01042Y00994*
X01048Y01006*
X01052Y0102*
X01053Y01033*
X01052Y01047*
X01048Y0106*
X01041Y01072*
X01033Y01082*
X01022Y01091*
X0101Y01097*
X00997Y01101*
X00984Y01102*
G37*
G36*
X02202Y00915D02*
X01647D01*
X01647Y00915*
X01647Y00915*
X0164Y00915*
X01633Y00914*
X01633Y00914*
X01633*
X01627Y00912*
X0162Y0091*
X0162Y0091*
X0162Y0091*
X01614Y00907*
X01608Y00904*
X01608Y00904*
X01608Y00904*
X01603Y00899*
X01598Y00895*
X01598Y00895*
Y00895*
X01528Y00826*
X01517Y00814*
X01484Y00781*
X01475Y0077*
X01469Y00759*
X01466Y00759*
X01465Y00759*
X01464Y00759*
X01457Y00771*
X01449Y00782*
X01438Y0079*
X01426Y00797*
X01413Y00801*
X014Y00802*
X01333*
X01319Y00801*
X01306Y00797*
X01294Y0079*
X01284Y00782*
X01275Y00771*
X01269Y00759*
X01265Y00746*
X01263Y00733*
X01265Y00719*
X01269Y00706*
X01275Y00694*
X01284Y00684*
X01319Y00649*
X01364Y00604*
X01413Y00555*
X01417Y00551*
X01421Y00547*
X01422Y00547*
X01423Y00546*
X01428Y00543*
X01433Y00541*
X01434Y0054*
X01435Y0054*
X0144Y00538*
X01446Y00536*
X01447Y00536*
X01448Y00536*
X01454Y00535*
X01459Y00534*
X0146Y00534*
X01462Y00534*
X01758*
X0176Y0053*
X01759Y00529*
X01757Y0052*
X01759Y0051*
X01765Y00501*
X01773Y00496*
X01783Y00494*
X01788*
X01793Y00489*
X01801Y00484*
X01811Y00482*
X01837*
Y00479*
X01891*
X01893Y00478*
X01942*
X01946Y00474*
X0195Y00472*
Y00434*
X02011*
Y00517*
X01978*
X01975Y00518*
X01975*
X01971Y00522*
X01963Y00527*
X01953Y00529*
X01942*
Y00534*
X02219*
X02225Y0053*
X02237Y00524*
X0225Y0052*
X02263Y00518*
X02277Y0052*
X0229Y00524*
X02302Y0053*
X02312Y00539*
X02321Y00549*
X02327Y00561*
X02331Y00574*
X02333Y00588*
X02331Y00601*
X02327Y00614*
X02321Y00626*
X02312Y00637*
X02296Y00653*
X02286Y00661*
X02274Y00668*
X02261Y00672*
X02247Y00673*
X01645*
X01643Y00678*
X01649Y00683*
X01657Y00693*
X01664Y00705*
X01665Y0071*
X01668Y00715*
X01674Y0073*
X01679Y00729*
X01679Y00725*
X01683Y00715*
X0169Y00707*
X01698Y007*
X01708Y00696*
X01718Y00695*
X01729Y00696*
X01739Y007*
X01747Y00707*
X01753Y00715*
X01757Y00725*
X01759Y00735*
X01757Y00746*
X01753Y00755*
X01747Y00764*
X01739Y0077*
X01735Y00772*
X01736Y00777*
X01801*
X01802Y00772*
X01798Y0077*
X0179Y00764*
X01783Y00755*
X01779Y00746*
X01778Y00735*
X01779Y00725*
X01783Y00715*
X0179Y00707*
X01798Y007*
X01808Y00696*
X01818Y00695*
X01829Y00696*
X01839Y007*
X01847Y00707*
X01853Y00715*
X01857Y00725*
X01859Y00735*
X01857Y00746*
X01853Y00755*
X01847Y00764*
X01839Y0077*
X01835Y00772*
X01836Y00777*
X02173*
X02214Y00735*
X02225Y00727*
X02237Y0072*
X0225Y00716*
X02263Y00715*
X02277Y00716*
X0229Y0072*
X02302Y00727*
X02312Y00735*
X02321Y00746*
X02327Y00758*
X02331Y00771*
X02333Y00784*
X02331Y00798*
X02327Y00811*
X02321Y00823*
X02312Y00834*
X02251Y00895*
X0224Y00904*
X02228Y0091*
X02215Y00914*
X02202Y00915*
G37*
G36*
X00098Y01111D02*
X00085Y0111D01*
X00072Y01106*
X0006Y011*
X00049Y01091*
X0004Y01081*
X00034Y01069*
X0003Y01056*
X00029Y01042*
X00028Y00845*
X00028Y00842*
X00029Y00829*
X00033Y00816*
X00039Y00804*
X00048Y00793*
X00059Y00785*
X00071Y00778*
X00084Y00774*
X00097Y00773*
X00111Y00774*
X00124Y00778*
X00136Y00785*
X00146Y00793*
X00146Y00793*
X00146Y00793*
X00155Y00804*
X00161Y00816*
X00165Y00829*
X00167Y00842*
X00167Y01042*
X00166Y01055*
X00162Y01068*
X00156Y0108*
X00147Y01091*
X00137Y011*
X00125Y01106*
X00112Y0111*
X00098Y01111*
G37*
G36*
X-01326Y00913D02*
X-01446D01*
X-01453Y00912*
X-01459Y00911*
X-0146Y00911*
X-0146Y00911*
X-01466Y00909*
X-01472Y00908*
X-01473Y00907*
X-01473Y00907*
X-01479Y00904*
X-01484Y00901*
X-01581Y00838*
X-0164Y008*
X-0164Y008*
X-0164Y00799*
X-01645Y00795*
X-0165Y00791*
X-01651Y00791*
X-01651Y00791*
X-01655Y00786*
X-01659Y00781*
X-01659Y00781*
X-0166Y0078*
X-01663Y00775*
X-01666Y00769*
X-01666Y00769*
X-01666Y00768*
X-01667Y00765*
X-01672Y00764*
X-01674Y00768*
X-01677Y00773*
X-01677Y00774*
X-01678Y00774*
X-01682Y00779*
X-01686Y00784*
X-01686Y00784*
X-01686Y00784*
X-01691Y00789*
X-01696Y00793*
X-01697Y00793*
X-01697Y00793*
X-01703Y00796*
X-01708Y00799*
X-01709Y00799*
X-01709Y00799*
X-01715Y00801*
X-01721Y00803*
X-01722Y00803*
X-01722Y00803*
X-01728Y00804*
X-01735Y00804*
X-01802*
X-01815Y00803*
X-01828Y00799*
X-0184Y00793*
X-01851Y00784*
X-0186Y00773*
X-01866Y00762*
X-01869Y00762*
X-01871Y00762*
X-01877Y00774*
X-01886Y00785*
X-01896Y00793*
X-01908Y008*
X-01921Y00804*
X-01935Y00805*
X-02184*
X-02214Y00835*
X-02225Y00844*
X-02237Y0085*
X-0225Y00854*
X-02263Y00855*
X-02277Y00854*
X-0229Y0085*
X-02302Y00844*
X-02312Y00835*
X-02321Y00825*
X-02327Y00813*
X-02331Y008*
X-02333Y00786*
X-02331Y00773*
X-02327Y0076*
X-02321Y00748*
X-02312Y00737*
X-02264Y00689*
X-02253Y0068*
X-02241Y00674*
X-02241Y00674*
X-02238Y00672*
X-02225Y00668*
X-02211Y00666*
X-01935*
X-01921Y00668*
X-01908Y00672*
X-01896Y00678*
X-01886Y00687*
X-01877Y00697*
X-01877Y00698*
X-01872Y00696*
X-01883Y00659*
X-02263*
X-02277Y00657*
X-0229Y00653*
X-02302Y00647*
X-02312Y00638*
X-02321Y00628*
X-02327Y00616*
X-02331Y00603*
X-02333Y00589*
X-02331Y00576*
X-02327Y00563*
X-02321Y00551*
X-02312Y0054*
X-02302Y00532*
X-0229Y00525*
X-02277Y00521*
X-02263Y0052*
X-01831*
X-0183Y0052*
X-0183Y0052*
X-01826Y0052*
X-01823Y0052*
X-0182Y00521*
X-01817Y00521*
X-01817Y00521*
X-01816Y00521*
X-01813Y00522*
X-01809Y00523*
X-01807Y00524*
X-01804Y00525*
X-01804Y00525*
X-01803Y00525*
X-018Y00527*
X-01797Y00529*
X-01794Y0053*
X-01792Y00532*
X-01792Y00532*
X-01791Y00532*
X-01789Y00534*
X-01786Y00536*
X-01784Y00538*
X-01781Y0054*
X-01781Y0054*
X-01781Y00541*
X-01779Y00543*
X-01776Y00546*
X-01775Y00548*
X-01773Y00551*
X-01773Y00551*
X-01772Y00551*
X-017Y00661*
X-01677Y00697*
X-01674Y00703*
X-01671Y00708*
X-01671Y00709*
X-01671Y00709*
X-0167Y00712*
X-01664Y00712*
X-01663Y0071*
X-0166Y00704*
X-0166Y00704*
X-0166Y00703*
X-01655Y00698*
X-01651Y00693*
X-01651Y00693*
X-01651Y00693*
X-01646Y00689*
X-01641Y00684*
X-01641Y00684*
X-0164Y00684*
X-01635Y00681*
X-01629Y00678*
X-01629Y00678*
X-01628Y00678*
X-01622Y00676*
X-01616Y00674*
X-01616Y00674*
X-01615Y00674*
X-01609Y00673*
X-01603Y00672*
X-01602Y00672*
X-01602Y00672*
X-01535*
X-01534Y00672*
X-01533Y00672*
X-01527Y00673*
X-01521Y00674*
X-01521Y00674*
X-0152Y00674*
X-01514Y00676*
X-01508Y00678*
X-01508Y00678*
X-01507Y00678*
X-01502Y00681*
X-01496Y00684*
X-01496Y00685*
X-01495Y00685*
X-01491Y00689*
X-01486Y00693*
X-01485Y00693*
X-01485Y00694*
X-01481Y00699*
X-01477Y00703*
X-01477Y00704*
X-01476Y00704*
X-01444Y00756*
X-01439Y00765*
X-01426Y00774*
X-01337*
X-01325Y00773*
X-01312Y00774*
X-01299Y00778*
X-01287Y00784*
X-01276Y00793*
X-01268Y00803*
X-01261Y00815*
X-01257Y00828*
X-01256Y00842*
X-01257Y00856*
X-01261Y00869*
X-01268Y00881*
X-01276Y00891*
X-01277Y00892*
X-01288Y00901*
X-013Y00907*
X-01313Y00911*
X-01326Y00913*
G37*
G36*
X-00452Y01023D02*
X-00531D01*
Y00944*
X-00517*
Y00874*
X-00515Y00864*
X-0051Y00855*
X-00486Y00832*
X-00478Y00826*
X-00468Y00824*
X-0042*
X-00409Y00814*
Y00575*
X-00411Y00572*
X-00428*
X-00429Y00573*
X-00436Y00576*
X-00443Y00577*
X-00451Y00576*
X-00458Y00573*
X-00459Y00572*
X-00481*
X-00487Y00578*
Y0061*
X-00567*
Y00601*
X-00859*
X-00868Y00599*
X-00877Y00594*
X-009Y0057*
X-00906Y00562*
X-00908Y00552*
Y00547*
X-00927*
Y00535*
X-01053*
X-01062Y00533*
X-01071Y00527*
X-01171Y00427*
X-0226*
X-0227Y00425*
X-02279Y00419*
X-02573Y00125*
X-02578Y00117*
X-0258Y00107*
Y-0044*
X-02578Y-0045*
X-02573Y-00458*
X-02425Y-00606*
X-02417Y-00612*
X-02407Y-00614*
X-02407Y-00619*
X-02414Y-0062*
X-02422Y-00625*
X-02422Y-00626*
X-02428Y-00634*
X-0243Y-00644*
Y-00667*
X-02443*
Y-00738*
Y-00743*
Y-00745*
Y-00817*
X-02366*
Y-00794*
X-02331*
X-02321Y-00792*
X-02313Y-00787*
X-02293Y-00767*
X-02254*
X-02252Y-00769*
X-02243Y-00772*
X-02234Y-00774*
X-02224Y-00772*
X-02216Y-00769*
X-0221Y-00764*
X-01991*
X-01981Y-00762*
X-01973Y-00757*
X-01909Y-00693*
X-01904Y-00685*
X-01902Y-00675*
Y-00607*
X-0188*
Y-00545*
X-01833*
X-01787Y-00591*
Y-01062*
X-01785Y-01072*
X-01779Y-01081*
X-01771Y-01086*
X-01761Y-01088*
X-01752Y-01086*
X-01743Y-01081*
X-01738Y-01072*
X-01736Y-01062*
Y-0058*
X-01738Y-0057*
X-01743Y-00562*
X-01804Y-00501*
X-01813Y-00496*
X-01822Y-00494*
X-0188*
Y-00486*
X-01826*
X-01817Y-00484*
X-01808Y-00478*
X-01803Y-0047*
X-01801Y-0046*
X-01803Y-0045*
X-01808Y-00442*
X-01817Y-00437*
X-01826Y-00435*
X-0188*
Y-00421*
X-01975*
Y-00435*
X-01999*
Y-00422*
X-02094*
Y-00494*
X-02375*
X-02486Y-00383*
Y-00338*
X-02481Y-00337*
X-02476Y-00342*
X-02469Y-00348*
X-02461Y-00351*
X-02452Y-00352*
X-02443Y-00351*
X-02435Y-00348*
X-02428Y-00342*
X-02426Y-0034*
X-0242*
X-02417Y-00342*
X-0241Y-00348*
X-02402Y-00351*
X-02393Y-00352*
X-02384Y-00351*
X-02376Y-00348*
X-02369Y-00342*
X-02367Y-0034*
X-02361*
X-02358Y-00342*
X-02351Y-00348*
X-02343Y-00351*
X-02334Y-00352*
X-02325Y-00351*
X-02317Y-00348*
X-0231Y-00342*
X-02308Y-0034*
X-02301*
X-02299Y-00342*
X-02292Y-00348*
X-02284Y-00351*
X-02275Y-00352*
X-02266Y-00351*
X-02258Y-00348*
X-02251Y-00342*
X-02249Y-0034*
X-02242*
X-0224Y-00342*
X-02233Y-00348*
X-02225Y-00351*
X-02216Y-00352*
X-02207Y-00351*
X-02199Y-00348*
X-02192Y-00342*
X-02187Y-00335*
X-02183Y-00327*
X-02182Y-00318*
X-02183Y-0031*
X-02187Y-00301*
X-02192Y-00294*
X-02193Y-00293*
X-02191Y-00288*
X-02014*
X-02008Y-00287*
X-02003Y-00284*
X-01958Y-00239*
X-01955Y-00234*
X-01954Y-00228*
Y-00062*
X-01842Y00049*
X-00921*
X-00915Y0005*
X-0091Y00054*
X-00886Y00078*
X-00881*
X-0088Y00073*
X-00884Y00069*
X-0089Y00061*
X-00892Y00052*
X-0089Y00042*
X-00886Y00036*
X-00888Y00031*
X-01835*
X-01845Y00029*
X-01853Y00023*
X-01934Y-00057*
X-0194Y-00065*
X-01942Y-00075*
Y-0033*
X-01945Y-00332*
X-01951Y-0034*
X-01955Y-0035*
X-01956Y-00361*
X-01955Y-00371*
X-01951Y-00381*
X-01945Y-00389*
X-01936Y-00396*
X-01927Y-004*
X-01916Y-00401*
X-01906Y-004*
X-01896Y-00396*
X-01888Y-00389*
X-01881Y-00381*
X-01877Y-00371*
X-01876Y-00361*
X-01877Y-0035*
X-01881Y-0034*
X-01888Y-00332*
X-01891Y-0033*
Y-00085*
X-01825Y-00019*
X-01598*
X-01596Y-00024*
X-01834Y-00262*
X-0184Y-0027*
X-01842Y-0028*
Y-0033*
X-01845Y-00332*
X-01851Y-0034*
X-01855Y-0035*
X-01856Y-00361*
X-01855Y-00371*
X-01851Y-00381*
X-01845Y-00389*
X-01836Y-00396*
X-01827Y-004*
X-01816Y-00401*
X-01806Y-004*
X-01796Y-00396*
X-01788Y-00389*
X-01781Y-00381*
X-01777Y-00371*
X-01776Y-00361*
X-01777Y-0035*
X-01781Y-0034*
X-01788Y-00332*
X-01791Y-0033*
Y-0029*
X-01559Y-00059*
X-01486*
X-01484Y-00064*
X-01627Y-00207*
X-0163Y-00212*
X-01631Y-00218*
Y-00324*
X-01636Y-00326*
X-01645Y-00332*
X-01651Y-0034*
X-01655Y-0035*
X-01656Y-00361*
X-01655Y-00371*
X-01651Y-00381*
X-01645Y-00389*
X-01636Y-00396*
X-01627Y-004*
X-01616Y-00401*
X-01606Y-004*
X-01596Y-00396*
X-01588Y-00389*
X-01581Y-00381*
X-01577Y-00371*
X-01576Y-00361*
X-01577Y-0035*
X-01581Y-0034*
X-01588Y-00332*
X-01596Y-00326*
X-01601Y-00324*
Y-00224*
X-01456Y-00079*
X-01263*
X-01261Y-00084*
X-01501Y-00324*
X-01506Y-00322*
X-01516Y-0032*
X-01527Y-00322*
X-01536Y-00326*
X-01545Y-00332*
X-01551Y-0034*
X-01555Y-0035*
X-01556Y-00361*
X-01555Y-00371*
X-01551Y-00381*
X-01545Y-00389*
X-01536Y-00396*
X-01527Y-004*
X-01516Y-00401*
X-01506Y-004*
X-01496Y-00396*
X-01488Y-00389*
X-01481Y-00381*
X-01477Y-00371*
X-01476Y-00361*
X-01477Y-0035*
X-01479Y-00345*
X-01233Y-00099*
X-01118*
X-01116Y-00104*
X-01276Y-00264*
X-01282Y-00272*
X-01284Y-00282*
Y-0033*
X-01289Y-00331*
X-01296Y-00326*
X-01306Y-00322*
X-01316Y-0032*
X-01327Y-00322*
X-01336Y-00326*
X-01345Y-00332*
X-01351Y-0034*
X-01355Y-0035*
X-01356Y-00361*
X-01355Y-00371*
X-01351Y-00381*
X-01345Y-00389*
X-01337Y-00395*
X-01337Y-00398*
X-01338Y-004*
X-01369*
X-01378Y-00402*
X-01387Y-00408*
X-01407Y-00428*
X-01413Y-00436*
X-01415Y-00446*
Y-00504*
X-01417Y-00507*
X-01639*
Y-00506*
X-01641Y-00496*
X-01646Y-00488*
X-01654Y-00482*
X-01664Y-0048*
X-01674Y-00482*
X-01682Y-00488*
X-01688Y-00496*
X-0169Y-00506*
Y-00679*
X-01702*
Y-00754*
X-01623*
Y-00679*
X-01639*
Y-00558*
X-01407*
X-01397Y-00556*
X-01389Y-0055*
X-01371Y-00533*
X-01366Y-00524*
X-01364Y-00515*
Y-00457*
X-01358Y-00451*
X-01336*
Y-0047*
X-01336Y-00473*
Y-00514*
X-014Y-00577*
X-01437*
X-01446Y-00579*
X-01455Y-00585*
X-0146Y-00593*
X-01462Y-00603*
X-0146Y-00613*
X-01455Y-00621*
X-01446Y-00626*
X-01437Y-00628*
X-0139*
X-0138Y-00626*
X-01372Y-00621*
X-01293Y-00542*
X-01287Y-00534*
X-01285Y-00524*
Y-00498*
X-01277*
Y-00441*
X-01274Y-00437*
X-0124Y-00403*
X-01235Y-00394*
X-01233Y-00385*
Y-00292*
X-01079Y-00139*
X-01002*
X-01Y-00144*
X-01089Y-00233*
X-01094Y-00241*
X-01096Y-00251*
Y-00331*
X-01099Y-00334*
X-01106Y-00342*
X-0111Y-00352*
X-01111Y-00362*
X-0111Y-00373*
X-01106Y-00382*
X-01099Y-00391*
X-01091Y-00397*
X-01081Y-00401*
X-01071Y-00402*
X-0106Y-00401*
X-01051Y-00397*
X-01042Y-00391*
X-01036Y-00382*
X-01032Y-00373*
X-0103Y-00362*
X-01032Y-00352*
X-01036Y-00342*
X-01042Y-00334*
X-01045Y-00331*
Y-00261*
X-00963Y-00179*
X-0083*
X-00828Y-00184*
X-00967Y-00322*
X-00971Y-00322*
X-00981Y-00323*
X-00991Y-00327*
X-00999Y-00334*
X-01006Y-00342*
X-0101Y-00352*
X-01011Y-00362*
X-0101Y-00373*
X-01006Y-00382*
X-00999Y-00391*
X-00991Y-00397*
X-00981Y-00401*
X-00971Y-00402*
X-0096Y-00401*
X-00951Y-00397*
X-00942Y-00391*
X-00936Y-00382*
X-00932Y-00373*
X-0093Y-00362*
X-00931Y-00358*
X-00904Y-00331*
X-009Y-00334*
X-00902Y-00337*
X-00906Y-00342*
X-0091Y-00352*
X-00911Y-00362*
X-0091Y-00373*
X-00906Y-00382*
X-00899Y-00391*
X-00891Y-00397*
X-00881Y-00401*
X-00871Y-00402*
X-0086Y-00401*
X-00851Y-00397*
X-00842Y-00391*
X-00836Y-00382*
X-00832Y-00373*
X-0083Y-00362*
X-00832Y-00352*
X-00836Y-00342*
X-00842Y-00334*
X-00851Y-00327*
X-0086Y-00323*
X-00871Y-00322*
X-00881Y-00323*
X-00891Y-00327*
X-00896Y-00331*
X-00898Y-00333*
X-00902Y-00329*
X-00792Y-00219*
X-00353*
X-00351Y-00224*
X-00417Y-0029*
X-00614*
X-0062Y-00291*
X-00625Y-00294*
X-00655Y-00325*
X-0066Y-00323*
X-00671Y-00322*
X-00681Y-00323*
X-00691Y-00327*
X-00699Y-00334*
X-00706Y-00342*
X-0071Y-00352*
X-00711Y-00362*
X-0071Y-00373*
X-00706Y-00382*
X-00699Y-00391*
X-00691Y-00397*
X-00681Y-00401*
X-00671Y-00402*
X-0066Y-00401*
X-00651Y-00397*
X-00642Y-00391*
X-00636Y-00382*
X-00632Y-00373*
X-0063Y-00362*
X-00632Y-00352*
X-00634Y-00347*
X-00607Y-0032*
X-00588*
X-00587Y-00325*
X-00591Y-00327*
X-00599Y-00334*
X-00606Y-00342*
X-0061Y-00352*
X-00611Y-00362*
X-0061Y-00373*
X-00606Y-00382*
X-00599Y-00391*
X-00591Y-00397*
X-00581Y-00401*
X-00571Y-00402*
X-0056Y-00401*
X-00558Y-004*
X-00556Y-00405*
X-0056Y-00409*
X-00733*
X-00745Y-00398*
X-00745Y-00393*
X-00742Y-00391*
X-00736Y-00382*
X-00732Y-00373*
X-0073Y-00362*
X-00732Y-00352*
X-00736Y-00342*
X-00742Y-00334*
X-00751Y-00327*
X-0076Y-00323*
X-00771Y-00322*
X-00781Y-00323*
X-00791Y-00327*
X-00799Y-00334*
X-00806Y-00342*
X-0081Y-00352*
X-00811Y-00362*
X-0081Y-00373*
X-00806Y-00382*
X-00799Y-00391*
X-00791Y-00397*
X-00781Y-00401*
X-0078Y-00401*
X-00779Y-00406*
X-00775Y-00411*
X-0075Y-00436*
X-00746Y-00439*
X-0074Y-0044*
X-00557*
X-00554Y-0044*
X-00552Y-00445*
X-00551Y-0045*
X-00545Y-00458*
Y-00461*
X-00546Y-00462*
X-00552Y-0047*
X-00554Y-0048*
X-00552Y-0049*
X-00546Y-00498*
X-00545Y-00499*
X-00547Y-00504*
X-00612*
X-00654Y-00461*
X-00659Y-00458*
X-00665Y-00457*
X-00828*
Y-00424*
X-00902*
Y-00519*
X-00918*
X-0094Y-00498*
Y-00424*
X-01014*
Y-0052*
X-00961*
X-00938Y-00542*
X-00941Y-00547*
X-01*
X-01021Y-00526*
X-01026Y-00523*
X-01032Y-00522*
X-01208*
X-01214Y-00523*
X-01219Y-00526*
X-01484Y-00791*
X-01487Y-00796*
X-01488Y-00802*
Y-0085*
X-01505*
Y-00866*
X-01548*
Y-00945*
X-01497*
Y-00929*
X-01462*
Y-00945*
X-01419*
Y-00953*
X-01418*
Y-01009*
X-01416Y-01019*
X-01411Y-01027*
X-01385Y-01053*
X-01377Y-01058*
X-01367Y-0106*
X-01362*
X-01352Y-01058*
X-01344Y-01053*
X-01338Y-01045*
X-01336Y-01035*
X-01338Y-01025*
X-01344Y-01017*
X-01352Y-01011*
X-01355Y-01011*
X-01367Y-00999*
Y-00953*
X-01367*
Y-00945*
X-01324*
Y-00866*
X-01334*
Y-0084*
X-01323Y-00829*
X-0132Y-00824*
X-01319Y-00819*
Y-00812*
X-01313Y-00808*
X-01308Y-00802*
X-01305Y-00795*
X-01304Y-00787*
X-01305Y-00779*
X-01308Y-00772*
X-01312Y-00767*
X-0131Y-00762*
X-01205*
X-01199Y-00761*
X-01194Y-00758*
X-01174Y-00738*
X-01171Y-00733*
X-0117Y-00727*
Y-0069*
X-01161Y-0068*
X-01142*
X-01139Y-00685*
X-0114Y-00691*
X-01139Y-00698*
X-01135Y-00703*
X-01129Y-00707*
X-01122Y-00709*
X-01072*
X-01069Y-00708*
X-01065Y-00712*
Y-0073*
X-01085Y-00751*
X-01089Y-00756*
X-01089Y-00756*
X-01091Y-00758*
X-01094Y-00763*
X-01095Y-00769*
Y-00868*
X-01094Y-00873*
X-01091Y-00878*
X-01079Y-00889*
X-01075Y-00893*
Y-00938*
X-01079Y-0094*
X-01169Y-0085*
X-01174Y-00847*
X-0118Y-00846*
X-01248*
X-01254Y-00847*
X-01259Y-0085*
X-01274Y-00865*
X-01274Y-00866*
X-01289*
Y-00945*
X-01194*
Y-00876*
X-01186*
X-01075Y-00988*
Y-01061*
X-01001*
Y-01005*
X-00996Y-01004*
X-00996Y-01004*
X-00993Y-01009*
X-00981Y-0102*
X-00976Y-01024*
X-0097Y-01025*
X-00963*
Y-01061*
X-00889*
Y-00966*
X-00963*
X-00963Y-00966*
Y-00959*
X-00963Y-00959*
X-00961*
X-00889*
Y-00899*
X-00607*
X-00605Y-00903*
X-00605Y-00904*
X-00607Y-00914*
Y-00927*
X-00614*
Y-00992*
X-00549*
Y-00927*
X-00556*
Y-00914*
X-00558Y-00904*
X-00558Y-00903*
X-00556Y-00899*
X-00532*
X-00529Y-00904*
X-00521Y-0091*
X-00511Y-00912*
X-00501Y-0091*
X-00493Y-00904*
X-00488Y-00896*
X-00486Y-00886*
X-00488Y-00877*
X-00492Y-0087*
X-0049Y-00868*
X-00485Y-0086*
X-00483Y-00851*
X-00485Y-00841*
X-00489Y-00835*
X-00486Y-0083*
X-0047*
X-00461Y-00828*
X-00452Y-00823*
X-00442Y-00813*
X-00442*
X-00441Y-00813*
X-00439Y-00813*
X-00403*
Y-00776*
X-00403Y-00775*
X-00403Y-00774*
Y-00738*
X-00439*
X-00441Y-00737*
X-00442Y-00738*
X-00478*
Y-00774*
X-00478Y-00775*
X-00478Y-00775*
X-00482Y-00779*
X-00549*
Y-00767*
X-00614*
Y-00779*
X-0062*
Y-00768*
X-00715*
Y-00779*
X-00728*
Y-00768*
X-00824*
Y-0083*
X-00889*
Y-00765*
X-00961*
X-00963*
X-00966Y-00762*
Y-00681*
X-00907*
X-00906Y-00682*
X-009Y-00683*
X-00849*
X-00843Y-00682*
X-00837Y-00678*
X-00833Y-00672*
X-00832Y-00665*
X-00832Y-00663*
X-00829Y-00657*
X-00828Y-00657*
X-00824Y-00661*
Y-007*
X-00826*
X-00831Y-00701*
X-00832Y-00701*
X-00841*
X-00843Y-007*
X-00849Y-00698*
X-009*
X-00906Y-007*
X-00912Y-00704*
X-00916Y-00709*
X-00917Y-00716*
X-00916Y-00723*
X-00912Y-00729*
X-00906Y-00733*
X-009Y-00734*
X-00849*
X-00843Y-00733*
X-00841Y-00732*
X-00827*
X-00821Y-0073*
X-00821Y-0073*
X-00798*
X-00796Y-0073*
X-00728*
Y-00656*
X-0075*
Y-0064*
X-00749Y-00632*
X-00751Y-00622*
X-00756Y-00614*
X-00758Y-00613*
X-00756Y-00608*
X-00691*
X-00688Y-00613*
X-00692Y-00618*
X-00693Y-00628*
X-00693Y-00631*
Y-00656*
X-00715*
Y-0073*
X-0062*
Y-00656*
X-00642*
Y-00628*
X-00644Y-00619*
X-00648Y-00613*
X-00645Y-00608*
X-00529*
X-00517Y-00619*
X-00512Y-00622*
X-00507Y-00623*
X-00357*
Y-00741*
X-00361Y-00742*
X-00369Y-00748*
X-00375Y-00756*
X-00379Y-00765*
X-0038Y-00775*
X-00379Y-00785*
X-00375Y-00794*
X-00369Y-00802*
X-00367Y-00804*
Y-01005*
X-00367Y-01005*
X-00373Y-01013*
X-00377Y-01022*
X-00378Y-01032*
X-00377Y-01042*
X-00373Y-01051*
X-00367Y-01059*
X-00359Y-01065*
X-0035Y-01069*
X-0034Y-0107*
X-0033Y-01069*
X-00321Y-01065*
X-00313Y-01059*
X-00307Y-01051*
X-00304Y-01042*
X-00302Y-01032*
X-00304Y-01022*
X-00307Y-01013*
X-00313Y-01005*
X-00316Y-01003*
Y-00802*
X-00315Y-00802*
X-00309Y-00794*
X-00306Y-00785*
X-00304Y-00775*
X-00306Y-00765*
X-00309Y-00756*
X-00315Y-00748*
X-00323Y-00742*
X-00327Y-00741*
Y-00623*
X-00312*
X-00306Y-00622*
X-00301Y-00619*
X-00201Y-00519*
X00025*
X00031Y-00518*
X00036Y-00514*
X00195Y-00355*
X00196Y-00355*
X00197Y-00361*
X00036Y-00522*
X00032Y-00527*
X00031Y-00533*
Y-00572*
X00011Y-00592*
X00007Y-0059*
Y-00565*
X00007Y-00564*
X00007Y-00563*
Y-00532*
X-00024*
X-00025Y-00532*
X-00026Y-00532*
X-00057*
Y-00537*
X-00062Y-0054*
X-00067Y-00536*
X-00075Y-00533*
X-00084Y-00531*
X-00092Y-00533*
X-001Y-00536*
X-00107Y-00541*
X-0011Y-00545*
X-00116*
X-0012Y-00541*
X-00126Y-00536*
X-00134Y-00533*
X-00143Y-00531*
X-00151Y-00533*
X-00159Y-00536*
X-00166Y-00541*
X-00171Y-00548*
X-00175Y-00556*
X-00176Y-00564*
X-00175Y-00573*
X-00171Y-00581*
X-00166Y-00588*
X-00159Y-00593*
X-00151Y-00596*
X-00143Y-00597*
X-00134Y-00596*
X-00126Y-00593*
X-0012Y-00588*
X-00116Y-00583*
X-0011*
X-00107Y-00588*
X-001Y-00593*
X-00092Y-00596*
X-00084Y-00597*
X-00075Y-00596*
X-00067Y-00593*
X-00062Y-00589*
X-00057Y-00591*
Y-00597*
X-00026*
X-00025Y-00597*
X-00024Y-00597*
X0*
X00002Y-00602*
X-00035Y-00639*
X-00123*
X-00129Y-0064*
X-00134Y-00643*
X-0023Y-0074*
X-00234Y-00739*
X-00244Y-00737*
X-00254Y-00739*
X-00263Y-00742*
X-00271Y-00748*
X-00277Y-00756*
X-0028Y-00765*
X-00282Y-00775*
X-0028Y-00785*
X-00277Y-00794*
X-00271Y-00802*
X-00267Y-00804*
Y-01004*
X-00269Y-01005*
X-00275Y-01013*
X-00278Y-01022*
X-0028Y-01032*
X-00278Y-01042*
X-00275Y-01051*
X-00269Y-01059*
X-00261Y-01065*
X-00252Y-01069*
X-00242Y-0107*
X-00232Y-01069*
X-00223Y-01065*
X-00215Y-01059*
X-00209Y-01051*
X-00205Y-01042*
X-00204Y-01032*
X-00205Y-01022*
X-00209Y-01013*
X-00215Y-01005*
X-00216Y-01004*
Y-00801*
X-00211Y-00794*
X-00207Y-00785*
X-00206Y-00775*
X-00207Y-00765*
X-00209Y-00762*
X-00117Y-00669*
X-00028*
X-00022Y-00668*
X-00017Y-00665*
X00057Y-00589*
X00061Y-00584*
X00062Y-00579*
Y-0054*
X00099Y-00503*
X00103Y-00505*
Y-00553*
X-00026Y-00683*
X-00069*
X-00074Y-00684*
X-00079Y-00688*
X-00132Y-0074*
X-00136Y-00739*
X-00145Y-00737*
X-00155Y-00739*
X-00164Y-00742*
X-00172Y-00748*
X-00178Y-00756*
X-00182Y-00765*
X-00183Y-00775*
X-00182Y-00785*
X-00178Y-00794*
X-00172Y-00802*
X-00171Y-00803*
Y-01006*
X-00176Y-01013*
X-0018Y-01022*
X-00181Y-01032*
X-0018Y-01042*
X-00176Y-01051*
X-0017Y-01059*
X-00162Y-01065*
X-00153Y-01069*
X-00143Y-0107*
X-00134Y-01069*
X-00124Y-01065*
X-00117Y-01059*
X-00111Y-01051*
X-00107Y-01042*
X-00106Y-01032*
X-00107Y-01022*
X-00111Y-01013*
X-00117Y-01005*
X-0012Y-01003*
Y-00803*
X-00119Y-00802*
X-00113Y-00794*
X-00109Y-00785*
X-00107Y-00775*
X-00109Y-00765*
X-0011Y-00762*
X-00062Y-00714*
X-0002*
X-00014Y-00712*
X-00009Y-00709*
X00033Y-00667*
X00037Y-00669*
X00035Y-00678*
X00037Y-00688*
X00043Y-00696*
X00051Y-00701*
X0006Y-00703*
X0007Y-00701*
X00078Y-00696*
X00084Y-00688*
X00085Y-00678*
X00085Y-00676*
X00089Y-00672*
X00105*
X00107Y-00677*
X00089Y-00695*
X00083Y-00703*
X00081Y-00713*
Y-00912*
X00083Y-00922*
X00089Y-0093*
X00116Y-00957*
Y-00993*
X00118Y-01003*
X00123Y-01011*
X00131Y-01017*
X00141Y-01019*
X00151Y-01017*
X00159Y-01011*
X00165Y-01003*
X00167Y-00993*
Y-00946*
X00165Y-00936*
X00159Y-00928*
X00132Y-00901*
Y-00877*
X00137Y-00874*
X00137Y-00874*
X00147Y-00876*
X00153Y-00875*
X00183*
Y-00875*
X0021*
X00212Y-00876*
X00215Y-00875*
X00253*
Y-00825*
X00292*
X00316Y-00849*
X00317Y-0085*
X0032Y-00858*
X00325Y-00865*
X00332Y-00871*
X0034Y-00874*
X00349Y-00875*
X00358Y-00874*
X00366Y-00871*
X00373Y-00865*
X00379Y-00858*
X00382Y-0085*
X00383Y-00841*
X00382Y-00832*
X00379Y-00824*
X00373Y-00817*
X00366Y-00812*
X00358Y-00809*
X00349Y-00807*
X00347Y-00808*
X0032Y-00781*
X00312Y-00776*
X00302Y-00774*
X00253*
Y-00764*
X00256Y-0076*
X00258*
X00314*
Y-0069*
X00311*
Y-00684*
X00322*
Y-00613*
X00358*
X0036Y-00613*
X00361Y-00613*
X00397*
Y-00577*
X00397Y-00576*
X00397Y-00574*
Y-00541*
X00407Y-00539*
X00415Y-00533*
X00421Y-00525*
X00423Y-00515*
X00421Y-00505*
X00415Y-00497*
X00407Y-00489*
X00409Y-00484*
X00414Y-00483*
X00422Y-00477*
X00424Y-00475*
X00516*
X00518Y-00479*
X0046Y-00538*
X00458Y-00538*
X00448Y-00539*
X00439Y-00543*
X00431Y-00549*
X00425Y-00557*
X00422Y-00566*
X0042Y-00576*
X00422Y-00585*
X00425Y-00594*
X00431Y-00602*
X00432Y-00602*
Y-0068*
X0041Y-00702*
X00404Y-0071*
X00403Y-0072*
Y-00819*
X00399Y-00824*
X00395Y-00832*
X00394Y-00841*
X00395Y-0085*
X00399Y-00858*
X00403Y-00863*
Y-01016*
X00399Y-01021*
X00395Y-01029*
X00394Y-01038*
X00395Y-01047*
X00399Y-01055*
X00404Y-01062*
X00411Y-01067*
X00419Y-01071*
X00428Y-01072*
X00437Y-01071*
X00445Y-01067*
X00452Y-01062*
X00457Y-01055*
X00461Y-01047*
X00462Y-01038*
X00461Y-01029*
X00457Y-01021*
X00454Y-01016*
Y-00863*
X00457Y-00858*
X00461Y-0085*
X00462Y-00841*
X00461Y-00832*
X00457Y-00824*
X00454Y-00819*
Y-0073*
X00475Y-00709*
X00481Y-00701*
X00482Y-00691*
Y-00604*
X00485Y-00602*
X00491Y-00594*
X00495Y-00585*
X00496Y-00576*
X00496Y-00574*
X00576Y-00493*
X0068*
X00682Y-00498*
X00677Y-00505*
X00675Y-00515*
X00677Y-00525*
X00682Y-00533*
X00691Y-00539*
X007Y-00541*
X00723*
Y-00576*
X00797*
Y-00493*
X00835*
Y-00576*
X00847*
Y-00587*
X00835*
Y-00682*
X00848*
Y-00691*
X00845Y-00694*
X00839*
X00838*
X00782*
Y-00702*
X00762*
X00753Y-00692*
X00752Y-00691*
X00746Y-00687*
X00747Y-00682*
X00797*
Y-00587*
X00723*
Y-00609*
X00703*
X00693Y-00611*
X00685Y-00617*
X00646Y-00655*
X00641Y-00664*
X00639Y-00673*
Y-00808*
X00631*
Y-0084*
X0063Y-00841*
X00631Y-00842*
Y-00875*
X00639*
Y-01005*
X00631*
Y-01037*
X0063Y-01038*
X00631Y-01039*
Y-01072*
X00663*
X00664Y-01072*
X00665Y-01072*
X00698*
Y-01039*
X00698Y-01038*
X00698Y-01037*
Y-01005*
X0069*
Y-00875*
X00698*
Y-00842*
X00698Y-00841*
X00698Y-0084*
Y-00808*
X0069*
Y-00684*
X00714Y-0066*
X00723*
Y-00681*
Y-00682*
X00722Y-00687*
X00716Y-00691*
X00711Y-007*
X00709Y-00709*
Y-0071*
X00711Y-00719*
X00716Y-00728*
X00734Y-00745*
X00742Y-00751*
X00752Y-00753*
X00782*
Y-00764*
X00838*
X00843*
X00844*
X009*
Y-00694*
X00899*
Y-00682*
X00909*
Y-00617*
X00911Y-00613*
X00947*
X00948Y-00613*
X0095Y-00613*
X00986*
Y-00577*
X00986Y-00576*
X00986Y-00574*
Y-00538*
X0097*
X0097Y-00536*
X00964Y-00528*
X00947Y-0051*
X00939Y-00505*
X00929Y-00503*
X00909*
Y-00493*
X01021*
Y-00548*
X0102Y-00549*
X01014Y-00557*
X0101Y-00566*
X01009Y-00576*
X0101Y-00585*
X01014Y-00594*
X0102Y-00602*
X01021Y-00603*
Y-00689*
X00997Y-00713*
X00992Y-00721*
X0099Y-00731*
Y-00822*
X00988Y-00824*
X00984Y-00832*
X00983Y-00841*
X00984Y-0085*
X00988Y-00858*
X00992Y-00863*
Y-00901*
X00987Y-00903*
X00982Y-009*
X00973Y-00898*
X00915*
X00907Y-0089*
X00898Y-00885*
X00889Y-00883*
X00879Y-00885*
X00871Y-0089*
X00865Y-00898*
X00863Y-00908*
X00865Y-00918*
X00871Y-00926*
X00886Y-00942*
X00895Y-00948*
X00904Y-00949*
X00973*
X00982Y-00948*
X00987Y-00945*
X00992Y-00947*
Y-01016*
X00988Y-01021*
X00984Y-01029*
X00983Y-01038*
X00984Y-01047*
X00988Y-01055*
X00993Y-01062*
X01Y-01067*
X01008Y-01071*
X01017Y-01072*
X01026Y-01071*
X01034Y-01067*
X01041Y-01062*
X01047Y-01055*
X0105Y-01047*
X01051Y-01038*
X0105Y-01029*
X01047Y-01021*
X01043Y-01016*
Y-00863*
X01047Y-00858*
X0105Y-0085*
X01051Y-00841*
X0105Y-00832*
X01047Y-00824*
X01041Y-00817*
X01041Y-00817*
Y-00742*
X01065Y-00718*
X0107Y-00709*
X01072Y-007*
Y-00603*
X01074Y-00602*
X0108Y-00594*
X01083Y-00585*
X01085Y-00576*
X01083Y-00566*
X0108Y-00557*
X01074Y-00549*
X01072Y-00548*
Y-00493*
X0126*
X01261Y-00498*
X01257Y-00501*
X01252Y-00509*
X0125Y-00519*
X01252Y-00529*
X01257Y-00537*
X01265Y-00543*
X01275Y-00545*
X01304*
Y-00576*
X01378*
Y-00493*
X01416*
Y-00576*
X01428*
Y-00587*
X01416*
Y-00682*
X01428*
X01429Y-00687*
X01426Y-0069*
X01424*
X01422*
X01394*
X01391Y-0069*
X01369*
X01367Y-00687*
X0137Y-00682*
X01378*
Y-00587*
X01304*
Y-00609*
X01282*
X01272Y-00611*
X01264Y-00617*
X01235Y-00645*
X0123Y-00653*
X01228Y-00663*
Y-00808*
X0122*
Y-0084*
X0122Y-00841*
X0122Y-00842*
Y-00875*
X01228*
Y-01005*
X0122*
Y-01037*
X0122Y-01038*
X0122Y-01039*
Y-01072*
X01252*
X01253Y-01072*
X01254Y-01072*
X01287*
Y-01039*
X01287Y-01038*
X01287Y-01037*
Y-01005*
X01279*
Y-00875*
X01287*
Y-00842*
X01287Y-00841*
X01287Y-0084*
Y-00808*
X01279*
Y-00673*
X01292Y-0066*
X01304*
Y-00682*
X01321*
X01323Y-00687*
X01321Y-0069*
X01319Y-00699*
Y-00703*
X01321Y-00712*
X01327Y-00721*
X0134Y-00733*
X01348Y-00739*
X01358Y-00741*
X01366*
Y-0076*
X01422*
X01427*
X01429*
X01485*
X01489Y-00763*
X0149Y-00763*
X015Y-00765*
X01509Y-00763*
X01518Y-00758*
X01565Y-0071*
X0157Y-00712*
Y-00822*
X01569Y-00824*
X01565Y-00832*
X01564Y-00841*
X01565Y-0085*
X01569Y-00858*
X01574Y-00865*
X01574Y-00865*
Y-01018*
X01572Y-01021*
X01568Y-01029*
X01567Y-01038*
X01568Y-01047*
X01572Y-01055*
X01577Y-01062*
X01584Y-01067*
X01592Y-01071*
X01601Y-01072*
X0161Y-01071*
X01618Y-01067*
X01625Y-01062*
X01631Y-01055*
X01634Y-01047*
X01635Y-01038*
X01634Y-01029*
X01631Y-01021*
X01625Y-01014*
X01625Y-01014*
Y-00861*
X01627Y-00858*
X01631Y-0085*
X01632Y-00841*
X01631Y-00832*
X01627Y-00824*
X01622Y-00817*
X01621Y-00817*
Y-0072*
X01645Y-00696*
X01651Y-00687*
X01653Y-00678*
Y-00603*
X01654Y-00602*
X0166Y-00594*
X01664Y-00585*
X01665Y-00576*
X01664Y-00566*
X0166Y-00557*
X01654Y-00549*
X01648Y-00544*
Y-00534*
X01646Y-00524*
X01641Y-00516*
X01617Y-00492*
X01617*
X01605Y-0048*
X01575Y-0045*
X01567Y-00444*
X01557Y-00442*
X01288*
X01286Y-00439*
X01286Y-00437*
X01287Y-00428*
X01285Y-00418*
X0128Y-0041*
X01278Y-00409*
Y-0016*
X01282Y-00158*
X01394Y-0027*
X01399Y-00273*
X01405Y-00275*
X0146*
Y-00299*
X01527*
Y-0022*
X0146*
Y-00244*
X01411*
X01332Y-00165*
X01334Y-0016*
X0146*
Y-00185*
X01527*
Y-00118*
X01533*
X01543Y-00127*
Y-00185*
X01561*
Y-0022*
X01543*
Y-00299*
X0161*
Y-0022*
X01592*
Y-00185*
X0161*
Y-0016*
X01673*
X01679Y-00159*
X01684Y-00156*
X01727Y-00113*
X0173Y-00108*
X01731Y-00102*
Y-00043*
X01734Y-00041*
X01736Y-00038*
X0186*
Y-00083*
X01862Y-00093*
X01867Y-00101*
X01913Y-00147*
X01921Y-00152*
X01931Y-00154*
X02104*
Y-00174*
X02112*
Y-00461*
X0206*
X02055*
X02054*
X01998*
Y-00531*
X02001*
Y-00552*
X01998Y-00559*
X01997Y-00566*
X01998Y-00574*
X02001Y-00581*
X02006Y-00587*
X02012Y-00592*
X02019Y-00595*
X02027Y-00596*
X02035Y-00595*
X02042Y-00592*
X02048Y-00587*
X02053Y-00581*
X02056Y-00574*
X02057Y-00566*
X02056Y-00559*
X02053Y-00552*
X02052Y-0055*
Y-00534*
X02056Y-00531*
X02059*
X0206*
X02112*
Y-00599*
Y-00709*
X02005Y-00816*
X01868*
Y-00808*
X01835*
X01834Y-00808*
X01833Y-00808*
X01801*
Y-0084*
X018Y-00841*
X01801Y-00842*
Y-00875*
X0181*
Y-01005*
X01804*
Y-01037*
X01804Y-01038*
X01804Y-01039*
Y-01072*
X01836*
X01837Y-01072*
X01838Y-01072*
X01871*
Y-01039*
X01871Y-01038*
X01871Y-01037*
Y-01005*
X01861*
Y-00875*
X01868*
Y-00867*
X02016*
X02026Y-00865*
X02034Y-00859*
X02154Y-00739*
X02159Y-00741*
X02159Y-00741*
X0216Y-00747*
X02164Y-00756*
X02169Y-00763*
X02177Y-00769*
X02185Y-00772*
X02195Y-00774*
X02204Y-00772*
X02213Y-00769*
X0222Y-00763*
X02226Y-00756*
X02229Y-00747*
X02231Y-00738*
X02258Y-0071*
X02328*
X02331Y-00714*
Y-00725*
Y-00727*
Y-00799*
X02345*
Y-00829*
X02343Y-00833*
X02342Y-00841*
X02343Y-00849*
X02346Y-00856*
X0235Y-00862*
X02357Y-00867*
X02364Y-0087*
X02372Y-00871*
X02379Y-0087*
X02386Y-00867*
X02393Y-00862*
X02397Y-00856*
X024Y-00849*
X02401Y-00841*
X024Y-00833*
X02397Y-00826*
X02396Y-00824*
Y-00799*
X02409*
Y-00727*
Y-00722*
Y-0072*
Y-00708*
X02444*
X02454Y-00706*
X02462Y-00701*
X02578Y-00584*
X02584Y-00576*
X02585Y-00566*
Y00103*
X02584Y00113*
X02578Y00121*
X02537Y00162*
Y00468*
X02542*
X02551Y0047*
X0256Y00476*
X02573Y00489*
X02578Y00488*
Y00423*
X02591*
Y00391*
X02593Y00381*
X02599Y00373*
X026Y00372*
X02608Y00366*
X02618Y00364*
X02628Y00366*
X02636Y00372*
X02641Y0038*
X02643Y0039*
X02642Y00396*
Y00423*
X02655*
Y00496*
Y005*
Y00501*
Y00573*
X02578*
Y0055*
X02572*
X02563Y00548*
X02554Y00543*
X02531Y00519*
X02471*
X02464Y00525*
X02455Y00529*
X02446Y0053*
X02437Y00529*
X02428Y00525*
X02421Y00519*
X02348*
X02339Y00518*
X0233Y00512*
X02311Y00493*
X02201*
X02199Y00495*
X0219Y005*
X02181Y00502*
X02171Y005*
X02163Y00495*
X02157Y00487*
X02155Y00477*
X02157Y00467*
X02163Y00459*
X02172Y00449*
X0218Y00444*
X0219Y00442*
X02322*
X02332Y00444*
X0234Y00449*
X02359Y00468*
X02421*
X02428Y00463*
X02437Y00459*
X02446Y00458*
X02455Y00459*
X02464Y00463*
X02471Y00468*
X02486*
Y00205*
X02481Y00205*
X02481Y00205*
X02475Y00213*
X02447Y00242*
X02438Y00247*
X02429Y00249*
X02419Y00247*
X02411Y00242*
X02405Y00234*
X02403Y00224*
X02405Y00214*
X02411Y00206*
X02439Y00177*
X02447Y00172*
X02457Y0017*
X02467Y00172*
X02475Y00177*
X02481Y00186*
X02481Y00186*
X02486Y00185*
Y00152*
X02488Y00142*
X02493Y00134*
X02534Y00093*
Y-0046*
X02525*
Y-00402*
X02523Y-00392*
X02518Y-00384*
X02507Y-00373*
Y-00371*
X02507Y-00369*
X02507Y-00368*
Y-0033*
X02468*
X02467Y-0033*
X02466Y-0033*
X02428*
Y-00346*
X02423Y-00349*
X02423Y-00349*
X02417Y-00341*
X02408Y-00335*
X02399Y-00331*
X02388Y-00329*
X02378Y-00331*
X02368Y-00335*
X0236Y-00341*
X02354Y-00349*
X02352Y-00354*
X02346*
X02344Y-00349*
X02338Y-00341*
X0233Y-00335*
X0232Y-00331*
X0231Y-00329*
X02299Y-00331*
X0229Y-00335*
X02281Y-00341*
X02275Y-00349*
X02271Y-00359*
X0227Y-00369*
X02271Y-0038*
X02275Y-00389*
X02281Y-00397*
X02284Y-004*
Y-00434*
X0228Y-0044*
X02278Y-0045*
Y-00465*
X02278Y-00465*
X0227Y-00471*
X02264Y-00479*
X0226Y-00489*
X02258Y-00499*
X0226Y-00509*
X02264Y-00519*
X0227Y-00527*
X02278Y-00534*
X02288Y-00538*
X02298Y-00539*
X02308Y-00538*
X02318Y-00534*
X02326Y-00527*
X02333Y-00519*
X02337Y-00509*
X02338Y-00499*
X02337Y-00489*
X02333Y-00479*
X02329Y-00475*
Y-00459*
X02333Y-00454*
X02335Y-00444*
Y-004*
X02338Y-00397*
X02344Y-00389*
X02346Y-00384*
X02352*
X02354Y-00389*
X0236Y-00397*
X02368Y-00404*
X02373Y-00406*
Y-00469*
X0237Y-00471*
X02364Y-00479*
X0236Y-00489*
X02358Y-00499*
X0236Y-00509*
X02364Y-00519*
X0237Y-00527*
X02378Y-00534*
X02388Y-00538*
X02398Y-00539*
X02408Y-00538*
X02418Y-00534*
X02426Y-00527*
X02433Y-00519*
X02437Y-00509*
X02438Y-00499*
X02437Y-00489*
X02433Y-00479*
X02426Y-00471*
X02424Y-00469*
Y-00411*
X02428Y-00409*
X02466*
X02467Y-00409*
X02468Y-00409*
X02471*
X02474Y-00412*
Y-0046*
X02459*
Y-00539*
X02473*
Y-00561*
X0246Y-00574*
X02163*
Y-00496*
Y-00174*
X02171*
Y-00094*
X02104*
Y-00103*
X01941*
X01911Y-00072*
Y-00017*
Y00082*
X01909Y00092*
X01903Y001*
X019Y00102*
X01902Y00107*
X01947*
X02068Y-00013*
X02073Y-00016*
X02079Y-00017*
X02109*
Y-00051*
X02169*
Y00024*
X02109*
Y00012*
X02085*
X01964Y00133*
X01959Y00137*
X01953Y00138*
X01604*
X01424Y00318*
X01419Y00322*
X01413Y00323*
X01234*
X01234Y00324*
X01232Y00328*
X01239Y00335*
X01435*
X01616Y00153*
X01621Y0015*
X01627Y00149*
X01998*
X02068Y00079*
X02073Y00076*
X02079Y00075*
X02109*
Y00041*
X02169*
Y00117*
X02109*
Y00105*
X02085*
X02015Y00175*
X0201Y00178*
X02005Y00179*
X01633*
X01452Y00361*
X01447Y00364*
X01441Y00365*
X01233*
X01227Y00364*
X01222Y00361*
X01195Y00334*
X0119Y00335*
Y00346*
X01222Y00378*
X01451*
X01632Y00196*
X01637Y00193*
X01643Y00192*
X02083*
X02091Y00184*
X02096Y00181*
X02102Y00179*
X02111*
Y00134*
X02171*
Y0021*
X02128*
X02126Y0021*
X02108*
X021Y00218*
X02095Y00221*
X02089Y00222*
X0165*
X01468Y00404*
X01463Y00407*
X01457Y00408*
X01216*
X0121Y00407*
X01205Y00404*
X01169Y00368*
X01165Y0037*
Y00386*
X01196Y00417*
X01486*
X01667Y00237*
X01672Y00233*
X01678Y00232*
X02111*
Y00229*
X02171*
Y00304*
X02111*
Y00263*
X01911*
X01908Y00267*
X01909Y00268*
X01911Y00278*
Y00298*
X01942*
Y00301*
X02001*
X0201Y00303*
X02019Y00308*
X02044Y00333*
X02096*
Y00317*
X02157*
Y004*
X02096*
Y00384*
X02033*
X02023Y00382*
X02015Y00377*
X0199Y00352*
X01942*
Y00355*
X01837*
Y00298*
X0186*
Y00278*
X01862Y00268*
X01862Y00267*
X0186Y00263*
X01684*
X01503Y00443*
X01498Y00447*
X01493Y00448*
X01189*
X01184Y00447*
X01179Y00443*
X01138Y00403*
X01135Y00398*
X01134Y00392*
Y00304*
X01129Y00301*
X01124Y00302*
X01116Y00301*
X01111Y00297*
X01105Y00301*
X01098Y00302*
X01093Y00301*
X01088Y00304*
Y0049*
X01087Y00496*
X01083Y00501*
X00981Y00603*
X00976Y00606*
X0097Y00607*
X00342*
X00336Y00606*
X00331Y00603*
X00241Y00512*
X00237Y00507*
X00236Y00501*
Y00176*
X00103Y00043*
X00098Y00044*
X00097Y00045*
X00092Y00053*
X00084Y00058*
X00074Y0006*
X00065Y00058*
X00057Y00053*
X00055Y0005*
X-00025*
X-00028Y00051*
X-0032*
X-00393Y00123*
Y00357*
X-00394Y00363*
X-00397Y00368*
X-00426Y00396*
X-00431Y00399*
X-00437Y00401*
X-00488*
X-00494Y00399*
X-00497Y00397*
X-00501Y00399*
X-00502Y004*
X-00502Y00401*
Y00459*
X-00487*
Y0047*
X-00459*
X-00458Y0047*
X-00451Y00467*
X-00443Y00466*
X-00436Y00467*
X-00429Y0047*
X-00422Y00475*
X-00418Y00481*
X-00415Y00488*
X-00414Y00496*
X-00415Y00503*
X-00418Y0051*
X-00422Y00516*
X-00422Y00518*
X-0042Y00521*
X-00401*
X-00391Y00523*
X-00383Y00529*
X-00365Y00546*
X-0036Y00555*
X-00358Y00564*
Y00824*
X-0036Y00834*
X-00365Y00842*
X-00391Y00868*
X-00399Y00873*
X-00409Y00875*
X-00457*
X-00466Y00884*
Y00944*
X-00452*
Y01023*
G37*
G36*
X02446Y00609D02*
X02437Y00607D01*
X02428Y00604*
X0242Y00598*
X02415Y00591*
X02411Y00582*
X0241Y00573*
X02411Y00563*
X02415Y00555*
X0242Y00547*
X02428Y00542*
X02437Y00538*
X02446Y00537*
X02455Y00538*
X02464Y00542*
X02471Y00547*
X02477Y00555*
X02481Y00563*
X02482Y00573*
X02481Y00582*
X02477Y00591*
X02471Y00598*
X02464Y00604*
X02455Y00607*
X02446Y00609*
G37*
G36*
X-02624Y00623D02*
X-02634Y00621D01*
X-02642Y00616*
X-02648Y00607*
X-0265Y00598*
X-02649Y00591*
Y00561*
X-02662*
Y0049*
Y00485*
Y00483*
Y00411*
X-02584*
Y00434*
X-02549*
X-0254Y00436*
X-02531Y00442*
X-02509Y00464*
X-02472*
X-0247Y00462*
X-02462Y00459*
X-02452Y00457*
X-02443Y00459*
X-02434Y00462*
X-02427Y00468*
X-02421Y00475*
X-02418Y00484*
X-02417Y00493*
X-02418Y00503*
X-02421Y00511*
X-02427Y00519*
X-02434Y00524*
X-02443Y00528*
X-02452Y00529*
X-02462Y00528*
X-0247Y00524*
X-02478Y00519*
X-02481Y00515*
X-0252*
X-0253Y00513*
X-02538Y00507*
X-0256Y00485*
X-02581*
X-02584Y00488*
Y0049*
Y00561*
X-02598*
Y00596*
X-026Y00606*
X-02605Y00614*
X-02606Y00616*
X-02615Y00621*
X-02624Y00623*
G37*
G36*
X01126Y00635D02*
X01116Y00633D01*
X01108Y00628*
X01102Y00619*
X011Y0061*
X01102Y006*
X01108Y00592*
X0111Y0059*
Y0048*
X01108Y00478*
X01102Y0047*
X011Y0046*
X01102Y00451*
X01108Y00442*
X01116Y00437*
X01125Y00435*
X01135Y00437*
X01143Y00442*
X01149Y00451*
X01151Y0046*
X01149Y0047*
X01143Y00478*
X01141Y0048*
Y0059*
X01143Y00592*
X01149Y006*
X01151Y0061*
X01149Y00619*
X01143Y00628*
X01135Y00633*
X01126Y00635*
G37*
G36*
X-02452Y0045D02*
X-02462Y00449D01*
X-0247Y00446*
X-02478Y0044*
X-02483Y00432*
X-02487Y00424*
X-02488Y00414*
X-02487Y00405*
X-02483Y00397*
X-02478Y00389*
X-0247Y00383*
X-02462Y0038*
X-02452Y00379*
X-02443Y0038*
X-02434Y00383*
X-02427Y00389*
X-02421Y00397*
X-02418Y00405*
X-02417Y00414*
X-02418Y00424*
X-02421Y00432*
X-02427Y0044*
X-02434Y00446*
X-02443Y00449*
X-02452Y0045*
G37*
G36*
X-00031Y00376D02*
X-0004Y00374D01*
X-00048Y00369*
X-00053Y00361*
X-00055Y00353*
X-00059Y00351*
X-00062Y00353*
X-00064Y00361*
X-00069Y00369*
X-00077Y00374*
X-00086Y00376*
X-00095Y00374*
X-00103Y00369*
X-00108Y00361*
X-0011Y00352*
X-00112Y0035*
X-00114Y00348*
X-00123Y00346*
X-00131Y00341*
X-00136Y00333*
X-00138Y00324*
X-00136Y00315*
X-00131Y00307*
X-00123Y00302*
X-00115Y003*
X-00114Y003*
X-00113Y00298*
X-00113Y00294*
X-00113Y00294*
X-00114Y00293*
X-00123Y00291*
X-00131Y00286*
X-00136Y00278*
X-00138Y00269*
X-00136Y0026*
X-00131Y00252*
X-00123Y00247*
X-00115Y00245*
X-00112Y00243*
X-0011Y00241*
X-00108Y00232*
X-00103Y00224*
X-00095Y00219*
X-00086Y00217*
X-00077Y00219*
X-00069Y00224*
X-00064Y00232*
X-00062Y00241*
X-00061Y00242*
X-00055Y00241*
X-00055Y00241*
X-00053Y00232*
X-00048Y00224*
X-0004Y00219*
X-00031Y00217*
X-00022Y00219*
X-00014Y00224*
X-00009Y00232*
X-00007Y00241*
X-00005Y00243*
X-00003Y00245*
X00005Y00247*
X00013Y00252*
X00018Y0026*
X0002Y00269*
X00018Y00278*
X00013Y00286*
X00005Y00291*
X0Y00292*
X-00004Y00298*
X-00003Y003*
X-00003Y003*
X00005Y00302*
X00013Y00307*
X00018Y00315*
X0002Y00324*
X00018Y00333*
X00013Y00341*
X00005Y00346*
X-00003Y00348*
X-00005Y0035*
X-00007Y00352*
X-00009Y00361*
X-00014Y00369*
X-00022Y00374*
X-00031Y00376*
G37*
G36*
X02246Y00304D02*
X02186D01*
Y00229*
X02246*
Y00241*
X02273*
X02283Y00243*
X02291Y00248*
X02297Y00257*
X02299Y00266*
X02297Y00276*
X02291Y00284*
X02283Y0029*
X02273Y00292*
X02246*
Y00304*
G37*
G36*
Y0021D02*
X02186D01*
Y00134*
X02246*
Y00146*
X02273*
X02283Y00148*
X02291Y00154*
X02297Y00162*
X02299Y00172*
X02297Y00182*
X02291Y0019*
X02283Y00195*
X02273Y00197*
X02246*
Y0021*
G37*
G36*
X02244Y00117D02*
X02184D01*
Y00041*
X02244*
Y00052*
X02277*
X02287Y00054*
X02295Y00059*
X02301Y00068*
X02302Y00077*
X02301Y00087*
X02295Y00095*
X02287Y00101*
X02277Y00103*
X02244*
Y00117*
G37*
G36*
Y00024D02*
X02184D01*
Y-00051*
X02244*
Y-00038*
X02279*
X02289Y-00036*
X02297Y-0003*
X02302Y-00022*
X02304Y-00012*
X02302Y-00002*
X02297Y00005*
X02289Y0001*
X02279Y00012*
X02244*
Y00024*
G37*
G36*
X02254Y-00094D02*
X02186D01*
Y-00174*
X02254*
Y-00159*
X02278*
X02288Y-00158*
X02296Y-00152*
X02297Y-00151*
X02303Y-00143*
X02305Y-00133*
X02303Y-00124*
X02297Y-00115*
X02289Y-0011*
X02279Y-00108*
X02276Y-00108*
X02254*
Y-00094*
G37*
G36*
X-01416Y-0032D02*
X-01427Y-00322D01*
X-01436Y-00326*
X-01445Y-00332*
X-01451Y-0034*
X-01455Y-0035*
X-01456Y-00361*
X-01455Y-00371*
X-01451Y-00381*
X-01445Y-00389*
X-01436Y-00396*
X-01427Y-004*
X-01416Y-00401*
X-01406Y-004*
X-01396Y-00396*
X-01388Y-00389*
X-01381Y-00381*
X-01377Y-00371*
X-01376Y-00361*
X-01377Y-0035*
X-01381Y-0034*
X-01388Y-00332*
X-01396Y-00326*
X-01406Y-00322*
X-01416Y-0032*
G37*
G36*
X-01716D02*
X-01727Y-00322D01*
X-01736Y-00326*
X-01745Y-00332*
X-01751Y-0034*
X-01755Y-0035*
X-01756Y-00361*
X-01755Y-00371*
X-01751Y-00381*
X-01745Y-00389*
X-01736Y-00396*
X-01727Y-004*
X-01716Y-00401*
X-01706Y-004*
X-01696Y-00396*
X-01688Y-00389*
X-01681Y-00381*
X-01677Y-00371*
X-01676Y-00361*
X-01677Y-0035*
X-01681Y-0034*
X-01688Y-00332*
X-01696Y-00326*
X-01706Y-00322*
X-01716Y-0032*
G37*
G36*
X02018Y-00323D02*
X02008Y-00325D01*
X01998Y-00329*
X0199Y-00335*
X01983Y-00344*
X01979Y-00353*
X01978Y-00364*
X01979Y-00374*
X01983Y-00384*
X0199Y-00392*
X01998Y-00399*
X02008Y-00403*
X02018Y-00404*
X02029Y-00403*
X02039Y-00399*
X02047Y-00392*
X02053Y-00384*
X02057Y-00374*
X02059Y-00364*
X02057Y-00353*
X02053Y-00344*
X02047Y-00335*
X02039Y-00329*
X02029Y-00325*
X02018Y-00323*
G37*
G36*
X01918D02*
X01908Y-00325D01*
X01898Y-00329*
X0189Y-00335*
X01883Y-00344*
X01879Y-00353*
X01878Y-00364*
X01879Y-00374*
X01883Y-00384*
X0189Y-00392*
X01898Y-00399*
X01908Y-00403*
X01918Y-00404*
X01929Y-00403*
X01939Y-00399*
X01947Y-00392*
X01953Y-00384*
X01957Y-00374*
X01959Y-00364*
X01957Y-00353*
X01953Y-00344*
X01947Y-00335*
X01939Y-00329*
X01929Y-00325*
X01918Y-00323*
G37*
G36*
X01818D02*
X01808Y-00325D01*
X01798Y-00329*
X0179Y-00335*
X01783Y-00344*
X01779Y-00353*
X01778Y-00364*
X01779Y-00374*
X01783Y-00384*
X0179Y-00392*
X01798Y-00399*
X01808Y-00403*
X01818Y-00404*
X01829Y-00403*
X01839Y-00399*
X01847Y-00392*
X01853Y-00384*
X01857Y-00374*
X01859Y-00364*
X01857Y-00353*
X01853Y-00344*
X01847Y-00335*
X01839Y-00329*
X01829Y-00325*
X01818Y-00323*
G37*
G36*
X01718D02*
X01708Y-00325D01*
X01698Y-00329*
X0169Y-00335*
X01683Y-00344*
X01679Y-00353*
X01678Y-00364*
X01679Y-00374*
X01683Y-00384*
X0169Y-00392*
X01698Y-00399*
X01708Y-00403*
X01718Y-00404*
X01729Y-00403*
X01739Y-00399*
X01747Y-00392*
X01753Y-00384*
X01757Y-00374*
X01759Y-00364*
X01757Y-00353*
X01753Y-00344*
X01747Y-00335*
X01739Y-00329*
X01729Y-00325*
X01718Y-00323*
G37*
G36*
X01618D02*
X01608Y-00325D01*
X01598Y-00329*
X0159Y-00335*
X01583Y-00344*
X01579Y-00353*
X01578Y-00364*
X01579Y-00374*
X01583Y-00384*
X0159Y-00392*
X01598Y-00399*
X01608Y-00403*
X01618Y-00404*
X01629Y-00403*
X01639Y-00399*
X01647Y-00392*
X01653Y-00384*
X01657Y-00374*
X01659Y-00364*
X01657Y-00353*
X01653Y-00344*
X01647Y-00335*
X01639Y-00329*
X01629Y-00325*
X01618Y-00323*
G37*
G36*
X01518D02*
X01508Y-00325D01*
X01498Y-00329*
X0149Y-00335*
X01483Y-00344*
X01479Y-00353*
X01478Y-00364*
X01479Y-00374*
X01483Y-00384*
X0149Y-00392*
X01498Y-00399*
X01508Y-00403*
X01518Y-00404*
X01529Y-00403*
X01539Y-00399*
X01547Y-00392*
X01553Y-00384*
X01557Y-00374*
X01559Y-00364*
X01557Y-00353*
X01553Y-00344*
X01547Y-00335*
X01539Y-00329*
X01529Y-00325*
X01518Y-00323*
G37*
G36*
X01418D02*
X01408Y-00325D01*
X01398Y-00329*
X0139Y-00335*
X01383Y-00344*
X01379Y-00353*
X01378Y-00364*
X01379Y-00374*
X01383Y-00384*
X0139Y-00392*
X01398Y-00399*
X01408Y-00403*
X01418Y-00404*
X01429Y-00403*
X01439Y-00399*
X01447Y-00392*
X01453Y-00384*
X01457Y-00374*
X01459Y-00364*
X01457Y-00353*
X01453Y-00344*
X01447Y-00335*
X01439Y-00329*
X01429Y-00325*
X01418Y-00323*
G37*
G36*
X-00581Y-00634D02*
X-00591Y-00636D01*
X-00599Y-00641*
X-00605Y-0065*
X-00607Y-00659*
Y-00675*
X-00614*
Y-0074*
X-00549*
Y-00675*
X-00556*
Y-00659*
X-00558Y-0065*
X-00563Y-00641*
X-00572Y-00636*
X-00581Y-00634*
G37*
G36*
X-00047Y-00737D02*
X-00057Y-00739D01*
X-00066Y-00742*
X-00074Y-00748*
X-0008Y-00756*
X-00084Y-00765*
X-00085Y-00775*
X-00084Y-00785*
X-0008Y-00794*
X-00074Y-00802*
X-00066Y-00808*
X-00057Y-00812*
X-00047Y-00813*
X-00037Y-00812*
X-00028Y-00808*
X-0002Y-00802*
X-00014Y-00794*
X-0001Y-00785*
X-00009Y-00775*
X-0001Y-00765*
X-00014Y-00756*
X-0002Y-00748*
X-00028Y-00742*
X-00037Y-00739*
X-00047Y-00737*
G37*
G36*
X0143Y-00767D02*
X0136D01*
Y-00823*
Y-00828*
Y-0083*
Y-00886*
X01394*
X0141Y-00902*
X01418Y-00908*
X01428Y-00909*
X01442*
X01452Y-00908*
X0146Y-00902*
X01466Y-00894*
X01468Y-00884*
X01466Y-00874*
X0146Y-00866*
X01452Y-0086*
X01442Y-00858*
X01438*
X0143Y-0085*
Y-0083*
Y-00828*
X01433Y-00825*
X01462*
X01486Y-00849*
X01486Y-0085*
X0149Y-00858*
X01495Y-00865*
X01502Y-00871*
X0151Y-00874*
X01519Y-00875*
X01528Y-00874*
X01536Y-00871*
X01543Y-00865*
X01549Y-00858*
X01552Y-0085*
X01553Y-00841*
X01552Y-00832*
X01549Y-00824*
X01543Y-00817*
X01536Y-00812*
X01528Y-00809*
X01519Y-00807*
X01517Y-00808*
X0149Y-00781*
X01482Y-00776*
X01472Y-00774*
X0143*
Y-00767*
G37*
G36*
X00892Y-00774D02*
X00811D01*
X00801Y-00776*
X008Y-00776*
X0077*
Y-00832*
Y-00837*
Y-00839*
Y-00844*
X00745*
X00735Y-00846*
X00727Y-00852*
X00727Y-00852*
X00721Y-0086*
X00719Y-0087*
X00721Y-0088*
X00727Y-00888*
X00735Y-00893*
X00745Y-00895*
X00745Y-00895*
X00805*
X00808Y-00895*
X0084*
Y-00839*
Y-00834*
Y-00832*
Y-00825*
X00881*
X00906Y-00849*
X00906Y-0085*
X00909Y-00858*
X00914Y-00865*
X00922Y-00871*
X0093Y-00874*
X00938Y-00875*
X00947Y-00874*
X00955Y-00871*
X00962Y-00865*
X00968Y-00858*
X00971Y-0085*
X00972Y-00841*
X00971Y-00832*
X00968Y-00824*
X00962Y-00817*
X00955Y-00812*
X00947Y-00809*
X00938Y-00807*
X00936Y-00808*
X0091Y-00781*
X00901Y-00776*
X00892Y-00774*
G37*
G36*
X-00728Y-00916D02*
X-00824D01*
Y-00919*
X-00851*
X-00861Y-00921*
X-00869Y-00926*
X-00874Y-00935*
X-00876Y-00944*
X-00874Y-00954*
X-00869Y-00962*
X-00861Y-00968*
X-00851Y-0097*
X-00824*
Y-0099*
X-00728*
Y-00916*
G37*
G36*
X-0062D02*
X-00715D01*
Y-0099*
X-00693*
Y-01009*
X-00692Y-01019*
X-00689Y-01023*
X-00691Y-01028*
X-00715*
Y-0104*
X-00728*
Y-01028*
X-00824*
Y-01102*
X-00728*
Y-01091*
X-00715*
Y-01102*
X-0062*
Y-01091*
X-00472*
X-00462Y-01089*
X-00454Y-01083*
X-0044Y-0107*
X-0044*
X-00439Y-0107*
X-00437Y-0107*
X-00401*
Y-01033*
X-00401Y-01032*
X-00401Y-01031*
Y-00994*
X-00437*
X-00439Y-00994*
X-0044Y-00994*
X-00476*
Y-01031*
X-00476Y-01032*
X-00476Y-01033*
Y-01034*
X-00482Y-0104*
X-00549*
Y-01019*
X-00614*
Y-0104*
X-0062*
Y-01028*
X-00645*
X-00647Y-01023*
X-00644Y-01019*
X-00643Y-01009*
Y-0099*
X-0062*
Y-00916*
G37*
G36*
X-00045Y-00994D02*
X-00055Y-00995D01*
X-00064Y-00999*
X-00072Y-01005*
X-00078Y-01013*
X-00082Y-01022*
X-00083Y-01032*
X-00082Y-01042*
X-00078Y-01051*
X-00072Y-01059*
X-00064Y-01065*
X-00055Y-01069*
X-00045Y-0107*
X-00035Y-01069*
X-00026Y-01065*
X-00018Y-01059*
X-00012Y-01051*
X-00008Y-01042*
X-00007Y-01032*
X-00008Y-01022*
X-00012Y-01013*
X-00018Y-01005*
X-00026Y-00999*
X-00035Y-00995*
X-00045Y-00994*
G37*
G36*
X01726Y-00538D02*
X01716Y-00539D01*
X01707Y-00543*
X01699Y-00549*
X01693Y-00557*
X01689Y-00566*
X01688Y-00576*
X01689Y-00585*
X01693Y-00594*
X01699Y-00602*
X017Y-00603*
Y-00695*
X01659Y-00736*
X01653Y-00745*
X01651Y-00754*
Y-00819*
X01647Y-00824*
X01644Y-00832*
X01643Y-00841*
X01644Y-0085*
X01647Y-00858*
X01653Y-00865*
X01653Y-00865*
Y-01018*
X01651Y-01021*
X01647Y-01029*
X01646Y-01038*
X01647Y-01047*
X01651Y-01055*
X01655Y-01061*
Y-01068*
X01642Y-01081*
X0143*
Y-0103*
Y-01025*
X01434Y-01021*
X01465*
X0149Y-01046*
X0149Y-01047*
X01493Y-01055*
X01499Y-01062*
X01506Y-01067*
X01514Y-01071*
X01523Y-01072*
X01531Y-01071*
X01539Y-01067*
X01546Y-01062*
X01552Y-01055*
X01555Y-01047*
X01556Y-01038*
X01555Y-01029*
X01552Y-01021*
X01546Y-01014*
X01539Y-01009*
X01531Y-01005*
X01523Y-01004*
X0152Y-01005*
X01494Y-00978*
X01485Y-00972*
X01476Y-0097*
X0143*
Y-00967*
X0136*
Y-01023*
Y-01028*
X01356Y-01032*
X01323*
X01313Y-01033*
X01305Y-01039*
X01301Y-01043*
X01296Y-01051*
X01294Y-01061*
X01296Y-0107*
X013Y-01076*
X01297Y-01081*
X01125*
Y-01056*
X01125Y-01055*
X01129Y-01047*
X0113Y-01038*
X01129Y-01029*
X01125Y-01021*
X01121Y-01016*
Y-00863*
X01125Y-00858*
X01129Y-0085*
X0113Y-00841*
X01129Y-00832*
X01125Y-00824*
X01121Y-00819*
Y-00776*
X01166Y-00731*
X01172Y-00723*
X01174Y-00713*
Y-006*
X01178Y-00594*
X01182Y-00585*
X01183Y-00576*
X01182Y-00566*
X01178Y-00557*
X01172Y-00549*
X01164Y-00543*
X01155Y-00539*
X01145Y-00538*
X01135Y-00539*
X01126Y-00543*
X01118Y-00549*
X01112Y-00557*
X01109Y-00566*
X01107Y-00576*
X01109Y-00585*
X01112Y-00594*
X01118Y-00602*
X01123Y-00606*
Y-00703*
X01078Y-00747*
X01072Y-00756*
X0107Y-00765*
Y-00819*
X01067Y-00824*
X01063Y-00832*
X01062Y-00841*
X01063Y-0085*
X01067Y-00858*
X0107Y-00863*
Y-01016*
X01067Y-01021*
X01063Y-01029*
X01062Y-01038*
X01063Y-01047*
X01067Y-01055*
X01072Y-01062*
X01074Y-01063*
Y-01081*
X0084*
Y-01035*
Y-0103*
Y-01029*
Y-01021*
X00881*
X00906Y-01046*
X00906Y-01047*
X00909Y-01055*
X00914Y-01062*
X00922Y-01067*
X0093Y-01071*
X00938Y-01072*
X00947Y-01071*
X00955Y-01067*
X00962Y-01062*
X00968Y-01055*
X00971Y-01047*
X00972Y-01038*
X00971Y-01029*
X00968Y-01021*
X00962Y-01014*
X00955Y-01009*
X00947Y-01005*
X00938Y-01004*
X00936Y-01005*
X0091Y-00978*
X00901Y-00972*
X00892Y-0097*
X00811*
X00801Y-00972*
X008Y-00973*
X0077*
Y-01029*
Y-01034*
X00766Y-01037*
X00731*
X00721Y-01039*
X00713Y-01045*
X00711Y-01047*
X00705Y-01055*
X00703Y-01065*
X00705Y-01075*
X00705Y-01075*
X00703Y-0108*
X00584*
X0054Y-01036*
X0054Y-01029*
X00536Y-01021*
X00532Y-01016*
Y-00863*
X00536Y-00858*
X0054Y-0085*
X00541Y-00841*
X0054Y-00832*
X00536Y-00824*
X00532Y-00819*
Y-00772*
X00577Y-00727*
X00582Y-00719*
X00584Y-00709*
Y-00601*
X00589Y-00594*
X00593Y-00585*
X00594Y-00576*
X00593Y-00566*
X00589Y-00557*
X00583Y-00549*
X00576Y-00543*
X00566Y-00539*
X00557Y-00538*
X00547Y-00539*
X00538Y-00543*
X0053Y-00549*
X00524Y-00557*
X0052Y-00566*
X00519Y-00576*
X0052Y-00585*
X00524Y-00594*
X0053Y-00602*
X00533Y-00605*
Y-00699*
X00489Y-00743*
X00483Y-00752*
X00481Y-00762*
Y-00819*
X00477Y-00824*
X00474Y-00832*
X00473Y-00841*
X00474Y-0085*
X00477Y-00858*
X00481Y-00863*
Y-01016*
X00477Y-01021*
X00474Y-01029*
X00473Y-01038*
X00474Y-01047*
X00477Y-01055*
X00483Y-01062*
X0049Y-01067*
X00498Y-01071*
X00504Y-01072*
X00556Y-01123*
X00564Y-01129*
X00574Y-01131*
X00731*
X00739Y-01132*
X01652*
X01662Y-0113*
X0167Y-01125*
X01699Y-01096*
X01704Y-01088*
X01706Y-01078*
Y-01059*
X01709Y-01055*
X01713Y-01047*
X01714Y-01038*
X01713Y-01029*
X01709Y-01021*
X01704Y-01014*
X01704Y-01014*
Y-00861*
X01706Y-00858*
X01709Y-0085*
X01711Y-00841*
X01709Y-00832*
X01706Y-00824*
X01702Y-00819*
Y-00765*
X01744Y-00723*
X01749Y-00715*
X01751Y-00705*
Y-00603*
X01753Y-00602*
X01759Y-00594*
X01762Y-00585*
X01764Y-00576*
X01762Y-00566*
X01759Y-00557*
X01753Y-00549*
X01745Y-00543*
X01736Y-00539*
X01726Y-00538*
G37*
G36*
X00251Y-00973D02*
X00181D01*
Y-01029*
Y-01034*
Y-01035*
Y-01056*
X00161Y-01076*
X00153*
X00143Y-01078*
X00135Y-01083*
X00129Y-01092*
X00127Y-01101*
X00129Y-01111*
X00135Y-01119*
X00143Y-01125*
X00153Y-01127*
X00171*
X00181Y-01125*
X00189Y-01119*
X00217Y-01092*
X00251*
Y-01035*
Y-0103*
X00255Y-01027*
X00298*
X00316Y-01046*
X00317Y-01047*
X0032Y-01055*
X00325Y-01062*
X00332Y-01067*
X0034Y-01071*
X00349Y-01072*
X00358Y-01071*
X00366Y-01067*
X00373Y-01062*
X00379Y-01055*
X00382Y-01047*
X00383Y-01038*
X00382Y-01029*
X00379Y-01021*
X00373Y-01014*
X00366Y-01009*
X00358Y-01005*
X00349Y-01004*
X00347Y-01005*
X00326Y-00984*
X00318Y-00978*
X00308Y-00976*
X00251*
Y-00973*
G37*
%LNbrushed_pcb-3*%
%LPD*%
G36*
X-00833Y00492D02*
X-00764D01*
X-00761Y00488*
Y00484*
X-00688*
Y00487*
X-00673*
Y00472*
X-00594*
Y00476*
X-00567*
Y00459*
X-00553*
Y00412*
X-00577Y00387*
X-00649*
X-00659Y00385*
X-00667Y0038*
X-00703Y00344*
X-00708Y00336*
X-0071Y00326*
Y0009*
X-00708Y0008*
X-00703Y00072*
X-007Y0007*
X-00701Y00065*
X-00846*
X-00849Y00069*
X-00854Y00073*
X-00852Y00078*
X-00841*
Y00077*
X-00758*
Y00107*
X-00755Y00109*
X-00733Y00131*
X-00729Y00136*
X-00728Y00142*
Y00314*
X-00729Y0032*
X-00733Y00325*
X-00742Y00334*
X-00747Y00337*
X-00752Y00339*
X-00758*
Y00339*
X-00841*
Y00339*
X-00855*
X-00861Y00344*
X-00866Y00347*
X-00872Y00348*
X-00878*
X-00879Y00351*
X-00888Y00356*
X-00897Y00358*
X-00907Y00356*
X-00915Y00351*
X-0092Y00343*
X-00922Y00336*
X-00927Y00334*
X-00948Y00355*
X-00953Y00358*
X-00959Y00359*
X-02126*
X-02132Y00358*
X-02137Y00355*
X-02144Y00348*
X-02155*
X-02156Y00348*
X-02157Y00348*
X-0219*
Y00315*
X-0219Y00314*
X-0219Y00313*
Y00281*
X-02157*
X-02156Y00281*
X-02155Y00281*
X-02143*
X-02141Y00276*
X-0215Y00267*
X-02348*
X-02353Y00266*
X-02355Y0027*
X-02313Y00313*
X-02308Y00311*
X-02307Y00306*
X-02303Y00298*
X-02298Y0029*
X-02291Y00285*
X-02283Y00282*
X-02274Y00281*
X-02265Y00282*
X-02257Y00285*
X-0225Y0029*
X-02245Y00298*
X-02241Y00306*
X-0224Y00314*
X-02241Y00323*
X-02245Y00331*
X-0225Y00338*
X-02257Y00344*
X-02265Y00347*
X-02271Y00348*
X-02272Y00353*
X-0225Y00376*
X-01161*
X-01151Y00378*
X-01143Y00383*
X-01042Y00484*
X-00927*
Y00472*
X-00848*
Y00496*
X-00833*
Y00492*
G37*
G36*
X01057Y00484D02*
Y00466D01*
X01053Y00464*
X00956Y00561*
X00951Y00564*
X00945Y00566*
X00386*
X0038Y00564*
X00375Y00561*
X00295Y00482*
X00292Y00477*
X00291Y00471*
Y-00116*
X00286Y-00118*
X00279Y-00111*
X00276Y-00109*
X00276Y-00108*
X00278Y-00102*
X00276Y-00096*
X00273Y-0009*
X00268Y-00087*
X00261Y-00086*
X00249*
Y00016*
X00248Y00022*
X00245Y00027*
X00226Y00046*
X00221Y00049*
X00215Y0005*
X0016*
X00158Y00055*
X00262Y00159*
X00266Y00164*
X00267Y0017*
Y00495*
X00348Y00577*
X00964*
X01057Y00484*
G37*
G36*
X01032Y00442D02*
Y00294D01*
X01029Y0029*
X01028Y00283*
Y0023*
X01029Y00223*
X01033Y00216*
X0104Y00212*
X01047Y00211*
X01054Y00212*
X0106Y00216*
X01065Y00212*
X01073Y00211*
X01078Y00212*
X01083Y00209*
Y00152*
X01061Y0013*
X01022*
X0102Y00132*
X01012Y00138*
X01003Y0014*
X00993Y00138*
X00992Y00137*
X00987Y00139*
Y00372*
X00986Y00378*
X00983Y00383*
X00962Y00404*
X00957Y00407*
X00951Y00409*
X00923*
X00919Y00414*
X00919Y00418*
X00917Y00427*
X00912Y00436*
X00905Y0044*
X00906Y00445*
X00941*
X00942Y00443*
X00951Y00437*
X0096Y00435*
X0097Y00437*
X00978Y00443*
X00983Y00451*
X00985Y00461*
X00983Y0047*
X00978Y00478*
X0097Y00484*
X0096Y00486*
X00951Y00484*
X00942Y00478*
X00941Y00476*
X00831*
X00831*
X00616*
X00568Y00523*
X00563Y00526*
X00558Y00528*
X004*
X00394Y00526*
X00389Y00523*
X00338Y00472*
X00335Y00467*
X00334Y00461*
Y-00093*
X00334Y-00094*
Y-00134*
X00335Y-0014*
X00338Y-00145*
X00344Y-00151*
X00349Y-00154*
X00353Y-00155*
X00351Y-00161*
X00353Y-00167*
X00355Y-00171*
X00353Y-00174*
X00351Y-00181*
X00353Y-00187*
X00354Y-0019*
X00354Y-00192*
X00349Y-00195*
X00326Y-00218*
X00321Y-00216*
Y00465*
X00392Y00535*
X00938*
X01032Y00442*
G37*
G36*
X00598Y0045D02*
X00603Y00446D01*
X00609Y00445*
X00658*
Y00412*
X00652Y00406*
X00647*
Y00432*
X00564*
Y00431*
X00521*
X00496Y00456*
X00491Y0046*
X00485Y00461*
X00477*
X00473Y00467*
X00466Y00471*
X00459Y00474*
X00451Y00475*
X00444Y00474*
X00437Y00471*
X0043Y00467*
X00426Y0046*
X00423Y00453*
X00422Y00446*
X00423Y00438*
X00426Y00431*
X0043Y00424*
X00433Y00422*
Y00417*
X0043Y00415*
X00426Y00409*
X00423Y00402*
X00422Y00394*
X00423Y00387*
X00426Y00379*
X0043Y00373*
X00433Y00371*
Y00366*
X0043Y00364*
X00426Y00358*
X00423Y00351*
X00422Y00343*
X00423Y00335*
X00426Y00328*
X0043Y00323*
X0043Y0032*
Y00317*
X0043Y00317*
X00426Y00311*
X00423Y00304*
X00422Y00296*
X00423Y00288*
X00426Y00281*
X0043Y00275*
X00433Y00273*
Y00268*
X0043Y00266*
X00426Y0026*
X00423Y00253*
X00422Y00245*
X00423Y00237*
X00426Y0023*
X0043Y00224*
X00437Y00219*
X00444Y00216*
X00451Y00215*
X00459Y00216*
X00466Y00219*
X00473Y00224*
X00477Y00229*
X00488*
X00491Y00226*
Y00128*
X00478Y00115*
X00473Y00115*
X00473Y00116*
X00466Y00121*
X00459Y00124*
X00451Y00125*
X00444Y00124*
X00437Y00121*
X0043Y00116*
X00426Y0011*
X00423Y00103*
X00422Y00095*
X00423Y00087*
X00426Y0008*
X0043Y00074*
X00433Y00072*
Y00067*
X0043Y00065*
X00426Y00059*
X00423Y00052*
X00422Y00044*
X00423Y00036*
X00426Y00029*
X0043Y00024*
X0043Y00021*
Y00018*
X0043Y00018*
X00426Y00012*
X00423Y00004*
X00422Y-00002*
X00423Y-0001*
X00426Y-00017*
X0043Y-00023*
X00437Y-00028*
X00444Y-00031*
X00451Y-00032*
X00459Y-00031*
X00466Y-00028*
X00473Y-00023*
X00477Y-00018*
X00496*
X00502Y-00016*
X00507Y-00013*
X00557Y00036*
X0056Y00041*
X00561Y00047*
Y00191*
X00564Y00195*
X00646*
Y00154*
X00641Y00152*
X0064Y00153*
X0063Y00155*
X00621Y00153*
X00613Y00147*
X00607Y00139*
X00605Y00129*
X00606Y00126*
X00587Y00108*
X00584Y00103*
X00583Y00097*
Y-00103*
X0054Y-00146*
X00517*
X00515Y-00141*
X00517Y-00139*
X00523Y-00131*
X00525Y-00122*
X00524Y-00119*
X00533Y-00117*
X00541Y-00112*
X00546Y-00104*
X00548Y-00094*
X00546Y-00084*
X00541Y-00076*
X00533Y-00071*
X00523Y-00069*
X00513Y-00071*
X00505Y-00076*
X00505Y-00077*
X00473*
X00467Y-00078*
X00462Y-00081*
X00456Y-00087*
X00427*
X00423Y-00086*
X00368*
X00364Y-00083*
Y00455*
X00406Y00497*
X00551*
X00598Y0045*
G37*
G36*
X-00928Y00292D02*
X-0093Y00287D01*
X-00957*
X-00989Y00319*
X-00994Y00322*
X-01Y00324*
X-02002*
X-02008Y00322*
X-02013Y00319*
X-02144Y00188*
X-02155*
X-02156Y00188*
X-02157Y00188*
X-0219*
Y00156*
X-0219Y00155*
X-0219Y00154*
Y00121*
X-02157*
X-02156Y00121*
X-02155Y00121*
X-02131*
X-02129Y00116*
X-02167Y00078*
X-0217Y00073*
X-02171Y00067*
Y00031*
X-0219*
Y-00001*
X-0219Y-00002*
X-0219Y-00003*
Y-00036*
X-02157*
X-02156Y-00036*
X-02155Y-00036*
X-02127*
X-02125Y-00041*
X-02167Y-00082*
X-0217Y-00087*
X-02171Y-00093*
Y-00128*
X-0219*
Y-00161*
X-0219Y-00162*
X-0219Y-00163*
Y-00196*
X-02194Y-00198*
X-0226*
X-02261Y-00193*
X-02257Y-00191*
X-0225Y-00186*
X-02245Y-00179*
X-02241Y-00171*
X-0224Y-00162*
X-02241Y-00153*
X-02245Y-00145*
X-0225Y-00138*
X-02257Y-00133*
X-02265Y-00129*
X-02274Y-00128*
X-02283Y-00129*
X-02291Y-00133*
X-02298Y-00138*
X-02303Y-00145*
X-02307Y-00153*
X-02308Y-00162*
X-02307Y-00171*
X-02303Y-00179*
X-02298Y-00186*
X-02291Y-00191*
X-02287Y-00193*
X-02288Y-00198*
X-02333*
X-02339Y-00199*
X-02344Y-00202*
X-02399Y-00257*
X-02402Y-00262*
X-02404Y-00268*
Y-00286*
X-0241Y-00289*
X-02417Y-00294*
X-0242Y-00297*
X-02426*
X-02428Y-00294*
X-02435Y-00289*
X-02443Y-00285*
X-02452Y-00284*
X-02461Y-00285*
X-02469Y-00289*
X-02476Y-00294*
X-02481Y-003*
X-02486Y-00299*
Y00068*
X-02338Y00216*
X-0214*
X-0213Y00218*
X-02122Y00223*
X-02096Y00249*
X-0209Y00257*
X-02088Y00267*
X-0209Y00277*
X-02096Y00285*
X-02104Y00291*
X-02114Y00293*
X-02119Y00292*
X-02122Y00295*
Y00313*
X-02122Y00314*
X-02122Y00315*
Y00326*
X-0212Y00329*
X-00965*
X-00928Y00292*
G37*
G36*
X00831Y00445D02*
X00882D01*
X00883Y0044*
X00876Y00436*
X00874Y00432*
X00826*
X00825Y00432*
X00784*
Y004*
Y00355*
X00731*
X00726Y00353*
X00721Y0035*
X00651Y00281*
X00647Y00283*
Y00323*
Y00349*
Y00375*
X00658*
X00664Y00376*
X00669Y0038*
X00684Y00395*
X00688Y004*
X00689Y00406*
Y00445*
X00831*
G37*
G36*
X-00979Y00266D02*
X-00981Y00262D01*
X-00995*
X-01014Y00281*
X-01019Y00284*
X-01025Y00286*
X-01953*
X-01959Y00284*
X-01964Y00281*
X-02118Y00127*
X-02122Y00129*
Y00154*
X-02122Y00155*
X-02122Y00156*
Y00167*
X-01996Y00293*
X-01006*
X-00979Y00266*
G37*
G36*
X01219Y00212D02*
X01226Y00211D01*
X01233Y00212*
X01235Y00213*
X0124Y00211*
Y00169*
X01241Y00163*
X01245Y00158*
X01288Y00115*
Y00092*
X01027*
X01024Y00097*
X01025Y00099*
X01067*
X01073Y001*
X01078Y00104*
X01109Y00135*
X01112Y0014*
X01113Y00145*
Y00149*
X01118Y00151*
X01158Y00111*
X01163Y00107*
X01169Y00106*
X0119*
X01193Y00107*
X01194*
X01195Y00105*
X01204Y00099*
X01213Y00098*
X01223Y00099*
X01231Y00105*
X01237Y00113*
X01238Y00123*
X01237Y00132*
X01231Y0014*
X01223Y00146*
X01213Y00148*
X01204Y00146*
X01195Y0014*
X01194Y00138*
X0119*
X01187Y00137*
X01175*
X01139Y00173*
Y00209*
X01144Y00212*
X01149Y00211*
X01157Y00212*
X01162Y00216*
X01168Y00212*
X01175Y00211*
X01182Y00212*
X01188Y00216*
X01193Y00212*
X012Y00211*
X01208Y00212*
X01213Y00216*
X01219Y00212*
G37*
G36*
X00896Y0035D02*
X00902Y00348D01*
X00919*
X00921Y00346*
X00929Y0034*
X00938Y00339*
X00948Y0034*
X00952Y00343*
X00957Y0034*
Y00193*
X00952Y00191*
X00896Y00248*
X00891Y00251*
X00885Y00252*
X00867*
Y00298*
Y00323*
Y0035*
X00896*
X00896Y0035*
G37*
G36*
X01587Y00112D02*
X01592Y00108D01*
X01598Y00107*
X01869*
X0187Y00102*
X01867Y001*
X01862Y00092*
X0186Y00082*
Y-00008*
X01736*
X01734Y-00005*
X01726Y0*
X01716Y00001*
X01706Y0*
X01701Y-00004*
X01697Y-00006*
X01672*
Y0*
X01674*
Y00036*
X0164*
Y0*
X01639Y-00004*
X01637Y-00006*
X01635Y-00005*
X01627Y0*
X01618Y00001*
X01608Y0*
X01603Y-00003*
X016Y-00005*
X016Y-00006*
X01599Y-00006*
X01575*
Y0*
X01577*
Y00036*
X01542*
Y0*
X01544*
Y-00006*
X01542*
Y-00009*
X01537Y-00011*
X01533Y-00005*
X01525Y0*
X01515Y00001*
X01506Y0*
X01498Y-00005*
X01494Y-00006*
X01469*
Y00001*
X01472*
Y00037*
X01437*
Y00012*
X01399*
Y00015*
X01397Y00023*
X01393Y00029*
X01387Y00033*
X0138Y00035*
X01372Y00033*
X01367Y0003*
X01361Y00033*
X01354Y00035*
X01347Y00033*
X01341Y0003*
X01336Y00033*
X01328Y00035*
X01323Y00034*
X01318Y00037*
Y00121*
X01317Y00127*
X01314Y00132*
X01271Y00175*
Y0023*
X01271Y0023*
Y00283*
X0127Y00287*
X01274Y00292*
X01281*
X01284Y00287*
X01284Y00283*
Y0023*
X01285Y00223*
X01289Y00216*
X01295Y00212*
X01296Y00212*
X01298Y00207*
X01295Y00202*
X01293Y00192*
X01295Y00183*
X01301Y00175*
X01309Y00169*
X01318Y00167*
X01328Y00169*
X01336Y00175*
X01338Y00177*
X01343*
X01345Y00175*
X01353Y00169*
X01363Y00167*
X01372Y00169*
X01381Y00175*
X01386Y00183*
X01388Y00192*
X01386Y00202*
X01383Y00206*
X01385Y00212*
X01387Y00212*
X01393Y00216*
X01397Y00223*
X01399Y0023*
Y00283*
X01398Y00287*
X01402Y00292*
X01407*
X01587Y00112*
G37*
G36*
X00784Y00171D02*
Y0017D01*
X00805*
Y00149*
X00787*
Y0007*
X00805*
Y00033*
X00787*
Y-00046*
X00832*
X00839Y-00052*
X00837Y-00057*
X00812*
X00806Y-00058*
X00801Y-00061*
X00769Y-00093*
X00766Y-00098*
X00765Y-00104*
Y-00242*
X00731Y-00275*
X00722*
X0072Y-00271*
X0074Y-00251*
X00743Y-00246*
X00744Y-0024*
Y00169*
X00749Y00172*
X00754Y00169*
X00763Y00167*
X00773Y00169*
X00779Y00173*
X00784Y00171*
G37*
G36*
X-00533Y00353D02*
Y00331D01*
X-00549Y00314*
X-00578*
X-0058Y00314*
X-00621*
Y00282*
Y00256*
Y00231*
Y00205*
Y00179*
Y00133*
X-00628*
X-00633Y00132*
X-00638Y00129*
X-00649Y00118*
X-00652Y00113*
X-00653Y00107*
Y00075*
X-00663Y00065*
X-00668*
X-0067Y0007*
X-00667Y00072*
X-00661Y0008*
X-00659Y0009*
Y00316*
X-00639Y00336*
X-00566*
X-00557Y00338*
X-00548Y00344*
X-00538Y00355*
X-00533Y00353*
G37*
G36*
X01288Y00037D02*
X01283Y00034D01*
X01277Y00035*
X0127Y00033*
X01264Y0003*
X01259Y00033*
X01252Y00035*
X01244Y00033*
X01239Y0003*
X01233Y00033*
X01226Y00035*
X01219Y00033*
X01213Y0003*
X01208Y00033*
X012Y00035*
X01193Y00033*
X01188Y0003*
X01182Y00033*
X01175Y00035*
X01168Y00033*
X01162Y0003*
X01157Y00033*
X01149Y00035*
X01142Y00033*
X01137Y0003*
X01131Y00033*
X01124Y00035*
X01116Y00033*
X01111Y0003*
X01105Y00033*
X01098Y00035*
X01091Y00033*
X01085Y0003*
X0108Y00033*
X01073Y00035*
X01065Y00033*
X0106Y0003*
X01054Y00033*
X01047Y00035*
X0104Y00033*
X01033Y00029*
X01029Y00023*
X01028Y00015*
Y-00037*
X01029Y-00044*
X01032Y-00048*
Y-00056*
X01031Y-00057*
X00982*
X0098Y-00052*
X00983Y-0005*
X00986Y-00045*
X00987Y-00039*
Y00062*
X01288*
Y00037*
G37*
G36*
X-00423Y00145D02*
Y00117D01*
X-00422Y00111*
X-00419Y00106*
X-00348Y00036*
X-0035Y00031*
X-00429*
X-00432Y00035*
X-00431Y00036*
X-00428Y00043*
X-00427Y00051*
X-00428Y00058*
X-00431Y00066*
X-00436Y00072*
X-00439Y00074*
Y00079*
X-00436Y00081*
X-00431Y00087*
X-00428Y00094*
X-00427Y00102*
X-00428Y0011*
X-00431Y00117*
X-00436Y00123*
X-00439Y00125*
Y0013*
X-00436Y00132*
X-00431Y00138*
X-00428Y00145*
X-00423Y00145*
G37*
G36*
X-00522Y0004D02*
X-00517Y00037D01*
X-00514Y00036*
X-00514Y00031*
X-00647*
X-00647Y00032*
X-00646Y00039*
X-00646Y00039*
X-00627Y00058*
X-00624Y00063*
X-00623Y00068*
Y00073*
X-00621Y00077*
X-00559*
X-00522Y0004*
G37*
G36*
X-00915Y00149D02*
X-00943Y00122D01*
X-01872*
X-01877Y00121*
X-01882Y00118*
X-02017Y-00016*
X-02022Y-00014*
Y-00006*
X-01883Y00132*
X-00958*
X-00952Y00133*
X-00947Y00136*
X-00929Y00154*
X-00918*
X-00915Y00149*
G37*
G36*
X-01017Y00241D02*
X-01019Y00236D01*
X-01928*
X-01934Y00235*
X-01938Y00232*
X-02104Y00066*
X-02107Y00061*
X-02108Y00056*
Y-00024*
X-02117Y-00033*
X-02122Y-00031*
Y-00003*
X-02122Y-00002*
X-02122Y-00001*
Y00031*
X-02141*
Y00061*
X-01947Y00255*
X-01031*
X-01017Y00241*
G37*
G36*
X00888Y00184D02*
Y00149D01*
X00869*
Y0007*
X00931*
Y00049*
X00915Y00033*
X00869*
Y-00033*
X00864Y-00034*
X00854Y-00024*
Y00033*
X00836*
Y0007*
X00854*
Y00149*
X00836*
Y0017*
X00867*
Y00196*
X00876*
X00888Y00184*
G37*
G36*
X-00027Y0002D02*
X00055D01*
X00057Y00017*
X00064Y00012*
X00065Y00011*
X00066Y00006*
X0001Y-00048*
X-00149*
X-00151Y-00044*
X-00151Y-00043*
X-00149Y-00034*
X-00151Y-00024*
X-00151Y-00023*
X-00149Y-00019*
X-00124*
X-00114Y-00017*
X-00106Y-00012*
X-001Y-00004*
X-00098Y00005*
X-001Y00015*
X-00101Y00016*
X-00098Y0002*
X-0003*
X-00027Y0002*
G37*
G36*
X-00954Y00201D02*
X-00954Y00201D01*
X-00959Y00196*
X-01916*
X-01922Y00195*
X-01927Y00192*
X-02068Y00051*
X-02071Y00046*
X-02072Y0004*
Y-00045*
X-02116Y-00088*
X-02119Y-00093*
X-0212Y-00099*
Y-00124*
X-02122Y-00128*
X-02141*
Y-00099*
X-02082Y-00041*
X-02079Y-00036*
X-02078Y-0003*
Y00049*
X-01921Y00206*
X-00956*
X-00954Y00201*
G37*
G36*
X01701Y-00044D02*
Y-00096D01*
X01666Y-0013*
X0161*
Y-00105*
X01564*
X01561Y-00102*
X01563Y-00097*
X01649*
X01655Y-00096*
X0166Y-00093*
X01668Y-00085*
X01671Y-0008*
X01672Y-00074*
Y-00042*
X01697*
X01701Y-00044*
G37*
G36*
X01083Y-00094D02*
Y-00103D01*
X009Y-00286*
X00895Y-00284*
X00893Y-00275*
X00888Y-00267*
X00885Y-00265*
Y-00248*
X00991Y-00143*
X00994Y-00146*
X01003Y-00147*
X01013Y-00146*
X01021Y-0014*
X01027Y-00132*
X01029Y-00122*
X01027Y-00113*
X01027Y-00112*
X01029Y-00108*
X01056*
X01062Y-00107*
X01067Y-00103*
X01078Y-00092*
X01083Y-00094*
G37*
G36*
X-02052Y-00074D02*
Y-00138D01*
X-02085Y-00171*
X-0209Y-00169*
Y-00105*
X-02057Y-00073*
X-02052Y-00074*
G37*
G36*
X00218Y0001D02*
Y-00086D01*
X00206*
X002Y-00087*
X00195Y-0009*
X00191Y-00096*
X0019Y-00102*
X00191Y-00108*
X00194Y-00112*
X00191Y-00115*
X0019Y-00122*
X00191Y-00128*
X00195Y-00133*
X002Y-00137*
X00206Y-00138*
X00257*
X00261Y-00143*
X00261Y-00144*
X00261Y-00145*
X00206*
X002Y-00146*
X00195Y-00149*
X00191Y-00155*
X0019Y-00161*
X00191Y-00167*
X00195Y-00172*
X002Y-00176*
X00206Y-00177*
X00261*
X00265Y-0018*
Y-00205*
X00214Y-00256*
X00198*
X00196Y-00251*
X00196Y-00251*
X00198Y-00241*
X00196Y-00231*
X00191Y-00223*
X00182Y-00217*
X00173Y-00215*
X00145*
X00143Y-0021*
X00146Y-00205*
X00148Y-00195*
X00146Y-00186*
X00141Y-00177*
X00099Y-00136*
X00091Y-0013*
X00083Y-00129*
X00081Y-00123*
X00144Y-00061*
X00149Y-00053*
X00151Y-00043*
X00149Y-00033*
X00144Y-00025*
X00135Y-00019*
X00125Y-00017*
X00119Y-00019*
X00116Y-00014*
X00151Y0002*
X00209*
X00218Y0001*
G37*
G36*
X-00841Y00108D02*
X-00892D01*
X-00898Y00107*
X-00903Y00104*
X-00927Y0008*
X-01848*
X-01854Y00079*
X-01859Y00075*
X-0198Y-00045*
X-01983Y-0005*
X-01984Y-00056*
Y-00222*
X-02021Y-00258*
X-02046*
X-02047Y-00253*
X-02Y-00206*
X-01997Y-00201*
X-01996Y-00195*
Y-00038*
X-01865Y00091*
X-00937*
X-00931Y00093*
X-00926Y00096*
X-00893Y00129*
X-00841*
Y00108*
G37*
G36*
X00842Y-00092D02*
X00809Y-00125D01*
X00806Y-0013*
X00804Y-00136*
Y-00261*
X0077Y-00295*
X00761*
X00759Y-00291*
X00791Y-00259*
X00794Y-00254*
X00795Y-00248*
Y-0011*
X00818Y-00087*
X0084*
X00842Y-00092*
G37*
G36*
X0116Y-00141D02*
Y-00239D01*
X01123Y-00276*
X01118Y-00275*
X0111Y-00276*
X01104Y-00279*
X01098Y-00283*
X01094Y-00289*
X01091Y-00295*
X0109Y-00303*
X01091Y-0031*
X01094Y-00317*
X01098Y-00322*
X01104Y-00327*
X0111Y-0033*
X01118Y-0033*
X01125Y-0033*
X01132Y-00327*
X01137Y-00322*
X01142Y-00317*
X01144Y-0031*
X01145Y-00303*
X01145Y-00297*
X01186Y-00256*
X01189Y-00251*
X0119Y-00245*
Y-00151*
X01195Y-00149*
X01205Y-00159*
Y-00334*
X012Y-00336*
X01199Y-00335*
X01191Y-00329*
X01181Y-00325*
X01171Y-00323*
X0116Y-00325*
X01151Y-00329*
X01142Y-00335*
X01136Y-00344*
X01132Y-00353*
X0113Y-00364*
X01132Y-00374*
X01136Y-00384*
X01142Y-00392*
X01151Y-00399*
X0116Y-00403*
X01171Y-00404*
X01181Y-00403*
X01191Y-00399*
X01199Y-00392*
X012Y-00391*
X01205Y-00393*
Y-00409*
X01202Y-0041*
X01197Y-00418*
X01195Y-00428*
X01197Y-00437*
X01196Y-00439*
X01194Y-00442*
X00888*
X00886Y-00438*
X0093Y-00394*
X00933Y-00389*
X00933Y-00389*
X00938Y-00387*
X00942Y-00392*
X00951Y-00399*
X0096Y-00403*
X00971Y-00404*
X00981Y-00403*
X00991Y-00399*
X00999Y-00392*
X01006Y-00384*
X0101Y-00374*
X01011Y-00364*
X0101Y-00353*
X01006Y-00344*
X01001Y-00338*
X01005Y-00334*
X01005Y-00335*
X01012Y-00337*
X01019Y-00338*
X01026Y-00337*
X01033Y-00335*
X01039Y-0033*
X01043Y-00324*
X01046Y-00318*
X01047Y-00311*
X01046Y-00303*
X01043Y-00297*
X01039Y-00291*
X01034Y-00288*
Y-00259*
X01155Y-00139*
X0116Y-00141*
G37*
G36*
X00978Y-00112D02*
X00978Y-00113D01*
X00859Y-00231*
X00856Y-00236*
X00855Y-00242*
Y-00265*
X00852Y-00267*
X00847Y-00275*
X00845Y-00285*
X00847Y-00294*
X00848Y-00295*
X00845Y-00301*
X00842Y-00303*
X0081Y-00335*
X00808Y-00338*
X00802Y-00339*
X00799Y-00335*
X00791Y-00329*
X00787Y-00327*
X00787Y-00322*
X00787Y-00321*
X00831Y-00278*
X00834Y-00273*
X00835Y-00267*
Y-00142*
X00869Y-00108*
X00976*
X00978Y-00112*
G37*
G36*
X-00278Y-0024D02*
X-00277Y-00244D01*
X-00428Y-00395*
X-0044*
X-00442Y-0039*
X-00436Y-00382*
X-00432Y-00373*
X-0043Y-00362*
X-00432Y-00352*
X-00436Y-00342*
X-00442Y-00334*
X-00451Y-00327*
X-00455Y-00325*
X-00454Y-0032*
X-00411*
X-00405Y-00319*
X-004Y-00316*
X-00323Y-00239*
X-00279*
X-00278Y-0024*
G37*
G36*
X00548Y-00331D02*
X00542Y-00335D01*
X00536Y-00344*
X00532Y-00353*
X0053Y-00364*
X00532Y-00374*
X00536Y-00384*
X00542Y-00392*
X00543Y-00393*
X00541Y-00397*
X00509*
X00504Y-00398*
X00499Y-00402*
X00495Y-00405*
X00421*
X00419Y-00403*
X00411Y-00398*
X00407Y-00397*
X00405Y-00391*
X0042Y-00376*
X00423Y-00371*
X00425Y-00365*
Y-00345*
X00444Y-00326*
X00546*
X00548Y-00331*
G37*
G36*
X01247Y-00151D02*
Y-00409D01*
X01244Y-0041*
X01244Y-00411*
X01239Y-00411*
X01238Y-0041*
X01238Y-0041*
X01238Y-0041*
X01235Y-00408*
Y-00153*
X01234Y-00147*
X01231Y-00142*
X01219Y-00131*
X01219Y-0013*
X01225Y-00129*
X01247Y-00151*
G37*
G36*
X00084Y-00314D02*
X00089Y-00318D01*
X00095Y-00319*
X00182*
X00184Y-00324*
X0018Y-00326*
X00018Y-00488*
X-00207*
X-00213Y-00489*
X-00218Y-00493*
X-00318Y-00593*
X-005*
X-00512Y-00582*
X-00516Y-00578*
X-00522Y-00577*
X-00782*
X-00788Y-00578*
X-00793Y-00582*
X-00836Y-00624*
X-00841*
X-00843Y-00623*
X-00849Y-00622*
X-009*
X-00906Y-00623*
X-00912Y-00627*
X-00916Y-00633*
X-00917Y-0064*
X-00916Y-00646*
X-00917Y-00647*
X-00918Y-00651*
X-00976*
X-00982Y-00652*
X-00987Y-00655*
X-00993Y-00661*
X-00996Y-00666*
X-00997Y-00672*
Y-00762*
X-01001Y-00765*
X-0101*
X-01011Y-00765*
X-01014Y-0076*
X-01014Y-00759*
Y-0065*
X-01015Y-00644*
X-01019Y-00639*
X-01054Y-00604*
X-01059Y-00601*
X-01059Y-006*
X-01055Y-00595*
X-01054Y-00588*
X-01055Y-00581*
X-01059Y-00576*
X-01065Y-00572*
X-01072Y-0057*
X-01122*
X-01129Y-00572*
X-01131Y-00573*
X-01213*
X-01216Y-00574*
X-01218Y-00569*
X-01202Y-00552*
X-01038*
X-01017Y-00574*
X-01012Y-00577*
X-01006Y-00578*
X-00919*
X-00916Y-00583*
X-00917Y-00588*
X-00916Y-00595*
X-00912Y-00601*
X-00906Y-00605*
X-009Y-00606*
X-00849*
X-00843Y-00605*
X-00838Y-00602*
X-00836Y-00601*
X-00831Y-00598*
X-00816Y-00583*
X-00813Y-00578*
X-00812Y-00572*
Y-00553*
X-00813Y-00548*
X-00816Y-00543*
X-00834Y-00525*
X-00833Y-00521*
X-00832Y-0052*
X-00828*
Y-00487*
X-00672*
X-00629Y-0053*
X-00624Y-00533*
X-00618Y-00534*
X-0033*
X-00324Y-00533*
X-00319Y-0053*
X-00253Y-00464*
X-00236*
X-00234Y-00466*
X-00226Y-00472*
X-00216Y-00473*
X-00206Y-00472*
X-00198Y-00466*
X-00193Y-00458*
X-00191Y-00448*
X-00193Y-00439*
X-00198Y-00431*
X-00206Y-00425*
X-00216Y-00423*
X-00226Y-00425*
X-00234Y-00431*
X-00236Y-00433*
X-00259*
X-00265Y-00434*
X-0027Y-00438*
X-00337Y-00504*
X-00344*
X-00346Y-00499*
X-00345Y-00498*
X-00261Y-00415*
X-00256Y-00407*
X-00254Y-00397*
X-00256Y-00387*
X-00261Y-00379*
X-0027Y-00373*
X-00273Y-00373*
X-00275Y-00368*
X-00275Y-00367*
X-00273Y-00357*
X-00275Y-00347*
X-0028Y-00339*
X-00288Y-00333*
X-00298Y-00331*
X-00308Y-00333*
X-00316Y-00339*
X-00392Y-00415*
X-00398*
X-004Y-0041*
X-00259Y-00269*
X00039*
X00084Y-00314*
G37*
G36*
X00302Y-00347D02*
X00303Y-00348D01*
X00308Y-00356*
X0031Y-00357*
X0031Y-00363*
X00304Y-00366*
X00298Y-00374*
X00297Y-00384*
X00298Y-00394*
X00301Y-00398*
X00301Y-00399*
X00295Y-00407*
X00293Y-00417*
X00295Y-00426*
X00295Y-00427*
X00293Y-00431*
X00233*
X00224Y-00433*
X00215Y-00438*
X00174Y-0048*
X00171Y-00479*
X0017Y-00474*
X00298Y-00346*
X00302Y-00347*
G37*
G36*
X00247Y-00486D02*
Y-00576D01*
X00258*
Y-00588*
X00248*
Y-00684*
X00256*
X00258Y-00689*
X00256Y-0069*
X00252*
X00251*
X00195*
Y-00702*
X0018*
X00171Y-00704*
X00162Y-00709*
X00157Y-00717*
X00155Y-00727*
X00157Y-00737*
X00162Y-00745*
X00171Y-00751*
X0018Y-00753*
X00183Y-00756*
Y-00812*
Y-00814*
Y-00817*
Y-00824*
X00148*
X00138Y-00826*
X00137Y-00827*
X00132Y-00825*
Y-00724*
X00172Y-00684*
X0021*
Y-00588*
X00136*
Y-00642*
X00081*
X00075Y-00643*
X0007Y-00646*
X00063Y-00653*
X0006Y-00653*
X00052Y-00654*
X00049Y-0065*
X00129Y-0057*
X0013Y-00569*
X00135Y-00571*
Y-00576*
X00209*
Y-00517*
X00242Y-00484*
X00247Y-00486*
G37*
G36*
X01569Y-00516D02*
X01581Y-00528D01*
X01597Y-00544*
Y-00553*
X01595Y-00557*
X01591Y-00566*
X0159Y-00576*
X01591Y-00585*
X01595Y-00594*
X01601Y-00602*
X01602Y-00603*
Y-00642*
X01597Y-00644*
X01596Y-00643*
X01588Y-00637*
X01578Y-00635*
X01568Y-00637*
X0156Y-00643*
X0156Y-00643*
X01489Y-00714*
X01485Y-00712*
Y-0069*
X0148*
Y-00682*
X0149*
Y-00618*
X01491Y-00613*
X01528*
X01529Y-00613*
X0153Y-00613*
X01567*
Y-00577*
X01567Y-00576*
X01567Y-00574*
Y-00538*
X01551*
X01551Y-00536*
X01545Y-00528*
X01528Y-0051*
X01519Y-00505*
X01509Y-00503*
X0149*
Y-00493*
X01546*
X01569Y-00516*
G37*
G36*
X-02403Y-00537D02*
X-02395Y-00543D01*
X-02385Y-00545*
X-02094*
Y-00608*
X-01999*
Y-00596*
X-01975*
Y-00607*
X-01953*
Y-00664*
X-02002Y-00713*
X-02208*
X-02208Y-00712*
X-02216Y-00707*
X-02224Y-00703*
X-02234Y-00702*
X-02243Y-00703*
X-02252Y-00707*
X-02259Y-00712*
X-02262Y-00716*
X-02304*
X-02314Y-00718*
X-02322Y-00724*
X-02341Y-00743*
X-02362*
X-02366Y-0074*
Y-00738*
Y-00667*
X-02379*
Y-00646*
X-02379Y-00643*
X-0238Y-00634*
X-02386Y-00625*
X-02394Y-0062*
X-024Y-00619*
X-024Y-00614*
X-02165*
X-02142Y-00637*
X-02133Y-00642*
X-02124Y-00644*
X-02114Y-00642*
X-02105Y-00637*
X-021Y-00629*
X-02098Y-00619*
X-021Y-00609*
X-02105Y-00601*
X-02136Y-0057*
X-02144Y-00565*
X-02154Y-00563*
X-02396*
X-02529Y-0043*
Y-00418*
X-02525Y-00416*
X-02403Y-00537*
G37*
G36*
X02461Y-00629D02*
X02433Y-00657D01*
X02409*
Y-00649*
X02331*
Y-00659*
X02248*
X02238Y-00661*
X02235Y-00663*
X0223Y-0066*
X02231Y-00659*
X02229Y-0065*
X02226Y-00641*
X0222Y-00634*
X02215Y-00629*
X02216Y-00624*
X02459*
X02461Y-00629*
G37*
G36*
X-01139Y-00609D02*
X-0114Y-00614D01*
X-01139Y-00621*
X-01135Y-00627*
X-01129Y-0063*
X-01122Y-00632*
X-01072*
X-0107Y-00631*
X-01045Y-00657*
Y-00679*
X-01047Y-0068*
X-0105Y-00681*
X-01054Y-00678*
X-01056Y-00673*
X-01055Y-00672*
X-01054Y-00665*
X-01055Y-00658*
X-01059Y-00652*
X-01065Y-00649*
X-01072Y-00647*
X-01122*
X-01129Y-00649*
X-01131Y-0065*
X-01167*
X-01173Y-00651*
X-01178Y-00654*
X-01196Y-00672*
X-01199Y-00677*
X-012Y-00683*
Y-00721*
X-01211Y-00732*
X-01309*
X-01311Y-00727*
X-01309Y-00724*
X-01307Y-00718*
X-01306Y-00711*
X-01306Y-00703*
X-01207Y-00604*
X-01142*
X-01139Y-00609*
G37*
G36*
X-00531Y-00864D02*
X-00534Y-00868D01*
X-00885*
X-00886Y-00868*
X-00886Y-00861*
X-00885Y-00861*
X-00533*
X-00531Y-00864*
G37*
G36*
X-01356Y-00767D02*
X-0136Y-00772D01*
X-01363Y-00779*
X-01364Y-00787*
X-01363Y-00795*
X-0136Y-00802*
X-01355Y-00808*
X-01352Y-0081*
X-01352Y-00815*
X-0136Y-00823*
X-01364Y-00828*
X-01365Y-00834*
Y-00866*
X-01375*
Y-00874*
X-0141*
Y-00866*
X-0142*
Y-00799*
X-01383Y-00762*
X-01358*
X-01356Y-00767*
G37*
%LNbrushed_pcb-4*%
%LPC*%
G36*
X-02274Y00188D02*
X-02283Y00187D01*
X-02291Y00184*
X-02298Y00179*
X-02303Y00171*
X-02307Y00163*
X-02308Y00155*
X-02307Y00146*
X-02303Y00138*
X-02298Y00131*
X-02291Y00125*
X-02283Y00122*
X-02274Y00121*
X-02265Y00122*
X-02257Y00125*
X-0225Y00131*
X-02245Y00138*
X-02241Y00146*
X-0224Y00155*
X-02241Y00163*
X-02245Y00171*
X-0225Y00179*
X-02257Y00184*
X-02265Y00187*
X-02274Y00188*
G37*
G36*
Y00031D02*
X-02283Y0003D01*
X-02291Y00026*
X-02298Y00021*
X-02303Y00014*
X-02307Y00006*
X-02308Y-00002*
X-02307Y-00011*
X-02303Y-00019*
X-02298Y-00026*
X-02291Y-00031*
X-02283Y-00035*
X-02274Y-00036*
X-02265Y-00035*
X-02257Y-00031*
X-0225Y-00026*
X-02245Y-00019*
X-02241Y-00011*
X-0224Y-00002*
X-02241Y00006*
X-02245Y00014*
X-0225Y00021*
X-02257Y00026*
X-02265Y0003*
X-02274Y00031*
G37*
G36*
X01071Y-00323D02*
X0106Y-00325D01*
X01051Y-00329*
X01042Y-00335*
X01036Y-00344*
X01032Y-00353*
X0103Y-00364*
X01032Y-00374*
X01036Y-00384*
X01042Y-00392*
X01051Y-00399*
X0106Y-00403*
X01071Y-00404*
X01081Y-00403*
X01091Y-00399*
X01099Y-00392*
X01106Y-00384*
X0111Y-00374*
X01111Y-00364*
X0111Y-00353*
X01106Y-00344*
X01099Y-00335*
X01091Y-00329*
X01081Y-00325*
X01071Y-00323*
G37*
G36*
X-02234Y-00623D02*
X-02243Y-00624D01*
X-02252Y-00628*
X-02259Y-00634*
X-02265Y-00641*
X-02268Y-0065*
X-0227Y-00659*
X-02268Y-00668*
X-02265Y-00677*
X-02259Y-00684*
X-02252Y-0069*
X-02243Y-00694*
X-02234Y-00695*
X-02224Y-00694*
X-02216Y-0069*
X-02208Y-00684*
X-02203Y-00677*
X-02199Y-00668*
X-02198Y-00659*
X-02199Y-0065*
X-02203Y-00641*
X-02208Y-00634*
X-02216Y-00628*
X-02224Y-00624*
X-02234Y-00623*
G37*
%LNbrushed_pcb-5*%
%LPD*%
G54D14*
X01019Y-00311D02*
Y-00253D01*
X-00513Y-00886D02*
X-00511D01*
X-00515Y-00884D02*
X-00513Y-00886D01*
X-00904Y-00884D02*
X-00515D01*
X-0051Y-00851D02*
X-00508D01*
X-00515Y-00845D02*
X-0051Y-00851D01*
X-00904Y-00845D02*
X-00515D01*
X01256Y00169D02*
Y00271D01*
X00251Y00501D02*
X00342Y00592D01*
X0097D02*
X01073Y0049D01*
X00342Y00592D02*
X0097D01*
X01073Y00257D02*
Y0049D01*
X01002Y-00123D02*
X01003Y-00122D01*
X0082Y-00136D02*
X00863Y-00093D01*
X01056*
X0087Y-00242D02*
X00989Y-00123D01*
X01056Y-00093D02*
X01074Y-00074D01*
X00989Y-00123D02*
X01002D01*
X0078Y-00104D02*
X00812Y-00072D01*
X01037D02*
X01047Y-00062D01*
X00812Y-00072D02*
X01037D01*
X-00145Y-00775D02*
X-00069Y-00698D01*
X00137Y-00476D02*
X00146D01*
X00701Y00237D02*
X00752Y00288D01*
X00701Y-00209D02*
Y00237D01*
X00119Y-00559D02*
Y-00494D01*
X00137Y-00476*
X00663Y-00247D02*
X00701Y-00209D01*
X00375Y-00247D02*
X00663D01*
X00146Y-00476D02*
X00375Y-00247D01*
X-0002Y-00698D02*
X00119Y-00559D01*
X-00069Y-00698D02*
X-0002D01*
X-00342Y-00775D02*
Y-00608D01*
X-00342Y-00608*
X-00244Y-00775D02*
X-00123Y-00654D01*
X-00028*
X00046Y-00579*
Y-00533*
X00223Y-00357*
X00236*
X00368Y-00226*
X00627*
X00681Y-00172*
Y00245*
X0075Y00314D02*
X00825D01*
X00681Y00245D02*
X0075Y00314D01*
X00699Y-00271D02*
X00729Y-0024D01*
X00393Y-00271D02*
X00699D01*
X00752Y00288D02*
X00825D01*
X01515Y-00024D02*
X01515Y-00023D01*
X01477Y-00024D02*
X01515D01*
X00025Y-00503D02*
X00191Y-00337D01*
X00228D02*
X00359Y-00206D01*
X00191Y-00337D02*
X00228D01*
X00231Y-00304D02*
X00306Y-00228D01*
Y00471*
X00359Y-00206D02*
X00594D01*
X00095Y-00304D02*
X00231D01*
X01047Y00257D02*
Y00448D01*
X00386Y0055D02*
X00945D01*
X01047Y00448*
X00306Y00471D02*
X00386Y0055D01*
X00349Y-00094D02*
Y00461D01*
X004Y00512*
X00558*
X00349Y-00094D02*
X00349Y-00094D01*
X00349Y-00134D02*
Y-00094D01*
Y-00134D02*
X00355Y-0014D01*
X00375*
X00251Y0017D02*
Y00501D01*
X01228Y00301D02*
X01234Y00308D01*
X01413D02*
X01598Y00123D01*
X01234Y00308D02*
X01413D01*
X01149Y00392D02*
X01189Y00433D01*
X01493*
X01678Y00248*
X012Y00318D02*
X01233Y0035D01*
X01441D02*
X01627Y00164D01*
X01233Y0035D02*
X01441D01*
X01216Y00393D02*
X01457D01*
X01175Y00257D02*
Y00352D01*
X01216Y00393*
X01457D02*
X01643Y00207D01*
X01149Y00257D02*
Y00392D01*
X012Y00257D02*
Y00318D01*
X01678Y00248D02*
X02126D01*
X02141Y00262*
Y00266*
X01643Y00207D02*
X02089D01*
X02102Y00195*
X01627Y00164D02*
X02005D01*
X02079Y0009*
X01598Y00123D02*
X01953D01*
X02079Y-00002*
X00532Y-00459D02*
X00554Y-00437D01*
X00865*
X00919Y-00384*
X0082Y-00267D02*
Y-00136D01*
X00776Y-00311D02*
X0082Y-00267D01*
X00437Y-00311D02*
X00776D01*
X0087Y-00285D02*
Y-00242D01*
X0082Y-00012D02*
X00859Y-00051D01*
X0096*
X00972Y-00039*
X01047Y-00062D02*
Y-0001D01*
X0078Y-00248D02*
Y-00104D01*
X00738Y-00291D02*
X0078Y-00248D01*
X00415Y-00291D02*
X00738D01*
X00322Y-00384D02*
X00415Y-00291D01*
X00326Y-00338D02*
X00393Y-00271D01*
X00661Y-00139D02*
Y00269D01*
X00594Y-00206D02*
X00661Y-00139D01*
X0028Y-00211D02*
Y-00133D01*
X0022Y-00271D02*
X0028Y-00211D01*
X0009Y-00271D02*
X0022D01*
X00045Y-00254D02*
X00095Y-00304D01*
X-00266Y-00254D02*
X00045D01*
X-00422Y-0041D02*
X-00266Y-00254D01*
X-00329Y-00224D02*
X00043D01*
X-00671Y-00362D02*
X-00614Y-00305D01*
X-00411D02*
X-00329Y-00224D01*
X-00614Y-00305D02*
X-00411D01*
X-01239Y-00084D02*
X00025D01*
X-01516Y-00361D02*
X-01239Y-00084D01*
X-00826Y00194D02*
X-00801D01*
X-00943Y0019D02*
X-00831D01*
X-00952Y00181D02*
X-00943Y0019D01*
X-01916Y00181D02*
X-00952D01*
X-00801Y00194D02*
X-008Y00195D01*
X-02156Y00314D02*
X-02126Y00344D01*
X-00831Y0019D02*
X-00826Y00194D01*
X-02156Y00067D02*
X-01953Y0027D01*
X-02156Y00155D02*
X-02002Y00308D01*
X-01953Y0027D02*
X-01025D01*
X-01001Y00247*
X-02057Y0004D02*
X-01916Y00181D01*
X-01Y00308D02*
X-00964Y00272D01*
X-01928Y00221D02*
X-008D01*
X-02002Y00308D02*
X-01D01*
X-00959Y00344D02*
X-00913Y00298D01*
X-02093Y00056D02*
X-01928Y00221D01*
X-02126Y00344D02*
X-00959D01*
X-00958Y00147D02*
X-00935Y0017D01*
X-01872Y00107D02*
X-00937D01*
X-02011Y-00032D02*
X-01872Y00107D01*
X-00937D02*
X-009Y00143D01*
X-00921Y00064D02*
X-00892Y00093D01*
X-02037Y0D02*
X-01889Y00147D01*
X-01848Y00064D02*
X-00921D01*
X-01889Y00147D02*
X-00958D01*
X-01969Y-00056D02*
X-01848Y00064D01*
X-02057Y-00051D02*
Y0004D01*
X-01001Y00247D02*
X-008D01*
X-00964Y00272D02*
X-008D01*
X-00913Y00298D02*
X-008D01*
X-02105Y-00099D02*
X-02057Y-00051D01*
X-02105Y-00184D02*
Y-00099D01*
X-02134Y-00213D02*
X-02105Y-00184D01*
X-02093Y-0003D02*
Y00056D01*
X-02156Y-00093D02*
X-02093Y-0003D01*
X-02156Y-00162D02*
Y-00093D01*
X-02238Y-00253D02*
X-02069D01*
X-02011Y-00195D02*
Y-00032D01*
X-02069Y-00253D02*
X-02011Y-00195D01*
X-02156Y-00002D02*
Y00067D01*
X-00935Y0017D02*
X-008D01*
X-009Y00144D02*
X-008D01*
X-009Y00143D02*
Y00144D01*
X-00892Y00093D02*
X-008D01*
X-02014Y-00273D02*
X-01969Y-00228D01*
Y-00056*
X-02202Y-00273D02*
X-02014D01*
X-02037Y-00144D02*
Y0D01*
X00918Y00393D02*
X00951D01*
X00913Y00388D02*
X00918Y00393D01*
X00893Y00417D02*
X00894Y00418D01*
X00825Y0039D02*
X00878D01*
X0088Y00388D02*
X00913D01*
X00826Y00417D02*
X00893D01*
X00825Y00416D02*
X00826Y00417D01*
X00878Y0039D02*
X0088Y00388D01*
X00951Y00393D02*
X00972Y00372D01*
X01074Y-00074D02*
Y-00061D01*
X00972Y00077D02*
Y00372D01*
X00901Y00365D02*
X00902Y00364D01*
X00938*
X-00897Y00333D02*
X-00872D01*
X00081Y-00657D02*
X00152D01*
X0006Y-00678D02*
X00081Y-00657D01*
X00609Y00461D02*
X00674D01*
X00558Y00512D02*
X00609Y00461D01*
X00598Y-0011D02*
Y00097D01*
X0063Y00129*
X00404Y-00459D02*
X00532D01*
X-01167Y-00665D02*
X-01097D01*
X-01205Y-00747D02*
X-01185Y-00727D01*
Y-00683D02*
X-01167Y-00665D01*
X-01185Y-00727D02*
Y-00683D01*
X-0139Y-00747D02*
X-01205D01*
X00547Y-00161D02*
X00598Y-0011D01*
X00555Y-00181D02*
X00631Y-00105D01*
Y00083*
X00496Y-00002D02*
X00546Y00047D01*
X00486Y00044D02*
X00526Y00084D01*
Y00211*
X00546Y00047D02*
Y00199D01*
X00145Y00035D02*
X00215D01*
X00234Y-00102D02*
Y00016D01*
X00215Y00035D02*
X00234Y00016D01*
X00025Y-00084D02*
X00145Y00035D01*
X-0135Y-00906D02*
Y-00834D01*
X-01473Y-00888D02*
Y-00802D01*
X-01263Y-00906D02*
Y-00876D01*
X-01436Y-00897D02*
Y-00793D01*
X-0139Y-00747*
X-01038Y-01014D02*
Y-01003D01*
X-0118Y-00861D02*
X-01038Y-01003D01*
X-01248Y-00861D02*
X-0118D01*
X-01263Y-00876D02*
X-01248Y-00861D01*
X-01006Y-00563D02*
X-00874D01*
X-01032Y-00537D02*
X-01006Y-00563D01*
X-01208Y-00537D02*
X-01032D01*
X-01473Y-00802D02*
X-01208Y-00537D01*
X-01334Y-00819D02*
Y-00787D01*
X-0135Y-00834D02*
X-01334Y-00819D01*
X01362Y00194D02*
X01363Y00192D01*
X01354Y00211D02*
X01362Y00203D01*
X01354Y00211D02*
Y00244D01*
X01362Y00194D02*
Y00203D01*
X00825Y00237D02*
X00885D01*
X00773D02*
X00825D01*
X00885D02*
X00947Y00175D01*
X00903Y0D02*
X00947Y00042D01*
Y00175*
X00903Y-00006D02*
Y0D01*
X00422Y-00161D02*
X00547D01*
X01328Y00204D02*
Y00257D01*
X01318Y00194D02*
X01328Y00204D01*
X01318Y00192D02*
Y00194D01*
X00903Y0011D02*
Y0019D01*
X00825Y00211D02*
X00882D01*
X00825Y0021D02*
X00825Y00211D01*
X00882D02*
X00903Y0019D01*
X00789Y00204D02*
X00795Y0021D01*
X00825*
X00789Y00204D02*
X00789D01*
X00778Y00194D02*
X00789Y00204D01*
X00764Y00194D02*
X00778D01*
X00763Y00192D02*
X00764Y00194D01*
X00422Y-00181D02*
X00555D01*
X0168Y-00024D02*
X01715D01*
X0119Y00122D02*
X0119Y00122D01*
X01213D02*
X01213Y00123D01*
X0119Y00122D02*
X01213D01*
X01169Y00122D02*
X0119D01*
X01124Y00167D02*
X01169Y00122D01*
X01124Y00167D02*
Y00257D01*
X00509Y-00413D02*
X0079D01*
X00893Y-00314D02*
X01098Y-0011D01*
X00729Y-0024D02*
Y00237D01*
X00852Y-00314D02*
X00893D01*
X0082Y-00346D02*
X00852Y-00314D01*
X0082Y-00382D02*
Y-00346D01*
X0079Y-00413D02*
X0082Y-00382D01*
X00501Y-00421D02*
X00509Y-00413D01*
X00401Y-00421D02*
X00501D01*
X01879Y-00023D02*
X01885Y-00017D01*
X01716Y-00023D02*
X01879D01*
X02079Y-00002D02*
X02128D01*
X02139Y-00013*
X01576Y-00145D02*
Y-00139D01*
X01323Y-00103D02*
X0154D01*
X01303Y-00082D02*
X01323Y-00103D01*
X0154D02*
X01576Y-00139D01*
X01303Y-00082D02*
Y-0001D01*
X01576Y-00145D02*
X01673D01*
X01716Y-00102*
Y-00023*
X01576Y-00259D02*
Y-00145D01*
X01405Y-00259D02*
X01494D01*
X01252Y-00106D02*
X01405Y-00259D01*
X01277Y-00096D02*
Y-0001D01*
X01326Y-00145D02*
X01494D01*
X01277Y-00096D02*
X01326Y-00145D01*
X00972Y-00039D02*
Y00077D01*
X01303Y-0001D02*
Y00121D01*
X00972Y00077D02*
X01298D01*
X01003Y00115D02*
X01067D01*
X01098Y00145*
X01073Y-0001D02*
X01074Y-00012D01*
Y-0006D02*
Y-00012D01*
Y-0006D02*
X01074Y-00061D01*
X01098Y-0011D02*
Y-0001D01*
Y00145D02*
Y00257D01*
X01256Y00169D02*
X01303Y00121D01*
X00826Y00365D02*
X00901D01*
X0082Y-00012D02*
Y-00006D01*
X00674Y00406D02*
Y00461D01*
X00658Y0039D02*
X00674Y00406D01*
X00451Y00446D02*
X00485D01*
X00674Y00461D02*
X00831D01*
X0096*
X01125Y0046D02*
X01126Y0046D01*
Y0061*
X01126Y0061*
X00605Y0039D02*
X00658D01*
X00318Y-00417D02*
X00358D01*
X00409Y-00339D02*
X00437Y-00311D01*
X00358Y-00417D02*
X00409Y-00365D01*
Y-00339*
X01149Y-00123D02*
Y-00046D01*
X01019Y-00253D02*
X01149Y-00123D01*
X012Y-00134D02*
X0122Y-00153D01*
Y-00428D02*
Y-00153D01*
X01262Y-00428D02*
Y-00145D01*
X01226Y-00109D02*
X01262Y-00145D01*
X00017Y-00064D02*
X00251Y0017D01*
X-00327Y00035D02*
X-00028D01*
X-00027Y00035*
X00072*
X00072Y00035*
X00074*
X-00408Y00117D02*
X-00327Y00035D01*
X00473Y-00092D02*
X00519D01*
X00395Y-00122D02*
X00499D01*
X00522Y-00094D02*
X00523D01*
X00519Y-00092D02*
X00522Y-00094D01*
X00499Y-00122D02*
X005Y-00122D01*
X00463Y-00102D02*
X00473Y-00092D01*
X00407Y-00102D02*
X00463D01*
X00451Y00044D02*
X00486D01*
X00451Y-00002D02*
X00496D01*
X00755Y00262D02*
X00825D01*
X00729Y00237D02*
X00755Y00262D01*
X00731Y00339D02*
X00825D01*
X00661Y00269D02*
X00731Y00339D01*
X00395Y-00122D02*
X00395Y-00122D01*
X012Y-00134D02*
Y-0001D01*
X01118Y-00303D02*
X01175Y-00245D01*
Y-0001*
X00919Y-00384D02*
Y-00325D01*
X01124Y-0012*
Y-0001*
X00269Y-00122D02*
X0028Y-00133D01*
X00234Y-00122D02*
X00269D01*
X00234Y-00122D02*
X00234Y-00122D01*
X00043Y-00224D02*
X0009Y-00271D01*
X-00511Y00051D02*
X-00457D01*
X-00554Y00093D02*
X-00511Y00051D01*
X-00579Y0017D02*
X-00479D01*
X-00462Y00153D02*
X-00457D01*
X-01462Y-00064D02*
X00017D01*
X-00479Y0017D02*
X-00462Y00153D01*
X-01616Y-00218D02*
X-01462Y-00064D01*
X-00861Y0005D02*
X-00657D01*
X-00487Y00104D02*
X-00459D01*
X-00457Y00102*
X-00657Y0005D02*
X-00638Y00068D01*
X-00312Y-00608D02*
X-00207Y-00503D01*
X00025*
X-00342Y-00608D02*
X-00312D01*
X-00522Y-00592D02*
X-00507Y-00608D01*
X-00782Y-00592D02*
X-00522D01*
X-00507Y-00608D02*
X-00342D01*
X-00829Y-0064D02*
X-00782Y-00592D01*
X-00874Y-0064D02*
X-00829D01*
X-00259Y-00448D02*
X-00216D01*
X-00865Y-00472D02*
X-00865Y-00472D01*
X-00865Y-00472D02*
X-00665D01*
X-0033Y-00519D02*
X-00259Y-00448D01*
X-00665Y-00472D02*
X-00618Y-00519D01*
X-0033*
X00526Y00365D02*
X00605D01*
X00536Y00339D02*
X00605D01*
X00532Y00343D02*
X00536Y00339D01*
X00451Y00343D02*
X00532D01*
X00496Y00394D02*
X00526Y00365D01*
X-02333Y-00213D02*
X-02134D01*
X-02388Y-00314D02*
Y-00268D01*
X-02333Y-00213*
X-02393Y-00318D02*
X-02388Y-00314D01*
X-00925Y-00535D02*
X-00846D01*
X-00977Y-00483D02*
X-00925Y-00535D01*
X-00977Y-00483D02*
Y-00472D01*
X-00846Y-00535D02*
X-00827Y-00553D01*
Y-00572D02*
Y-00553D01*
X-00842Y-00587D02*
X-00827Y-00572D01*
X-00857Y-00587D02*
X-00842D01*
X-00765Y-004D02*
Y-00368D01*
X-0074Y-00425D02*
X-00554D01*
X-00771Y-00362D02*
X-00765Y-00368D01*
Y-004D02*
X-0074Y-00425D01*
X-00926Y-00823D02*
Y-00813D01*
Y-00823D02*
X-00904Y-00845D01*
X-01075Y-00764D02*
Y-00762D01*
X-01047Y-0092D02*
Y-00892D01*
X-01069Y-00879D02*
X-0106D01*
X-0108Y-00868D02*
Y-00769D01*
X-01075Y-00762D02*
X-01049Y-00736D01*
X-0108Y-00769D02*
X-01075Y-00764D01*
X-0106Y-00879D02*
X-01047Y-00892D01*
X-0108Y-00868D02*
X-01069Y-00879D01*
X-00799Y0012D02*
X-00766D01*
X-00744Y00142*
X-008Y00119D02*
X-00799Y0012D01*
X-00752Y00323D02*
X-00744Y00314D01*
Y00142D02*
Y00314D01*
X-008Y00323D02*
X-00752D01*
X02102Y00195D02*
X02126D01*
X02141Y0018*
Y00172D02*
Y0018D01*
X02079Y0009D02*
X02128D01*
X02139Y00079*
X01228Y00258D02*
Y00301D01*
X01226Y00257D02*
X01228Y00258D01*
X-00539Y-0041D02*
X-00422D01*
X-00554Y-00425D02*
X-00539Y-0041D01*
X00526Y00211D02*
X00552Y00237D01*
X00506Y00226D02*
X00542Y00262D01*
X00506Y00121D02*
Y00226D01*
X0048Y00095D02*
X00506Y00121D01*
X00495Y00245D02*
X00538Y00288D01*
X00452Y00245D02*
X00495D01*
X00451Y00095D02*
X0048D01*
X00451Y00245D02*
X00452Y00245D01*
X00538Y00288D02*
X00605D01*
X00542Y00262D02*
X00605D01*
X00552Y00237D02*
X00605D01*
X00546Y00199D02*
X00558Y00211D01*
X00605*
X00451Y00296D02*
X00487D01*
X-02126Y-00233D02*
X-02037Y-00144D01*
X-00628Y00118D02*
X-00593D01*
X-00638Y00068D02*
Y00107D01*
X-00628Y00118*
X-01333Y-00711D02*
Y-00709D01*
X-01213Y-00588*
X-02334Y-00318D02*
X-0233Y-00314D01*
X-02275Y-00318D02*
X-02271Y-00314D01*
X-00926Y-00911D02*
Y-00906D01*
X-00904Y-00884*
X0082Y0011D02*
Y00185D01*
Y-00006D02*
Y0011D01*
Y00185D02*
X00821Y00186D01*
X00825*
X-00982Y-00998D02*
X-0097Y-0101D01*
X-00982Y-00998D02*
Y-00672D01*
X-00976Y-00666*
X-00827Y-00716D02*
X-00826Y-00715D01*
X-00798D02*
X-00776Y-00693D01*
X-00826Y-00715D02*
X-00798D01*
X-00874Y-00716D02*
X-00827D01*
X-01616Y-00361D02*
Y-00218D01*
X-01213Y-00588D02*
X-01097D01*
X-00408Y00117D02*
Y00357D01*
X00825Y00365D02*
X00826Y00365D01*
X-02215Y-00285D02*
X-02202Y-00273D01*
X-02216Y-00318D02*
X-02215Y-00317D01*
Y-00285*
X-02271Y-00314D02*
Y-00287D01*
X-02238Y-00253*
X-0233Y-00265D02*
X-02297Y-00233D01*
X-0233Y-00314D02*
Y-00265D01*
X01715Y-00024D02*
X01716Y-00023D01*
X01679Y-00024D02*
X0168Y-00024D01*
X01616Y-00024D02*
X01618Y-00023D01*
X01581Y-00024D02*
X01616D01*
X01476D02*
X01477Y-00024D01*
X01657Y-00024D02*
Y00018D01*
Y-00074D02*
Y-00024D01*
X01649Y-00082D02*
X01657Y-00074D01*
X01547Y-00062D02*
X01559Y-0005D01*
X01354Y-00056D02*
Y-0001D01*
X0136Y-00062D02*
X01547D01*
X01354Y-00056D02*
X0136Y-00062D01*
X01346Y-00082D02*
X01649D01*
X01328Y-00065D02*
Y-0001D01*
Y-00065D02*
X01346Y-00082D01*
X01559Y-00024D02*
Y00018D01*
Y-0005D02*
Y-00024D01*
X01454Y-00002D02*
Y00019D01*
Y-00024D02*
Y-00002D01*
X0138Y-00006D02*
X01383Y-00002D01*
X0138Y-0001D02*
Y-00006D01*
X01383Y-00002D02*
X01454D01*
X01252Y-00106D02*
Y-0001D01*
X01226Y-00109D02*
Y-0001D01*
X-00517Y00356D02*
X-00488Y00385D01*
X-00437*
X-00517Y00324D02*
Y00356D01*
X-00437Y00385D02*
X-00408Y00357D01*
X-00579Y00298D02*
X-00578Y00299D01*
X-00543D02*
X-00517Y00324D01*
X-00578Y00299D02*
X-00543D01*
X-00539Y00273D02*
X-00462Y0035D01*
X-00457*
X-01097Y-00691D02*
X-01096Y-00692D01*
X-01097Y-00614D02*
X-01096Y-00615D01*
Y-00692D02*
X-0106D01*
X-01049Y-00703*
Y-00736D02*
Y-00703D01*
X-01047Y-0092D02*
X-01038Y-00911D01*
X-01038Y-00822D02*
Y-00767D01*
X-01029Y-00759D02*
Y-0065D01*
X-01038Y-00767D02*
X-01029Y-00759D01*
X-0097Y-0101D02*
X-0093D01*
X-00926Y-01014*
X-01096Y-00615D02*
X-01065D01*
X-01029Y-0065*
X-00976Y-00666D02*
X-00875D01*
X-00874Y-00665*
X-00872Y00333D02*
X-00862Y00323D01*
X-008*
X-02297Y-00233D02*
X-02126D01*
X00505Y00314D02*
X00605D01*
X00451Y00394D02*
X00496D01*
X00487Y00296D02*
X00505Y00314D01*
X00485Y00446D02*
X00514Y00416D01*
X00605*
X-00579Y00272D02*
X-00578Y00273D01*
X-00539*
X-00459Y00297D02*
X-00457Y00299D01*
X-00487Y00297D02*
X-00459D01*
X-00537Y00247D02*
X-00487Y00297D01*
X-00579Y00247D02*
X-00537D01*
X-00489Y00248D02*
X-00457D01*
X-00515Y00221D02*
X-00489Y00248D01*
X-00579Y00221D02*
X-00515D01*
X-00579Y00195D02*
X-00467D01*
X-00462Y002*
X-00457*
X-00579Y00144D02*
X-00527D01*
X-00487Y00104*
X-00579Y00093D02*
X-00554D01*
G54D23*
X00664Y-01038D03*
X01253Y-00841D03*
X00664D03*
X01253Y-01038D03*
X01837D03*
X01834Y-00841D03*
X-02156Y00314D03*
Y00155D03*
Y-00002D03*
Y-00162D03*
G54D28*
X-00667Y-00953D03*
Y-01065D03*
X-00776Y-00953D03*
Y-01065D03*
X-00667Y-00693D03*
Y-00805D03*
X-00776Y-00693D03*
Y-00805D03*
X-01927Y-0057D03*
Y-00458D03*
X-02047Y-00571D03*
Y-00459D03*
G54D53*
X0005Y-00775D03*
X-00047D03*
X-00145D03*
X-00244D03*
X-00342D03*
X01047Y-00576D03*
X01145D03*
X01244D03*
X-0034Y-01032D03*
X-00242D03*
X-00143D03*
X-00045D03*
X00052D03*
X00655Y-00576D03*
X00557D03*
X00458D03*
X01824D03*
X01726D03*
X01627D03*
G54D54*
X-00441Y-00775D03*
X00948Y-00576D03*
X-00439Y-01032D03*
X0036Y-00576D03*
X01529D03*
G54D57*
X00349Y-01038D03*
X00428D03*
X00507D03*
X00585D03*
X-02274Y-00162D03*
Y00155D03*
Y00314D03*
Y-00002D03*
X-02215Y00314D03*
Y00155D03*
Y-00002D03*
Y-00162D03*
X00938Y-00841D03*
X01017D03*
X01096D03*
X01175D03*
X00585D03*
X00507D03*
X00428D03*
X00349D03*
X01175Y-01038D03*
X01096D03*
X01017D03*
X00938D03*
X01759D03*
X0168D03*
X01601D03*
X01523D03*
X01755Y-00841D03*
X01677D03*
X01598D03*
X01519D03*
G54D65*
X-00202Y-00564D03*
X-00143D03*
X-00084D03*
G54D66*
X-00025Y-00564D03*
G54D71*
X-00877Y00784D02*
D01*
X-0088Y00775*
X-00881Y00769*
X-01077Y00777D02*
D01*
X-01077Y00776*
X-01078Y00774*
X-01079Y00772*
X-01079Y00771*
X-0108Y00769*
X00785Y00813D02*
D01*
X00779Y00806*
X00774Y00798*
X0077Y0079*
X00767Y00782*
X00763Y00774*
X00762Y00768*
X00586Y00814D02*
D01*
X0058Y00807*
X00575Y008*
X00571Y00792*
X00567Y00784*
X00564Y00776*
X00561Y00767*
X01409Y00698D02*
D01*
X01412Y00689*
X01415Y00681*
X01419Y00673*
X01423Y00665*
X01424Y00664*
X01533Y00732D02*
X01566Y00765D01*
X01533Y00732D02*
X016D01*
X00097Y00843D02*
X00098Y01042D01*
X-0069Y0074D02*
X-00687Y00745D01*
X-00642Y00842*
X-00756Y0074D02*
X-0071Y00781D01*
X-00642Y00842*
X-00756Y0074D02*
X-0069D01*
X-0089Y00733D02*
X-00889Y00738D01*
X-0089Y00733D02*
X-00888Y00741D01*
X-00881Y00769*
X-00877Y00784D02*
X-00787Y01033D01*
X-00956Y00733D02*
X-00934Y00773D01*
X-00787Y01033*
X-00956Y00733D02*
X-0089D01*
X-0109Y00734D02*
X-01087Y00742D01*
X-0108Y00769*
X-01077Y00777D02*
X-00984Y01033D01*
X-01156Y00734D02*
X-01134Y00773D01*
X-00984Y01033*
X-01156Y00734D02*
X-0109D01*
X01014Y0082D02*
X01038Y00836D01*
X00979Y00796D02*
X01014Y0082D01*
X0096Y00748D02*
X00982Y00786D01*
X00952Y00733D02*
X00957Y00743D01*
X-01543Y0078D02*
X-01446Y00843D01*
X-01531Y00748D02*
X-01502Y00793D01*
X-01602Y00742D02*
X-01543Y0078D01*
X-01535Y00742D02*
X-01531Y00748D01*
X00977Y00795D02*
X00979Y00796D01*
X00945Y00774D02*
X00977Y00795D01*
X00957Y00743D02*
X0096Y00748D01*
X00957Y00743D02*
D01*
X00945Y00774D02*
D01*
X00957Y00743D02*
D01*
X00885Y00733D02*
X00952D01*
X00931Y00764D02*
X00945Y00774D01*
X00885Y00733D02*
X00931Y00764D01*
X01038Y00836D02*
X01171Y00841D01*
X00785Y00813D02*
X00862Y00911D01*
X00752Y00733D02*
X00754Y0074D01*
X00762Y00768*
X00862Y00911D02*
X00984Y01033D01*
X00685Y00733D02*
X00729Y00777D01*
X00984Y01033*
X00685Y00733D02*
X00752D01*
X00586Y00814D02*
X00665Y00912D01*
X00552Y00733D02*
X00554Y0074D01*
X00561Y00767*
X00665Y00912D02*
X00787Y01033D01*
X00485Y00733D02*
X00529Y00777D01*
X00787Y01033*
X00485Y00733D02*
X00552D01*
X-01326Y00843D02*
X-01325Y00842D01*
X-01446Y00843D02*
X-01326D01*
X-01602Y00742D02*
X-01535D01*
X01413Y00653D02*
X01462Y00604D01*
X014Y0073D02*
X01409Y00698D01*
X01368Y00698D02*
X01413Y00653D01*
X02247Y00604D02*
X02263Y00588D01*
X01424Y00664D02*
X01462Y00604D01*
X01333Y00733D02*
X014D01*
X01462Y00604D02*
X02247D01*
X01333Y00733D02*
X01368Y00698D01*
X01577Y00776D02*
X01647Y00846D01*
X02202D02*
X02263Y00784D01*
X01566Y00765D02*
X01577Y00776D01*
X01604Y00741D02*
X01647Y00846D01*
X02202*
X-0089Y00733D02*
X-00889Y00738D01*
X-02263Y00589D02*
X-01831D01*
X-01799Y007*
X-01831Y00589D02*
X-01758Y007D01*
X-01802Y00735D02*
X-01735D01*
X-01758Y007D02*
X-01735Y00735D01*
X-02215Y00738D02*
X-02214Y00738D01*
X-02263Y00786D02*
X-02215Y00738D01*
X-02211Y00736D02*
X-01935D01*
G54D72*
X01885Y-00083D02*
X01931Y-00128D01*
X02132*
X01885Y-00083D02*
Y-00017D01*
X02026Y-00566D02*
Y-00496D01*
Y-00566D02*
X02027Y-00566D01*
X02137Y-00496D02*
Y-00134D01*
Y-00599D02*
Y-00496D01*
X02088D02*
X02137D01*
X02016Y-00841D02*
X02137Y-0072D01*
Y-00599*
X02471*
X0256Y-00566D02*
Y00103D01*
X02444Y-00682D02*
X0256Y-00566D01*
X02511Y00152D02*
X0256Y00103D01*
X02429Y00224D02*
X02457Y00195D01*
X0237Y-00685D02*
X02373Y-00682D01*
X02444*
X02498Y-00572D02*
Y-00499D01*
X02471Y-00599D02*
X02498Y-00572D01*
X01834Y-00841D02*
X02016D01*
X02457Y-00359D02*
X025Y-00402D01*
Y-00498D02*
Y-00402D01*
X-00581Y-00805D02*
X-0047D01*
X-00667D02*
X-00581D01*
X-0047D02*
X-00441Y-00775D01*
X0237Y-00841D02*
Y-00762D01*
Y-00841D02*
X02372D01*
X02369Y-00685D02*
X0237Y-00685D01*
X02248Y-00685D02*
X02369D01*
X02195Y-00738D02*
X02248Y-00685D01*
X02617Y00391D02*
X02618Y0039D01*
X02617Y00391D02*
Y00459D01*
X02605Y00525D02*
X02617Y00536D01*
X02515Y00494D02*
X02542D01*
X02572Y00525D02*
X02605D01*
X02542Y00494D02*
X02572Y00525D01*
X02446Y00494D02*
X02515D01*
X00566Y-00468D02*
X01557D01*
X01889Y00326D02*
X02001D01*
X02033Y00359D02*
X02126D01*
X02001Y00326D02*
X02033Y00359D01*
X-00244Y-00775D02*
X-00242Y-00777D01*
Y-01032D02*
Y-00777D01*
X-00145Y-0103D02*
X-00143Y-01032D01*
X-00145Y-0103D02*
Y-00775D01*
X-00341Y-01031D02*
Y-00776D01*
Y-01031D02*
X-0034Y-01032D01*
X01885Y00278D02*
Y00323D01*
X00458Y-00576D02*
X00566Y-00468D01*
X00457Y-00577D02*
X00458Y-00576D01*
X-02555Y-0044D02*
X-02407Y-00588D01*
X-02385Y-00519D02*
X-01822D01*
X-02511Y-00393D02*
X-02385Y-00519D01*
X-02154Y-00588D02*
X-02124Y-00619D01*
X-02407Y-00588D02*
X-02154D01*
X-00971Y-00362D02*
X-00802Y-00194D01*
X00056*
X-0109Y-00114D02*
X00055D01*
X-01258Y-00385D02*
Y-00282D01*
X-0109Y-00114*
X-0157Y-00034D02*
X-00174D01*
X-01816Y-0028D02*
X-0157Y-00034D01*
X-01816Y-00361D02*
Y-0028D01*
X02181Y00477D02*
X0219Y00467D01*
X02322*
X01798Y0052D02*
X01811Y00507D01*
X01783Y0052D02*
X01798D01*
X01885Y00323D02*
X01889Y00326D01*
X-00381Y-0044D02*
X-00298Y-00357D01*
X-00527Y-0044D02*
X-00381D01*
X-00363Y-0048D02*
X-00279Y-00397D01*
X-00528Y-0048D02*
X-00363D01*
X-00851Y-00944D02*
X-00791D01*
X-00789Y-00946*
X-01761Y-01062D02*
Y-0058D01*
X-01822Y-00519D02*
X-01761Y-0058D01*
X-01161Y00401D02*
X-01053Y00509D01*
X-0226Y00401D02*
X-01161D01*
X-02555Y00107D02*
X-0226Y00401D01*
X-01646Y-00532D02*
X-01407D01*
X-01389Y-00515*
X-01311Y-00524D02*
Y-00473D01*
X-01393Y-01009D02*
Y-00914D01*
X-01311Y-00473D02*
X-01307Y-00469D01*
X-01306*
X-01393Y-01009D02*
X-01367Y-01035D01*
X-01362*
X-0139Y-00603D02*
X-01311Y-00524D01*
X-01437Y-00603D02*
X-0139D01*
X-01664Y-00715D02*
Y-00506D01*
X02511Y00152D02*
Y00491D01*
X-00492Y00874D02*
X-00468Y0085D01*
X-00492Y00874D02*
Y00984D01*
X-00468Y0085D02*
X-00409D01*
X-00521Y00576D02*
X-00492Y00547D01*
X-00527Y00576D02*
X-00521D01*
X-00492Y00547D02*
X-00443D01*
X-00383Y00564D02*
Y00824D01*
X-00401Y00547D02*
X-00383Y00564D01*
X-00443Y00547D02*
X-00401D01*
X00208Y-01065D02*
X00214D01*
X00153Y-01101D02*
X00171D01*
X00208Y-01065*
X01557Y-00468D02*
X01587Y-00498D01*
X01623Y-00571D02*
X01627Y-00576D01*
X01623Y-00571D02*
Y-00534D01*
X01587Y-00498D02*
X01599Y-0051D01*
X01623Y-00534*
X01047Y-00576D02*
Y-00471D01*
X01627Y-00678D02*
Y-00576D01*
X01596Y-00839D02*
Y-00709D01*
Y-00839D02*
X01598Y-00841D01*
X01596Y-00709D02*
X01627Y-00678D01*
X016Y-01036D02*
Y-00843D01*
Y-01036D02*
X01601Y-01038D01*
X01598Y-00841D02*
X016Y-00843D01*
X01047Y-007D02*
Y-00576D01*
X01015Y-00839D02*
Y-00731D01*
X01047Y-007*
X01017Y-00841D02*
D01*
Y-01038D02*
Y-00841D01*
X01015Y-00839D02*
X01017Y-00841D01*
X00457Y-00691D02*
Y-00577D01*
X00428Y-0072D02*
X00457Y-00691D01*
X00428Y-00841D02*
Y-0072D01*
Y-01038D02*
Y-00841D01*
X01726Y-00705D02*
Y-00576D01*
X01677Y-00754D02*
X01726Y-00705D01*
X01145Y-00576D02*
X01148Y-00578D01*
Y-00713D02*
Y-00578D01*
X01096Y-00765D02*
X01148Y-00713D01*
X01096Y-00841D02*
Y-00765D01*
X01677Y-00841D02*
X01678Y-00843D01*
X01677Y-00841D02*
Y-00754D01*
X01678Y-01036D02*
Y-00843D01*
X0168Y-01038D02*
X01681Y-01039D01*
Y-01078D02*
Y-01039D01*
X01678Y-01036D02*
X0168Y-01038D01*
X01652Y-01107D02*
X01681Y-01078D01*
X01096Y-00841D02*
D01*
Y-01038D02*
Y-00841D01*
X01099Y-01098D02*
X01108Y-01107D01*
X01652*
X01096Y-01038D02*
X01099Y-01041D01*
Y-01098D02*
Y-01041D01*
X00559Y-00709D02*
Y-00578D01*
X00507Y-00762D02*
X00559Y-00709D01*
X00737Y-01105D02*
X00739Y-01107D01*
X01108*
X00507Y-01038D02*
X00574Y-01105D01*
X00737*
X00557Y-00576D02*
X00559Y-00578D01*
X00507Y-00841D02*
Y-00762D01*
Y-01038D02*
Y-00841D01*
X02132Y-00128D02*
X02137Y-00134D01*
X02278D02*
X02279Y-00133D01*
X0222Y-00134D02*
X02278D01*
X02398Y-00499D02*
Y-00363D01*
X01885Y-00017D02*
Y00082D01*
X015Y-0074D02*
X01578Y-00661D01*
Y-00661*
X01345Y-00703D02*
Y-00699D01*
Y-00703D02*
X01358Y-00715D01*
X01391*
X01428Y-00884D02*
X01442D01*
X01403Y-0086D02*
X01428Y-00884D01*
X02322Y00467D02*
X02348Y00494D01*
X02446*
X02511Y00491D02*
X02515Y00494D01*
X01395Y-00725D02*
Y-00719D01*
X01391Y-00715D02*
X01395Y-00719D01*
X01253Y-00841D02*
Y-00663D01*
X01282Y-00635D02*
X01341D01*
X01253Y-00663D02*
X01282Y-00635D01*
X-00667Y-00693D02*
Y-00628D01*
X-00668Y-00628D02*
X-00667Y-00628D01*
X-00581Y-00708D02*
Y-00659D01*
X01332Y-00519D02*
X01341Y-00528D01*
X01275Y-00519D02*
X01332D01*
X00889Y-00908D02*
X00904Y-00924D01*
X00973*
X00805Y-0087D02*
X00811Y-00864D01*
X00745Y-0087D02*
X00805D01*
X00745Y-0087D02*
X00745Y-0087D01*
X00752Y-00727D02*
X00807D01*
X00734Y-0071D02*
Y-00709D01*
Y-0071D02*
X00752Y-00727D01*
X00664Y-00841D02*
Y-00673D01*
X00703Y-00635D02*
X0076D01*
X00664Y-00673D02*
X00703Y-00635D01*
X00808Y-00729D02*
X0081D01*
X00807Y-00727D02*
X00808Y-00729D01*
X00233Y-00456D02*
X00338D01*
X00397Y-00515*
X00172Y-00518D02*
X00233Y-00456D01*
X00748Y-00515D02*
X0076Y-00527D01*
Y-00528D02*
Y-00527D01*
X007Y-00515D02*
X00748D01*
X00172Y-00528D02*
Y-00518D01*
X-00409Y0085D02*
X-00383Y00824D01*
X-00158Y00005D02*
X-00158Y00005D01*
X-00124*
X-01835Y00005D02*
X-00158D01*
X00055Y-00114D02*
X00125Y-00043D01*
X-01916Y-00075D02*
X-01835Y00005D01*
X00081Y-00154D02*
X00123Y-00195D01*
X00056Y-00194D02*
X00103Y-00241D01*
X-01071Y-00251D02*
X-00973Y-00154D01*
X00081*
X00147Y-00851D02*
X00148Y-00849D01*
X00212*
X00212Y-0085*
X00141Y-00993D02*
Y-00946D01*
X00107Y-00912D02*
X00141Y-00946D01*
X00107Y-00713D02*
X00173Y-00647D01*
Y-00636*
X00107Y-00912D02*
Y-00713D01*
X-00581Y-0096D02*
Y-00914D01*
X00103Y-00241D02*
X00173D01*
X-02348Y00241D02*
X-0214D01*
X-02511Y00078D02*
X-02348Y00241D01*
X-02511Y-00393D02*
Y00078D01*
X-0214Y00241D02*
X-02114Y00267D01*
X-02555Y-0044D02*
Y00107D01*
X-02234Y-00738D02*
X-02233Y-00739D01*
X-02304Y-00742D02*
X-02238D01*
X-02393Y-00769D02*
X-02331D01*
X-02238Y-00742D02*
X-02234Y-00738D01*
X-02331Y-00769D02*
X-02304Y-00742D01*
X-02404Y-0078D02*
X-02393Y-00769D01*
X-02233Y-00739D02*
X-01991D01*
X-01927Y-00675*
X-01299Y-00426D02*
X-01258Y-00385D01*
X-01369Y-00426D02*
X-01299D01*
X-01389Y-00446D02*
X-01369Y-00426D01*
X-01389Y-00515D02*
Y-00446D01*
X-00566Y00362D02*
X-00527Y00401D01*
Y00493*
X-00649Y00362D02*
X-00566D01*
X-00685Y00326D02*
X-00649Y00362D01*
X01811Y00507D02*
X01889D01*
X01964Y00492D02*
X01975D01*
X01893Y00504D02*
X01953D01*
X01981Y00476D02*
Y00487D01*
X01975Y00492D02*
X01981Y00487D01*
X01953Y00504D02*
X01964Y00492D01*
X01889Y00507D02*
X01893Y00504D01*
X0132Y-01061D02*
X01323Y-01057D01*
X01395*
X-01053Y00509D02*
X-0089D01*
X-02404Y-00644D02*
X-02404Y-00643D01*
X-00685Y0009D02*
Y00326D01*
X00308Y-01002D02*
X00345Y-01038D01*
X00216Y-01002D02*
X00308D01*
X00345Y-01038D02*
X00349D01*
X00664D02*
Y-00841D01*
X-02045Y-0046D02*
X-01826D01*
X-02047Y-00459D02*
X-02045Y-0046D01*
X-01928Y-0057D02*
X-01927Y-0057D01*
X-02046Y-0057D02*
X-01928D01*
X-02047Y-00571D02*
X-02046Y-0057D01*
X-01927Y-00675D02*
Y-0057D01*
X-00883Y00521D02*
X-00799D01*
X-00859Y00576D02*
X-00527D01*
X-00882Y00552D02*
X-00859Y00576D01*
X-00882Y00522D02*
Y00552D01*
X-00776Y-00633D02*
X-00774Y-00632D01*
X-00776Y-00693D02*
Y-00633D01*
X-01071Y-00362D02*
Y-00251D01*
X-00581Y-01065D02*
X-00472D01*
X00731Y-01063D02*
X00805D01*
X00729Y-01065D02*
X00731Y-01063D01*
X-00668Y-01009D02*
Y-00953D01*
X-00472Y-01065D02*
X-00439Y-01032D01*
X-00668Y-01065D02*
X-00581D01*
X-00774D02*
X-00668D01*
X-00776Y-00805D02*
X-00667D01*
X02216Y00266D02*
X02273D01*
X02222Y-00012D02*
X02279D01*
X0222Y00077D02*
X02277D01*
X02216Y00172D02*
X02273D01*
X0231Y-00444D02*
Y-00369D01*
X02304Y-00494D02*
Y-0045D01*
X02298Y-00499D02*
X02304Y-00494D01*
Y-0045D02*
X0231Y-00444D01*
X02498Y-00499D02*
X025Y-00498D01*
X-01916Y-00361D02*
Y-00075D01*
X-00527Y00493D02*
X-00525Y00496D01*
X-00443*
X-00633Y00509D02*
X-00625Y00501D01*
X-00636Y00512D02*
X-00633Y00509D01*
X-00625Y00501D02*
X-00535D01*
X-00527Y00493*
X-00721Y00512D02*
X-00636D01*
X-00724Y00515D02*
X-00721Y00512D01*
X-0252Y00489D02*
X-02456D01*
X-02611Y0046D02*
X-02549D01*
X-02456Y00489D02*
X-02452Y00493D01*
X-02549Y0046D02*
X-0252Y00489D01*
X-02623Y00448D02*
X-02611Y0046D01*
X-02404Y-00703D02*
Y-00644D01*
X-02623Y00528D02*
Y00596D01*
X-02624Y00598D02*
X-02623Y00596D01*
X01253Y-01038D02*
Y-00841D01*
X01834D02*
X01836Y-00843D01*
Y-01036D02*
Y-00843D01*
Y-01036D02*
X01837Y-01038D01*
X0018Y-00727D02*
X00222D01*
X00224Y-00725*
X00285Y-00724D02*
Y-00636D01*
X00874Y-00724D02*
Y-00636D01*
X01455Y-00724D02*
Y-00636D01*
Y-00724D02*
X01456Y-00725D01*
X01453Y-00635D02*
X01455Y-00636D01*
X00345Y-00841D02*
X00349D01*
X00222Y-00799D02*
X00302D01*
X00345Y-00841*
X00934Y-01038D02*
X00938D01*
X00811Y-00996D02*
X00892D01*
X00934Y-01038*
Y-00841D02*
X00938D01*
X00811Y-00799D02*
X00892D01*
X00934Y-00841*
X01515D02*
X01519D01*
X01392Y-00799D02*
X01472D01*
X01515Y-00841*
X01476Y-00996D02*
X01518Y-01038D01*
X01395Y-00996D02*
X01476D01*
X01518Y-01038D02*
X01523D01*
X00872Y-00635D02*
Y-00528D01*
X00946Y-00574D02*
X00948Y-00576D01*
X00929Y-00528D02*
X00946Y-00546D01*
X00872Y-00528D02*
X00929D01*
X00946Y-00574D02*
Y-00546D01*
X01453Y-00635D02*
Y-00528D01*
X01527Y-00574D02*
X01529Y-00576D01*
X01509Y-00528D02*
X01527Y-00546D01*
X01453Y-00528D02*
X01509D01*
X01527Y-00574D02*
Y-00546D01*
X00358Y-00574D02*
Y-00546D01*
X00284Y-00528D02*
X0034D01*
X00358Y-00546*
Y-00574D02*
X0036Y-00576D01*
X00284Y-00635D02*
Y-00528D01*
X02389Y-00369D02*
X02389Y-00368D01*
G54D73*
X-00098Y01042D03*
X00098D03*
X-02263Y00589D03*
Y00786D03*
X-00984Y01033D03*
X-00787D03*
X00984D03*
X00787D03*
X02263Y00787D03*
Y0059D03*
G54D74*
X-01716Y00738D03*
X-01816Y00738D03*
X-01916Y00738D03*
X-02016D03*
X-01071Y00737D03*
X-01171D03*
X-00871D03*
X-00971Y00736D03*
X00771Y00735D03*
X00671Y00734D03*
X00571Y00735D03*
X00471D03*
X01618D03*
X01518Y00734D03*
X01418Y00735D03*
X01318D03*
X-01316Y-00361D03*
X-01416D03*
X-01516D03*
X-01616D03*
X-01716D03*
X-01816D03*
X-01916D03*
X-02016D03*
X-01616Y00738D03*
X-01416D03*
X-01316D03*
X-01516D03*
X-00471Y-00362D03*
X-00571D03*
X-00671D03*
X-00771D03*
X-00871D03*
X-00971D03*
X-01071D03*
X-01171D03*
X-00771Y00737D03*
X-00571D03*
X-00471D03*
X-00671D03*
X01171Y-00364D03*
X01071D03*
X00971D03*
X00871D03*
X00771D03*
X00671D03*
X00571D03*
X00471D03*
X00871Y00735D03*
X01071D03*
X01171D03*
X00971D03*
X02018Y-00364D03*
X01918D03*
X01818D03*
X01718D03*
X01618D03*
X01518D03*
X01418D03*
X01318D03*
X01718Y00735D03*
X01918D03*
X02018D03*
X01818D03*
G54D75*
X0Y-0037D03*
X01873Y01062D03*
X-02579Y-00824D03*
X02579D03*
Y0083D03*
X-01873Y01062D03*
X-02579Y0083D03*
G54D76*
X02198Y-00499D03*
X02298D03*
X02398D03*
X02231Y-00369D03*
X02388D03*
X0231D03*
X-00492Y01084D03*
G54D77*
X02498Y-00499D03*
X02467Y-00369D03*
G54D78*
X-02452Y-00318D03*
X-02393D03*
X-02334D03*
X-02275D03*
X-02216D03*
X-02157D03*
G54D79*
X02446Y00573D03*
Y00494D03*
X-02234Y-00738D03*
Y-00659D03*
X-02452Y00414D03*
Y00493D03*
X02195Y-00659D03*
Y-00738D03*
G54D80*
X02446Y00415D03*
X-02234Y-00816D03*
X-02452Y00572D03*
X02195Y-00816D03*
G54D81*
X-00031Y00241D03*
X-00086D03*
X-00031Y00296D03*
X-00086D03*
X-00031Y00351D03*
X-00086D03*
X-00003Y00269D03*
X-00059D03*
X-00114D03*
X-00003Y00324D03*
X-00114D03*
X-00059D03*
X-00508Y-00851D03*
X-00511Y-00886D03*
X02618Y0039D03*
X01003Y-00122D03*
X01515Y-00023D03*
X01885Y00278D03*
X02181Y00477D03*
X01783Y0052D03*
X00894Y00418D03*
X00938Y00364D03*
X-00298Y-00357D03*
X-00279Y-00397D03*
X-00851Y-00944D03*
X-00528Y-0048D03*
X-00897Y00333D03*
X0006Y-00678D03*
X-01761Y-01062D03*
X00404Y-00459D03*
X00631Y00083D03*
X0063Y00129D03*
X-01664Y-00506D03*
X-02124Y-00619D03*
X00153Y-01101D03*
X01363Y00192D03*
X00766Y00232D03*
X01318Y00192D03*
X00763D03*
X02511Y00152D03*
X02429Y00224D03*
X02279Y-00133D03*
X01716Y-00023D03*
X01213Y00123D03*
X01885Y00082D03*
X01003Y00115D03*
X0087Y-00285D03*
X01578Y-00661D03*
X015Y-0074D03*
X01345Y-00699D03*
X01442Y-00884D03*
X01126Y0061D03*
X01125Y0046D03*
X0096Y00461D03*
X-00668Y-00628D03*
X-00581Y-00659D03*
X01275Y-00519D03*
X00973Y-00924D03*
X00889Y-00908D03*
X00745Y-0087D03*
X00734Y-00709D03*
X00322Y-00384D03*
X00318Y-00417D03*
X007Y-00515D03*
X00397D03*
X01262Y-00428D03*
X0122D03*
X-00124Y00005D03*
X005Y-00122D03*
X00523Y-00094D03*
X00401Y-00421D03*
X00326Y-00338D03*
X-00174Y-00034D03*
X-00867Y00052D03*
X00125Y-00043D03*
X-00216Y-00448D03*
X00074Y00035D03*
X00147Y-00851D03*
X00141Y-00993D03*
X-00581Y-00914D03*
X00173Y-00241D03*
X00123Y-00195D03*
X-02114Y00267D03*
X0132Y-01061D03*
X-00527Y-0044D03*
X-01362Y-01035D03*
X-02404Y-00643D03*
X-00685Y0009D03*
X-01826Y-0046D03*
X-00774Y-00632D03*
X00729Y-01065D03*
X-00668Y-01009D03*
X-01437Y-00603D03*
X02273Y00266D03*
X02279Y-00012D03*
X02277Y00077D03*
X02273Y00172D03*
X01618Y-00023D03*
X-02624Y00598D03*
X0018Y-00727D03*
G54D82*
X-00492Y00984D03*
G54D83*
X02027Y-00566D03*
X02372Y-00841D03*
X00451Y-00002D03*
Y00296D03*
Y00446D03*
X-00457Y00102D03*
Y00153D03*
Y00051D03*
X00451Y00044D03*
Y00095D03*
Y00245D03*
Y00343D03*
X-01334Y-00787D03*
X-00457Y0035D03*
X00451Y00394D03*
X-00443Y00496D03*
Y00547D03*
X-00457Y002D03*
Y00248D03*
Y00299D03*
G54D84*
X01019Y-00311D03*
X0054Y00453D03*
X-00503Y-00715D03*
X-00748Y-00551D03*
X-01219Y-00674D03*
X00465Y-00054D03*
X-01604Y-01041D03*
X-00254Y00085D03*
X00183Y0D03*
X-00641Y00224D03*
X01118Y-00303D03*
X-01333Y-00711D03*
G54D85*
X00097Y00842D03*
X-00642Y00842D03*
X01171Y00841D03*
X-01325Y00842D03*
G54D86*
X02026Y-00496D03*
X02088D03*
X0081Y-00729D03*
X00871D03*
X00224Y-00725D03*
X00285D03*
X01395D03*
X01456D03*
G54D87*
X0237Y-00685D03*
Y-00762D03*
X02617Y00536D03*
Y00459D03*
X-02404Y-00703D03*
Y-0078D03*
X-02623Y00448D03*
Y00525D03*
G54D88*
X-00874Y-00716D03*
Y-00691D03*
Y-00665D03*
Y-0064D03*
Y-00614D03*
Y-00588D03*
Y-00563D03*
X-01097D03*
Y-00588D03*
Y-00614D03*
Y-0064D03*
Y-00665D03*
Y-00691D03*
G54D89*
X-01097Y-00716D03*
G54D90*
X-0122Y-00906D03*
X-01263D03*
X-01306Y-00914D03*
X-0135Y-00906D03*
X-01393Y-00914D03*
X-01436Y-00906D03*
X-01479Y-0089D03*
X-01523Y-00906D03*
G54D91*
X-01251Y-00478D03*
X-01476D03*
G54D92*
X-01306Y-00469D03*
G54D93*
X-01188Y-00996D03*
X-01706Y-01035D03*
G54D94*
X0222Y-00134D03*
X02137D03*
X00903Y-00006D03*
X0082D03*
X00903Y0011D03*
X0082D03*
X01494Y-00259D03*
X01576D03*
X01494Y-00145D03*
X01576D03*
G54D95*
X00395Y-00181D03*
Y-00161D03*
X00234Y-00181D03*
Y-00161D03*
Y-00141D03*
Y-00122D03*
Y-00102D03*
X00395Y-00141D03*
Y-00122D03*
Y-00102D03*
G54D96*
X-01663Y-00791D03*
Y-00716D03*
X-00633Y00509D03*
Y00435D03*
X-00887Y00509D03*
Y00435D03*
G54D97*
X00825Y00211D03*
Y00237D03*
Y00262D03*
Y00288D03*
Y00314D03*
Y00339D03*
Y00365D03*
Y00416D03*
X00605Y00186D03*
Y00211D03*
Y00237D03*
Y00262D03*
Y00288D03*
Y00314D03*
Y00339D03*
Y00365D03*
Y0039D03*
Y00416D03*
X00825Y0039D03*
Y00186D03*
X-008Y00119D03*
Y00323D03*
X-00579Y00093D03*
Y00119D03*
Y00144D03*
Y0017D03*
Y00195D03*
Y00221D03*
Y00247D03*
Y00272D03*
Y00298D03*
Y00323D03*
X-008Y00093D03*
Y00144D03*
Y0017D03*
Y00195D03*
Y00221D03*
Y00247D03*
Y00272D03*
Y00298D03*
G54D98*
X-00581Y-00708D03*
Y-008D03*
Y-01052D03*
Y-0096D03*
G54D99*
X02141Y00266D03*
X02216D03*
X02141Y00172D03*
X02216D03*
X02139Y00079D03*
X02214D03*
X02139Y-00013D03*
X02214D03*
G54D100*
X01476Y-00024D03*
X01454D03*
X01581D03*
X01559D03*
Y00018D03*
X01581D03*
X01679Y-00024D03*
X01657D03*
Y00018D03*
X01679D03*
X01454Y00019D03*
X01476D03*
G54D101*
X-00724Y0046D03*
Y00515D03*
G54D102*
X-01038Y-00813D03*
X-00926D03*
X-01038Y-00911D03*
X-00926D03*
Y-01014D03*
X-01038D03*
X-00977Y-00472D03*
X-00865D03*
X01341Y-00635D03*
X00173Y-00636D03*
X0076Y-00635D03*
Y-00528D03*
X00872D03*
X00172D03*
X00284D03*
X01341D03*
X01453D03*
X00872Y-00635D03*
X00285Y-00636D03*
X01453Y-00635D03*
G54D103*
X02126Y00359D03*
X02243D03*
X02097Y00476D03*
X01981D03*
G54D104*
X01889Y00326D03*
Y00507D03*
Y00417D03*
G54D105*
X01252Y00257D03*
X01303Y-0001D03*
X01047Y00257D03*
X01073D03*
X01098D03*
X01124D03*
X01149D03*
X01175D03*
X012D03*
X01226D03*
X01277D03*
X01303D03*
X01328D03*
X01354D03*
X0138D03*
X01047Y-0001D03*
X01073D03*
X01098D03*
X01124D03*
X01149D03*
X01175D03*
X012D03*
X01226D03*
X01252D03*
X01277D03*
X01328D03*
X01354D03*
X0138D03*
G54D106*
X00218Y-00785D03*
Y-00846D03*
X00216Y-01063D03*
Y-01002D03*
X00805D03*
Y-01063D03*
Y-00805D03*
Y-00866D03*
X01395Y-00857D03*
Y-00796D03*
Y-01057D03*
Y-00996D03*
G54D107*
X01661Y00417D03*
G54D108*
X-00527Y00576D03*
Y00493D03*
G54D109*
X-00799Y00442D03*
Y00521D03*
M02*