%FSTAX23Y23*%
%MOIN*%
%SFA1B1*%

%IPPOS*%
%ADD12C,0.007874*%
%LNbrushed_pcb_bottom_3d_body-1*%
%LPD*%
G54D12*
X-01072Y-00738D02*
Y-00541D01*
X-00899*
Y-00738D02*
Y-00541D01*
X-01072Y-00738D02*
X-00899D01*
X02139Y-00109D02*
X02218D01*
X02139Y-00159D02*
Y-00109D01*
Y-00159D02*
X02218D01*
Y-00109*
X02527Y-00225D02*
Y-00176D01*
X02448Y-00225D02*
X02527D01*
X02448D02*
Y-00176D01*
X02527*
X00627Y00431D02*
X00804D01*
X00627Y00171D02*
Y00431D01*
Y00171D02*
X00804D01*
Y00431*
X00822Y00018D02*
X00901D01*
X00822Y-00031D02*
Y00018D01*
Y-00031D02*
X00901D01*
Y00018*
X00822Y00134D02*
X00901D01*
X00822Y00085D02*
Y00134D01*
Y00085D02*
X00901D01*
Y00134*
X01496Y-00284D02*
X01574D01*
Y-00235*
X01496D02*
X01574D01*
X01496Y-00284D02*
Y-00235D01*
Y-0017D02*
X01574D01*
Y-00121*
X01496D02*
X01574D01*
X01496Y-0017D02*
Y-00121D01*
X-00608Y-00797D02*
Y-00711D01*
Y-00797D02*
X-00555D01*
Y-00711*
X-00608D02*
X-00555D01*
X-00608Y-00962D02*
X-00555D01*
Y-01049D02*
Y-00962D01*
X-00608Y-01049D02*
X-00555D01*
X-00608D02*
Y-00962D01*
X02218Y00242D02*
Y00291D01*
X02139Y00242D02*
X02218D01*
X02139D02*
Y00291D01*
X02218*
Y00147D02*
Y00197D01*
X02139Y00147D02*
X02218D01*
X02139D02*
Y00197D01*
X02218*
X02216Y00054D02*
Y00104D01*
X02137Y00054D02*
X02216D01*
X02137D02*
Y00104D01*
X02216*
Y-00038D02*
Y00011D01*
X02137Y-00038D02*
X02216D01*
X02137D02*
Y00011D01*
X02216*
X02641Y00459D02*
Y00537D01*
X02592D02*
X02641D01*
X02592Y00459D02*
Y00537D01*
Y00459D02*
X02641D01*
X-02429Y-00781D02*
Y-00702D01*
Y-00781D02*
X-0238D01*
Y-00702*
X-02429D02*
X-0238D01*
X-02648Y00526D02*
X-02599D01*
Y00447D02*
Y00526D01*
X-02648Y00447D02*
X-02599D01*
X-02648D02*
Y00526D01*
X0239Y-00763D02*
Y-00685D01*
X02341D02*
X0239D01*
X02341Y-00763D02*
Y-00685D01*
Y-00763D02*
X0239D01*
X00801Y-00754D02*
X0088D01*
Y-00705*
X00801D02*
X0088D01*
X00801Y-00754D02*
Y-00705D01*
X00215Y-0075D02*
X00294D01*
Y-00701*
X00215D02*
X00294D01*
X00215Y-0075D02*
Y-00701D01*
X01386Y-0075D02*
X01465D01*
Y-00701*
X01386D02*
X01465D01*
X01386Y-0075D02*
Y-00701D01*
X00193Y-00855D02*
X00243D01*
X00193D02*
Y-00776D01*
X00243*
Y-00855D02*
Y-00776D01*
X00241Y-01072D02*
Y-00993D01*
X00191D02*
X00241D01*
X00191Y-01072D02*
Y-00993D01*
Y-01072D02*
X00241D01*
X00781D02*
X0083D01*
X00781D02*
Y-00993D01*
X0083*
Y-01072D02*
Y-00993D01*
X00781Y-00875D02*
X0083D01*
X00781D02*
Y-00796D01*
X0083*
Y-00875D02*
Y-00796D01*
X0142Y-00866D02*
Y-00787D01*
X0137D02*
X0142D01*
X0137Y-00866D02*
Y-00787D01*
Y-00866D02*
X0142D01*
Y-01066D02*
Y-00987D01*
X0137D02*
X0142D01*
X0137Y-01066D02*
Y-00987D01*
Y-01066D02*
X0142D01*
X01973Y00323D02*
Y00394D01*
X02107*
Y00323D02*
Y00394D01*
X01973Y00323D02*
X02107D01*
X01972Y0044D02*
Y00511D01*
X02106*
Y0044D02*
Y00511D01*
X01972Y0044D02*
X02106D01*
X01702Y00549D02*
X01848D01*
X01702Y00285D02*
Y00549D01*
Y00285D02*
X01848D01*
Y00549*
X-00552Y00495D02*
X-00502D01*
X-00552D02*
Y00574D01*
X-00502*
Y00495D02*
Y00574D01*
X-00827Y00525D02*
X-0077D01*
Y00439D02*
Y00525D01*
X-00827Y00439D02*
X-0077D01*
X-00827D02*
Y00525D01*
X-00778Y00078D02*
Y00338D01*
X-00601*
Y00078D02*
Y00338D01*
X-00778Y00078D02*
X-00601D01*
M02*