%FSTAX23Y23*%
%MOIN*%
%SFA1B1*%

%IPPOS*%
%ADD21R,0.055441X0.039626*%
%ADD23R,0.047244X0.047244*%
%ADD26R,0.047244X0.047244*%
%ADD36R,0.051307X0.059181*%
%ADD37R,0.059181X0.051307*%
%ADD38R,0.055244X0.055244*%
%ADD39R,0.070992X0.094614*%
%ADD40R,0.070992X0.093827*%
%ADD41R,0.055244X0.055244*%
%ADD42R,0.069023X0.061149*%
%ADD43R,0.083197X0.061937*%
%ADD44R,0.031622X0.039496*%
%ADD45C,0.086740*%
%ADD46R,0.043433X0.043433*%
%ADD47R,0.043433X0.096582*%
%ADD48R,0.096582X0.043433*%
%ADD49R,0.063118X0.067055*%
%ADD50R,0.065086X0.049338*%
%ADD51C,0.138110*%
%ADD52C,0.050000*%
%ADD53C,0.055118*%
%ADD54R,0.055118X0.055118*%
%ADD55C,0.114299*%
%ADD56C,0.068000*%
%ADD57C,0.047244*%
%ADD58C,0.196976*%
%ADD59C,0.067055*%
%ADD60R,0.067055X0.067055*%
%ADD61C,0.055559*%
%ADD62C,0.059181*%
%ADD63R,0.059181X0.059181*%
%ADD64R,0.067055X0.067055*%
%ADD65C,0.045275*%
%ADD66R,0.045275X0.045275*%
%ADD67C,0.037527*%
%ADD68C,0.035559*%
%ADD69C,0.023748*%
%ADD70C,0.126110*%
%LNbrushed_pcb-1*%
%LPD*%
G54D21*
X-01085Y-00785D03*
Y-0071D03*
X-01084Y-00541D03*
Y-00616D03*
G54D23*
X00664Y-01038D03*
X01253Y-00841D03*
X00664D03*
X01253Y-01038D03*
X01837D03*
X01834Y-00841D03*
X-02156Y00314D03*
Y00155D03*
Y-00002D03*
Y-00162D03*
G54D26*
X-01011Y-009D03*
Y-00983D03*
X-00299Y00968D03*
Y01051D03*
G54D36*
X02098Y-00496D03*
X02016D03*
X0222Y-00134D03*
X02137D03*
G54D37*
X-00581Y-01047D03*
Y-00964D03*
X02617Y00457D03*
Y00539D03*
X-02404Y-00785D03*
Y-00702D03*
X-02623Y00445D03*
Y00528D03*
X00802Y-00556D03*
Y-00639D03*
X00216Y-00556D03*
Y-00639D03*
X0139Y-00556D03*
Y-00639D03*
X02366Y-00683D03*
Y-00765D03*
X00216Y-00857D03*
Y-00774D03*
X0139Y-00868D03*
Y-00785D03*
X00802Y-00877D03*
Y-00794D03*
X00805Y-01074D03*
Y-00991D03*
X0139Y-01068D03*
Y-00985D03*
X-00581Y-00795D03*
Y-00712D03*
X00216Y-00991D03*
Y-01074D03*
G54D38*
X0222Y00266D03*
X02137D03*
X0222Y00172D03*
X02137D03*
X02224Y00077D03*
X02141D03*
X02224Y-00012D03*
X02141D03*
G54D39*
X-01525Y-00592D03*
X-0137Y-00954D03*
X-01214D03*
X-01682Y-00592D03*
G54D40*
X-01525Y-00954D03*
X-0137Y-00592D03*
X-01214D03*
X-01682Y-00954D03*
G54D41*
X-0101Y-00785D03*
Y-00702D03*
X-01009Y-00624D03*
Y-00541D03*
G54D42*
X-01096Y-00979D03*
Y-00902D03*
G54D43*
X-01291Y0032D03*
Y00209D03*
X-014Y0032D03*
Y00209D03*
X-01509Y0032D03*
Y00209D03*
X-01618Y0032D03*
Y00209D03*
X-01836Y0032D03*
Y00209D03*
X-01945Y0032D03*
Y00209D03*
X-01727Y0032D03*
Y00209D03*
X-01073Y0032D03*
Y00209D03*
X-01182Y0032D03*
Y00209D03*
X-00964Y0032D03*
Y00209D03*
G54D44*
X00074Y-00608D03*
Y-00509D03*
G54D45*
X025Y00228D03*
Y00082D03*
Y-00047D03*
G54D46*
X-00003Y00351D03*
X-00059D03*
X-00114D03*
X-00003Y00241D03*
X-00059D03*
X-00114D03*
X-00003Y00296D03*
X-00114D03*
X-00059D03*
G54D47*
X00275Y-00114D03*
X00225D03*
X00175D03*
X00125D03*
X00075D03*
X00025D03*
X-00025D03*
X-00075D03*
X-00125D03*
X-00175D03*
X-00225D03*
X-00275D03*
G54D48*
X0036Y006D03*
Y-00049D03*
Y0D03*
Y0005D03*
Y001D03*
Y0015D03*
Y002D03*
Y0025D03*
Y003D03*
Y0035D03*
Y004D03*
Y0045D03*
Y005D03*
Y0055D03*
X-00359Y0045D03*
Y004D03*
Y0035D03*
Y003D03*
Y0025D03*
Y002D03*
Y0015D03*
Y001D03*
Y0005D03*
Y0D03*
Y-00049D03*
Y005D03*
Y0055D03*
Y006D03*
G54D49*
X-01863Y-00908D03*
Y-00653D03*
G54D50*
X-00385Y01037D03*
Y00964D03*
G54D51*
X01649Y0084D02*
X01745Y00776D01*
X01806Y00735*
X01737Y00733D02*
X01804D01*
X00097Y00842D02*
X00097Y00843D01*
Y00843*
X00098Y00843*
X00097Y00842D02*
X00097Y00843D01*
X-01325Y00842D02*
X-00642D01*
X-00642Y00842*
X00097*
X01171Y00841D02*
X01649Y0084D01*
X00949Y00841D02*
X01171Y00841D01*
X00885Y00842D02*
X00949Y00841D01*
X00098Y00843D02*
X00885Y00842D01*
G54D52*
X01804Y00733D02*
X01806Y00735D01*
X01818*
G54D53*
X0005Y-00775D03*
X-00047D03*
X-00145D03*
X-00244D03*
X-00342D03*
X01047Y-00576D03*
X01145D03*
X01244D03*
X-0034Y-01032D03*
X-00242D03*
X-00143D03*
X-00045D03*
X00052D03*
X00655Y-00576D03*
X00557D03*
X00458D03*
X01824D03*
X01726D03*
X01627D03*
G54D54*
X-00441Y-00775D03*
X00948Y-00576D03*
X-00439Y-01032D03*
X0036Y-00576D03*
X01529D03*
G54D55*
X-00098Y01042D03*
X00098D03*
X-02263Y00589D03*
Y00786D03*
X-00984Y01033D03*
X-00787D03*
X00984D03*
X00787D03*
X02263Y00787D03*
Y0059D03*
G54D56*
X-01716Y00738D03*
X-01816Y00738D03*
X-01916Y00738D03*
X-02016D03*
X-01071Y00737D03*
X-01171D03*
X-00871D03*
X-00971Y00736D03*
X00771Y00735D03*
X00671Y00734D03*
X00571Y00735D03*
X00471D03*
X01618D03*
X01518Y00734D03*
X01418Y00735D03*
X01318D03*
X-01316Y-00361D03*
X-01416D03*
X-01516D03*
X-01616D03*
X-01716D03*
X-01816D03*
X-01916D03*
X-02016D03*
X-01616Y00738D03*
X-01416D03*
X-01316D03*
X-01516D03*
X-00471Y-00362D03*
X-00571D03*
X-00671D03*
X-00771D03*
X-00871D03*
X-00971D03*
X-01071D03*
X-01171D03*
X-00771Y00737D03*
X-00571D03*
X-00471D03*
X-00671D03*
X01171Y-00364D03*
X01071D03*
X00971D03*
X00871D03*
X00771D03*
X00671D03*
X00571D03*
X00471D03*
X00871Y00735D03*
X01071D03*
X01171D03*
X00971D03*
X02018Y-00364D03*
X01918D03*
X01818D03*
X01718D03*
X01618D03*
X01518D03*
X01418D03*
X01318D03*
X01718Y00735D03*
X01918D03*
X02018D03*
X01818D03*
G54D57*
X00349Y-01038D03*
X00428D03*
X00507D03*
X00585D03*
X-02274Y-00162D03*
Y00155D03*
Y00314D03*
Y-00002D03*
X-02215Y00314D03*
Y00155D03*
Y-00002D03*
Y-00162D03*
X00938Y-00841D03*
X01017D03*
X01096D03*
X01175D03*
X00585D03*
X00507D03*
X00428D03*
X00349D03*
X01175Y-01038D03*
X01096D03*
X01017D03*
X00938D03*
X01759D03*
X0168D03*
X01601D03*
X01523D03*
X01755Y-00841D03*
X01677D03*
X01598D03*
X01519D03*
G54D58*
X0Y-0037D03*
X01873Y01062D03*
X-02579Y-00824D03*
X02579D03*
Y0083D03*
X-01873Y01062D03*
X-02579Y0083D03*
G54D59*
X02198Y-00499D03*
X02298D03*
X02398D03*
X02231Y-00369D03*
X02388D03*
X0231D03*
X-00492Y01084D03*
G54D60*
X02498Y-00499D03*
X02467Y-00369D03*
G54D61*
X-02452Y-00318D03*
X-02393D03*
X-02334D03*
X-02275D03*
X-02216D03*
X-02157D03*
G54D62*
X02446Y00573D03*
Y00494D03*
X-02234Y-00738D03*
Y-00659D03*
X-02452Y00414D03*
Y00493D03*
X02195Y-00659D03*
Y-00738D03*
G54D63*
X02446Y00415D03*
X-02234Y-00816D03*
X-02452Y00572D03*
X02195Y-00816D03*
G54D64*
X-00492Y00984D03*
G54D65*
X-00202Y-00564D03*
X-00143D03*
X-00084D03*
G54D66*
X-00025Y-00564D03*
G54D67*
X02027Y-00566D03*
X02372Y-00841D03*
X00451Y-00002D03*
Y00296D03*
Y00446D03*
X-00457Y00102D03*
Y00153D03*
Y00051D03*
X00451Y00044D03*
Y00095D03*
Y00245D03*
Y00343D03*
X-01334Y-00787D03*
X-00457Y0035D03*
X00451Y00394D03*
X-00443Y00496D03*
Y00547D03*
X-00457Y002D03*
Y00248D03*
Y00299D03*
G54D68*
X01019Y-00311D03*
X0054Y00453D03*
X-00503Y-00715D03*
X-00748Y-00551D03*
X-01219Y-00674D03*
X00465Y-00054D03*
X-01604Y-01041D03*
X-00254Y00085D03*
X00183Y0D03*
X-00641Y00224D03*
X01118Y-00303D03*
X-01333Y-00711D03*
G54D69*
X-00508Y-00851D03*
X-00511Y-00886D03*
X02618Y0039D03*
X01003Y-00122D03*
X01515Y-00023D03*
X01885Y00278D03*
X02181Y00477D03*
X01783Y0052D03*
X00894Y00418D03*
X00938Y00364D03*
X-00298Y-00357D03*
X-00279Y-00397D03*
X-00851Y-00944D03*
X-00528Y-0048D03*
X-00897Y00333D03*
X0006Y-00678D03*
X-01761Y-01062D03*
X00404Y-00459D03*
X00631Y00083D03*
X0063Y00129D03*
X-01664Y-00506D03*
X-02124Y-00619D03*
X00153Y-01101D03*
X01363Y00192D03*
X00766Y00232D03*
X01318Y00192D03*
X00763D03*
X02511Y00152D03*
X02429Y00224D03*
X02279Y-00133D03*
X01716Y-00023D03*
X01213Y00123D03*
X01885Y00082D03*
X01003Y00115D03*
X0087Y-00285D03*
X01578Y-00661D03*
X015Y-0074D03*
X01345Y-00699D03*
X01442Y-00884D03*
X01126Y0061D03*
X01125Y0046D03*
X0096Y00461D03*
X-00668Y-00628D03*
X-00581Y-00659D03*
X01275Y-00519D03*
X00973Y-00924D03*
X00889Y-00908D03*
X00745Y-0087D03*
X00734Y-00709D03*
X00322Y-00384D03*
X00318Y-00417D03*
X007Y-00515D03*
X00397D03*
X01262Y-00428D03*
X0122D03*
X-00124Y00005D03*
X005Y-00122D03*
X00523Y-00094D03*
X00401Y-00421D03*
X00326Y-00338D03*
X-00174Y-00034D03*
X-00867Y00052D03*
X00125Y-00043D03*
X-00216Y-00448D03*
X00074Y00035D03*
X00147Y-00851D03*
X00141Y-00993D03*
X-00581Y-00914D03*
X00173Y-00241D03*
X00123Y-00195D03*
X-02114Y00267D03*
X0132Y-01061D03*
X-00527Y-0044D03*
X-01362Y-01035D03*
X-02404Y-00643D03*
X-00685Y0009D03*
X-01826Y-0046D03*
X-00774Y-00632D03*
X00729Y-01065D03*
X-00668Y-01009D03*
X-01437Y-00603D03*
X02273Y00266D03*
X02279Y-00012D03*
X02277Y00077D03*
X02273Y00172D03*
X01618Y-00023D03*
X-02624Y00598D03*
X0018Y-00727D03*
G54D70*
X00097Y00842D03*
X-00642Y00842D03*
X01171Y00841D03*
X-01325Y00842D03*
M02*