%FSTAX23Y23*%
%MOIN*%
%SFA1B1*%

%IPPOS*%
%ADD12C,0.007874*%
%LNbrushed_pcb_top_3d_body-1*%
%LPD*%
G54D12*
X-00537Y-00641D02*
X00147D01*
Y-00868D02*
Y-00641D01*
X-00537Y-00868D02*
X00147D01*
X-00537D02*
Y-00641D01*
X00741Y-01105D02*
Y-00928D01*
X00273D02*
X00741D01*
X00273Y-01105D02*
Y-00928D01*
Y-01105D02*
X00741D01*
X0134Y-00709D02*
Y-00483D01*
X00852D02*
X0134D01*
X00852Y-00709D02*
Y-00483D01*
Y-00709D02*
X0134D01*
X-0111Y-00708D02*
X-0106D01*
X-0111Y-00787D02*
Y-00708D01*
Y-00787D02*
X-0106D01*
Y-00708*
X-01059Y-00618D02*
Y-00539D01*
X-01109Y-00618D02*
X-01059D01*
X-01109D02*
Y-00539D01*
X-01059*
X-00984Y-00983D02*
Y-009D01*
X-01037Y-00983D02*
X-00984D01*
X-01037D02*
Y-009D01*
X-00984*
X-02333Y00401D02*
X-02097D01*
Y00263D02*
Y00401D01*
X-02333Y00263D02*
X-02097D01*
X-02333D02*
Y00401D01*
Y00103D02*
Y00241D01*
Y00103D02*
X-02097D01*
Y00241*
X-02333D02*
X-02097D01*
X-02333Y-00053D02*
Y00084D01*
Y-00053D02*
X-02097D01*
Y00084*
X-02333D02*
X-02097D01*
X-02333Y-00213D02*
Y-00075D01*
Y-00213D02*
X-02097D01*
Y-00075*
X-02333D02*
X-02097D01*
X-00325Y00968D02*
Y01051D01*
X-00272*
Y00968D02*
Y01051D01*
X-00325Y00968D02*
X-00272D01*
X-00535Y-00898D02*
X00149D01*
Y-01125D02*
Y-00898D01*
X-00535Y-01125D02*
X00149D01*
X-00535D02*
Y-00898D01*
X0133Y-00908D02*
Y-00731D01*
X00862D02*
X0133D01*
X00862Y-00908D02*
Y-00731D01*
Y-00908D02*
X0133D01*
X00263Y-00709D02*
X00751D01*
X00263D02*
Y-00483D01*
X00751*
Y-00709D02*
Y-00483D01*
X01433Y-00709D02*
X01921D01*
X01433D02*
Y-00483D01*
X01921*
Y-00709D02*
Y-00483D01*
X-00261Y-00616D02*
Y-00478D01*
Y-00616D02*
X00033D01*
Y-00478*
X-00261D02*
X00033D01*
X00273Y-00908D02*
X00741D01*
X00273D02*
Y-00731D01*
X00741*
Y-00908D02*
Y-00731D01*
X00862Y-01105D02*
X0133D01*
X00862D02*
Y-00928D01*
X0133*
Y-01105D02*
Y-00928D01*
X01446Y-01105D02*
X01914D01*
X01446D02*
Y-00928D01*
X01914*
Y-01105D02*
Y-00928D01*
X01442Y-00908D02*
X01911D01*
X01442D02*
Y-00731D01*
X01911*
Y-00908D02*
Y-00731D01*
M02*