%FSTAX23Y23*%
%MOIN*%
%SFA1B1*%

%IPPOS*%
%ADD13C,0.003937*%
%LNbrushed_pcb-1*%
%LPD*%
G54D13*
X-00195Y-00774D02*
Y-00735D01*
X-00214Y-00754D02*
X-00175D01*
X00507Y-01036D02*
Y-00997D01*
X00487Y-01016D02*
X00526D01*
X01096Y-00616D02*
Y-00577D01*
X01076Y-00596D02*
X01116D01*
X-01105Y-00748D02*
X-01065D01*
X-01085Y-00767D02*
Y-00728D01*
X-01084Y-00598D02*
Y-00559D01*
X-01104Y-00579D02*
X-01064D01*
X-01011Y-00961D02*
Y-00922D01*
X-0103Y-00941D02*
X-00991D01*
X-02235Y00332D02*
X-02195D01*
X-02215Y00312D02*
Y00352D01*
Y00153D02*
Y00192D01*
X-02235Y00172D02*
X-02195D01*
X-02215Y-00004D02*
Y00034D01*
X-02235Y00015D02*
X-02195D01*
X-02215Y-00164D02*
Y-00125D01*
X-02235Y-00144D02*
X-02195D01*
X-00299Y0099D02*
Y01029D01*
X-00318Y01009D02*
X-00279D01*
X-00212Y-01011D02*
X-00173D01*
X-00193Y-01031D02*
Y-00992D01*
X01096Y-00839D02*
Y-008D01*
X01076Y-0082D02*
X01116D01*
X00488Y-00596D02*
X00527D01*
X00507Y-00616D02*
Y-00577D01*
X01657Y-00596D02*
X01696D01*
X01677Y-00616D02*
Y-00577D01*
X-00113Y-00566D02*
Y-00527D01*
X-00133Y-00547D02*
X-00094D01*
X00487Y-0082D02*
X00526D01*
X00507Y-00839D02*
Y-008D01*
X01076Y-01016D02*
X01116D01*
X01096Y-01036D02*
Y-00997D01*
X0166Y-01016D02*
X017D01*
X0168Y-01036D02*
Y-00997D01*
X01657Y-0082D02*
X01696D01*
X01677Y-00839D02*
Y-008D01*
M02*