%FSTAX23Y23*%
%MOIN*%
%SFA1B1*%

%IPPOS*%
%ADD125C,0.002000*%
%LNbrushed_pcb-1*%
%LPD*%
G54D125*
X00033Y-00775D02*
X00068D01*
X0005Y-00793D02*
Y-00757D01*
X-00065Y-00775D02*
X-00029D01*
X-00047Y-00793D02*
Y-00757D01*
X-00163Y-00775D02*
X-00128D01*
X-00145Y-00793D02*
Y-00757D01*
X-00262Y-00775D02*
X-00226D01*
X-00244Y-00793D02*
Y-00757D01*
X-0036Y-00775D02*
X-00325D01*
X-00342Y-00793D02*
Y-00757D01*
X-00458Y-00775D02*
X-00423D01*
X-00441Y-00793D02*
Y-00757D01*
X-00133Y01042D02*
X-00062D01*
X-00098Y01007D02*
Y01077D01*
X00063Y01042D02*
X00133D01*
X00098Y01007D02*
Y01077D01*
X-01731Y00738D02*
X-01701D01*
X-01716Y00723D02*
Y00753D01*
X-01831Y00738D02*
X-01801D01*
X-01816Y00723D02*
Y00753D01*
X-02299Y00589D02*
X-02228D01*
X-02263Y00554D02*
Y00625D01*
X-01931Y00738D02*
X-01901D01*
X-01916Y00723D02*
Y00753D01*
X-02031Y00738D02*
X-02001D01*
X-02016Y00723D02*
Y00753D01*
X-02299Y00786D02*
X-02228D01*
X-02263Y00751D02*
Y00821D01*
X-01086Y00737D02*
X-01056D01*
X-01071Y00722D02*
Y00752D01*
X-01186Y00737D02*
X-01156D01*
X-01171Y00722D02*
Y00752D01*
X-01019Y01033D02*
X-00948D01*
X-00984Y00998D02*
Y01068D01*
X-00886Y00737D02*
X-00856D01*
X-00871Y00722D02*
Y00752D01*
X-00986Y00736D02*
X-00956D01*
X-00971Y00721D02*
Y00751D01*
X-00822Y01033D02*
X-00751D01*
X-00787Y00998D02*
Y01068D01*
X00948Y01033D02*
X01019D01*
X00984Y00998D02*
Y01068D01*
X00756Y00735D02*
X00786D01*
X00771Y0072D02*
Y0075D01*
X00656Y00734D02*
X00686D01*
X00671Y00719D02*
Y00749D01*
X00751Y01033D02*
X00822D01*
X00787Y00998D02*
Y01068D01*
X00556Y00735D02*
X00586D01*
X00571Y0072D02*
Y0075D01*
X00456Y00735D02*
X00486D01*
X00471Y0072D02*
Y0075D01*
X02228Y00787D02*
X02299D01*
X02263Y00751D02*
Y00822D01*
X01603Y00735D02*
X01633D01*
X01618Y0072D02*
Y0075D01*
X01503Y00734D02*
X01533D01*
X01518Y00719D02*
Y00749D01*
X02228Y0059D02*
X02299D01*
X02263Y00555D02*
Y00625D01*
X01403Y00735D02*
X01433D01*
X01418Y0072D02*
Y0075D01*
X01303Y00735D02*
X01333D01*
X01318Y0072D02*
Y0075D01*
X00335Y-01038D02*
X00363D01*
X00349Y-01052D02*
Y-01024D01*
X00414Y-01038D02*
X00442D01*
X00428Y-01052D02*
Y-01024D01*
X00493Y-01038D02*
X00521D01*
X00507Y-01052D02*
Y-01024D01*
X00572Y-01038D02*
X00599D01*
X00585Y-01052D02*
Y-01024D01*
X0065Y-01038D02*
X00678D01*
X00664Y-01052D02*
Y-01024D01*
X-00061Y-0037D02*
X00061D01*
X0Y-00431D02*
Y-00309D01*
X00931Y-00576D02*
X00966D01*
X00948Y-00593D02*
Y-00558D01*
X01029Y-00576D02*
X01064D01*
X01047Y-00593D02*
Y-00558D01*
X01127Y-00576D02*
X01163D01*
X01145Y-00593D02*
Y-00558D01*
X01226Y-00576D02*
X01261D01*
X01244Y-00593D02*
Y-00558D01*
X0218Y-00499D02*
X02216D01*
X02198Y-00517D02*
Y-00481D01*
X0228Y-00499D02*
X02316D01*
X02298Y-00517D02*
Y-00481D01*
X0238Y-00499D02*
X02416D01*
X02398Y-00517D02*
Y-00481D01*
X0248Y-00499D02*
X02516D01*
X02498Y-00517D02*
Y-00481D01*
X02211Y-00369D02*
X02251D01*
X02231Y-00389D02*
Y-0035D01*
X02447Y-00369D02*
X02487D01*
X02467Y-00389D02*
Y-0035D01*
X02369Y-00369D02*
X02408D01*
X02388Y-00389D02*
Y-0035D01*
X0229Y-00369D02*
X02329D01*
X0231Y-00389D02*
Y-0035D01*
X-02466Y-00318D02*
X-02438D01*
X-02452Y-00332D02*
Y-00305D01*
X-02407Y-00318D02*
X-02379D01*
X-02393Y-00332D02*
Y-00305D01*
X-02348Y-00318D02*
X-0232D01*
X-02334Y-00332D02*
Y-00305D01*
X-02289Y-00318D02*
X-02261D01*
X-02275Y-00332D02*
Y-00305D01*
X-0223Y-00318D02*
X-02202D01*
X-02216Y-00332D02*
Y-00305D01*
X-02171Y-00318D02*
X-02143D01*
X-02157Y-00332D02*
Y-00305D01*
X01811Y01062D02*
X01934D01*
X01873Y01001D02*
Y01123D01*
X0243Y00573D02*
X02462D01*
X02446Y00557D02*
Y00588D01*
X0243Y00494D02*
X02462D01*
X02446Y00478D02*
Y0051D01*
X0243Y00415D02*
X02462D01*
X02446Y00399D02*
Y00431D01*
X-01331Y-00361D02*
X-01301D01*
X-01316Y-00376D02*
Y-00346D01*
X-01431Y-00361D02*
X-01401D01*
X-01416Y-00376D02*
Y-00346D01*
X-01531Y-00361D02*
X-01501D01*
X-01516Y-00376D02*
Y-00346D01*
X-01631Y-00361D02*
X-01601D01*
X-01616Y-00376D02*
Y-00346D01*
X-01731Y-00361D02*
X-01701D01*
X-01716Y-00376D02*
Y-00346D01*
X-01831Y-00361D02*
X-01801D01*
X-01816Y-00376D02*
Y-00346D01*
X-01931Y-00361D02*
X-01901D01*
X-01916Y-00376D02*
Y-00346D01*
X-02031Y-00361D02*
X-02001D01*
X-02016Y-00376D02*
Y-00346D01*
X-01631Y00738D02*
X-01601D01*
X-01616Y00723D02*
Y00753D01*
X-01431Y00738D02*
X-01401D01*
X-01416Y00723D02*
Y00753D01*
X-01331Y00738D02*
X-01301D01*
X-01316Y00723D02*
Y00753D01*
X-01531Y00738D02*
X-01501D01*
X-01516Y00723D02*
Y00753D01*
X-00486Y-00362D02*
X-00456D01*
X-00471Y-00377D02*
Y-00347D01*
X-00586Y-00362D02*
X-00556D01*
X-00571Y-00377D02*
Y-00347D01*
X-00686Y-00362D02*
X-00656D01*
X-00671Y-00377D02*
Y-00347D01*
X-00786Y-00362D02*
X-00756D01*
X-00771Y-00377D02*
Y-00347D01*
X-00886Y-00362D02*
X-00856D01*
X-00871Y-00377D02*
Y-00347D01*
X-00986Y-00362D02*
X-00956D01*
X-00971Y-00377D02*
Y-00347D01*
X-01086Y-00362D02*
X-01056D01*
X-01071Y-00377D02*
Y-00347D01*
X-01186Y-00362D02*
X-01156D01*
X-01171Y-00377D02*
Y-00347D01*
X-00786Y00737D02*
X-00756D01*
X-00771Y00722D02*
Y00752D01*
X-00586Y00737D02*
X-00556D01*
X-00571Y00722D02*
Y00752D01*
X-00486Y00737D02*
X-00456D01*
X-00471Y00722D02*
Y00752D01*
X-00686Y00737D02*
X-00656D01*
X-00671Y00722D02*
Y00752D01*
X01156Y-00364D02*
X01186D01*
X01171Y-00379D02*
Y-00349D01*
X01056Y-00364D02*
X01086D01*
X01071Y-00379D02*
Y-00349D01*
X00956Y-00364D02*
X00986D01*
X00971Y-00379D02*
Y-00349D01*
X00856Y-00364D02*
X00886D01*
X00871Y-00379D02*
Y-00349D01*
X00756Y-00364D02*
X00786D01*
X00771Y-00379D02*
Y-00349D01*
X00656Y-00364D02*
X00686D01*
X00671Y-00379D02*
Y-00349D01*
X00556Y-00364D02*
X00586D01*
X00571Y-00379D02*
Y-00349D01*
X00456Y-00364D02*
X00486D01*
X00471Y-00379D02*
Y-00349D01*
X00856Y00735D02*
X00886D01*
X00871Y0072D02*
Y0075D01*
X01056Y00735D02*
X01086D01*
X01071Y0072D02*
Y0075D01*
X01156Y00735D02*
X01186D01*
X01171Y0072D02*
Y0075D01*
X00956Y00735D02*
X00986D01*
X00971Y0072D02*
Y0075D01*
X02003Y-00364D02*
X02033D01*
X02018Y-00379D02*
Y-00349D01*
X01903Y-00364D02*
X01933D01*
X01918Y-00379D02*
Y-00349D01*
X01803Y-00364D02*
X01833D01*
X01818Y-00379D02*
Y-00349D01*
X01703Y-00364D02*
X01733D01*
X01718Y-00379D02*
Y-00349D01*
X01603Y-00364D02*
X01633D01*
X01618Y-00379D02*
Y-00349D01*
X01503Y-00364D02*
X01533D01*
X01518Y-00379D02*
Y-00349D01*
X01403Y-00364D02*
X01433D01*
X01418Y-00379D02*
Y-00349D01*
X01303Y-00364D02*
X01333D01*
X01318Y-00379D02*
Y-00349D01*
X01703Y00735D02*
X01733D01*
X01718Y0072D02*
Y0075D01*
X01903Y00735D02*
X01933D01*
X01918Y0072D02*
Y0075D01*
X02003Y00735D02*
X02033D01*
X02018Y0072D02*
Y0075D01*
X01803Y00735D02*
X01833D01*
X01818Y0072D02*
Y0075D01*
X-0225Y-00816D02*
X-02218D01*
X-02234Y-00832D02*
Y-00801D01*
X-0225Y-00738D02*
X-02218D01*
X-02234Y-00753D02*
Y-00722D01*
X-0225Y-00659D02*
X-02218D01*
X-02234Y-00675D02*
Y-00643D01*
X-02468Y00414D02*
X-02437D01*
X-02452Y00399D02*
Y0043D01*
X-02468Y00493D02*
X-02437D01*
X-02452Y00477D02*
Y00509D01*
X-02468Y00572D02*
X-02437D01*
X-02452Y00556D02*
Y00588D01*
X0124Y-00841D02*
X01267D01*
X01253Y-00855D02*
Y-00827D01*
X0065Y-00841D02*
X00678D01*
X00664Y-00855D02*
Y-00827D01*
X0124Y-01038D02*
X01267D01*
X01253Y-01052D02*
Y-01024D01*
X01824Y-01038D02*
X01851D01*
X01837Y-01052D02*
Y-01024D01*
X0182Y-00841D02*
X01848D01*
X01834Y-00855D02*
Y-00827D01*
X-02288Y-00162D02*
X-0226D01*
X-02274Y-00176D02*
Y-00148D01*
X-02288Y00155D02*
X-0226D01*
X-02274Y00141D02*
Y00168D01*
X-02288Y00314D02*
X-0226D01*
X-02274Y00301D02*
Y00328D01*
X-02288Y-00002D02*
X-0226D01*
X-02274Y-00016D02*
Y00011D01*
X-0217Y00314D02*
X-02142D01*
X-02156Y00301D02*
Y00328D01*
X-02229Y00314D02*
X-02201D01*
X-02215Y00301D02*
Y00328D01*
X-02229Y00155D02*
X-02201D01*
X-02215Y00141D02*
Y00168D01*
X-0217Y00155D02*
X-02142D01*
X-02156Y00141D02*
Y00168D01*
X-02229Y-00002D02*
X-02201D01*
X-02215Y-00016D02*
Y00011D01*
X-0217Y-00002D02*
X-02142D01*
X-02156Y-00016D02*
Y00011D01*
X-02229Y-00162D02*
X-02201D01*
X-02215Y-00176D02*
Y-00148D01*
X-0217Y-00162D02*
X-02142D01*
X-02156Y-00176D02*
Y-00148D01*
X-00035Y00241D02*
X-00027D01*
X-00031Y00237D02*
Y00245D01*
X-0009Y00241D02*
X-00082D01*
X-00086Y00237D02*
Y00245D01*
X-00035Y00296D02*
X-00027D01*
X-00031Y00292D02*
Y003D01*
X-0009Y00296D02*
X-00082D01*
X-00086Y00292D02*
Y003D01*
X-00035Y00351D02*
X-00027D01*
X-00031Y00348D02*
Y00355D01*
X-0009Y00351D02*
X-00082D01*
X-00086Y00348D02*
Y00355D01*
X-00007Y00269D02*
X0D01*
X-00003Y00265D02*
Y00273D01*
X-00062Y00269D02*
X-00055D01*
X-00059Y00265D02*
Y00273D01*
X-00118Y00269D02*
X-0011D01*
X-00114Y00265D02*
Y00273D01*
X-00007Y00324D02*
X0D01*
X-00003Y0032D02*
Y00328D01*
X-00118Y00324D02*
X-0011D01*
X-00114Y0032D02*
Y00328D01*
X-00062Y00324D02*
X-00055D01*
X-00059Y0032D02*
Y00328D01*
X-00509Y01084D02*
X-00474D01*
X-00492Y01066D02*
Y01101D01*
X-00509Y00984D02*
X-00474D01*
X-00492Y00966D02*
Y01001D01*
X-00456Y-01032D02*
X-00421D01*
X-00439Y-0105D02*
Y-01014D01*
X-00358Y-01032D02*
X-00323D01*
X-0034Y-0105D02*
Y-01014D01*
X-0026Y-01032D02*
X-00224D01*
X-00242Y-0105D02*
Y-01014D01*
X-00161Y-01032D02*
X-00126D01*
X-00143Y-0105D02*
Y-01014D01*
X-00063Y-01032D02*
X-00027D01*
X-00045Y-0105D02*
Y-01014D01*
X00035Y-01032D02*
X0007D01*
X00052Y-0105D02*
Y-01014D01*
X00925Y-00841D02*
X00952D01*
X00938Y-00855D02*
Y-00827D01*
X01003Y-00841D02*
X01031D01*
X01017Y-00855D02*
Y-00827D01*
X01082Y-00841D02*
X0111D01*
X01096Y-00855D02*
Y-00827D01*
X01161Y-00841D02*
X01188D01*
X01175Y-00855D02*
Y-00827D01*
X00637Y-00576D02*
X00673D01*
X00655Y-00593D02*
Y-00558D01*
X00539Y-00576D02*
X00574D01*
X00557Y-00593D02*
Y-00558D01*
X0044Y-00576D02*
X00476D01*
X00458Y-00593D02*
Y-00558D01*
X00342Y-00576D02*
X00377D01*
X0036Y-00593D02*
Y-00558D01*
X01807Y-00576D02*
X01842D01*
X01824Y-00593D02*
Y-00558D01*
X01708Y-00576D02*
X01744D01*
X01726Y-00593D02*
Y-00558D01*
X0161Y-00576D02*
X01645D01*
X01627Y-00593D02*
Y-00558D01*
X01511Y-00576D02*
X01547D01*
X01529Y-00593D02*
Y-00558D01*
X-0264Y-00824D02*
X-02517D01*
X-02579Y-00885D02*
Y-00763D01*
X02517Y-00824D02*
X0264D01*
X02579Y-00885D02*
Y-00763D01*
X02517Y0083D02*
X0264D01*
X02579Y00769D02*
Y00891D01*
X-01934Y01062D02*
X-01811D01*
X-01873Y01001D02*
Y01123D01*
X-0264Y0083D02*
X-02517D01*
X-02579Y00769D02*
Y00891D01*
X-00215Y-00564D02*
X-00189D01*
X-00202Y-00577D02*
Y-00552D01*
X-00156Y-00564D02*
X-0013D01*
X-00143Y-00577D02*
Y-00552D01*
X-00097Y-00564D02*
X-00071D01*
X-00084Y-00577D02*
Y-00552D01*
X-00038Y-00564D02*
X-00012D01*
X-00025Y-00577D02*
Y-00552D01*
X00572Y-00841D02*
X00599D01*
X00585Y-00855D02*
Y-00827D01*
X00493Y-00841D02*
X00521D01*
X00507Y-00855D02*
Y-00827D01*
X00414Y-00841D02*
X00442D01*
X00428Y-00855D02*
Y-00827D01*
X00335Y-00841D02*
X00363D01*
X00349Y-00855D02*
Y-00827D01*
X01161Y-01038D02*
X01188D01*
X01175Y-01052D02*
Y-01024D01*
X01082Y-01038D02*
X0111D01*
X01096Y-01052D02*
Y-01024D01*
X01003Y-01038D02*
X01031D01*
X01017Y-01052D02*
Y-01024D01*
X00925Y-01038D02*
X00952D01*
X00938Y-01052D02*
Y-01024D01*
X01745Y-01038D02*
X01773D01*
X01759Y-01052D02*
Y-01024D01*
X01666Y-01038D02*
X01694D01*
X0168Y-01052D02*
Y-01024D01*
X01587Y-01038D02*
X01615D01*
X01601Y-01052D02*
Y-01024D01*
X01509Y-01038D02*
X01536D01*
X01523Y-01052D02*
Y-01024D01*
X01742Y-00841D02*
X01769D01*
X01755Y-00855D02*
Y-00827D01*
X01663Y-00841D02*
X0169D01*
X01677Y-00855D02*
Y-00827D01*
X01584Y-00841D02*
X01612D01*
X01598Y-00855D02*
Y-00827D01*
X01505Y-00841D02*
X01533D01*
X01519Y-00855D02*
Y-00827D01*
X02179Y-00659D02*
X0221D01*
X02195Y-00675D02*
Y-00643D01*
X02179Y-00738D02*
X0221D01*
X02195Y-00753D02*
Y-00722D01*
X02179Y-00816D02*
X0221D01*
X02195Y-00832D02*
Y-00801D01*
X02017Y-00566D02*
X02037D01*
X02027Y-00576D02*
Y-00557D01*
X01011Y-00311D02*
X01027D01*
X01019Y-00318D02*
Y-00303D01*
X-00513Y-00851D02*
X-00503D01*
X-00508Y-00856D02*
Y-00846D01*
X-00516Y-00886D02*
X-00506D01*
X-00511Y-00891D02*
Y-00881D01*
X02362Y-00841D02*
X02381D01*
X02372Y-00851D02*
Y-00831D01*
X02613Y0039D02*
X02623D01*
X02618Y00385D02*
Y00395D01*
X00058Y00842D02*
X00137D01*
X00097Y00803D02*
Y00882D01*
X-00682Y00842D02*
X-00603D01*
X-00642Y00803D02*
Y00881D01*
X01132Y00841D02*
X0121D01*
X01171Y00802D02*
Y0088D01*
X-01365Y00842D02*
X-01286D01*
X-01325Y00803D02*
Y00881D01*
X00998Y-00122D02*
X01008D01*
X01003Y-00127D02*
Y-00117D01*
X0151Y-00023D02*
X0152D01*
X01515Y-00028D02*
Y-00018D01*
X0188Y00278D02*
X0189D01*
X01885Y00273D02*
Y00283D01*
X02176Y00477D02*
X02186D01*
X02181Y00472D02*
Y00482D01*
X01778Y0052D02*
X01788D01*
X01783Y00515D02*
Y00525D01*
X00889Y00418D02*
X00899D01*
X00894Y00413D02*
Y00423D01*
X00933Y00364D02*
X00943D01*
X00938Y00359D02*
Y00369D01*
X-00303Y-00357D02*
X-00293D01*
X-00298Y-00362D02*
Y-00352D01*
X-00284Y-00397D02*
X-00274D01*
X-00279Y-00402D02*
Y-00392D01*
X-00856Y-00944D02*
X-00846D01*
X-00851Y-00949D02*
Y-00939D01*
X-00533Y-0048D02*
X-00523D01*
X-00528Y-00485D02*
Y-00475D01*
X-00902Y00333D02*
X-00892D01*
X-00897Y00328D02*
Y00338D01*
X00442Y-00002D02*
X00461D01*
X00451Y-00012D02*
Y00007D01*
X00442Y00296D02*
X00461D01*
X00451Y00286D02*
Y00306D01*
X00055Y-00678D02*
X00065D01*
X0006Y-00683D02*
Y-00673D01*
X-01766Y-01062D02*
X-01756D01*
X-01761Y-01067D02*
Y-01057D01*
X00532Y00453D02*
X00548D01*
X0054Y00445D02*
Y00461D01*
X00399Y-00459D02*
X00409D01*
X00404Y-00464D02*
Y-00454D01*
X-00511Y-00715D02*
X-00496D01*
X-00503Y-00723D02*
Y-00707D01*
X-00755Y-00551D02*
X-0074D01*
X-00748Y-00559D02*
Y-00543D01*
X-01227Y-00674D02*
X-01211D01*
X-01219Y-00682D02*
Y-00666D01*
X00626Y00083D02*
X00636D01*
X00631Y00078D02*
Y00088D01*
X00625Y00129D02*
X00635D01*
X0063Y00124D02*
Y00134D01*
X00457Y-00054D02*
X00473D01*
X00465Y-00062D02*
Y-00046D01*
X-01612Y-01041D02*
X-01596D01*
X-01604Y-01049D02*
Y-01033D01*
X-00262Y00085D02*
X-00247D01*
X-00254Y00077D02*
Y00093D01*
X00175Y0D02*
X0019D01*
X00183Y-00006D02*
Y00008D01*
X-00649Y00224D02*
X-00633D01*
X-00641Y00216D02*
Y00232D01*
X-01669Y-00506D02*
X-01659D01*
X-01664Y-00511D02*
Y-00501D01*
X-02129Y-00619D02*
X-02119D01*
X-02124Y-00624D02*
Y-00614D01*
X00148Y-01101D02*
X00158D01*
X00153Y-01106D02*
Y-01096D01*
X01358Y00192D02*
X01368D01*
X01363Y00187D02*
Y00197D01*
X00761Y00232D02*
X00771D01*
X00766Y00227D02*
Y00237D01*
X01313Y00192D02*
X01323D01*
X01318Y00187D02*
Y00197D01*
X00758Y00192D02*
X00768D01*
X00763Y00187D02*
Y00197D01*
X02506Y00152D02*
X02516D01*
X02511Y00147D02*
Y00157D01*
X02424Y00224D02*
X02434D01*
X02429Y00219D02*
Y00229D01*
X02274Y-00133D02*
X02284D01*
X02279Y-00138D02*
Y-00128D01*
X01711Y-00023D02*
X01721D01*
X01716Y-00028D02*
Y-00018D01*
X01208Y00123D02*
X01218D01*
X01213Y00118D02*
Y00128D01*
X0188Y00082D02*
X0189D01*
X01885Y00077D02*
Y00087D01*
X00998Y00115D02*
X01008D01*
X01003Y0011D02*
Y0012D01*
X00865Y-00285D02*
X00875D01*
X0087Y-0029D02*
Y-0028D01*
X01573Y-00661D02*
X01583D01*
X01578Y-00666D02*
Y-00656D01*
X01495Y-0074D02*
X01505D01*
X015Y-00745D02*
Y-00735D01*
X0134Y-00699D02*
X0135D01*
X01345Y-00704D02*
Y-00694D01*
X01437Y-00884D02*
X01447D01*
X01442Y-00889D02*
Y-00879D01*
X00442Y00446D02*
X00461D01*
X00451Y00436D02*
Y00455D01*
X01121Y0061D02*
X01131D01*
X01126Y00605D02*
Y00615D01*
X0112Y0046D02*
X0113D01*
X01125Y00455D02*
Y00465D01*
X00955Y00461D02*
X00965D01*
X0096Y00456D02*
Y00466D01*
X-00673Y-00628D02*
X-00663D01*
X-00668Y-00633D02*
Y-00623D01*
X-00586Y-00659D02*
X-00576D01*
X-00581Y-00664D02*
Y-00654D01*
X0127Y-00519D02*
X0128D01*
X01275Y-00524D02*
Y-00514D01*
X00968Y-00924D02*
X00978D01*
X00973Y-00929D02*
Y-00919D01*
X00884Y-00908D02*
X00894D01*
X00889Y-00913D02*
Y-00903D01*
X0074Y-0087D02*
X0075D01*
X00745Y-00875D02*
Y-00865D01*
X00729Y-00709D02*
X00739D01*
X00734Y-00714D02*
Y-00704D01*
X00317Y-00384D02*
X00327D01*
X00322Y-00389D02*
Y-00379D01*
X00313Y-00417D02*
X00323D01*
X00318Y-00422D02*
Y-00412D01*
X00695Y-00515D02*
X00705D01*
X007Y-0052D02*
Y-0051D01*
X00392Y-00515D02*
X00402D01*
X00397Y-0052D02*
Y-0051D01*
X01257Y-00428D02*
X01267D01*
X01262Y-00433D02*
Y-00423D01*
X01215Y-00428D02*
X01225D01*
X0122Y-00433D02*
Y-00423D01*
X-00129Y00005D02*
X-00119D01*
X-00124Y0D02*
Y0001D01*
X00495Y-00122D02*
X00505D01*
X005Y-00127D02*
Y-00117D01*
X00518Y-00094D02*
X00528D01*
X00523Y-00099D02*
Y-00089D01*
X0111Y-00303D02*
X01125D01*
X01118Y-00311D02*
Y-00295D01*
X00396Y-00421D02*
X00406D01*
X00401Y-00426D02*
Y-00416D01*
X00321Y-00338D02*
X00331D01*
X00326Y-00343D02*
Y-00333D01*
X-00467Y00102D02*
X-00447D01*
X-00457Y00092D02*
Y00112D01*
X-00467Y00153D02*
X-00447D01*
X-00457Y00143D02*
Y00163D01*
X-00179Y-00034D02*
X-00169D01*
X-00174Y-00039D02*
Y-00029D01*
X-00467Y00051D02*
X-00447D01*
X-00457Y00041D02*
Y00061D01*
X-00872Y00052D02*
X-00862D01*
X-00867Y00047D02*
Y00057D01*
X0012Y-00043D02*
X0013D01*
X00125Y-00048D02*
Y-00038D01*
X-00221Y-00448D02*
X-00211D01*
X-00216Y-00453D02*
Y-00443D01*
X00069Y00035D02*
X00079D01*
X00074Y0003D02*
Y0004D01*
X00142Y-00851D02*
X00152D01*
X00147Y-00856D02*
Y-00846D01*
X00136Y-00993D02*
X00146D01*
X00141Y-00998D02*
Y-00988D01*
X-00586Y-00914D02*
X-00576D01*
X-00581Y-00919D02*
Y-00909D01*
X00168Y-00241D02*
X00178D01*
X00173Y-00246D02*
Y-00236D01*
X00118Y-00195D02*
X00128D01*
X00123Y-002D02*
Y-0019D01*
X-02119Y00267D02*
X-02109D01*
X-02114Y00262D02*
Y00272D01*
X01315Y-01061D02*
X01325D01*
X0132Y-01066D02*
Y-01056D01*
X-00532Y-0044D02*
X-00522D01*
X-00527Y-00445D02*
Y-00435D01*
X00442Y00044D02*
X00461D01*
X00451Y00034D02*
Y00054D01*
X00442Y00095D02*
X00461D01*
X00451Y00085D02*
Y00105D01*
X00442Y00245D02*
X00461D01*
X00451Y00235D02*
Y00255D01*
X00442Y00343D02*
X00461D01*
X00451Y00333D02*
Y00353D01*
X-01367Y-01035D02*
X-01357D01*
X-01362Y-0104D02*
Y-0103D01*
X-02409Y-00643D02*
X-02399D01*
X-02404Y-00648D02*
Y-00638D01*
X-0069Y0009D02*
X-0068D01*
X-00685Y00085D02*
Y00095D01*
X-01344Y-00787D02*
X-01324D01*
X-01334Y-00797D02*
Y-00777D01*
X-01341Y-00711D02*
X-01325D01*
X-01333Y-00718D02*
Y-00703D01*
X-01831Y-0046D02*
X-01821D01*
X-01826Y-00465D02*
Y-00455D01*
X-00779Y-00632D02*
X-00769D01*
X-00774Y-00637D02*
Y-00627D01*
X00724Y-01065D02*
X00734D01*
X00729Y-0107D02*
Y-0106D01*
X-00673Y-01009D02*
X-00663D01*
X-00668Y-01014D02*
Y-01004D01*
X-01442Y-00603D02*
X-01432D01*
X-01437Y-00608D02*
Y-00598D01*
X02268Y00266D02*
X02278D01*
X02273Y00261D02*
Y00271D01*
X02274Y-00012D02*
X02284D01*
X02279Y-00017D02*
Y-00007D01*
X02272Y00077D02*
X02282D01*
X02277Y00072D02*
Y00082D01*
X02268Y00172D02*
X02278D01*
X02273Y00167D02*
Y00177D01*
X01613Y-00023D02*
X01623D01*
X01618Y-00028D02*
Y-00018D01*
X-00467Y0035D02*
X-00447D01*
X-00457Y0034D02*
Y0036D01*
X-02629Y00598D02*
X-02619D01*
X-02624Y00593D02*
Y00603D01*
X00442Y00394D02*
X00461D01*
X00451Y00384D02*
Y00404D01*
X00175Y-00727D02*
X00185D01*
X0018Y-00732D02*
Y-00722D01*
X-00453Y00496D02*
X-00434D01*
X-00443Y00486D02*
Y00505D01*
X-00453Y00547D02*
X-00434D01*
X-00443Y00537D02*
Y00557D01*
X-00467Y002D02*
X-00447D01*
X-00457Y0019D02*
Y0021D01*
X-00467Y00248D02*
X-00447D01*
X-00457Y00238D02*
Y00257D01*
X-00467Y00299D02*
X-00447D01*
X-00457Y00289D02*
Y00309D01*
M02*