%FSTAX23Y23*%
%MOIN*%
%SFA1B1*%

%IPPOS*%
%ADD13C,0.003937*%
%ADD123R,0.011811X0.049212*%
%ADD124R,0.049212X0.011811*%
%LNbrushed_pcb-1*%
%LPD*%
G54D13*
X02018Y-0052D02*
Y-00471D01*
X02096*
Y-0052D02*
Y-00471D01*
X02018Y-0052D02*
X02096D01*
X02218Y-00159D02*
Y-00109D01*
X02139Y-00159D02*
X02218D01*
X02139D02*
Y-00109D01*
X02218*
X-00606Y-00966D02*
X-00557D01*
Y-01045D02*
Y-00966D01*
X-00606Y-01045D02*
X-00557D01*
X-00606D02*
Y-00966D01*
X02641Y00459D02*
Y00537D01*
X02592D02*
X02641D01*
X02592Y00459D02*
Y00537D01*
Y00459D02*
X02641D01*
X-02429Y-00704D02*
X-0238D01*
Y-00783D02*
Y-00704D01*
X-02429Y-00783D02*
X-0238D01*
X-02429D02*
Y-00704D01*
X-02648Y00526D02*
X-02599D01*
Y00447D02*
Y00526D01*
X-02648Y00447D02*
X-02599D01*
X-02648D02*
Y00526D01*
X00778Y-00637D02*
X00827D01*
X00778D02*
Y-00558D01*
X00827*
Y-00637D02*
Y-00558D01*
X00191Y-00637D02*
X00241D01*
X00191D02*
Y-00558D01*
X00241*
Y-00637D02*
Y-00558D01*
X01365Y-00637D02*
X01415D01*
X01365D02*
Y-00558D01*
X01415*
Y-00637D02*
Y-00558D01*
X02341Y-00763D02*
X0239D01*
X02341D02*
Y-00685D01*
X0239*
Y-00763D02*
Y-00685D01*
X00241Y-00855D02*
Y-00776D01*
X00191D02*
X00241D01*
X00191Y-00855D02*
Y-00776D01*
Y-00855D02*
X00241D01*
X01415Y-00866D02*
Y-00787D01*
X01365D02*
X01415D01*
X01365Y-00866D02*
Y-00787D01*
Y-00866D02*
X01415D01*
X00827Y-00875D02*
Y-00796D01*
X00778D02*
X00827D01*
X00778Y-00875D02*
Y-00796D01*
Y-00875D02*
X00827D01*
X0083Y-01072D02*
Y-00993D01*
X00781D02*
X0083D01*
X00781Y-01072D02*
Y-00993D01*
Y-01072D02*
X0083D01*
X01415Y-01066D02*
Y-00987D01*
X01365D02*
X01415D01*
X01365Y-01066D02*
Y-00987D01*
Y-01066D02*
X01415D01*
X-00606Y-00714D02*
X-00557D01*
Y-00793D02*
Y-00714D01*
X-00606Y-00793D02*
X-00557D01*
X-00606D02*
Y-00714D01*
X00191Y-01072D02*
X00241D01*
X00191D02*
Y-00993D01*
X00241*
Y-01072D02*
Y-00993D01*
G54D123*
X0209Y-00496D03*
X02145Y-00134D03*
G54D124*
X-00581Y-01039D03*
X02617Y00531D03*
X-02404Y-00777D03*
X-02623Y00453D03*
X00802Y-00564D03*
X00216D03*
X0139Y-00564D03*
X02366Y-00691D03*
X00216Y-00782D03*
X0139Y-00793D03*
X00802Y-00802D03*
X00805Y-00999D03*
X0139Y-00993D03*
X-00581Y-00787D03*
X00216Y-00999D03*
M02*