%FSTAX23Y23*%
%MOIN*%
%SFA1B1*%

%IPPOS*%
%AMD83*
4,1,8,0.025100,0.007500,-0.025100,0.007500,-0.032600,0.000000,-0.032600,0.000000,-0.025100,-0.007500,0.025100,-0.007500,0.032600,0.000000,0.032600,0.000000,0.025100,0.007500,0.0*
1,1,0.014992,0.025100,0.000000*
1,1,0.014992,-0.025100,0.000000*
1,1,0.014992,-0.025100,0.000000*
1,1,0.014992,0.025100,0.000000*
%
%ADD23R,0.047244X0.047244*%
%ADD43R,0.083197X0.061937*%
%ADD51C,0.138110*%
%ADD52C,0.114299*%
%ADD53C,0.068000*%
%ADD54R,0.055118X0.055118*%
%ADD55C,0.055118*%
%ADD56C,0.047244*%
%ADD57C,0.196976*%
%ADD58C,0.067055*%
%ADD59R,0.067055X0.067055*%
%ADD60C,0.055559*%
%ADD61C,0.059181*%
%ADD62R,0.059181X0.059181*%
%ADD63R,0.067055X0.067055*%
%ADD64C,0.045275*%
%ADD65R,0.045275X0.045275*%
%ADD66C,0.023748*%
%ADD67C,0.037527*%
%ADD68C,0.035559*%
G04~CAMADD=83~8~0.0~0.0~651.7~149.9~75.0~0.0~15~0.0~0.0~0.0~0.0~0~0.0~0.0~0.0~0.0~0~0.0~0.0~0.0~0.0~651.7~149.9*
%ADD83D83*%
%ADD84R,0.065173X0.014992*%
%ADD89R,0.047500X0.059378*%
%ADD92R,0.037594X0.049689*%
%ADD93R,0.062992X0.011811*%
%ADD94R,0.045275X0.045275*%
%ADD95R,0.039626X0.055441*%
%ADD97R,0.057563X0.053342*%
%ADD100R,0.041339X0.062992*%
%ADD101R,0.084645X0.037401*%
%ADD103R,0.049689X0.037594*%
%ADD104R,0.084645X0.127952*%
%ADD105R,0.059378X0.047500*%
%ADD106R,0.049212X0.039370*%
%ADD107R,0.039496X0.067055*%
%ADD108R,0.059181X0.063118*%
%ADD109R,0.047370X0.045401*%
%ADD110R,0.063118X0.082803*%
%ADD111O,0.074929X0.019811*%
%ADD112R,0.067055X0.063118*%
%ADD113R,0.022961X0.023748*%
%ADD114R,0.061149X0.051307*%
%ADD115R,0.061937X0.083197*%
%ADD116O,0.025716X0.078866*%
%LNbrushed_pcb_soldermask_bot-1*%
%LPD*%
G54D23*
X00664Y-01038D03*
X01253Y-00841D03*
X00664D03*
X01253Y-01038D03*
X01837D03*
X01834Y-00841D03*
X-02156Y00314D03*
Y00155D03*
Y-00002D03*
Y-00162D03*
G54D43*
X-00667Y-00953D03*
Y-01065D03*
X-00776Y-00953D03*
Y-01065D03*
X-00667Y-00693D03*
Y-00805D03*
X-00776Y-00693D03*
Y-00805D03*
X-01927Y-0057D03*
Y-00458D03*
X-02047Y-00571D03*
Y-00459D03*
G54D51*
X01409Y00698D02*
D01*
X01412Y00689*
X01415Y00681*
X01419Y00673*
X01423Y00665*
X01424Y00664*
X00592Y0082D02*
D01*
X00587Y00814*
X00581Y00807*
X00576Y00799*
X00572Y00792*
X00568Y00783*
X00564Y00775*
X00562Y00767*
X01413Y00653D02*
X01462Y00604D01*
X014Y0073D02*
X01409Y00698D01*
X01368Y00698D02*
X01413Y00653D01*
X02247Y00604D02*
X02263Y00588D01*
X01424Y00664D02*
X01462Y00604D01*
X01333Y00733D02*
X014D01*
X01462Y00604D02*
X02247D01*
X01333Y00733D02*
X01368Y00698D01*
X01533Y00732D02*
X01566Y00765D01*
X01533Y00732D02*
X016D01*
X01577Y00776D02*
X01647Y00846D01*
X02202D02*
X02263Y00784D01*
X01566Y00765D02*
X01577Y00776D01*
X01604Y00741D02*
X01647Y00846D01*
X02202*
X00742Y00774D02*
X00953Y00929D01*
X00685Y00732D02*
X00742Y00774D01*
X00685Y00732D02*
X00752D01*
X00961Y00935D02*
X01074Y01033D01*
X00479Y00741D02*
X00522Y00773D01*
X00554Y0074D02*
X00562Y00767D01*
X00552Y00733D02*
X00554Y0074D01*
X00592Y0082D02*
X00605Y00833D01*
X00485Y00733D02*
X00552D01*
X00536Y00783D02*
X00877Y01033D01*
X00605Y00833D02*
X00877Y01033D01*
X-00889Y00738D02*
X-00877Y01034D01*
X-00952Y0075D02*
X-0095Y00758D01*
X-00877Y01034*
X-0089Y00733D02*
X-00889Y00738D01*
X-00956Y00733D02*
X-0089D01*
X-00956D02*
X-00952Y0075D01*
X-0109Y00734D02*
X-01089Y00738D01*
X-01074Y01034*
X-0115Y00756D02*
X-01074Y01031D01*
X-01156Y00734D02*
X-0109D01*
X-02263Y00589D02*
X-01831D01*
X-01799Y007*
X-01831Y00589D02*
X-01758Y007D01*
X-01802Y00735D02*
X-01735D01*
X-01758Y007D02*
X-01735Y00735D01*
X-02215Y00738D02*
X-02214Y00738D01*
X-02263Y00786D02*
X-02215Y00738D01*
X-02211Y00736D02*
X-01935D01*
G54D52*
X-00098Y01042D03*
X00098D03*
X-02263Y00589D03*
Y00786D03*
X-01074Y01034D03*
X-00877D03*
X01074Y01033D03*
X00877D03*
X02263Y00787D03*
Y0059D03*
G54D53*
X-01716Y00738D03*
X-01816Y00738D03*
X-01916Y00738D03*
X-02016D03*
X-01071Y00737D03*
X-01171D03*
X-00871D03*
X-00971Y00736D03*
X00771Y00735D03*
X00671Y00734D03*
X00571Y00735D03*
X00471D03*
X01618D03*
X01518Y00734D03*
X01418Y00735D03*
X01318D03*
X-01316Y-00361D03*
X-01416D03*
X-01516D03*
X-01616D03*
X-01716D03*
X-01816D03*
X-01916D03*
X-02016D03*
X-01616Y00738D03*
X-01416D03*
X-01316D03*
X-01516D03*
X-00471Y-00362D03*
X-00571D03*
X-00671D03*
X-00771D03*
X-00871D03*
X-00971D03*
X-01071D03*
X-01171D03*
X-00771Y00737D03*
X-00571D03*
X-00471D03*
X-00671D03*
X01171Y-00364D03*
X01071D03*
X00971D03*
X00871D03*
X00771D03*
X00671D03*
X00571D03*
X00471D03*
X00871Y00735D03*
X01071D03*
X01171D03*
X00971D03*
X02018Y-00364D03*
X01918D03*
X01818D03*
X01718D03*
X01618D03*
X01518D03*
X01418D03*
X01318D03*
X01718Y00735D03*
X01918D03*
X02018D03*
X01818D03*
G54D54*
X-00441Y-00775D03*
X00948Y-00576D03*
X-00439Y-01032D03*
X0036Y-00576D03*
X01529D03*
G54D55*
X-00342Y-00775D03*
X-00244D03*
X-00145D03*
X-00047D03*
X0005D03*
X01047Y-00576D03*
X01145D03*
X01244D03*
X-0034Y-01032D03*
X-00242D03*
X-00143D03*
X-00045D03*
X00052D03*
X00655Y-00576D03*
X00557D03*
X00458D03*
X01824D03*
X01726D03*
X01627D03*
G54D56*
X00349Y-01038D03*
X00428D03*
X00507D03*
X00585D03*
X-02274Y-00162D03*
Y00155D03*
Y00314D03*
Y-00002D03*
X-02215Y00314D03*
Y00155D03*
Y-00002D03*
Y-00162D03*
X00938Y-00841D03*
X01017D03*
X01096D03*
X01175D03*
X00585D03*
X00507D03*
X00428D03*
X00349D03*
X01175Y-01038D03*
X01096D03*
X01017D03*
X00938D03*
X01759D03*
X0168D03*
X01601D03*
X01523D03*
X01755Y-00841D03*
X01677D03*
X01598D03*
X01519D03*
G54D57*
X0Y-0037D03*
X01873Y01062D03*
X-02579Y-00824D03*
X02579D03*
Y0083D03*
X-01873Y01062D03*
X-02579Y0083D03*
G54D58*
X02198Y-00499D03*
X02298D03*
X02398D03*
X02231Y-00369D03*
X02388D03*
X0231D03*
X-00492Y01084D03*
G54D59*
X02498Y-00499D03*
X02467Y-00369D03*
G54D60*
X-02452Y-00318D03*
X-02393D03*
X-02334D03*
X-02275D03*
X-02216D03*
X-02157D03*
G54D61*
X02446Y00573D03*
Y00494D03*
X-02234Y-00738D03*
Y-00659D03*
X-02452Y00414D03*
Y00493D03*
X02195Y-00659D03*
Y-00738D03*
G54D62*
X02446Y00415D03*
X-02234Y-00816D03*
X-02452Y00572D03*
X02195Y-00816D03*
G54D63*
X-00492Y00984D03*
G54D64*
X-00202Y-00564D03*
X-00143D03*
X-00084D03*
G54D65*
X-00025Y-00564D03*
G54D66*
X01885Y00278D03*
X01003Y-00125D03*
X02181Y00477D03*
X01783Y0052D03*
X00894Y00418D03*
X00938Y00364D03*
X-00298Y-00357D03*
X-00279Y-00397D03*
X-00851Y-00944D03*
X-00528Y-0048D03*
X-00897Y00333D03*
X0006Y-00678D03*
X-01761Y-01062D03*
X00404Y-00459D03*
X00631Y00083D03*
X0063Y00129D03*
X-01664Y-00506D03*
X-02124Y-00619D03*
X00153Y-01101D03*
X01363Y00192D03*
X00766Y00232D03*
X01318Y00192D03*
X00763D03*
X02511Y00152D03*
X02429Y00224D03*
X02518Y-00138D03*
X02279Y-00133D03*
X01716Y-00023D03*
X01213Y00123D03*
X01885Y00082D03*
X01003Y00115D03*
X0087Y-00285D03*
X01578Y-00661D03*
X015Y-0074D03*
X01345Y-00699D03*
X01442Y-00884D03*
X01126Y0061D03*
X01125Y0046D03*
X0096Y00461D03*
X-00668Y-00628D03*
X-00581Y-00659D03*
X01275Y-00519D03*
X00973Y-00924D03*
X00889Y-00908D03*
X00745Y-0087D03*
X00734Y-00709D03*
X00322Y-00384D03*
X00318Y-00417D03*
X007Y-00515D03*
X00397D03*
X01262Y-00428D03*
X0122D03*
X-00124Y00005D03*
X005Y-00122D03*
X00523Y-00094D03*
X00401Y-00421D03*
X00326Y-00338D03*
X-00174Y-00034D03*
X-00867Y00052D03*
X00125Y-00043D03*
X-00216Y-00448D03*
X00074Y00035D03*
X00147Y-00851D03*
X00141Y-00993D03*
X-00581Y-00914D03*
X00173Y-00241D03*
X00123Y-00195D03*
X-02114Y00267D03*
X0132Y-01061D03*
X-00527Y-0044D03*
X-01362Y-01035D03*
X-02404Y-00643D03*
X-00685Y0009D03*
X-01826Y-0046D03*
X-00774Y-00632D03*
X00729Y-01065D03*
X-00668Y-01009D03*
X-01437Y-00603D03*
X-00428Y-00844D03*
Y-00888D03*
X02273Y00266D03*
X02279Y-00012D03*
X02277Y00077D03*
X02273Y00172D03*
X01618Y-00023D03*
X01515D03*
X-02624Y00598D03*
X02618Y0039D03*
X02367Y-00832D03*
X0018Y-00727D03*
G54D67*
X00451Y-00002D03*
Y00296D03*
Y00446D03*
X-00457Y00102D03*
Y00153D03*
Y00051D03*
X00451Y00044D03*
Y00095D03*
Y00245D03*
Y00343D03*
X-01334Y-00787D03*
X-00457Y0035D03*
X00451Y00394D03*
X-00443Y00496D03*
Y00547D03*
X-00457Y002D03*
Y00248D03*
Y00299D03*
G54D68*
X0054Y00453D03*
X-00503Y-00715D03*
X-00748Y-00551D03*
X-01219Y-00674D03*
X00465Y-00054D03*
X-01604Y-01041D03*
X-00254Y00085D03*
X00183Y0D03*
X-00641Y00224D03*
X01019Y-00311D03*
X01118Y-00303D03*
X-01333Y-00711D03*
G54D83*
X-00874Y-00716D03*
Y-00691D03*
Y-00665D03*
Y-0064D03*
Y-00614D03*
Y-00588D03*
Y-00563D03*
X-01097D03*
Y-00588D03*
Y-00614D03*
Y-0064D03*
Y-00665D03*
Y-00691D03*
G54D84*
X-01097Y-00716D03*
G54D89*
X0222Y-00134D03*
X02137D03*
X00903Y-00006D03*
X0082D03*
X00903Y0011D03*
X0082D03*
X01494Y-00259D03*
X01576D03*
X01494Y-00145D03*
X01576D03*
G54D92*
X02457Y-002D03*
X02518D03*
X0081Y-00729D03*
X00871D03*
X00224Y-00725D03*
X00285D03*
X01395D03*
X01456D03*
G54D93*
X00825Y00211D03*
Y00237D03*
Y00262D03*
Y00288D03*
Y00314D03*
Y00339D03*
Y00365D03*
Y00416D03*
X00605Y00186D03*
Y00211D03*
Y00237D03*
Y00262D03*
Y00288D03*
Y00314D03*
Y00339D03*
Y00365D03*
Y0039D03*
Y00416D03*
X00825Y0039D03*
Y00186D03*
X-008Y00119D03*
Y00323D03*
X-00579Y00093D03*
Y00119D03*
Y00144D03*
Y0017D03*
Y00195D03*
Y00221D03*
Y00247D03*
Y00272D03*
Y00298D03*
Y00323D03*
X-008Y00093D03*
Y00144D03*
Y0017D03*
Y00195D03*
Y00221D03*
Y00247D03*
Y00272D03*
Y00298D03*
G54D94*
X-00581Y-00708D03*
Y-008D03*
Y-01052D03*
Y-0096D03*
G54D95*
X02141Y00266D03*
X02216D03*
X02141Y00172D03*
X02216D03*
X02139Y00079D03*
X02214D03*
X02139Y-00013D03*
X02214D03*
G54D97*
X02617Y00459D03*
Y00536D03*
X-02404Y-00703D03*
Y-0078D03*
X-02623Y00448D03*
Y00525D03*
X02366Y-00762D03*
Y-00686D03*
G54D100*
X01982Y00359D03*
X02098D03*
X02097Y00476D03*
X01981D03*
G54D101*
X01889Y00326D03*
Y00507D03*
Y00417D03*
G54D103*
X00218Y-00785D03*
Y-00846D03*
X00216Y-01063D03*
Y-01002D03*
X00805D03*
Y-01063D03*
Y-00805D03*
Y-00866D03*
X01395Y-00857D03*
Y-00796D03*
Y-01057D03*
Y-00996D03*
G54D104*
X01661Y00417D03*
G54D105*
X-00527Y00576D03*
Y00493D03*
G54D106*
X-00799Y00442D03*
Y00521D03*
G54D107*
X-0122Y-00906D03*
X-01263D03*
X-01306Y-00914D03*
X-0135Y-00906D03*
X-01393Y-00914D03*
X-01436Y-00906D03*
X-01479Y-0089D03*
X-01523Y-00906D03*
G54D108*
X-01251Y-00478D03*
X-01476D03*
G54D109*
X-01306Y-00469D03*
G54D110*
X-01188Y-00996D03*
X-01706Y-01035D03*
G54D111*
X00395Y-00181D03*
Y-00161D03*
X00234Y-00181D03*
Y-00161D03*
Y-00141D03*
Y-00122D03*
Y-00102D03*
X00395Y-00141D03*
Y-00122D03*
Y-00102D03*
G54D112*
X-01663Y-00791D03*
Y-00716D03*
X-00633Y00509D03*
Y00435D03*
X-00887Y00509D03*
Y00435D03*
G54D113*
X01476Y-00024D03*
X01454D03*
X01581D03*
X01559D03*
Y00018D03*
X01581D03*
X01679Y-00024D03*
X01657D03*
Y00018D03*
X01679D03*
X01454Y00019D03*
X01476D03*
G54D114*
X-00724Y0046D03*
Y00515D03*
G54D115*
X-01038Y-00813D03*
X-00926D03*
X-01038Y-00911D03*
X-00926D03*
Y-01014D03*
X-01038D03*
X-00977Y-00472D03*
X-00865D03*
X01341Y-00635D03*
X00173Y-00636D03*
X0076Y-00635D03*
Y-00528D03*
X00872D03*
X00172D03*
X00284D03*
X01341D03*
X01453D03*
X00872Y-00635D03*
X00285Y-00636D03*
X01453Y-00635D03*
G54D116*
X01252Y00257D03*
X01303Y-0001D03*
X01047Y00257D03*
X01073D03*
X01098D03*
X01124D03*
X01149D03*
X01175D03*
X012D03*
X01226D03*
X01277D03*
X01303D03*
X01328D03*
X01354D03*
X0138D03*
X01047Y-0001D03*
X01073D03*
X01098D03*
X01124D03*
X01149D03*
X01175D03*
X012D03*
X01226D03*
X01252D03*
X01277D03*
X01328D03*
X01354D03*
X0138D03*
M02*