%FSTAX23Y23*%
%MOIN*%
%SFA1B1*%

%IPPOS*%
%ADD14C,0.010000*%
%ADD20R,0.043307X0.051181*%
%ADD21R,0.055441X0.039626*%
%ADD22R,0.051181X0.043307*%
%ADD23R,0.047244X0.047244*%
%ADD24R,0.062992X0.086614*%
%ADD25R,0.062992X0.085827*%
%ADD26R,0.047244X0.047244*%
%ADD27R,0.061024X0.053150*%
%ADD28R,0.075197X0.053937*%
%ADD29R,0.023622X0.031496*%
%ADD30C,0.078740*%
%ADD31R,0.035433X0.035433*%
%ADD32R,0.035433X0.088582*%
%ADD33R,0.088582X0.035433*%
%ADD34R,0.055118X0.059055*%
%ADD35R,0.057087X0.041339*%
%ADD53C,0.055118*%
%ADD54R,0.055118X0.055118*%
%ADD57C,0.047244*%
%ADD65C,0.045275*%
%ADD66R,0.045275X0.045275*%
%ADD71C,0.118110*%
%ADD72C,0.030000*%
%ADD73C,0.106299*%
%ADD74C,0.060000*%
%ADD75C,0.188976*%
%ADD76C,0.059055*%
%ADD77R,0.059055X0.059055*%
%ADD78C,0.047559*%
%ADD79C,0.051181*%
%ADD80R,0.051181X0.051181*%
%ADD81C,0.015748*%
%ADD82R,0.059055X0.059055*%
%ADD83C,0.029527*%
%ADD84C,0.027559*%
%ADD85C,0.118110*%
%LNbrushed_pcb-1*%
%LPD*%
G36*
X01976Y0093D02*
X02673D01*
Y-00937*
X01976*
Y-01145*
X-01976*
Y-00932*
X-02673*
Y0093*
X-01976*
Y01162*
X01976*
Y0093*
G37*
%LNbrushed_pcb-2*%
%LPC*%
G36*
X-00265Y01084D02*
X-00332D01*
Y01076*
X-00364*
X-00373Y01074*
X-00382Y01069*
X-00383Y01068*
X-00424*
Y01009*
X-00452*
Y01023*
X-00531*
Y00944*
X-00452*
Y00958*
X-00424*
Y00933*
X-00347*
Y00995*
X-00388*
X-00394Y01001*
X-00394Y01006*
X-00394Y01006*
X-00347*
Y01025*
X-00332*
Y01017*
X-00265*
Y01084*
G37*
G36*
X00098Y01105D02*
X00086Y01104D01*
X00074Y01101*
X00063Y01095*
X00053Y01087*
X00045Y01077*
X00039Y01066*
X00036Y01054*
X00035Y01042*
X00036Y0103*
X00039Y01018*
X00045Y01007*
X00053Y00997*
X00063Y00989*
X00074Y00983*
X00086Y0098*
X00098Y00979*
X0011Y0098*
X00122Y00983*
X00133Y00989*
X00143Y00997*
X00151Y01007*
X00157Y01018*
X0016Y0103*
X00161Y01042*
X0016Y01054*
X00157Y01066*
X00151Y01077*
X00143Y01087*
X00133Y01095*
X00122Y01101*
X0011Y01104*
X00098Y01105*
G37*
G36*
X00984Y01096D02*
X00971Y01095D01*
X00959Y01092*
X00948Y01086*
X00939Y01078*
X00931Y01068*
X00925Y01057*
X00922Y01045*
X0092Y01033*
X00922Y01021*
X00925Y01009*
X00931Y00998*
X00939Y00988*
X00948Y0098*
X00959Y00974*
X00971Y00971*
X00984Y0097*
X00996Y00971*
X01008Y00974*
X01019Y0098*
X01029Y00988*
X01037Y00998*
X01042Y01009*
X01046Y01021*
X01047Y01033*
X01046Y01045*
X01042Y01057*
X01037Y01068*
X01029Y01078*
X01019Y01086*
X01008Y01092*
X00996Y01095*
X00984Y01096*
G37*
G36*
X00787D02*
X00775Y01095D01*
X00763Y01092*
X00752Y01086*
X00742Y01078*
X00734Y01068*
X00728Y01057*
X00725Y01045*
X00723Y01033*
X00725Y01021*
X00728Y01009*
X00734Y00998*
X00742Y00988*
X00752Y0098*
X00763Y00974*
X00775Y00971*
X00787Y0097*
X00799Y00971*
X00811Y00974*
X00822Y0098*
X00832Y00988*
X0084Y00998*
X00846Y01009*
X00849Y01021*
X0085Y01033*
X00849Y01045*
X00846Y01057*
X0084Y01068*
X00832Y01078*
X00822Y01086*
X00811Y01092*
X00799Y01095*
X00787Y01096*
G37*
G36*
X-00787D02*
X-00799Y01095D01*
X-00811Y01092*
X-00822Y01086*
X-00832Y01078*
X-0084Y01068*
X-00846Y01057*
X-00849Y01045*
X-0085Y01033*
X-00849Y01021*
X-00846Y01009*
X-0084Y00998*
X-00832Y00988*
X-00822Y0098*
X-00811Y00974*
X-00799Y00971*
X-00787Y0097*
X-00775Y00971*
X-00763Y00974*
X-00752Y0098*
X-00742Y00988*
X-00734Y00998*
X-00728Y01009*
X-00725Y01021*
X-00723Y01033*
X-00725Y01045*
X-00728Y01057*
X-00734Y01068*
X-00742Y01078*
X-00752Y01086*
X-00763Y01092*
X-00775Y01095*
X-00787Y01096*
G37*
G36*
X-00984D02*
X-00996Y01095D01*
X-01008Y01092*
X-01019Y01086*
X-01029Y01078*
X-01037Y01068*
X-01042Y01057*
X-01046Y01045*
X-01047Y01033*
X-01046Y01021*
X-01042Y01009*
X-01037Y00998*
X-01029Y00988*
X-01019Y0098*
X-01008Y00974*
X-00996Y00971*
X-00984Y0097*
X-00971Y00971*
X-00959Y00974*
X-00948Y0098*
X-00939Y00988*
X-00931Y00998*
X-00925Y01009*
X-00922Y01021*
X-0092Y01033*
X-00922Y01045*
X-00925Y01057*
X-00931Y01068*
X-00939Y01078*
X-00948Y01086*
X-00959Y01092*
X-00971Y01095*
X-00984Y01096*
G37*
G36*
X00098Y00913D02*
X00091Y00912D01*
X00086Y00911*
X-00642*
X-00642Y00911*
X-01325*
X-01339Y0091*
X-01352Y00906*
X-01364Y009*
X-01374Y00891*
X-01383Y00881*
X-01389Y00869*
X-01393Y00856*
X-01395Y00842*
X-01393Y00828*
X-01389Y00815*
X-01383Y00803*
X-01374Y00793*
X-01364Y00784*
X-01352Y00778*
X-01339Y00774*
X-01325Y00773*
X-01198*
X-01196Y00768*
X-01199Y00765*
X-01206Y00757*
X-0121Y00747*
X-01211Y00737*
X-0121Y00726*
X-01206Y00717*
X-01199Y00708*
X-01191Y00702*
X-01181Y00698*
X-01171Y00697*
X-0116Y00698*
X-01151Y00702*
X-01142Y00708*
X-01136Y00717*
X-01132Y00726*
X-0113Y00737*
X-01132Y00747*
X-01136Y00757*
X-01142Y00765*
X-01145Y00768*
X-01143Y00773*
X-01098*
X-01096Y00768*
X-01099Y00765*
X-01106Y00757*
X-0111Y00747*
X-01111Y00737*
X-0111Y00726*
X-01106Y00717*
X-01099Y00708*
X-01091Y00702*
X-01081Y00698*
X-01071Y00697*
X-0106Y00698*
X-01051Y00702*
X-01042Y00708*
X-01036Y00717*
X-01032Y00726*
X-0103Y00737*
X-01032Y00747*
X-01036Y00757*
X-01042Y00765*
X-01045Y00768*
X-01043Y00773*
X-00997*
X-00995Y00768*
X-00999Y00765*
X-01006Y00756*
X-0101Y00747*
X-01011Y00736*
X-0101Y00726*
X-01006Y00716*
X-00999Y00708*
X-00991Y00701*
X-00981Y00697*
X-00971Y00696*
X-0096Y00697*
X-00951Y00701*
X-00942Y00708*
X-00936Y00716*
X-00932Y00726*
X-0093Y00736*
X-00932Y00747*
X-00936Y00756*
X-00942Y00765*
X-00946Y00768*
X-00944Y00773*
X-00898*
X-00896Y00768*
X-00899Y00765*
X-00906Y00757*
X-0091Y00747*
X-00911Y00737*
X-0091Y00726*
X-00906Y00717*
X-00899Y00708*
X-00891Y00702*
X-00881Y00698*
X-00871Y00697*
X-0086Y00698*
X-00851Y00702*
X-00842Y00708*
X-00836Y00717*
X-00832Y00726*
X-0083Y00737*
X-00832Y00747*
X-00836Y00757*
X-00842Y00765*
X-00845Y00768*
X-00843Y00773*
X-00798*
X-00796Y00768*
X-00799Y00765*
X-00806Y00757*
X-0081Y00747*
X-00811Y00737*
X-0081Y00726*
X-00806Y00717*
X-00799Y00708*
X-00791Y00702*
X-00781Y00698*
X-00771Y00697*
X-0076Y00698*
X-00751Y00702*
X-00742Y00708*
X-00736Y00717*
X-00732Y00726*
X-0073Y00737*
X-00732Y00747*
X-00736Y00757*
X-00742Y00765*
X-00745Y00768*
X-00743Y00773*
X-00698*
X-00696Y00768*
X-00699Y00765*
X-00706Y00757*
X-0071Y00747*
X-00711Y00737*
X-0071Y00726*
X-00706Y00717*
X-00699Y00708*
X-00691Y00702*
X-00681Y00698*
X-00671Y00697*
X-0066Y00698*
X-00651Y00702*
X-00642Y00708*
X-00636Y00717*
X-00632Y00726*
X-0063Y00737*
X-00632Y00747*
X-00636Y00757*
X-00642Y00765*
X-00645Y00768*
X-00643Y00773*
X-00642*
X-00642Y00773*
X00097*
X00108Y00774*
X00446Y00773*
X00448Y00768*
X00442Y00764*
X00436Y00755*
X00432Y00746*
X0043Y00735*
X00432Y00725*
X00436Y00715*
X00442Y00707*
X00451Y007*
X0046Y00696*
X00471Y00695*
X00481Y00696*
X00491Y007*
X00499Y00707*
X00506Y00715*
X0051Y00725*
X00511Y00735*
X0051Y00746*
X00506Y00755*
X00499Y00764*
X00494Y00768*
X00496Y00773*
X00546Y00773*
X00548Y00768*
X00542Y00764*
X00536Y00755*
X00532Y00746*
X0053Y00735*
X00532Y00725*
X00536Y00715*
X00542Y00707*
X00551Y007*
X0056Y00696*
X00571Y00695*
X00581Y00696*
X00591Y007*
X00599Y00707*
X00606Y00715*
X0061Y00725*
X00611Y00735*
X0061Y00746*
X00606Y00755*
X00599Y00764*
X00594Y00768*
X00596Y00773*
X00647Y00773*
X00648Y00768*
X00642Y00763*
X00636Y00755*
X00632Y00745*
X0063Y00734*
X00632Y00724*
X00636Y00714*
X00642Y00706*
X00651Y007*
X0066Y00696*
X00671Y00694*
X00681Y00696*
X00691Y007*
X00699Y00706*
X00706Y00714*
X0071Y00724*
X00711Y00734*
X0071Y00745*
X00706Y00755*
X00699Y00763*
X00693Y00768*
X00695Y00773*
X00745Y00772*
X00747Y00767*
X00742Y00764*
X00736Y00755*
X00732Y00746*
X0073Y00735*
X00732Y00725*
X00736Y00715*
X00742Y00707*
X00751Y007*
X0076Y00696*
X00771Y00695*
X00781Y00696*
X00791Y007*
X00799Y00707*
X00806Y00715*
X0081Y00725*
X00811Y00735*
X0081Y00746*
X00806Y00755*
X00799Y00764*
X00795Y00767*
X00796Y00772*
X00845Y00772*
X00847Y00767*
X00842Y00764*
X00836Y00755*
X00832Y00746*
X0083Y00735*
X00832Y00725*
X00836Y00715*
X00842Y00707*
X00851Y007*
X0086Y00696*
X00871Y00695*
X00881Y00696*
X00891Y007*
X00899Y00707*
X00906Y00715*
X0091Y00725*
X00911Y00735*
X0091Y00746*
X00906Y00755*
X00899Y00764*
X00895Y00767*
X00897Y00772*
X00945Y00772*
X00947Y00767*
X00942Y00764*
X00936Y00755*
X00932Y00746*
X0093Y00735*
X00932Y00725*
X00936Y00715*
X00942Y00707*
X00951Y007*
X0096Y00696*
X00971Y00695*
X00981Y00696*
X00991Y007*
X00999Y00707*
X01006Y00715*
X0101Y00725*
X01011Y00735*
X0101Y00746*
X01006Y00755*
X00999Y00764*
X00995Y00767*
X00997Y00772*
X01171Y00772*
X01292Y00771*
X01293Y00766*
X0129Y00764*
X01283Y00755*
X01279Y00746*
X01278Y00735*
X01279Y00725*
X01283Y00715*
X0129Y00707*
X01298Y007*
X01308Y00696*
X01318Y00695*
X01329Y00696*
X01339Y007*
X01347Y00707*
X01353Y00715*
X01357Y00725*
X01359Y00735*
X01357Y00746*
X01353Y00755*
X01347Y00764*
X01344Y00766*
X01345Y00771*
X01391Y00771*
X01393Y00766*
X0139Y00764*
X01383Y00755*
X01379Y00746*
X01378Y00735*
X01379Y00725*
X01383Y00715*
X0139Y00707*
X01398Y007*
X01408Y00696*
X01418Y00695*
X01429Y00696*
X01439Y007*
X01447Y00707*
X01453Y00715*
X01457Y00725*
X01459Y00735*
X01457Y00746*
X01453Y00755*
X01447Y00764*
X01444Y00766*
X01446Y00771*
X01492Y00771*
X01494Y00766*
X0149Y00763*
X01483Y00755*
X01479Y00745*
X01478Y00734*
X01479Y00724*
X01483Y00714*
X0149Y00706*
X01498Y007*
X01508Y00696*
X01518Y00694*
X01529Y00696*
X01539Y007*
X01547Y00706*
X01553Y00714*
X01557Y00724*
X01559Y00734*
X01557Y00745*
X01553Y00755*
X01547Y00763*
X01543Y00766*
X01545Y00771*
X01591Y00771*
X01593Y00766*
X0159Y00764*
X01583Y00755*
X01579Y00746*
X01578Y00735*
X01579Y00725*
X01583Y00715*
X0159Y00707*
X01598Y007*
X01608Y00696*
X01618Y00695*
X01629Y00696*
X01639Y007*
X01647Y00707*
X01653Y00715*
X01657Y00725*
X01659Y00735*
X01658Y00744*
X01662Y00747*
X01669Y00742*
X01668Y00733*
X01669Y0072*
X01673Y00707*
X0168Y00695*
X01688Y00684*
X01699Y00676*
X01711Y00669*
X01724Y00665*
X01737Y00664*
X01757*
Y0052*
X01759Y0051*
X01762Y00506*
X01759Y00502*
X01736*
X01611Y00628*
X01602Y00633*
X01592Y00635*
X0049*
X00451Y00674*
X00443Y0068*
X00433Y00682*
X-005*
X-0051Y0068*
X-00518Y00674*
X-00674Y00519*
X-02427*
X-02434Y00524*
X-02443Y00528*
X-02452Y00529*
X-02462Y00528*
X-0247Y00524*
X-02478Y00519*
X-02481Y00515*
X-0252*
X-0253Y00513*
X-02538Y00507*
X-02555Y0049*
X-02561Y00481*
X-02563Y00472*
Y00338*
Y-00548*
X-02561Y-00558*
X-02555Y-00566*
X-02518Y-00604*
X-02509Y-0061*
X-025Y-00612*
X-0239*
X-0234Y-00662*
Y-00711*
X-02338Y-00721*
X-02332Y-00729*
X-0231Y-00752*
X-02302Y-00757*
X-02292Y-00759*
X-02262*
X-02259Y-00763*
X-02252Y-00769*
X-02243Y-00772*
X-02234Y-00774*
X-02224Y-00772*
X-02216Y-00769*
X-02209Y-00763*
X-02065*
X-01913Y-00915*
X-01905Y-00921*
X-019Y-00922*
Y-00948*
X-01825*
Y-00919*
X-0182Y-00918*
X-01812Y-00912*
X-01805Y-00905*
X-01443*
X-01411Y-00937*
Y-01008*
X-01395*
Y-01027*
X-01393Y-01037*
X-01388Y-01045*
X-01379Y-01053*
X-01376Y-01056*
X-01377Y-01061*
X-01727*
X-01743Y-01044*
X-01752Y-01039*
X-01761Y-01037*
X-01771Y-01039*
X-01779Y-01044*
X-01785Y-01053*
X-01787Y-01062*
X-01785Y-01072*
X-01779Y-01081*
X-01756Y-01104*
X-01747Y-0111*
X-01738Y-01112*
X-00633*
X-00628Y-01116*
X-0062Y-01121*
X-0061Y-01123*
X0009*
X001Y-01121*
X00108Y-01116*
X00123Y-01101*
X00128Y-01103*
X00129Y-01111*
X00135Y-01119*
X00143Y-01125*
X00153Y-01127*
X00163Y-01125*
X00171Y-01119*
X00184Y-01106*
X00209*
X00212Y-01105*
X00252*
Y-01042*
X0018*
Y-01055*
X00174*
X0017Y-01055*
X00166Y-01051*
X00167Y-01047*
Y-00993*
Y-00967*
X00191Y-00942*
X00249*
X00271Y-00965*
Y-01059*
X00273Y-01068*
X00279Y-01077*
X0031Y-01108*
X00318Y-01113*
X00328Y-01115*
X00613*
X00622Y-01113*
X00631Y-01108*
X00667Y-01072*
X00698*
Y-01041*
X0078Y-00958*
X00839*
X00856Y-00975*
Y-01059*
X00858Y-01069*
X00863Y-01077*
X00894Y-01108*
X00902Y-01113*
X00912Y-01115*
X01202*
X01212Y-01113*
X0122Y-01108*
X01256Y-01072*
X01287*
Y-01059*
X01289Y-01058*
X01293Y-0106*
X01294Y-01061*
X01296Y-0107*
X01301Y-01079*
X01302Y-01079*
X0131Y-01085*
X0132Y-01087*
X01354*
Y-01099*
X01426*
Y-01036*
X01388*
X01386Y-01036*
X01328*
X01326Y-01031*
X01327Y-0103*
X01332Y-01022*
X01334Y-01012*
Y-00977*
X0135Y-00961*
X01431*
X01445Y-00975*
Y-0106*
X01447Y-01069*
X01453Y-01078*
X01483Y-01108*
X01491Y-01113*
X01501Y-01115*
X01786*
X01796Y-01113*
X01804Y-01108*
X0184Y-01072*
X01871*
Y-01039*
X01871Y-01038*
X01871Y-01037*
Y-01005*
X01838*
X01837Y-01004*
X01836Y-01005*
X01804*
Y-01036*
X01775Y-01064*
X01709*
X01706Y-01059*
X01709Y-01055*
X01713Y-01047*
X01714Y-01038*
X01713Y-01029*
X01709Y-01021*
X01704Y-01014*
X01697Y-01009*
X01689Y-01005*
X0168Y-01004*
X01671Y-01005*
X01663Y-01009*
X01656Y-01014*
X01651Y-01021*
X01647Y-01029*
X01646Y-01038*
X01647Y-01047*
X01651Y-01055*
X01654Y-01059*
X01651Y-01064*
X0163*
X01627Y-01059*
X01631Y-01055*
X01634Y-01047*
X01635Y-01038*
X01634Y-01029*
X01631Y-01021*
X01625Y-01014*
X01618Y-01009*
X0161Y-01005*
X01601Y-01004*
X01592Y-01005*
X01584Y-01009*
X01577Y-01014*
X01572Y-01021*
X01568Y-01029*
X01567Y-01038*
X01568Y-01047*
X01572Y-01055*
X01575Y-01059*
X01573Y-01064*
X01551*
X01549Y-01059*
X01552Y-01055*
X01555Y-01047*
X01556Y-01038*
X01555Y-01029*
X01552Y-01021*
X01546Y-01014*
X01539Y-01009*
X01538Y-01008*
Y-00903*
X01537Y-00898*
X01533Y-00893*
X01521Y-0088*
X01523Y-00875*
X01528Y-00874*
X01536Y-00871*
X01543Y-00865*
X01549Y-00858*
X01552Y-0085*
X01553Y-00841*
X01552Y-00832*
X0155Y-00828*
X01571Y-00807*
X01575Y-00802*
X01576Y-00797*
Y-00691*
X01577Y-00689*
X0158Y-00686*
X01792*
X01859Y-00754*
X01868Y-00759*
X01877Y-00761*
X02168*
X02169Y-00763*
X02177Y-00769*
X02185Y-00772*
X02195Y-00774*
X02204Y-00772*
X02213Y-00769*
X0222Y-00763*
X02226Y-00756*
X02229Y-00747*
X02231Y-00738*
X02229Y-00728*
X02226Y-0072*
X0222Y-00712*
X02213Y-00707*
X02204Y-00703*
X02195Y-00702*
X02185Y-00703*
X02177Y-00707*
X02172Y-0071*
X01888*
X01821Y-00643*
X01818Y-00641*
X0182Y-00636*
X01903*
X01909Y-00635*
X01914Y-00632*
X01977Y-00569*
X01981Y-00564*
X01982Y-00558*
Y-00535*
X01984Y-00531*
X01987*
X01997*
Y-00562*
X01997Y-00565*
X01997Y-00566*
X01998Y-00574*
X02001Y-00581*
X02006Y-00587*
X02012Y-00592*
X02019Y-00595*
X02027Y-00596*
X02035Y-00595*
X02042Y-00592*
X02048Y-00587*
X02053Y-00581*
X02056Y-00574*
X02057Y-00566*
X02056Y-00559*
X02053Y-00552*
X02048Y-00545*
X02048Y-00545*
Y-00503*
X02047Y-005*
Y-0046*
X01987*
X01984*
X01982Y-00456*
Y-0039*
X01987Y-00388*
X0199Y-00392*
X01998Y-00399*
X02008Y-00403*
X02018Y-00404*
X02029Y-00403*
X02039Y-00399*
X02047Y-00392*
X02053Y-00384*
X02057Y-00374*
X02059Y-00364*
X02057Y-00353*
X02053Y-00344*
X02047Y-00335*
X02039Y-00329*
X02029Y-00325*
X02018Y-00323*
X02008Y-00325*
X01998Y-00329*
X0199Y-00335*
X01987Y-00339*
X01982Y-00338*
Y-00103*
X01981Y-00097*
X01977Y-00092*
X01681Y00203*
X01676Y00207*
X0167Y00208*
X01382*
X01381Y0021*
X01372Y00216*
X0137Y00216*
X01344Y00243*
X01339Y00246*
X01333Y00247*
X00786*
X00784Y0025*
X00776Y00255*
X00766Y00257*
X00757Y00255*
X00748Y0025*
X00745Y00245*
X00742Y00243*
X00647Y00148*
X0064Y00153*
X0063Y00155*
X00621Y00153*
X00613Y00147*
X00612Y00146*
X00607Y00147*
X00606Y00151*
X006Y00159*
X00541Y00218*
X00533Y00224*
X00523Y00226*
X0048*
X00478Y00231*
X0048Y00237*
X00481Y00245*
X0048Y00253*
X00477Y0026*
X00473Y00266*
X0047Y00268*
Y00273*
X00473Y00275*
X00477Y00281*
X0048Y00288*
X00481Y00296*
X0048Y00304*
X00477Y00311*
X00473Y00317*
X00472Y00317*
Y0032*
X00473Y00323*
X00477Y00328*
X0048Y00335*
X00481Y00343*
X0048Y00351*
X00477Y00358*
X00473Y00364*
X0047Y00366*
Y00371*
X00473Y00373*
X00477Y00379*
X0048Y00387*
X00481Y00394*
X0048Y00402*
X00477Y00409*
X00473Y00415*
X0047Y00417*
Y00422*
X00473Y00424*
X00477Y00431*
X0048Y00438*
X00481Y00446*
X0048Y00453*
X00477Y0046*
X00473Y00467*
X00468Y0047*
X0047Y00475*
X00935*
X00937Y00471*
X00937Y0047*
X00935Y00461*
X00937Y00451*
X00942Y00443*
X00951Y00437*
X0096Y00435*
X0097Y00437*
X00978Y00443*
X00979Y00445*
X01106*
X01108Y00442*
X01116Y00437*
X01125Y00435*
X01135Y00437*
X01143Y00442*
X01149Y00451*
X01151Y0046*
X01149Y0047*
X01148Y0047*
X01151Y00475*
X01224*
X01319Y0038*
X01316Y00376*
X01314Y00378*
X01308Y00379*
X00958*
X00956Y00381*
X00948Y00387*
X00938Y00389*
X00929Y00387*
X00921Y00381*
X00915Y00373*
X00913Y00364*
X00915Y00354*
X00921Y00346*
X00929Y0034*
X00938Y00339*
X00948Y0034*
X00956Y00346*
X00958Y00348*
X01301*
X01313Y00337*
X01318Y00333*
X01324Y00332*
X0232*
X02375Y00278*
Y-00332*
X02368Y-00335*
X0236Y-00341*
X02354Y-00349*
X02352Y-00354*
X02346*
X02344Y-00349*
X02338Y-00341*
X0233Y-00335*
X02327Y-00334*
Y00277*
X02326Y00283*
X02322Y00288*
X02292Y00318*
X02287Y00322*
X02281Y00323*
X00925*
X00901Y00347*
Y00394*
X00904Y00395*
X00912Y004*
X00917Y00408*
X00919Y00418*
X00917Y00427*
X00912Y00436*
X00904Y00441*
X00894Y00443*
X00885Y00441*
X00876Y00436*
X00871Y00427*
X00869Y00418*
X0087Y00411*
X0087Y00409*
Y00341*
X00871Y00335*
X00874Y0033*
X00908Y00297*
X00913Y00293*
X00919Y00292*
X0186*
X01862Y00288*
X01862Y00287*
X0186Y00278*
Y00082*
X01862Y00072*
X01867Y00064*
X01876Y00059*
X01885Y00057*
X01895Y00059*
X01903Y00064*
X01909Y00072*
X01911Y00082*
Y00278*
X01909Y00287*
X01909Y00288*
X01911Y00292*
X02186*
Y00233*
X02254*
Y00241*
X02273*
X02283Y00243*
X02291Y00248*
X02291Y00249*
X02296Y00248*
Y00191*
X02291Y00189*
X02291Y0019*
X02283Y00195*
X02273Y00197*
X02254*
Y00206*
X02186*
Y00138*
X02254*
Y00146*
X02273*
X02283Y00148*
X02291Y00154*
X02291Y00155*
X02296Y00153*
Y00101*
X02291Y00098*
X02287Y00101*
X02277Y00103*
X02257*
Y00111*
X0219*
Y00044*
X02257*
Y00052*
X02277*
X02287Y00054*
X02291Y00057*
X02296Y00054*
Y00011*
X02292Y00008*
X02289Y0001*
X02279Y00012*
X02257*
Y00021*
X0219*
Y-00046*
X02257*
Y-00038*
X02279*
X02289Y-00036*
X02292Y-00034*
X02296Y-00036*
Y-0011*
X02292Y-00112*
X02289Y-0011*
X02279Y-00108*
X02276Y-00108*
X02252*
Y-00098*
X02188*
Y-0017*
X02252*
Y-00159*
X02278*
X02288Y-00158*
X02292Y-00155*
X02296Y-00157*
Y-00332*
X0229Y-00335*
X02281Y-00341*
X02275Y-00349*
X02271Y-00359*
X0227Y-00369*
X02271Y-0038*
X02275Y-00389*
X02281Y-00397*
X0229Y-00404*
X02299Y-00408*
X0231Y-00409*
X0232Y-00408*
X0233Y-00404*
X02338Y-00397*
X02344Y-00389*
X02346Y-00384*
X02352*
X02354Y-00389*
X0236Y-00397*
X02368Y-00404*
X02378Y-00408*
X02388Y-00409*
X02399Y-00408*
X02408Y-00404*
X02417Y-00397*
X02423Y-0039*
X02423Y-0039*
X02428Y-00393*
Y-00409*
X02466*
X02467Y-00409*
X02468Y-00409*
X02507*
Y-00371*
X02507Y-00369*
X02507Y-00368*
Y-0033*
X02468*
X02467Y-0033*
X02466Y-0033*
X02428*
Y-00346*
X02423Y-00349*
X02423Y-00349*
X02417Y-00341*
X02408Y-00335*
X02406Y-00334*
Y00205*
X0241Y00206*
X02411Y00206*
X02419Y002*
X02429Y00198*
X02461*
X02465Y00192*
X02475Y00185*
X02487Y0018*
X02497Y00178*
X02498Y00173*
X02493Y0017*
X02481Y00158*
X02476Y0015*
X02474Y0014*
Y00124*
X02465Y00117*
X02457Y00107*
X02452Y00095*
X02451Y00082*
X02452Y00069*
X02457Y00057*
X02465Y00047*
X02475Y00039*
X02487Y00034*
X025Y00032*
X02513Y00034*
X02525Y00039*
X02536Y00047*
X02543Y00057*
X02548Y00069*
X0255Y00082*
X02548Y00095*
X02543Y00107*
X02536Y00117*
X02526Y00125*
X02525Y0013*
X02529Y00134*
X02535Y00142*
X02537Y00152*
X02535Y00162*
X02529Y0017*
X02521Y00175*
X02518Y00176*
X02517Y00181*
X02525Y00185*
X02536Y00192*
X02543Y00203*
X02548Y00215*
X0255Y00228*
X02548Y00241*
X02543Y00253*
X02536Y00263*
X02525Y00271*
X02513Y00276*
X025Y00277*
X02487Y00276*
X02475Y00271*
X02465Y00263*
X02457Y00253*
X02456Y00249*
X02429*
X02419Y00247*
X02411Y00242*
X0241Y00242*
X02406Y00243*
Y00284*
X02404Y0029*
X02401Y00295*
X02348Y00347*
X0235Y00352*
X02382*
X0243Y00304*
X02438Y00299*
X02448Y00297*
X02552*
X02572Y00276*
Y-00544*
X02532Y-00584*
X02245*
X02235Y-00586*
X02227Y-00592*
X02196Y-00623*
X02195Y-00623*
X02185Y-00624*
X02177Y-00628*
X02169Y-00634*
X02164Y-00641*
X0216Y-0065*
X02159Y-00659*
X0216Y-00668*
X02164Y-00677*
X02169Y-00684*
X02177Y-0069*
X02185Y-00694*
X02195Y-00695*
X02204Y-00694*
X02213Y-0069*
X0222Y-00684*
X02226Y-00677*
X02229Y-00668*
X0223Y-00661*
X02256Y-00635*
X02543*
X02553Y-00633*
X02561Y-00628*
X02616Y-00573*
X02621Y-00564*
X02623Y-00555*
Y00287*
X02621Y00297*
X02616Y00305*
X02581Y0034*
X02572Y00346*
X02562Y00348*
X02459*
X02411Y00395*
X02403Y00401*
X02393Y00403*
X01368*
X01253Y00518*
X01251Y0052*
X01252Y00525*
X01585*
X01691Y00418*
X01699Y00413*
X01709Y00411*
X0231*
X02319Y00413*
X02328Y00418*
X02406Y00496*
X02409Y00495*
X0241Y00494*
X02411Y00485*
X02415Y00476*
X0242Y00469*
X02428Y00463*
X02437Y00459*
X02446Y00458*
X02455Y00459*
X02464Y00463*
X02471Y00469*
X02477Y00476*
X02481Y00485*
X02482Y00494*
X02481Y00503*
X02477Y00512*
X02471Y00519*
X02464Y00525*
X02455Y00529*
X02448Y0053*
X02446Y00535*
X02447Y00537*
X02455Y00538*
X02464Y00542*
X02471Y00547*
X02477Y00555*
X02481Y00563*
X02482Y00573*
X02481Y00582*
X02477Y00591*
X02471Y00598*
X02464Y00604*
X02455Y00607*
X02446Y00609*
X02437Y00607*
X02428Y00604*
X0242Y00598*
X02415Y00591*
X02411Y00582*
X0241Y00573*
X02299Y00462*
X02206*
X02204Y00466*
X02204Y00467*
X02206Y00477*
X02204Y00487*
X02199Y00495*
X0219Y005*
X02181Y00502*
X02179Y00502*
X01807*
X01804Y00506*
X01807Y0051*
X01808Y0052*
Y00664*
X01818Y00665*
X01831Y00669*
X01843Y00676*
X01853Y00684*
X01854Y00685*
X01855Y00686*
X01864Y00697*
X0187Y00709*
X01874Y00722*
X01875Y00735*
X01874Y00749*
X0187Y00762*
X01864Y00774*
X01855Y00784*
X01844Y00793*
X01784Y00833*
X01687Y00898*
X01682Y00901*
X01676Y00904*
X01676Y00904*
X01675Y00904*
X01675Y00904*
X01675Y00904*
X01669Y00906*
X01663Y00908*
X01663Y00908*
X01662Y00908*
X01662Y00908*
X01662Y00908*
X01656Y00909*
X0165Y00909*
X01649Y00909*
X01649Y00909*
X01171Y0091*
X00949Y00911*
X00885Y00911*
X00098Y00913*
X00098Y00913*
X00098Y00913*
G37*
G36*
X02263Y0085D02*
X02251Y00849D01*
X02239Y00846*
X02228Y0084*
X02218Y00832*
X02211Y00822*
X02205Y00811*
X02201Y00799*
X022Y00787*
X02201Y00775*
X02205Y00763*
X02211Y00752*
X02218Y00742*
X02228Y00734*
X02239Y00728*
X02251Y00725*
X02263Y00723*
X02276Y00725*
X02288Y00728*
X02299Y00734*
X02308Y00742*
X02316Y00752*
X02322Y00763*
X02326Y00775*
X02327Y00787*
X02326Y00799*
X02322Y00811*
X02316Y00822*
X02308Y00832*
X02299Y0084*
X02288Y00846*
X02276Y00849*
X02263Y0085*
G37*
G36*
X-02263Y0085D02*
X-02276Y00848D01*
X-02287Y00845*
X-02298Y00839*
X-02308Y00831*
X-02316Y00821*
X-02322Y0081*
X-02325Y00798*
X-02327Y00786*
X-02325Y00774*
X-02322Y00762*
X-02316Y00751*
X-02308Y00741*
X-02298Y00733*
X-02287Y00727*
X-02276Y00724*
X-02263Y00723*
X-02251Y00724*
X-02239Y00727*
X-02228Y00733*
X-02218Y00741*
X-0221Y00751*
X-02205Y00762*
X-02201Y00774*
X-022Y00786*
X-02201Y00798*
X-02205Y0081*
X-0221Y00821*
X-02218Y00831*
X-02228Y00839*
X-02239Y00845*
X-02251Y00848*
X-02263Y0085*
G37*
G36*
X-01516Y00779D02*
X-01527Y00777D01*
X-01536Y00773*
X-01545Y00767*
X-01551Y00759*
X-01555Y00749*
X-01556Y00738*
X-01555Y00728*
X-01551Y00718*
X-01545Y0071*
X-01536Y00703*
X-01527Y00699*
X-01516Y00698*
X-01506Y00699*
X-01496Y00703*
X-01488Y0071*
X-01481Y00718*
X-01477Y00728*
X-01476Y00738*
X-01477Y00749*
X-01481Y00759*
X-01488Y00767*
X-01496Y00773*
X-01506Y00777*
X-01516Y00779*
G37*
G36*
X-01616D02*
X-01627Y00777D01*
X-01636Y00773*
X-01645Y00767*
X-01651Y00759*
X-01655Y00749*
X-01656Y00738*
X-01655Y00728*
X-01651Y00718*
X-01645Y0071*
X-01636Y00703*
X-01627Y00699*
X-01616Y00698*
X-01606Y00699*
X-01596Y00703*
X-01588Y0071*
X-01581Y00718*
X-01577Y00728*
X-01576Y00738*
X-01577Y00749*
X-01581Y00759*
X-01588Y00767*
X-01596Y00773*
X-01606Y00777*
X-01616Y00779*
G37*
G36*
X-01716D02*
X-01727Y00777D01*
X-01736Y00773*
X-01745Y00767*
X-01751Y00759*
X-01755Y00749*
X-01756Y00738*
X-01755Y00728*
X-01751Y00718*
X-01745Y0071*
X-01736Y00703*
X-01727Y00699*
X-01716Y00698*
X-01706Y00699*
X-01696Y00703*
X-01688Y0071*
X-01681Y00718*
X-01677Y00728*
X-01676Y00738*
X-01677Y00749*
X-01681Y00759*
X-01688Y00767*
X-01696Y00773*
X-01706Y00777*
X-01716Y00779*
G37*
G36*
X-01916D02*
X-01927Y00777D01*
X-01936Y00773*
X-01945Y00767*
X-01951Y00759*
X-01955Y00749*
X-01956Y00738*
X-01955Y00728*
X-01951Y00718*
X-01945Y0071*
X-01936Y00703*
X-01927Y00699*
X-01916Y00698*
X-01906Y00699*
X-01896Y00703*
X-01888Y0071*
X-01881Y00718*
X-01877Y00728*
X-01876Y00738*
X-01877Y00749*
X-01881Y00759*
X-01888Y00767*
X-01896Y00773*
X-01906Y00777*
X-01916Y00779*
G37*
G36*
X-02016D02*
X-02027Y00777D01*
X-02036Y00773*
X-02045Y00767*
X-02051Y00759*
X-02055Y00749*
X-02056Y00738*
X-02055Y00728*
X-02051Y00718*
X-02045Y0071*
X-02036Y00703*
X-02027Y00699*
X-02016Y00698*
X-02006Y00699*
X-01996Y00703*
X-01988Y0071*
X-01981Y00718*
X-01977Y00728*
X-01976Y00738*
X-01977Y00749*
X-01981Y00759*
X-01988Y00767*
X-01996Y00773*
X-02006Y00777*
X-02016Y00779*
G37*
G36*
X-01816Y00778D02*
X-01827Y00777D01*
X-01836Y00772*
X-01845Y00766*
X-01851Y00758*
X-01855Y00748*
X-01856Y00738*
X-01855Y00727*
X-01851Y00717*
X-01845Y00709*
X-01836Y00703*
X-01827Y00699*
X-01816Y00697*
X-01806Y00699*
X-01796Y00703*
X-01788Y00709*
X-01781Y00717*
X-01777Y00727*
X-01776Y00738*
X-01777Y00748*
X-01781Y00758*
X-01788Y00766*
X-01796Y00772*
X-01806Y00777*
X-01816Y00778*
G37*
G36*
X02263Y00654D02*
X02251Y00652D01*
X02239Y00649*
X02228Y00643*
X02218Y00635*
X02211Y00625*
X02205Y00614*
X02201Y00602*
X022Y0059*
X02201Y00578*
X02205Y00566*
X02211Y00555*
X02218Y00545*
X02228Y00537*
X02239Y00531*
X02251Y00528*
X02263Y00527*
X02276Y00528*
X02288Y00531*
X02299Y00537*
X02308Y00545*
X02316Y00555*
X02322Y00566*
X02326Y00578*
X02327Y0059*
X02326Y00602*
X02322Y00614*
X02316Y00625*
X02308Y00635*
X02299Y00643*
X02288Y00649*
X02276Y00652*
X02263Y00654*
G37*
G36*
X-02263Y00653D02*
X-02276Y00651D01*
X-02287Y00648*
X-02298Y00642*
X-02308Y00634*
X-02316Y00624*
X-02322Y00613*
X-02325Y00602*
X-02327Y00589*
X-02325Y00577*
X-02322Y00565*
X-02316Y00554*
X-02308Y00544*
X-02298Y00536*
X-02287Y00531*
X-02276Y00527*
X-02263Y00526*
X-02251Y00527*
X-02239Y00531*
X-02228Y00536*
X-02218Y00544*
X-0221Y00554*
X-02205Y00565*
X-02201Y00577*
X-022Y00589*
X-02201Y00602*
X-02205Y00613*
X-0221Y00624*
X-02218Y00634*
X-02228Y00642*
X-02239Y00648*
X-02251Y00651*
X-02263Y00653*
G37*
G36*
X-02624Y00623D02*
X-02634Y00621D01*
X-02642Y00616*
X-02648Y00607*
X-0265Y00598*
Y00559*
X-02659*
Y00496*
X-02588*
Y00559*
X-02599*
Y00598*
X-02601Y00607*
X-02606Y00616*
X-02615Y00621*
X-02624Y00623*
G37*
G36*
X02652Y00488D02*
X02581D01*
Y00425*
X02592*
Y0039*
X02594Y0038*
X026Y00372*
X02608Y00366*
X02618Y00364*
X02628Y00366*
X02636Y00372*
X02641Y0038*
X02643Y0039*
Y00425*
X02652*
Y00488*
G37*
G36*
X02538Y-0046D02*
X02459D01*
Y-00539*
X02538*
Y-0046*
G37*
G36*
X02398Y-00459D02*
X02388Y-00461D01*
X02378Y-00465*
X0237Y-00471*
X02364Y-00479*
X0236Y-00489*
X02358Y-00499*
X0236Y-00509*
X02364Y-00519*
X0237Y-00527*
X02378Y-00534*
X02388Y-00538*
X02398Y-00539*
X02408Y-00538*
X02418Y-00534*
X02426Y-00527*
X02433Y-00519*
X02437Y-00509*
X02438Y-00499*
X02437Y-00489*
X02433Y-00479*
X02426Y-00471*
X02418Y-00465*
X02408Y-00461*
X02398Y-00459*
G37*
G36*
X02298D02*
X02288Y-00461D01*
X02278Y-00465*
X0227Y-00471*
X02264Y-00479*
X0226Y-00489*
X02258Y-00499*
X0226Y-00509*
X02264Y-00519*
X0227Y-00527*
X02278Y-00534*
X02288Y-00538*
X02298Y-00539*
X02308Y-00538*
X02318Y-00534*
X02326Y-00527*
X02333Y-00519*
X02337Y-00509*
X02338Y-00499*
X02337Y-00489*
X02333Y-00479*
X02326Y-00471*
X02318Y-00465*
X02308Y-00461*
X02298Y-00459*
G37*
G36*
X-02404Y-00618D02*
X-02414Y-0062D01*
X-02422Y-00625*
X-02422Y-00626*
X-02428Y-00634*
X-0243Y-00644*
Y-00671*
X-0244*
Y-00734*
X-02369*
Y-00671*
X-02379*
Y-00646*
X-02379Y-00643*
X-0238Y-00634*
X-02386Y-00625*
X-02394Y-0062*
X-02404Y-00618*
G37*
G36*
X02401Y-00734D02*
X0233D01*
Y-00797*
X02346*
Y-00826*
X02346Y-00826*
X02343Y-00833*
X02342Y-00841*
X02343Y-00849*
X02346Y-00856*
X0235Y-00862*
X02357Y-00867*
X02364Y-0087*
X02372Y-00871*
X02379Y-0087*
X02386Y-00867*
X02393Y-00862*
X02397Y-00856*
X024Y-00849*
X02401Y-00841*
X024Y-00833*
X02397Y-00826*
X02397Y-00826*
Y-00797*
X02401*
Y-00734*
G37*
G36*
X01834Y-00808D02*
X01833Y-00808D01*
X01801*
Y-0084*
X018Y-00841*
X01801Y-00842*
Y-00875*
X01833*
X01834Y-00875*
X01835Y-00875*
X01868*
Y-00842*
X01868Y-00841*
X01868Y-0084*
Y-00808*
X01835*
X01834Y-00808*
G37*
G36*
X01677Y-00807D02*
X01668Y-00809D01*
X0166Y-00812*
X01653Y-00817*
X01647Y-00824*
X01644Y-00832*
X01643Y-00841*
X01644Y-0085*
X01647Y-00858*
X01653Y-00865*
X0166Y-00871*
X01668Y-00874*
X01677Y-00875*
X01685Y-00874*
X01694Y-00871*
X01701Y-00865*
X01706Y-00858*
X01709Y-0085*
X01711Y-00841*
X01709Y-00832*
X01706Y-00824*
X01701Y-00817*
X01694Y-00812*
X01685Y-00809*
X01677Y-00807*
G37*
G36*
X01598D02*
X01589Y-00809D01*
X01581Y-00812*
X01574Y-00817*
X01569Y-00824*
X01565Y-00832*
X01564Y-00841*
X01565Y-0085*
X01569Y-00858*
X01574Y-00865*
X01581Y-00871*
X01589Y-00874*
X01598Y-00875*
X01607Y-00874*
X01615Y-00871*
X01622Y-00865*
X01627Y-00858*
X01631Y-0085*
X01632Y-00841*
X01631Y-00832*
X01627Y-00824*
X01622Y-00817*
X01615Y-00812*
X01607Y-00809*
X01598Y-00807*
G37*
G36*
X00729Y-01039D02*
X00719Y-01041D01*
X00711Y-01047*
X00705Y-01055*
X00703Y-01065*
X00705Y-01075*
X00711Y-01083*
X00717Y-01089*
X00725Y-01094*
X00735Y-01096*
X0077*
Y-01105*
X00841*
Y-01042*
X0077*
Y-01045*
X00744*
X00738Y-01041*
X00729Y-01039*
G37*
%LNbrushed_pcb-3*%
%LPD*%
G36*
X00462Y00592D02*
X0047Y00586D01*
X0048Y00584*
X01582*
X01586Y0058*
X01584Y00576*
X00414*
Y00578*
X00305*
Y00523*
Y00473*
Y00423*
Y00373*
Y00323*
Y00273*
Y00223*
Y00173*
Y00123*
Y00073*
Y00023*
Y-00014*
X00302Y-00017*
X00301Y-00017*
X00125*
X00116Y-00019*
X00107Y-00025*
X00102Y-00033*
X001Y-00043*
X00102Y-00053*
X00104Y-00055*
X00101Y-00059*
X0009*
Y00015*
X00092Y00017*
X00098Y00025*
X00099Y00035*
X00098Y00045*
X00092Y00053*
X00084Y00058*
X00074Y0006*
X00065Y00058*
X00057Y00053*
X00051Y00045*
X00049Y00035*
X00051Y00025*
X00057Y00017*
X00059Y00015*
Y-00059*
X-00099*
Y00001*
X-00098Y00005*
X-001Y00015*
X-00106Y00023*
X-00114Y00029*
X-00124Y00031*
X-00133Y00029*
X-00142Y00023*
X-00143Y00022*
X-00148Y00014*
X-0015Y00004*
Y-00016*
X-00155Y-00018*
X-00156Y-00016*
X-00165Y-0001*
X-00174Y-00008*
X-00184Y-0001*
X-00192Y-00016*
X-00193Y-00016*
X-00198Y-00024*
X-002Y-00034*
Y-00059*
X-00202*
Y-00168*
X-001*
Y-00194*
X-00237Y-00331*
X-00298*
X-00308Y-00333*
X-00316Y-00339*
X-00322Y-00347*
X-00324Y-00357*
X-00322Y-00367*
X-00316Y-00375*
X-00308Y-0038*
X-00304Y-00381*
X-00302Y-00386*
X-00303Y-00387*
X-00305Y-00397*
X-00303Y-00405*
X-00308Y-00407*
X-00333Y-00382*
Y-00077*
X-00304*
X-00302Y-00081*
Y-00168*
X-00247*
Y-00059*
X-00299*
X-00302*
X-00304Y-00055*
Y-00027*
Y00022*
Y00072*
Y00122*
Y00172*
Y00222*
Y00272*
Y00322*
Y00372*
Y00422*
Y00472*
Y00522*
Y00578*
X-00413*
Y00573*
X-0043*
X-00436Y00576*
X-00443Y00577*
X-00451Y00576*
X-00458Y00573*
X-00464Y00568*
X-00469Y00562*
X-00472Y00554*
X-00473Y00547*
X-00472Y00539*
X-00469Y00532*
X-00464Y00526*
X-00462Y00524*
Y00519*
X-00464Y00517*
X-00469Y0051*
X-00472Y00503*
X-00473Y00496*
X-00472Y00488*
X-00469Y00481*
X-00469Y0048*
X-00471Y00475*
X-00639*
X-0064Y0048*
X-0049Y00631*
X00423*
X00462Y00592*
G37*
G36*
X-02373Y00463D02*
X-02396Y0044D01*
X-02427*
X-02434Y00446*
X-02443Y00449*
X-02452Y0045*
X-02462Y00449*
X-0247Y00446*
X-02478Y0044*
X-02483Y00432*
X-02487Y00424*
X-02488Y00414*
X-02487Y00405*
X-02483Y00397*
X-02478Y00389*
X-0247Y00383*
X-02462Y0038*
X-02452Y00379*
X-02443Y0038*
X-02434Y00383*
X-02427Y00389*
X-02391*
X-02389Y00384*
X-02409Y00363*
X-02512*
Y00461*
X-02509Y00464*
X-02472*
X-0247Y00462*
X-02462Y00459*
X-02452Y00457*
X-02443Y00459*
X-02434Y00462*
X-02427Y00468*
X-02375*
X-02373Y00463*
G37*
G36*
X-00892Y00362D02*
X-00894Y00358D01*
X-00897Y00358*
X-00907Y00356*
X-00911Y00354*
X-00916Y00356*
Y00357*
X-01011*
Y0032*
X-0102Y0031*
X-01025Y00312*
Y00357*
X-01047*
Y00395*
X-00924*
X-00892Y00362*
G37*
G36*
X-01098Y00357D02*
X-0112D01*
Y00294*
X-01134*
Y00357*
X-01229*
Y00311*
X-0123Y00309*
X-01229Y00306*
Y00294*
X-01243*
Y00357*
X-01267*
Y00384*
X-01098*
Y00357*
G37*
G36*
X-01318D02*
X-01338D01*
Y00294*
X-01352*
Y00357*
X-01448*
Y00294*
X-01461*
Y00357*
X-01481*
Y00384*
X-01318*
Y00357*
G37*
G36*
X-01532D02*
X-01557D01*
Y00294*
X-01571*
Y00357*
X-01666*
Y00294*
X-0168*
Y00357*
X-01702*
Y00384*
X-01532*
Y00357*
G37*
G36*
X-01753D02*
X-01775D01*
Y00294*
X-01789*
Y00357*
X-01884*
Y00294*
X-01898*
Y00357*
X-0192*
Y00384*
X-01753*
Y00357*
G37*
G36*
X01303Y00211D02*
X01301Y0021D01*
X01299Y00208*
X00788*
X00786Y0021*
X00785Y00213*
X00786Y00216*
X01301*
X01303Y00211*
G37*
G36*
X-00907Y0031D02*
X-00897Y00308D01*
X-00888Y0031*
X-00887Y0031*
X-00883Y00307*
Y00071*
X-00884Y00069*
X-0089Y00061*
X-00892Y00052*
X-0089Y00042*
X-00884Y00034*
X-00877Y00029*
X-00876Y00028*
X-00875Y00024*
X-00932Y-00032*
X-01192*
X-01197Y-00033*
X-01199Y-00029*
X-01055Y00115*
X-01049Y00123*
X-01047Y00133*
Y00172*
X-01025*
Y00183*
X-01011*
Y00172*
X-00916*
Y00246*
X-01005*
X-01007Y0025*
X-01007Y00251*
X-00992Y00265*
X-00989Y00269*
X-00975Y00284*
X-00916*
Y0031*
X-00911Y00313*
X-00907Y0031*
G37*
G36*
X-0112Y00172D02*
X-01098D01*
Y00143*
X-01236Y00005*
X-01336*
X-01338Y0001*
X-01273Y00075*
X-01267Y00083*
X-01265Y00093*
Y00172*
X-01243*
Y00183*
X-01229*
Y00172*
X-01134*
Y00243*
X-0112*
Y00172*
G37*
G36*
X-01338D02*
X-01316D01*
Y00104*
X-01374Y00046*
X-01536*
X-01538Y00051*
X-01491Y00098*
X-01485Y00106*
X-01484Y00116*
Y00172*
X-01461*
Y00183*
X-01448*
Y00172*
X-01352*
Y00243*
X-01338*
Y00172*
G37*
G36*
X-01557D02*
X-01535D01*
Y00126*
X-01572Y00088*
X-01723*
X-01725Y00093*
X-0171Y00108*
X-01704Y00117*
X-01702Y00126*
Y00172*
X-0168*
Y00183*
X-01666*
Y00172*
X-01571*
Y00243*
X-01557*
Y00172*
G37*
G36*
X-01775D02*
X-01753D01*
Y00137*
X-01762Y00128*
X-02122*
Y00154*
X-02122Y00155*
X-02122Y00156*
Y00183*
X-01993*
Y00172*
X-01898*
Y00183*
X-01884*
Y00172*
X-01789*
Y00243*
X-01775*
Y00172*
G37*
G36*
X01301Y00175D02*
X01303Y00173D01*
Y00157*
X01304Y00151*
X01308Y00146*
X0135Y00104*
X01355Y001*
X01361Y00099*
X01686*
X01855Y-00069*
Y-00338*
X0185Y-00339*
X01847Y-00335*
X01839Y-00329*
X01829Y-00325*
X01818Y-00323*
X01808Y-00325*
X01798Y-00329*
X0179Y-00335*
X01783Y-00344*
X01779Y-00353*
X01778Y-00364*
X01779Y-00374*
X01781Y-00379*
X01764Y-00396*
X01749*
X01748Y-00391*
X01753Y-00384*
X01757Y-00374*
X01759Y-00364*
X01757Y-00353*
X01753Y-00344*
X01747Y-00335*
X01739Y-00329*
X01734Y-00327*
Y-00088*
X01733Y-00082*
X01729Y-00077*
X01723Y-00071*
X01718Y-00068*
X01713Y-00067*
X01425*
X01238Y0012*
X01238Y00123*
X01237Y00132*
X01231Y0014*
X01223Y00146*
X01213Y00148*
X01204Y00146*
X01195Y0014*
X0119Y00132*
X01188Y00123*
X0119Y00113*
X01195Y00105*
X01204Y00099*
X01213Y00098*
X01216Y00098*
X01408Y-00093*
X01413Y-00096*
X01419Y-00097*
X01703*
Y-00327*
X01698Y-00329*
X0169Y-00335*
X01683Y-00344*
X01679Y-00353*
X01678Y-00364*
X01679Y-00374*
X01683Y-00384*
X01689Y-00391*
X01688Y-00396*
X01649*
X01648Y-00391*
X01653Y-00384*
X01657Y-00374*
X01659Y-00364*
X01657Y-00353*
X01653Y-00344*
X01647Y-00335*
X01639Y-00329*
X01629Y-00325*
X01618Y-00323*
X01608Y-00325*
X01598Y-00329*
X0159Y-00335*
X01583Y-00344*
X01579Y-00353*
X01578Y-00364*
X01579Y-00374*
X01583Y-00384*
X01589Y-00391*
X01588Y-00396*
X01549*
X01548Y-00391*
X01553Y-00384*
X01557Y-00374*
X01559Y-00364*
X01557Y-00353*
X01553Y-00344*
X01547Y-00335*
X01544Y-00333*
Y-00217*
X01542Y-00208*
X01536Y-00199*
X01481Y-00144*
X01473Y-00138*
X01463Y-00136*
X01029*
X01027Y-00133*
X01027Y-00131*
X01029Y-00122*
X01027Y-00113*
X01021Y-00104*
X01018Y-00103*
Y00095*
X0102Y00097*
X01026Y00105*
X01028Y00115*
X01026Y00124*
X0102Y00132*
X01012Y00138*
X01003Y0014*
X00993Y00138*
X00985Y00132*
X00979Y00124*
X00977Y00115*
X00979Y00105*
X00985Y00097*
X00988Y00095*
Y-00103*
X00986Y-00104*
X0098Y-00113*
X00978Y-00122*
X0098Y-00131*
X0098Y-00133*
X00978Y-00136*
X00807*
X0061Y0006*
X0061Y00062*
X0061Y00062*
X00616Y00064*
X00622Y0006*
X00631Y00058*
X00641Y0006*
X00649Y00065*
X00651Y00068*
X00654*
X0066Y00069*
X00665Y00072*
X0076Y00168*
X00763Y00167*
X00773Y00169*
X00781Y00175*
X00783Y00177*
X01299*
X01301Y00175*
G37*
G36*
X-00766Y00419D02*
X-00768Y00418D01*
X-00836Y0035*
X-00841Y00342*
X-00843Y00332*
Y0007*
X-00848Y00069*
X-00849Y00069*
X-00852Y00072*
Y0036*
X-00853Y00365*
X-00857Y0037*
X-00906Y00419*
X-00904Y00424*
X-00767*
X-00766Y00419*
G37*
G36*
X00493Y00118D02*
Y00005D01*
X00495Y-00004*
X00501Y-00012*
X00563Y-00074*
X00561Y-00079*
X00543*
X00541Y-00076*
X00533Y-00071*
X00523Y-00069*
X00513Y-00071*
X00505Y-00076*
X005Y-00084*
X00498Y-00094*
X00498Y-00097*
X0049Y-00098*
X00482Y-00104*
X00476Y-00112*
X00474Y-00122*
X00476Y-00131*
X00482Y-00139*
X0049Y-00145*
X005Y-00147*
X00502Y-00146*
X0056Y-00204*
X00565Y-00207*
X00571Y-00208*
X00639*
X00643Y-00212*
X0064Y-00217*
X00635Y-00216*
X00354*
X00303Y-00164*
Y-00116*
X00302Y-00114*
Y-0008*
X00305Y-00076*
X00414*
Y-00018*
X00426*
X0043Y-00023*
X00437Y-00028*
X00444Y-00031*
X00451Y-00032*
X00459Y-00031*
X00466Y-00028*
X00473Y-00023*
X00477Y-00017*
X0048Y-0001*
X00481Y-00002*
X0048Y00004*
X00477Y00012*
X00473Y00018*
X00472Y00018*
Y00021*
X00473Y00024*
X00477Y00029*
X0048Y00036*
X00481Y00044*
X0048Y00052*
X00477Y00059*
X00473Y00065*
X0047Y00067*
Y00072*
X00473Y00074*
X00477Y0008*
X0048Y00087*
X00481Y00095*
X0048Y00103*
X00477Y0011*
X00473Y00116*
X00468Y0012*
X0047Y00125*
X00486*
X00493Y00118*
G37*
G36*
X00634Y-00173D02*
X00632Y-00178D01*
X00577*
X00524Y-00125*
X00525Y-00122*
X00524Y-00119*
X00533Y-00117*
X00541Y-00112*
X00543Y-00109*
X0057*
X00634Y-00173*
G37*
G36*
X00557Y00131D02*
Y00052D01*
X00559Y00042*
X00564Y00034*
X00774Y-00175*
X00772Y-00179*
X0074*
X00544Y00016*
Y00129*
X00542Y00138*
X00542Y00138*
X00547Y0014*
X00557Y00131*
G37*
G36*
X-00413Y-00077D02*
X-00384D01*
Y-00228*
X-00389Y-0023*
X-00444Y-00175*
Y-00036*
X-00433Y-00025*
X-00413*
Y-00077*
G37*
G36*
X01345Y00175D02*
X01353Y00169D01*
X01363Y00167*
X01372Y00169*
X01381Y00175*
X01382Y00177*
X01663*
X01951Y-0011*
Y-00333*
X01946Y-00335*
X01939Y-00329*
X01929Y-00325*
X01918Y-00323*
X01908Y-00325*
X01898Y-00329*
X01891Y-00335*
X01886Y-00333*
Y-00063*
X01885Y-00057*
X01881Y-00052*
X01703Y00125*
X01698Y00129*
X01692Y0013*
X01367*
X01334Y00163*
Y00173*
X01336Y00175*
X01338Y00177*
X01343*
X01345Y00175*
G37*
G36*
X01493Y-00228D02*
Y-00333D01*
X0149Y-00335*
X01483Y-00344*
X01479Y-00353*
X01478Y-00364*
X01479Y-00374*
X01483Y-00384*
X01489Y-00391*
X01488Y-00396*
X01449*
X01448Y-00391*
X01453Y-00384*
X01457Y-00374*
X01459Y-00364*
X01457Y-00353*
X01453Y-00344*
X01447Y-00335*
X01444Y-00333*
Y-00269*
X01442Y-00259*
X01436Y-00251*
X01378Y-00192*
X0138Y-00187*
X01453*
X01493Y-00228*
G37*
G36*
X01855Y-0039D02*
Y-00425D01*
X01739Y-0054*
X01736Y-00539*
X01726Y-00538*
X01716Y-00539*
X01707Y-00543*
X01699Y-00549*
X01693Y-00557*
X01689Y-00566*
X01688Y-00576*
X01689Y-00585*
X01693Y-00594*
X01698Y-00601*
X01696Y-00606*
X01679*
X01663Y-00589*
X01664Y-00585*
X01665Y-00576*
X01664Y-00566*
X0166Y-00557*
X01654Y-00549*
X01646Y-00543*
X01637Y-00539*
X01627Y-00538*
X01618Y-00539*
X01609Y-00543*
X01601Y-00549*
X01595Y-00557*
X01591Y-00566*
X0159Y-00576*
X01591Y-00585*
X01595Y-00594*
X01601Y-00602*
X01609Y-00608*
X01618Y-00612*
X01627Y-00613*
X01637Y-00612*
X01641Y-00611*
X01661Y-0063*
X01659Y-00635*
X01578*
X01568Y-00637*
X0156Y-00643*
X01555Y-00651*
X01554Y-00656*
X01549Y-00657*
X0151Y-00618*
X01512Y-00613*
X01528*
X01529Y-00613*
X0153Y-00613*
X01567*
Y-00577*
X01567Y-00576*
X01567Y-00574*
Y-00538*
X0153*
X01529Y-00538*
X01528Y-00538*
X01499*
Y-00533*
X01498Y-00527*
X01494Y-00522*
X01403Y-00432*
X01405Y-00427*
X0177*
X01776Y-00426*
X01781Y-00423*
X01803Y-00401*
X01808Y-00403*
X01818Y-00404*
X01829Y-00403*
X01839Y-00399*
X01847Y-00392*
X0185Y-00388*
X01855Y-0039*
G37*
G36*
X01354Y-00293D02*
Y-00391D01*
X01355Y-00397*
X01359Y-00402*
X01365Y-00408*
X01363Y-00413*
X01282*
X0128Y-0041*
X01272Y-00405*
X01262Y-00403*
X01253Y-00405*
X01244Y-0041*
X01244Y-00412*
X01239*
X01238Y-0041*
X0123Y-00405*
X0122Y-00403*
X0121Y-00405*
X01202Y-0041*
X01197Y-00418*
X01195Y-00428*
X01197Y-00438*
X01202Y-00446*
X01205Y-00448*
Y-00451*
X01206Y-00457*
X01209Y-00462*
X01226Y-00479*
X01231Y-00482*
X01237Y-00483*
X01362*
X0144Y-00561*
Y-00634*
X01441Y-0064*
X01444Y-00645*
X01511Y-00711*
X0151Y-00712*
X01508Y-00716*
X01499Y-00714*
X01371*
X01368Y-0071*
X01368Y-00709*
X0137Y-00699*
Y-00691*
X01391Y-0067*
X01426*
Y-00607*
X01354*
Y-00634*
X01335Y-00654*
X0133Y-00652*
Y-00549*
X01328Y-00539*
X01323Y-00531*
X01293Y-00501*
X01285Y-00496*
X01275Y-00494*
X01265Y-00496*
X01257Y-00501*
X01252Y-00509*
X0125Y-00519*
X01252Y-00529*
X01257Y-00537*
X01279Y-00559*
Y-0072*
X0128Y-00722*
Y-00739*
Y-00808*
X01254*
X01253Y-00808*
X01252Y-00808*
X0122*
Y-0084*
X0122Y-00841*
X0122Y-00842*
Y-0087*
X01214*
X01204Y-00872*
X01196Y-00877*
X01175Y-00898*
X00973*
X00963Y-009*
X00959Y-00903*
X00954Y-009*
Y-009*
X00953Y-00894*
X00949Y-00889*
X0094Y-0088*
X00942Y-00875*
X00947Y-00874*
X00955Y-00871*
X00962Y-00865*
X00968Y-00858*
X00971Y-0085*
X00972Y-00841*
X00971Y-00832*
X00968Y-00824*
X00962Y-00817*
X00955Y-00812*
X00954Y-00811*
Y-00654*
X00953Y-00648*
X00949Y-00643*
X00924Y-00618*
X00926Y-00613*
X00947*
X00948Y-00613*
X0095Y-00613*
X00986*
Y-00577*
X00986Y-00576*
X00986Y-00574*
Y-00538*
X0095*
X00948Y-00538*
X00947Y-00538*
X00933*
X00932Y-00533*
X00988Y-00477*
X0104*
X01046Y-00476*
X01051Y-00473*
X0113Y-00394*
X01133Y-00389*
X01133Y-00389*
X01133Y-00388*
X01138Y-00387*
X01142Y-00392*
X01151Y-00399*
X0116Y-00403*
X01171Y-00404*
X01181Y-00403*
X01191Y-00399*
X01199Y-00392*
X01206Y-00384*
X0121Y-00374*
X01211Y-00364*
X0121Y-00353*
X01206Y-00344*
X01199Y-00335*
X01191Y-00329*
X01181Y-00325*
X01171Y-00323*
X0116Y-00325*
X01151Y-00329*
X01142Y-00335*
X01139Y-00339*
X01134Y-00338*
Y-00325*
X01137Y-00322*
X01142Y-00317*
X01144Y-0031*
X01145Y-00303*
X01144Y-00295*
X01142Y-00289*
X01137Y-00283*
X01132Y-00279*
X01125Y-00276*
X01118Y-00275*
X0111Y-00276*
X01104Y-00279*
X01098Y-00283*
X01094Y-00289*
X01091Y-00295*
X0109Y-00303*
X01091Y-0031*
X01094Y-00317*
X01098Y-00322*
X01103Y-00327*
Y-00333*
X01098Y-00335*
X01091Y-00329*
X01081Y-00325*
X01071Y-00323*
X0106Y-00325*
X01051Y-00329*
X01042Y-00335*
X01041Y-00336*
X01036Y-00335*
X01036Y-00332*
X01039Y-0033*
X01043Y-00324*
X01046Y-00318*
X01047Y-00311*
X01046Y-00303*
X01043Y-00297*
X01039Y-00291*
X01033Y-00286*
X01026Y-00284*
X01019Y-00283*
X01012Y-00284*
X01005Y-00286*
X01Y-00291*
X00995Y-00297*
X00992Y-00303*
X00991Y-00311*
X00992Y-00318*
X00995Y-00324*
X00997Y-00327*
X00994Y-00331*
X00991Y-00329*
X00986Y-00327*
Y-00284*
X00985Y-00278*
X00982Y-00273*
X00963Y-00255*
X00965Y-0025*
X01311*
X01354Y-00293*
G37*
G36*
X00097Y-00195D02*
X00099Y-00205D01*
X00105Y-00213*
X00113Y-00219*
X00123Y-00221*
X00132Y-00219*
X00141Y-00213*
X00142Y-00211*
X00147Y-00212*
Y-00241*
X00149Y-00251*
X00155Y-00259*
X00163Y-00264*
X00173Y-00266*
X00182Y-00264*
X00191Y-00259*
X00196Y-00251*
X00198Y-00241*
Y-00195*
X00203Y-00194*
X00206Y-00199*
X00307Y-00299*
X00315Y-00305*
X00325Y-00306*
X00543*
X00545Y-00309*
Y-00333*
X00542Y-00335*
X00536Y-00344*
X00532Y-00353*
X0053Y-00364*
X00532Y-00374*
X00536Y-00384*
X00542Y-00392*
X00551Y-00399*
X0056Y-00403*
X00571Y-00404*
X00581Y-00403*
X00591Y-00399*
X00599Y-00392*
X00606Y-00384*
X0061Y-00374*
X00611Y-00364*
X0061Y-00353*
X00606Y-00344*
X00599Y-00335*
X00596Y-00333*
Y-00299*
X00594Y-00289*
X00589Y-00281*
X00579Y-00271*
X00581Y-00266*
X00624*
X00645Y-00288*
Y-00333*
X00642Y-00335*
X00636Y-00344*
X00632Y-00353*
X0063Y-00364*
X00632Y-00374*
X00636Y-00384*
X00642Y-00392*
X00651Y-00399*
X0066Y-00403*
X00671Y-00404*
X00681Y-00403*
X00691Y-00399*
X00699Y-00392*
X00706Y-00384*
X0071Y-00374*
X00711Y-00364*
X0071Y-00353*
X00706Y-00344*
X00699Y-00335*
X00696Y-00333*
Y-00277*
X00695Y-00271*
X007Y-00268*
X00701Y-00269*
X00707Y-0027*
X00844*
X00847Y-00274*
X00847Y-00275*
X00845Y-00285*
X00847Y-00294*
X00852Y-00302*
X00855Y-00304*
Y-00327*
X00851Y-00329*
X00842Y-00335*
X00836Y-00344*
X00832Y-00353*
X0083Y-00364*
X00832Y-00374*
X00836Y-00384*
X00842Y-00392*
X00851Y-00399*
X0086Y-00403*
X00871Y-00404*
X00881Y-00403*
X00891Y-00399*
X00899Y-00392*
X00906Y-00384*
X0091Y-00374*
X00911Y-00364*
X0091Y-00353*
X00906Y-00344*
X00899Y-00335*
X00891Y-00329*
X00886Y-00327*
Y-00304*
X00888Y-00302*
X00893Y-00294*
X00895Y-00285*
X00893Y-00275*
X00893Y-00274*
X00896Y-0027*
X00935*
X00956Y-00291*
Y-00327*
X00951Y-00329*
X00942Y-00335*
X00936Y-00344*
X00932Y-00353*
X0093Y-00364*
X00932Y-00374*
X00936Y-00384*
X00942Y-00392*
X00951Y-00399*
X0096Y-00403*
X00971Y-00404*
X00981Y-00403*
X00985Y-00401*
X00988Y-00405*
X00872Y-00521*
X00869Y-00526*
X00867Y-00532*
Y-00731*
X00863Y-00732*
X00853Y-00723*
X00845Y-00717*
X00835Y-00715*
X00776*
X00766Y-00717*
X00766Y-00717*
X00761Y-00715*
X00761Y-00712*
X00803Y-0067*
X00838*
Y-00607*
X00767*
Y-00634*
X00716Y-00685*
X00715Y-00686*
X0071Y-00685*
Y-00675*
X00745Y-00641*
X0075Y-00633*
X00752Y-00623*
Y-00542*
X0075Y-00532*
X00745Y-00524*
X00718Y-00497*
X0071Y-00492*
X007Y-0049*
X00397*
X00393Y-00491*
X0039Y-00486*
X00394Y-00482*
X00395Y-00483*
X00404Y-00485*
X00414Y-00483*
X00422Y-00477*
X00428Y-00469*
X0043Y-00459*
X00428Y-0045*
X00422Y-00442*
X00421Y-00435*
X00424Y-0043*
X00426Y-00421*
X00424Y-00411*
X00419Y-00403*
X00411Y-00398*
X00401Y-00396*
X00391Y-00398*
X00383Y-00403*
X00378Y-00411*
X00376Y-00421*
X00376Y-00424*
X00262Y-00539*
X00258Y-00543*
X00257Y-00549*
Y-00619*
X00252Y-00621*
X00252Y-00621*
Y-00607*
X00231*
X00228Y-00606*
X00224Y-00607*
X00186*
Y-00525*
X00279Y-00432*
X00299*
X00301Y-00434*
X00309Y-0044*
X00318Y-00442*
X00328Y-0044*
X00336Y-00434*
X00342Y-00426*
X00344Y-00417*
X00342Y-00407*
X00339Y-00402*
X0034Y-00402*
X00345Y-00394*
X00347Y-00384*
X00345Y-00374*
X0034Y-00366*
X00338Y-00365*
X00338Y-00359*
X00344Y-00356*
X00349Y-00347*
X00351Y-00338*
X00349Y-00328*
X00344Y-0032*
X00336Y-00315*
X00326Y-00313*
X00316Y-00315*
X00308Y-0032*
X00307Y-00323*
X0019*
X00184Y-00324*
X00179Y-00327*
X00027Y-0048*
X-00112*
X-00154Y-00438*
X-00159Y-00434*
X-00165Y-00433*
X-00197*
X-00198Y-00431*
X-00203Y-00427*
X-00202Y-00422*
X-00194Y-0042*
X-00186Y-00415*
X-00006Y-00235*
X-00001Y-00227*
X0Y-00217*
Y-00168*
X00097*
Y-00195*
G37*
G36*
X00052Y-00504D02*
Y-00535D01*
X00054*
X00056Y-0054*
X00047Y-00549*
X00007*
Y-00532*
X-00024*
X-00025Y-00532*
X-00026Y-00532*
X-00057*
Y-00537*
X-00062Y-0054*
X-00067Y-00536*
X-00075Y-00533*
X-00084Y-00531*
X-00092Y-00533*
X-001Y-00536*
X-00107Y-00541*
X-0011Y-00545*
X-00116*
X-0012Y-00541*
X-0012Y-00541*
Y-00524*
X-00122Y-00514*
X-00119Y-0051*
X-00118Y-0051*
X00033*
X00039Y-00509*
X00044Y-00506*
X00048Y-00502*
X00052Y-00504*
G37*
G36*
X-01971Y00357D02*
X-01993D01*
Y00294*
X-02112*
X-02117Y00293*
X-02122Y00297*
Y00313*
X-02122Y00314*
X-02122Y00315*
Y00348*
X-02155*
X-02156Y00348*
X-02157Y00348*
X-0219*
Y00315*
X-0219Y00314*
X-0219Y00313*
Y00281*
X-02157*
X-02156Y00281*
X-02155Y00281*
X-0214*
X-02137Y00276*
X-02139Y00267*
X-02137Y00257*
X-02132Y00249*
X-02123Y00244*
X-02114Y00242*
X-02107Y00243*
X-01993*
Y00234*
X-02172*
X-02242Y00304*
X-02241Y00306*
X-0224Y00314*
X-02241Y00323*
X-02245Y00331*
X-0225Y00338*
X-02257Y00344*
X-02265Y00347*
X-02274Y00348*
X-02283Y00347*
X-02291Y00344*
X-02298Y00338*
X-02303Y00331*
X-02307Y00323*
X-02308Y00314*
X-02307Y00306*
X-02303Y00298*
X-02298Y0029*
X-02294Y00288*
X-02294Y00287*
X-02289Y00279*
X-022Y00191*
X-02192Y00185*
X-0219Y00185*
Y00156*
X-0219Y00155*
X-0219Y00154*
Y00128*
X-02226*
X-02242Y00144*
X-02241Y00146*
X-0224Y00155*
X-02241Y00163*
X-02245Y00171*
X-0225Y00179*
X-02257Y00184*
X-02265Y00187*
X-02274Y00188*
X-02283Y00187*
X-02291Y00184*
X-02298Y00179*
X-02303Y00171*
X-02307Y00163*
X-02308Y00155*
X-02307Y00146*
X-02303Y00138*
X-02298Y00131*
X-02294Y00128*
X-02294Y00128*
X-02289Y00119*
X-02254Y00085*
X-02248Y0008*
X-02246Y00075*
X-02289Y00032*
X-02294Y00024*
X-02294Y00024*
X-02298Y00021*
X-02303Y00014*
X-02307Y00006*
X-02308Y-00002*
X-02307Y-00011*
X-02303Y-00019*
X-02298Y-00026*
X-02291Y-00031*
X-02283Y-00035*
X-02274Y-00036*
X-02265Y-00035*
X-02257Y-00031*
X-0225Y-00026*
X-02245Y-00019*
X-02241Y-00011*
X-0224Y-00002*
X-02241Y00006*
X-02242Y00007*
X-02212Y00037*
X-02049*
X-02047Y00033*
X-02118Y-00037*
X-02122Y-00034*
Y-00031*
Y-00003*
X-02122Y-00002*
X-02122Y-00001*
Y00031*
X-02155*
X-02156Y00031*
X-02157Y00031*
X-0219*
Y-00001*
X-0219Y-00002*
X-0219Y-00003*
Y-00036*
X-02157*
X-02156Y-00036*
X-02155Y-00036*
X-02127*
X-02124*
X-02121Y-0004*
X-02139Y-00058*
X-02209*
X-02219Y-0006*
X-02227Y-00065*
X-02289Y-00127*
X-02294Y-00135*
X-02294Y-00135*
X-02298Y-00138*
X-02303Y-00145*
X-02307Y-00153*
X-02308Y-00162*
X-02307Y-00171*
X-02303Y-00179*
X-02298Y-00186*
X-02291Y-00191*
X-02283Y-00195*
X-02274Y-00196*
X-02265Y-00195*
X-02257Y-00191*
X-0225Y-00186*
X-02245Y-00179*
X-02241Y-00171*
X-0224Y-00162*
X-02241Y-00153*
X-02242Y-00152*
X-02199Y-00109*
X-02128*
X-02118Y-00107*
X-0211Y-00101*
X-02013Y-00004*
X-01906*
X-01904Y-00009*
X-02133Y-00238*
X-02411*
X-02421Y-0024*
X-02429Y-00245*
X-02463Y-00279*
X-02467Y-00284*
X-02467Y-00285*
X-0247Y-0029*
X-02476Y-00294*
X-02482Y-00301*
X-02485Y-0031*
X-02486Y-00318*
X-02485Y-00327*
X-02482Y-00335*
X-02476Y-00342*
X-02469Y-00348*
X-02461Y-00351*
X-02452Y-00352*
X-02443Y-00351*
X-02435Y-00348*
X-02428Y-00342*
X-02426Y-0034*
X-0242*
X-02417Y-00342*
X-0241Y-00348*
X-02402Y-00351*
X-02393Y-00352*
X-02384Y-00351*
X-02376Y-00348*
X-02369Y-00342*
X-02367Y-0034*
X-02361*
X-02358Y-00342*
X-02351Y-00348*
X-02343Y-00351*
X-02334Y-00352*
X-02325Y-00351*
X-02317Y-00348*
X-0231Y-00342*
X-02308Y-0034*
X-02301*
X-02299Y-00342*
X-02292Y-00348*
X-02284Y-00351*
X-02275Y-00352*
X-02266Y-00351*
X-02258Y-00348*
X-02251Y-00342*
X-02249Y-0034*
X-02242*
X-0224Y-00342*
X-02233Y-00348*
X-02225Y-00351*
X-02216Y-00352*
X-02207Y-00351*
X-02199Y-00348*
X-02192Y-00342*
X-02187Y-00335*
X-02183Y-00327*
X-02182Y-00318*
X-02183Y-0031*
X-02187Y-00301*
X-02192Y-00294*
X-02193Y-00294*
X-02191Y-00289*
X-02123*
X-02113Y-00287*
X-02105Y-00281*
X-01868Y-00045*
X-01226*
X-01221Y-00044*
X-01218Y-00048*
X-01394Y-00224*
X-02017*
X-02027Y-00226*
X-02035Y-00231*
X-02097Y-00293*
X-02102Y-00301*
X-02104Y-00311*
Y-00419*
X-02252Y-00566*
X-02257Y-00574*
X-02259Y-00584*
Y-00634*
X-02265Y-00641*
X-02268Y-0065*
X-0227Y-00659*
X-02268Y-00668*
X-02265Y-00677*
X-02259Y-00684*
X-02252Y-0069*
X-02243Y-00694*
X-02234Y-00695*
X-02224Y-00694*
X-02216Y-0069*
X-02208Y-00684*
X-02203Y-00677*
X-02199Y-00668*
X-02198Y-00659*
X-02199Y-0065*
X-02203Y-00641*
X-02208Y-00634*
Y-00595*
X-02061Y-00447*
X-02055Y-00439*
X-02053Y-00429*
Y-00322*
X-02007Y-00275*
X-01383*
X-01374Y-00273*
X-01365Y-00267*
X-01181Y-00083*
X-00921*
X-00911Y-00081*
X-00903Y-00076*
X-008Y00026*
X-00794Y00034*
X-00792Y00044*
Y00322*
X-0074Y00374*
X-00481*
X-00479Y00369*
X-00483Y00365*
X-00486Y00358*
X-00487Y0035*
X-00486Y00342*
X-00483Y00335*
X-00478Y00329*
X-00476Y00327*
Y00322*
X-00478Y0032*
X-00483Y00314*
X-00486Y00306*
X-00487Y00299*
X-00486Y00291*
X-00483Y00284*
X-00478Y00278*
X-00476Y00276*
Y00271*
X-00478Y00269*
X-00483Y00262*
X-00486Y00255*
X-00487Y00248*
X-00486Y0024*
X-00483Y00233*
X-00479Y00227*
X-00478Y00224*
Y00223*
X-00479Y00221*
X-00483Y00215*
X-00486Y00208*
X-00487Y002*
X-00486Y00193*
X-00483Y00185*
X-00479Y0018*
X-00478Y00177*
Y00176*
X-00479Y00173*
X-00483Y00168*
X-00486Y00161*
X-00487Y00153*
X-00486Y00145*
X-00483Y00138*
X-00478Y00132*
X-00476Y0013*
Y00125*
X-00478Y00123*
X-00483Y00117*
X-00486Y0011*
X-00487Y00102*
X-00486Y00094*
X-00483Y00087*
X-00478Y00081*
X-00476Y00079*
Y00074*
X-00478Y00072*
X-00483Y00066*
X-00486Y00058*
X-00487Y00051*
X-00486Y00043*
X-00483Y00036*
X-00478Y0003*
X-00472Y00025*
X-00465Y00022*
X-00464Y00022*
X-00463Y00017*
X-00488Y-00007*
X-00493Y-00015*
X-00495Y-00025*
Y-00185*
X-00493Y-00195*
X-00488Y-00203*
X-00424Y-00267*
Y-00522*
X-00422Y-00531*
X-00417Y-0054*
X-00317Y-0064*
X-00308Y-00645*
X-00299Y-00647*
X-00101*
X-00092Y-00645*
X-00083Y-0064*
X-00069Y-00625*
X-00063Y-00617*
X-00061Y-00607*
Y-006*
X-00057Y-00597*
X-00026*
X-00025Y-00597*
X-00024Y-00597*
X00007*
Y-0058*
X00048*
X00052Y-00582*
Y-00585*
Y-00634*
X00059*
Y-00653*
X00051Y-00655*
X00043Y-0066*
X00037Y-00668*
X00035Y-00678*
X00037Y-00688*
X00043Y-00696*
X00048Y-00699*
X00046Y-00704*
X00008*
X00002Y-00705*
X-00002Y-00709*
X-00033Y-0074*
X-00037Y-00739*
X-00047Y-00737*
X-00057Y-00739*
X-00066Y-00742*
X-00074Y-00748*
X-0008Y-00756*
X-00084Y-00765*
X-00085Y-00775*
X-00084Y-00785*
X-0008Y-00794*
X-00074Y-00802*
X-00066Y-00808*
X-00057Y-00812*
X-00047Y-00813*
X-00037Y-00812*
X-00028Y-00808*
X-0002Y-00802*
X-00014Y-00794*
X-0001Y-00785*
X-00009Y-00775*
X-0001Y-00765*
X-00012Y-00762*
X00014Y-00735*
X00079*
X00084Y-00734*
X00089Y-0073*
X00129Y-0069*
X00133Y-00685*
X00134Y-0068*
Y-00481*
X00216Y-00399*
X00263*
X00264Y-00404*
X00262Y-00406*
X0016Y-00508*
X00156Y-00513*
X00155Y-00519*
Y-00676*
X00096Y-00735*
X00093Y-0074*
X00092Y-00745*
Y-00873*
X-00032Y-00997*
X-00035Y-00995*
X-00045Y-00994*
X-00055Y-00995*
X-00064Y-00999*
X-00072Y-01005*
X-00078Y-01013*
X-00082Y-01022*
X-00083Y-01032*
X-00082Y-01042*
X-00078Y-01051*
X-00072Y-01059*
X-00064Y-01065*
X-00058Y-01067*
X-00059Y-01072*
X-0013*
X-00131Y-01067*
X-00124Y-01065*
X-00117Y-01059*
X-00111Y-01051*
X-00107Y-01042*
X-00106Y-01032*
X-00107Y-01022*
X-00111Y-01013*
X-00117Y-01005*
X-00124Y-00999*
X-00134Y-00995*
X-00143Y-00994*
X-00153Y-00995*
X-00162Y-00999*
X-0017Y-01005*
X-00176Y-01013*
X-0018Y-01022*
X-00181Y-01032*
X-0018Y-01042*
X-00176Y-01051*
X-0017Y-01059*
X-00162Y-01065*
X-00156Y-01067*
X-00157Y-01072*
X-00228*
X-00229Y-01067*
X-00223Y-01065*
X-00215Y-01059*
X-00209Y-01051*
X-00205Y-01042*
X-00204Y-01032*
X-00205Y-01022*
X-00209Y-01013*
X-00215Y-01005*
X-00223Y-00999*
X-00227Y-00998*
Y-0094*
X-00228Y-00934*
X-00231Y-00929*
X-00284Y-00876*
X-00289Y-00872*
X-00295Y-00871*
X-0048*
X-00483Y-00866*
X-00483Y-00866*
X-00232*
X-00226Y-00865*
X-00221Y-00861*
X-00166Y-00807*
X-00164Y-00808*
X-00155Y-00812*
X-00145Y-00813*
X-00136Y-00812*
X-00126Y-00808*
X-00119Y-00802*
X-00113Y-00794*
X-00109Y-00785*
X-00107Y-00775*
X-00109Y-00765*
X-00113Y-00756*
X-00119Y-00748*
X-00126Y-00742*
X-00136Y-00739*
X-00145Y-00737*
X-00155Y-00739*
X-00164Y-00742*
X-00172Y-00748*
X-00178Y-00756*
X-00182Y-00765*
X-00183Y-00775*
X-00183Y-0078*
X-00238Y-00835*
X-00489*
X-0049Y-00833*
X-00498Y-00827*
X-00508Y-00825*
X-00518Y-00827*
X-00526Y-00833*
X-00531Y-00841*
X-00533Y-00851*
X-00531Y-0086*
X-00527Y-00867*
X-00529Y-00869*
X-00534Y-00877*
X-00536Y-00886*
X-00534Y-00896*
X-00529Y-00904*
X-00521Y-0091*
X-00511Y-00912*
X-00501Y-0091*
X-00493Y-00904*
X-00492Y-00902*
X-00302*
X-00257Y-00946*
Y-00998*
X-00261Y-00999*
X-00269Y-01005*
X-00275Y-01013*
X-00278Y-01022*
X-0028Y-01032*
X-00278Y-01042*
X-00275Y-01051*
X-00269Y-01059*
X-00261Y-01065*
X-00254Y-01067*
X-00255Y-01072*
X-00327*
X-00328Y-01067*
X-00321Y-01065*
X-00313Y-01059*
X-00307Y-01051*
X-00304Y-01042*
X-00302Y-01032*
X-00304Y-01022*
X-00307Y-01013*
X-00313Y-01005*
X-00321Y-00999*
X-0033Y-00995*
X-0034Y-00994*
X-0035Y-00995*
X-00359Y-00999*
X-00367Y-01005*
X-00373Y-01013*
X-00377Y-01022*
X-00378Y-01032*
X-00377Y-01042*
X-00373Y-01051*
X-00367Y-01059*
X-00359Y-01065*
X-00353Y-01067*
X-00354Y-01072*
X-00397*
X-00401Y-0107*
Y-01067*
Y-01033*
X-00401Y-01032*
X-00401Y-01031*
Y-00994*
X-00437*
X-00439Y-00994*
X-0044Y-00994*
X-00476*
Y-01031*
X-00476Y-01032*
X-00476Y-01033*
Y-01067*
Y-0107*
X-0048Y-01072*
X-006*
X-00604Y-01068*
X-00612Y-01063*
X-00622Y-01061*
X-00643*
Y-00628*
X-00644Y-00618*
X-0065Y-0061*
X-00658Y-00604*
X-00668Y-00602*
X-00678Y-00604*
X-00686Y-0061*
X-00692Y-00618*
X-00693Y-00628*
Y-01061*
X-00883*
X-00884Y-01056*
X-00881Y-01053*
X-00833Y-01005*
X-00827Y-00997*
X-00825Y-00987*
Y-00719*
X-00756Y-0065*
X-00751Y-00642*
X-00749Y-00632*
X-00751Y-00622*
X-00756Y-00614*
X-00765Y-00608*
X-00774Y-00606*
X-00784Y-00608*
X-00792Y-00614*
X-00869Y-0069*
X-00874Y-00699*
X-00876Y-00708*
Y-00977*
X-00909Y-0101*
X-00977*
Y-00949*
X-01044*
Y-00955*
X-01056*
Y-00943*
Y-00939*
Y-00868*
X-01048*
X-01045Y-0087*
Y-00891*
X-01044Y-00894*
Y-00934*
X-00977*
Y-00866*
X-00994*
Y-0086*
X-00996Y-0085*
X-01001Y-00842*
X-01019Y-00824*
X-01027Y-00818*
X-01037Y-00817*
X-01043*
X-01047Y-00815*
Y-00755*
X-01123*
Y-0076*
X-01172*
X-01246Y-00685*
Y-00645*
X-01173*
Y-00637*
X-01122*
Y-00646*
X-01046*
Y-00586*
X-01086*
X-01089Y-00586*
X-01173*
Y-0054*
X-01189*
Y-0052*
X-01174Y-00506*
X-01048*
X-01047Y-00506*
X-01047Y-00507*
X-01051Y-00511*
X-01122*
Y-00571*
X-01046*
X-01043Y-00575*
Y-00575*
X-00976*
Y-00511*
Y-00508*
X-00971Y-00506*
X-00528*
X-00519Y-00504*
X-0051Y-00498*
X-00505Y-0049*
X-00503Y-0048*
X-00505Y-0047*
X-0051Y-00462*
Y-00459*
X-00509Y-00458*
X-00504Y-0045*
X-00502Y-0044*
X-00504Y-0043*
X-00509Y-00422*
X-00517Y-00417*
X-00527Y-00415*
X-01214*
X-01223Y-00417*
X-01226Y-00418*
X-0123Y-00415*
X-01224Y-00407*
X-01222Y-00397*
Y-00216*
X-01179Y-00173*
X-00892*
X-00883Y-00171*
X-00874Y-00166*
X-00667Y00041*
X-00661Y00049*
X-00659Y00059*
Y0009*
X-00661Y001*
X-00667Y00108*
X-00675Y00114*
X-00685Y00116*
X-00694Y00114*
X-00703Y00108*
X-00708Y001*
X-0071Y0009*
Y0007*
X-00903Y-00122*
X-0119*
X-012Y-00124*
X-01208Y-0013*
X-01266Y-00187*
X-01271Y-00196*
X-01273Y-00205*
Y-00347*
X-01278Y-00348*
X-01281Y-0034*
X-01288Y-00332*
X-01296Y-00326*
X-01306Y-00322*
X-01316Y-0032*
X-01327Y-00322*
X-01336Y-00326*
X-01345Y-00332*
X-01351Y-0034*
X-01355Y-0035*
X-01356Y-00361*
X-01355Y-00371*
X-01351Y-00381*
X-01345Y-00389*
X-01336Y-00396*
X-01327Y-004*
X-01316Y-00401*
X-01306Y-004*
X-01296Y-00396*
X-01288Y-00389*
X-01281Y-00381*
X-01278Y-00373*
X-01273Y-00374*
Y-00387*
X-01323Y-00437*
X-01449*
X-01451Y-00432*
X-0142Y-00401*
X-01416Y-00401*
X-01406Y-004*
X-01396Y-00396*
X-01388Y-00389*
X-01381Y-00381*
X-01377Y-00371*
X-01376Y-00361*
X-01377Y-0035*
X-01381Y-0034*
X-01388Y-00332*
X-01396Y-00326*
X-01406Y-00322*
X-01416Y-0032*
X-01427Y-00322*
X-01436Y-00326*
X-01445Y-00332*
X-01451Y-0034*
X-01455Y-0035*
X-01456Y-00361*
X-01456Y-00364*
X-01482Y-00391*
X-01482Y-00391*
X-01484Y-00384*
X-01481Y-00381*
X-01477Y-00371*
X-01476Y-00361*
X-01477Y-0035*
X-01481Y-0034*
X-01488Y-00332*
X-01496Y-00326*
X-01506Y-00322*
X-01516Y-0032*
X-01527Y-00322*
X-01536Y-00326*
X-01545Y-00332*
X-01551Y-0034*
X-01555Y-0035*
X-01556Y-00361*
X-01555Y-00371*
X-01551Y-00381*
X-01545Y-00388*
X-01547Y-00393*
X-01585*
X-01587Y-00388*
X-01581Y-00381*
X-01577Y-00371*
X-01576Y-00361*
X-01577Y-0035*
X-01581Y-0034*
X-01588Y-00332*
X-01596Y-00326*
X-01606Y-00322*
X-01616Y-0032*
X-01627Y-00322*
X-01636Y-00326*
X-01645Y-00332*
X-01651Y-0034*
X-01655Y-0035*
X-01656Y-00361*
X-01655Y-00371*
X-01651Y-00381*
X-01645Y-00388*
X-01647Y-00393*
X-01685*
X-01687Y-00388*
X-01681Y-00381*
X-01677Y-00371*
X-01676Y-00361*
X-01677Y-0035*
X-01681Y-0034*
X-01688Y-00332*
X-01696Y-00326*
X-01706Y-00322*
X-01716Y-0032*
X-01727Y-00322*
X-01736Y-00326*
X-01745Y-00332*
X-01751Y-0034*
X-01755Y-0035*
X-01756Y-00361*
X-01755Y-00371*
X-01751Y-00381*
X-01745Y-00388*
X-01747Y-00393*
X-01785*
X-01786Y-00392*
X-01786Y-00391*
X-01787Y-00389*
X-01781Y-00381*
X-01777Y-00371*
X-01776Y-00361*
X-01777Y-0035*
X-01781Y-0034*
X-01788Y-00332*
X-01796Y-00326*
X-01806Y-00322*
X-01816Y-0032*
X-01827Y-00322*
X-01836Y-00326*
X-01845Y-00332*
X-01851Y-0034*
X-01855Y-0035*
X-01856Y-00361*
X-01855Y-00371*
X-01851Y-00381*
X-01845Y-00389*
X-01836Y-00396*
X-01827Y-004*
X-01816Y-00401*
X-01809Y-004*
X-01807Y-00405*
X-01844Y-00442*
X-0185Y-0045*
X-01852Y-0046*
X-0185Y-0047*
X-01844Y-00478*
X-01836Y-00484*
X-01826Y-00486*
X-01817Y-00484*
X-01808Y-00478*
X-01774Y-00444*
X-01511*
X-01509Y-00449*
X-01531Y-00472*
X-01537Y-0048*
X-01539Y-0049*
Y-00539*
X-01567*
Y-00646*
X-01484*
Y-00539*
X-01488*
Y-005*
X-01475Y-00488*
X-01313*
X-01303Y-00486*
X-01297Y-00482*
X-01293Y-00485*
X-01295Y-00489*
X-01297Y-00499*
Y-00567*
X-01328*
Y-0054*
X-01411*
Y-00587*
X-01416Y-00588*
X-01418Y-00585*
X-01427Y-00579*
X-01437Y-00577*
X-01446Y-00579*
X-01455Y-00585*
X-0146Y-00593*
X-01462Y-00603*
Y-00799*
X-0146Y-00809*
X-01455Y-00817*
X-01421Y-0085*
X-01424Y-00855*
X-01426Y-00854*
X-01815*
X-01825Y-00856*
X-01833Y-00862*
X-0184Y-00869*
X-0185*
X-01852Y-00869*
X-01887*
X-02036Y-0072*
X-02044Y-00714*
X-02054Y-00712*
X-02209*
X-02216Y-00707*
X-02224Y-00703*
X-02234Y-00702*
X-02243Y-00703*
X-02252Y-00707*
X-02254Y-00708*
X-02282*
X-02289Y-00701*
Y-00651*
X-02291Y-00641*
X-02296Y-00633*
X-02362Y-00568*
X-0237Y-00563*
X-0238Y-00561*
X-02489*
X-02512Y-00538*
Y00312*
X-02399*
X-02389Y00314*
X-02381Y0032*
X-02316Y00384*
X-01971*
Y00357*
G37*
G36*
X-00275Y-00512D02*
X-00267Y-00518D01*
X-00257Y-0052*
X-00186*
X-00171Y-00535*
Y-00548*
X-00171Y-00548*
X-00175Y-00556*
X-00176Y-00564*
X-00175Y-00573*
X-00171Y-00581*
X-00166Y-00588*
X-00162Y-00591*
X-00163Y-00596*
X-00288*
X-00373Y-00511*
Y-0042*
X-00369Y-00418*
X-00275Y-00512*
G37*
G36*
X01898Y-00399D02*
X01908Y-00403D01*
X01918Y-00404*
X01929Y-00403*
X01939Y-00399*
X01946Y-00393*
X01951Y-00394*
Y-00552*
X01897Y-00606*
X01756*
X01754Y-00601*
X01759Y-00594*
X01762Y-00585*
X01764Y-00576*
X01762Y-00566*
X01761Y-00562*
X01881Y-00442*
X01885Y-00437*
X01886Y-00431*
Y-00394*
X01891Y-00393*
X01898Y-00399*
G37*
G36*
X00701Y-00552D02*
Y-00612D01*
X00667Y-00647*
X00661Y-00655*
X00659Y-00665*
Y-00736*
X00661Y-00745*
X00667Y-00754*
X00688Y-00776*
X00697Y-00781*
X00706Y-00783*
X00759*
X00769Y-00781*
X00777Y-00776*
X00787Y-00766*
X00824*
X00827Y-00769*
Y-00845*
X00798*
X00796Y-00845*
X00746*
X00745Y-00844*
X00735Y-00846*
X00727Y-00852*
X00721Y-0086*
X00719Y-0087*
X00721Y-0088*
X00727Y-00888*
X00727Y-00888*
X00735Y-00894*
X00745Y-00896*
X00767*
Y-00908*
X0076Y-00909*
X00752Y-00915*
X00662Y-01005*
X00631*
Y-01036*
X00602Y-01064*
X00535*
X00533Y-01059*
X00536Y-01055*
X0054Y-01047*
X00541Y-01038*
X0054Y-01029*
X00536Y-01021*
X00531Y-01014*
X00524Y-01009*
X00516Y-01005*
X00507Y-01004*
X00498Y-01005*
X0049Y-01009*
X00483Y-01014*
X00477Y-01021*
X00474Y-01029*
X00473Y-01038*
X00474Y-01047*
X00477Y-01055*
X00481Y-01059*
X00478Y-01064*
X00457*
X00454Y-01059*
X00457Y-01055*
X00461Y-01047*
X00462Y-01038*
X00461Y-01029*
X00457Y-01021*
X00452Y-01014*
X00445Y-01009*
X00437Y-01005*
X00428Y-01004*
X00419Y-01005*
X00411Y-01009*
X00404Y-01014*
X00399Y-01021*
X00395Y-01029*
X00394Y-01038*
X00395Y-01047*
X00399Y-01055*
X00402Y-01059*
X00399Y-01064*
X00378*
X00375Y-01059*
X00379Y-01055*
X00382Y-01047*
X00383Y-01038*
X00382Y-01029*
X00379Y-01021*
X00373Y-01014*
X00366Y-01009*
X00365Y-01008*
Y-009*
X00363Y-00894*
X0036Y-00889*
X00351Y-0088*
X00353Y-00875*
X00358Y-00874*
X00366Y-00871*
X00373Y-00865*
X00379Y-00858*
X00382Y-0085*
X00383Y-00841*
X00382Y-00832*
X00379Y-00824*
X00373Y-00817*
X00366Y-00812*
X00358Y-00809*
X00349Y-00807*
X0034Y-00809*
X00339Y-00809*
X00308Y-00778*
Y-00569*
X00318Y-00559*
X00322Y-00561*
Y-00574*
X00322Y-00576*
X00322Y-00577*
Y-00613*
X00358*
X0036Y-00613*
X00361Y-00613*
X00397*
Y-00577*
X00397Y-00576*
X00397Y-00574*
Y-00541*
X00434*
X00435Y-00546*
X00431Y-00549*
X00425Y-00557*
X00422Y-00566*
X0042Y-00576*
X00422Y-00585*
X00425Y-00594*
X00431Y-00602*
X00439Y-00608*
X00448Y-00612*
X00458Y-00613*
X00468Y-00612*
X00477Y-00608*
X00485Y-00602*
X00491Y-00594*
X00495Y-00585*
X00496Y-00576*
X00495Y-00566*
X00491Y-00557*
X00485Y-00549*
X00481Y-00546*
X00483Y-00541*
X00532*
X00534Y-00546*
X0053Y-00549*
X00524Y-00557*
X0052Y-00566*
X00519Y-00576*
X0052Y-00585*
X00524Y-00594*
X0053Y-00602*
X00538Y-00608*
X00547Y-00612*
X00557Y-00613*
X00566Y-00612*
X00576Y-00608*
X00583Y-00602*
X00589Y-00594*
X00593Y-00585*
X00594Y-00576*
X00593Y-00566*
X00589Y-00557*
X00583Y-00549*
X00579Y-00546*
X00581Y-00541*
X0069*
X00701Y-00552*
G37*
G36*
X00307Y-00354D02*
X00308Y-00356D01*
X00309Y-00356*
X0031Y-00357*
X0031Y-00363*
X00304Y-00366*
X00302Y-00369*
X00209*
X00204Y-0037*
X00199Y-00373*
X00108Y-00464*
X00104Y-00469*
X00103Y-00475*
Y-00673*
X00089Y-00688*
X00084Y-00686*
X00085Y-00678*
X00085Y-00674*
X00085Y-00673*
X00088Y-00668*
X0009Y-00662*
Y-00634*
X00096*
Y-00582*
X00063*
X00061Y-00577*
X00064Y-00575*
X00085Y-00554*
X00088Y-00549*
X0009Y-00543*
Y-00535*
X00096*
Y-00484*
X00073*
X00071Y-00479*
X00197Y-00353*
X00306*
X00307Y-00354*
G37*
G36*
X00257Y-00644D02*
Y-00823D01*
X00258Y-00829*
X00262Y-00834*
X00334Y-00906*
Y-01008*
X00332Y-01009*
X00327Y-01013*
X00322Y-0101*
Y-00954*
X0032Y-00944*
X00315Y-00936*
X00277Y-00899*
X00269Y-00893*
X00259Y-00891*
X00256*
X00252Y-00889*
Y-00825*
X00205*
X00204Y-00825*
X00147*
X00137Y-00827*
X00129Y-00833*
X00127Y-00835*
X00122Y-00834*
Y-00752*
X00151Y-00723*
X00155Y-00726*
X00155Y-00727*
X00157Y-00737*
X00162Y-00745*
X00171Y-00751*
X0018Y-00753*
X00199*
X00209Y-00751*
X00217Y-00745*
X00239Y-00723*
X00244Y-00715*
X00246Y-00705*
Y-0067*
X00252*
Y-00643*
X00252Y-00642*
X00257Y-00644*
G37*
G36*
X-01297Y-00696D02*
X-01295Y-00705D01*
X-0129Y-00714*
X-012Y-00803*
X-01192Y-00809*
X-01182Y-00811*
X-01125*
X-01125Y-00812*
X-0113Y-00817*
X-01316*
X-01318Y-00812*
X-01313Y-00808*
X-01308Y-00802*
X-01305Y-00795*
X-01304Y-00787*
X-01305Y-00779*
X-01308Y-00772*
X-01313Y-00766*
X-01318Y-00762*
Y-00734*
X-01314Y-0073*
X-01309Y-00724*
X-01307Y-00718*
X-01306Y-00711*
X-01307Y-00703*
X-01309Y-00697*
X-01314Y-00691*
X-01319Y-00686*
X-01326Y-00684*
X-01333Y-00683*
X-01341Y-00684*
X-01347Y-00686*
X-01353Y-00691*
X-01357Y-00697*
X-0136Y-00703*
X-01361Y-00711*
X-0136Y-00718*
X-01357Y-00724*
X-01353Y-0073*
X-01349Y-00733*
Y-00761*
X-01355Y-00766*
X-0136Y-00772*
X-01363Y-00779*
X-01364Y-00787*
X-01363Y-00795*
X-0136Y-00802*
X-01355Y-00808*
X-01351Y-00812*
X-01352Y-00817*
X-01383*
X-01411Y-00788*
Y-00645*
X-01328*
Y-00618*
X-01297*
Y-00696*
G37*
G36*
X00923Y-0066D02*
Y-00811D01*
X00922Y-00812*
X00914Y-00817*
X00909Y-00824*
X00906Y-00832*
X00905Y-00834*
X009Y-00837*
X00898Y-00835*
Y-00642*
X00903Y-0064*
X00923Y-0066*
G37*
G36*
X01498Y-00768D02*
X01498Y-0077D01*
X01467Y-00802*
X01463Y-00807*
X01462Y-00812*
Y-00859*
X01463Y-00861*
X01458Y-00864*
X01451Y-00857*
X01443Y-00851*
X01433Y-00849*
X01426*
Y-00836*
X01354*
Y-009*
X01398*
X01401Y-009*
X01423*
X01424Y-00902*
X01429Y-00905*
X01427Y-0091*
X01339*
X01329Y-00912*
X01321Y-00917*
X01291Y-00948*
X01285Y-00956*
X01283Y-00966*
Y-01001*
X0128Y-01004*
X01262*
X0126Y-01005*
X01254*
X01253Y-01004*
X01252Y-01005*
X0122*
Y-01036*
X01191Y-01064*
X01125*
X01122Y-01059*
X01125Y-01055*
X01129Y-01047*
X0113Y-01038*
X01129Y-01029*
X01125Y-01021*
X0112Y-01014*
X01113Y-01009*
X01105Y-01005*
X01096Y-01004*
X01087Y-01005*
X01079Y-01009*
X01072Y-01014*
X01067Y-01021*
X01063Y-01029*
X01062Y-01038*
X01063Y-01047*
X01067Y-01055*
X0107Y-01059*
X01067Y-01064*
X01046*
X01043Y-01059*
X01047Y-01055*
X0105Y-01047*
X01051Y-01038*
X0105Y-01029*
X01047Y-01021*
X01041Y-01014*
X01034Y-01009*
X01026Y-01005*
X01017Y-01004*
X01008Y-01005*
X01Y-01009*
X00993Y-01014*
X00988Y-01021*
X00984Y-01029*
X00983Y-01038*
X00984Y-01047*
X00988Y-01055*
X00991Y-01059*
X00989Y-01064*
X00967*
X00965Y-01059*
X00968Y-01055*
X00971Y-01047*
X00972Y-01038*
X00971Y-01029*
X00968Y-01021*
X00962Y-01014*
X00955Y-01009*
X00954Y-01008*
Y-00947*
X00959Y-00945*
X00963Y-00948*
X00973Y-00949*
X01185*
X01195Y-00948*
X01203Y-00942*
X01224Y-00921*
X01286*
X01296Y-00919*
X01304Y-00913*
X01323Y-00895*
X01329Y-00886*
X01331Y-00876*
Y-00765*
X01496*
X01498Y-00768*
G37*
G36*
X-01393Y-00868D02*
X-01137D01*
Y-00877*
X-01174*
X-01184Y-00879*
X-01192Y-00884*
X-01209Y-00901*
X-01256*
Y-00929*
X-01328*
Y-00901*
X-01375*
X-01402Y-00874*
X-01403Y-00871*
X-01401Y-00868*
X-01399Y-00866*
X-01393Y-00868*
G37*
G36*
X-01137Y-00939D02*
D01*
Y-00943*
Y-0101*
X-01169*
X-01173Y-01008*
Y-00937*
X-01164Y-00928*
X-01137*
Y-00939*
G37*
G36*
X01507Y-0091D02*
Y-01008D01*
X01506Y-01009*
X01501Y-01012*
X01496Y-01009*
Y-00965*
X01494Y-00955*
X01489Y-00947*
X0146Y-00917*
X01453Y-00913*
X01452Y-00909*
X01452Y-00909*
X01453Y-00907*
X0146Y-00902*
X01466Y-00894*
X01468Y-00884*
X01466Y-00876*
X01471Y-00873*
X01507Y-0091*
G37*
G36*
X00129Y-00869D02*
X00137Y-00874D01*
X00147Y-00876*
X0018*
Y-00889*
X00177Y-00892*
X00171Y-00893*
X00163Y-00899*
X00123Y-00938*
X00118Y-00946*
X00116Y-00956*
Y-00993*
Y-01036*
X00079Y-01072*
X-00031*
X-00032Y-01067*
X-00026Y-01065*
X-00018Y-01059*
X-00012Y-01051*
X-00008Y-01042*
X-00007Y-01032*
X-00008Y-01022*
X-0001Y-01019*
X00118Y-0089*
X00121Y-00885*
X00122Y-00879*
Y-00868*
X00127Y-00866*
X00129Y-00869*
G37*
%LNbrushed_pcb-4*%
%LPC*%
G36*
X-00031Y00376D02*
X-0004Y00374D01*
X-00048Y00369*
X-00053Y00361*
X-00055Y00352*
X-00055Y00352*
X-00058Y00351*
X-00062Y00353*
X-00064Y00361*
X-00069Y00369*
X-00077Y00374*
X-00086Y00376*
X-00095Y00374*
X-00103Y00369*
X-00108Y00361*
X-0011Y00352*
X-00112Y0035*
X-00114Y00348*
X-00123Y00346*
X-00131Y00341*
X-00136Y00333*
X-00138Y00324*
X-00136Y00315*
X-00131Y00307*
X-00123Y00302*
X-00115Y003*
X-00114Y003*
X-00113Y00298*
X-00113Y00294*
X-00113Y00294*
X-00114Y00293*
X-00123Y00291*
X-00131Y00286*
X-00136Y00278*
X-00138Y00269*
X-00136Y0026*
X-00131Y00252*
X-00123Y00247*
X-00115Y00245*
X-00112Y00243*
X-0011Y00241*
X-00108Y00232*
X-00103Y00224*
X-00095Y00219*
X-00086Y00217*
X-00077Y00219*
X-00069Y00224*
X-00064Y00232*
X-00062Y00241*
X-00061Y00242*
X-00055Y00241*
X-00055Y00241*
X-00053Y00232*
X-00048Y00224*
X-0004Y00219*
X-00031Y00217*
X-00022Y00219*
X-00014Y00224*
X-00009Y00232*
X-00007Y00241*
X-00003Y00245*
X00005Y00247*
X00013Y00252*
X00018Y0026*
X0002Y00269*
X00018Y00278*
X00013Y00286*
X00005Y00291*
X-00003Y00293*
X-00003Y00293*
X-00004Y00299*
X-00003Y003*
X00005Y00302*
X00013Y00307*
X00018Y00315*
X0002Y00324*
X00018Y00333*
X00013Y00341*
X00005Y00346*
X-00003Y00348*
X-00005Y0035*
X-00007Y00352*
X-00009Y00361*
X-00014Y00369*
X-00022Y00374*
X-00031Y00376*
G37*
G36*
X01716Y00001D02*
X01706Y0D01*
X01698Y-00005*
X01697Y-00008*
X01637*
X01635Y-00005*
X01627Y0*
X01618Y00001*
X01608Y0*
X016Y-00005*
X01598Y-00008*
X01535*
X01533Y-00005*
X01525Y0*
X01515Y00001*
X01506Y0*
X01497Y-00005*
X01492Y-00013*
X0149Y-00023*
X01492Y-00033*
X01497Y-00041*
X01506Y-00046*
X01515Y-00048*
X01525Y-00046*
X01533Y-00041*
X01535Y-00038*
X01598*
X016Y-00041*
X01608Y-00046*
X01618Y-00048*
X01627Y-00046*
X01635Y-00041*
X01637Y-00038*
X01697*
X01698Y-00041*
X01706Y-00046*
X01716Y-00048*
X01726Y-00046*
X01734Y-00041*
X01739Y-00033*
X01741Y-00023*
X01739Y-00013*
X01734Y-00005*
X01726Y0*
X01716Y00001*
G37*
G36*
X01145Y-00538D02*
X01135Y-00539D01*
X01126Y-00543*
X01118Y-00549*
X01112Y-00557*
X01109Y-00566*
X01107Y-00576*
X01109Y-00585*
X01112Y-00594*
X01118Y-00602*
X01126Y-00608*
X01135Y-00612*
X01145Y-00613*
X01155Y-00612*
X01164Y-00608*
X01172Y-00602*
X01178Y-00594*
X01182Y-00585*
X01183Y-00576*
X01182Y-00566*
X01178Y-00557*
X01172Y-00549*
X01164Y-00543*
X01155Y-00539*
X01145Y-00538*
G37*
G36*
X01047D02*
X01037Y-00539D01*
X01028Y-00543*
X0102Y-00549*
X01014Y-00557*
X0101Y-00566*
X01009Y-00576*
X0101Y-00585*
X01014Y-00594*
X0102Y-00602*
X01028Y-00608*
X01037Y-00612*
X01047Y-00613*
X01057Y-00612*
X01066Y-00608*
X01074Y-00602*
X0108Y-00594*
X01083Y-00585*
X01085Y-00576*
X01083Y-00566*
X0108Y-00557*
X01074Y-00549*
X01066Y-00543*
X01057Y-00539*
X01047Y-00538*
G37*
G36*
X01096Y-00807D02*
X01087Y-00809D01*
X01079Y-00812*
X01072Y-00817*
X01067Y-00824*
X01063Y-00832*
X01062Y-00841*
X01063Y-0085*
X01067Y-00858*
X01072Y-00865*
X01079Y-00871*
X01087Y-00874*
X01096Y-00875*
X01105Y-00874*
X01113Y-00871*
X0112Y-00865*
X01125Y-00858*
X01129Y-0085*
X0113Y-00841*
X01129Y-00832*
X01125Y-00824*
X0112Y-00817*
X01113Y-00812*
X01105Y-00809*
X01096Y-00807*
G37*
G36*
X01017D02*
X01008Y-00809D01*
X01Y-00812*
X00993Y-00817*
X00988Y-00824*
X00984Y-00832*
X00983Y-00841*
X00984Y-0085*
X00988Y-00858*
X00993Y-00865*
X01Y-00871*
X01008Y-00874*
X01017Y-00875*
X01026Y-00874*
X01034Y-00871*
X01041Y-00865*
X01047Y-00858*
X0105Y-0085*
X01051Y-00841*
X0105Y-00832*
X01047Y-00824*
X01041Y-00817*
X01034Y-00812*
X01026Y-00809*
X01017Y-00807*
G37*
G36*
X00771Y-00323D02*
X0076Y-00325D01*
X00751Y-00329*
X00742Y-00335*
X00736Y-00344*
X00732Y-00353*
X0073Y-00364*
X00732Y-00374*
X00736Y-00384*
X00742Y-00392*
X00751Y-00399*
X0076Y-00403*
X00771Y-00404*
X00781Y-00403*
X00791Y-00399*
X00799Y-00392*
X00806Y-00384*
X0081Y-00374*
X00811Y-00364*
X0081Y-00353*
X00806Y-00344*
X00799Y-00335*
X00791Y-00329*
X00781Y-00325*
X00771Y-00323*
G37*
G36*
X-02156Y-00128D02*
X-02157Y-00128D01*
X-0219*
Y-00161*
X-0219Y-00162*
X-0219Y-00163*
Y-00196*
X-02157*
X-02156Y-00196*
X-02155Y-00196*
X-02122*
Y-00163*
X-02122Y-00162*
X-02122Y-00161*
Y-00128*
X-02155*
X-02156Y-00128*
G37*
G36*
X-01916Y-0032D02*
X-01927Y-00322D01*
X-01936Y-00326*
X-01945Y-00332*
X-01951Y-0034*
X-01955Y-0035*
X-01956Y-00361*
X-01955Y-00371*
X-01951Y-00381*
X-01945Y-00389*
X-01936Y-00396*
X-01927Y-004*
X-01916Y-00401*
X-01906Y-004*
X-01896Y-00396*
X-01888Y-00389*
X-01881Y-00381*
X-01877Y-00371*
X-01876Y-00361*
X-01877Y-0035*
X-01881Y-0034*
X-01888Y-00332*
X-01896Y-00326*
X-01906Y-00322*
X-01916Y-0032*
G37*
G36*
X-00471Y-00322D02*
X-00481Y-00323D01*
X-00491Y-00327*
X-00499Y-00334*
X-00506Y-00342*
X-0051Y-00352*
X-00511Y-00362*
X-0051Y-00373*
X-00506Y-00382*
X-00499Y-00391*
X-00491Y-00397*
X-00481Y-00401*
X-00471Y-00402*
X-0046Y-00401*
X-00451Y-00397*
X-00442Y-00391*
X-00436Y-00382*
X-00432Y-00373*
X-0043Y-00362*
X-00432Y-00352*
X-00436Y-00342*
X-00442Y-00334*
X-00451Y-00327*
X-0046Y-00323*
X-00471Y-00322*
G37*
G36*
X-00571D02*
X-00581Y-00323D01*
X-00591Y-00327*
X-00599Y-00334*
X-00606Y-00342*
X-0061Y-00352*
X-00611Y-00362*
X-0061Y-00373*
X-00606Y-00382*
X-00599Y-00391*
X-00591Y-00397*
X-00581Y-00401*
X-00571Y-00402*
X-0056Y-00401*
X-00551Y-00397*
X-00542Y-00391*
X-00536Y-00382*
X-00532Y-00373*
X-0053Y-00362*
X-00532Y-00352*
X-00536Y-00342*
X-00542Y-00334*
X-00551Y-00327*
X-0056Y-00323*
X-00571Y-00322*
G37*
G36*
X-00671D02*
X-00681Y-00323D01*
X-00691Y-00327*
X-00699Y-00334*
X-00706Y-00342*
X-0071Y-00352*
X-00711Y-00362*
X-0071Y-00373*
X-00706Y-00382*
X-00699Y-00391*
X-00691Y-00397*
X-00681Y-00401*
X-00671Y-00402*
X-0066Y-00401*
X-00651Y-00397*
X-00642Y-00391*
X-00636Y-00382*
X-00632Y-00373*
X-0063Y-00362*
X-00632Y-00352*
X-00636Y-00342*
X-00642Y-00334*
X-00651Y-00327*
X-0066Y-00323*
X-00671Y-00322*
G37*
G36*
X-00771D02*
X-00781Y-00323D01*
X-00791Y-00327*
X-00799Y-00334*
X-00806Y-00342*
X-0081Y-00352*
X-00811Y-00362*
X-0081Y-00373*
X-00806Y-00382*
X-00799Y-00391*
X-00791Y-00397*
X-00781Y-00401*
X-00771Y-00402*
X-0076Y-00401*
X-00751Y-00397*
X-00742Y-00391*
X-00736Y-00382*
X-00732Y-00373*
X-0073Y-00362*
X-00732Y-00352*
X-00736Y-00342*
X-00742Y-00334*
X-00751Y-00327*
X-0076Y-00323*
X-00771Y-00322*
G37*
G36*
X-00871D02*
X-00881Y-00323D01*
X-00891Y-00327*
X-00899Y-00334*
X-00906Y-00342*
X-0091Y-00352*
X-00911Y-00362*
X-0091Y-00373*
X-00906Y-00382*
X-00899Y-00391*
X-00891Y-00397*
X-00881Y-00401*
X-00871Y-00402*
X-0086Y-00401*
X-00851Y-00397*
X-00842Y-00391*
X-00836Y-00382*
X-00832Y-00373*
X-0083Y-00362*
X-00832Y-00352*
X-00836Y-00342*
X-00842Y-00334*
X-00851Y-00327*
X-0086Y-00323*
X-00871Y-00322*
G37*
G36*
X-00971D02*
X-00981Y-00323D01*
X-00991Y-00327*
X-00999Y-00334*
X-01006Y-00342*
X-0101Y-00352*
X-01011Y-00362*
X-0101Y-00373*
X-01006Y-00382*
X-00999Y-00391*
X-00991Y-00397*
X-00981Y-00401*
X-00971Y-00402*
X-0096Y-00401*
X-00951Y-00397*
X-00942Y-00391*
X-00936Y-00382*
X-00932Y-00373*
X-0093Y-00362*
X-00932Y-00352*
X-00936Y-00342*
X-00942Y-00334*
X-00951Y-00327*
X-0096Y-00323*
X-00971Y-00322*
G37*
G36*
X-01071D02*
X-01081Y-00323D01*
X-01091Y-00327*
X-01099Y-00334*
X-01106Y-00342*
X-0111Y-00352*
X-01111Y-00362*
X-0111Y-00373*
X-01106Y-00382*
X-01099Y-00391*
X-01091Y-00397*
X-01081Y-00401*
X-01071Y-00402*
X-0106Y-00401*
X-01051Y-00397*
X-01042Y-00391*
X-01036Y-00382*
X-01032Y-00373*
X-0103Y-00362*
X-01032Y-00352*
X-01036Y-00342*
X-01042Y-00334*
X-01051Y-00327*
X-0106Y-00323*
X-01071Y-00322*
G37*
G36*
X-01664Y-0048D02*
X-01674Y-00482D01*
X-01682Y-00488*
X-01683Y-00489*
X-01689Y-00497*
X-01691Y-00507*
Y-00539*
X-01723*
Y-00646*
X-0164*
Y-00578*
X-0164Y-00576*
Y-00511*
X-01639Y-00506*
X-01641Y-00496*
X-01646Y-00488*
X-01654Y-00482*
X-01664Y-0048*
G37*
G36*
X-02124Y-00593D02*
X-02133Y-00595D01*
X-02142Y-00601*
X-02147Y-00609*
X-02149Y-00619*
X-02147Y-00629*
X-02142Y-00637*
X-02107Y-00671*
X-02099Y-00677*
X-02089Y-00679*
X-019*
Y-00692*
X-01825*
Y-00613*
X-019*
Y-00628*
X-02079*
X-02105Y-00601*
X-02114Y-00595*
X-02124Y-00593*
G37*
G36*
X-00977Y-00669D02*
X-01044D01*
Y-00677*
X-01047Y-00681*
X-01123*
Y-0074*
X-01047*
Y-0074*
X-01044Y-00736*
X-00977*
Y-00669*
G37*
G36*
X-00581Y-00634D02*
X-00591Y-00636D01*
X-00599Y-00641*
X-00605Y-0065*
X-00607Y-00659*
Y-00681*
X-00617*
Y-00744*
X-00546*
Y-00681*
X-00556*
Y-00659*
X-00558Y-0065*
X-00563Y-00641*
X-00572Y-00636*
X-00581Y-00634*
G37*
G36*
X-00441Y-00737D02*
X-00442Y-00738D01*
X-00478*
Y-00774*
X-00478Y-00775*
X-00478Y-00776*
Y-00813*
X-00442*
X-00441Y-00813*
X-00439Y-00813*
X-00403*
Y-00776*
X-00403Y-00775*
X-00403Y-00774*
Y-00738*
X-00439*
X-00441Y-00737*
G37*
G36*
X-00244Y-00737D02*
X-00254Y-00739D01*
X-00263Y-00742*
X-00271Y-00748*
X-00277Y-00756*
X-0028Y-00765*
X-00282Y-00775*
X-0028Y-00785*
X-00277Y-00794*
X-00271Y-00802*
X-00263Y-00808*
X-00254Y-00812*
X-00244Y-00813*
X-00234Y-00812*
X-00225Y-00808*
X-00217Y-00802*
X-00211Y-00794*
X-00207Y-00785*
X-00206Y-00775*
X-00207Y-00765*
X-00211Y-00756*
X-00217Y-00748*
X-00225Y-00742*
X-00234Y-00739*
X-00244Y-00737*
G37*
G36*
X-00342D02*
X-00352Y-00739D01*
X-00361Y-00742*
X-00369Y-00748*
X-00375Y-00756*
X-00379Y-00765*
X-0038Y-00775*
X-00379Y-00785*
X-00375Y-00794*
X-00369Y-00802*
X-00361Y-00808*
X-00352Y-00812*
X-00342Y-00813*
X-00332Y-00812*
X-00323Y-00808*
X-00315Y-00802*
X-00309Y-00794*
X-00306Y-00785*
X-00304Y-00775*
X-00306Y-00765*
X-00309Y-00756*
X-00315Y-00748*
X-00323Y-00742*
X-00332Y-00739*
X-00342Y-00737*
G37*
G36*
X-00581Y-00888D02*
X-00591Y-0089D01*
X-00599Y-00896*
X-00605Y-00904*
X-00607Y-00914*
Y-00933*
X-00617*
Y-00996*
X-00546*
Y-00933*
X-00556*
Y-00914*
X-00558Y-00904*
X-00563Y-00896*
X-00572Y-0089*
X-00581Y-00888*
G37*
G36*
X00664Y-00808D02*
X00663Y-00808D01*
X00631*
Y-0084*
X0063Y-00841*
X00631Y-00842*
Y-00875*
X00663*
X00664Y-00875*
X00665Y-00875*
X00698*
Y-00842*
X00698Y-00841*
X00698Y-0084*
Y-00808*
X00665*
X00664Y-00808*
G37*
G36*
X00507Y-00807D02*
X00498Y-00809D01*
X0049Y-00812*
X00483Y-00817*
X00477Y-00824*
X00474Y-00832*
X00473Y-00841*
X00474Y-0085*
X00477Y-00858*
X00483Y-00865*
X0049Y-00871*
X00498Y-00874*
X00507Y-00875*
X00516Y-00874*
X00524Y-00871*
X00531Y-00865*
X00536Y-00858*
X0054Y-0085*
X00541Y-00841*
X0054Y-00832*
X00536Y-00824*
X00531Y-00817*
X00524Y-00812*
X00516Y-00809*
X00507Y-00807*
G37*
G36*
X00428D02*
X00419Y-00809D01*
X00411Y-00812*
X00404Y-00817*
X00399Y-00824*
X00395Y-00832*
X00394Y-00841*
X00395Y-0085*
X00399Y-00858*
X00404Y-00865*
X00411Y-00871*
X00419Y-00874*
X00428Y-00875*
X00437Y-00874*
X00445Y-00871*
X00452Y-00865*
X00457Y-00858*
X00461Y-0085*
X00462Y-00841*
X00461Y-00832*
X00457Y-00824*
X00452Y-00817*
X00445Y-00812*
X00437Y-00809*
X00428Y-00807*
G37*
%LNbrushed_pcb-5*%
%LPD*%
G54D14*
X01019Y-00396D02*
Y-00311D01*
X-00232Y-00851D02*
X-00156Y-00775D01*
X-00508Y-00851D02*
X-00232D01*
X-00295Y-00886D02*
X-00242Y-0094D01*
X-00511Y-00886D02*
X-00295D01*
X005Y-00122D02*
X00571Y-00193D01*
X00645*
X00707Y-00255*
X01003Y-00122D02*
Y00114D01*
Y-00122D02*
X01003Y-00122D01*
X00717Y-00235D02*
X01318D01*
X00523Y-00094D02*
X00576D01*
X00717Y-00235*
X01478Y-00859D02*
Y-00812D01*
Y-00859D02*
X01523Y-00903D01*
X-00156Y-00775D02*
X-00145D01*
X-00047D02*
X00008Y-0072D01*
X00079D02*
X00119Y-0068D01*
X00209Y-00384D02*
X00322D01*
X00119Y-00475D02*
X00209Y-00384D01*
X00119Y-0068D02*
Y-00475D01*
X00008Y-0072D02*
X00079D01*
X01213Y00123D02*
X01419Y-00082D01*
X01718Y-00364D02*
Y-00088D01*
X01419Y-00082D02*
X01713D01*
X01718Y-00088*
X01515Y-00023D02*
X01618D01*
X00763Y00192D02*
X01318D01*
X01618Y-00023D02*
X01716D01*
X02281Y00308D02*
X02312Y00277D01*
X00919Y00308D02*
X02281D01*
X00885Y00341D02*
X00919Y00308D01*
X01308Y00364D02*
X01324Y00347D01*
X02327*
X0239Y00284*
X00885Y00409D02*
X00894Y00418D01*
X00885Y00341D02*
Y00409D01*
X01483Y-00613D02*
X01561Y-0069D01*
X01519Y-00838D02*
X01561Y-00797D01*
Y-0069*
X0153Y-00761D02*
Y-00708D01*
X01455Y-00634D02*
X0153Y-00708D01*
X01455Y-00634D02*
Y-00554D01*
X01483Y-00613D02*
Y-00533D01*
X01262Y-00428D02*
X01378D01*
X0137Y-00391D02*
X0139Y-00412D01*
X01378Y-00428D02*
X01483Y-00533D01*
X0137Y-00391D02*
Y-00287D01*
X0139Y-00412D02*
X0177D01*
X01818Y-00364*
X01237Y-00468D02*
X01369D01*
X01455Y-00554*
X0122Y-00451D02*
X01237Y-00468D01*
X0167Y00192D02*
X01966Y-00103D01*
X01363Y00192D02*
X0167D01*
X01362Y00194D02*
X01363Y00192D01*
X01003Y00115D02*
X01003Y00114D01*
X00107Y-00879D02*
Y-00745D01*
X-00045Y-01032D02*
X00107Y-00879D01*
Y-00745D02*
X0017Y-00682D01*
Y-00519*
X0019Y-00338D02*
X00326D01*
X00033Y-00495D02*
X0019Y-00338D01*
X0017Y-00519D02*
X00273Y-00417D01*
X00318*
X00938Y00364D02*
X01308D01*
X0239Y-00362D02*
Y00284D01*
X02312Y-00362D02*
Y00277D01*
X01333Y00232D02*
X01362Y00203D01*
X00766Y00232D02*
X01333D01*
X-01075Y0041D02*
X-00918D01*
X-00867Y0036*
Y00052D02*
Y0036D01*
X-00951Y00333D02*
X-00897D01*
X0006Y-00676D02*
X00074Y-00662D01*
Y-00608*
X0006Y-00678D02*
Y-00676D01*
X00394Y-00461D02*
X00403D01*
X00293Y-00562D02*
X00394Y-00461D01*
X00403D02*
X00404Y-00459D01*
X00293Y-00785D02*
Y-00562D01*
X00273Y-00823D02*
Y-00549D01*
X00401Y-00421*
X00631Y00083D02*
X00631Y00083D01*
X00654*
X00763Y00192*
X00632Y00131D02*
X00652D01*
X00753Y00232*
X0063Y00129D02*
X00632Y00131D01*
X00753Y00232D02*
X00766D01*
X0104Y-00462D02*
X01119Y-00384D01*
X0187Y-00431D02*
Y-00063D01*
X01361Y00115D02*
X01692D01*
X0187Y-00063*
X01627Y-00576D02*
X01673Y-00621D01*
X01903*
X01966Y-00558*
Y-00103*
X01726Y-00576D02*
X0187Y-00431D01*
X01362Y00194D02*
Y00203D01*
X01318Y00157D02*
X01361Y00115D01*
X01318Y00157D02*
Y00192D01*
X00938Y-00841D02*
Y-00654D01*
X00903Y-00618D02*
Y-00541D01*
Y-00618D02*
X00938Y-00654D01*
X00883Y-00532D02*
X01019Y-00396D01*
X00883Y-00844D02*
Y-00532D01*
Y-00844D02*
X00938Y-009D01*
X00981Y-00462D02*
X0104D01*
X00903Y-00541D02*
X00981Y-00462D01*
X00938Y-00841D02*
X00938D01*
X00707Y-00255D02*
X00941D01*
X00971Y-00284*
X0087Y-00285D02*
X0087Y-00285D01*
Y-00363D02*
Y-00285D01*
Y-00363D02*
X00871Y-00364D01*
X01318Y-00235D02*
X0137Y-00287D01*
X00971Y-00364D02*
Y-00284D01*
X01478Y-00812D02*
X0153Y-00761D01*
X01523Y-01038D02*
Y-00903D01*
Y-01038D02*
D01*
X01519Y-00841D02*
Y-00838D01*
X00399Y00446D02*
X00451D01*
X0096Y0046D02*
X01125D01*
X01125Y0046*
X0096Y00461D02*
X0096Y0046D01*
X00938Y-01038D02*
X00938Y-01038D01*
Y-009*
X00938Y-00841D02*
X00938Y-00841D01*
X0122Y-00451D02*
Y-00428D01*
X01119Y-00384D02*
Y-00314D01*
X00293Y-00785D02*
X00349Y-00841D01*
Y-01038D02*
Y-009D01*
X00273Y-00823D02*
X00349Y-009D01*
X-00457Y00102D02*
X-00361D01*
X-00457Y0005D02*
X-00359D01*
X-00867Y00052D02*
X-00867Y00052D01*
X-00457Y00153D02*
X-00362D01*
X-00359Y0015*
X-00216Y-00448D02*
X-00165D01*
X-00118Y-00495*
X00033*
X00074Y-00113D02*
Y00035D01*
X-00242Y-01032D02*
Y-0094D01*
X00053Y-00564D02*
X00074Y-00543D01*
Y-00509*
X-00025Y-00564D02*
X00053D01*
X00399Y00044D02*
X00451D01*
X00399Y00095D02*
X00451D01*
X00399Y00245D02*
X00451D01*
X00399Y00296D02*
X00451D01*
X00399Y00343D02*
X00451D01*
X00399Y-00002D02*
X00451D01*
X-01334Y-00787D02*
Y-00711D01*
X-01334Y-00787D02*
X-01334Y-00787D01*
Y-00711D02*
X-01333Y-00711D01*
X-00144Y-01032D02*
X-00143Y-01032D01*
X00074Y-00113D02*
X00075Y-00114D01*
X00399Y00245D02*
Y00245D01*
X-00457Y0035D02*
X-00359D01*
X-00457D02*
D01*
X-00964Y0032D02*
X-00951Y00333D01*
X0036Y0D02*
X00399Y-00002D01*
X0036Y0005D02*
X00399Y00044D01*
X0036Y001D02*
X00399Y00095D01*
X0036Y0025D02*
X00399Y00245D01*
X0036Y003D02*
X00399Y00296D01*
X0036Y0035D02*
X00399Y00343D01*
X0036Y004D02*
X00399Y00394D01*
X00451*
X0036Y0045D02*
X00399Y00446D01*
X-00361Y00102D02*
X-00359Y001D01*
X-00359Y002D02*
X-00359Y002D01*
X-00457Y002D02*
X-00359D01*
X-00457Y00299D02*
X-0036D01*
X-00359Y003*
X-00457Y00248D02*
X-00361D01*
X-00359Y0025*
G54D20*
X02098Y-00496D03*
X02016D03*
X0222Y-00134D03*
X02137D03*
G54D21*
X-01085Y-00785D03*
Y-0071D03*
X-01084Y-00541D03*
Y-00616D03*
G54D22*
X-00581Y-01047D03*
Y-00964D03*
X02617Y00457D03*
Y00539D03*
X-02404Y-00785D03*
Y-00702D03*
X-02623Y00445D03*
Y00528D03*
X00802Y-00556D03*
Y-00639D03*
X00216Y-00556D03*
Y-00639D03*
X0139Y-00556D03*
Y-00639D03*
X02366Y-00683D03*
Y-00765D03*
X00216Y-00857D03*
Y-00774D03*
X0139Y-00868D03*
Y-00785D03*
X00802Y-00877D03*
Y-00794D03*
X00805Y-01074D03*
Y-00991D03*
X0139Y-01068D03*
Y-00985D03*
X-00581Y-00795D03*
Y-00712D03*
X00216Y-00991D03*
Y-01074D03*
G54D23*
X0222Y00266D03*
X02137D03*
X0222Y00172D03*
X02137D03*
X02224Y00077D03*
X02141D03*
X02224Y-00012D03*
X02141D03*
X00664Y-01038D03*
X01253Y-00841D03*
X00664D03*
X01253Y-01038D03*
X01837D03*
X01834Y-00841D03*
X-02156Y00314D03*
Y00155D03*
Y-00002D03*
Y-00162D03*
G54D24*
X-01525Y-00592D03*
X-0137Y-00954D03*
X-01214D03*
X-01682Y-00592D03*
G54D25*
X-01525Y-00954D03*
X-0137Y-00592D03*
X-01214D03*
X-01682Y-00954D03*
G54D26*
X-0101Y-00785D03*
Y-00702D03*
X-01009Y-00624D03*
Y-00541D03*
X-01011Y-009D03*
Y-00983D03*
X-00299Y00968D03*
Y01051D03*
G54D27*
X-01096Y-00979D03*
Y-00902D03*
G54D28*
X-01291Y0032D03*
Y00209D03*
X-014Y0032D03*
Y00209D03*
X-01509Y0032D03*
Y00209D03*
X-01618Y0032D03*
Y00209D03*
X-01836Y0032D03*
Y00209D03*
X-01945Y0032D03*
Y00209D03*
X-01727Y0032D03*
Y00209D03*
X-01073Y0032D03*
Y00209D03*
X-01182Y0032D03*
Y00209D03*
X-00964Y0032D03*
Y00209D03*
G54D29*
X00074Y-00608D03*
Y-00509D03*
G54D30*
X025Y00228D03*
Y00082D03*
Y-00047D03*
G54D31*
X-00003Y00351D03*
X-00059D03*
X-00114D03*
X-00003Y00241D03*
X-00059D03*
X-00114D03*
X-00003Y00296D03*
X-00114D03*
X-00059D03*
G54D32*
X00275Y-00114D03*
X00225D03*
X00175D03*
X00125D03*
X00075D03*
X00025D03*
X-00025D03*
X-00075D03*
X-00125D03*
X-00175D03*
X-00225D03*
X-00275D03*
G54D33*
X0036Y006D03*
Y-00049D03*
Y0D03*
Y0005D03*
Y001D03*
Y0015D03*
Y002D03*
Y0025D03*
Y003D03*
Y0035D03*
Y004D03*
Y0045D03*
Y005D03*
Y0055D03*
X-00359Y0045D03*
Y004D03*
Y0035D03*
Y003D03*
Y0025D03*
Y002D03*
Y0015D03*
Y001D03*
Y0005D03*
Y0D03*
Y-00049D03*
Y005D03*
Y0055D03*
Y006D03*
G54D34*
X-01863Y-00908D03*
Y-00653D03*
G54D35*
X-00385Y01037D03*
Y00964D03*
G54D53*
X0005Y-00775D03*
X-00047D03*
X-00145D03*
X-00244D03*
X-00342D03*
X01047Y-00576D03*
X01145D03*
X01244D03*
X-0034Y-01032D03*
X-00242D03*
X-00143D03*
X-00045D03*
X00052D03*
X00655Y-00576D03*
X00557D03*
X00458D03*
X01824D03*
X01726D03*
X01627D03*
G54D54*
X-00441Y-00775D03*
X00948Y-00576D03*
X-00439Y-01032D03*
X0036Y-00576D03*
X01529D03*
G54D57*
X00349Y-01038D03*
X00428D03*
X00507D03*
X00585D03*
X-02274Y-00162D03*
Y00155D03*
Y00314D03*
Y-00002D03*
X-02215Y00314D03*
Y00155D03*
Y-00002D03*
Y-00162D03*
X00938Y-00841D03*
X01017D03*
X01096D03*
X01175D03*
X00585D03*
X00507D03*
X00428D03*
X00349D03*
X01175Y-01038D03*
X01096D03*
X01017D03*
X00938D03*
X01759D03*
X0168D03*
X01601D03*
X01523D03*
X01755Y-00841D03*
X01677D03*
X01598D03*
X01519D03*
G54D65*
X-00202Y-00564D03*
X-00143D03*
X-00084D03*
G54D66*
X-00025Y-00564D03*
G54D71*
X01649Y0084D02*
X01745Y00776D01*
X01806Y00735*
X01649Y0084D02*
X01745Y00774D01*
X01737Y00733D02*
X01804D01*
X00097Y00842D02*
X00097Y00843D01*
Y00843*
X00098Y00843*
X00097Y00842D02*
X00097Y00843D01*
X-01325Y00842D02*
X-00642D01*
X-00642Y00842*
X00097*
X01171Y00841D02*
X01649Y0084D01*
X00949Y00841D02*
X01171Y00841D01*
X00885Y00842D02*
X00949Y00841D01*
X00098Y00843D02*
X00885Y00842D01*
G54D72*
X01804Y00733D02*
X01806Y00735D01*
X02543Y-0061D02*
X02598Y-00555D01*
X02562Y00322D02*
X02598Y00287D01*
X02448Y00322D02*
X02562D01*
X02598Y-00555D02*
Y00287D01*
X02016Y-00496D02*
X02022Y-00503D01*
Y-00562D02*
Y-00503D01*
Y-00562D02*
X02027Y-00566D01*
X0036Y005D02*
X01235D01*
X01358Y00377*
X02393*
X02448Y00322*
X02245Y-0061D02*
X02543D01*
X02196Y-00659D02*
X02245Y-0061D01*
X02195Y-00659D02*
X02196D01*
X02372Y-00841D02*
Y-00765D01*
X02366D02*
X02372D01*
X01806Y00735D02*
X01818D01*
X02617Y00457D02*
X02618Y00455D01*
Y0039D02*
Y00455D01*
X0077Y-00933D02*
X0085D01*
X00664Y-01038D02*
X0077Y-00933D01*
X01463Y-00162D02*
X01518Y-00217D01*
X00797Y-00162D02*
X01463D01*
X00582Y00052D02*
X00797Y-00162D01*
X00519Y00005D02*
X0073Y-00205D01*
X01354*
X00519Y00005D02*
Y00129D01*
X01401Y-00875D02*
X01433D01*
X01394Y-00868D02*
X01401Y-00875D01*
X01433D02*
X01442Y-00884D01*
X01379Y-00645D02*
X01383D01*
X01345Y-00699D02*
Y-0068D01*
X01379Y-00645*
X01383D02*
X0139Y-00639D01*
X-02236Y00103D02*
X-01751D01*
X-02271Y00137D02*
Y00151D01*
Y00137D02*
X-02236Y00103D01*
X-02222Y00063D02*
X-01562D01*
X-02271Y00014D02*
X-02222Y00063D01*
X-02271Y0D02*
Y00014D01*
X-02274Y-00002D02*
X-02271Y0D01*
X-02024Y0002D02*
X-01363D01*
X-02128Y-00083D02*
X-02024Y0002D01*
X-02449Y-00312D02*
X-02445Y-00315D01*
X-01363Y0002D02*
X-01291Y00093D01*
X-01562Y00063D02*
X-01509Y00116D01*
X-02449Y-00312D02*
Y-00303D01*
X-02445Y-00299*
X-01879Y-00019D02*
X-01226D01*
X-02123Y-00263D02*
X-01879Y-00019D01*
X-01226D02*
X-01073Y00133D01*
X-00342Y-00775D02*
X-00341Y-00776D01*
X01885Y00082D02*
Y00278D01*
X0218Y00477D02*
X02181Y00477D01*
X01726Y00477D02*
X0218D01*
X0231Y00437D02*
X02446Y00573D01*
X01595Y0055D02*
X01709Y00437D01*
X01592Y0061D02*
X01726Y00477D01*
X01709Y00437D02*
X0231D01*
X01783Y0052D02*
Y00717D01*
X0036Y0055D02*
X01595D01*
X01126Y0061D02*
X01592D01*
X00582Y00052D02*
Y00141D01*
X00523Y002D02*
X00582Y00141D01*
X-01751Y00103D02*
X-01728Y00126D01*
X-02209Y-00083D02*
X-02128D01*
X-00298Y-00357D02*
X-00226D01*
X-00075Y-00205*
X-00279Y-00397D02*
X-00204D01*
X-00025Y-00217*
X-0137Y-01027D02*
X-01361Y-01035D01*
X-0137Y-01027D02*
Y-00954D01*
X-00851Y-00987D02*
Y-00708D01*
X-00774Y-00632*
X-00899Y-01035D02*
X-00851Y-00987D01*
X-01185Y-0048D02*
X-00528D01*
X-01214Y-00509D02*
X-01185Y-0048D01*
X-01294Y0041D02*
X-01075D01*
X-01073Y00408*
Y0032D02*
Y00408D01*
X-02089Y-00653D02*
X-01863D01*
X-01863Y-00653*
X-02124Y-00619D02*
X-02089Y-00653D01*
X-00668Y-01086D02*
X-00622D01*
X-01738D02*
X-00668D01*
Y-00628*
X-01761Y-01062D02*
X-01738Y-01086D01*
X-01506Y0041D02*
X-01294D01*
X-01292Y00408*
Y00322D02*
Y00408D01*
X-01728Y0041D02*
X-01506D01*
X-01507Y00409D02*
X-01506Y0041D01*
X-01947D02*
X-01728D01*
X-01727Y00409*
X-02327Y0041D02*
X-01947D01*
X-01945Y00409*
X-02399Y00338D02*
X-02327Y0041D01*
X-02385Y00414D02*
X-0235Y0045D01*
X-00359*
X-02537Y00338D02*
X-02399D01*
X-02452Y00414D02*
X-02385D01*
X01339Y-00935D02*
X01442D01*
X01309Y-00966D02*
X01339Y-00935D01*
X01309Y-01012D02*
Y-00966D01*
X01253Y-01038D02*
X01262Y-0103D01*
X01291*
X01309Y-01012*
X00553Y-00281D02*
X00571Y-00299D01*
Y-00364D02*
Y-00299D01*
X00635Y-00241D02*
X00671Y-00277D01*
X00343Y-00241D02*
X00635D01*
X00277Y-00175D02*
X00343Y-00241D01*
X00225Y-00181D02*
X00325Y-00281D01*
X00553*
X00225Y-00181D02*
Y-00114D01*
X00277Y-00175D02*
Y-00116D01*
X00275Y-00114D02*
X00277Y-00116D01*
X-0185Y-00894D02*
X-0183D01*
X-01815Y-0088*
X-01426Y-00886D02*
X-0137Y-00942D01*
X-01815Y-0088D02*
X-01426D01*
X-01682Y-00592D02*
X-01665Y-00576D01*
Y-00507*
X-01664Y-00506*
X-01863Y-00907D02*
X-0185Y-00894D01*
X-01426Y-00886D02*
Y-0088D01*
X-01895Y-00897D02*
X-01874D01*
X-01863Y-00908*
X-02054Y-00738D02*
X-01895Y-00897D01*
X-02234Y-00738D02*
X-02054D01*
X-0137Y-00954D02*
Y-00942D01*
X-01525Y-00592D02*
X-01525Y-00592D01*
X-01519*
X-00685Y00059D02*
Y0009D01*
X-00892Y-00148D02*
X-00685Y00059D01*
X-0119Y-00148D02*
X-00892D01*
X-01248Y-00205D02*
X-0119Y-00148D01*
X-01248Y-00397D02*
Y-00205D01*
X-01313Y-00462D02*
X-01248Y-00397D01*
X-01486Y-00462D02*
X-01313D01*
X-01513Y-0049D02*
X-01486Y-00462D01*
X-01513Y-00587D02*
Y-0049D01*
X-01519Y-00592D02*
X-01513Y-00587D01*
X-0137Y-00954D02*
X-01214D01*
X-0137Y-00592D02*
X-01281D01*
X-01272Y-00601*
X-02234Y-00659D02*
Y-00584D01*
X-02079Y-00429*
X00209Y-0108D02*
X00216Y-01074D01*
X00174Y-0108D02*
X00209D01*
X00153Y-01101D02*
X00174Y-0108D01*
X025Y00083D02*
Y0014D01*
X02511Y00152*
X025Y00083D02*
X025Y00082D01*
X02497Y00224D02*
X025Y00228D01*
X02429Y00224D02*
X02497D01*
X0222Y-00134D02*
X02278D01*
X02279Y-00133*
X01354Y-00205D02*
X01418Y-00269D01*
X01578Y-00661D02*
X01803D01*
X01877Y-00736D02*
X02193D01*
X01803Y-00661D02*
X01877Y-00736D01*
X02193D02*
X02195Y-00738D01*
X01305Y-00739D02*
Y-0072D01*
Y-00876D02*
Y-00739D01*
X015Y-0074D02*
X015D01*
X01305Y-00739D02*
X01499D01*
X015Y-0074*
X01442Y-00935D02*
X01471Y-00965D01*
X01286Y-00895D02*
X01305Y-00876D01*
X01275Y-00519D02*
X01305Y-00549D01*
Y-0072D02*
X01305Y-0072D01*
X01305Y-0072D02*
Y-00549D01*
X0048Y0061D02*
X01126D01*
X00433Y00656D02*
X0048Y0061D01*
X-005Y00656D02*
X00433D01*
X-02452Y00493D02*
X-00663D01*
X-005Y00656*
X-00101Y-00622D02*
X-00087Y-00607D01*
X-00399Y-00522D02*
X-00299Y-00622D01*
X-00087Y-00607D02*
Y-00567D01*
X-00299Y-00622D02*
X-00101D01*
X-00581Y-00712D02*
Y-00659D01*
X01214Y-00895D02*
X01286D01*
X01185Y-00924D02*
X01214Y-00895D01*
X00973Y-00924D02*
X01185D01*
X00685Y-00736D02*
X00706Y-00758D01*
X00887Y-00908D02*
X00889D01*
X00853Y-00874D02*
X00887Y-00908D01*
X00776Y-00741D02*
X00835D01*
X00853Y-00758*
Y-00874D02*
Y-00758D01*
X0085Y-00933D02*
X00881Y-00964D01*
Y-01059D02*
Y-00964D01*
X00759Y-00758D02*
X00776Y-00741D01*
X00706Y-00758D02*
X00759D01*
X00745Y-0087D02*
X00745Y-0087D01*
X00796*
X00685Y-00736D02*
Y-00665D01*
X00727Y-00623*
Y-00542*
X00734Y-00709D02*
Y-00703D01*
X00798Y-00639*
X007Y-00515D02*
X00727Y-00542D01*
X00798Y-00639D02*
X00802D01*
X00397Y-00515D02*
X007D01*
X-00125Y-00114D02*
Y00004D01*
X-00124Y00005*
X00938Y-01038D02*
X00938D01*
X00671Y-00364D02*
Y-00277D01*
X-00175Y-00114D02*
Y-00034D01*
X-00174Y-00034*
X00125Y-00043D02*
X00301D01*
X00304Y-00046*
X00147Y-00851D02*
X00204D01*
X-0061Y-01098D02*
X0009D01*
X-00622Y-01086D02*
X-0061Y-01098D01*
X0009D02*
X00141Y-01047D01*
X01471Y-0106D02*
Y-00965D01*
Y-0106D02*
X01501Y-0109D01*
X01786*
X01837Y-01038*
X00881Y-01059D02*
X00912Y-0109D01*
X01202*
X01253Y-01038*
X00141Y-00993D02*
Y-00956D01*
Y-01047D02*
Y-00993D01*
X00297Y-01059D02*
X00328Y-0109D01*
X00613*
X00664Y-01038*
X00297Y-01059D02*
Y-00954D01*
X00181Y-00917D02*
X00259D01*
X00297Y-00954*
X00141Y-00956D02*
X00181Y-00917D01*
X-00581Y-00964D02*
Y-00914D01*
X-00257Y-00494D02*
X-00176D01*
X-00146Y-00524*
Y-00561D02*
Y-00524D01*
X-00359Y-00392D02*
X-00257Y-00494D01*
X00173Y-00241D02*
Y-00115D01*
X00123Y-00195D02*
Y-00116D01*
X00125Y-00114*
X00173Y-00115D02*
X00175Y-00114D01*
X-01214Y-0044D02*
X-00527D01*
X-01272Y-00499D02*
X-01214Y-0044D01*
X-01214Y-00604D02*
Y-00509D01*
X-02537Y-00548D02*
Y00338D01*
X-025Y-00586D02*
X-0238D01*
X-02537Y-00548D02*
X-025Y-00586D01*
X-02314Y-00711D02*
X-02305Y-00721D01*
X-02292Y-00734*
X-02314Y-00711D02*
Y-00651D01*
X-02292Y-00734D02*
X-02238D01*
X-02234Y-00738*
X-0238Y-00586D02*
X-02314Y-00651D01*
X-0075Y004D02*
X-00359D01*
X-00818Y00332D02*
X-0075Y004D01*
X-00818Y00044D02*
Y00332D01*
X-00921Y-00058D02*
X-00818Y00044D01*
X-01192Y-00058D02*
X-00921D01*
X-01383Y-00249D02*
X-01192Y-00058D01*
X-02017Y-00249D02*
X-01383D01*
X-02079Y-00311D02*
X-02017Y-00249D01*
X-02079Y-00429D02*
Y-00311D01*
X-01836Y00269D02*
X-01182D01*
X-02112D02*
X-01836D01*
Y0032*
X-02114Y00267D02*
X-02112Y00269D01*
X00357Y-00046D02*
X0036Y-00049D01*
X00304Y-00046D02*
X00357D01*
X-01437Y-00799D02*
X-01393Y-00842D01*
X-01019Y-00891D02*
X-01011Y-009D01*
X-01037Y-00842D02*
X-01019Y-0086D01*
Y-00891D02*
Y-0086D01*
X-01393Y-00842D02*
X-01037D01*
X-01182Y00269D02*
X-01025D01*
X-01182D02*
Y0032D01*
X-0101Y00285D02*
X-00974Y0032D01*
X-01025Y00269D02*
X-0101Y00283D01*
X-00974Y0032D02*
X-00964D01*
X-0101Y00283D02*
Y00285D01*
X-01192Y0032D02*
X-01182D01*
X-01204Y00309D02*
X-01192Y0032D01*
X-01836D02*
X-01826D01*
X01386Y-01061D02*
X01395Y-0107D01*
X0132Y-01061D02*
X01386D01*
X0132Y-01061D02*
X0132Y-01061D01*
X00796Y-0087D02*
X00802Y-00877D01*
X00506Y00141D02*
X00519Y00129D01*
X0036Y0015D02*
X00497D01*
X0036Y002D02*
X00523D01*
X-01361Y-01035D02*
X-00899D01*
X-02404Y-00644D02*
X-02404Y-00643D01*
X00735Y-01071D02*
X00803D01*
X00805Y-01074*
X00729Y-01065D02*
X00735Y-01071D01*
X-00444Y0D02*
X-00359D01*
X-0047Y-00025D02*
X-00444Y0D01*
X-0047Y-00185D02*
Y-00025D01*
X-00359Y-00392D02*
Y-00049D01*
X-0047Y-00185D02*
X-00399Y-00256D01*
Y-00522D02*
Y-00256D01*
X-01437Y-00799D02*
Y-00603D01*
X-01272Y-00696D02*
X-01182Y-00785D01*
X-01272Y-00696D02*
Y-00601D01*
Y-00499*
X-01474Y-00419D02*
X-01416Y-00361D01*
X-01785Y-00419D02*
X-01474D01*
X-01826Y-0046D02*
X-01785Y-00419D01*
X-02411Y-00263D02*
X-02123D01*
X-00075Y-00205D02*
Y-00114D01*
X-01089Y-00611D02*
X-01084Y-00616D01*
X-01207Y-00611D02*
X-01089D01*
X-01214Y-00604D02*
X-01207Y-00611D01*
X-01182Y-00785D02*
X-01085D01*
X-00025Y-00217D02*
Y-00114D01*
X-00146Y-00561D02*
X-00143Y-00564D01*
X-00087Y-00567D02*
X-00084Y-00564D01*
X-01095Y-00981D02*
X-01012D01*
X-01096Y-00979D02*
X-01095Y-00981D01*
X-01012D02*
X-01011Y-00983D01*
X-01214Y-00942D02*
X-01174Y-00902D01*
X-01096*
X-01214Y-00954D02*
Y-00942D01*
X0222Y00266D02*
X02273D01*
X-01084Y-00541D02*
X-01009D01*
X-01084Y-00541D02*
X-01084Y-00541D01*
X-01009D02*
X-01009Y-00541D01*
X-01081Y-00706D02*
X-01014D01*
X-01085Y-0071D02*
X-01081Y-00706D01*
X-01014D02*
X-0101Y-00702D01*
X02226Y-00012D02*
X02279D01*
X02224Y00077D02*
X02277D01*
X0222Y00172D02*
X02273D01*
X01418Y-00364D02*
Y-00269D01*
X00497Y0015D02*
X00506Y00141D01*
X01518Y-00364D02*
Y-00217D01*
X-02445Y-00297D02*
X-02411Y-00263D01*
X-02445Y-00299D02*
Y-00297D01*
X-01292Y00322D02*
X-01291Y0032D01*
X-01727D02*
Y00409D01*
X-01509Y0032D02*
X-01507Y00323D01*
Y00409*
X-01945Y0032D02*
Y00409D01*
X-00364Y01051D02*
X-00299D01*
X-00385Y01037D02*
X-00377D01*
X-00364Y01051*
X-00413Y00984D02*
X-00393Y00964D01*
X-00492Y00984D02*
X-00413D01*
X-00393Y00964D02*
X-00385D01*
X-02271Y-00145D02*
X-02209Y-00083D01*
X-01728Y00126D02*
Y00208D01*
X-02537Y00472D02*
X-0252Y00489D01*
X-02537Y00338D02*
Y00472D01*
X-0252Y00489D02*
X-02456D01*
X-02452Y00493*
X-014Y00272D02*
Y0032D01*
X-01618Y00272D02*
Y0032D01*
X-02271Y-00159D02*
Y-00145D01*
X-02274Y-00162D02*
X-02271Y-00159D01*
X-01509Y00116D02*
Y00209D01*
X-01073D02*
X-00964D01*
X-01073Y00133D02*
Y00209D01*
X-01291Y00093D02*
Y00209D01*
X-01182*
X-01509D02*
X-014D01*
X-01727D02*
X-01618D01*
X-01728Y00208D02*
X-01727Y00209D01*
X-02274Y00155D02*
X-02271Y00151D01*
X-01945Y00209D02*
X-01836D01*
X-02182D02*
X-01945D01*
X-02271Y00297D02*
Y00311D01*
X-02274Y00314D02*
X-02271Y00311D01*
Y00297D02*
X-02182Y00209D01*
X-02404Y-00702D02*
Y-00644D01*
X-02624Y00532D02*
Y00598D01*
Y00532D02*
X-02623Y00531D01*
X0018Y-00727D02*
X00199D01*
X00221Y-00705D02*
Y-00639D01*
X00199Y-00727D02*
X00221Y-00705D01*
X-00341Y-01031D02*
X-0034Y-01032D01*
X01518Y-01038D02*
X01523D01*
X00221Y-00639D02*
X00228Y-00632D01*
X-0037Y00496D02*
X-00368Y00498D01*
X-00443Y00496D02*
X-0037D01*
X-00443Y00548D02*
X-00366D01*
X-00443Y00547D02*
X-00443Y00548D01*
G54D73*
X-00098Y01042D03*
X00098D03*
X-02263Y00589D03*
Y00786D03*
X-00984Y01033D03*
X-00787D03*
X00984D03*
X00787D03*
X02263Y00787D03*
Y0059D03*
G54D74*
X-01716Y00738D03*
X-01816Y00738D03*
X-01916Y00738D03*
X-02016D03*
X-01071Y00737D03*
X-01171D03*
X-00871D03*
X-00971Y00736D03*
X00771Y00735D03*
X00671Y00734D03*
X00571Y00735D03*
X00471D03*
X01618D03*
X01518Y00734D03*
X01418Y00735D03*
X01318D03*
X-01316Y-00361D03*
X-01416D03*
X-01516D03*
X-01616D03*
X-01716D03*
X-01816D03*
X-01916D03*
X-02016D03*
X-01616Y00738D03*
X-01416D03*
X-01316D03*
X-01516D03*
X-00471Y-00362D03*
X-00571D03*
X-00671D03*
X-00771D03*
X-00871D03*
X-00971D03*
X-01071D03*
X-01171D03*
X-00771Y00737D03*
X-00571D03*
X-00471D03*
X-00671D03*
X01171Y-00364D03*
X01071D03*
X00971D03*
X00871D03*
X00771D03*
X00671D03*
X00571D03*
X00471D03*
X00871Y00735D03*
X01071D03*
X01171D03*
X00971D03*
X02018Y-00364D03*
X01918D03*
X01818D03*
X01718D03*
X01618D03*
X01518D03*
X01418D03*
X01318D03*
X01718Y00735D03*
X01918D03*
X02018D03*
X01818D03*
G54D75*
X0Y-0037D03*
X01873Y01062D03*
X-02579Y-00824D03*
X02579D03*
Y0083D03*
X-01873Y01062D03*
X-02579Y0083D03*
G54D76*
X02198Y-00499D03*
X02298D03*
X02398D03*
X02231Y-00369D03*
X02388D03*
X0231D03*
X-00492Y01084D03*
G54D77*
X02498Y-00499D03*
X02467Y-00369D03*
G54D78*
X-02452Y-00318D03*
X-02393D03*
X-02334D03*
X-02275D03*
X-02216D03*
X-02157D03*
G54D79*
X02446Y00573D03*
Y00494D03*
X-02234Y-00738D03*
Y-00659D03*
X-02452Y00414D03*
Y00493D03*
X02195Y-00659D03*
Y-00738D03*
G54D80*
X02446Y00415D03*
X-02234Y-00816D03*
X-02452Y00572D03*
X02195Y-00816D03*
G54D81*
X-00031Y00241D03*
X-00086D03*
X-00031Y00296D03*
X-00086D03*
X-00031Y00351D03*
X-00086D03*
X-00003Y00269D03*
X-00059D03*
X-00114D03*
X-00003Y00324D03*
X-00114D03*
X-00059D03*
X-00508Y-00851D03*
X-00511Y-00886D03*
X02618Y0039D03*
X01003Y-00122D03*
X01515Y-00023D03*
X01885Y00278D03*
X02181Y00477D03*
X01783Y0052D03*
X00894Y00418D03*
X00938Y00364D03*
X-00298Y-00357D03*
X-00279Y-00397D03*
X-00851Y-00944D03*
X-00528Y-0048D03*
X-00897Y00333D03*
X0006Y-00678D03*
X-01761Y-01062D03*
X00404Y-00459D03*
X00631Y00083D03*
X0063Y00129D03*
X-01664Y-00506D03*
X-02124Y-00619D03*
X00153Y-01101D03*
X01363Y00192D03*
X00766Y00232D03*
X01318Y00192D03*
X00763D03*
X02511Y00152D03*
X02429Y00224D03*
X02279Y-00133D03*
X01716Y-00023D03*
X01213Y00123D03*
X01885Y00082D03*
X01003Y00115D03*
X0087Y-00285D03*
X01578Y-00661D03*
X015Y-0074D03*
X01345Y-00699D03*
X01442Y-00884D03*
X01126Y0061D03*
X01125Y0046D03*
X0096Y00461D03*
X-00668Y-00628D03*
X-00581Y-00659D03*
X01275Y-00519D03*
X00973Y-00924D03*
X00889Y-00908D03*
X00745Y-0087D03*
X00734Y-00709D03*
X00322Y-00384D03*
X00318Y-00417D03*
X007Y-00515D03*
X00397D03*
X01262Y-00428D03*
X0122D03*
X-00124Y00005D03*
X005Y-00122D03*
X00523Y-00094D03*
X00401Y-00421D03*
X00326Y-00338D03*
X-00174Y-00034D03*
X-00867Y00052D03*
X00125Y-00043D03*
X-00216Y-00448D03*
X00074Y00035D03*
X00147Y-00851D03*
X00141Y-00993D03*
X-00581Y-00914D03*
X00173Y-00241D03*
X00123Y-00195D03*
X-02114Y00267D03*
X0132Y-01061D03*
X-00527Y-0044D03*
X-01362Y-01035D03*
X-02404Y-00643D03*
X-00685Y0009D03*
X-01826Y-0046D03*
X-00774Y-00632D03*
X00729Y-01065D03*
X-00668Y-01009D03*
X-01437Y-00603D03*
X02273Y00266D03*
X02279Y-00012D03*
X02277Y00077D03*
X02273Y00172D03*
X01618Y-00023D03*
X-02624Y00598D03*
X0018Y-00727D03*
G54D82*
X-00492Y00984D03*
G54D83*
X02027Y-00566D03*
X02372Y-00841D03*
X00451Y-00002D03*
Y00296D03*
Y00446D03*
X-00457Y00102D03*
Y00153D03*
Y00051D03*
X00451Y00044D03*
Y00095D03*
Y00245D03*
Y00343D03*
X-01334Y-00787D03*
X-00457Y0035D03*
X00451Y00394D03*
X-00443Y00496D03*
Y00547D03*
X-00457Y002D03*
Y00248D03*
Y00299D03*
G54D84*
X01019Y-00311D03*
X0054Y00453D03*
X-00503Y-00715D03*
X-00748Y-00551D03*
X-01219Y-00674D03*
X00465Y-00054D03*
X-01604Y-01041D03*
X-00254Y00085D03*
X00183Y0D03*
X-00641Y00224D03*
X01118Y-00303D03*
X-01333Y-00711D03*
G54D85*
X00097Y00842D03*
X-00642Y00842D03*
X01171Y00841D03*
X-01325Y00842D03*
M02*